<?xml version="1.0" standalone="no"?>
<!DOCTYPE svg PUBLIC "-//W3C//DTD SVG 1.1//EN" "http://www.w3.org/Graphics/SVG/1.1/DTD/svg11.dtd" >
<svg xmlns="http://www.w3.org/2000/svg" xmlns:xlink="http://www.w3.org/1999/xlink" version="1.1">
<metadata></metadata>
<defs>
<font id="bpg_rioni_vera_condensed_lightregular" horiz-adv-x="983" >
<font-face units-per-em="2048" ascent="1556" descent="-492" />
<missing-glyph horiz-adv-x="624" />
<glyph unicode=" "  horiz-adv-x="624" />
<glyph unicode="&#x09;" horiz-adv-x="624" />
<glyph unicode="&#xa0;" horiz-adv-x="624" />
<glyph unicode="!" horiz-adv-x="788" d="M340 0h108v160h-108v-160zM340 816q3 -36 7 -101q6 -126 12 -220h70q1 7 2 19.5t1 19.5q10 159 16 282v622h-108v-622z" />
<glyph unicode="&#x22;" horiz-adv-x="904" d="M220 967h74v471h-74v-471zM611 967h73v471h-73v-471z" />
<glyph unicode="#" horiz-adv-x="1647" d="M154 426h337l-108 -426h62q8 31 23.5 91t23.5 89q33 130 61 246h405l-106 -426h61q4 16 11.5 46.5t14 56t12.5 48.5q9 35 34 132.5t36 142.5h356v57h-341l109 445h351v58h-335l105 428h-61q-32 -122 -109 -428h-404l108 428h-64q-5 -21 -79 -320q-23 -93 -27 -108h-359 v-58h344l-111 -445h-350v-57zM568 483l113 445h402l-111 -445h-404z" />
<glyph unicode="$" horiz-adv-x="1250" d="M180 79q193 -76 434 -80l1 -309h1v309q221 16 338 104t117 239q0 138 -110 220t-345 119v536q216 -10 361 -69v64q-164 46 -361 53v237h-1v-239q-140 -10 -237 -51t-147.5 -111t-50.5 -167q0 -132 104 -210t331 -114v-565q-242 2 -435 98v-64zM269 952q0 113 88.5 182.5 t257.5 88.5v-540q-182 30 -264 93.5t-82 175.5zM616 39v568q190 -35 277.5 -103.5t87.5 -180.5q0 -233 -365 -284z" />
<glyph unicode="%" horiz-adv-x="1868" d="M99 1097q0 -174 81 -274q80 -94 222 -94q143 0 221 94q85 97 85 274q0 175 -85 272q-84 97 -221 97q-138 0 -221 -96q-82 -97 -82 -273zM161 1097q0 79 17 142t47.5 106.5t76 67t100.5 23.5q112 0 177.5 -91t65.5 -248q0 -159 -64.5 -249t-178.5 -90q-113 0 -177 89.5 t-64 249.5zM459 -30h48q53 89 195.5 324t218.5 361q178 297 488 811h-48zM1161 338q0 -177 82 -274q80 -94 223 -94q140 0 219 94q84 99 84 274t-82 274q-83 96 -221 96q-137 0 -223 -96q-82 -97 -82 -274zM1223 338q0 160 64.5 250t178.5 90q111 0 175.5 -90.5t64.5 -249.5 q0 -157 -65 -247.5t-175 -90.5q-113 0 -178 90.5t-65 247.5z" />
<glyph unicode="&#x26;" horiz-adv-x="1533" d="M127 424q0 -194 142 -326h-1q70 -62 165.5 -95t205.5 -33q247 0 480 201l167 -171h118l-23 23q-191 197 -210 216q184 246 223 485h-86q-25 -226 -174 -448l-569 581q-98 102 -133 160q-36 68 -36 131q0 112 85 186q83 70 209 70q118 0 273 -68v71q-155 59 -294 59 q-165 0 -271 -90q-96 -90 -96 -231q0 -105 121 -265q-296 -219 -296 -456zM224 437q0 101 57 201t177 209l618 -633q-201 -178 -417 -178q-182 0 -309 113q-126 115 -126 288z" />
<glyph unicode="'" horiz-adv-x="540" d="M234 967h73v471h-73v-471z" />
<glyph unicode="(" horiz-adv-x="767" d="M204 612q0 -434 285 -890h52q-123 226 -180 441.5t-57 448.5q0 448 236 888h-51q-285 -456 -285 -888z" />
<glyph unicode=")" horiz-adv-x="767" d="M226 -278h52q285 456 285 890q0 429 -285 888h-50q235 -441 235 -888q0 -233 -57 -448.5t-180 -441.5z" />
<glyph unicode="*" d="M59 824l55 -94l323 194v-361h109v361l323 -194l55 94l-344 187l344 186l-55 95l-323 -195v362h-109v-362l-323 195l-55 -95l344 -186z" />
<glyph unicode="+" horiz-adv-x="1647" d="M213 574h575v-574h71v574h575v74h-575v574h-71v-574h-575v-74z" />
<glyph unicode="," horiz-adv-x="624" d="M204 -245h38q9 18 20 39t24 47l20 40q50 94 87 165v114h-117v-130z" />
<glyph unicode="-" horiz-adv-x="709" d="M128 493h454v68h-454v-68z" />
<glyph unicode="." horiz-adv-x="624" d="M253 0h117v160h-117v-160z" />
<glyph unicode="/" horiz-adv-x="662" d="M45 -196h67q30 96 64.5 209t72.5 234.5t63 203.5q274 885 305 987h-69z" />
<glyph unicode="0" horiz-adv-x="1250" d="M144 717q0 -364 123 -555.5t358 -191.5q156 0 263.5 85.5t162.5 252.5t55 409q0 365 -123 557t-358 192t-358 -192t-123 -557zM252 717q0 685 373 685q374 0 374 -685q0 -683 -374 -683q-373 0 -373 683z" />
<glyph unicode="1" horiz-adv-x="1250" d="M235 1285q7 2 16.5 4l19 4t16.5 3q53 10 166.5 33.5t152.5 30.5v-1286h-341v-74h785v74h-340v1364h-152q-32 -6 -143 -28t-180 -36v-89z" />
<glyph unicode="2" horiz-adv-x="1250" d="M161 0h876v74h-795q600 614 634 655h-1q89 110 122 188q31 74 31 159q0 175 -123 281q-136 109 -349 109q-156 0 -384 -86v-93q213 104 388 104q153 0 257 -90q104 -95 104 -237q0 -87 -45 -176q-43 -83 -146 -201q-54 -60 -262 -269q-196 -198 -298 -306l-7 -5 q-1 -1 -1 0q0 -1 -1 -2v-105z" />
<glyph unicode="3" horiz-adv-x="1250" d="M166 32q190 -62 360 -62q271 0 413 114q138 110 138 313q0 132 -72 216q-72 88 -220 119l-1 92q124 31 191 107.5t67 184.5q0 161 -119 251q-127 99 -344 99q-162 0 -367 -55v-78q188 58 348 58q181 0 278 -76.5t97 -219.5q0 -139 -94.5 -214t-272.5 -75h-137v-70h129 q195 0 303.5 -89.5t108.5 -249.5q0 -173 -115 -263t-337 -90q-196 0 -354 69v-81z" />
<glyph unicode="4" horiz-adv-x="1250" d="M108 363h695v-363h105v363h220v72h-220v1003h-105v-1003h-670l643 1003h-51l-617 -942v-133zM776 1438h27v42z" />
<glyph unicode="5" horiz-adv-x="1250" d="M168 24q204 -54 354 -54q264 0 403 124q138 123 138 350q0 68 -17 131.5t-47 116.5t-72 96q-143 129 -373 129q-75 0 -232 -52v499h627v74h-716v-647q134 51 285 51q199 0 316 -108q122 -109 122 -290q0 -183 -122 -293q-116 -107 -316 -107q-187 0 -350 69v-89z" />
<glyph unicode="6" horiz-adv-x="1250" d="M152 717q0 -369 133 -565l-1 1q42 -60 97 -100.5t123 -61.5t147 -21q208 0 337 128q125 132 125 346q0 220 -122 346h1q-121 127 -330 127q-65 0 -135 -37t-140 -107t-139 -170q21 398 144.5 593t354.5 195q131 0 266 -51v79q-147 47 -274 47q-269 0 -425 -199 q-162 -204 -162 -550zM296 444q0 184 93 294q97 114 262 114q162 0 259 -114q95 -111 95 -294q0 -185 -95 -296q-97 -114 -259 -114q-164 0 -262 114q-93 110 -93 296z" />
<glyph unicode="7" horiz-adv-x="1250" d="M178 1364h762l-525 -1364h107q21 53 270 699q32 84 127 330t148 380v29h-889v-74z" />
<glyph unicode="8" horiz-adv-x="1250" d="M148 382q0 -199 123 -305.5t354 -106.5q153 0 260 47.5t162 140t55 224.5q0 127 -73 217h1q-73 88 -236 128v84q85 21 146.5 64t94 104.5t32.5 136.5q0 161 -114 254q-119 96 -328 96t-328 -96q-114 -93 -114 -254q0 -74 31 -135.5t89.5 -104t140.5 -62.5v-90 q-149 -35 -224 -125h1q-73 -90 -73 -217zM255 382q0 165 102 256h-1q101 93 269 93t269 -93h-1q103 -92 103 -256q0 -161 -102 -255q-101 -93 -269 -93t-269 93h1q-102 90 -102 255zM290 1097q0 145 88 225t247 80q158 0 247 -80.5t89 -224.5q0 -71 -23 -128t-66.5 -96 t-106 -59.5t-140.5 -20.5q-159 0 -247 80t-88 224z" />
<glyph unicode="9" horiz-adv-x="1250" d="M138 993q0 -217 121 -347h-1q124 -125 330 -125q65 0 135 36.5t140.5 107t138.5 171.5q-22 -400 -145 -596t-354 -196q-131 0 -266 51v-79q144 -46 275 -46q268 0 423 197q163 207 163 550q0 242 -56.5 409.5t-168 253.5t-273.5 86q-207 0 -337 -129q-125 -134 -125 -344 zM246 993q0 179 93 293q99 116 261 116q164 0 261 -116q94 -111 94 -293q0 -184 -94 -296q-98 -114 -261 -114t-260 114q-94 110 -94 296z" />
<glyph unicode=":" horiz-adv-x="662" d="M274 0h116v160h-116v-160zM274 829h116v162h-116v-162z" />
<glyph unicode=";" horiz-adv-x="662" d="M204 -245h38q9 18 20 39t24 47l20 40q50 94 87 165v114h-117v-130zM276 829h117v162h-117v-162z" />
<glyph unicode="&#x3c;" horiz-adv-x="1647" d="M213 560q337 -122 1221 -441v80q-334 117 -486 172q-387 137 -679 240l1165 413v79q-422 -153 -502 -181q-112 -42 -353 -129t-366 -133v-100z" />
<glyph unicode="=" horiz-adv-x="1647" d="M213 363h1221v74h-1221v-74zM213 785h1221v72h-1221v-72z" />
<glyph unicode="&#x3e;" horiz-adv-x="1647" d="M213 118q42 15 180.5 66t217.5 79q282 101 823 297v100q-24 9 -1221 443v-78l1163 -414l-1163 -412v-81z" />
<glyph unicode="?" horiz-adv-x="1043" d="M164 1299q170 99 315 99q130 0 211 -68q86 -77 86 -189q0 -61 -30.5 -118.5t-95.5 -120.5v1l-93 -92q-84 -78 -112 -138q-24 -57 -24 -152v-107h96v76q0 103 14 151q8 23 19.5 42.5t33.5 46t57 61.5l91 90q88 82 120 145q31 59 31 127q0 137 -97 225q-105 88 -270 88 q-185 0 -352 -95v-72zM416 0h107v160h-107v-160z" />
<glyph unicode="@" horiz-adv-x="1966" d="M118 509q0 -184 65 -345t189 -282q125 -122 285 -186t341 -64q134 0 266.5 43t250.5 122l-10 12q-4 6 -19 25q-108 -73 -236 -114t-252 -41q-83 0 -164.5 16t-156.5 46t-143.5 73.5t-126.5 98.5q-115 118 -180.5 273.5t-65.5 322.5q0 206 97 392q48 87 118.5 164.5 t151.5 131.5q106 67 232 104t256 37q123 0 240.5 -36t217.5 -103t177 -159q143 -182 143 -418q0 -197 -96 -327q-98 -133 -327 -167v768h-45v-233q-101 128 -194 191t-184 63q-151 0 -250 -113.5t-99 -300.5q0 -182 98 -301q101 -111 251 -111q93 0 184.5 61t193.5 191v-253 q233 17 366 145q148 141 148 391q0 112 -39.5 226t-108.5 209q-125 157 -296 240q-174 83 -383 83q-178 0 -345.5 -68t-295.5 -187v1q-120 -122 -187 -284.5t-67 -336.5zM662 503q0 160 86 262q90 103 237 103q148 0 239 -103q86 -101 86 -262q0 -76 -23 -144.5t-62 -118.5 q-92 -104 -238 -104q-151 0 -239 101q-86 100 -86 266z" />
<glyph unicode="A" horiz-adv-x="1344" d="M41 0h110q6 19 21 62q61 169 119 333h765l140 -395h108q-31 80 -307 803q-29 77 -75.5 199t-89 233t-77.5 203h-165zM317 467l355 962l356 -962h-711z" />
<glyph unicode="B" horiz-adv-x="1348" d="M206 0h502q240 0 366 101q122 99 122 279q0 137 -81 230t-229 124l1 91q121 20 183.5 91.5t62.5 191.5q0 158 -116 244t-330 86h-481v-1438zM313 70v664h385q129 0 213 -35t125.5 -108.5t41.5 -187.5q0 -169 -93.5 -251t-286.5 -82h-385zM313 803v565h359q352 0 352 -282 q0 -144 -87 -213.5t-265 -69.5h-359z" />
<glyph unicode="C" horiz-adv-x="1372" d="M118 717q0 -348 188 -549h-1q189 -198 515 -198q245 0 439 125v82q-193 -138 -428 -138q-191 0 -324 78t-201.5 230t-68.5 370q0 330 153 504.5t441 174.5q238 0 428 -137v83q-193 124 -439 124q-327 0 -514 -200q-188 -201 -188 -549z" />
<glyph unicode="D" horiz-adv-x="1513" d="M200 0h377q428 0 622 174q192 173 192 546q0 179 -49.5 317.5t-141.5 226.5q-199 174 -623 174h-377v-1438zM306 70v1298h303q337 0 501 -158q163 -158 163 -490q0 -333 -163 -491q-164 -159 -501 -159h-303z" />
<glyph unicode="E" horiz-adv-x="1242" d="M209 0h891v74h-784v658h733v74h-733v558h765v74h-872v-1438z" />
<glyph unicode="F" horiz-adv-x="1130" d="M214 0h107v734h609v75h-609v555h675v74h-782v-1438z" />
<glyph unicode="G" horiz-adv-x="1523" d="M115 717q0 -164 50.5 -307.5t138.5 -245.5q97 -90 234.5 -142t293.5 -52q301 0 525 147v585h-444v-69h340v-493q-173 -101 -403 -101q-205 0 -342.5 76t-206 227t-68.5 375q0 338 154.5 508.5t462.5 170.5q255 0 467 -146v92q-210 124 -485 124q-156 0 -293.5 -52.5 t-234.5 -143.5q-57 -66 -99 -151t-66 -189t-24 -213z" />
<glyph unicode="H" horiz-adv-x="1478" d="M203 0h108v732h856v-732h109v1438h-109v-632h-856v632h-108v-1438z" />
<glyph unicode="I" horiz-adv-x="579" d="M236 0h108v1438h-108v-1438z" />
<glyph unicode="J" horiz-adv-x="579" d="M-69 -348v-74h29q67 0 124.5 12.5t101.5 36.5t74 58q94 115 94 372v1381h-106v-1381q0 -215 -68 -308q-75 -97 -235 -97h-14z" />
<glyph unicode="K" horiz-adv-x="1289" d="M204 0h107v1438h-107v-1438zM311 719q7 7 23 22.5t24 22.5l-47 48v-93zM358 764l762 -764h133q-37 37 -155.5 156.5t-185.5 185.5q-71 71 -217 217.5t-212 213.5l706 665h-116q-188 -177 -261 -245q-25 -24 -199 -188t-255 -241z" />
<glyph unicode="L" horiz-adv-x="1095" d="M211 0h856v74h-749v1364h-107v-1438z" />
<glyph unicode="M" horiz-adv-x="1696" d="M195 0h101v1329l89 16l394 -1048h68l-427 1141h-225v-1438zM847 297l1 -1v1h-1zM848 297h69q15 39 35.5 93t39.5 104.5t35 93.5q181 478 284 757l90 -16v-1329h101v1438h-224q-17 -43 -60 -158.5t-68 -181.5q-33 -87 -143.5 -379t-158.5 -422z" />
<glyph unicode="N" horiz-adv-x="1470" d="M204 0h100v1266l83 19l682 -1285h197v1438h-100v-1266l-82 -21l-683 1287h-197v-1438z" />
<glyph unicode="O" horiz-adv-x="1547" d="M112 717q0 -346 181 -548q180 -199 482 -199q301 0 480 199q180 204 180 548q0 346 -180 548q-178 201 -480 201q-303 0 -482 -201q-181 -202 -181 -548zM230 717q0 312 143 493q151 188 402 188t399 -188q143 -182 143 -493q0 -149 -37 -274.5t-106 -214.5 q-75 -92 -176.5 -141.5t-222.5 -49.5q-252 0 -402 189q-143 182 -143 491z" />
<glyph unicode="P" horiz-adv-x="1185" d="M209 0h107v618h313q234 0 353.5 103.5t119.5 306.5q0 201 -120 305.5t-353 104.5h-420v-1438zM316 688v680h313q84 0 150.5 -22.5t112 -66t69 -107t23.5 -144.5q0 -108 -41.5 -184t-121 -116t-192.5 -40h-313z" />
<glyph unicode="Q" horiz-adv-x="1547" d="M112 717q0 -344 181 -548q180 -199 482 -199q17 0 107 6l230 -249h114l-244 267q252 112 350 289q103 181 103 434q0 346 -180 548q-178 201 -480 201q-303 0 -482 -201q-181 -202 -181 -548zM230 717q0 312 143 493q151 188 402 188t399 -188q143 -182 143 -493 q0 -149 -37 -274.5t-106 -214.5q-75 -92 -176.5 -141.5t-222.5 -49.5q-252 0 -402 189q-143 182 -143 491z" />
<glyph unicode="R" horiz-adv-x="1366" d="M203 0h108v651h277q139 0 223 -62h-1q84 -56 166 -222q21 -44 64 -126q64 -126 120 -241h110q-8 15 -49 97q-14 27 -31.5 62t-32 63t-32 63l-31.5 63q-117 239 -241 280l1 88q118 33 179.5 117.5t61.5 210.5q0 199 -117 296.5t-355 97.5h-420v-1438zM311 720v648h312 q176 0 265 -81t89 -243q0 -160 -89.5 -242t-264.5 -82h-312z" />
<glyph unicode="S" horiz-adv-x="1248" d="M143 1076q0 -145 88 -238q47 -42 129 -76.5t183 -54.5q14 -3 42.5 -9t42.5 -9q6 -1 14 -2.5t15 -2.5t13 -2q172 -37 252 -108q87 -80 87 -216q0 -154 -110 -237.5t-312 -83.5q-213 0 -437 109v-93q240 -83 437 -83q264 0 401 103t137 301q0 164 -103 264.5t-312 141.5 q-20 4 -62 13t-62 12q-186 37 -257 95q-77 68 -77 193q0 146 105 225.5t300 79.5q169 0 376 -87v91q-211 64 -400 64q-104 0 -200.5 -29.5t-164.5 -77.5q-125 -104 -125 -283z" />
<glyph unicode="T" horiz-adv-x="1200" d="M1 1364h545v-1364h109v1364h545v74h-1199v-74z" />
<glyph unicode="U" horiz-adv-x="1439" d="M180 527q0 -275 137 -416t403 -141t402.5 141t136.5 416v911h-109v-885q0 -264 -102 -389q-103 -127 -328 -127t-330 127q-100 121 -100 389v885h-110v-911z" />
<glyph unicode="V" horiz-adv-x="1344" d="M41 1438q410 -1076 549 -1438h165q57 151 162.5 426t126.5 330q35 93 81.5 215t93.5 244.5t85 222.5h-108q-25 -66 -72 -191.5t-87.5 -233t-76.5 -202.5q-53 -141 -168 -445.5t-120 -318.5l-523 1391h-108z" />
<glyph unicode="W" horiz-adv-x="1944" d="M64 1438l358 -1438h185q53 216 69 285q42 173 128.5 523t127.5 518h83l322 -1326h185l179.5 718t180.5 720h-109q-125 -515 -177 -722q-19 -74 -68 -271t-74 -299h-82l-322 1292h-156q-62 -252 -180.5 -728.5t-140.5 -563.5h-82l-320 1292h-107z" />
<glyph unicode="X" horiz-adv-x="1346" d="M108 0h103q23 34 51 76t50.5 76t53 80.5t52.5 78.5q35 53 81.5 123t98 148t76.5 115l460 -697h101q-92 141 -264 404q-37 56 -115 173.5t-114 172.5l460 688h-99q-52 -77 -119 -177q-184 -272 -294 -438l-411 615h-101l446 -667z" />
<glyph unicode="Y" horiz-adv-x="1200" d="M47 1438l499 -739v-699h109v699l498 739h-100q-81 -122 -190 -284q-48 -71 -141.5 -211t-119.5 -179l-454 674h-101z" />
<glyph unicode="Z" horiz-adv-x="1346" d="M96 0h1155v74h-1053l1029 1274v90h-1107v-74h1005l-1029 -1274v-90z" />
<glyph unicode="[" horiz-adv-x="767" d="M204 -278h336v46h-247v1688h247v46h-336v-1780z" />
<glyph unicode="\" horiz-adv-x="662" d="M45 1438q103 -335 355 -1149q8 -23 150 -485h67q-127 417 -355 1149q-10 31 -150 485h-67z" />
<glyph unicode="]" horiz-adv-x="767" d="M227 -232v-46h336v1780h-336v-46h245v-1688h-245z" />
<glyph unicode="^" horiz-adv-x="1647" d="M283 965h68q28 25 381 343q10 8 29 25t35 31.5t28 24.5l473 -424h67q-30 31 -67.5 70t-75.5 78t-68 70q-41 42 -122.5 126t-126.5 129h-161q-88 -91 -180 -186q-255 -262 -280 -287z" />
<glyph unicode="_" d="M-6 -451v-46h995v46h-995z" />
<glyph unicode="`" d="M256 1587q83 -94 86 -97q152 -174 164 -187h32l-27.5 35t-30 39.5t-25.5 34.5q-18 24 -131 175h-68z" />
<glyph unicode="a" horiz-adv-x="1204" d="M132 291q0 -146 91 -234h-1q90 -87 250 -87q127 0 232.5 74.5t201.5 231.5v-276h107v609q0 239 -112.5 357.5t-338.5 118.5q-168 0 -347 -66v-80q161 69 327 69q173 0 268.5 -81.5t95.5 -229.5v-60h-302q-235 0 -353.5 -87t-118.5 -259zM238 303q0 146 108 212 q98 57 334 57h226v-82q0 -197 -104 -320h1q-106 -124 -281 -124q-132 0 -208 69t-76 188z" />
<glyph unicode="b" horiz-adv-x="1248" d="M191 0h107v282q181 -312 404 -312q188 0 305 150q121 153 121 408q0 254 -121 407q-117 150 -305 150q-223 0 -404 -312v727h-107v-1500zM298 528q0 218 91 347q99 135 268 135t266 -135l-1 1q94 -129 94 -348q0 -221 -94 -349l1 1q-95 -134 -266 -134t-268 133 q-91 128 -91 349z" />
<glyph unicode="c" horiz-adv-x="1080" d="M124 528q0 -259 140 -409q140 -149 379 -149q155 0 301 60v79q-139 -61 -280 -61q-199 0 -314 129q-110 127 -110 351q0 216 110 349q120 131 314 131q139 0 280 -62v82q-137 57 -288 57q-248 0 -391 -147q-141 -148 -141 -410z" />
<glyph unicode="d" horiz-adv-x="1248" d="M121 528q0 -255 120 -408q117 -150 305 -150q224 0 405 312v-282h106v1500h-106v-727q-181 312 -405 312q-188 0 -305 -150q-120 -153 -120 -407zM232 528q0 218 92 347q98 135 267 135t267 -134q93 -130 93 -348q0 -220 -93 -349q-97 -133 -267 -133q-171 0 -267 133 q-92 128 -92 349z" />
<glyph unicode="e" horiz-adv-x="1209" d="M120 517q0 -254 146 -400q148 -147 404 -147q192 0 380 75v85q-179 -82 -369 -82q-137 0 -234 54.5t-152 161t-65 261.5h863v50q0 239 -123 374q-123 136 -333 136q-239 0 -378 -152q-139 -149 -139 -416zM235 588q19 220 125 320q107 100 279 100q156 0 251 -105 q96 -106 98 -314z" />
<glyph unicode="f" horiz-adv-x="692" d="M65 994h180v-994h106v994h309v63h-309v142q0 119 50 174q51 54 170 54h138v73h-136q-171 0 -249.5 -77t-78.5 -246v-120h-180v-63z" />
<glyph unicode="g" horiz-adv-x="1248" d="M121 542q0 -249 119 -398q115 -144 306 -144q226 0 339 197l66 -17v-113q0 -143 -45 -238t-135.5 -142t-227.5 -47q-149 0 -285 62v-86q144 -49 315 -49q245 0 364.5 132t119.5 402v956h-106v-152l-66 -17q-113 197 -339 197q-191 0 -306 -144q-119 -148 -119 -399z M232 542q0 218 92 339q96 129 267 129t265.5 -122.5t94.5 -345.5q0 -214 -92 -338q-97 -129 -268 -129q-169 0 -264 123t-95 344z" />
<glyph unicode="h" horiz-adv-x="1246" d="M193 0h107v603q0 184 97 291q98 109 269 109q293 0 293 -363v-640h106v647q0 143 -40.5 241t-120 147.5t-196.5 49.5q-210 0 -408 -302v717h-107v-1500z" />
<glyph unicode="i" horiz-adv-x="546" d="M221 0h105v1057h-105v-1057zM221 1345h105v155h-105v-155z" />
<glyph unicode="j" horiz-adv-x="546" d="M-7 -356v-77h31q166 0 235 84q74 87 74 288v1118h-105v-1118q0 -170 -48 -230v1q-50 -66 -177 -66h-10zM228 1345h105v155h-105v-155z" />
<glyph unicode="k" horiz-adv-x="1138" d="M193 0h107v1500h-107v-1500zM300 517q7 7 24 21.5t26 23.5l-50 50v-95zM350 562l586 -562h125q-42 40 -96.5 93t-99.5 96.5t-99 96t-100.5 97t-97.5 93t-95 90.5l556 491h-115q-87 -76 -564 -495z" />
<glyph unicode="l" horiz-adv-x="546" d="M221 0h105v1500h-105v-1500z" />
<glyph unicode="m" horiz-adv-x="1915" d="M173 0h106v603q0 177 95 289q24 26 53 47t61.5 35t69 21.5t75.5 7.5q142 0 209.5 -88.5t67.5 -274.5v-640h107v603q0 182 95 290q96 110 260 110q140 0 207.5 -89t67.5 -274v-640h107v647q0 209 -86.5 323.5t-243.5 114.5q-120 0 -209 -55t-153 -170l-75 6q-18 53 -47 94 t-66.5 68.5t-85 42t-102.5 14.5q-111 0 -210 -75.5t-197 -232.5v280h-106v-1057z" />
<glyph unicode="n" horiz-adv-x="1246" d="M193 0h107v603q0 184 97 291q98 109 269 109q293 0 293 -363v-640h106v647q0 143 -40.5 241t-120 147.5t-196.5 49.5q-210 0 -408 -302v274h-107v-1057z" />
<glyph unicode="o" horiz-adv-x="1202" d="M120 528q0 -266 128 -413q126 -145 354 -145q227 0 353 145q129 151 129 413q0 264 -129 413q-127 144 -353 144q-228 0 -354 -144q-128 -148 -128 -413zM236 528q0 215 95 346q100 134 271 134q167 0 270 -135q95 -135 95 -345q0 -215 -95 -346q-99 -134 -270 -134 q-174 0 -272 133q-94 128 -94 347z" />
<glyph unicode="p" horiz-adv-x="1248" d="M191 -433h107v715q181 -312 404 -312q188 0 305 150q121 153 121 408q0 254 -121 407q-117 150 -305 150q-223 0 -404 -312v284h-107v-1490zM298 528q0 218 91 347q99 135 268 135t266 -135l-1 1q94 -129 94 -348q0 -221 -94 -349l1 1q-95 -134 -266 -134t-268 133 q-91 128 -91 349z" />
<glyph unicode="q" horiz-adv-x="1248" d="M121 528q0 -255 120 -408q117 -150 305 -150q224 0 405 312v-715h106v1490h-106v-284q-181 312 -405 312q-188 0 -305 -150q-120 -153 -120 -407zM232 528q0 218 92 347q98 135 267 135t267 -134q93 -130 93 -348q0 -220 -93 -349q-97 -133 -267 -133q-171 0 -267 133 q-92 128 -92 349z" />
<glyph unicode="r" horiz-adv-x="808" d="M201 0h106v560q0 212 95.5 325.5t274.5 113.5q63 0 109 -14l-1 96q-27 4 -53 4q-124 0 -212 -49.5t-147 -152.5l-66 17v157h-106v-1057z" />
<glyph unicode="s" horiz-adv-x="1024" d="M123 31q193 -61 359 -61q206 0 321 85q109 80 109 219q0 120 -71 187q-35 32 -106 61t-158 49q-9 2 -20.5 4.5t-23 5.5t-19.5 5q-160 35 -217 77q-67 51 -67 135q0 212 320 212q164 0 301 -59v86q-136 48 -323 48q-190 0 -293 -77t-103 -218q0 -115 69.5 -181.5 t225.5 -98.5l66 -16q182 -40 241 -86q67 -53 67 -149q0 -102 -82 -157.5t-233 -55.5q-179 0 -363 84v-99z" />
<glyph unicode="t" horiz-adv-x="770" d="M74 994h137v-660q0 -196 70 -265q69 -69 271 -69h151v75h-151q-135 0 -185 52q-49 50 -49 207v660h385v63h-385v323h-107v-323h-137v-63z" />
<glyph unicode="u" horiz-adv-x="1246" d="M181 409q0 -215 91.5 -327t267.5 -112q108 0 208.5 74t199.5 227v-271h105v1057h-105v-605q0 -182 -100 -291h1q-98 -109 -269 -109q-293 0 -293 364v641h-106v-648z" />
<glyph unicode="v" horiz-adv-x="1163" d="M85 1057l397 -1057h200q61 164 191 511t205 546h-112q-129 -348 -384 -1034l-385 1034h-112z" />
<glyph unicode="w" horiz-adv-x="1608" d="M93 1057l277 -1057h157q30 116 115 436t128 487h69l242 -923h156q26 98 124.5 470.5t153.5 586.5h-103q-67 -257 -229 -877h-69l-232 877h-157q-67 -258 -230 -877h-69l-231 877h-102z" />
<glyph unicode="x" horiz-adv-x="1163" d="M108 0h119q147 200 351 475l351 -475h119q-67 91 -203.5 275.5t-198.5 268.5l381 513h-119q-40 -54 -154.5 -207.5t-167.5 -225.5l-322 433h-120q13 -18 159 -212.5t216 -289.5z" />
<glyph unicode="y" horiz-adv-x="1163" d="M88 1057q85 -204 258 -625.5t186 -453.5l-40 -101v1q-56 -147 -105 -189q-54 -47 -147 -47h-69v-75h108q112 0 176 53q69 58 143 248l478 1189h-111q-281 -703 -383 -959l-383 959h-111z" />
<glyph unicode="z" horiz-adv-x="1032" d="M100 0h832v68h-751l751 874v115h-807v-67h727l-752 -874v-116z" />
<glyph unicode="{" horiz-adv-x="1250" d="M269 558h11q166 0 240 -76q69 -75 69 -250v-246q0 -202 71 -266l-2 1q40 -31 120.5 -48.5t191.5 -17.5h12v47h-19q-164 0 -226 61q-58 61 -58 226v256q0 149 -40 206q-36 59 -157 88v84q124 28 156 84q41 58 41 208v254q0 167 58 227q61 60 226 60h19v46h-12 q-108 0 -190 -17.5t-122 -47.5q-69 -68 -69 -263v-248q0 -174 -69 -247q-69 -75 -240 -75h-11v-46z" />
<glyph unicode="|" horiz-adv-x="662" d="M295 -497h73v2009h-73v-2009z" />
<glyph unicode="}" horiz-adv-x="1250" d="M269 -298v-47h13q240 0 309 64q69 61 69 267v246q0 176 70 250q68 76 240 76h12v46h-12q-171 0 -240 74q-70 73 -70 248v248q0 204 -69 264q-71 64 -309 64h-13v-46h21q167 0 225 -60h-1q58 -60 58 -227v-254q0 -147 40 -208q33 -55 157 -83v-85q-121 -29 -157 -88 q-40 -60 -40 -206v-256q0 -167 -57 -227q-60 -60 -225 -60h-21z" />
<glyph unicode="~" horiz-adv-x="1647" d="M213 536q84 59 160 84.5t160 25.5q104 0 271 -66q6 -2 12 -4.5t9 -3.5t4 -2l-1 1q3 0 8.5 -2.5t8.5 -3.5q143 -57 247 -57q87 0 168 29t174 96v56q-86 -59 -162 -86t-157 -27q-109 0 -272 67l-15 5q-10 3 -11 4l3 -1q-5 2 -11 4h1q-40 9 -54 19q-123 42 -200 42 q-59 0 -113.5 -13t-110.5 -41t-119 -74v-52zM813 656l4 -4zM829 570h2h-2z" />
<glyph unicode="&#xa1;" horiz-adv-x="788" d="M323 0h143v624q-3 52 -6 106.5t-7 116.5t-7 107h-104q-13 -207 -19 -330v-624zM323 1241h143v195h-143v-195z" />
<glyph unicode="&#xa2;" horiz-adv-x="1250" d="M177 530q0 -245 124 -393v1q130 -145 383 -165v-287h42v283q164 13 279 63v102q-121 -57 -279 -69l1 929q154 -6 278 -68v104q-121 49 -278 58l-1 287h-42v-284q-255 -25 -383 -169q-124 -147 -124 -392zM312 530q0 196 88 316q91 124 284 147v-926q-194 23 -284 146 q-88 120 -88 317z" />
<glyph unicode="&#xa3;" horiz-adv-x="1250" d="M133 0h935v110h-558v526h391v83h-391v246q0 224 64 307q67 90 230 90q109 0 244 -62v113q-145 50 -262 50q-144 0 -236 -51t-136 -155.5t-44 -268.5v-269h-200v-83h200v-526h-237v-110z" />
<glyph unicode="&#xa4;" horiz-adv-x="1250" d="M108 166l72 -72l203 204q139 -83 244 -83q109 0 239 87l204 -205q7 6 31 31t40 41l-204 204q86 127 86 239.5t-80 243.5l202 203l-21.5 21.5l-25.5 25.5l-26 26l-202 -206q-130 83 -243 83q-121 0 -238 -85l-205 204l-74 -73q138 -136 205 -203q-85 -126 -85 -240 q0 -103 82 -243zM326 614q0 128 89 212q88 85 212 85q126 0 212 -86q87 -83 87 -211q0 -125 -87 -214q-86 -86 -212 -86q-125 0 -213 86q-88 88 -88 214z" />
<glyph unicode="&#xa5;" horiz-adv-x="1250" d="M104 1436q31 -57 147 -270t171 -317h-284v-64h320l97 -178v-88h-417v-63h417v-456h141v456h414v63h-416v88l97 178h319v64h-284l318 587h-124q-62 -116 -198.5 -368t-196.5 -365l-397 733h-124z" />
<glyph unicode="&#xa6;" horiz-adv-x="662" d="M276 348v-698h110v698h-110zM276 675h110v700h-110v-700z" />
<glyph unicode="&#xa7;" d="M101 694q0 -91 56 -160q54 -65 271 -189q3 -2 24 -15q238 -131 238 -251q0 -90 -64.5 -140t-181.5 -50q-108 0 -264 63v-98q153 -50 287 -50q159 0 256 78q91 74 91 203q0 58 -34 113.5t-107 117.5q207 119 207 278q0 90 -59 159q-59 71 -268 190q-4 2 -10.5 6t-15 8.5 t-14.5 8.5q-222 127 -222 231q0 86 62 134t174 48q102 0 253 -63v99q-142 48 -276 48q-155 0 -248 -74q-89 -69 -89 -186q0 -121 143 -230q-209 -112 -209 -279zM203 726q0 107 137 206l32 2q256 -139 325 -205q82 -76 82 -165q0 -109 -154 -218q-270 145 -344 214 q-78 77 -78 166z" />
<glyph unicode="&#xa8;" d="M224 1353h144v142h-144v-142zM615 1353h144v142h-144v-142z" />
<glyph unicode="&#xa9;" horiz-adv-x="1966" d="M271 712q0 -293 208 -502q210 -210 504 -210t504 210q208 209 208 502q0 297 -208 505q-210 211 -504 211t-504 -211q-208 -208 -208 -505zM311 712q0 275 199 476q197 196 473 196q278 0 475 -196q195 -198 195 -476q0 -276 -195 -472q-199 -198 -475 -198 q-274 0 -473 198q-199 200 -199 472zM570 712q0 -196 116 -309v1q116 -114 322 -114q132 0 245 46v60q-111 -48 -223 -48q-170 0 -263.5 95.5t-93.5 268.5q0 169 91 266q94 97 256 97q115 0 233 -48v63q-120 44 -245 44q-206 0 -322 -113v1q-116 -114 -116 -310z" />
<glyph unicode="&#xaa;" horiz-adv-x="926" d="M126 918q0 -101 66 -160q66 -58 184 -58q34 0 68 8t66 24.5t62.5 40t59.5 54.5t55 69v-178h90v420q0 164 -82.5 244.5t-250.5 80.5q-123 0 -258 -47v-60q119 51 237 51q264 0 264 -212v-33h-212q-173 0 -261 -62t-88 -182zM150 469h629v64h-629v-64zM213 930q0 98 79 139 v-1q68 38 238 38h157v-59q0 -126 -73 -206q-72 -83 -191 -83q-95 0 -152.5 47t-57.5 125z" />
<glyph unicode="&#xab;" horiz-adv-x="1202" d="M163 544q79 -70 208 -186t201 -180v112q-55 49 -168 149.5t-148 131.5l316 281v113l-409 -367v-54zM598 544q79 -70 208 -186t201 -180v112q-55 49 -168 149.5t-148 131.5l316 281v112l-409 -366v-54z" />
<glyph unicode="&#xac;" horiz-adv-x="1647" d="M211 693h1117v-405h108v516h-1225v-111z" />
<glyph unicode="&#xad;" horiz-adv-x="709" d="M115 480h479v104h-479v-104z" />
<glyph unicode="&#xae;" horiz-adv-x="1966" d="M271 712q0 -293 208 -502q210 -210 504 -210t504 210q208 209 208 502q0 297 -208 505q-210 211 -504 211t-504 -211q-208 -208 -208 -505zM311 712q0 275 199 476q197 196 473 196q278 0 475 -196q195 -198 195 -476q0 -276 -195 -472q-199 -198 -475 -198 q-274 0 -473 198q-199 200 -199 472zM708 339h95v356h96q64 0 107 -32v1q45 -31 106 -130h-1q79 -130 120 -195h101q-2 5 -109 177h2q-87 135 -136 151l4 50q92 17 141.5 66t49.5 123q0 106 -79.5 158t-241.5 52h-255v-777zM803 736v337h153q125 0 176.5 -38.5t51.5 -131.5 q0 -89 -57 -129q-50 -38 -171 -38h-153z" />
<glyph unicode="&#xaf;" d="M222 1380h539v89h-539v-89z" />
<glyph unicode="&#xb0;" d="M204 1172.5q0 -121.5 81 -204.5q81 -81 205 -81q122 0 205 82q85 84 85 203q0 122 -85 205q-38 41 -92 63.5t-111 22.5q-123 0 -205 -84q-83 -85 -83 -206.5zM271 1172q0 92 64 157q65 65 157 65q90 0 155 -65.5t65 -156.5q0 -92 -64 -156q-64 -62 -156 -62 q-94 0 -157 62q-64 64 -64 156z" />
<glyph unicode="&#xb1;" horiz-adv-x="1647" d="M211 0h1225v110h-1225v-110zM211 729h559v-388h107v388h559v110h-559v387h-107v-387h-559v-110z" />
<glyph unicode="&#xb2;" horiz-adv-x="788" d="M108 669h539v55h-477q31 25 149 128q321 275 321 401q0 93 -75 150q-79 60 -214 60q-99 0 -237 -47v-56q122 54 216 54q99 0 159.5 -49t60.5 -129q0 -106 -355 -421v-2q-62 -53 -87 -77v-67z" />
<glyph unicode="&#xb3;" horiz-adv-x="788" d="M111 687q121 -32 223 -32q163 0 250 59t87 168q0 48 -19.5 84.5t-57.5 61t-92 35.5v58q47 11 80 32.5t50.5 52.5t17.5 70q0 83 -72 132q-76 55 -211 55q-92 0 -227 -29v-52q114 32 194 32q73 0 123.5 -17.5t76 -51t25.5 -81.5q0 -50 -25 -84t-74.5 -51.5t-121.5 -17.5 h-64v-48h55q250 0 250 -181q0 -84 -68.5 -131t-190.5 -47t-209 35v-52z" />
<glyph unicode="&#xb4;" d="M405 1264h81q55 65 275 317h-119z" />
<glyph unicode="&#xb5;" horiz-adv-x="1250" d="M175 -427h124v538l49 13q83 -153 268 -153q177 0 308 208q21 -106 58 -157t94 -51t119 33v85q-22 -7 -38 -7q-52 0 -77.5 35.5t-25.5 110.5v834h-124v-624q0 -367 -328 -367q-150 0 -226.5 82t-76.5 242v667h-124v-1489z" />
<glyph unicode="&#xb6;" horiz-adv-x="1250" d="M162 1043q0 -170 109 -273h-1q112 -103 343 -122v-846h82v1571h251v-1571h81v1634h-418q-204 0 -327 -108q-120 -107 -120 -285z" />
<glyph unicode="&#xb7;" horiz-adv-x="624" d="M236 586h151v194h-151v-194z" />
<glyph unicode="&#xb8;" d="M300 -317v-60q75 -19 147 -19q209 0 209 150q0 75 -93 186h-47q59 -90 59 -148q0 -61 -37.5 -93t-111.5 -32q-72 0 -126 16z" />
<glyph unicode="&#xb9;" horiz-adv-x="788" d="M150 1356q83 16 223 42v-679h-204v-50h493v50h-205v727h-102q-11 -2 -205 -35v-55z" />
<glyph unicode="&#xba;" horiz-adv-x="926" d="M106 1080q0 -177 97 -279q93 -101 261 -101q166 0 260 100q96 101 96 280t-96 280q-94 103 -260 103q-167 0 -261 -103q-97 -102 -97 -280zM149 469h630v64h-630v-64zM203 1080q0 149 69 235v-1q71 93 192 93t192 -92q68 -87 68 -235q0 -144 -69 -232v1q-71 -93 -191 -93 q-118 0 -192 92q-69 88 -69 232z" />
<glyph unicode="&#xbb;" horiz-adv-x="1202" d="M197 178q71 63 206 184.5t203 181.5v54q-79 70 -208 186t-201 181v-113q58 -52 183.5 -163.5t132.5 -117.5l-316 -281v-112zM632 178q71 63 206 184.5t203 181.5v54q-79 70 -208 186t-201 181v-113q58 -52 183.5 -163.5t132.5 -117.5l-316 -281v-112z" />
<glyph unicode="&#xbc;" horiz-adv-x="1905" d="M150 1356q83 16 223 42v-679h-204v-50h493v50h-205v727h-102q-11 -2 -205 -35v-55zM428 -28h154l894 1487h-153zM1192 214h415v-186h85v186h135v49h-135v541h-85v-541h-399l399 541h-36l-379 -508v-82z" />
<glyph unicode="&#xbd;" horiz-adv-x="1905" d="M150 1356q83 16 223 42v-679h-204v-50h493v50h-205v727h-102q-11 -2 -205 -35v-55zM428 -28h154l894 1487h-153zM1224 28h540v55h-478q31 25 149 127q322 276 322 402q0 93 -75 149q-79 61 -214 61q-99 0 -237 -47v-56q121 54 216 54q65 0 115 -22t77.5 -62.5t27.5 -93.5 q0 -106 -356 -421v-2q-61 -54 -87 -77v-67z" />
<glyph unicode="&#xbe;" horiz-adv-x="1905" d="M111 687q121 -32 223 -32q163 0 250 59t87 168q0 48 -19.5 84.5t-57.5 61t-92 35.5v58q47 11 80 32.5t50.5 52.5t17.5 70q0 83 -72 132q-76 55 -211 55q-92 0 -227 -29v-52q114 32 194 32q73 0 123.5 -17.5t76 -51t25.5 -81.5q0 -50 -25 -84t-74.5 -51.5t-121.5 -17.5 h-64v-48h55q250 0 250 -181q0 -84 -68.5 -131t-190.5 -47t-209 35v-52zM428 -28h154l894 1487h-153zM1192 214h415v-186h85v186h135v49h-135v541h-85v-541h-399l399 541h-36l-379 -508v-82z" />
<glyph unicode="&#xbf;" horiz-adv-x="1043" d="M151 295q0 -146 101 -234q105 -90 277 -90q189 0 360 100v115q-177 -111 -325 -111q-120 0 -195 62q-75 65 -75 167q0 56 28 108t91 111h-1q31 29 90 89q84 79 110 142q26 57 26 154v126h-129v-93q0 -98 -15 -144v1q-7 -28 -31 -63q-32 -40 -71 -76l-88 -87 q-84 -80 -122 -147q-31 -63 -31 -130zM502 1241h142v195h-142v-195z" />
<glyph unicode="&#xc0;" horiz-adv-x="1344" d="M41 0h110q6 19 21 62q61 169 119 333h765l140 -395h108q-31 80 -307 803q-29 77 -75.5 199t-89 233t-77.5 203h-165zM317 467l355 962l356 -962h-711zM438 1823l221 -253h146l-188 253h-179z" />
<glyph unicode="&#xc1;" horiz-adv-x="1344" d="M41 0h110q6 19 21 62q61 169 119 333h765l140 -395h108q-31 80 -307 803q-29 77 -75.5 199t-89 233t-77.5 203h-165zM317 467l355 962l356 -962h-711zM537 1570h147l218 253h-177z" />
<glyph unicode="&#xc2;" horiz-adv-x="1344" d="M41 0h110q6 19 21 62q61 169 119 333h765l140 -395h108q-31 80 -307 803q-29 77 -75.5 199t-89 233t-77.5 203h-165zM317 467l355 962l356 -962h-711zM379 1570h134l159 170l159 -170h134l-203 255h-180z" />
<glyph unicode="&#xc3;" horiz-adv-x="1344" d="M41 0h110q6 19 21 62q61 169 119 333h765l140 -395h108q-31 80 -307 803q-29 77 -75.5 199t-89 233t-77.5 203h-165zM317 467l355 962l356 -962h-711zM355 1600h120v6q0 43 19.5 67t53.5 24q24 0 65 -24l55 -31q52 -27 78 -34q31 -8 61 -8q81 0 130.5 57.5t51.5 153.5 h-120v-6q0 -26 -8.5 -46t-24.5 -31.5t-36 -11.5q-26 0 -69 24l-55 29q-44 25 -73.5 33.5t-65.5 8.5q-41 0 -75 -15t-57.5 -42t-36.5 -66.5t-13 -87.5z" />
<glyph unicode="&#xc4;" horiz-adv-x="1344" d="M41 0h110q6 19 21 62q61 169 119 333h765l140 -395h108q-31 80 -307 803q-29 77 -75.5 199t-89 233t-77.5 203h-165zM317 467l355 962l356 -962h-711zM387 1600h195v195h-195v-195zM762 1600h195v195h-195v-195z" />
<glyph unicode="&#xc5;" horiz-adv-x="1344" d="M30 0h149q108 305 136 384h717l136 -384h146q-75 198 -254 667t-273 714q131 91 131 218q0 103 -72 173q-71 72 -174 72q-104 0 -175 -71q-70 -70 -70 -174q0 -128 131 -218zM356 492l316 862l317 -862h-633zM491 1599q0 77 51 129q54 54 130 54q77 0 129 -55 q53 -51 53 -128t-53 -129v1q-55 -53 -129 -53t-129 53q-52 54 -52 128z" />
<glyph unicode="&#xc6;" horiz-adv-x="1915" d="M13 0h140q19 47 76 181.5t85 202.5h579v-384h905v110h-761v602h712v111h-712v503h742v110h-1165q-120 -287 -332 -793.5t-269 -642.5zM357 492l357 845h179v-845h-536z" />
<glyph unicode="&#xc7;" horiz-adv-x="1372" d="M118 717q0 -348 188 -549h-1q189 -198 515 -198q245 0 439 125v82q-193 -138 -428 -138q-191 0 -324 78t-201.5 230t-68.5 370q0 330 153 504.5t441 174.5q238 0 428 -137v83q-193 124 -439 124q-327 0 -514 -200q-188 -201 -188 -549zM589 -317v-60q75 -19 147 -19 q209 0 209 150q0 75 -93 186h-48q60 -90 60 -148q0 -61 -37.5 -93t-111.5 -32q-73 0 -126 16z" />
<glyph unicode="&#xc8;" horiz-adv-x="1242" d="M209 0h891v74h-784v658h733v74h-733v558h765v74h-872v-1438zM409 1823l221 -253h147l-189 253h-179z" />
<glyph unicode="&#xc9;" horiz-adv-x="1242" d="M209 0h891v74h-784v658h733v74h-733v558h765v74h-872v-1438zM508 1570h147l219 253h-178z" />
<glyph unicode="&#xca;" horiz-adv-x="1242" d="M209 0h891v74h-784v658h733v74h-733v558h765v74h-872v-1438zM350 1570h134l159 170l160 -170h133l-203 255h-180z" />
<glyph unicode="&#xcb;" horiz-adv-x="1242" d="M209 0h891v74h-784v658h733v74h-733v558h765v74h-872v-1438zM358 1600h195v195h-195v-195zM733 1600h195v195h-195v-195z" />
<glyph unicode="&#xcc;" horiz-adv-x="579" d="M57 1823l220 -253h147l-188 253h-179zM236 0h108v1438h-108v-1438z" />
<glyph unicode="&#xcd;" horiz-adv-x="579" d="M156 1570h146l219 253h-177zM236 0h108v1438h-108v-1438z" />
<glyph unicode="&#xce;" horiz-adv-x="579" d="M-2 1570h134l159 170l159 -170h134l-203 255h-180zM236 0h108v1438h-108v-1438z" />
<glyph unicode="&#xcf;" horiz-adv-x="579" d="M6 1600h195v195h-195v-195zM236 0h108v1438h-108v-1438zM381 1600h195v195h-195v-195z" />
<glyph unicode="&#xd0;" horiz-adv-x="1523" d="M9 702h201v-702h387q424 0 616 174q195 173 195 545q0 370 -193.5 543.5t-617.5 173.5h-387v-651h-201v-83zM354 107v595h336v83h-336v545h273q323 0 474 -150v2q154 -148 154 -463q0 -317 -154 -465v1q-152 -148 -474 -148h-273z" />
<glyph unicode="&#xd1;" horiz-adv-x="1470" d="M204 0h100v1266l83 19l682 -1285h197v1438h-100v-1266l-82 -21l-683 1287h-197v-1438zM419 1600h120v6q0 43 19 67t54 24q23 0 65 -24l55 -31q52 -27 77 -34q31 -8 62 -8q80 0 129.5 57.5t51.5 153.5h-120v-6q0 -26 -8.5 -46t-24.5 -31.5t-36 -11.5q-25 0 -69 24l-55 29 q-44 25 -73.5 33.5t-65.5 8.5q-83 0 -132 -57t-49 -154z" />
<glyph unicode="&#xd2;" horiz-adv-x="1547" d="M112 717q0 -346 181 -548q180 -199 482 -199q301 0 480 199q180 204 180 548q0 346 -180 548q-178 201 -480 201q-303 0 -482 -201q-181 -202 -181 -548zM230 717q0 312 143 493q151 188 402 188t399 -188q143 -182 143 -493q0 -149 -37 -274.5t-106 -214.5 q-75 -92 -176.5 -141.5t-222.5 -49.5q-252 0 -402 189q-143 182 -143 491zM540 1823l221 -253h147l-188 253h-180z" />
<glyph unicode="&#xd3;" horiz-adv-x="1547" d="M112 717q0 -346 181 -548q180 -199 482 -199q301 0 480 199q180 204 180 548q0 346 -180 548q-178 201 -480 201q-303 0 -482 -201q-181 -202 -181 -548zM230 717q0 312 143 493q151 188 402 188t399 -188q143 -182 143 -493q0 -149 -37 -274.5t-106 -214.5 q-75 -92 -176.5 -141.5t-222.5 -49.5q-252 0 -402 189q-143 182 -143 491zM639 1570h147l219 253h-177z" />
<glyph unicode="&#xd4;" horiz-adv-x="1547" d="M112 717q0 -346 181 -548q180 -199 482 -199q301 0 480 199q180 204 180 548q0 346 -180 548q-178 201 -480 201q-303 0 -482 -201q-181 -202 -181 -548zM230 717q0 312 143 493q151 188 402 188t399 -188q143 -182 143 -493q0 -149 -37 -274.5t-106 -214.5 q-75 -92 -176.5 -141.5t-222.5 -49.5q-252 0 -402 189q-143 182 -143 491zM482 1570h133l160 170l159 -170h134l-203 255h-181z" />
<glyph unicode="&#xd5;" horiz-adv-x="1547" d="M112 717q0 -346 181 -548q180 -199 482 -199q301 0 480 199q180 204 180 548q0 346 -180 548q-178 201 -480 201q-303 0 -482 -201q-181 -202 -181 -548zM230 717q0 312 143 493q151 188 402 188t399 -188q143 -182 143 -493q0 -149 -37 -274.5t-106 -214.5 q-75 -92 -176.5 -141.5t-222.5 -49.5q-252 0 -402 189q-143 182 -143 491zM458 1600h120v6q0 43 19 67t54 24q23 0 65 -24l55 -31q52 -27 78 -34q30 -8 61 -8q81 0 130 57.5t52 153.5h-120v-6q0 -40 -19.5 -64.5t-50.5 -24.5q-25 0 -69 24l-54 29q-45 25 -74 33.5t-66 8.5 q-83 0 -132 -57t-49 -154z" />
<glyph unicode="&#xd6;" horiz-adv-x="1547" d="M112 717q0 -346 181 -548q180 -199 482 -199q301 0 480 199q180 204 180 548q0 346 -180 548q-178 201 -480 201q-303 0 -482 -201q-181 -202 -181 -548zM230 717q0 312 143 493q151 188 402 188t399 -188q143 -182 143 -493q0 -149 -37 -274.5t-106 -214.5 q-75 -92 -176.5 -141.5t-222.5 -49.5q-252 0 -402 189q-143 182 -143 491zM490 1600h194v195h-194v-195zM865 1600h195v195h-195v-195z" />
<glyph unicode="&#xd7;" horiz-adv-x="1647" d="M287 1072q147 -148 458 -460l-457 -457q12 -13 35.5 -38t40.5 -42l460 460l459 -460q10 11 23.5 24.5l27 27t26.5 28.5l-458 457l458 460l-76 79l-460 -460l-460 459q-45 -45 -77 -78z" />
<glyph unicode="&#xd8;" horiz-adv-x="1547" d="M110 -8q6 -4 11.5 -9t10.5 -9.5t10 -9.5t11.5 -10.5t14.5 -12.5q64 77 162 192q196 -162 445 -162q301 0 481 200q180 203 180 545q0 309 -166 529l166 194q-7 7 -24.5 23t-31.5 28q-107 -127 -164 -192q-191 165 -441 165q-303 0 -483 -202q-181 -202 -181 -545 q0 -310 165 -528zM265 716q0 296 135 468q140 174 375 174q204 0 358 -159l-765 -903q-103 178 -103 420zM416 235l764 902q103 -190 103 -421q0 -294 -136 -465v1q-137 -177 -372 -177q-202 0 -359 160z" />
<glyph unicode="&#xd9;" horiz-adv-x="1439" d="M180 527q0 -275 137 -416t403 -141t402.5 141t136.5 416v911h-109v-885q0 -264 -102 -389q-103 -127 -328 -127t-330 127q-100 121 -100 389v885h-110v-911zM486 1823l221 -253h146l-188 253h-179z" />
<glyph unicode="&#xda;" horiz-adv-x="1439" d="M180 527q0 -275 137 -416t403 -141t402.5 141t136.5 416v911h-109v-885q0 -264 -102 -389q-103 -127 -328 -127t-330 127q-100 121 -100 389v885h-110v-911zM585 1570h147l218 253h-177z" />
<glyph unicode="&#xdb;" horiz-adv-x="1439" d="M180 527q0 -275 137 -416t403 -141t402.5 141t136.5 416v911h-109v-885q0 -264 -102 -389q-103 -127 -328 -127t-330 127q-100 121 -100 389v885h-110v-911zM427 1570h134l159 170l159 -170h134l-203 255h-180z" />
<glyph unicode="&#xdc;" horiz-adv-x="1439" d="M180 527q0 -275 137 -416t403 -141t402.5 141t136.5 416v911h-109v-885q0 -264 -102 -389q-103 -127 -328 -127t-330 127q-100 121 -100 389v885h-110v-911zM435 1600h195v195h-195v-195zM810 1600h195v195h-195v-195z" />
<glyph unicode="&#xdd;" horiz-adv-x="1200" d="M47 1438l499 -739v-699h109v699l498 739h-100q-81 -122 -190 -284q-48 -71 -141.5 -211t-119.5 -179l-454 674h-101zM467 1570h146l219 253h-177z" />
<glyph unicode="&#xde;" horiz-adv-x="1189" d="M203 0h142v339h285q118 0 208 26.5t150 79t90.5 130.5t30.5 181q0 205 -121 310t-358 105h-285v265h-142v-1436zM345 444v621h285q156 0 240.5 -80.5t84.5 -229t-85 -230t-240 -81.5h-285z" />
<glyph unicode="&#xdf;" horiz-adv-x="1238" d="M187 0h128v1105q0 146 75.5 223t221.5 77q83 0 144.5 -31.5t97 -91.5t42.5 -145q-152 -30 -236.5 -110t-84.5 -196q0 -32 6.5 -61t19 -55.5t33 -51t48 -47t63.5 -44.5h-2q75 -44 93 -55q109 -66 140 -113h-1q36 -50 36 -123q0 -106 -67.5 -161t-198.5 -55q-121 0 -256 46 v-100q126 -40 243 -40q197 0 302.5 84t105.5 242q0 91 -44 154q-42 62 -205 169q-9 6 -29 18.5t-29 19.5q-48 30 -78.5 61t-44.5 63.5t-14 69.5q0 105 84 169.5t235 78.5q-9 196 -110.5 297.5t-289.5 101.5q-208 0 -318 -102t-110 -288v-1109z" />
<glyph unicode="&#xe0;" horiz-adv-x="1204" d="M135 285q0 -142 90 -229v1q92 -87 246 -87q125 0 235 81.5t215 252.5v-304h88v609q0 238 -111 355t-335 117q-159 0 -343 -65v-60q161 65 322 65q180 0 279.5 -85t99.5 -240v-69h-317q-469 0 -469 -342zM224 298q0 154 113 222q101 61 345 61h239v-93q0 -202 -108 -331 q-109 -129 -291 -129q-91 0 -158.5 33t-103.5 94t-36 143zM335 1587q83 -94 85 -97q153 -174 165 -187h31q-7 9 -37 48t-45 61q-18 24 -132 175h-67z" />
<glyph unicode="&#xe1;" horiz-adv-x="1204" d="M135 285q0 -142 90 -229v1q92 -87 246 -87q125 0 235 81.5t215 252.5v-304h88v609q0 238 -111 355t-335 117q-159 0 -343 -65v-60q161 65 322 65q180 0 279.5 -85t99.5 -240v-69h-317q-469 0 -469 -342zM224 298q0 154 113 222q101 61 345 61h239v-93q0 -202 -108 -331 q-109 -129 -291 -129q-91 0 -158.5 33t-103.5 94t-36 143zM484 1264h80q56 65 276 317h-119z" />
<glyph unicode="&#xe2;" horiz-adv-x="1204" d="M135 285q0 -142 90 -229v1q92 -87 246 -87q125 0 235 81.5t215 252.5v-304h88v609q0 238 -111 355t-335 117q-159 0 -343 -65v-60q161 65 322 65q180 0 279.5 -85t99.5 -240v-69h-317q-469 0 -469 -342zM224 298q0 154 113 222q101 61 345 61h239v-93q0 -202 -108 -331 q-109 -129 -291 -129q-91 0 -158.5 33t-103.5 94t-36 143zM304 1264h71q32 43 101 137t94 129l196 -266h69q-23 36 -51.5 80t-51 78t-51 78t-52.5 81h-118z" />
<glyph unicode="&#xe3;" horiz-adv-x="1204" d="M135 285q0 -142 90 -229v1q92 -87 246 -87q125 0 235 81.5t215 252.5v-304h88v609q0 238 -111 355t-335 117q-159 0 -343 -65v-60q161 65 322 65q180 0 279.5 -85t99.5 -240v-69h-317q-469 0 -469 -342zM224 298q0 154 113 222q101 61 345 61h239v-93q0 -202 -108 -331 q-109 -129 -291 -129q-91 0 -158.5 33t-103.5 94t-36 143zM272 1311h64q12 156 105 156q37 0 88 -47l59 -55h-1q32 -29 59 -41.5t60 -12.5q71 0 113.5 58.5t49.5 164.5h-65q-3 -52 -15.5 -86.5t-34.5 -51.5t-54 -17q-38 0 -89 47l-58 55h1q-33 29 -60 41t-59 12 q-72 0 -114 -58t-49 -165z" />
<glyph unicode="&#xe4;" horiz-adv-x="1204" d="M135 285q0 -142 90 -229v1q92 -87 246 -87q125 0 235 81.5t215 252.5v-304h88v609q0 238 -111 355t-335 117q-159 0 -343 -65v-60q161 65 322 65q180 0 279.5 -85t99.5 -240v-69h-317q-469 0 -469 -342zM224 298q0 154 113 222q101 61 345 61h239v-93q0 -202 -108 -331 q-109 -129 -291 -129q-91 0 -158.5 33t-103.5 94t-36 143zM302 1353h144v142h-144v-142zM694 1353h144v142h-144v-142z" />
<glyph unicode="&#xe5;" horiz-adv-x="1204" d="M135 285q0 -142 90 -229v1q92 -87 246 -87q125 0 235 81.5t215 252.5v-304h88v609q0 238 -111 355t-335 117q-159 0 -343 -65v-60q161 65 322 65q180 0 279.5 -85t99.5 -240v-69h-317q-469 0 -469 -342zM224 298q0 154 113 222q101 61 345 61h239v-93q0 -202 -108 -331 q-109 -129 -291 -129q-91 0 -158.5 33t-103.5 94t-36 143zM325 1496.5q0 -103.5 71 -173.5q71 -71 174 -71t174 71t71 173.5t-71 173.5t-174 71t-174 -71q-71 -70 -71 -173.5zM388 1497q0 75 52 128q54 53 130 53t130 -53q53 -54 53 -128q0 -76 -53 -129q-54 -54 -130 -54 q-78 0 -130 53q-52 52 -52 130z" />
<glyph unicode="&#xe6;" horiz-adv-x="1930" d="M110 297q0 -154 96 -241q95 -85 275 -85q269 0 431 267q174 -267 494 -267q196 0 385 77v106q-183 -89 -375 -89q-197 0 -307.5 116t-123.5 336h850v60q0 240 -125 376q-125 137 -337 137q-253 0 -396 -174l-49 3q-50 81 -150 126t-234 45q-161 0 -351 -70v-100 q161 73 333 73q165 0 257 -78t92 -219v-48h-289q-237 0 -356.5 -88.5t-119.5 -262.5zM235 308q0 140 101 201q93 55 324 55h215v-71q0 -190 -101 -309q-102 -119 -268 -119q-126 0 -198.5 65.5t-72.5 177.5zM990 600q11 124 60 212.5t132 134.5t194 46q148 0 241 -100 q90 -98 92 -292z" />
<glyph unicode="&#xe7;" horiz-adv-x="1080" d="M128 525q0 -121 37 -226t103 -182q46 -46 103.5 -79t127.5 -50.5t146 -17.5q155 0 295 56v61q-128 -57 -274 -57q-207 0 -326 133q-113 131 -113 362t113 362q119 134 326 134q143 0 274 -57v63q-128 54 -282 54q-249 0 -390 -147q-140 -147 -140 -409zM438 -317v-60 q74 -19 147 -19q208 0 208 150q0 75 -93 186h-47q59 -90 59 -148q0 -61 -37.5 -93t-110.5 -32t-126 16z" />
<glyph unicode="&#xe8;" horiz-adv-x="1209" d="M123 516q0 -256 145 -401q148 -145 403 -145q195 0 375 71v66q-179 -77 -364 -77q-212 0 -331.5 128.5t-134.5 373.5h875v42q0 240 -122 374q-124 133 -332 133q-236 0 -375 -150.5t-139 -414.5zM221 578q18 233 129 340q111 103 289 103q162 0 263 -108 q98 -108 101 -334zM390 1587q82 -94 85 -97q153 -174 164 -187h32q-11 14 -27 35t-30 39.5t-26 34.5q-18 24 -131 175h-67z" />
<glyph unicode="&#xe9;" horiz-adv-x="1209" d="M123 516q0 -256 145 -401q148 -145 403 -145q195 0 375 71v66q-179 -77 -364 -77q-212 0 -331.5 128.5t-134.5 373.5h875v42q0 240 -122 374q-124 133 -332 133q-236 0 -375 -150.5t-139 -414.5zM221 578q18 233 129 340q111 103 289 103q162 0 263 -108 q98 -108 101 -334zM539 1264h80q56 65 276 317h-119z" />
<glyph unicode="&#xea;" horiz-adv-x="1209" d="M123 516q0 -256 145 -401q148 -145 403 -145q195 0 375 71v66q-179 -77 -364 -77q-212 0 -331.5 128.5t-134.5 373.5h875v42q0 240 -122 374q-124 133 -332 133q-236 0 -375 -150.5t-139 -414.5zM221 578q18 233 129 340q111 103 289 103q162 0 263 -108 q98 -108 101 -334zM359 1264h71q31 43 100 137t95 129l196 -266h69q-23 36 -51.5 80t-51.5 78t-51.5 78t-51.5 81h-119z" />
<glyph unicode="&#xeb;" horiz-adv-x="1209" d="M123 516q0 -256 145 -401q148 -145 403 -145q195 0 375 71v66q-179 -77 -364 -77q-212 0 -331.5 128.5t-134.5 373.5h875v42q0 240 -122 374q-124 133 -332 133q-236 0 -375 -150.5t-139 -414.5zM221 578q18 233 129 340q111 103 289 103q162 0 263 -108 q98 -108 101 -334zM357 1353h144v142h-144v-142zM749 1353h144v142h-144v-142z" />
<glyph unicode="&#xec;" horiz-adv-x="546" d="M38 1587q83 -94 86 -97q152 -174 164 -187h32l-27.5 35t-30 39.5t-25.5 34.5q-18 24 -131 175h-68zM211 0h125v1062h-125v-1062z" />
<glyph unicode="&#xed;" horiz-adv-x="546" d="M187 1264h81q55 65 275 317h-119zM211 0h125v1062h-125v-1062z" />
<glyph unicode="&#xee;" horiz-adv-x="546" d="M8 1264h71q31 43 100 137t95 129l195 -266h70q-24 36 -52.5 80t-51 78t-51 78t-52.5 81h-118zM211 0h125v1062h-125v-1062z" />
<glyph unicode="&#xef;" horiz-adv-x="546" d="M6 1353h144v142h-144v-142zM211 0h125v1062h-125v-1062zM397 1353h144v142h-144v-142z" />
<glyph unicode="&#xf0;" horiz-adv-x="1202" d="M117 508q0 -242 134 -392q67 -68 157.5 -106.5t193.5 -38.5q102 0 192.5 38.5t157.5 106.5q135 151 135 392q0 166 -55 307q-55 139 -179 278l-194 221l311 104l-14 40q-131 -45 -325 -108l-133 149h-147l168 -190l-296 -97q9 -24 14 -42q35 12 78 26.5t77.5 26t80 27 t75.5 25.5l224 -255q-156 20 -187 20q-209 0 -337 -146q-131 -145 -131 -386zM252 508q0 206 98 322q102 119 284 119q87 0 190 -34l13 -9q114 -144 114 -398q0 -200 -93 -319q-97 -122 -256 -122q-160 0 -257 122q-93 119 -93 319z" />
<glyph unicode="&#xf1;" horiz-adv-x="1246" d="M196 0h89v601q0 130 49 225q-40 -57 -49 -71v298h-89v-1053zM334 826q63 82 110 127q-36 -25 -57 -51q-30 -32 -53 -76zM339 1311h64q12 156 105 156q37 0 88 -47l59 -55h-1q22 -19 40.5 -31t37.5 -17.5t41 -5.5q71 0 113.5 58.5t49.5 164.5h-64q-4 -52 -16.5 -86.5 t-34.5 -51.5t-54 -17q-38 0 -89 47l-58 55h1q-33 29 -60 41t-59 12q-72 0 -114 -58t-49 -165zM444 953q92 65 223 65q306 0 306 -378v-640h89v646q0 142 -40 239t-119 146.5t-195 49.5q-134 0 -264 -128z" />
<glyph unicode="&#xf2;" horiz-adv-x="1202" d="M123 525q0 -122 34 -229t94 -183q63 -68 152.5 -105.5t198.5 -37.5q72 0 137 17t118 49t94 77q30 37 53.5 82.5t40.5 97.5t26.5 111.5t9.5 120.5q0 265 -130 412q-125 144 -349 144q-222 0 -351 -144q-128 -152 -128 -412zM222 525q0 225 99 357q104 139 281 139 q86 0 157.5 -36t122.5 -104q99 -137 99 -356q0 -225 -99 -355q-104 -140 -280 -140q-180 0 -282 138q-98 129 -98 357zM367 1587q82 -94 85 -97q153 -174 164 -187h32q-11 14 -27 35t-30 39.5t-26 34.5q-18 24 -131 175h-67z" />
<glyph unicode="&#xf3;" horiz-adv-x="1202" d="M123 525q0 -122 34 -229t94 -183q63 -68 152.5 -105.5t198.5 -37.5q72 0 137 17t118 49t94 77q30 37 53.5 82.5t40.5 97.5t26.5 111.5t9.5 120.5q0 265 -130 412q-125 144 -349 144q-222 0 -351 -144q-128 -152 -128 -412zM222 525q0 225 99 357q104 139 281 139 q86 0 157.5 -36t122.5 -104q99 -137 99 -356q0 -225 -99 -355q-104 -140 -280 -140q-180 0 -282 138q-98 129 -98 357zM516 1264h80q55 65 276 317h-119z" />
<glyph unicode="&#xf4;" horiz-adv-x="1202" d="M123 525q0 -122 34 -229t94 -183q63 -68 152.5 -105.5t198.5 -37.5q72 0 137 17t118 49t94 77q30 37 53.5 82.5t40.5 97.5t26.5 111.5t9.5 120.5q0 265 -130 412q-125 144 -349 144q-222 0 -351 -144q-128 -152 -128 -412zM222 525q0 225 99 357q104 139 281 139 q86 0 157.5 -36t122.5 -104q99 -137 99 -356q0 -225 -99 -355q-104 -140 -280 -140q-180 0 -282 138q-98 129 -98 357zM336 1264h71q31 43 100 137t95 129l196 -266h69q-32 50 -100.5 154.5t-106.5 162.5h-118z" />
<glyph unicode="&#xf5;" horiz-adv-x="1202" d="M123 525q0 -122 34 -229t94 -183q63 -68 152.5 -105.5t198.5 -37.5q72 0 137 17t118 49t94 77q30 37 53.5 82.5t40.5 97.5t26.5 111.5t9.5 120.5q0 265 -130 412q-125 144 -349 144q-222 0 -351 -144q-128 -152 -128 -412zM222 525q0 225 99 357q104 139 281 139 q86 0 157.5 -36t122.5 -104q99 -137 99 -356q0 -225 -99 -355q-104 -140 -280 -140q-180 0 -282 138q-98 129 -98 357zM303 1311h65q11 156 104 156q37 0 89 -47l58 -55h-1q33 -29 60 -41.5t59 -12.5q72 0 114 58.5t49 164.5h-64q-6 -78 -31.5 -116.5t-72.5 -38.5 q-38 0 -90 47l-57 55h1q-33 29 -60 41t-59 12q-72 0 -114 -58t-50 -165z" />
<glyph unicode="&#xf6;" horiz-adv-x="1202" d="M123 525q0 -122 34 -229t94 -183q63 -68 152.5 -105.5t198.5 -37.5q72 0 137 17t118 49t94 77q30 37 53.5 82.5t40.5 97.5t26.5 111.5t9.5 120.5q0 265 -130 412q-125 144 -349 144q-222 0 -351 -144q-128 -152 -128 -412zM222 525q0 225 99 357q104 139 281 139 q86 0 157.5 -36t122.5 -104q99 -137 99 -356q0 -225 -99 -355q-104 -140 -280 -140q-180 0 -282 138q-98 129 -98 357zM334 1353h144v142h-144v-142zM726 1353h144v142h-144v-142z" />
<glyph unicode="&#xf7;" horiz-adv-x="1647" d="M211 558h1225v110h-1225v-110zM731 151h186v185h-186v-185zM731 891h186v186h-186v-186z" />
<glyph unicode="&#xf8;" horiz-adv-x="1202" d="M87 -42q7 -6 23 -18t28 -23q121 147 139 169q142 -115 325 -115q224 0 355 146q41 50 70 113t44.5 139t15.5 161q0 234 -115 396l143 175q-9 8 -24.5 20t-25.5 20q-24 -28 -72 -85.5t-67 -80.5q-147 115 -324 115q-227 0 -355 -147q-130 -149 -130 -413q0 -228 116 -395z M252 516q0 221 90 346q94 131 260 131q137 0 248 -111l-537 -651q-61 141 -61 285zM352 178l535 650q64 -138 64 -298q0 -212 -92 -334q-94 -129 -257 -129q-142 0 -250 111z" />
<glyph unicode="&#xf9;" horiz-adv-x="1246" d="M184 405q0 -213 90.5 -324t265.5 -111q134 0 264 131q-92 -67 -225 -67q-306 0 -306 378v641h-89v-648zM374 1587q83 -94 86 -97q153 -174 164 -187h32q-9 12 -21.5 27.5t-21 27.5t-20 26.5t-20.5 27.5q-18 24 -131 175h-68zM804 101q30 19 55 48v-1q33 35 57 83 q-57 -79 -112 -130zM916 231q23 31 46 67v-298h88v1053h-88v-604q0 -127 -46 -218z" />
<glyph unicode="&#xfa;" horiz-adv-x="1246" d="M184 405q0 -213 90.5 -324t265.5 -111q134 0 264 131q-92 -67 -225 -67q-306 0 -306 378v641h-89v-648zM523 1264h81q55 65 275 317h-119zM804 101q30 19 55 48v-1q33 35 57 83q-57 -79 -112 -130zM916 231q23 31 46 67v-298h88v1053h-88v-604q0 -127 -46 -218z" />
<glyph unicode="&#xfb;" horiz-adv-x="1246" d="M184 405q0 -213 90.5 -324t265.5 -111q134 0 264 131q-92 -67 -225 -67q-306 0 -306 378v641h-89v-648zM344 1264h71q31 43 100 137t95 129l195 -266h70q-33 50 -101 154.5t-106 162.5h-118zM804 101q30 19 55 48v-1q33 35 57 83q-57 -79 -112 -130zM916 231q23 31 46 67 v-298h88v1053h-88v-604q0 -127 -46 -218z" />
<glyph unicode="&#xfc;" horiz-adv-x="1246" d="M184 405q0 -213 90.5 -324t265.5 -111q134 0 264 131q-92 -67 -225 -67q-306 0 -306 378v641h-89v-648zM342 1353h144v142h-144v-142zM733 1353h144v142h-144v-142zM804 101q30 19 55 48v-1q33 35 57 83q-57 -79 -112 -130zM916 231q23 31 46 67v-298h88v1053h-88v-604 q0 -127 -46 -218z" />
<glyph unicode="&#xfd;" horiz-adv-x="1163" d="M95 1053q351 -848 447 -1085l-41 -105q-59 -149 -111 -196q-60 -49 -155 -49h-60v-58h101q108 0 171 52q68 59 141 249l481 1192h-93q-37 -95 -113 -285t-110 -277q-108 -269 -171 -428l-397 990h-90zM495 1264h81q55 65 276 317h-120z" />
<glyph unicode="&#xfe;" horiz-adv-x="1248" d="M187 -427h126v678q162 -280 389 -280q189 0 307 151q123 156 123 408t-123 408q-118 152 -307 152q-227 0 -389 -281v690h-126v-1926zM313 530q0 211 89 336q92 129 255 129q162 0 253 -129v1q90 -123 90 -337q0 -215 -90 -338v1q-92 -128 -253 -128q-163 0 -255 127 q-89 125 -89 338z" />
<glyph unicode="&#xff;" horiz-adv-x="1163" d="M95 1053q351 -848 447 -1085l-41 -105q-59 -149 -111 -196q-60 -49 -155 -49h-60v-58h101q108 0 171 52q68 59 141 249l481 1192h-93q-37 -95 -113 -285t-110 -277q-108 -269 -171 -428l-397 990h-90zM314 1353h144v142h-144v-142zM706 1353h144v142h-144v-142z" />
<glyph unicode="&#x106;" horiz-adv-x="1372" d="M118 717q0 -348 188 -549h-1q189 -198 515 -198q245 0 439 125v82q-193 -138 -428 -138q-191 0 -324 78t-201.5 230t-68.5 370q0 330 153 504.5t441 174.5q238 0 428 -137v83q-193 124 -439 124q-327 0 -514 -200q-188 -201 -188 -549zM645 1570h147l219 253h-178z" />
<glyph unicode="&#x107;" horiz-adv-x="1080" d="M128 525q0 -121 37 -226t103 -182q46 -46 103.5 -79t127.5 -50.5t146 -17.5q155 0 295 56v61q-128 -57 -274 -57q-207 0 -326 133q-113 131 -113 362t113 362q119 134 326 134q143 0 274 -57v63q-128 54 -282 54q-249 0 -390 -147q-140 -147 -140 -409zM537 1264h80 q56 65 276 317h-119z" />
<glyph unicode="&#x10c;" horiz-adv-x="1372" d="M118 717q0 -348 188 -549h-1q189 -198 515 -198q245 0 439 125v82q-193 -138 -428 -138q-191 0 -324 78t-201.5 230t-68.5 370q0 330 153 504.5t441 174.5q238 0 428 -137v83q-193 124 -439 124q-327 0 -514 -200q-188 -201 -188 -549zM488 1825l202 -255h181l202 255 h-133l-160 -171l-159 171h-133z" />
<glyph unicode="&#x10d;" horiz-adv-x="1080" d="M128 525q0 -121 37 -226t103 -182q46 -46 103.5 -79t127.5 -50.5t146 -17.5q155 0 295 56v61q-128 -57 -274 -57q-207 0 -326 133q-113 131 -113 362t113 362q119 134 326 134q143 0 274 -57v63q-128 54 -282 54q-249 0 -390 -147q-140 -147 -140 -409zM358 1581 q147 -223 206 -317h118q42 67 109.5 169t97.5 148h-70q-163 -221 -196 -266l-196 266h-69z" />
<glyph unicode="&#x111;" horiz-adv-x="1248" d="M114 529.5q0 -252.5 121 -407.5q119 -151 308 -151q228 0 390 280v-251h124v1286h155v66h-155v147h-124v-147h-326v-66h326v-477q-162 281 -390 281q-188 0 -308 -152q-121 -156 -121 -408.5zM245 530q0 211 89 336q92 129 254 129t255 -128q90 -125 90 -337 q0 -213 -90 -338q-94 -127 -255 -127q-162 0 -254 127q-89 125 -89 338z" />
<glyph unicode="&#x11e;" horiz-adv-x="1523" d="M115 717q0 -164 50.5 -307.5t138.5 -245.5q97 -90 234.5 -142t293.5 -52q301 0 525 147v585h-444v-69h340v-493q-173 -101 -403 -101q-205 0 -342.5 76t-206 227t-68.5 375q0 338 154.5 508.5t462.5 170.5q255 0 467 -146v92q-210 124 -485 124q-156 0 -293.5 -52.5 t-234.5 -143.5q-57 -66 -99 -151t-66 -189t-24 -213zM463 1825q9 -115 85.5 -173.5t214.5 -58.5t214.5 59t86.5 173h-114q-29 -107 -187 -107q-53 0 -92 12.5t-63 36t-32 58.5h-113z" />
<glyph unicode="&#x11f;" horiz-adv-x="1248" d="M123 540q0 -238 120 -398q57 -66 135.5 -104t166.5 -38q224 0 341 204l80 -22v-123q0 -443 -423 -443q-145 0 -280 59v-68q143 -47 310 -47q244 0 363 131.5t119 401.5v960h-89v-154l-80 -23q-117 205 -341 205q-188 0 -302 -144q-120 -151 -120 -397zM218 540 q0 223 95 350q104 133 278 133q179 0 277 -126t98 -357q0 -220 -96 -349q-103 -133 -279 -133t-274.5 126.5t-98.5 355.5zM345 1551q31 -227 280 -227t280 227h-59q-13 -51 -41 -84.5t-72.5 -49.5t-107.5 -16q-89 0 -144.5 38.5t-76.5 111.5h-59z" />
<glyph unicode="&#x130;" horiz-adv-x="579" d="M193 1600h196v197h-196v-197zM236 0h108v1438h-108v-1438z" />
<glyph unicode="&#x131;" horiz-adv-x="546" d="M211 0h125v1062h-125v-1062z" />
<glyph unicode="&#x141;" horiz-adv-x="1104" d="M4 538q29 -40 43 -60q30 21 93.5 66.5t77.5 55.5v-600h872v110h-729v588l382 267q-2 3 -18 24t-27 37q-182 -127 -337 -236v646h-143v-748z" />
<glyph unicode="&#x142;" horiz-adv-x="558" d="M31 648q34 -46 41 -57q98 69 145 103v-694h125v784l190 134q-34 45 -41 55q-116 -81 -149 -106v632h-125v-718z" />
<glyph unicode="&#x152;" horiz-adv-x="2103" d="M100 719q0 -353 216.5 -536t634.5 -183h1037v110h-761v602h712v111h-712v503h743v110h-1019q-418 0 -634.5 -182.5t-216.5 -534.5zM253 719q0 607 672 607h160v-1216h-160q-672 0 -672 609z" />
<glyph unicode="&#x153;" horiz-adv-x="2011" d="M99 530q0 -127 33.5 -232.5t95.5 -180.5q132 -146 357 -146q261 0 418 241q179 -241 486 -241q195 0 385 77v105q-181 -86 -375 -86q-198 0 -308.5 115.5t-122.5 334.5h849v60q0 240 -125 376q-124 137 -336 137q-136 0 -253 -62.5t-204 -181.5q-150 244 -414 244 q-227 0 -357 -147q-129 -149 -129 -413zM233 530q0 209 92 335q96 128 260 128q52 0 99.5 -15.5t87 -44t70.5 -69.5q92 -130 92 -334q0 -210 -92 -334q-95 -129 -257 -129q-165 0 -261 127q-91 124 -91 336zM1072 600q11 124 60 212.5t132 134.5t194 46q149 0 241 -100 q91 -98 92 -292z" />
<glyph unicode="&#x15e;" horiz-adv-x="1248" d="M143 1076q0 -145 88 -238q47 -42 129 -76.5t183 -54.5q14 -3 42.5 -9t42.5 -9q6 -1 14 -2.5t15 -2.5t13 -2q172 -37 252 -108q87 -80 87 -216q0 -154 -110 -237.5t-312 -83.5q-213 0 -437 109v-93q240 -83 437 -83q264 0 401 103t137 301q0 164 -103 264.5t-312 141.5 q-20 4 -62 13t-62 12q-186 37 -257 95q-77 68 -77 193q0 146 105 225.5t300 79.5q169 0 376 -87v91q-211 64 -400 64q-104 0 -200.5 -29.5t-164.5 -77.5q-125 -104 -125 -283zM434 -317v-60q74 -19 147 -19q208 0 208 150q0 75 -93 186h-47q59 -90 59 -148q0 -61 -37.5 -93 t-110.5 -32t-126 16z" />
<glyph unicode="&#x15f;" horiz-adv-x="1024" d="M128 29q198 -59 353 -59q205 0 319 84q107 78 107 214q0 112 -68 182q-38 33 -108 62.5t-155 47.5l-20 5q-5 2 -45 10q-160 34 -223 80q-71 55 -71 145q0 223 333 223q159 0 297 -53v64q-137 47 -320 47q-188 0 -290 -75.5t-102 -214.5q0 -111 69 -176.5t223 -98.5 l66 -15q184 -43 250 -89q72 -59 72 -159q0 -108 -86 -166.5t-243 -58.5q-188 0 -358 78v-77zM323 -317v-60q74 -19 146 -19q209 0 209 150q0 75 -93 186h-47q59 -90 59 -148q0 -61 -37.5 -93t-111.5 -32q-72 0 -125 16z" />
<glyph unicode="&#x160;" horiz-adv-x="1248" d="M143 1076q0 -145 88 -238q47 -42 129 -76.5t183 -54.5q14 -3 42.5 -9t42.5 -9q6 -1 14 -2.5t15 -2.5t13 -2q172 -37 252 -108q87 -80 87 -216q0 -154 -110 -237.5t-312 -83.5q-213 0 -437 109v-93q240 -83 437 -83q264 0 401 103t137 301q0 164 -103 264.5t-312 141.5 q-20 4 -62 13t-62 12q-186 37 -257 95q-77 68 -77 193q0 146 105 225.5t300 79.5q169 0 376 -87v91q-211 64 -400 64q-104 0 -200.5 -29.5t-164.5 -77.5q-125 -104 -125 -283zM332 1825l203 -255h180l203 255h-134l-159 -171l-159 171h-134z" />
<glyph unicode="&#x161;" horiz-adv-x="1024" d="M128 29q198 -59 353 -59q205 0 319 84q107 78 107 214q0 112 -68 182q-38 33 -108 62.5t-155 47.5l-20 5q-5 2 -45 10q-160 34 -223 80q-71 55 -71 145q0 223 333 223q159 0 297 -53v64q-137 47 -320 47q-188 0 -290 -75.5t-102 -214.5q0 -111 69 -176.5t223 -98.5 l66 -15q184 -43 250 -89q72 -59 72 -159q0 -108 -86 -166.5t-243 -58.5q-188 0 -358 78v-77zM249 1581q146 -223 206 -317h117q33 52 67 103.5t72 109t69 104.5h-71q-163 -221 -195 -266l-196 266h-69z" />
<glyph unicode="&#x178;" horiz-adv-x="1200" d="M47 1438l499 -739v-699h109v699l498 739h-100q-81 -122 -190 -284q-48 -71 -141.5 -211t-119.5 -179l-454 674h-101zM317 1600h195v195h-195v-195zM692 1600h195v195h-195v-195z" />
<glyph unicode="&#x17d;" horiz-adv-x="1346" d="M96 0h1155v74h-1053l1029 1274v90h-1107v-74h1005l-1029 -1274v-90zM381 1825l203 -255h180l203 255h-134l-159 -171l-159 171h-134z" />
<glyph unicode="&#x17e;" horiz-adv-x="1032" d="M104 0h824v50h-772l772 900v103h-798v-50h747l-773 -899v-104zM252 1581q147 -224 207 -317h117q43 67 110 169t97 148h-70q-163 -221 -196 -266l-195 266h-70z" />
<glyph unicode="&#x192;" horiz-adv-x="1250" d="M34 -300v-95q79 -32 175 -32q172 0 259 97t144 376q24 116 70.5 348t62.5 313h312v82h-294l67 349q29 135 95 206.5t169 71.5q69 0 133 -33v90q-74 26 -169 26q-134 0 -227.5 -94.5t-129.5 -260.5q-42 -217 -68 -355h-274v-82h254l-144 -723q-36 -176 -95 -247l1 1 q-63 -82 -175 -82q-82 0 -166 44z" />
<glyph unicode="&#x2c6;" d="M226 1264h71q31 43 100 137t95 129l195 -266h69q-23 36 -51.5 80t-51 78t-51 78t-52.5 81h-118z" />
<glyph unicode="&#x2c7;" d="M227 1581q146 -223 206 -317h117q43 67 110 169t97 148h-70q-163 -221 -195 -266l-196 266h-69z" />
<glyph unicode="&#x2d8;" d="M211 1551q32 -227 280.5 -227t280.5 227h-60q-18 -77 -72 -113.5t-148 -36.5q-89 0 -145 38.5t-76 111.5h-60z" />
<glyph unicode="&#x2d9;" d="M420 1351h144v144h-144v-144z" />
<glyph unicode="&#x2da;" d="M247 1496.5q0 -103.5 70 -173.5q71 -71 175 -71q102 0 173 71t71 173.5t-71 173.5t-173 71q-104 0 -175 -71q-70 -70 -70 -173.5zM309 1497q0 75 52 128q54 53 131 53q75 0 129 -53q53 -54 53 -128q0 -76 -53 -129q-54 -54 -129 -54q-78 0 -131 53q-52 52 -52 130z" />
<glyph unicode="&#x2db;" d="M341 -246q0 -77 50.5 -113.5t156.5 -36.5q48 0 107 13v65q-48 -15 -95 -15q-140 0 -140 123q0 61 60 150h-47q-92 -112 -92 -186z" />
<glyph unicode="&#x2dc;" d="M193 1311h64q12 156 105 156q37 0 88 -47l59 -55h-1q22 -19 40.5 -31t37.5 -17.5t41 -5.5q71 0 113.5 58.5t49.5 164.5h-64q-4 -52 -16.5 -86.5t-34.5 -51.5t-54 -17q-38 0 -89 47l-58 55h1q-33 29 -60 41t-59 12q-47 0 -82.5 -26t-55.5 -76t-25 -121z" />
<glyph unicode="&#x2dd;" d="M265 1264h71q39 67 106 179.5t82 137.5h-99zM585 1264h70q201 305 209 317h-107z" />
<glyph unicode="&#x3a9;" horiz-adv-x="1502" d="M76 0h540v131q-174 99 -274 265q-103 172 -103 384q0 251 140 406q144 156 372 156q229 0 370 -155q140 -155 140 -407q0 -212 -102 -384q-97 -162 -273 -264v-132h541v118h-371q219 191 286 333q68 142 68 329q0 298 -184 485q-185 188 -475 188q-292 0 -477 -188h1 q-184 -189 -184 -494q0 -178 69 -321q70 -142 284 -332h-368v-118z" />
<glyph unicode="&#x3c0;" horiz-adv-x="1157" d="M-30 749h154q8 66 37 96.5t81 30.5h39l-187 -876h174l186 876h313l-77 -360q-33 -154 -43 -224q-10 -66 -10 -113q0 -96 58.5 -145t171.5 -49q51 0 106 15l29 135q-67 -9 -96 -9q-52 0 -75 23.5t-23 78.5q0 38 29 181l101 467h175l33 152h-853q-159 0 -228 -60 q-67 -59 -95 -219z" />
<glyph unicode="&#x10a0;" horiz-adv-x="955" d="M93 526q0 -526 387 -526q382 0 382 569q0 270 -187 461q-191 198 -211 449h-121q14 -268 189 -438v1q205 -199 205 -473q0 -461 -257 -461q-260 0 -260 420v97h-127v-99z" />
<glyph unicode="&#x10a1;" horiz-adv-x="957" d="M95 483q-1 -483 387 -483q382 0 382 483q0 324 -356 420q170 138 170 339q-40 236 -434 234h-122v-363h98v254q317 0 344 -167q-24 -182 -154 -305q-315 -88 -315 -412zM224 483q0 297 260 304q253 -7 253 -304q0 -375 -255 -375q-258 0 -258 375z" />
<glyph unicode="&#x10a2;" horiz-adv-x="1110" d="M96 432q-3 -217 112.5 -325t350.5 -109q458 2 458 434q0 372 -372 418q0 38 34.5 80.5t92.5 81.5q100 65 100 152q0 314 -311 312q-319 0 -322 -253v-80h126v80q0 144 196 142q182 2 192 -201q0 -96 -148 -174q-117 -62 -118 -132q-397 -54 -391 -426zM216 432 q-1 315 347 320q330 0 330 -326q0 -318 -332 -318q-346 0 -345 324z" />
<glyph unicode="&#x10a3;" horiz-adv-x="1572" d="M80 986q1 -986 994 -986h156v108h-154q-872 0 -872 880q0 379 263 379q257 0 259 -424q-2 -500 381 -500q386 0 382 504q0 532 -382 532q-209 0 -321 -208q-111 208 -319 208q-171 0 -269 -126t-118 -367zM849 947q0 420 258 420q257 0 257 -420q0 -392 -257 -392 q-258 0 -258 392z" />
<glyph unicode="&#x10a4;" horiz-adv-x="955" d="M93 400q2 -400 381 -402q388 2 388 402v686q0 393 -382 393q-386 0 -385 -350q0 -257 248 -297v125q-125 34 -125 164q0 247 256 248q263 0 263 -283v-686q0 -292 -257 -292q-262 0 -262 292v53h-125v-53z" />
<glyph unicode="&#x10a5;" horiz-adv-x="955" d="M93 400q0 -400 387 -400q382 0 382 400v83q0 206 -207 294q207 151 207 342q0 360 -382 360q-386 0 -385 -393v-70h123v70q0 141 64 210.5t194 68.5q261 2 261 -251q0 -249 -228 -284h-128v-107h123q233 -9 233 -240v-83q0 -292 -257 -292q-262 0 -262 292v180h-125v-180 z" />
<glyph unicode="&#x10a6;" horiz-adv-x="1159" d="M51 1114q7 -146 90.5 -233.5t239.5 -111.5q-68 -41 -106 -117.5t-44 -179.5q8 -227 114 -349.5t302 -122.5q424 0 424 483q0 225 -129 326q-135 106 -292 86q94 127 96 227q-9 158 -99.5 248.5t-260.5 108.5q-155 -17 -240 -112.5t-95 -252.5zM169 1122q19 219 216 245 q233 -24 240 -245v-2q-13 -245 -241 -258q-200 27 -215 260zM356 483q0 320 299 321q278 -13 278 -321q0 -375 -286 -375q-291 0 -291 375z" />
<glyph unicode="&#x10a7;" horiz-adv-x="1572" d="M80 483q0 -483 379 -483q390 0 390 483v548q0 336 227 336q288 0 288 -336v-548q0 -355 -258 -374v-109q387 4 387 483v548q0 448 -417 448q-225 0 -269 -212h-53q-44 212 -287 212q-387 0 -387 -448v-548zM204 483v548q0 336 263 336q257 0 257 -336v-548 q0 -375 -257 -375q-263 0 -263 375z" />
<glyph unicode="&#x10a8;" horiz-adv-x="955" d="M93 483q0 -404 277 -476v109q-152 53 -152 367v548q0 336 262 336q257 0 257 -336v-548q0 -315 -145 -367v-109q270 69 270 476v548q0 448 -382 448q-387 0 -387 -448v-548z" />
<glyph unicode="&#x10a9;" horiz-adv-x="955" d="M93 400q0 -400 387 -400q382 0 382 400v83q0 206 -207 294q207 152 207 340q-26 317 -438 359v-114q313 -27 313 -248q0 -249 -228 -284h-128v-107h123q233 -9 233 -240v-83q0 -292 -257 -292q-262 0 -262 292v53h-125v-53z" />
<glyph unicode="&#x10aa;" horiz-adv-x="2184" d="M69 948q38 -409 327 -652.5t801 -295.5h381v108h-385q-934 59 -1002 838q0 421 262 421q258 0 258 -395v-144h124v144q0 395 258 395t258 -395v-144h125v144q4 395 260 395q258 0 258 -395q-6 -165 -73 -259t-186 -113v-108q355 38 372 481q12 506 -371 506 q-206 0 -323 -244q-110 244 -320 244q-207 0 -318 -245q-114 245 -322 245q-385 0 -384 -531z" />
<glyph unicode="&#x10ab;" horiz-adv-x="955" d="M93 483q0 -483 387 -483q382 0 382 483v603q0 393 -382 393q-185 0 -281 -82t-103 -248h121q14 219 257 220q263 -1 263 -283v-299q-132 120 -263 130q-381 -20 -381 -434zM218 483q0 306 256 306q263 -7 263 -306q0 -375 -257 -375q-262 0 -262 375z" />
<glyph unicode="&#x10ac;" horiz-adv-x="955" d="M95 477q-1 -477 381 -477q386 0 386 483q0 431 -385 434q-102 -5 -259 -159v328q0 281 262 281h382v112h-386q-382 0 -381 -393v-609zM218 483q0 299 257 306q262 -1 262 -306q0 -375 -261 -375q-258 0 -258 375z" />
<glyph unicode="&#x10ad;" horiz-adv-x="1572" d="M80 483q0 -413 357 -478v108q-119 27 -176 118.5t-57 251.5v548q0 336 263 336q257 0 257 -281v-481h125v473q0 289 227 289q288 0 288 -336v-548q0 -355 -256 -374v-104q385 64 381 466v560q0 448 -413 448q-178 0 -290 -208q-111 208 -319 208q-387 0 -387 -448v-548z " />
<glyph unicode="&#x10ae;" horiz-adv-x="955" d="M93 400q0 -400 383 -400q384 0 384 400q0 265 -251 375q251 110 251 311q0 393 -614 393h-151v-110h151q490 0 491 -283v-4q-1 -250 -261 -250h-124v-116h122q263 2 263 -316q0 -292 -263 -292q-256 0 -256 292v102h-125v-102z" />
<glyph unicode="&#x10af;" horiz-adv-x="1084" d="M52 1019q0 -354 296 -354q306 0 306 366q0 132 -126 336h343v-967q0 -292 -257.5 -292t-257.5 271v17h-126v-17q0 -379 382 -381q384 2 384 402v1079h-600v-122q128 -200 132 -328q0 -265 -182 -265q-171 4 -171 255v109h-123v-109z" />
<glyph unicode="&#x10b0;" horiz-adv-x="1572" d="M82 477q-2 -457 351 -476v108q-229 19 -229 374q0 306 259 306q261 -1 261 -339v-143h123v143q0 339 260 339q255 -1 255 -306q0 -355 -225 -374v-108q356 19 356 476q0 440 -401 440q-197 0 -306 -184q-110 182 -326 184q-256 57 -256 255q0 196 257 197h842v110h-842 q-381 0 -379 -311q-2 -179 222 -298q-224 -120 -222 -393z" />
<glyph unicode="&#x10b1;" horiz-adv-x="953" d="M93 423q0 -423 381 -423q386 0 386 423q0 147 -84 237q-93 100 -98 255h-114q5 -152 76 -223q95 -94 99 -269q-4 -315 -263 -315t-260 315v1056h-123v-1056z" />
<glyph unicode="&#x10b2;" horiz-adv-x="1393" d="M84 485q0 -485 659 -483q565 -2 565 481q0 381 -373 389l-9 54q155 55 155 235q0 318 -317 318q-313 0 -315 -316q8 -59 32.5 -109.5t67.5 -91.5t102 -67q-196 -85 -202 -247q6 -73 41 -124.5t99.5 -78.5t155.5 -27h15v95q-171 11 -193 129q2 184 151 190h112 q358 -23 358 -349q0 -375 -445 -375q-535 0 -535 377v699h-124v-699zM567 1161q2 206 197 206q201 0 201 -206q1 -218 -201 -222q-197 0 -197 222z" />
<glyph unicode="&#x10b3;" horiz-adv-x="1091" d="M52 1367h158q158 0 158 -269v-196h127v196q0 269 190 269q176 0 173 -281v-707q0 -271 -286 -271q-305 0 -305 271v219h-123v-219q0 -189 107 -284.5t321 -96.5q197 1 305.5 98.5t124.5 284.5v701q0 198 -79 296.5t-238 97.5q-144 2 -244 -168q-119 171 -235 171h-154 v-112z" />
<glyph unicode="&#x10b4;" horiz-adv-x="1572" d="M80 994q0 -242 97 -367.5t284 -131.5q190 3 289 128.5t99 370.5q0 373 227 373q288 0 288 -281q0 -346 -169 -348h-91v-110h91q169 -4 169 -228q0 -292 -313 -292q-142 0 -216.5 40.5t-87.5 127.5h-119q21 -138 127 -207.5t296 -70.5q438 2 438 402q0 182 -203 292 q207 98 203 394q0 393 -413 393q-182 0 -297 -207q-102 207 -312 207q-387 0 -387 -485zM204 994q0 373 263 373q257 0 257 -373q0 -387 -263 -387q-257 3 -257 387z" />
<glyph unicode="&#x10b5;" horiz-adv-x="953" d="M93 400q0 -400 381 -398q386 -2 386 398v1079h-125v-448q-170 112 -276 113q-271 -1 -282 -312h123q14 195 167 202q268 -35 268 -225v-409q0 -292 -259 -292t-260 292v129h-123v-129z" />
<glyph unicode="&#x10b6;" horiz-adv-x="1572" d="M82 1031q-1 -515 255.5 -773t769.5 -258h198v108h-198q-903 0 -903 923q0 336 263 336q257 0 257 -336v-277h125v277q0 336 258 336q257 0 257 -336q0 -383 -258 -405v-113q387 15 387 518q0 448 -386 448q-209 0 -321 -213q-111 213 -319 213q-387 0 -385 -448z" />
<glyph unicode="&#x10b7;" horiz-adv-x="955" d="M64 396h30v4v26zM94 396q2 -396 383 -398q385 2 385 402v1079h-124v-448q0 -243 -255 -323q-265 0 -265 323q0 289 82 448h-100q-106 -138 -106 -448q0 -432 387 -434q139 2 206 138l51 -11v-324q0 -292 -261 -292q-258 0 -259 288h-124zM218 396h31l-31 30v-26v-4z" />
<glyph unicode="&#x10b8;" horiz-adv-x="984" d="M55 1368q233 -13 240 -214v-44h114v44q7 215 189 215q148 0 171 -281v-277q-145 87 -259 91q-385 0 -383 -452q0 -450 384 -450q382 0 382 450v635q-10 186 -85 289t-210 102q-144 2 -249 -189q-77 182 -294 189v-108zM249 450q1 338 262 339q258 -1 258 -339 q0 -342 -258 -342q-261 0 -262 342z" />
<glyph unicode="&#x10b9;" horiz-adv-x="955" d="M95 0h123v383q0 333 263 333q238 -19 256 -314q0 -272 -91 -410q50 -10 112 -20q104 156 104 426q-13 161 -72.5 264t-161.5 140l-16 45q110 161 115 325q-5 307 -307 307q-326 0 -325 -489v-990zM218 663v327q0 378 202 379q185 -1 187 -197v-2q-12 -180 -109 -348 q-168 -10 -280 -159z" />
<glyph unicode="&#x10ba;" horiz-adv-x="1132" d="M89 483q0 -483 485 -483q470 0 470 483q0 185 -314 292q313 110 312 334q1 355 -356 368v-111q230 -14 230 -256q-15 -278 -270 -278h-64v-114h71q236 0 263 -232q4 -378 -342 -378q-360 0 -360 375v548q0 104 11 184t36 146t65 118h-112q-125 -139 -125 -448v-548z" />
<glyph unicode="&#x10bb;" horiz-adv-x="955" d="M93 483q0 -483 387 -483q382 0 382 483v996h-125v-760q-99 167 -261 190q-383 -1 -383 -426zM218 483q0 306 256 306q263 -1 263 -306q0 -375 -257 -375q-262 0 -262 375z" />
<glyph unicode="&#x10bc;" horiz-adv-x="973" d="M92 483q2 -483 387 -483q381 0 381 483q0 434 -385 434q-124 0 -259 -142v321q0 272 193 273q175 -1 175 -215v-5h115v5q9 198 222 212v111q-179 -14 -286 -178q-100 180 -226 180q-316 0 -315 -379v-4zM216 483q0 306 257 306q263 0 263 -306q0 -375 -257 -375 q-263 0 -263 375z" />
<glyph unicode="&#x10bd;" horiz-adv-x="955" d="M64 396h32v4q0 5 -1 13.5t-1 12.5zM96 396q1 -396 379 -398q387 2 387 393q0 250 -261 433q55 66 86 159h173v98h-174q-30 98 -90 148v247h-110v-188q-62 19 -111 19q-137 -12 -208.5 -82t-70.5 -196q-1 -259 275 -279q62 9 144 24q223 -172 223 -374q0 -292 -257 -292 q-262 0 -263 288h-122zM218 396h31l-31 30v-26v-4zM218 1031q0 181 191 181q175 0 180 -181q-10 -189 -189 -190q-182 0 -182 190z" />
<glyph unicode="&#x10be;" horiz-adv-x="953" d="M93 483q0 -483 383 -483q384 0 384 483q0 432 -384 434q-137 -2 -258 -148v710h-125v-996zM218 483q0 306 258 306q259 -1 259 -306q0 -375 -259 -375q-258 0 -258 375z" />
<glyph unicode="&#x10bf;" horiz-adv-x="955" d="M93 400q0 -200 95.5 -300.5t285.5 -101.5q350 2 386 331q-1 168 -156 355q-171 205 -172 330v148l324 -124v102q-44 16 -102 38.5t-120.5 46.5t-101.5 39v215h-114v-185l-325 130v-105q234 -94 320 -129v-180q0 -142 154 -326q169 -199 170 -360q-49 -216 -261 -216 q-258 0 -258 292v112h-125v-112z" />
<glyph unicode="&#x10c0;" horiz-adv-x="955" d="M93 383q0 -383 383 -383q384 0 384 326q0 142 -128 242q128 88 128 203q0 86 -127 177q127 99 127 224q0 307 -488 307h-238v-112h238q363 0 363 -195q0 -172 -129 -165h-184v-110h176q139 -6 139 -128q0 -142 -139 -148h-176v-108h176q139 0 139 -187q0 -218 -261 -218 q-258 0 -258 275v13h-125v-13z" />
<glyph unicode="&#x10c1;" horiz-adv-x="1010" d="M92 400q0 -400 407 -400q418 0 418 353q0 174 -137 274q136 110 135 199q1 86 -121 201q122 99 121 183q1 259 -374 267v-110q246 -10 255 -158q-9 -129 -133 -130h-122v-123h122q124 0 133 -130q-9 -135 -131 -135h-124v-117h124q124 -1 124 -221q0 -245 -288 -245 q-285 0 -285 292v933h-124v-933z" />
<glyph unicode="&#x10c2;" horiz-adv-x="955" d="M95 -73v-126q165 36 385 207q76 -61 140 -102.5t122.5 -67.5t112.5 -37v120q-163 25 -267 85q274 151 274 477v542q0 453 -386 451q-382 2 -381 -451v-542q0 -164 67 -282t202 -190q-102 -69 -269 -84zM218 483v542q0 342 258 342q261 0 261 -342v-542q0 -375 -257 -375 q-262 0 -262 375z" />
<glyph unicode="&#x10c3;" horiz-adv-x="955" d="M93 1178h125v189h526q-75 -452 -270 -452h-122v-120h122q263 -4 263 -395q0 -292 -257 -292q-262 0 -262 262v83h-123v-74q0 -379 379 -381q388 2 388 402q0 403 -281 444q274 191 281 635h-769v-301z" />
<glyph unicode="&#x10c4;" horiz-adv-x="955" d="M64 396h30v4v26zM94 396q2 -396 383 -398q385 2 385 402q0 269 -312 384q312 123 312 417v238q-78 -72 -169.5 -101.5t-215.5 -29.5q-77 0 -132.5 20.5t-86.5 58.5t-39 92h-124q12 -132 111.5 -205t271.5 -80q81 3 262 47q-1 -332 -259 -400h-129v-118h150 q236 -43 236 -323q0 -292 -261 -292q-258 0 -259 288h-124zM218 396h31l-31 30v-26v-4z" />
<glyph unicode="&#x10c5;" horiz-adv-x="1071" d="M91 326q0 -326 386 -328q382 2 382 328v128h121v114q-79 -2 -121 -2v334h121v117h-121v155q0 307 -382 307q-386 0 -386 -307q0 -337 260 -447q-260 -115 -260 -399zM215 326q0 332 255 339h265v-339q0 -218 -258 -218q-262 0 -262 218zM215 1172q0 195 262 195 q258 0 258 -195v-387h-264q-256 0 -256 387z" />
<glyph unicode="&#x10c6;" horiz-adv-x="1574" d="M80 1019q0 -221 94.5 -336.5t277.5 -125.5v117q-246 24 -246 345q0 348 261 348q257 0 257 -353v-688q0 -205 -228 -217v-108q355 13 355 325v345q149 -115 252 -115q390 0 390 454q0 469 -384 469q-213 0 -332 -171q-100 171 -310 171q-193 0 -290 -115t-97 -345z M851 1014q0 353 258 353q259 0 259 -353q0 -333 -259 -333q-258 0 -258 333z" />
<glyph unicode="&#x10d0;" horiz-adv-x="739" d="M66 416q0 -123 36 -216t107.5 -146.5t170.5 -53.5q88 0 155.5 56t102.5 150t35 210q0 145 -62 262t-173 172q-24 11 -41 22.5t-33 27.5t-24 36.5t-8 46.5h-78q1 -24 13.5 -47t29.5 -40.5t46 -37t52 -32.5t58 -31q49 -25 84 -90t50 -139t15 -150q0 -356 -224 -356 q-119 0 -175 85t-56 278q0 58 15 90l-65 41q-29 -63 -31 -138z" />
<glyph unicode="&#x10d1;" horiz-adv-x="750" d="M66 479q0 -223 89.5 -351t227.5 -128q86 0 155.5 63.5t107.5 173.5t38 244q0 192 -68.5 322.5t-190.5 171.5v177q0 158 -100 191q-46 12 -84 56.5t-38 83.5h-99q-1 -17 1.5 -34.5t8 -35.5t16.5 -31t26 -17q201 -54 201 -206v-188q-95 -24 -161 -94.5t-98 -171.5t-32 -226 zM155 486q0 435 230 449q220 -14 220 -449q0 -92 -16 -170.5t-44.5 -134.5t-70 -88t-90.5 -32q-103 0 -166 115.5t-63 309.5z" />
<glyph unicode="&#x10d2;" horiz-adv-x="829" d="M66 -17q0 -190 94 -304t257 -114q150 0 248 116.5t98 307.5q0 105 -39 191.5t-109.5 144.5t-166.5 86q59 44 102 97t64.5 104.5t21.5 98.5v25q0 41 -17.5 81t-48.5 73t-80 53t-106 20q-117 0 -185.5 -58t-68.5 -157q0 -47 16.5 -100.5t43.5 -85.5l40 58q-19 22 -24 47 t-5 61q0 94 48 132t138 38q77 0 125 -49.5t48 -131.5q0 -96 -42.5 -174t-113.5 -131q-156 -32 -247 -147.5t-91 -281.5zM153 -12q0 111 32 192t91 127.5t144 59.5q129 -20 197.5 -116t68.5 -261v-1q0 -83 -21 -152.5t-58 -116t-86 -71.5t-105 -25q-118 0 -190.5 98 t-72.5 266z" />
<glyph unicode="&#x10d3;" horiz-adv-x="1240" d="M66 497q0 -47 8 -100.5t23.5 -112.5t41.5 -118.5t60 -113.5t81.5 -102.5t102.5 -81.5l-2 -14q-40 -4 -102.5 -30t-86.5 -50l41 -62q52 47 94 66.5t100 19.5q272 0 402 -226h81q-51 101 -155.5 169.5t-291.5 137.5q-94 34 -165 126.5t-107.5 222t-36.5 277.5 q0 110 24.5 198.5t73 141.5t112.5 53q51 0 85 -18.5t60 -64t38 -127t12 -203.5q0 -130 40.5 -237t110 -167t152.5 -60q86 0 157.5 62t113 171t41.5 242q0 111 -23 199.5t-64 147t-98 89.5t-124 31q-44 0 -82 -14t-74 -45t-64 -86.5t-45 -133.5q-29 150 -86 214.5t-154 64.5 q-84 0 -151 -60.5t-105 -167t-38 -238.5zM639 486q0 118 15 199t45 127.5t70 66t96 19.5q62 0 106.5 -27t70.5 -79.5t38 -122.5t12 -162v-24q0 -191 -59.5 -296.5t-165.5 -105.5q-110 0 -169 109t-59 296z" />
<glyph unicode="&#x10d4;" horiz-adv-x="761" d="M66 -86q0 -91 42.5 -172t114.5 -129t154 -48q65 0 123 29t99 78.5t64.5 117.5t23.5 145v637q0 191 -74 291t-216 100q-137 0 -214 -90t-77 -240q0 -100 44.5 -175t123.5 -104v75q-40 25 -63.5 76t-23.5 125q0 130 50 199t160 69q66 0 113 -35.5t73 -108.5t26 -181v-664 q0 -70 -30 -135t-84.5 -107.5t-119.5 -42.5q-98 0 -160.5 85t-62.5 222q0 87 31 168l-79 28q-38 -115 -38 -213z" />
<glyph unicode="&#x10d5;" horiz-adv-x="745" d="M66 -105q0 -90 36.5 -165t108 -120t163.5 -45q88 0 158 50t109 136t39 189v60q0 97 -47.5 168t-161.5 114q57 39 96.5 77t64.5 78t36.5 81.5t11.5 87.5q0 106 -34 186.5t-99.5 125.5t-154.5 45q-90 0 -155 -38.5t-100.5 -114.5t-35.5 -184q0 -46 30.5 -104t61.5 -88 l52 46q-1 2 -9 12t-11.5 15.5t-11 17t-12 21t-9 22t-7 26t-2.5 27.5q0 136 58 206.5t150 70.5q100 0 150.5 -76t50.5 -223q0 -50 -15.5 -102.5t-40 -94t-58 -68t-66.5 -26.5h-64v-56h73q40 0 72.5 -19t54 -53t33 -81t11.5 -103v-66q0 -88 -24 -156.5t-74.5 -109 t-119.5 -40.5q-47 0 -89 22t-71 59t-46 87t-17 105q0 82 5.5 130t22.5 85l-61 38q-52 -104 -52 -255z" />
<glyph unicode="&#x10d6;" horiz-adv-x="787" d="M66 1212q0 -82 27.5 -147t81.5 -108t129 -59q-95 -43 -150 -162t-55 -265q0 -133 41 -241.5t112 -169t158 -60.5q90 0 160.5 59.5t110.5 168t40 247.5q0 127 -38 224t-109.5 155t-169.5 72q68 44 112 116t44 173q0 115 -70.5 192t-181.5 77q-106 0 -174 -76.5t-68 -195.5 zM137 1181q0 117 46.5 182t123.5 65q82 0 129.5 -64t47.5 -177v-11q0 -53 -9 -93.5t-28 -70t-46 -50t-65 -36.5q-77 13 -138 85t-61 170zM183 473q0 196 62 299.5t164 103.5q93 0 158.5 -109t65.5 -292v-4q0 -179 -63 -295t-160 -116q-63 0 -114.5 51t-82 146t-30.5 216z " />
<glyph unicode="&#x10d7;" horiz-adv-x="1247" d="M66 481q0 -130 44.5 -241.5t117 -175.5t153.5 -64q79 0 150.5 68t113.5 176t42 224q0 211 53 320.5t156 109.5q92 0 144.5 -101t52.5 -300q0 -122 -62.5 -247.5t-142.5 -189.5v-64q122 59 207 201t86 297q-1 223 -78 346t-207 123q-84 0 -150.5 -77.5t-90.5 -205.5 q-37 128 -115.5 205.5t-164.5 77.5q-82 0 -154 -67t-113.5 -178t-41.5 -237zM152 475q0 120 26.5 215.5t77.5 151.5t118 56q103 0 165 -112.5t62 -303.5v-21q0 -185 -61.5 -293t-157.5 -108q-102 0 -166 111.5t-64 303.5z" />
<glyph unicode="&#x10d8;" horiz-adv-x="755" d="M66 485q0 -164 48 -290.5t133 -197.5q3 17 9 36q-99 186 -99 452q0 187 60.5 300t161.5 113q67 0 117.5 -51t78 -144.5t27.5 -217.5q0 -265 -102 -452q1 -4 2.5 -8t3.5 -11t5 -17q83 71 130.5 198t47.5 290q0 98 -23.5 186t-64 152t-98.5 102t-124 38q-87 0 -159.5 -64 t-113 -174t-40.5 -240z" />
<glyph unicode="&#x10d9;" horiz-adv-x="750" d="M66 -84q0 -165 83.5 -258t223.5 -93q82 0 154 50.5t114.5 134.5t42.5 177v30q0 40 -10 82.5t-32.5 85t-54 77t-78.5 59.5t-103 32q56 5 100.5 27.5t73 54t47.5 71t26.5 77t7.5 74.5q0 151 -108 247.5t-293 96.5v-65q80 0 142.5 -22t101 -61t59 -89.5t20.5 -109.5 q0 -271 -205 -271h-79v-63h76q114 0 169 -75.5t56 -210.5v-42q-1 -140 -61.5 -224t-163.5 -84q-104 0 -163 79.5t-59 222.5q0 78 27 183l-53 32q-61 -97 -61 -225z" />
<glyph unicode="&#x10da;" horiz-adv-x="1685" d="M66 504q0 -110 53 -218.5t142.5 -193t198.5 -132.5l1 -20q-19 -7 -45 -24.5t-44 -32.5t-42.5 -37.5t-27.5 -24.5l35 -53q102 131 248 131q41 0 83 -8l-1 1q198 -34 319.5 -121t153.5 -199h80q-30 143 -159 238.5t-342 117.5q-166 17 -293.5 91t-199 198t-71.5 281 q0 108 26 197t73.5 141t105.5 52q205 0 215 -296l8 -191h56l6 191q7 152 57 229t141 77q189 0 200 -306l6 -191h58l7 191q7 151 61 223.5t153 72.5t152 -97.5t53 -274.5v-13q0 -223 -156 -358v-61q117 68 180 178t63 254q0 129 -35.5 225t-102 150.5t-156.5 60.5 q-150 -1 -243 -200q-99 211 -240 211q-133 0 -224 -211q-105 199 -258 199q-85 0 -152.5 -57.5t-105 -159.5t-37.5 -230z" />
<glyph unicode="&#x10db;" horiz-adv-x="770" d="M66 488q0 -138 41 -250t112 -175t157 -63q95 0 165.5 57.5t109 167.5t38.5 260v642q0 160 -86.5 257.5t-222.5 97.5q-112 0 -186.5 -67t-87.5 -186h85q6 65 29 107t62.5 62t96.5 20q56 0 99 -18t72 -54t44.5 -90.5t15.5 -126.5v-345q-23 58 -64.5 100t-84 60.5 t-80.5 18.5q-139 0 -227 -129.5t-88 -345.5zM153 488q0 87 16 163t45.5 130.5t72 85.5t92.5 31q106 0 168.5 -107.5t62.5 -304.5v-2q0 -198 -64 -311t-168 -113q-47 0 -89 33.5t-72 90.5t-47 136t-17 168z" />
<glyph unicode="&#x10dc;" horiz-adv-x="768" d="M82 486q0 -225 83.5 -355.5t225.5 -130.5q88 0 159.5 63t111.5 173.5t40 248.5q0 141 -38.5 249.5t-109 168.5t-163.5 60q-66 0 -129.5 -55.5t-101.5 -165.5v444q0 104 43.5 169.5t107.5 65.5l319 -19v80h-312q-102 0 -169 -85t-67 -217v-694zM160 484q0 118 29.5 213 t80.5 148t113 53q72 0 124 -49.5t79 -141.5t27 -218v-12q0 -114 -27 -208.5t-78.5 -151.5t-116.5 -57q-100 0 -165.5 117t-65.5 307z" />
<glyph unicode="&#x10dd;" horiz-adv-x="1219" d="M66 490q0 -153 79.5 -292t212.5 -210v64q-59 48 -106 120.5t-73 154.5t-26 158q0 193 54.5 303t147.5 110q100 0 156.5 -87.5t63.5 -235.5l6 -212h57l6 212q6 148 63 235.5t160 87.5q95 0 147.5 -108t52.5 -302q0 -122 -57.5 -246.5t-150.5 -192.5v-62 q133 67 213.5 207.5t80.5 294.5q0 136 -37 244.5t-102.5 169t-146.5 60.5q-165 0 -257 -248q-96 248 -254 248q-35 0 -68 -12t-61.5 -34t-53.5 -53.5t-44.5 -72t-33.5 -87.5t-21.5 -101.5t-7.5 -112.5z" />
<glyph unicode="&#x10de;" horiz-adv-x="754" d="M66 374q0 -98 41 -184.5t112.5 -138t155.5 -51.5q91 0 162.5 57.5t111 159t39.5 227.5q0 84 -27.5 162t-86.5 140t-139 83q102 26 161 101t59 184q0 226 -221 264q-113 18 -175.5 42.5t-87.5 62.5h-91q2 -45 60 -75t147 -42q143 -18 212.5 -77.5t69.5 -172.5t-45 -183 t-128 -70h-72v-66h71q67 0 115 -49t70 -125.5t22 -170.5q0 -177 -64 -284.5t-163 -107.5q-60 0 -110 38.5t-79.5 109.5t-29.5 162v48h-90v-44z" />
<glyph unicode="&#x10df;" horiz-adv-x="818" d="M89 435q0 -90 23 -148t71 -87t122 -29q71 0 123 41t77 108.5t25 150.5q0 32 -9.5 63.5t-32.5 68t-40.5 61.5t-55 72t-55.5 71l333 121v-1009q0 -137 -60.5 -216t-164.5 -79q-90 0 -141.5 69t-51.5 188q0 93 10 119l-57 33q-8 -11 -16.5 -40t-14 -59.5t-5.5 -46.5 q0 -67 20 -126t55.5 -102.5t87.5 -68.5t112 -25q93 0 161 45t104 126.5t36 189.5v1057l-467 -150v-33q12 -14 38 -45.5t40 -48.5t34.5 -47.5t31 -54t18.5 -55.5t8 -63v-20q0 -123 -34 -182.5t-109 -59.5q-69 0 -99 48t-30 157q0 55 4 74t24 43l-59 44q-23 -28 -39.5 -71 t-16.5 -84z" />
<glyph unicode="&#x10e0;" horiz-adv-x="1236" d="M66 528q0 -183 81 -325.5t221 -199.5v62q-213 127 -213 462q0 175 52.5 273t140.5 98q110 0 170 -87t66 -255l6 -194h57l6 194q6 158 63.5 250t158.5 92q95 0 152.5 -100.5t57.5 -270.5q0 -340 -217 -462v-62q72 29 129 81t95 120.5t58 150.5t20 172q0 91 -23 172 t-63 139t-95 91.5t-116 33.5q-162 0 -255 -246q-46 125 -107 185.5t-143 60.5q-57 0 -117.5 -36t-96.5 -90q81 224 242 354.5t460 224.5l-17 55q-129 -42 -223 -81t-172 -85t-132 -98.5t-92 -117.5q-154 -264 -154 -561z" />
<glyph unicode="&#x10e1;" horiz-adv-x="766" d="M82 476q0 -134 37.5 -242t109 -171t164.5 -63q134 0 220.5 128.5t86.5 339.5q0 56 -11.5 103.5t-29 80t-39 60t-43.5 49.5t-39.5 42.5t-29 44.5t-11.5 51q0 9 1.5 17.5t5.5 19t6.5 16t8.5 18t7 15.5l-41 31q-62 -81 -62 -132q0 -27 10.5 -51t27 -44.5t36.5 -42 t40.5 -48.5t37 -58.5t27 -77.5t10.5 -100q0 -189 -59.5 -295.5t-159.5 -106.5q-69 0 -122.5 50.5t-84 143t-30.5 214.5v1015h-74v-1007z" />
<glyph unicode="&#x10e2;" horiz-adv-x="957" d="M66 242q0 -118 23 -224.5t63 -188t92.5 -141.5t113.5 -91.5t124 -31.5q60 0 119.5 31.5t111 91t92 140t63.5 186t23 220.5q0 123 -24.5 237.5t-70.5 209.5t-119 159.5t-163 81.5v303h-62v-302q-92 -18 -166.5 -81.5t-122 -157t-72.5 -207t-25 -235.5zM155 242v2 q0 116 17.5 219.5t53 189.5t93.5 147t133 85v-554h62v554q75 -25 132 -85.5t92 -146.5t52 -189t17 -221q0 -187 -36.5 -326t-110.5 -216.5t-178 -76.5q-105 0 -179 77.5t-110.5 215t-37.5 325.5z" />
<glyph unicode="&#x10e3;" horiz-adv-x="797" d="M51 904q105 -5 165.5 -72.5t65.5 -185.5l6 -220h62l6 220q0 252 146 252q76 0 113 -76.5t37 -216.5v-689q0 -135 -56 -213.5t-153 -78.5q-108 0 -163.5 79t-55.5 232q0 53 6.5 92.5t17 66t28.5 58.5l-61 35q-20 -39 -33 -69.5t-25.5 -86.5t-12.5 -115q0 -157 82.5 -254 t214.5 -97q84 0 149 46t99.5 127.5t34.5 185.5v680q0 171 -57 266t-168 95q-28 0 -51 -7.5t-41 -23.5t-31.5 -36t-25 -51.5t-20 -61.5t-18.5 -75q-13 127 -75.5 191t-183.5 64h-2v-61z" />
<glyph unicode="&#x10e4;" horiz-adv-x="1248" d="M66 497q0 -98 27.5 -183t72 -141.5t99.5 -88.5t111 -32q59 0 114.5 33t99 91t70 143.5t26.5 183.5q0 207 47 300.5t145 94.5q70 0 116 -29.5t72 -99.5t26 -181q0 -90 -21.5 -163.5t-61.5 -117.5t-92 -44h-42v-41h42q36 0 68.5 -21.5t55.5 -58t36.5 -86t13.5 -103.5v-33 q0 -151 -57 -223.5t-189 -72.5q-53 0 -98.5 26.5t-73 67.5t-43 86t-15.5 86h-85q0 -36 7 -71.5t21.5 -73t39.5 -69t59 -57t83.5 -40t108.5 -14.5q333 0 333 362v24q0 96 -61 176t-166 117q68 22 121 79t79.5 126.5t26.5 138.5q0 175 -84 275t-220 100q-27 0 -54.5 -9.5 t-54 -30.5t-48 -51.5t-38 -75t-23.5 -98.5q-49 136 -118 200.5t-163 64.5q-138 0 -225.5 -125t-87.5 -341zM154 497q0 186 64 293.5t160 107.5q55 0 95.5 -20t72 -65.5t48 -124t16.5 -190.5v-3q0 -104 -16.5 -178.5t-48.5 -118t-73.5 -63.5t-96.5 -20q-64 0 -113.5 43 t-78.5 130.5t-29 208.5z" />
<glyph unicode="&#x10e5;" horiz-adv-x="768" d="M66 -87q0 -150 87.5 -249t224.5 -99q135 0 222 99t87 261v1558h-71v-736q-67 216 -222 216q-87 0 -146.5 -37t-88.5 -105.5t-29 -164.5q0 -53 12 -97.5t35.5 -77.5t55 -57t71.5 -38v68q-42 30 -64 77t-22 125q0 85 17 137t55.5 78.5t102.5 26.5q100 0 158 -102t58 -288 v-594q0 -133 -66 -211.5t-164 -78.5q-47 0 -88 20.5t-71 58t-47 93.5t-17 123q0 60 10.5 113t27.5 80l-53 43q-15 -15 -31 -44t-30 -83.5t-14 -114.5z" />
<glyph unicode="&#x10e6;" horiz-adv-x="1220" d="M66 478q0 -200 92 -361t246 -233q-45 -8 -79.5 -23.5t-49.5 -27.5t-29.5 -27.5t-17.5 -16.5l32 -54q77 68 138.5 87t151.5 -1q39 -9 73.5 -26t61.5 -38t49 -46t37.5 -51t25.5 -50.5t14 -48.5h76q-19 107 -106.5 185.5t-237.5 116.5q-179 45 -285.5 208.5t-106.5 398.5 q0 124 24 221t71 152.5t108 55.5q68 0 116.5 -37t74.5 -105.5t30 -164.5l7 -229h57l5 228q4 100 29.5 168.5t71 104t109.5 35.5q51 0 91.5 -25.5t67 -71.5t41 -110.5t14.5 -142.5q0 -162 -42.5 -268.5t-131.5 -170.5v-56q260 160 260 491q0 184 -84 301t-219 117 q-146 0 -239 -259q-25 67 -49 113t-54.5 80t-67 50t-82.5 16q-134 0 -213.5 -132.5t-79.5 -352.5z" />
<glyph unicode="&#x10e7;" horiz-adv-x="755" d="M66 -90q0 -56 11.5 -104.5t31.5 -86t48 -67t62.5 -48.5t73 -29t80.5 -10q94 0 165 48t107.5 128t36.5 178v1004h-80v-486q0 -118 -66 -195.5t-153 -77.5q-97 0 -157.5 105.5t-60.5 281.5q0 195 159 386q-3 3 -9 7l-12 8t-11 8q-48 -42 -82 -80t-65 -87.5t-47 -109.5 t-16 -129q0 -208 82.5 -328t219.5 -120q59 0 121.5 48.5t96.5 110.5v-346q0 -136 -59.5 -215.5t-169.5 -79.5q-62 0 -117 44.5t-84.5 110.5t-29.5 131q0 47 9 71l-55 34q-30 -41 -30 -105z" />
<glyph unicode="&#x10e8;" horiz-adv-x="768" d="M66 1482l3 -61h17q80 0 127.5 -66.5t51.5 -175.5v-108h59v108q10 242 137 242q147 0 147 -309v-313l-18 -10q-12 44 -72 90t-139 46h-2q-70 0 -128.5 -33.5t-98 -94t-61.5 -146t-22 -186.5q0 -133 41.5 -239.5t113 -166t157.5 -59.5q148 0 228 126t80 359v627 q0 370 -223 370q-26 0 -46 -4t-41.5 -17t-37 -34.5t-28.5 -59.5t-20 -89q-13 63 -35 106t-51 63t-56 27.5t-62 7.5h-21zM153 465q0 112 27.5 203t79 143.5t117.5 52.5q101 0 165.5 -103t64.5 -276v-1q0 -218 -56.5 -321t-174.5 -103q-95 0 -159 109.5t-64 295.5z" />
<glyph unicode="&#x10e9;" horiz-adv-x="766" d="M82 0h78v486q0 164 67.5 265t168.5 101q63 0 113 -47.5t77 -126.5t27 -174q0 -291 -120 -515v-1q0 -2 5 -4t12 -4t15.5 -3.5t15.5 -1.5q14 0 16 5q143 225 143 523q0 98 -27.5 182.5t-81.5 145.5t-127 84v23q37 29 71 105t36 162q-3 118 -74.5 197.5t-192.5 79.5 q-104 0 -163 -83.5t-59 -228.5v-1170zM160 734v425q0 123 38.5 192.5t105.5 69.5q91 0 144.5 -67t53.5 -167v-7q0 -147 -97 -265q-93 -14 -157.5 -61.5t-87.5 -119.5z" />
<glyph unicode="&#x10ea;" horiz-adv-x="865" d="M66 178q0 -104 20.5 -199.5t56 -169.5t82 -129.5t100.5 -85t109 -29.5q70 0 137 36t117.5 96t81 144t30.5 175q0 34 -6 63.5t-14.5 51.5t-24.5 41t-29.5 32t-36 24.5t-38 18.5t-41.5 14t-40 10t-40 8q59 7 122 53t105.5 115t42.5 133t-34 115.5t-82 75.5q-56 27 -93 76.5 t-42 115.5h-84q2 -33 16 -63.5t35 -53t46 -34.5q31 -14 60 -40t50.5 -57t34.5 -66.5t13 -68.5q0 -120 -72 -198t-177 -78h-90v-54h97q104 0 173 -62t69 -174t-38 -201.5t-103.5 -138.5t-145.5 -49q-53 0 -103 35t-89.5 99t-63 163.5t-23.5 217.5v265q0 67 8.5 138t18 119 t30 116.5t29.5 95t32 89.5h-85q-42 -111 -81.5 -310t-39.5 -318v-157z" />
<glyph unicode="&#x10eb;" horiz-adv-x="768" d="M66 470q0 -209 85.5 -339.5t221.5 -130.5q87 0 158.5 60t113 170t41.5 249v1003h-78v-735q-32 109 -92 162.5t-139 53.5q-88 0 -159 -63t-111.5 -175.5t-40.5 -254.5zM150 468q0 197 60.5 314t158.5 117q109 0 174 -113t65 -311v-5q0 -186 -67.5 -298t-166.5 -112 t-161.5 113t-62.5 295z" />
<glyph unicode="&#x10ec;" horiz-adv-x="766" d="M82 487q0 -242 77.5 -364.5t214.5 -122.5q144 0 235 131.5t91 352.5q0 129 -37.5 230t-107.5 159t-163 58q-65 0 -136.5 -49t-95.5 -107v356q0 156 33.5 223t113.5 67q63 0 97 -62.5t40 -170.5v-116h62v117q1 50 12 90.5t31.5 73t55 50.5t79.5 18h14v62h-20 q-55 0 -91.5 -15.5t-60.5 -48t-42 -87.5q-76 150 -193 150q-111 0 -160 -89t-49 -262v-644zM154 480v5q0 177 63 280t175 103q101 0 161.5 -105.5t60.5 -278.5q0 -198 -67.5 -311t-174.5 -113q-97 0 -157.5 103t-60.5 317z" />
<glyph unicode="&#x10ed;" horiz-adv-x="742" d="M66 -84q0 -82 23 -148t64 -110.5t98.5 -68.5t125.5 -24q93 0 161 43.5t103 122.5t35 185q0 59 -23.5 117t-56.5 104.5t-66.5 91t-56.5 92t-24 92.5v91q38 33 53 60.5t15 77.5h155v53h-149q0 18 -2.5 32t-9.5 27l-10.5 19.5t-17 18.5t-17.5 15t-22 18v658h-65v-598l-74 15 q-85 -1 -141.5 -61.5t-56.5 -169.5q0 -110 55 -172.5t134 -63.5l80 24q2 -57 15 -103t33 -77t44 -59.5t47.5 -56.5t43 -60t31.5 -79t12 -106q0 -136 -61.5 -214t-161.5 -78q-101 0 -168 79t-67 218q0 66 30 149l-64 33q-4 -9 -9.5 -24t-14 -40.5t-14.5 -59t-6 -63.5z M190 651v31q6 92 41 131.5t95 39.5q64 -7 100.5 -49t42.5 -137q-13 -194 -148 -194q-56 0 -90.5 39t-40.5 139z" />
<glyph unicode="&#x10ee;" horiz-adv-x="768" d="M82 486q0 -227 83 -356.5t225 -129.5q145 0 228.5 129.5t83.5 354.5q0 216 -85.5 347.5t-228.5 131.5q-23 0 -48.5 -8t-53.5 -25.5t-52.5 -43.5t-45 -66.5t-32.5 -88.5v752h-74v-997zM156 481q0 187 66 302.5t170 115.5q103 0 161.5 -111t58.5 -301v-7q0 -197 -59 -308.5 t-163 -111.5q-99 0 -166.5 114t-67.5 307z" />
<glyph unicode="&#x10ef;" horiz-adv-x="756" d="M66 -85q0 -162 82.5 -256t224.5 -94q136 0 224.5 100t88.5 258q0 164 -121 265q-135 114 -135 275v170l260 -159v61q-41 24 -260 151v476h-78v-430l-269 131v-65q39 -18 133 -61.5t136 -62.5v-203q24 -190 123 -251q127 -79 127 -270q0 -141 -64.5 -233.5t-164.5 -92.5 t-160.5 83t-60.5 217q0 87 33 146l-55 49q-22 -25 -43 -89t-21 -115z" />
<glyph unicode="&#x10f0;" horiz-adv-x="762" d="M66 375q0 -165 87.5 -270t226.5 -105q138 0 223 85.5t85 232.5q0 39 -18.5 86.5t-58.5 92.5t-91 65q76 27 122 87.5t46 112.5q0 56 -45.5 112.5t-122.5 85.5q76 33 122 97t46 121q0 81 -40 125t-122 55q-95 15 -164 46t-86 78h-89q20 -94 194 -129h-1q224 -38 224 -177 q0 -86 -39.5 -134.5t-98.5 -48.5h-132v-52h125q61 0 103 -50.5t42 -128t-43 -128.5t-106 -51h-121v-50h124q64 0 104.5 -68.5t40.5 -168.5q0 -105 -62.5 -170.5t-163.5 -65.5q-99 0 -162 84t-63 226v48h-86v-43z" />
<glyph unicode="&#x10f1;" horiz-adv-x="821" d="M66 -2q13 -206 94.5 -316.5t226.5 -118.5q345 8 368 258l1 34q0 67 -46 130t-129 132q170 97 174 188q-4 131 -215 243q211 98 215 232v-2q0 28 -3.5 50.5t-7.5 39t-14.5 31t-18.5 23t-26.5 19.5t-30 17t-37.5 18.5t-42 20.5q80 45 129 106t51 136q-10 62 -107 108 q-109 50 -137 136h-81q17 -80 89 -100q138 -39 154 -137q0 -99 -43 -157t-106 -64h-72v-76h76q56 -9 98 -54t47 -117q-6 -85 -47.5 -137t-96.5 -61h-77v-68h76q58 -16 99 -68.5t46 -139.5q-7 -67 -49 -112t-98 -61h-74v-73h75q62 -8 104 -73.5t42 -177.5q-22 -184 -287 -185 q-202 0 -230 366q0 302 40 600h-1q12 106 12 183q0 168 -38 312h-80q37 -152 37 -310q0 -97 -16 -205q-41 -291 -44 -570z" />
<glyph unicode="&#x10f2;" horiz-adv-x="754" d="M66 474q1 -142 65.5 -273t174.5 -230q-61 -116 -206 -143v-89q156 71 279 214q131 -150 276 -214v89q-123 19 -201 149q233 199 234 498q-9 225 -88 352t-221 136q-289 -22 -313 -489zM156 477q0 420 223 420t223 -420q0 -374 -223 -472q-223 96 -223 472z" />
<glyph unicode="&#x10f3;" horiz-adv-x="754" d="M66 -90q3 -156 83 -250t221 -93q145 -1 228 95t90 262v23q-5 40 -11.5 72.5t-18 72t-26.5 71t-38 63.5t-51 55t-67.5 41t-86.5 26q274 198 297 615h-586v-246h84v181h416q-2 -74 -26 -166.5t-59.5 -172.5t-82 -134.5t-87.5 -54.5h-66v-50h65q108 0 182.5 -96.5 t75.5 -259.5v-42q0 -298 -224 -298q-223 0 -224 304l5 36q-8 1 -22 3.5t-28 4.5l-28 4z" />
<glyph unicode="&#x10f4;" horiz-adv-x="754" d="M66 1112q1 -56 29.5 -109.5t76 -95t115.5 -67t142 -25.5q62 0 169 53v-15q0 -157 -23.5 -271t-74 -179.5t-124.5 -65.5h-97v-69h94q112 0 170.5 -79.5t58.5 -209.5v-57q0 -298 -224 -298q-102 0 -157.5 58.5t-64.5 182.5h-88q9 -93 46 -159.5t104.5 -103.5t159.5 -37 q153 0 231.5 94.5t78.5 262.5v57q0 41 -8.5 80t-29.5 78.5t-52.5 71t-82 56t-114.5 35.5q48 13 88 38.5t68 57t50 74t35.5 84.5t23.5 93t14.5 94t7.5 93v176q-81 -70 -156.5 -103t-153.5 -33q-219 46 -228 242q7 217 198 289v66q-263 -92 -282 -359z" />
<glyph unicode="&#x10f5;" horiz-adv-x="837" d="M66 288q0 -289 309 -289q313 0 313 289v245h98v68h-98v281h98v68h-98v249q0 284 -309 284q-313 0 -313 -284q0 -99 36 -170.5t105 -109t166 -37.5h237v-281h-238q-155 -2 -230.5 -79t-75.5 -234zM156 295q0 238 216 238h238v-229q0 -120 -59 -182t-172 -62 q-223 0 -223 235zM156 1197q0 221 223 221q113 0 172 -55t59 -164v-249h-238q-216 0 -216 247z" />
<glyph unicode="&#x10f6;" horiz-adv-x="1290" d="M66 495q14 -368 294 -455v72q-189 81 -204 380q17 374 219 405q114 0 174.5 -102t60.5 -302v-595q0 -123 -52.5 -193t-144.5 -82v-57q275 17 275 334v299q108 -180 225 -199q291 26 311 493q-20 448 -315 470q-172 0 -271 -221q-86 221 -257 221q-298 -23 -315 -468z M688 496q20 369 222 406q204 -28 223 -405v-6q-19 -409 -223 -431q-213 66 -222 436z" />
<glyph unicode="&#x10f7;" horiz-adv-x="883" d="M66 -52q11 -111 57 -196t129 -136t192 -51q159 0 260 107t113 276q-3 127 -37 216l-16 -12t-19 -14.5t-24 -17.5q27 -65 27 -163v-18q-3 -138 -88.5 -226.5t-218.5 -88.5q-124 0 -199.5 87.5t-89.5 234.5q10 335 292 431h1q238 83 246 307q-25 263 -250 299 q-223 -4 -253 -268v-2q7 2 29.5 7.5t41.5 9.5v2q38 186 185 186q144 0 165 -231q-12 -206 -299 -315q-122 -46 -182 -151t-62 -273z" />
<glyph unicode="&#x10f8;" horiz-adv-x="755" d="M74 -81v1004h79v-486q0 -59 21 -110.5t54.5 -86.5t75.5 -55.5t84 -20.5q47 0 87.5 27.5t69 77t45 122.5t16.5 160q0 232 -129 386q3 2 14.5 10t18.5 13q90 -79 134.5 -174t44.5 -232q0 -208 -82.5 -328t-219.5 -120q-60 0 -130.5 49t-103.5 110v-346q0 -137 59.5 -216 t169.5 -79q63 0 117.5 44.5t84 110.5t29.5 131q0 47 -8 71l55 34q29 -41 29 -105q0 -83 -24 -149.5t-66.5 -108.5t-98 -64.5t-118.5 -22.5q-94 0 -165 48t-107 128t-36 178z" />
<glyph unicode="&#x10f9;" horiz-adv-x="829" d="M66 539q0 -158 85.5 -269t230.5 -153q-88 -66 -137.5 -151.5t-49.5 -158.5v-25q0 -41 17 -79.5t48.5 -69t79.5 -49.5t105 -19q118 0 187 58t69 157q0 47 -17 100.5t-44 85.5l-41 -58q14 -15 21 -35.5t8 -34.5t1 -38q0 -94 -48 -132t-137 -38q-79 0 -126.5 45.5 t-47.5 125.5q0 66 20.5 127t55 107.5t79.5 80.5q157 32 247.5 147.5t90.5 281.5q0 190 -93.5 304t-255.5 114q-151 0 -249.5 -116.5t-98.5 -307.5zM144 538v1q0 83 21 152.5t57.5 116t86 71.5t105.5 25q118 0 191 -98t73 -266q0 -166 -70.5 -262.5t-197.5 -116.5 q-128 20 -197 116t-69 261z" />
<glyph unicode="&#x10fa;" horiz-adv-x="749" d="M66 568q0 -62 9.5 -120.5t30 -116t51 -107.5t76 -93.5t101.5 -75.5q-92 4 -134.5 -10.5t-74.5 -63.5l41 -36q49 89 152 89q38 0 77 -16t67 -38t50 -48l32 33q-59 60 -200 138q-95 52 -136.5 162.5t-47.5 304.5q0 158 61 242.5t162 84.5q70 0 118.5 -35t73 -101.5 t24.5 -163.5q0 -57 -3.5 -82.5t-14.5 -62.5l74 -35q0 1 3.5 13t5 16.5t4.5 17.5t4.5 21.5t4 23t4 26.5t2.5 28t1 32q0 94 -25 166t-67.5 115.5t-95 65t-113.5 21.5q-73 0 -134 -34t-100.5 -90t-61 -126t-21.5 -145z" />
<glyph unicode="&#x10fb;" horiz-adv-x="718" d="M59 0h175v165h-175v-165zM59 777h175v167h-175v-167zM482 396h177v165h-177v-165z" />
<glyph unicode="&#x10fc;" horiz-adv-x="480" d="M19 987q0 -272 199 -272q191 0 202 272q-6 75 -30 130.5t-66.5 89t-99.5 39.5l-117 -84v159q0 77 66 77l246 -2v79h-224q-176 0 -176 -173v-315zM107 981q4 161 107 177q112 -5 118 -171q0 -197 -114 -197q-111 0 -111 191z" />
<glyph unicode="&#x2000;" horiz-adv-x="922" />
<glyph unicode="&#x2001;" horiz-adv-x="1844" />
<glyph unicode="&#x2002;" horiz-adv-x="922" />
<glyph unicode="&#x2003;" horiz-adv-x="1844" />
<glyph unicode="&#x2004;" horiz-adv-x="614" />
<glyph unicode="&#x2005;" horiz-adv-x="461" />
<glyph unicode="&#x2006;" horiz-adv-x="307" />
<glyph unicode="&#x2007;" horiz-adv-x="307" />
<glyph unicode="&#x2008;" horiz-adv-x="230" />
<glyph unicode="&#x2009;" horiz-adv-x="368" />
<glyph unicode="&#x200a;" horiz-adv-x="102" />
<glyph unicode="&#x2010;" horiz-adv-x="709" d="M128 493h454v68h-454v-68z" />
<glyph unicode="&#x2011;" horiz-adv-x="709" d="M128 493h454v68h-454v-68z" />
<glyph unicode="&#x2012;" horiz-adv-x="709" d="M128 493h454v68h-454v-68z" />
<glyph unicode="&#x2013;" d="M9 490h965v84h-965v-84z" />
<glyph unicode="&#x2014;" horiz-adv-x="1966" d="M-12 490h1991v84h-1991v-84z" />
<glyph unicode="&#x2018;" horiz-adv-x="624" d="M191 1003h152v146l74 287h-72q-28 -54 -79.5 -153.5t-74.5 -143.5v-136z" />
<glyph unicode="&#x2019;" horiz-adv-x="624" d="M203 1024h72q22 45 74 144.5t79 153.5v114h-152v-126z" />
<glyph unicode="&#x201a;" horiz-adv-x="624" d="M199 -238h72q21 43 73.5 143t79.5 155v134h-151v-145z" />
<glyph unicode="&#x201c;" horiz-adv-x="1018" d="M182 1003h152v146l74 287h-72q-27 -54 -79 -153.5t-75 -143.5v-136zM593 1003h152v146l74 287h-72q-28 -54 -79.5 -153.5t-74.5 -143.5v-136z" />
<glyph unicode="&#x201d;" horiz-adv-x="1018" d="M190 1003h72q104 201 154 299v134h-152v-146zM601 1003h72q22 43 74 143.5t80 155.5v134h-152v-146z" />
<glyph unicode="&#x201e;" horiz-adv-x="1018" d="M190 -238h72q104 200 154 298v134h-152v-145zM601 -238h72q22 43 74 143t80 155v134h-152v-145z" />
<glyph unicode="&#x2020;" d="M65 922h368v-1120h117v1120h368v93h-368v421h-117v-421h-368v-93z" />
<glyph unicode="&#x2021;" d="M65 224h368v-422h117v422h368v94h-368v604h368v93h-368v421h-117v-421h-368v-93h368v-604h-368v-94z" />
<glyph unicode="&#x2022;" horiz-adv-x="1159" d="M312 733q0 -113 78 -190q76 -77 190 -77t190 77q78 77 78 190q0 112 -78 189t-188 77q-113 0 -192 -77q-78 -77 -78 -189z" />
<glyph unicode="&#x2026;" horiz-adv-x="1966" d="M224 0h153v194h-153v-194zM907 0h152v194h-152v-194zM1589 0h153v194h-153v-194z" />
<glyph unicode="&#x202f;" horiz-adv-x="368" />
<glyph unicode="&#x2030;" horiz-adv-x="2638" d="M85 1086q0 -177 86 -280q81 -98 229.5 -98t229.5 98q87 104 87 280q0 173 -87 276q-88 101 -230 101q-144 0 -228 -100q-87 -99 -87 -277zM185 1086q0 145 57.5 227.5t158 82.5t158 -83.5t57.5 -226.5q0 -146 -57 -228t-158.5 -82t-158.5 82t-57 228zM422 -29h91 q510 846 899 1492h-90zM1117 347.5q0 -177.5 87 -278.5q81 -98 230 -98q147 0 228 98q87 103 87 279q0 175 -86 278q-84 100 -229 100q-144 0 -230 -101v1q-87 -101 -87 -278.5zM1218 348q0 97 26 167t74.5 107t115.5 37q99 0 156.5 -83t57.5 -228q0 -96 -26 -165.5 t-74 -107t-114 -37.5q-101 0 -158.5 82.5t-57.5 227.5zM1922 347.5q0 -175.5 86 -278.5q81 -98 231 -98q146 0 227 98q88 102 88 279t-87 278q-84 100 -228 100q-143 0 -231 -101v1q-86 -103 -86 -278.5zM2022 348q0 146 57.5 228.5t159.5 82.5q65 0 113.5 -37t74.5 -107.5 t26 -166.5q0 -58 -9.5 -106.5t-28 -86t-44.5 -63.5t-59.5 -40t-72.5 -14q-102 0 -159.5 82.5t-57.5 227.5z" />
<glyph unicode="&#x2039;" horiz-adv-x="786" d="M152 537l450 -402v184l-289 257l289 257v184l-450 -402v-78z" />
<glyph unicode="&#x203a;" horiz-adv-x="786" d="M185 135l451 402v78l-451 402v-184l289 -257l-289 -257v-184z" />
<glyph unicode="&#x205f;" horiz-adv-x="461" />
<glyph unicode="&#x20ac;" horiz-adv-x="1250" d="M20 521h193q22 -138 69 -241t120 -172q145 -137 372 -137q174 0 341 128v121q-68 -66 -133 -101v1q-92 -49 -201 -49q-168 0 -278.5 117t-148.5 333h392q5 11 9 19.5t8.5 18.5t11.5 25h-428q-6 64 -6 132q0 71 6 136h547q10 23 28 63h-568q38 216 148 331.5t279 115.5 q112 0 201 -49v1q67 -35 133 -100v122q-161 127 -341 127q-226 0 -371 -137q-147 -138 -190 -411h-164q-4 -8 -7.5 -15.5t-5.5 -12.5t-6.5 -14t-9.5 -21h180v-72q0 -8 -0.5 -29t-0.5 -35q0 -12 0.5 -31.5t0.5 -26.5v-74h-151q-5 -12 -13 -28t-16 -35z" />
<glyph unicode="&#x2122;" horiz-adv-x="1966" d="M286 1402h201v-485h54v485h204v34h-459v-34zM918 917h54v519h-54v-519zM972 1436h24l-24 36v-36zM996 1436l227 -338h22q32 51 111.5 174.5t105.5 163.5h-47q-21 -33 -86.5 -135t-92.5 -146l-192 281h-48zM1462 1436h24v37q-7 -12 -24 -37zM1486 917h53v519h-53v-519z " />
<glyph unicode="&#x2202;" horiz-adv-x="1016" d="M100 340q0 -156 97 -260q98 -104 244 -104q204 0 342 212q140 211 140 534q0 252 -103 401t-276 149q-97 0 -166 -47q-69 -48 -69 -107q0 -29 23.5 -50.5t57.5 -21.5q35 0 103.5 56t121.5 56q140 0 140 -250q0 -145 -29 -312q-37 93 -99.5 137t-158.5 44 q-156 0 -263 -124q-105 -123 -105 -313zM279 259q0 200 68 323q67 124 172 124q76 0 118 -60.5t42 -171.5q0 -193 -68 -319q-68 -125 -172 -125q-77 0 -118.5 59t-41.5 170z" />
<glyph unicode="&#x2206;" horiz-adv-x="1315" d="M-6 0h1327l-556 1414h-215zM255 171l402 1041l401 -1041h-803z" />
<glyph unicode="&#x220f;" horiz-adv-x="1488" d="M150 -377h229v1594h728v-1594h230v1791h-1187v-1791z" />
<glyph unicode="&#x2211;" horiz-adv-x="1324" d="M24 -234v-143h1261v184h-966l666 733l-645 689h920v185h-1207v-170l667 -709z" />
<glyph unicode="&#x2212;" horiz-adv-x="1647" d="M208 535h1231v163h-1231v-163z" />
<glyph unicode="&#x2215;" horiz-adv-x="328" d="M-360 -28h154l894 1487h-153z" />
<glyph unicode="&#x2219;" horiz-adv-x="624" d="M210 561h203v243h-203v-243z" />
<glyph unicode="&#x221a;" horiz-adv-x="1252" d="M59 842l24 -77l120 43l306 -847h63l570 1541h111v93h-182l-495 -1340l-246 681z" />
<glyph unicode="&#x221e;" horiz-adv-x="1637" d="M212 586q0 -159 89 -267q90 -107 220 -107q91 0 166.5 61.5t141.5 190.5q76 -133 147 -191q73 -57 163 -57q128 0 208 103q81 102 81 270q0 161 -91 268q-91 109 -219 109q-93 0 -168.5 -63t-141.5 -195q-34 66 -69 113.5t-73 79t-78.5 46t-86.5 14.5q-129 0 -209 -104 t-80 -271zM285 580q0 102 61 165q62 63 159 63q162 0 256 -169q-72 -157 -134 -219q-65 -66 -143 -66q-86 0 -142 65q-57 65 -57 161zM878 537q70 153 135 219t143 66q86 0 142 -65q57 -65 57 -161q0 -102 -61.5 -166t-158.5 -64q-162 0 -257 171z" />
<glyph unicode="&#x222b;" horiz-adv-x="1024" d="M45 -214q0 -63 48 -102q49 -40 125 -40q188 0 278 199q92 201 108 658q2 51 8 291q12 594 116 594q15 0 19 -34q4 -33 10 -49q24 -70 106 -70q35 0 60.5 13.5t39.5 39t14 59.5q0 62 -48 103q-47 40 -125 40q-194 0 -285 -213q-91 -214 -102 -708q-2 -54 -3 -158 q-13 -661 -115 -661q-19 0 -23 41q-5 39 -15 56q-29 55 -92 55q-58 0 -91 -30t-33 -84z" />
<glyph unicode="&#x2248;" horiz-adv-x="1647" d="M208 261q94 80 176.5 117t167.5 37q92 0 239 -59q18 -7 20 -8q10 -3 17 -6q140 -57 245 -57q93 0 179 33t187 108v172q-66 -54 -123.5 -88t-111 -50t-109.5 -16q-92 0 -239 59q-17 7 -20 8q-1 0 -2.5 1t-3.5 1.5t-4.5 2t-4.5 1.5q-143 57 -247 57q-93 0 -179 -33 t-187 -108v-172zM208 636q94 79 176.5 115.5t167.5 36.5q92 0 239 -58q18 -7 20 -8q10 -4 17 -7q140 -56 245 -56q93 0 179 33t187 109v171q-98 -82 -179.5 -118t-164.5 -36q-92 0 -239 58q-5 3 -12 5.5t-9 3.5q-4 2 -14 6q-143 57 -247 57q-93 0 -179 -33.5t-187 -108.5 v-170z" />
<glyph unicode="&#x2260;" horiz-adv-x="1647" d="M208 338h287l-167 -203l120 -98l248 301h743v163h-610l188 231h422v161h-291l167 204l-120 98l-246 -302h-741v-161h608l-187 -231h-421v-163z" />
<glyph unicode="&#x2264;" horiz-adv-x="1647" d="M208 0h1231v163h-1231v-163zM208 629l1231 -353v170l-922 263l922 266v169l-1231 -352v-163z" />
<glyph unicode="&#x2265;" horiz-adv-x="1647" d="M208 0h1231v163h-1231v-163zM208 276l1231 353v163l-1231 352v-169l923 -266l-923 -263v-170z" />
<glyph unicode="&#x25ca;" horiz-adv-x="971" d="M6 568l480 -1026l480 1026l-480 1019zM116 568l370 785l369 -785l-369 -792z" />
<glyph unicode="&#x25fc;" horiz-adv-x="1056" d="M0 0v1056h1056v-1056h-1056z" />
<glyph unicode="&#xfb01;" horiz-adv-x="1238" d="M45 938h169v-938h178v938h484v-938h178v1075h-662v95q0 99 36 138q37 39 133 39h169v147h-178q-172 0 -255 -84t-83 -260v-75h-169v-137zM876 1268h178v224h-178v-224z" />
<glyph unicode="&#xfb02;" horiz-adv-x="1238" d="M45 938h169v-938h178v938h291v137h-291v95q0 99 36 138q37 39 133 39h315v-1347h178v1494h-491q-182 0 -265.5 -82.5t-83.5 -261.5v-75h-169v-137z" />
<glyph horiz-adv-x="0" />
<glyph horiz-adv-x="624" />
<glyph d="M206 1242h195v195h-195v-195zM582 1242h195v195h-195v-195z" />
<glyph d="M356 1212h147l219 253h-178z" />
<glyph d="M175 1242h120v6q0 43 19 67t54 24q23 0 65 -24l55 -31q52 -27 77 -34q31 -8 62 -8q80 0 129.5 57.5t51.5 152.5h-120v-5q0 -26 -8.5 -46.5t-24 -31.5t-36.5 -11q-25 0 -69 24l-55 29q-44 25 -73 33t-66 8q-55 0 -96 -25t-63 -73t-22 -112z" />
<glyph d="M257 1465l221 -253h147l-188 253h-180z" />
<glyph d="M199 1212h133l160 170l159 -170h133l-202 255h-181z" />
<glyph d="M199 1467l202 -255h181l202 255h-133l-159 -171l-160 171h-133z" />
<glyph horiz-adv-x="788" d="M76 855h415v-186h84v186h135v49h-135v542h-84v-542h-400l400 542h-37l-378 -509v-82z" />
<glyph d="M191 1467q9 -115 85.5 -173.5t215.5 -58.5q137 0 214 59t86 173h-113q-30 -107 -187 -107q-80 0 -127.5 27.5t-60.5 79.5h-113z" />
<glyph d="M394 1242h195v197h-195v-197z" />
</font>
</defs>
</svg>
