<?xml version="1.0" standalone="no"?>
<!DOCTYPE svg PUBLIC "-//W3C//DTD SVG 1.1//EN" "http://www.w3.org/Graphics/SVG/1.1/DTD/svg11.dtd" >
<svg xmlns="http://www.w3.org/2000/svg" xmlns:xlink="http://www.w3.org/1999/xlink" version="1.1">
<metadata></metadata>
<defs>
<font id="bpg_nino_medium_condencedregular" horiz-adv-x="933" >
<font-face units-per-em="2048" ascent="1638" descent="-410" />
<missing-glyph horiz-adv-x="453" />
<glyph unicode="&#xd;" horiz-adv-x="713" />
<glyph unicode=" "  horiz-adv-x="453" />
<glyph unicode="&#x09;" horiz-adv-x="453" />
<glyph unicode="&#xa0;" horiz-adv-x="453" />
<glyph unicode="!" horiz-adv-x="618" d="M236 1204v412h185v-414l-59 -802h-65zM243 4v162h169v-162h-169z" />
<glyph unicode="&#x22;" horiz-adv-x="683" d="M118 1451v193h141v-191q-40 -229 -40 -241h-56zM460 1453v191h141v-193l-48 -239h-46z" />
<glyph unicode="#" horiz-adv-x="2004" d="M63 262h100q5 -56 48.5 -95t85.5 -39q63 0 100 36t37 107v1178h-223v111h337l656 -1312v1118q0 104 72 182.5t165 78.5q94 0 171.5 -72.5t85.5 -174.5h-114q-5 49 -49 93.5t-94 44.5q-55 0 -92 -47t-37 -105v-1359h-112l-659 1323v-1059q0 -66 -29.5 -126.5t-84.5 -99 t-121 -38.5q-96 0 -165 76t-78 179zM1451 750q0 71 28.5 132.5t88 101t137.5 39.5q63 0 114.5 -23.5t84 -62.5t50 -88t17.5 -101q0 -120 -70.5 -198.5t-195.5 -78.5q-116 0 -185 80.5t-69 198.5zM1469 80v109h481v-109h-481zM1551 753q0 -71 43 -119t111 -48q79 0 121 44.5 t42 119.5q0 43 -19.5 79.5t-57.5 59t-86 22.5q-66 0 -110 -48t-44 -110z" />
<glyph unicode="$" horiz-adv-x="1108" d="M95 859q0 17 4.5 36t21.5 50t44 59.5t78 60.5t119 56q-87 70 -123.5 128.5t-36.5 114.5q0 55 25.5 106t70.5 89.5t111.5 61.5t143.5 23q174 0 272.5 -71t131.5 -211q-23 -5 -43 -6.5t-40.5 -3.5t-43.5 -7q-26 116 -89.5 162t-172.5 46q-103 0 -178.5 -51.5t-75.5 -123.5 q0 -49 30.5 -91.5t114.5 -99t241 -137.5q79 -44 129.5 -75.5t97 -67.5t71.5 -69t39.5 -72t14.5 -84.5t-19 -91.5t-48 -76h2q-41 -41 -202 -107q102 -69 147.5 -134t45.5 -139q0 -38 -12 -74t-35 -68.5t-57 -59.5t-75.5 -47t-94 -31t-110.5 -11q-175 0 -283 77.5t-142 222.5 l124 18q28 -119 101.5 -170.5t199.5 -51.5q114 0 189.5 57t75.5 138q0 29 -12 54.5t-37 52t-77 63t-117.5 76.5t-172.5 102q-89 45 -150 85t-107.5 85.5t-68.5 96.5t-22 110zM202 875q0 -93 94 -164.5t439 -259.5l24 -4q91 39 138 93.5t47 105.5q0 36 -14.5 67t-50.5 67 t-96 75.5t-154 92.5q-22 14 -61 37t-62 37.5t-53 34.5t-53 39q-109 -60 -153.5 -110.5t-44.5 -110.5z" />
<glyph unicode="%" horiz-adv-x="1833" d="M104 1237q0 82 22 154t63.5 126.5t107.5 86t148 31.5q78 0 143.5 -26.5t114 -77t75.5 -129t27 -177.5q0 -98 -28 -176.5t-76.5 -129t-112 -77t-135.5 -26.5q-50 0 -95 11.5t-84 34t-70 57.5t-53.5 81t-34.5 106t-12 131zM219 1214q0 -163 64 -239.5t174.5 -76.5t173.5 81 t63 255q0 86 -18 149t-50.5 98.5t-74 52.5t-94.5 17q-42 0 -76 -9t-65.5 -32t-52 -60t-32.5 -96.5t-12 -139.5zM405 -54q56 88 291 501.5t444.5 787t223.5 400.5h93q-29 -66 -477 -837q-91 -171 -213 -384t-191.5 -333.5t-72.5 -134.5h-98zM1054 364q0 81 22.5 152.5 t64.5 126.5t108.5 86.5t149.5 31.5q75 0 140 -27.5t113.5 -79t76.5 -130t28 -174.5q0 -97 -28.5 -174.5t-77.5 -127.5t-113 -76t-137 -26q-77 0 -139.5 24.5t-109.5 74.5t-72.5 131t-25.5 188zM1164 343q0 -86 19 -149.5t53 -100t75.5 -54t91.5 -17.5q109 0 175 83t66 257 q0 83 -18.5 145.5t-51.5 99.5t-75.5 54.5t-93.5 17.5q-56 0 -99 -17t-75.5 -55t-49.5 -104.5t-17 -159.5z" />
<glyph unicode="&#x26;" horiz-adv-x="1566" d="M118 447q0 281 450 483q-27 38 -59 75.5t-54 61t-44 51.5t-35.5 52.5t-22 58.5t-8.5 74q0 93 56 171.5t151 124t207 45.5q67 0 127.5 -17.5t107 -48t80.5 -71t53 -88.5t21 -98q0 -208 -387 -405q28 -38 220.5 -244t205.5 -221q64 115 118 280l127 -33q-53 -189 -152 -336 q13 -15 43.5 -50.5t44 -50.5t39.5 -43.5t44.5 -45.5t43.5 -39.5t51 -41.5l-95 -100q-34 20 -76 58t-109 109t-86 90l-18 -39q-226 -220 -500 -220q-117 0 -219 36.5t-173 98t-111.5 146t-40.5 177.5zM256 455q2 -47 21 -97.5t55 -98t83.5 -86t111.5 -61.5t135 -23 q116 0 238.5 60t218.5 178l-481 525l-6 -3q-75 -43 -110 -63.5t-89 -56t-78 -60.5t-51.5 -60t-37.5 -72.5t-10 -81.5zM477 1321q0 -106 228 -348q90 50 153 96t97.5 88.5t49 80.5t14.5 78q0 95 -80.5 169.5t-185.5 74.5q-65 0 -128 -31t-105.5 -87.5t-42.5 -120.5z" />
<glyph unicode="'" horiz-adv-x="367" d="M121 1446v198h141v-201l-43 -233h-56z" />
<glyph unicode="(" horiz-adv-x="818" d="M186 527q0 254 100 542q50 123 146.5 281.5t199.5 288.5h77q-105 -158 -177 -305q-193 -396 -193 -807q0 -272 92.5 -546t280.5 -563h-80q-202 259 -311 509q-135 312 -135 600z" />
<glyph unicode=")" horiz-adv-x="818" d="M206 -577q192 284 284 558t92 551q0 69 -13.5 177.5t-26.5 182t-19 99.5q-8 31 -25.5 80.5t-32.5 87.5t-38.5 97t-31.5 78q-43 98 -184 310h78q103 -136 198 -291t149 -280q95 -267 95 -541q0 -316 -126 -602q-7 -12 -20 -37q-62 -112 -96.5 -172.5t-91 -147.5 t-108.5 -150h-83z" />
<glyph unicode="*" horiz-adv-x="1158" d="M139 1280l47 139l393 -171l-41 396h126l-52 -396l401 171l56 -139l-453 -73l319 -289l-112 -70l-227 336l-219 -340l-104 70l295 296z" />
<glyph unicode="+" horiz-adv-x="1124" d="M130 501v106h408v373h108v-373h408v-106h-408v-373h-108v373h-408z" />
<glyph unicode="," horiz-adv-x="477" d="M145 -278q133 75 133 282h-115v194h194v-198q0 -133 -40 -204t-151 -110z" />
<glyph unicode="-" horiz-adv-x="818" d="M50 441v82h759v-82h-759z" />
<glyph unicode="." horiz-adv-x="636" d="M239 4v219h218v-219h-218z" />
<glyph unicode="/" horiz-adv-x="649" d="M32 -11l521 1655h93l-514 -1655h-100z" />
<glyph unicode="0" horiz-adv-x="1100" d="M52 779q0 80 5 151t19 152.5t37 148.5t61.5 130.5t89.5 107t124 69.5t162.5 26t163 -26t124.5 -69.5t89.5 -107t61.5 -130.5t37 -148.5t19 -153t5 -150.5q0 -77 -5 -147.5t-19 -151t-37 -147.5t-61.5 -130.5t-89.5 -107t-124.5 -69.5t-163 -26t-163 26t-124 69.5t-89 107 t-61.5 130t-37 147.5t-19 151t-5 148zM189 779q0 -58 2.5 -110.5t11.5 -123t23.5 -128t42.5 -117t64.5 -100t92.5 -66t125 -25.5q68 0 123.5 25.5t92 66t64 99.5t42.5 117t24 128.5t11.5 123t2.5 110.5q0 61 -2.5 115t-11.5 125t-24 129t-42.5 117t-64 99.5t-92 65.5 t-123.5 25q-362 0 -362 -676z" />
<glyph unicode="1" horiz-adv-x="1100" d="M173 1204l439 328h132v-1506h-135v1349l-347 -275z" />
<glyph unicode="2" horiz-adv-x="1100" d="M61 26v115l540 557q63 70 106.5 124t81.5 113t56.5 115.5t18.5 111.5q0 65 -23 117.5t-57 84.5t-78 53.5t-83 29.5t-75 8q-42 0 -83 -9.5t-80.5 -32t-71 -55.5t-53.5 -83.5t-28 -112.5l-150 11q7 35 14.5 62.5t24.5 70.5t38.5 75.5t58.5 68.5t82.5 59.5t111.5 39 t145 15.5q102 0 186 -31.5t140 -86.5t86.5 -128t30.5 -156q0 -77 -26.5 -150.5t-99.5 -175.5t-201 -233l-445 -460q99 5 177 5h606v-122h-950z" />
<glyph unicode="3" horiz-adv-x="1100" d="M50 380l145 34q14 -133 102.5 -219t225.5 -86q80 0 143 18t102.5 47.5t65.5 70.5t36 84.5t10 93.5q0 73 -21 133.5t-63.5 107t-113 72t-164.5 25.5q-18 0 -102 -6v123h79q51 0 98 8.5t87.5 25.5t73.5 42.5t56.5 57.5t36 73t12.5 88q0 94 -35.5 157.5t-101 94t-158.5 30.5 q-69 0 -125.5 -17t-92.5 -41t-66 -61t-45.5 -66t-30.5 -66l-131 50q112 310 489 310q72 0 133.5 -13.5t105.5 -36t78.5 -53.5t56 -65.5t35.5 -73t19.5 -74t5.5 -70.5q0 -37 -6 -70.5t-15.5 -60t-25 -51.5t-30 -43t-36.5 -36t-38.5 -29.5t-41 -24.5t-39.5 -20.5t-39 -17.5v-2 q67 -12 118.5 -39.5t84 -63.5t53.5 -82.5t29.5 -94t8.5 -100.5q0 -99 -29 -177t-76 -127t-111.5 -81t-131.5 -45t-142 -13q-87 0 -159 20t-123 54t-91 83.5t-64.5 103t-41.5 119.5z" />
<glyph unicode="4" horiz-adv-x="1100" d="M57 330v145l561 1057h207v-1091h218v-111h-218v-304h-129v304h-639zM148 441h548v878q0 20 1 56t1 57z" />
<glyph unicode="5" horiz-adv-x="1100" d="M93 354l135 41q5 -28 17 -60.5t37 -74t58.5 -74t86.5 -55t116 -22.5q42 0 84.5 12t86.5 41.5t77.5 73t55 112t21.5 153.5q0 79 -22 143.5t-57.5 106t-83 70t-95.5 40t-98 11.5q-79 0 -167 -28.5t-163 -93.5l20 782h696v-109h-577l-11 -493q71 32 134.5 44.5t101.5 12.5 q93 0 177.5 -37t147 -101t99.5 -156.5t37 -197.5q0 -113 -37.5 -207.5t-102.5 -157t-152.5 -96.5t-187.5 -34q-160 0 -272 89.5t-162 264.5z" />
<glyph unicode="6" horiz-adv-x="1100" d="M65 491q0 74 18.5 150t47.5 145t79 151.5t101 154t125 168.5l210 272h170l-130 -154q-10 -13 -44.5 -56t-48 -60t-44.5 -57.5t-47 -61.5t-42.5 -56.5t-42.5 -59.5t-35.5 -53t-33.5 -54t-25 -48l4 -4q32 17 51 26t52 21.5t70.5 18t81.5 5.5q97 0 182 -36.5t144 -98.5 t93 -146.5t34 -177.5q0 -100 -32.5 -187t-92.5 -152.5t-153.5 -103t-208.5 -37.5q-95 0 -175 25.5t-136.5 71t-95.5 107.5t-57.5 134t-18.5 153zM204 518q0 -68 11.5 -127.5t37.5 -112t65 -89.5t98 -58.5t132 -21.5q105 0 185 48t121.5 129t41.5 182q0 72 -19.5 131.5 t-52 100.5t-75.5 69.5t-89.5 42t-95.5 13.5q-87 0 -173 -28.5t-129 -61.5q-58 -86 -58 -217z" />
<glyph unicode="7" horiz-adv-x="1100" d="M63 1423v109h933v-109l-655 -1397h-155l673 1397h-796z" />
<glyph unicode="8" horiz-adv-x="1100" d="M84 400q0 40 7.5 78t18.5 68t30.5 60t37 51.5t45.5 45.5t47.5 39t52.5 35t51 30t51 28q-29 14 -57.5 31.5t-64 43t-65 56.5t-54.5 67t-39.5 81t-14.5 93q0 176 108 266.5t313 90.5q78 0 142.5 -15t109.5 -41.5t78 -60.5t52 -75t28 -82t9 -83q0 -57 -21.5 -110t-52.5 -92 t-73.5 -74.5t-77 -57t-70.5 -38.5q42 -23 67 -37t65.5 -40.5t65.5 -49t55 -57.5t47 -70.5t29 -82t12 -98.5q0 -57 -15.5 -111.5t-51 -107t-87.5 -92.5t-132.5 -64.5t-179 -24.5t-179 24.5t-133 64.5t-88 92.5t-51 107t-15.5 111.5zM223 395q0 -53 20.5 -103t60 -91.5 t103.5 -66.5t143.5 -25t144 25t103.5 66.5t59.5 91.5t20.5 103q0 44 -6 78t-27.5 67t-39.5 54.5t-65 54.5t-79.5 54t-107.5 66q-1 1 -2 1q-53 -31 -83.5 -49.5t-68 -43t-58 -41.5t-43.5 -40t-34.5 -42.5t-22 -45t-14.5 -53t-4 -60.5zM269 1214q0 -44 16 -84t41 -70.5t64 -61 t75.5 -52t85.5 -46.5q39 20 70 37.5t65.5 41t59.5 48.5t46 53.5t32 62.5t11 71t-11.5 72t-35 65.5t-56.5 53.5t-79.5 36.5t-101.5 13.5q-69 0 -124 -20.5t-89 -54.5t-51.5 -76.5t-17.5 -89.5z" />
<glyph unicode="9" horiz-adv-x="1100" d="M65 1084q0 101 32.5 188t93 152t154 102.5t208.5 37.5q96 0 175.5 -25.5t135.5 -70t95 -106t57.5 -133.5t18.5 -151q0 -76 -18 -153t-47 -146t-79 -151.5t-101 -154t-126 -169.5l-213 -278h-171l134 163q279 339 363 503l-4 4q-38 -19 -52.5 -25.5t-50 -19t-71.5 -17.5 t-81 -5q-131 0 -235.5 61.5t-161 165t-56.5 228.5zM204 1096q0 -86 29.5 -156t77.5 -112.5t106 -65.5t119 -23q84 0 170.5 29.5t132.5 61.5q57 89 57 216q0 69 -11.5 129t-37 112t-64.5 89t-98 58t-132 21q-105 0 -185 -47.5t-122 -128.5t-42 -183z" />
<glyph unicode=":" horiz-adv-x="618" d="M245 4v185h189v-185h-189zM245 766v184h189v-184h-189z" />
<glyph unicode=";" horiz-adv-x="649" d="M236 4v194h194v-194q0 -152 -152 -310l-28 26q86 133 86 284h-100zM236 757v191h194v-191h-194z" />
<glyph unicode="&#x3c;" horiz-adv-x="1124" d="M125 466v125l929 357v-107l-829 -312q4 -3 829 -313v-109z" />
<glyph unicode="=" horiz-adv-x="1124" d="M130 223v104h924v-104h-924zM130 638v108h924v-108h-924z" />
<glyph unicode="&#x3e;" horiz-adv-x="1124" d="M125 102v114l830 313l-830 310v109l929 -352v-130q-172 -66 -331 -128t-262.5 -103t-182 -72t-115 -45.5t-38.5 -15.5z" />
<glyph unicode="?" horiz-adv-x="917" d="M100 1254q0 96 54 179.5t144.5 132t192.5 48.5q86 0 161 -38.5t124.5 -101t77.5 -142t28 -161.5q0 -36 -6.5 -70.5t-15 -61.5t-29 -61t-34.5 -55t-47 -59.5t-51 -58.5t-61 -66q-12 -13 -30.5 -32.5t-26.5 -28t-19.5 -21.5t-16.5 -20t-11 -17.5t-8 -19t-3.5 -19.5 t-1.5 -24v-177h-109v177q0 70 43 137t129 147q62 60 100 106.5t62 102.5t24 114q0 46 -10.5 94t-34 95t-55.5 83.5t-79 59t-100 22.5q-41 0 -82 -14t-75.5 -40t-61.5 -58.5t-42.5 -72t-15.5 -79.5q0 -45 15.5 -86.5t50.5 -71t82 -29.5q115 0 115 117q0 48 -13 100h59 q34 -82 34 -145q0 -58 -22 -101t-66 -66.5t-107 -23.5q-48 0 -90 17.5t-73 47.5t-53.5 69t-34 83t-11.5 89zM357 111q0 32 14.5 58.5t41 42.5t60.5 16q47 0 74.5 -33.5t27.5 -83.5q0 -47 -27 -77t-75 -30q-52 0 -84 29.5t-32 77.5z" />
<glyph unicode="@" horiz-adv-x="1807" d="M95 516q0 348 133 618q117 269 317.5 400.5t461.5 131.5q104 0 202.5 -27.5t185 -79t158.5 -128.5t123.5 -171t80 -211.5t28.5 -245.5q0 -115 -29 -233t-81.5 -219t-119.5 -180.5t-148.5 -125t-163.5 -45.5q-81 0 -117 40t-42 131l-43 11q-61 -88 -131.5 -134t-134.5 -46 q-93 0 -167 67.5t-113.5 179.5t-39.5 244q0 126 39 254.5t102 228t149.5 162t174.5 62.5q16 0 23 -2t11 -7t9.5 -12t24.5 -20t49 -27q67 -31 104 -77t71 -120q32 149 40 229h123l-127 -739q-6 -33 -12.5 -68.5t-10 -54.5t-6 -35t-2.5 -22q0 -45 26 -74.5t62 -29.5 q30 0 73 24.5t88.5 66.5t89 105.5t69.5 133.5h-2q69 161 69 336q0 151 -53.5 287.5t-145 236t-221 157.5t-274.5 58q-90 0 -177 -22t-167 -66t-151 -107t-129 -148.5t-100 -186t-65 -224.5t-23 -260q0 -171 37.5 -313.5t109 -250t174 -182t234 -112.5t287.5 -38 q217 0 394.5 90t273.5 254h122q-51 -108 -134 -196t-186 -148.5t-223.5 -93.5t-246.5 -33q-210 0 -383 70t-294.5 198.5t-188.5 317.5t-67 421zM579 480q0 -82 20 -150.5t52.5 -113t73.5 -69t84 -24.5q84 0 167.5 77.5t142.5 215.5v-2q54 145 54 306q0 171 -69 260 q-139 98 -172 98q-44 0 -93 -27t-95 -79.5t-83 -123.5t-59.5 -167t-22.5 -201z" />
<glyph unicode="A" horiz-adv-x="1117" d="M18 0l459 1464h148l492 -1464h-144l-143 455h-546l-136 -455h-130zM319 577h475l-139 444q-62 191 -89 318l-37 -3q-35 -194 -65 -290z" />
<glyph unicode="B" horiz-adv-x="1117" d="M141 0v1464h441q181 0 286 -95.5t105 -268.5q0 -66 -23.5 -126t-68.5 -110t-108 -89q122 -45 190.5 -138t68.5 -221q0 -203 -109.5 -309.5t-334.5 -106.5h-447zM262 137h326q166 0 240 67.5t74 211.5q0 139 -79 209.5t-255 70.5h-306v-559zM262 832h289q159 0 230 56 t71 190q0 65 -14 109.5t-50 77t-99.5 48t-159.5 15.5h-267v-496z" />
<glyph unicode="C" horiz-adv-x="1211" d="M95 744q0 176 42.5 318.5t118 235.5t177 143t220.5 50q112 0 204.5 -45t161 -136.5t102.5 -222.5l-123 -37q-89 312 -343 312q-96 0 -174 -37.5t-136 -112t-90 -193.5t-32 -275q0 -315 112 -477.5t307 -162.5q139 0 239 97t135 281l125 -39q-54 -231 -182.5 -350 t-314.5 -119q-168 0 -282 80v-2q-121 83 -194 267.5t-73 424.5z" />
<glyph unicode="D" horiz-adv-x="1211" d="M141 0v1464h405q152 0 237 -28q156 -52 247 -233t91 -462q0 -372 -142.5 -556.5t-412.5 -184.5h-425zM264 137h282q102 0 178.5 26t127.5 75t82.5 125t45 168t13.5 213q0 311 -105 447.5t-345 136.5h-279v-1191z" />
<glyph unicode="E" horiz-adv-x="1117" d="M148 0v1464h852v-136h-729v-503h681v-133h-681v-555h759v-137h-882z" />
<glyph unicode="F" horiz-adv-x="1024" d="M157 0v1464h791v-136h-668v-508h579v-136h-579v-684h-123z" />
<glyph unicode="G" horiz-adv-x="1304" d="M107 718q0 147 29 271.5t83 216t128 156t164.5 97t193.5 32.5q390 0 479 -413q-54 -18 -106 -37q-83 321 -375 321q-103 0 -188 -39.5t-148 -116t-98 -196.5t-35 -273t35 -272.5t98.5 -196t150 -116t191.5 -39.5q99 0 207.5 50t172.5 119v309h-364v134q84 0 241.5 1 t240.5 1v-532q-235 -221 -491 -221q-129 0 -240 50.5t-193.5 143.5t-129 235t-46.5 315z" />
<glyph unicode="H" horiz-adv-x="1211" d="M143 0v1464h123v-618h684v618h123v-1464h-123v709h-684v-709h-123z" />
<glyph unicode="I" horiz-adv-x="465" d="M182 0v1464h122v-1464h-122z" />
<glyph unicode="J" horiz-adv-x="838" d="M61 388l108 19q5 -83 21 -141.5t43 -92t61 -48t79 -14.5q58 0 98.5 22.5t63.5 67.5t32.5 104.5t9.5 141.5v1017h123v-1004q0 -135 -22 -230t-66 -150.5t-102.5 -80.5t-136.5 -25q-160 0 -234.5 105t-77.5 309z" />
<glyph unicode="K" horiz-adv-x="1117" d="M139 0v1464h123v-782q155 186 640 782h171l-500 -586l529 -878h-167l-449 777l-224 -268v-509h-123z" />
<glyph unicode="L" d="M137 0v1464h122v-1327h607v-137h-729z" />
<glyph unicode="M" horiz-adv-x="1397" d="M139 0v1464h208l353 -1282h31q19 74 69 250l291 1032h184v-1464h-116v1380l-38 -130q-38 -136 -159.5 -573t-191.5 -677h-115l-362 1273l-39 107v-1380h-115z" />
<glyph unicode="N" horiz-adv-x="1211" d="M141 0v1464h134l647 -1180l35 -104v1284h116v-1464h-134l-648 1182l-35 104v-1286h-115z" />
<glyph unicode="O" horiz-adv-x="1304" d="M98 712q0 183 44 332t121 246t180.5 149t224.5 52q117 0 221 -51.5t181.5 -145t123 -236t45.5 -314.5t-42 -316t-116.5 -243.5t-180.5 -155t-232 -55.5q-122 0 -228.5 57.5t-181.5 156t-117.5 234.5t-42.5 290zM225 709q0 -140 35 -255.5t95 -191t140 -117t171 -41.5 q96 0 177 42t141 120.5t93.5 198.5t33.5 270q0 198 -65 356h2q-30 76 -89.5 138t-135.5 97.5t-153 35.5q-95 0 -174.5 -39.5t-140.5 -117.5t-95.5 -204.5t-34.5 -291.5z" />
<glyph unicode="P" horiz-adv-x="1117" d="M145 0v1464h446q239 0 347 -98t108 -314q0 -101 -23.5 -179t-74 -137.5t-137 -90.5t-206.5 -31h-336v-614h-124zM269 748h340q160 0 234.5 73t74.5 222q0 100 -36 164v-3q-39 75 -93 99h2q-57 25 -186 25h-336v-580z" />
<glyph unicode="Q" horiz-adv-x="1304" d="M89 731q0 146 29.5 269.5t82.5 212.5t125 152.5t157 94.5t179 31q121 0 225.5 -53.5t180.5 -150t119 -239t43 -313.5q0 -122 -21.5 -230t-62 -196t-98.5 -155l2 -29q124 -99 198 -134q-19 -53 -34 -100q-121 58 -253 182q-144 -99 -302 -99q-121 0 -226.5 56.5 t-181.5 155t-119 240t-43 305.5zM216 731q0 -150 34.5 -270.5t95 -197.5t141 -118t175.5 -41q93 0 202 55q-85 72 -175 105l27 107q118 -47 223 -148q161 183 161 512q0 117 -21.5 218t-61 175.5t-94 127.5t-120.5 79.5t-139 26.5q-94 0 -174.5 -39.5t-142 -115.5 t-96.5 -198t-35 -278z" />
<glyph unicode="R" horiz-adv-x="1211" d="M143 0v1464h527q212 0 315.5 -91.5t103.5 -296.5q0 -163 -98.5 -266t-285.5 -135q28 -17 52 -33t42.5 -28.5t36 -29t28.5 -26t24.5 -28t20 -26t18.5 -29t16 -28.5t17.5 -33t17.5 -34l200 -380h-159l-158 302q-65 126 -107 193t-73 99t-69 50h2q-47 24 -139 24h-209v-668 h-123zM266 800h372q159 0 241 69t82 204q0 127 -72 196.5t-212 69.5h-411v-539z" />
<glyph unicode="S" horiz-adv-x="1117" d="M91 443l113 14q21 -161 120 -253.5t262 -92.5q152 0 240 77t88 200q0 72 -29 128q-12 22 -22 35.5t-29.5 28t-39 24.5t-61.5 25.5t-85 29t-121 37.5q-146 44 -228 94.5t-121 123.5t-39 182q0 177 113.5 286t302.5 109t307 -112t131 -297q-23 -2 -60 -6.5t-55 -6.5 q-33 286 -319 286q-144 0 -224.5 -67t-80.5 -177q0 -42 6.5 -71t25 -56.5t53.5 -48.5t89 -42t136 -43q88 -26 151 -49.5t119 -53t91 -61.5t61 -73.5t37.5 -92.5t11.5 -115q0 -194 -127.5 -313.5t-332.5 -119.5q-214 0 -345.5 127.5t-138.5 343.5z" />
<glyph unicode="T" horiz-adv-x="1024" d="M54 1328v136h939v-136h-409v-1328h-120v1328h-410z" />
<glyph unicode="U" horiz-adv-x="1211" d="M143 616v848h123v-848q0 -273 77 -388t258 -115q73 0 127 14t98 48t71 91.5t41 144t14 205.5v848h124v-848q0 -124 -14 -220.5t-46.5 -177.5t-85 -133.5t-132.5 -81.5t-186 -29q-97 0 -170 20.5t-130.5 66.5t-94 120.5t-55.5 182t-19 252.5z" />
<glyph unicode="V" horiz-adv-x="1117" d="M28 1464h133q71 -239 222.5 -760.5t162.5 -571.5h33q42 168 69 252l330 1080h122q-78 -247 -234 -731.5t-234 -732.5h-139q-434 1365 -465 1464z" />
<glyph unicode="W" horiz-adv-x="1581" d="M39 1464h124l184 -971q35 -193 53 -313h38l57 284l230 1000h166l172 -746q67 -285 99 -536h38q26 167 64 332l189 950h120l-330 -1464h-120q-29 126 -82 356.5t-96.5 419t-80.5 356.5l-41 182h-38q-17 -100 -35 -182l-259 -1132h-134q-34 160 -146 671t-172 793z" />
<glyph unicode="X" horiz-adv-x="1117" d="M37 0l466 764q-46 79 -129 219.5t-152 259t-129 221.5h146l221 -375q65 -112 113 -223q36 68 72.5 132t75 126.5t68 109t74 117t72.5 113.5h126l-419 -689q75 -128 227 -387.5t227 -387.5h-152l-308 525q-38 69 -70 139q-62 -123 -78 -150l-304 -514h-147z" />
<glyph unicode="Y" horiz-adv-x="1117" d="M34 1464h150l237 -443q72 -134 145 -294q62 139 152 305l232 432h143l-477 -841v-623h-123v623q-64 116 -146.5 268t-165.5 304.5t-147 268.5z" />
<glyph unicode="Z" horiz-adv-x="1024" d="M50 0v157l629 962q69 102 156 209h-714v136h842v-150q-132 -201 -375.5 -568t-312.5 -471h3l-100 -138h807v-137h-935z" />
<glyph unicode="[" horiz-adv-x="495" d="M145 -462v2099h330v-125h-204v-1848h204v-126h-330z" />
<glyph unicode="\" horiz-adv-x="495" d="M22 1642h87q189 -831 394 -1688h-91q-55 239 -187.5 806.5t-202.5 881.5z" />
<glyph unicode="]" horiz-adv-x="495" d="M54 -336h208v1848h-208v125h330v-2099h-330v126z" />
<glyph unicode="^" horiz-adv-x="835" d="M75 775q25 68 78 213t82.5 226t72 201.5t78.5 226.5h105q53 -147 158 -434t158 -433h-121l-248 732l-247 -732h-116z" />
<glyph unicode="_" horiz-adv-x="990" d="M-4 -221h1045v-65h-1045v65z" />
<glyph unicode="`" horiz-adv-x="592" d="M123 1644h161l111 -273h-93q-138 213 -179 273z" />
<glyph unicode="a" d="M73 269q0 66 16.5 116.5t44 83t69 56.5t85.5 37t99 25t104.5 20.5t107.5 23t104 33.5v61q0 70 -17 119t-49 77t-74 40t-97 12q-110 0 -168.5 -45.5t-86.5 -161.5q-26 4 -63.5 10.5t-45.5 8.5q33 157 125.5 229.5t260.5 72.5q60 0 106 -8.5t80 -23.5t58.5 -41t40.5 -56 t25 -73t12.5 -88t3.5 -105v-251q0 -176 2.5 -245t9.5 -108t26 -88h-113q-19 61 -25 115l-37 15q-149 -156 -315 -156q-132 0 -210.5 79.5t-78.5 215.5zM193 275q0 -89 54.5 -142t149.5 -53q140 0 223 95t83 289v102q-56 -27 -219 -66t-200 -59v2q-43 -25 -67 -68.5 t-24 -99.5z" />
<glyph unicode="b" d="M123 0v1480h111v-591q130 198 269 198q74 0 139 -35.5t114.5 -102t78.5 -170.5t29 -233q0 -132 -29.5 -241t-80.5 -181t-118 -111t-143 -39q-147 0 -237 163l-33 -9v-128h-100zM221 538q0 -116 18.5 -203t53 -141.5t83 -80.5t110.5 -26q53 0 100 29.5t84 84t58.5 140.5 t21.5 191q0 212 -74.5 326.5t-191.5 114.5q-51 0 -98 -28.5t-84 -81.5t-59 -137.5t-22 -187.5z" />
<glyph unicode="c" horiz-adv-x="838" d="M80 532q0 135 29 241.5t81.5 174.5t124 103.5t158.5 35.5q131 0 218 -79.5t114 -234.5l-105 -18q-18 73 -50 122t-75.5 72.5t-97.5 23.5q-60 0 -110.5 -25.5t-90 -77t-61.5 -137.5t-22 -199q0 -223 75 -335t200 -112q99 0 163 66.5t83 206.5l109 -19 q-29 -178 -125 -272.5t-232 -94.5q-84 0 -154 35t-122 103t-81 175t-29 245z" />
<glyph unicode="d" d="M68 529q0 133 28 240.5t77.5 176t114.5 105t139 36.5q48 0 95.5 -24t93 -70.5t84.5 -112.5v600h114v-1480h-102v128l-37 9q-41 -78 -102 -120.5t-130 -42.5q-77 0 -145 38.5t-119.5 108.5t-81 175.5t-29.5 232.5zM184 529q0 -86 14.5 -159.5t39.5 -125t59.5 -87.5 t73.5 -53t82 -17q113 0 187 111.5t74 310.5q0 119 -21 209.5t-59 145.5t-86.5 82t-106.5 27q-110 0 -185 -112h3q-75 -104 -75 -332z" />
<glyph unicode="e" d="M73 521q0 136 30.5 244.5t84.5 178.5t126.5 106.5t158.5 36.5q180 0 285.5 -150.5t105.5 -431.5h-678q4 -71 16 -131.5t32 -106t46.5 -80.5t58.5 -57t67.5 -32.5t75.5 -10.5q180 0 255 225l115 -19q-38 -156 -134 -237.5t-238 -81.5q-177 0 -296 139h2q-113 140 -113 408 zM195 616h551q-6 74 -22 133t-40 101t-57 69.5t-71 40.5t-83 13q-114 0 -191 -94.5t-87 -262.5z" />
<glyph unicode="f" horiz-adv-x="465" d="M34 957v104h137v137q0 163 53.5 236t175.5 73q56 0 121 -13q-9 -64 -18 -121q-26 2 -73 2q-79 0 -113.5 -42t-34.5 -149v-123h175v-104h-175v-957h-111v957h-137z" />
<glyph unicode="g" d="M63 538q0 133 30.5 239.5t83 173t119 101.5t140.5 35q151 0 284 -209v183h100v-931q0 -313 -87 -445t-299 -132q-159 0 -247 82t-92 228l109 -20q30 -177 226 -177q216 0 264 209v-3q13 62 13 317q-134 -189 -273 -189q-108 0 -193.5 72t-131.5 194.5t-46 271.5zM182 551 q0 -217 74 -327.5t195 -110.5q55 0 102 24.5t84.5 74t59 133.5t21.5 196q0 107 -21.5 190.5t-59.5 136t-88 79t-108 26.5q-52 0 -97.5 -26.5t-82 -77.5t-58 -133t-21.5 -185z" />
<glyph unicode="h" d="M125 0v1480h109v-589q140 196 293 196q55 0 97.5 -12t79.5 -40.5t61.5 -74.5t38.5 -117.5t14 -165.5v-677h-111v677q0 289 -212 289q-55 0 -100.5 -20t-82.5 -63t-57.5 -119.5t-20.5 -181.5v-582h-109z" />
<glyph unicode="i" horiz-adv-x="371" d="M130 0v1061h111v-1061h-111zM130 1308v172h111v-172h-111z" />
<glyph unicode="j" horiz-adv-x="371" d="M-61 -434l22 118q27 -9 55 -9q24 0 40 4.5t31 19.5t24 42t14 72t5 109v1139h111v-1143q0 -87 -9 -150.5t-25.5 -104.5t-42.5 -66t-56.5 -34.5t-70.5 -9.5q-50 0 -98 13zM130 1305v175h111v-175h-111z" />
<glyph unicode="k" horiz-adv-x="838" d="M128 0v1480h111v-907q380 470 395 488h143l-326 -388q70 -125 367 -673h-139l-306 579l-134 -154v-425h-111z" />
<glyph unicode="l" horiz-adv-x="371" d="M125 0v1480h111v-1480h-111z" />
<glyph unicode="m" horiz-adv-x="1397" d="M121 0v1061h95v-143l36 -9q46 85 113.5 131.5t146.5 46.5q88 0 151.5 -58.5t95.5 -169.5q130 228 287 228q124 0 191.5 -86t67.5 -264v-737h-112v673q0 158 -43 224t-137 66q-110 0 -176.5 -84.5t-66.5 -260.5v-618h-111v696q0 96 -22 156.5t-61 85.5t-96 25 q-48 0 -85.5 -12t-68 -41.5t-50.5 -76.5t-31 -117t-11 -163v-553h-113z" />
<glyph unicode="n" d="M125 0v1061h96v-147l33 -9q97 182 273 182q66 0 124 -27t95 -71q40 -49 55 -115t15 -217v-657h-111v650q0 168 -51 240.5t-159 72.5q-123 0 -192 -91.5t-69 -289.5v-582h-109z" />
<glyph unicode="o" d="M65 529q0 135 30.5 241.5t85 175.5t128 105t162.5 36q84 0 156.5 -36t127.5 -103t86 -172t31 -235q0 -142 -30.5 -251.5t-85 -177.5t-127 -103t-158.5 -35q-87 0 -160 36t-128 104t-86.5 174.5t-31.5 240.5zM182 529q0 -109 22.5 -194.5t62.5 -139t92.5 -81t113.5 -27.5 q124 0 204 117t80 325q0 110 -23 196t-63 139.5t-92 81t-113 27.5q-59 0 -110.5 -28.5t-90 -82.5t-61 -140t-22.5 -193z" />
<glyph unicode="p" d="M123 -423v1484h100v-200q69 118 137 172t145 54q74 0 139 -35.5t114.5 -102t78.5 -170.5t29 -233q0 -133 -30 -243t-81.5 -181t-119 -109.5t-142.5 -38.5q-130 0 -259 187v-584h-111zM221 523q0 -212 73.5 -324t189.5 -112q53 0 100.5 28t85.5 82t60.5 141.5t22.5 197.5 q0 109 -21.5 195.5t-59 140.5t-85.5 82t-103 28q-102 0 -187 -123h3q-79 -112 -79 -336z" />
<glyph unicode="q" d="M70 541q0 114 23.5 212.5t68 173t114 117.5t156.5 43q154 0 250 -171l32 6v139h97v-1484h-111v530l-34 8q-36 -66 -96.5 -103.5t-122.5 -37.5q-77 0 -145 39t-120 110t-82 179t-30 239zM186 534q0 -110 21.5 -196t58.5 -140.5t86.5 -82.5t107.5 -28q51 0 97 27.5 t81.5 79.5t56.5 134t21 184q0 221 -78 344.5t-197 123.5q-41 0 -78 -16t-69.5 -51t-56 -86t-37.5 -126t-14 -167z" />
<glyph unicode="r" horiz-adv-x="558" d="M125 0v1061h98v-156l36 -7q26 59 49.5 97t45.5 58t41 27t43 7q61 0 135 -48q-7 -27 -21 -69.5t-20 -64.5q-52 30 -98 30q-54 0 -94.5 -33.5t-62 -90t-31.5 -119.5t-10 -135v-557h-111z" />
<glyph unicode="s" horiz-adv-x="838" d="M70 291l110 23q19 -113 82.5 -170t167.5 -57q108 0 170 54.5t62 142.5q0 47 -16 75t-62.5 53.5t-140.5 53.5q-107 33 -170 60.5t-105.5 65t-58.5 83t-16 114.5q0 135 86.5 216.5t234.5 81.5q146 0 223 -68t102 -205l-110 -18q-30 177 -213 177q-105 0 -161.5 -44.5 t-56.5 -117.5q0 -24 1.5 -37.5t9 -30t21 -27.5t39.5 -26t63 -29.5t93 -33.5q77 -24 127.5 -42.5t92 -40.5t64.5 -43t39 -51t21.5 -63t5.5 -81q0 -100 -41 -174.5t-121 -116t-190 -41.5q-150 0 -238.5 79t-114.5 238z" />
<glyph unicode="t" horiz-adv-x="465" d="M50 957v104h113v282l112 82v-364h152v-104h-152v-666q0 -75 11.5 -112t32.5 -49t63 -12q25 0 48 5l15 -127q-54 -12 -91 -12q-38 0 -62 3.5t-47.5 15t-37 32.5t-24.5 56.5t-15.5 87t-4.5 123.5v655h-113z" />
<glyph unicode="u" d="M121 397v664h111v-590q0 -183 18 -235q21 -63 71.5 -102t116.5 -39q262 0 262 396v570h111v-1061h-95v152l-32 9q-104 -187 -274 -187q-81 0 -137.5 27.5t-89.5 83t-47.5 131.5t-14.5 181z" />
<glyph unicode="v" horiz-adv-x="838" d="M43 1061h116q9 -33 126.5 -440.5t124.5 -434.5l35 -2q27 114 60 218l198 659h111l-330 -1061h-111z" />
<glyph unicode="w" horiz-adv-x="1211" d="M16 1061h118q26 -124 80 -361t59 -259l54 -246h37q8 37 25 118.5t25 118.5l141 629h120l180 -842h39l52 219q25 105 76 312t76 311h106l-272 -1061h-127q-27 128 -80 366.5t-61 277.5l-35 197h-38q-33 -153 -95 -440.5t-86 -400.5h-128q-44 180 -133 530.5t-133 530.5z " />
<glyph unicode="x" horiz-adv-x="838" d="M41 0l319 553l-297 508h143l135 -247q16 -30 46.5 -91.5t33.5 -67.5q8 14 26 46t34.5 61.5t27.5 48.5l146 250h134l-298 -497l323 -564h-139q-73 125 -180 332l-68 128q-33 -63 -76.5 -143t-94.5 -173t-78 -144h-137z" />
<glyph unicode="y" horiz-adv-x="838" d="M48 1061h121l185 -625q45 -160 67 -261h36q28 145 64 257l188 629h111q-47 -156 -162 -526t-174 -569q-33 -109 -59 -179.5t-50.5 -118.5t-52 -72.5t-56 -33.5t-68.5 -9q-38 0 -80 15l-11 135q29 -9 64 -9q53 0 89 22t63 68q3 5 9.5 27t22 71.5t29.5 95.5z" />
<glyph unicode="z" horiz-adv-x="838" d="M48 0v125l596 834q-127 -9 -217 -9h-345v111h695v-98l-484 -692l-120 -167q183 17 237 17h395v-121h-757z" />
<glyph unicode="{" horiz-adv-x="594" d="M68 484v143q121 10 150.5 102t41.5 391q2 50 3 79t3 77.5t5 92.5q10 71 25.5 117t45 80t75.5 48.5t115 14.5h32v-128h-7q-51 0 -84.5 -10.5t-58 -39.5t-35 -80.5t-10.5 -131.5q0 -341 -9 -393q-10 -49 -17.5 -77t-22 -60.5t-35 -56t-53 -49.5t-80.5 -55 q56 -28 92.5 -57.5t62 -67t38.5 -93t18.5 -122t5.5 -167.5q0 -253 11 -303q8 -49 30 -77t57 -40t90 -12h7v-134h-32q-72 0 -123 22t-78.5 59t-44 91.5t-20 113.5t-4.5 131.5t0.5 139.5t-4.5 143.5t-19 136.5q-18 77 -60.5 116.5t-110.5 55.5z" />
<glyph unicode="|" horiz-adv-x="158" d="M32 -616v2258h96v-2258h-96z" />
<glyph unicode="}" horiz-adv-x="594" d="M54 -391h7q36 0 58.5 2.5t46 11.5t37 26t24.5 45.5t16 72t5 103.5q0 308 14 396q19 111 68.5 178.5t140.5 108.5q-43 25 -73 47.5t-55 47.5t-40.5 55t-27 63.5t-17 80t-8 98.5t-2.5 124q0 262 -9 302q-7 32 -17 54t-29.5 40t-52 27t-79.5 9h-7v128h33q57 0 99.5 -12 t69 -30.5t45 -50t28 -61.5t16.5 -72q0 -83 11.5 -320t23.5 -285q38 -154 175 -171v-143q-95 -9 -134 -71q-40 -65 -54 -259q-3 -36 -20 -413q-8 -54 -17.5 -90.5t-28.5 -72.5t-45.5 -57t-69 -33.5t-99.5 -12.5h-33v134z" />
<glyph unicode="~" horiz-adv-x="1040" d="M89 679v167q44 122 236 122q15 0 29 -1.5t25.5 -3t27 -6.5t27.5 -9t34 -13t38.5 -16.5t49 -21.5t58.5 -25q102 -56 173 -56q60 0 108.5 29t109.5 85v-171q-110 -113 -239 -113h-17q-50 0 -83 11.5t-145 71.5q-135 71 -215 71q-48 0 -99 -27t-118 -94z" />
<glyph unicode="&#xa4;" horiz-adv-x="1074" d="M95 306l139 124q-75 127 -75 227q0 113 77 225l-141 120q27 15 46 46l9 6q2 0 21 24l135 -130q134 80 251 80q119 0 250 -80q20 23 43 44.5t50.5 46t43.5 39.5q2 -3 5.5 -7.5t7.5 -9t6 -7.5l10 -8q10 -6 24.5 -22.5t21.5 -21.5l-132 -120q72 -116 72 -225 q0 -117 -77 -227q18 -13 66 -60.5t71 -63.5l-75 -67q-4 -7 -7 -7l2 -2l-4 2q0 2 -3 4l12 3l-137 125q-136 -80 -250 -80q-102 0 -251 80q-14 -10 -31 -29.5t-39 -36.5t-58 -32q-15 -3 -24 -12l12 -6q1 -4 1 -4.5t0.5 -1l3.5 -3.5q-19 3 -19 11q0 2 2 4l-36 37q-5 6 -8 8 t-15 7zM256 657q0 -71 41 -133t110.5 -99t149.5 -37q122 0 211 80t89 189q0 110 -88.5 187.5t-211.5 77.5q-60 0 -115.5 -20.5t-96 -56t-65 -85t-24.5 -103.5zM922 223q0 1 4 5l2 -5h-6zM926 228v2l6 -2h-6z" />
<glyph unicode="&#xa6;" horiz-adv-x="499" d="M223 336h83v-934zM223 692v937h83v-937h-83z" />
<glyph unicode="&#xa7;" horiz-adv-x="1232" d="M109 764q0 39 8 71.5t28.5 64t54 58.5t84 52t118.5 47q-99 82 -138 146.5t-39 130.5q0 47 17.5 92.5t51 84.5t80 69t108.5 47t132 17q73 0 129 -13.5t92.5 -30.5t76 -60t61 -74t65.5 -100q17 -25 25 -38q-25 -12 -72 -12h-32q-16 0 -39 -6q-16 68 -41 113.5t-62 71.5 t-81.5 36.5t-106.5 10.5q-118 0 -195 -58t-84 -141q0 -21 3 -38t13 -34.5t20.5 -31t33.5 -32t42.5 -32.5t57 -38.5t69 -43.5t86.5 -53t100 -62q396 -177 396 -405q0 -36 -3 -60.5t-13.5 -51.5t-30.5 -47.5t-53 -44.5t-81.5 -47.5t-117.5 -50.5q56 -41 96.5 -79.5t67.5 -76 t40 -74t13 -73.5q0 -140 -117 -230t-313 -90t-314.5 85t-158.5 245l137 18q18 -65 47 -112.5t71 -78t96 -45t122 -14.5q131 0 213.5 61.5t82.5 155.5q0 28 -8.5 52t-33.5 52t-55 52.5t-88.5 63t-117 74t-157.5 93.5q-159 81 -243 151v-3q-59 48 -101 123t-42 143zM223 789 q0 -23 4.5 -43t11 -37.5t23.5 -36.5t32.5 -34.5t47.5 -38t59.5 -40.5t77.5 -48.5t92 -55t113.5 -67t131.5 -78.5l32 -4q99 51 150.5 111t51.5 117q0 34 -13 64t-49 69.5t-107 90t-181 114.5q-175 99 -255 160q-123 -68 -172.5 -122t-49.5 -121z" />
<glyph unicode="&#xa9;" horiz-adv-x="1813" d="M7 773q0 103 27 202t77 184.5t118 161t152 134t177 100.5t195 64.5t204 22.5q108 0 213.5 -23.5t198 -66.5t174.5 -103t146.5 -136t111.5 -161.5t72 -182.5t25 -196q0 -101 -25.5 -198.5t-72.5 -182t-112.5 -160t-147.5 -134.5t-174.5 -101.5t-197 -65t-211.5 -22.5 q-244 0 -475 113q-138 68 -247.5 192t-168.5 271t-59 288zM84 773q0 -74 18 -150.5t55.5 -152.5t90 -146t126 -130.5t159.5 -105t195 -70t229 -25.5q130 0 256 36t233 105.5t190.5 163t134 216.5t57.5 259q0 101 -30 199t-84.5 183t-133.5 157.5t-174.5 124.5t-210.5 82.5 t-238 33.5q-113 0 -222.5 -26.5t-205 -75t-177 -119t-140 -156t-92.5 -189t-36 -214.5zM482 770v9q0 110 35 199t97.5 148.5t150 91.5t192.5 32h9q138 0 238.5 -60.5t159.5 -168.5q-13 -1 -34.5 -6.5t-43.5 -5.5q-47 91 -124.5 132t-200.5 41q-81 0 -151.5 -27.5t-123.5 -79 t-83 -130.5t-30 -177q0 -97 28.5 -174t79 -126.5t118 -75.5t147.5 -26q126 0 218 57.5t139 158.5l79 -14q-32 -91 -99.5 -155t-150.5 -93t-175 -29q-141 0 -248 57t-167 166.5t-60 255.5z" />
<glyph unicode="&#xab;" horiz-adv-x="1108" d="M159 421l321 416h82l-265 -416l265 -417h-85zM571 421q108 139 318 416h84l-264 -416l264 -417h-86z" />
<glyph unicode="&#xac;" horiz-adv-x="1438" d="M163 816v134h1185v-655h-144v521h-1041z" />
<glyph unicode="&#xad;" horiz-adv-x="818" d="M50 441v82h759v-82h-759z" />
<glyph unicode="&#xae;" horiz-adv-x="1813" d="M7 777q0 88 20 173.5t56.5 162t89 147t117 129t142 106.5t161 81.5t176.5 52t188 19.5q123 0 243 -31t223.5 -86.5t191.5 -136t150.5 -175.5t97.5 -209t35 -233q0 -116 -34 -227t-95.5 -205.5t-148.5 -174.5t-190.5 -136t-225 -87t-247.5 -31q-253 0 -475 112 q-134 65 -243 186t-170.5 269.5t-61.5 293.5zM84 777q0 -86 25.5 -175.5t73.5 -176.5t123.5 -163t169 -134.5t218 -93.5t263.5 -36q132 0 258 36t233 105.5t189.5 163.5t133 216t57.5 258q0 99 -29.5 196.5t-83.5 183t-133 159t-174.5 127t-211 85t-239.5 34.5 q-115 0 -225.5 -28t-205.5 -78.5t-176.5 -123t-139.5 -158t-91 -188t-35 -209.5zM564 314v903h325q189 0 252 -24q40 -8 77 -39.5t59.5 -75t22.5 -87.5q0 -96 -77 -165.5t-218 -77.5v-23q0 -8 -6 -15.5t-11.5 -14t-5.5 -9.5q0 -7 31 -21.5t66.5 -31t43.5 -24.5 q64 -63 109 -119.5t116 -168.5q0 -5 3 -5l-119 -2q-48 81 -70 117.5t-58.5 92t-57.5 78.5t-52.5 54t-58.5 42t-61.5 20t-75.5 9h-148v-413h-86zM650 796h250q155 0 227.5 49.5t72.5 130.5q0 176 -311 176h-239v-356z" />
<glyph unicode="&#xaf;" horiz-adv-x="1358" d="M-26 1542v95h1477v-95h-1477z" />
<glyph unicode="&#xb0;" horiz-adv-x="985" d="M186 1334q0 77 45.5 145t120.5 108t157 40q86 0 161.5 -40t120 -108t44.5 -145q0 -63 -26.5 -119.5t-70.5 -96.5t-103.5 -63t-125.5 -23q-62 0 -120.5 23t-103 62t-72 96t-27.5 121zM243 1334q0 -103 78 -169.5t188 -66.5q112 0 190 66.5t78 169.5q0 61 -36 114t-98 84.5 t-134 31.5q-70 0 -131.5 -31.5t-98 -84.5t-36.5 -114z" />
<glyph unicode="&#xb1;" horiz-adv-x="1351" d="M118 4v137h1182v-137h-1182zM118 796v132h524v479h133v-479h525v-132h-525v-482h-133v482h-524z" />
<glyph unicode="&#xb4;" horiz-adv-x="818" d="M332 1364l145 271h198l-234 -271h-109z" />
<glyph unicode="&#xb6;" horiz-adv-x="1324" d="M20 1154q0 233 142.5 359t433.5 126h782v-138h-187v-2026h-134v2026h-382v-2026h-127v1241q-252 21 -390 137t-138 301z" />
<glyph unicode="&#xb7;" horiz-adv-x="768" d="M306 384v182h185v-182h-185z" />
<glyph unicode="&#xba;" horiz-adv-x="896" d="M82 1217q0 196 106.5 308t284.5 112q177 0 280.5 -117t103.5 -316q0 -73 -20 -136.5t-55.5 -110t-83.5 -80.5t-105 -52t-120 -20q-175 0 -283 111t-108 301zM186 1219q7 -160 81 -240.5t206 -80.5q129 0 204.5 81t75.5 246q0 81 -21 141.5t-58.5 98t-88 55.5t-112.5 18 q-287 0 -287 -319z" />
<glyph unicode="&#xbb;" horiz-adv-x="1108" d="M134 2l311 416l-311 417h135l315 -419l-315 -414h-135zM596 2l261 416l-261 417h81l314 -417l-314 -416h-81z" />
<glyph unicode="&#xc0;" horiz-adv-x="1117" d="M18 0l459 1464h148l492 -1464h-144l-143 455h-546l-136 -455h-130zM319 577h475l-139 444q-62 191 -89 318l-37 -3q-35 -194 -65 -290zM319 1855h217l98 -245h-81z" />
<glyph unicode="&#xc1;" horiz-adv-x="1117" d="M18 0l459 1464h148l492 -1464h-144l-143 455h-546l-136 -455h-130zM319 577h475l-139 444q-62 191 -89 318l-37 -3q-35 -194 -65 -290zM425 1610q14 38 96 245h145l-159 -245h-82z" />
<glyph unicode="&#xc2;" horiz-adv-x="1117" d="M18 0l459 1464h148l492 -1464h-144l-143 455h-546l-136 -455h-130zM319 577h475l-139 444q-62 191 -89 318l-37 -3q-35 -194 -65 -290zM323 1610q121 191 154 245h139l163 -245h-122l-104 197l-108 -197h-122z" />
<glyph unicode="&#xc3;" horiz-adv-x="1117" d="M18 0l459 1464h148l492 -1464h-144l-143 455h-546l-136 -455h-130zM280 1610q1 41 13 77t31.5 61.5t46.5 40t59 14.5q23 0 109 -43.5t114 -43.5q58 0 78 89h72q-5 -63 -25 -107.5t-50.5 -65t-70.5 -20.5q-21 0 -109 47.5t-114 47.5q-22 0 -39.5 -10.5t-29 -33 t-13.5 -53.5h-72zM319 577h475l-139 444q-62 191 -89 318l-37 -3q-35 -194 -65 -290z" />
<glyph unicode="&#xc4;" horiz-adv-x="1117" d="M18 0l459 1464h148l492 -1464h-144l-143 455h-546l-136 -455h-130zM319 577h475l-139 444q-62 191 -89 318l-37 -3q-35 -194 -65 -290zM332 1687v168h115v-168h-115zM646 1687v168h115v-168h-115z" />
<glyph unicode="&#xc5;" horiz-adv-x="1117" d="M18 0l459 1464h148l492 -1464h-144l-143 455h-546l-136 -455h-130zM319 577h475l-139 444q-62 191 -89 318l-37 -3q-35 -194 -65 -290zM436 1735q0 66 40.5 114.5t91.5 48.5q37 0 67.5 -22.5t47.5 -60.5t17 -85q0 -69 -39.5 -118.5t-92.5 -49.5q-50 0 -91 51t-41 122z M462 1733q0 -57 32.5 -94.5t76.5 -37.5q42 0 75 37.5t33 94.5q0 36 -15 66.5t-40 47.5t-53 17q-45 0 -77 -38.5t-32 -92.5z" />
<glyph unicode="&#xc6;" horiz-adv-x="1677" d="M20 0q107 276 303.5 769.5t274.5 694.5h977v-136h-620v-505h577v-134h-577v-552h646v-137h-766v434h-514l-169 -434h-132zM375 571h460v757h-160z" />
<glyph unicode="&#xc7;" horiz-adv-x="1211" d="M95 744q0 176 42.5 318.5t118 235.5t177 143t220.5 50q112 0 204.5 -45t161 -136.5t102.5 -222.5l-123 -37q-89 312 -343 312q-96 0 -174 -37.5t-136 -112t-90 -193.5t-32 -275q0 -315 112 -477.5t307 -162.5q139 0 239 97t135 281l125 -39q-54 -231 -182.5 -350 t-314.5 -119l-30 -99q71 -10 110.5 -47.5t39.5 -89.5q0 -73 -60.5 -121.5t-157.5 -48.5q-58 0 -103 7q0 19 3.5 49t4.5 33q34 -2 63 -2q51 0 85 12.5t49.5 34t15.5 50.5q0 41 -28.5 62.5t-99.5 26.5l35 139q-127 14 -209 74v-2q-121 83 -194 267.5t-73 424.5z" />
<glyph unicode="&#xc8;" horiz-adv-x="1117" d="M148 0v1464h852v-136h-729v-503h681v-133h-681v-555h759v-137h-882zM384 1855h150l98 -245h-79z" />
<glyph unicode="&#xc9;" horiz-adv-x="1117" d="M148 0v1464h852v-136h-729v-503h681v-133h-681v-555h759v-137h-882zM495 1610q18 46 49.5 122t49.5 123h145l-160 -245h-84z" />
<glyph unicode="&#xca;" horiz-adv-x="1117" d="M148 0v1464h852v-136h-729v-503h681v-133h-681v-555h759v-137h-882zM350 1610q20 31 71.5 112t83.5 133h141l161 -245h-123l-105 197l-106 -197h-123z" />
<glyph unicode="&#xcb;" horiz-adv-x="1117" d="M148 0v1464h852v-136h-729v-503h681v-133h-681v-555h759v-137h-882zM354 1687v168h119v-168h-119zM668 1687v168h119v-168h-119z" />
<glyph unicode="&#xcc;" horiz-adv-x="465" d="M182 0v1464h122v-1464h-122zM182 1855h54l98 -245h-82z" />
<glyph unicode="&#xcd;" horiz-adv-x="465" d="M180 1610q81 207 95 245h148l-159 -245h-84zM182 0v1464h120v-1464h-120z" />
<glyph unicode="&#xce;" horiz-adv-x="465" d="M9 1610q120 190 154 245h141l164 -245h-125l-104 197l-105 -197h-125zM182 0v1464h122v-1464h-122z" />
<glyph unicode="&#xcf;" horiz-adv-x="465" d="M28 1687v168h154l-39 -168h-115zM182 0v1464h122v-1464h-122zM341 1687v168h119v-168h-119z" />
<glyph unicode="&#xd0;" horiz-adv-x="1211" d="M7 684v95h134v685h407q153 0 235 -28q157 -54 248.5 -233.5t91.5 -463.5q0 -204 -54 -373q-32 -98 -71.5 -164t-98.5 -113t-139.5 -68t-191.5 -21h-427v684h-134zM264 137h284q102 0 178.5 26.5t127 75.5t82 125t44.5 167.5t13 209.5q0 214 -46 342t-144 186.5t-260 58.5 h-279v-549h341v-95h-341v-547z" />
<glyph unicode="&#xd1;" horiz-adv-x="1211" d="M141 0v1464h134l647 -1180l35 9v1171h116v-1464h-134l-648 1182l-35 -9v-1173h-115zM357 1610q4 85 46 139t104 54q25 0 110 -43.5t112 -43.5q63 0 80 89h71q-3 -48 -15 -85t-31.5 -60.5t-44.5 -35.5t-54 -12q-19 0 -109 47.5t-112 47.5q-34 0 -57.5 -25t-26.5 -72h-73z " />
<glyph unicode="&#xd2;" horiz-adv-x="1304" d="M98 712q0 183 44 332t121 246t180.5 149t224.5 52q117 0 221 -51.5t181.5 -145t123 -236t45.5 -314.5t-42 -316t-116.5 -243.5t-180.5 -155t-232 -55.5q-122 0 -228.5 57.5t-181.5 156t-117.5 234.5t-42.5 290zM225 709q0 -140 35 -255.5t95 -191t140 -117t171 -41.5 q96 0 177 42t141 120.5t93.5 198.5t33.5 270q0 198 -65 356h2q-30 76 -89.5 138t-135.5 97.5t-153 35.5q-95 0 -174.5 -39.5t-140.5 -117.5t-95.5 -204.5t-34.5 -291.5zM503 1855h150l97 -245h-82z" />
<glyph unicode="&#xd3;" horiz-adv-x="1304" d="M98 712q0 183 44 332t121 246t180.5 149t224.5 52q117 0 221 -51.5t181.5 -145t123 -236t45.5 -314.5t-42 -316t-116.5 -243.5t-180.5 -155t-232 -55.5q-122 0 -228.5 57.5t-181.5 156t-117.5 234.5t-42.5 290zM225 709q0 -140 35 -255.5t95 -191t140 -117t171 -41.5 q96 0 177 42t141 120.5t93.5 198.5t33.5 270q0 198 -65 356h2q-30 76 -89.5 138t-135.5 97.5t-153 35.5q-95 0 -174.5 -39.5t-140.5 -117.5t-95.5 -204.5t-34.5 -291.5zM555 1610q18 46 48.5 122t49.5 123h145l-160 -245h-83z" />
<glyph unicode="&#xd4;" horiz-adv-x="1304" d="M98 712q0 183 44 332t121 246t180.5 149t224.5 52q117 0 221 -51.5t181.5 -145t123 -236t45.5 -314.5t-42 -316t-116.5 -243.5t-180.5 -155t-232 -55.5q-122 0 -228.5 57.5t-181.5 156t-117.5 234.5t-42.5 290zM225 709q0 -140 35 -255.5t95 -191t140 -117t171 -41.5 q96 0 177 42t141 120.5t93.5 198.5t33.5 270q0 198 -65 356h2q-30 76 -89.5 138t-135.5 97.5t-153 35.5q-95 0 -174.5 -39.5t-140.5 -117.5t-95.5 -204.5t-34.5 -291.5zM438 1610q20 31 72 112t84 133h141l161 -245h-123l-105 197l-106 -197h-124z" />
<glyph unicode="&#xd5;" horiz-adv-x="1304" d="M98 712q0 183 44 332t121 246t180.5 149t224.5 52q117 0 221 -51.5t181.5 -145t123 -236t45.5 -314.5t-42 -316t-116.5 -243.5t-180.5 -155t-232 -55.5q-122 0 -228.5 57.5t-181.5 156t-117.5 234.5t-42.5 290zM225 709q0 -140 35 -255.5t95 -191t140 -117t171 -41.5 q96 0 177 42t141 120.5t93.5 198.5t33.5 270q0 198 -65 356h2q-30 76 -89.5 138t-135.5 97.5t-153 35.5q-95 0 -174.5 -39.5t-140.5 -117.5t-95.5 -204.5t-34.5 -291.5zM402 1610q3 87 45 140t106 53q22 0 108 -43.5t112 -43.5q62 0 79 89h70q-6 -95 -45.5 -144t-99.5 -49 q-18 0 -106.5 47.5t-113.5 47.5q-33 0 -56 -25t-28 -72h-71z" />
<glyph unicode="&#xd6;" horiz-adv-x="1304" d="M98 712q0 183 44 332t121 246t180.5 149t224.5 52q117 0 221 -51.5t181.5 -145t123 -236t45.5 -314.5t-42 -316t-116.5 -243.5t-180.5 -155t-232 -55.5q-122 0 -228.5 57.5t-181.5 156t-117.5 234.5t-42.5 290zM225 709q0 -140 35 -255.5t95 -191t140 -117t171 -41.5 q96 0 177 42t141 120.5t93.5 198.5t33.5 270q0 198 -65 356h2q-30 76 -89.5 138t-135.5 97.5t-153 35.5q-95 0 -174.5 -39.5t-140.5 -117.5t-95.5 -204.5t-34.5 -291.5zM434 1687v168h119v-168h-119zM748 1687v168h118v-168h-118z" />
<glyph unicode="&#xd7;" horiz-adv-x="979" d="M152 405l271 326l-269 326l78 93l266 -325l266 323l75 -91l-266 -326l268 -326l-77 -93l-269 324l-267 -324z" />
<glyph unicode="&#xd8;" horiz-adv-x="1304" d="M91 4l145 200q-63 124 -92 201t-39 145t-10 175q0 179 45.5 325.5t123.5 242t182 147t222 51.5q105 0 189.5 -36.5t192.5 -138.5l141 194l54 -57l-147 -201q82 -152 109 -255t27 -262q0 -175 -44 -319.5t-120.5 -240.5t-179 -148.5t-220.5 -52.5q-108 0 -190 33v-3 q-81 38 -194 139q-131 -178 -141 -191zM223 729q0 -133 14.5 -202.5t76.5 -216.5l659 902q-90 89 -155 119.5t-150 30.5q-94 0 -174 -39.5t-141 -116t-95.5 -199t-34.5 -278.5zM364 245q74 -75 145.5 -108t154.5 -33q93 0 173.5 41t140.5 117.5t94.5 196t34.5 268.5 q0 214 -86 416z" />
<glyph unicode="&#xd9;" horiz-adv-x="1211" d="M143 616v848h123v-848q0 -273 77 -388t258 -115q73 0 127 14t98 48t71 91.5t41 144t14 205.5v848h124v-848q0 -124 -14 -220.5t-46.5 -177.5t-85 -133.5t-132.5 -81.5t-186 -29q-97 0 -170 20.5t-130.5 66.5t-94 120.5t-55.5 182t-19 252.5zM436 1855h150l98 -245h-81z " />
<glyph unicode="&#xda;" horiz-adv-x="1211" d="M143 616v848h123v-848q0 -273 77 -388t258 -115q73 0 127 14t98 48t71 91.5t41 144t14 205.5v848h124v-848q0 -124 -14 -220.5t-46.5 -177.5t-85 -133.5t-132.5 -81.5t-186 -29q-97 0 -170 20.5t-130.5 66.5t-94 120.5t-55.5 182t-19 252.5zM509 1610q16 38 32 80 t32.5 84t31.5 81h148l-159 -245h-85z" />
<glyph unicode="&#xdb;" horiz-adv-x="1211" d="M143 616v848h123v-848q0 -273 77 -388t258 -115q73 0 127 14t98 48t71 91.5t41 144t14 205.5v848h124v-848q0 -124 -14 -220.5t-46.5 -177.5t-85 -133.5t-132.5 -81.5t-186 -29q-97 0 -170 20.5t-130.5 66.5t-94 120.5t-55.5 182t-19 252.5zM382 1610q120 190 154 245 h141l164 -245h-125l-102 197l-107 -197h-125z" />
<glyph unicode="&#xdc;" horiz-adv-x="1211" d="M143 616v848h123v-848q0 -273 77 -388t258 -115q73 0 127 14t98 48t71 91.5t41 144t14 205.5v848h124v-848q0 -124 -14 -220.5t-46.5 -177.5t-85 -133.5t-132.5 -81.5t-186 -29q-97 0 -170 20.5t-130.5 66.5t-94 120.5t-55.5 182t-19 252.5zM384 1687v168h117v-168h-117z M698 1687v168h116v-168h-116z" />
<glyph unicode="&#xdd;" horiz-adv-x="1117" d="M34 1464h150l237 -443q72 -134 145 -294q62 139 152 305l232 432h143l-477 -841v-623h-123v623q-64 116 -146.5 268t-165.5 304.5t-147 268.5zM447 1610q19 46 48 122t48 123h146l-157 -245h-85z" />
<glyph unicode="&#xde;" horiz-adv-x="1117" d="M145 0v1464h124v-305h322q232 0 344.5 -98.5t112.5 -314.5q0 -192 -100 -321v2q-95 -123 -343 -123h-336v-304h-124zM269 443h340q159 0 234 73t75 221q0 60 -16 112.5t-45 90.5t-68 53h2q-51 30 -186 30h-336v-580z" />
<glyph unicode="&#xdf;" horiz-adv-x="1024" d="M143 0v1016q0 246 85 368.5t258 122.5q126 0 209.5 -80t83.5 -195q0 -50 -13 -102q-12 -49 -62.5 -174t-50.5 -149q0 -45 24 -87v3q18 -33 106 -100h-4q88 -71 130 -119t57.5 -91.5t15.5 -108.5q0 -144 -86 -241v2q-85 -91 -202 -91q-93 0 -167.5 57t-116.5 162l95 55 q82 -161 181 -161q75 0 127.5 58.5t52.5 140.5q0 63 -22.5 99t-106.5 108q-82 69 -123.5 113t-60.5 84t-19 87q0 31 4.5 54t17 54.5t40.5 90.5q77 163 77 236t-54.5 127t-136.5 54q-45 0 -79 -10.5t-63 -36.5t-47 -69.5t-28.5 -111t-10.5 -158.5v-1007h-111z" />
<glyph unicode="&#xe0;" d="M73 269q0 66 16.5 116.5t44 83t69 56.5t85.5 37t99 25t104.5 20.5t107.5 23t104 33.5v61q0 70 -17 119t-49 77t-74 40t-97 12q-110 0 -168.5 -45.5t-86.5 -161.5q-26 4 -63.5 10.5t-45.5 8.5q33 157 125.5 229.5t260.5 72.5q60 0 106 -8.5t80 -23.5t58.5 -41t40.5 -56 t25 -73t12.5 -88t3.5 -105v-251q0 -176 2.5 -245t9.5 -108t26 -88h-113q-19 61 -25 115l-37 15q-149 -156 -315 -156q-132 0 -210.5 79.5t-78.5 215.5zM193 275q0 -89 54.5 -142t149.5 -53q140 0 223 95t83 289v102q-56 -27 -219 -66t-200 -59v2q-43 -25 -67 -68.5 t-24 -99.5zM300 1489h151l100 -250h-83z" />
<glyph unicode="&#xe1;" d="M73 269q0 66 16.5 116.5t44 83t69 56.5t85.5 37t99 25t104.5 20.5t107.5 23t104 33.5v61q0 70 -17 119t-49 77t-74 40t-97 12q-110 0 -168.5 -45.5t-86.5 -161.5q-26 4 -63.5 10.5t-45.5 8.5q33 157 125.5 229.5t260.5 72.5q60 0 106 -8.5t80 -23.5t58.5 -41t40.5 -56 t25 -73t12.5 -88t3.5 -105v-251q0 -176 2.5 -245t9.5 -108t26 -88h-113q-19 61 -25 115l-37 15q-149 -156 -315 -156q-132 0 -210.5 79.5t-78.5 215.5zM193 275q0 -89 54.5 -142t149.5 -53q140 0 223 95t83 289v102q-56 -27 -219 -66t-200 -59v2q-43 -25 -67 -68.5 t-24 -99.5zM386 1239q23 55 57 143t41 107h148l-159 -250h-87z" />
<glyph unicode="&#xe2;" d="M73 269q0 66 16.5 116.5t44 83t69 56.5t85.5 37t99 25t104.5 20.5t107.5 23t104 33.5v61q0 70 -17 119t-49 77t-74 40t-97 12q-110 0 -168.5 -45.5t-86.5 -161.5q-26 4 -63.5 10.5t-45.5 8.5q33 157 125.5 229.5t260.5 72.5q60 0 106 -8.5t80 -23.5t58.5 -41t40.5 -56 t25 -73t12.5 -88t3.5 -105v-251q0 -176 2.5 -245t9.5 -108t26 -88h-113q-19 61 -25 115l-37 15q-149 -156 -315 -156q-132 0 -210.5 79.5t-78.5 215.5zM193 275q0 -89 54.5 -142t149.5 -53q140 0 223 95t83 289v102q-56 -27 -219 -66t-200 -59v2q-43 -25 -67 -68.5 t-24 -99.5zM248 1239q155 247 157 250h141l163 -250h-123l-106 200l-107 -200h-125z" />
<glyph unicode="&#xe3;" d="M73 269q0 66 16.5 116.5t44 83t69 56.5t85.5 37t99 25t104.5 20.5t107.5 23t104 33.5v61q0 70 -17 119t-49 77t-74 40t-97 12q-110 0 -168.5 -45.5t-86.5 -161.5q-26 4 -63.5 10.5t-45.5 8.5q33 157 125.5 229.5t260.5 72.5q60 0 106 -8.5t80 -23.5t58.5 -41t40.5 -56 t25 -73t12.5 -88t3.5 -105v-251q0 -176 2.5 -245t9.5 -108t26 -88h-113q-19 61 -25 115l-37 15q-149 -156 -315 -156q-132 0 -210.5 79.5t-78.5 215.5zM193 275q0 -89 54.5 -142t149.5 -53q140 0 223 95t83 289v102q-56 -27 -219 -66t-200 -59v2q-43 -25 -67 -68.5 t-24 -99.5zM200 1241q3 88 46.5 140.5t105.5 52.5q23 0 109.5 -43t113.5 -43q66 0 82 91h70q-5 -97 -44 -146.5t-101 -49.5q-24 0 -113 48t-109 48q-35 0 -58 -26t-27 -72h-75z" />
<glyph unicode="&#xe4;" d="M73 269q0 66 16.5 116.5t44 83t69 56.5t85.5 37t99 25t104.5 20.5t107.5 23t104 33.5v61q0 70 -17 119t-49 77t-74 40t-97 12q-110 0 -168.5 -45.5t-86.5 -161.5q-26 4 -63.5 10.5t-45.5 8.5q33 157 125.5 229.5t260.5 72.5q60 0 106 -8.5t80 -23.5t58.5 -41t40.5 -56 t25 -73t12.5 -88t3.5 -105v-251q0 -176 2.5 -245t9.5 -108t26 -88h-113q-19 61 -25 115l-37 15q-149 -156 -315 -156q-132 0 -210.5 79.5t-78.5 215.5zM193 275q0 -89 54.5 -142t149.5 -53q140 0 223 95t83 289v102q-56 -27 -219 -66t-200 -59v2q-43 -25 -67 -68.5 t-24 -99.5zM243 1319v170h121v-170h-121zM564 1319v170h115v-170h-115z" />
<glyph unicode="&#xe5;" d="M73 269q0 66 16.5 116.5t44 83t69 56.5t85.5 37t99 25t104.5 20.5t107.5 23t104 33.5v61q0 70 -17 119t-49 77t-74 40t-97 12q-110 0 -168.5 -45.5t-86.5 -161.5q-26 4 -63.5 10.5t-45.5 8.5q33 157 125.5 229.5t260.5 72.5q60 0 106 -8.5t80 -23.5t58.5 -41t40.5 -56 t25 -73t12.5 -88t3.5 -105v-251q0 -176 2.5 -245t9.5 -108t26 -88h-113q-19 61 -25 115l-37 15q-149 -156 -315 -156q-132 0 -210.5 79.5t-78.5 215.5zM193 275q0 -89 54.5 -142t149.5 -53q140 0 223 95t83 289v102q-56 -27 -219 -66t-200 -59v2q-43 -25 -67 -68.5 t-24 -99.5zM327 1414q0 69 40.5 117.5t92.5 48.5q33 0 63 -22.5t49 -62t19 -85.5q0 -72 -37.5 -120.5t-94 -48.5t-94.5 50t-38 123zM350 1414q0 -30 9.5 -56t25 -43.5t36 -27t41.5 -9.5q28 0 53 16.5t40.5 47.5t15.5 70q0 57 -32.5 94.5t-76.5 37.5q-45 0 -78.5 -38 t-33.5 -92z" />
<glyph unicode="&#xe6;" horiz-adv-x="1490" d="M61 269q0 55 10.5 99t32 74.5t48.5 53.5t64.5 39t76 27t87.5 21.5t94 20t99.5 24t101.5 31.5l2 57q0 142 -52 199.5t-170 57.5q-116 0 -175 -46t-82 -163l-107 15q23 110 70 178t120 99t179 31q115 0 188.5 -42t115.5 -127q131 169 295 169q85 0 156.5 -39t121 -109.5 t77 -171t27.5 -221.5q0 -8 -1 -21.5t-1 -19.5h-652q3 -188 31 -251q33 -73 103 -120t148 -47q58 0 106.5 26.5t85 79t55.5 126.5l116 -19q-44 -160 -140 -243t-233 -83q-100 0 -180.5 53t-153.5 166q-182 -219 -378 -219q-129 0 -208 83h2q-80 80 -80 212zM182 275 q0 -87 52.5 -140t142.5 -53q109 0 187 61q48 39 70.5 76.5t32.5 101t10 180.5v31l-29 21q-98 -46 -268 -76q-109 -21 -153.5 -70.5t-44.5 -131.5zM787 616h541q-13 181 -84 269t-183 88q-118 0 -192 -93t-82 -264z" />
<glyph unicode="&#xe7;" horiz-adv-x="838" d="M80 532q0 135 29 241.5t81.5 174.5t124 103.5t158.5 35.5q131 0 218 -79.5t114 -234.5l-105 -18q-18 73 -50 122t-75.5 72.5t-97.5 23.5q-60 0 -110.5 -25.5t-90 -77t-61.5 -137.5t-22 -199q0 -223 75 -335t200 -112q99 0 163 66.5t83 206.5l109 -19 q-26 -164 -110.5 -256.5t-207.5 -106.5l-28 -103q72 -12 112 -49.5t40 -89.5q0 -73 -60 -122.5t-159 -49.5q-69 0 -106 9q0 13 1.5 27t3.5 29.5t3 25.5q18 -2 35 -2q95 0 138.5 23.5t43.5 73.5q0 83 -129 89l32 139q-160 10 -256 153t-96 401z" />
<glyph unicode="&#xe8;" d="M73 521q0 136 30.5 244.5t84.5 178.5t126.5 106.5t158.5 36.5q180 0 285.5 -150.5t105.5 -431.5h-678q4 -71 16 -131.5t32 -106t46.5 -80.5t58.5 -57t67.5 -32.5t75.5 -10.5q180 0 255 225l115 -19q-38 -156 -134 -237.5t-238 -81.5q-177 0 -296 139h2q-113 140 -113 408 zM195 616h551q-6 74 -22 133t-40 101t-57 69.5t-71 40.5t-83 13q-114 0 -191 -94.5t-87 -262.5zM319 1489h152l97 -250h-82z" />
<glyph unicode="&#xe9;" d="M73 521q0 136 30.5 244.5t84.5 178.5t126.5 106.5t158.5 36.5q180 0 285.5 -150.5t105.5 -431.5h-678q4 -71 16 -131.5t32 -106t46.5 -80.5t58.5 -57t67.5 -32.5t75.5 -10.5q180 0 255 225l115 -19q-38 -156 -134 -237.5t-238 -81.5q-177 0 -296 139h2q-113 140 -113 408 zM195 616h551q-6 74 -22 133t-40 101t-57 69.5t-71 40.5t-83 13q-114 0 -191 -94.5t-87 -262.5zM388 1239q19 46 49.5 124.5t48.5 125.5h148l-161 -250h-85z" />
<glyph unicode="&#xea;" d="M73 521q0 136 30.5 244.5t84.5 178.5t126.5 106.5t158.5 36.5q180 0 285.5 -150.5t105.5 -431.5h-678q4 -71 16 -131.5t32 -106t46.5 -80.5t58.5 -57t67.5 -32.5t75.5 -10.5q180 0 255 225l115 -19q-38 -156 -134 -237.5t-238 -81.5q-177 0 -296 139h2q-113 140 -113 408 zM195 616h551q-6 74 -22 133t-40 101t-57 69.5t-71 40.5t-83 13q-114 0 -191 -94.5t-87 -262.5zM266 1239q33 50 83 129.5t76 120.5h141l163 -250h-124l-104 200l-110 -200h-125z" />
<glyph unicode="&#xeb;" d="M73 521q0 136 30.5 244.5t84.5 178.5t126.5 106.5t158.5 36.5q180 0 285.5 -150.5t105.5 -431.5h-678q4 -71 16 -131.5t32 -106t46.5 -80.5t58.5 -57t67.5 -32.5t75.5 -10.5q180 0 255 225l115 -19q-38 -156 -134 -237.5t-238 -81.5q-177 0 -296 139h2q-113 140 -113 408 zM195 616h551q-6 74 -22 133t-40 101t-57 69.5t-71 40.5t-83 13q-114 0 -191 -94.5t-87 -262.5zM259 1319v170h118v-170h-118zM575 1319v170h121v-170h-121z" />
<glyph unicode="&#xec;" horiz-adv-x="465" d="M57 1489h152l97 -250h-81zM189 0v1061h111v-1061h-111z" />
<glyph unicode="&#xed;" horiz-adv-x="465" d="M159 1239q17 46 47.5 124.5t47.5 125.5h151l-162 -250h-84zM189 0v1061h108v-1061h-108z" />
<glyph unicode="&#xee;" horiz-adv-x="465" d="M18 1239q18 28 41 64.5t39 61.5t37 58.5t40 65.5h141l166 -250h-125l-105 200l-109 -200h-125zM189 0v1061h111v-1061h-111z" />
<glyph unicode="&#xef;" horiz-adv-x="465" d="M20 1319v170h169l-50 -170h-119zM189 0v1061h111v-1061h-111zM336 1319v170h121v-170h-121z" />
<glyph unicode="&#xf0;" d="M70 514q0 105 18.5 194t52 153.5t79 110t100 67.5t114.5 22q39 0 57 -3.5t55.5 -23t112.5 -68.5q-74 184 -158 303l-228 -130l-25 71l212 115q-74 83 -156 155h121q46 -39 111 -109q31 18 92.5 51.5t83.5 46.5l25 -64l-153 -89q282 -394 282 -793q0 -124 -30 -227.5 t-82.5 -173.5t-126 -109t-159.5 -39q-70 0 -130.5 21.5t-110 65.5t-84.5 107.5t-54 151.5t-19 194zM186 512q0 -107 22 -190t61 -134.5t89.5 -77.5t109.5 -26t110 29.5t89.5 84.5t60.5 140t22 189q0 200 -81.5 316t-204.5 116q-125 0 -201.5 -114t-76.5 -333z" />
<glyph unicode="&#xf1;" d="M125 0v1061h96v-147l33 -9q97 182 273 182q66 0 124 -27t95 -71q40 -49 55 -115t15 -217v-657h-111v650q0 168 -51 240.5t-159 72.5q-123 0 -192 -91.5t-69 -289.5v-582h-109zM230 1241q3 87 45.5 140t104.5 53q23 0 108.5 -43t116.5 -43q62 0 79 91h73 q-6 -97 -46 -146.5t-102 -49.5q-22 0 -112 48t-111 48q-35 0 -58 -26t-26 -72h-72z" />
<glyph unicode="&#xf2;" d="M65 529q0 135 30.5 241.5t85 175.5t128 105t162.5 36q84 0 156.5 -36t127.5 -103t86 -172t31 -235q0 -142 -30.5 -251.5t-85 -177.5t-127 -103t-158.5 -35q-87 0 -160 36t-128 104t-86.5 174.5t-31.5 240.5zM182 529q0 -109 22.5 -194.5t62.5 -139t92.5 -81t113.5 -27.5 q124 0 204 117t80 325q0 110 -23 196t-63 139.5t-92 81t-113 27.5q-59 0 -110.5 -28.5t-90 -82.5t-61 -140t-22.5 -193zM306 1489h154l97 -250h-82z" />
<glyph unicode="&#xf3;" d="M65 529q0 135 30.5 241.5t85 175.5t128 105t162.5 36q84 0 156.5 -36t127.5 -103t86 -172t31 -235q0 -142 -30.5 -251.5t-85 -177.5t-127 -103t-158.5 -35q-87 0 -160 36t-128 104t-86.5 174.5t-31.5 240.5zM182 529q0 -109 22.5 -194.5t62.5 -139t92.5 -81t113.5 -27.5 q124 0 204 117t80 325q0 110 -23 196t-63 139.5t-92 81t-113 27.5q-59 0 -110.5 -28.5t-90 -82.5t-61 -140t-22.5 -193zM386 1239q23 55 57 143t41 107h148l-159 -250h-87z" />
<glyph unicode="&#xf4;" d="M65 529q0 135 30.5 241.5t85 175.5t128 105t162.5 36q84 0 156.5 -36t127.5 -103t86 -172t31 -235q0 -142 -30.5 -251.5t-85 -177.5t-127 -103t-158.5 -35q-87 0 -160 36t-128 104t-86.5 174.5t-31.5 240.5zM182 529q0 -109 22.5 -194.5t62.5 -139t92.5 -81t113.5 -27.5 q124 0 204 117t80 325q0 110 -23 196t-63 139.5t-92 81t-113 27.5q-59 0 -110.5 -28.5t-90 -82.5t-61 -140t-22.5 -193zM236 1239q20 31 71.5 114.5t85.5 135.5h141l166 -250h-125l-104 200l-109 -200h-126z" />
<glyph unicode="&#xf5;" d="M65 529q0 135 30.5 241.5t85 175.5t128 105t162.5 36q84 0 156.5 -36t127.5 -103t86 -172t31 -235q0 -142 -30.5 -251.5t-85 -177.5t-127 -103t-158.5 -35q-87 0 -160 36t-128 104t-86.5 174.5t-31.5 240.5zM182 529q0 -109 22.5 -194.5t62.5 -139t92.5 -81t113.5 -27.5 q124 0 204 117t80 325q0 110 -23 196t-63 139.5t-92 81t-113 27.5q-59 0 -110.5 -28.5t-90 -82.5t-61 -140t-22.5 -193zM195 1241q4 88 47 140.5t103 52.5q25 0 112 -43t114 -43q22 0 38 10t26.5 29.5t17.5 51.5h70q-7 -97 -46.5 -146.5t-101.5 -49.5q-19 0 -110 48t-111 48 q-35 0 -57.5 -25.5t-27.5 -72.5h-74z" />
<glyph unicode="&#xf6;" d="M65 529q0 135 30.5 241.5t85 175.5t128 105t162.5 36q84 0 156.5 -36t127.5 -103t86 -172t31 -235q0 -142 -30.5 -251.5t-85 -177.5t-127 -103t-158.5 -35q-87 0 -160 36t-128 104t-86.5 174.5t-31.5 240.5zM182 529q0 -109 22.5 -194.5t62.5 -139t92.5 -81t113.5 -27.5 q124 0 204 117t80 325q0 110 -23 196t-63 139.5t-92 81t-113 27.5q-59 0 -110.5 -28.5t-90 -82.5t-61 -140t-22.5 -193zM243 1319v170h121v-170h-121zM564 1319v170h115v-170h-115z" />
<glyph unicode="&#xf7;" horiz-adv-x="1122" d="M91 664v132h961v-132h-961zM486 332v171h171v-171h-171zM486 957v173h171v-173h-171z" />
<glyph unicode="&#xf8;" horiz-adv-x="1024" d="M128 514q0 141 30 251.5t84 180t126.5 105.5t158.5 36q64 0 124 -23t136 -77l81 132q9 -8 18.5 -17t17 -16t14.5 -13l-86 -138q64 -107 83.5 -191.5t19.5 -214.5q0 -108 -19.5 -198.5t-55.5 -156t-87 -110.5t-114 -67.5t-136 -22.5q-121 0 -239 94l-89 -138l-47 44 l88 144q-67 97 -87.5 184.5t-20.5 211.5zM243 534q0 -160 61 -309l416 660q-95 88 -191 88q-58 0 -109.5 -28t-91 -81t-62.5 -138t-23 -192zM350 171q81 -84 175 -84q62 0 114.5 27.5t93 81.5t63 140.5t22.5 197.5q0 61 -3.5 95.5t-14.5 75.5t-39 120z" />
<glyph unicode="&#xf9;" d="M121 397v664h111v-590q0 -183 18 -235q21 -63 71.5 -102t116.5 -39q262 0 262 396v570h111v-1061h-95v152l-32 9q-104 -187 -274 -187q-81 0 -137.5 27.5t-89.5 83t-47.5 131.5t-14.5 181zM252 1489h153l98 -250h-82z" />
<glyph unicode="&#xfa;" d="M121 397v664h111v-590q0 -183 18 -235q21 -63 71.5 -102t116.5 -39q262 0 262 396v570h111v-1061h-95v152l-32 9q-104 -187 -274 -187q-81 0 -137.5 27.5t-89.5 83t-47.5 131.5t-14.5 181zM386 1239q23 55 57 143t41 107h232l-243 -250h-87z" />
<glyph unicode="&#xfb;" d="M121 397v664h111v-590q0 -183 18 -235q21 -63 71.5 -102t116.5 -39q262 0 262 396v570h111v-1061h-95v152l-32 9q-104 -187 -274 -187q-81 0 -137.5 27.5t-89.5 83t-47.5 131.5t-14.5 181zM243 1239q20 31 71.5 114.5t85.5 135.5h141l175 -250h-134l-107 200l-106 -200 h-126z" />
<glyph unicode="&#xfc;" d="M121 397v664h111v-590q0 -183 18 -235q21 -63 71.5 -102t116.5 -39q262 0 262 396v570h111v-1061h-95v152l-32 9q-104 -187 -274 -187q-81 0 -137.5 27.5t-89.5 83t-47.5 131.5t-14.5 181zM252 1319v170h119v-170h-119zM571 1319v170h145l-27 -170h-118z" />
<glyph unicode="&#xfd;" horiz-adv-x="838" d="M48 1061h121l185 -625q45 -160 67 -261h36q28 145 64 257l188 629h111q-47 -156 -162 -526t-174 -569q-33 -109 -59 -179.5t-50.5 -118.5t-52 -72.5t-56 -33.5t-68.5 -9q-38 0 -80 15l-11 135q29 -9 64 -9q53 0 89 22t63 68q3 5 9.5 27t22 71.5t29.5 95.5zM343 1239 q69 175 100 250h145l-158 -250h-87z" />
<glyph unicode="&#xfe;" d="M123 -423v1903h111v-578q34 44 60 75t49.5 51.5t41 32t39 17.5t38 7.5t43.5 1.5q74 0 139 -35.5t114.5 -102t78.5 -170.5t29 -233q0 -107 -19.5 -199t-54.5 -159.5t-81.5 -116t-102 -73t-115.5 -24.5q-29 0 -46 2.5t-42 11.5t-47.5 28t-53.5 53t-70 85v-577h-111z M221 523q0 -212 73.5 -324t189.5 -112q53 0 100.5 28t85.5 82t60.5 141.5t22.5 197.5q0 109 -21.5 195.5t-59 140.5t-85.5 82t-103 28q-102 0 -187 -123h3q-79 -112 -79 -336z" />
<glyph unicode="&#xff;" horiz-adv-x="838" d="M48 1061h121l185 -625q45 -160 67 -261h36q28 145 64 257l188 629h111q-47 -156 -162 -526t-174 -569q-33 -109 -59 -179.5t-50.5 -118.5t-52 -72.5t-56 -33.5t-68.5 -9q-38 0 -80 15l-11 135q29 -9 64 -9q53 0 89 22t63 68q3 5 9.5 27t22 71.5t29.5 95.5zM204 1319v170 h121v-170h-121zM523 1319v170h119v-170h-119z" />
<glyph unicode="&#x2da;" horiz-adv-x="854" d="M221 1421q0 86 67.5 151t162.5 65q92 0 160 -65.5t68 -152.5q0 -60 -30.5 -112t-83 -83t-112.5 -31q-101 0 -166.5 66.5t-65.5 161.5zM304 1421q0 -53 44.5 -91.5t104.5 -38.5q39 0 72 17t52 46.5t19 64.5q0 48 -42 85.5t-101 37.5q-60 0 -104.5 -36t-44.5 -85z" />
<glyph unicode="&#x2dc;" horiz-adv-x="818" d="M32 1423q43 209 227 209q23 0 90.5 -25.5t142 -51t115.5 -25.5q58 0 89 22t45 83h82q-15 -102 -71 -156t-138 -54q-39 0 -175 54.5t-170 54.5q-121 0 -146 -111h-91z" />
<glyph unicode="&#x401;" horiz-adv-x="1117" d="M148 0v1464h852v-136h-729v-503h681v-133h-681v-555h759v-137h-882zM360 1687v168h115v-168h-115zM673 1687v168h118v-168h-118z" />
<glyph unicode="&#x410;" horiz-adv-x="1117" d="M18 0l459 1464h148l492 -1464h-144l-143 455h-546l-136 -455h-130zM319 577h475l-139 444q-62 191 -89 318l-37 -3q-35 -194 -65 -290z" />
<glyph unicode="&#x411;" horiz-adv-x="1100" d="M152 0v1464h762v-136h-639v-505h316q225 0 337.5 -95.5t112.5 -311.5q0 -213 -105.5 -314.5t-319.5 -101.5h-464zM275 130h348q141 0 212.5 66.5t71.5 215.5q0 61 -9.5 103t-34.5 78t-69 57t-113 32.5t-167 11.5h-239v-564z" />
<glyph unicode="&#x412;" horiz-adv-x="1117" d="M141 0v1464h441q181 0 286 -95.5t105 -268.5q0 -66 -23.5 -126t-68.5 -110t-108 -89q122 -45 190.5 -138t68.5 -221q0 -203 -109.5 -309.5t-334.5 -106.5h-447zM262 137h326q166 0 240 67.5t74 211.5q0 139 -79 209.5t-255 70.5h-306v-559zM262 832h289q159 0 230 56 t71 190q0 65 -14 109.5t-50 77t-99.5 48t-159.5 15.5h-267v-496z" />
<glyph unicode="&#x413;" horiz-adv-x="894" d="M148 0v1466h709v-138h-584v-1328h-125z" />
<glyph unicode="&#x414;" horiz-adv-x="1136" d="M13 137h87q159 290 159 1130v197h709v-1327h112v-489h-107v352h-855v-352h-105v489zM259 137h587v1191h-471v-96q0 -37 -1.5 -78.5t-5 -99.5t-6 -97.5t-8.5 -123t-9 -124.5q-7 -101 -23.5 -217t-27.5 -175t-35 -180z" />
<glyph unicode="&#x415;" horiz-adv-x="1117" d="M148 0v1464h852v-136h-729v-503h681v-133h-681v-555h759v-137h-882z" />
<glyph unicode="&#x416;" horiz-adv-x="1547" d="M28 0l241 473q111 217 269 273q-31 16 -50 26t-40 24.5t-32.5 25.5t-26 30.5t-23.5 37t-22 47.5t-23 60.5t-26 78.5q-20 60 -35.5 101t-32.5 70t-31 45.5t-34.5 25.5t-39.5 11.5t-49 2.5h-45v132q50 0 75 -0.5t59.5 -5.5t50 -12.5t39.5 -25.5t37 -40t33.5 -61t37.5 -82.5 t42 -110.5q0 -2 2 -6q24 -66 34.5 -94.5t29.5 -71.5t28.5 -57.5t29 -38t34.5 -29t41.5 -14t53.5 -9.5t68 -1v659h127v-659q40 0 68.5 2t54.5 11.5t42.5 17t35.5 31t29 39t27.5 56.5t27 68t31.5 88q1 2 1 2.5t0.5 2t1.5 3.5q2 6 7 18q18 52 27 75.5t24.5 61.5t23.5 53 t23.5 40t27 33t31.5 22.5t38.5 17.5t46 9t57.5 7t69 1v-132h-50q-29 0 -49.5 -3.5t-40.5 -14t-35 -28t-31 -46.5t-30.5 -68.5t-32.5 -95.5q-17 -51 -28.5 -82.5t-26 -63t-21.5 -47.5t-23.5 -36t-24.5 -28t-31 -23.5t-37 -23t-48 -26.5q158 -55 268 -273q42 -83 241 -473 h-160q-40 78 -106 211q-61 123 -88 175.5t-68 124.5t-64 96.5t-58.5 54t-69 36.5t-80.5 7v-705h-127v705q-44 0 -76.5 -5.5t-61.5 -24t-48 -34t-46 -56.5t-43.5 -70t-51.5 -95q-3 -5 -4 -8t-3.5 -7t-4.5 -8l-200 -397h-156z" />
<glyph unicode="&#x417;" horiz-adv-x="1013" d="M82 391l116 36q11 -56 38 -111.5t66.5 -103.5t95 -78t116.5 -30q132 0 216 85t84 213q0 135 -89 214h2q-88 78 -229 78h-57v131q48 1 88 7.5t77 19t65.5 33t49.5 49t32 68.5t11 89q0 50 -17 97.5t-48 85.5t-79.5 61t-107.5 23q-68 0 -123.5 -30.5t-91.5 -80t-56.5 -110 t-24.5 -124.5l-114 33q58 445 412 445q67 0 126.5 -21.5t103.5 -58.5t76 -86t48.5 -106.5t16.5 -118.5q0 -198 -185 -334q124 -40 184 -131.5t60 -224.5q0 -124 -53.5 -223t-152 -156t-224.5 -57q-331 0 -432 417z" />
<glyph unicode="&#x418;" horiz-adv-x="1204" d="M148 0v1464h106v-1180l35 -9q127 229 362 655.5t295 533.5h130v-1464h-108v1180l-33 7l-657 -1187h-130z" />
<glyph unicode="&#x419;" horiz-adv-x="1204" d="M148 0v1464h106v-1180l35 -9q127 229 362 655.5t295 533.5h130v-1464h-108v1180l-33 7l-657 -1187h-130zM412 1833h61q30 -139 159 -139q70 0 111 33t57 106h61q-9 -75 -40.5 -126t-78.5 -75.5t-108 -24.5q-91 0 -149.5 57t-72.5 169z" />
<glyph unicode="&#x41a;" horiz-adv-x="974" d="M148 0v1464h123v-659q30 0 52 0.5t43.5 5.5t36 9t31 16.5t26.5 21.5t24 32t22.5 40.5t23 53t25 63.5t29.5 79q17 49 28 80t25.5 67t26.5 57t27.5 44.5t31.5 36.5t36 26t44 18.5t52 9.5t63 4q26 0 41 -3v-134h-50q-28 0 -44.5 -2t-37 -10t-34.5 -24t-32 -44.5t-35 -71.5 t-37 -104q-16 -50 -27 -82t-24.5 -63t-21 -47.5t-23 -35.5t-24 -28t-31 -23t-36.5 -21.5t-47 -24.5l-10 -5q51 -17 99.5 -53.5t92.5 -92t81 -127.5l239 -473h-157q-207 407 -259 496q-85 147 -148 185q-39 24 -87 24q-10 0 -35 -2v-703h-123z" />
<glyph unicode="&#x41b;" horiz-adv-x="1100" d="M32 -7l20 132q33 -12 52 -12q27 0 43.5 4.5t35.5 22.5t29.5 50.5t17 91.5t6.5 143v1039h732v-1464h-122v1328h-486v-796q0 -102 -4 -176.5t-13.5 -139.5t-25.5 -108t-40.5 -74.5t-58.5 -45.5t-79 -14q-49 0 -107 19z" />
<glyph unicode="&#x41c;" horiz-adv-x="1397" d="M139 0v1464h208l353 -1327h31q19 74 69 249l291 1078h184v-1464h-116v1380l-38 -130q-40 -143 -110.5 -394t-129.5 -461t-113 -395h-115l-399 1403v-1403h-115z" />
<glyph unicode="&#x41d;" horiz-adv-x="1211" d="M143 0v1464h123v-618h684v618h123v-1464h-123v709h-684v-709h-123z" />
<glyph unicode="&#x41e;" horiz-adv-x="1304" d="M98 712q0 183 44 332t121 246t180.5 149t224.5 52q117 0 221 -51.5t181.5 -145t123 -236t45.5 -314.5t-42 -316t-116.5 -243.5t-180.5 -155t-232 -55.5q-122 0 -228.5 57.5t-181.5 156t-117.5 234.5t-42.5 290zM225 709q0 -140 35 -255.5t95 -191t140 -117t171 -41.5 q96 0 177 42t141 120.5t93.5 198.5t33.5 270q0 198 -65 356h2q-30 76 -89.5 138t-135.5 97.5t-153 35.5q-95 0 -174.5 -39.5t-140.5 -117.5t-95.5 -204.5t-34.5 -291.5z" />
<glyph unicode="&#x41f;" horiz-adv-x="1211" d="M150 0v1464h930v-1464h-123v1328h-682v-1328h-125z" />
<glyph unicode="&#x420;" horiz-adv-x="1117" d="M145 0v1464h446q239 0 347 -98t108 -314q0 -101 -23.5 -179t-74 -137.5t-137 -90.5t-206.5 -31h-336v-614h-124zM269 748h340q160 0 234.5 73t74.5 222q0 100 -36 164v-3q-39 75 -93 99h2q-57 25 -186 25h-336v-580z" />
<glyph unicode="&#x421;" horiz-adv-x="1211" d="M95 744q0 176 42.5 318.5t118 235.5t177 143t220.5 50q112 0 204.5 -45t161 -136.5t102.5 -222.5l-123 -37q-89 312 -343 312q-96 0 -174 -37.5t-136 -112t-90 -193.5t-32 -275q0 -315 112 -477.5t307 -162.5q139 0 239 97t135 281l125 -39q-54 -231 -182.5 -350 t-314.5 -119q-168 0 -282 80v-2q-121 83 -194 267.5t-73 424.5z" />
<glyph unicode="&#x422;" horiz-adv-x="1024" d="M54 1328v136h939v-136h-409v-1328h-120v1328h-410z" />
<glyph unicode="&#x423;" horiz-adv-x="1063" d="M32 1464h120l419 -955l364 955h117q-50 -126 -208.5 -525.5t-242.5 -615.5q-46 -115 -76 -179t-62.5 -102.5t-63 -50t-78.5 -11.5q-56 0 -137 29v121q57 -32 118 -32q29 0 49.5 5t42.5 21.5t41.5 47.5t41 81.5t46.5 126.5z" />
<glyph unicode="&#x424;" horiz-adv-x="1274" d="M80 739q0 241 141 389h-2q143 147 372 156v180h112v-180q162 -11 278 -83.5t173.5 -190.5t57.5 -271q0 -112 -33 -207.5t-96 -168.5t-160.5 -117.5t-219.5 -52.5v-193h-112v193q-229 10 -372 157h2q-141 147 -141 389zM206 739q0 -189 101 -296.5t284 -117.5v829 q-186 -10 -285 -119v2q-100 -112 -100 -298zM703 325q183 10 282 115t99 299q0 189 -97 295.5t-284 119.5v-829z" />
<glyph unicode="&#x425;" horiz-adv-x="1117" d="M37 0l466 764q-46 79 -129 219.5t-152 259t-129 221.5h146l221 -375q65 -112 113 -223q36 68 72.5 132t75 126.5t68 109t74 117t72.5 113.5h126l-419 -689q75 -128 227 -387.5t227 -387.5h-152l-308 525q-38 69 -70 139q-62 -123 -78 -150l-304 -514h-147z" />
<glyph unicode="&#x426;" horiz-adv-x="1240" d="M145 0v1464h124v-1327h683v1327h124v-1327h111v-555h-103v418h-939z" />
<glyph unicode="&#x427;" horiz-adv-x="1117" d="M87 1041v423h122v-403q0 -224 68 -323.5t205 -99.5q178 0 382 101v725h123v-1464h-123v618q-240 -111 -404 -111q-83 0 -146.5 25t-106 70t-70 112t-39 147t-11.5 180z" />
<glyph unicode="&#x428;" horiz-adv-x="1538" d="M143 0v1464h126v-1327h449v1327h123v-1327h452v1327h121v-1464h-1271z" />
<glyph unicode="&#x429;" horiz-adv-x="1572" d="M143 0v1464h123v-1327h450v1327h125v-1327h450v1327h123v-1327h111v-555h-104v418h-1278z" />
<glyph unicode="&#x42a;" horiz-adv-x="1327" d="M11 1328v136h498v-644h316q110 0 191.5 -21t141.5 -68t90 -126t30 -191q0 -66 -12 -123.5t-43 -112t-79.5 -93t-127 -62t-179.5 -23.5h-451v1328h-375zM509 130h321q82 0 140.5 16t97.5 50.5t57 88t18 129.5q0 95 -47 168q-33 46 -71.5 69t-100 32t-176.5 9h-239v-562z " />
<glyph unicode="&#x42b;" horiz-adv-x="1566" d="M148 0v1464h123v-644h313q74 0 134.5 -9t112 -29t90 -52t65 -76.5t40 -104t13.5 -133.5q0 -66 -12 -123.5t-43 -112.5t-79.5 -94t-126.5 -62.5t-180 -23.5h-450zM271 130h317q164 0 239 67t75 219q0 104 -35.5 162.5t-120.5 86t-237 27.5h-238v-562zM1308 0v1464h122 v-1464h-122z" />
<glyph unicode="&#x42c;" horiz-adv-x="1100" d="M150 0v1464h123v-644h315q110 0 191.5 -21t141.5 -68t90 -125.5t30 -189.5q0 -67 -11.5 -124.5t-42.5 -112.5t-79 -93.5t-126.5 -62t-180.5 -23.5h-451zM273 130h321q163 0 237 67t74 219q0 95 -46 168q-29 44 -67 66.5t-101 32t-177 9.5h-241v-562z" />
<glyph unicode="&#x42d;" horiz-adv-x="1204" d="M89 438q19 6 55.5 18.5t59.5 18.5q23 -106 61 -180.5t88.5 -116.5t108 -60t129.5 -18q177 0 289 159v-3q111 159 118 433h-457v136h452q-26 268 -135.5 400.5t-282.5 132.5q-271 0 -350 -312q-113 38 -121 41q49 196 172 300t299 104q103 0 192 -39.5t154.5 -108.5 t112.5 -162.5t70.5 -203.5t23.5 -229q0 -126 -21 -239.5t-65 -211.5t-107 -169.5t-153 -112.5t-198 -41q-198 0 -322 117t-173 347z" />
<glyph unicode="&#x42e;" horiz-adv-x="1692" d="M145 0v1464h124v-675h279q9 161 52.5 293.5t113.5 221.5t165 138t205 49t207.5 -50.5t171.5 -143.5t117 -237t43 -319q0 -230 -67.5 -404.5t-191 -268.5t-284.5 -94q-118 0 -213 50.5t-159.5 141.5t-104 214.5t-52.5 274.5h-282v-655h-124zM670 725q0 -289 113 -455 t299 -166q192 0 303 167t111 466q0 296 -111.5 461.5t-297.5 165.5q-190 0 -303.5 -168t-113.5 -471z" />
<glyph unicode="&#x42f;" horiz-adv-x="1211" d="M50 0l200 380q4 8 17.5 34t17 32.5t15.5 28t18.5 28.5t20 25.5t24.5 28t28.5 26t36 29.5t42.5 29.5t53 33.5q-94 16 -166 50.5t-120 85t-73 117.5t-25 148q0 196 98 292t320 96h527v-1464h-123v668h-208q-85 0 -139 -24q-38 -20 -68 -50.5t-72.5 -99t-107.5 -192.5 l-157 -302h-159zM266 1073q0 -273 322 -273h373v539h-410q-94 0 -158 -32t-95.5 -91t-31.5 -143z" />
<glyph unicode="&#x430;" d="M73 269q0 66 16.5 116.5t44 83t69 56.5t85.5 37t99 25t104.5 20.5t107.5 23t104 33.5v61q0 70 -17 119t-49 77t-74 40t-97 12q-110 0 -168.5 -45.5t-86.5 -161.5q-26 4 -63.5 10.5t-45.5 8.5q33 157 125.5 229.5t260.5 72.5q60 0 106 -8.5t80 -23.5t58.5 -41t40.5 -56 t25 -73t12.5 -88t3.5 -105v-251q0 -176 2.5 -245t9.5 -108t26 -88h-113q-19 61 -25 115l-37 15q-149 -156 -315 -156q-132 0 -210.5 79.5t-78.5 215.5zM193 275q0 -89 54.5 -142t149.5 -53q140 0 223 95t83 289v102q-56 -27 -219 -66t-200 -59v2q-43 -25 -67 -68.5 t-24 -99.5z" />
<glyph unicode="&#x431;" horiz-adv-x="961" d="M89 753q0 434 115 583v-2q119 146 360 146q63 0 94 0.5t56.5 2t35.5 6.5t16 10t13 17h103q-4 -43 -9.5 -69.5t-19.5 -49t-32 -34t-51.5 -19.5t-74 -10t-104.5 -2q-85 0 -146.5 -10t-107.5 -34.5t-75 -59t-47 -89.5t-25.5 -119.5t-9.5 -155.5l34 -12q112 209 295 209 q86 0 158.5 -39t123.5 -108t80 -168t29 -217q0 -89 -16.5 -171.5t-49.5 -152t-79.5 -121t-110.5 -81t-139 -29.5q-142 0 -230 78q-49 43 -80.5 90.5t-57 126t-37 196.5t-11.5 288zM221 501q0 -198 80.5 -307.5t205.5 -109.5q120 0 198 124t78 326q0 192 -78 301h2 q-75 113 -202 113q-88 0 -152 -52.5t-98 -153t-34 -241.5z" />
<glyph unicode="&#x432;" horiz-adv-x="890" d="M128 0v1061h332q46 0 85 -4.5t77.5 -15.5t67 -31.5t51 -49.5t34.5 -72.5t12 -98.5q0 -146 -128 -238q168 -76 168 -265q0 -61 -17 -111t-52.5 -90t-97.5 -62.5t-146 -22.5h-386zM236 111h226q92 0 147.5 21t79 60.5t23.5 102.5q0 67 -24 107.5t-83 61t-160 20.5h-209 v-373zM236 598h187q49 0 85.5 4.5t68.5 16t52.5 31t32 50t11.5 73.5q0 98 -55.5 136.5t-190.5 38.5h-191v-350z" />
<glyph unicode="&#x433;" horiz-adv-x="612" d="M130 0v1061h479v-113h-368v-948h-111z" />
<glyph unicode="&#x434;" horiz-adv-x="976" d="M11 111h73q164 273 164 950h589v-950h98v-425h-85v314h-755v-314h-84v425zM186 111h539v837h-391q-8 -279 -44.5 -487.5t-103.5 -349.5z" />
<glyph unicode="&#x435;" d="M73 521q0 136 30.5 244.5t84.5 178.5t126.5 106.5t158.5 36.5q180 0 285.5 -150.5t105.5 -431.5h-678q4 -71 16 -131.5t32 -106t46.5 -80.5t58.5 -57t67.5 -32.5t75.5 -10.5q180 0 255 225l115 -19q-38 -156 -134 -237.5t-238 -81.5q-177 0 -296 139h2q-113 140 -113 408 zM195 616h551q-6 74 -22 133t-40 101t-57 69.5t-71 40.5t-83 13q-114 0 -191 -94.5t-87 -262.5z" />
<glyph unicode="&#x436;" horiz-adv-x="1122" d="M18 0l155 312q44 90 101.5 147.5t122.5 78.5q-28 17 -45 27.5t-35 24.5t-26.5 21t-20.5 24t-16.5 26t-14 34t-15 41t-16.5 54q-4 12 -6.5 19t-6 19t-6.5 22q-20 58 -45 78t-81 20h-22l2 113q57 0 89.5 -6.5t51.5 -20t37 -41.5q28 -60 52.5 -122.5t36.5 -99t27 -73 t27.5 -55t33.5 -34t48.5 -20.5t69.5 -5v477h113v-477q38 0 60 1.5t43.5 13t32 21t27.5 43.5t27 60.5t34 90.5q1 4 2 6.5t2 6t2 5.5q4 10 10 29q13 34 18.5 49.5t15.5 40.5t15 34t15 24.5t17 20t19.5 13t23.5 10t29.5 5t36 3.5h43.5l2 -113h-24q-55 0 -81 -19t-44 -79 q-6 -19 -16 -52q-12 -40 -17.5 -57t-15 -43t-14.5 -35.5t-17 -27t-20.5 -24t-27 -20.5t-35.5 -24t-46 -26q135 -45 227 -229l153 -312h-121l-159 330q-53 108 -96 143.5t-121 35.5v-509h-113v509q-32 0 -55 -4t-44.5 -14.5t-40 -31t-37.5 -51.5t-42 -78l-156 -330h-123z" />
<glyph unicode="&#x437;" horiz-adv-x="768" d="M57 275l104 25q29 -103 90 -159.5t144 -56.5q89 0 145 61t56 148q0 74 -34 128v-3q-27 36 -51.5 53t-58 23.5t-95.5 6.5l-27 -3v107q114 0 171.5 39.5t57.5 142.5q0 85 -47 135.5t-121 50.5q-136 0 -198 -182l-104 23q71 273 304 273q86 0 152.5 -43t100 -112.5 t33.5 -152.5q0 -120 -120 -215q150 -102 150 -278q0 -142 -84.5 -227t-231.5 -85q-281 0 -336 301z" />
<glyph unicode="&#x438;" horiz-adv-x="937" d="M128 0v1061h108v-829l37 -9q69 138 212.5 419.5t212.5 418.5h129v-1061h-111v823l-34 9q-70 -136 -213 -415.5t-213 -416.5h-128z" />
<glyph unicode="&#x439;" d="M128 0v1061h108v-829l37 -9q69 138 212.5 419.5t212.5 418.5h129v-1061h-111v823l-34 9q-70 -136 -213 -415.5t-213 -416.5h-128zM243 1477h63q34 -141 162 -141q70 0 110.5 34t57.5 107h64q-14 -111 -74 -169t-153 -58q-62 0 -110 25t-79 76.5t-41 125.5z" />
<glyph unicode="&#x43a;" horiz-adv-x="733" d="M128 0v1061h108v-477q109 0 141 41q10 11 43 95t69 172t49 108h-2q29 39 61 50t115 11l2 -113h-25q-56 0 -82 -21t-43 -77q-7 -20 -18 -56q-10 -32 -14 -46t-12.5 -37t-12 -32t-12 -25t-14 -22t-16 -18.5t-19.5 -18t-24.5 -16t-30.5 -19t-37 -19.5q132 -45 228 -229 l153 -312h-121l-159 330q-51 107 -94.5 143t-124.5 36v-509h-108z" />
<glyph unicode="&#x43b;" horiz-adv-x="976" d="M32 -2v115q89 3 111 12q2 1 6 2q16 3 23 8t15 26.5t10.5 67t2.5 125.5v707h672v-1061h-113v948h-445v-571q0 -63 -0.5 -98t-3 -80t-7 -68t-13.5 -51t-22 -40.5t-32 -25t-44 -17t-58 -4.5q-29 0 -102 5z" />
<glyph unicode="&#x43c;" horiz-adv-x="1152" d="M130 0v1061h202l252 -936l280 936h184v-1061h-113v872l-37 6l-266 -878h-107l-247 920l-42 -6v-914h-106z" />
<glyph unicode="&#x43d;" horiz-adv-x="924" d="M128 0v1061h108v-458h469v458h111v-1061h-111v488h-469v-488h-108z" />
<glyph unicode="&#x43e;" d="M65 529q0 135 30.5 241.5t85 175.5t128 105t162.5 36q84 0 156.5 -36t127.5 -103t86 -172t31 -235q0 -142 -30.5 -251.5t-85 -177.5t-127 -103t-158.5 -35q-87 0 -160 36t-128 104t-86.5 174.5t-31.5 240.5zM182 529q0 -109 22.5 -194.5t62.5 -139t92.5 -81t113.5 -27.5 q124 0 204 117t80 325q0 110 -23 196t-63 139.5t-92 81t-113 27.5q-59 0 -110.5 -28.5t-90 -82.5t-61 -140t-22.5 -193z" />
<glyph unicode="&#x43f;" horiz-adv-x="909" d="M128 0v1061h672v-1061h-111v948h-450v-948h-111z" />
<glyph unicode="&#x440;" d="M123 -423v1484h100v-200q69 118 137 172t145 54q74 0 139 -35.5t114.5 -102t78.5 -170.5t29 -233q0 -133 -30 -243t-81.5 -181t-119 -109.5t-142.5 -38.5q-130 0 -259 187v-584h-111zM221 523q0 -212 73.5 -324t189.5 -112q53 0 100.5 28t85.5 82t60.5 141.5t22.5 197.5 q0 109 -21.5 195.5t-59 140.5t-85.5 82t-103 28q-102 0 -187 -123h3q-79 -112 -79 -336z" />
<glyph unicode="&#x441;" horiz-adv-x="838" d="M80 532q0 135 29 241.5t81.5 174.5t124 103.5t158.5 35.5q131 0 218 -79.5t114 -234.5l-105 -18q-18 73 -50 122t-75.5 72.5t-97.5 23.5q-60 0 -110.5 -25.5t-90 -77t-61.5 -137.5t-22 -199q0 -223 75 -335t200 -112q99 0 163 66.5t83 206.5l109 -19 q-29 -178 -125 -272.5t-232 -94.5q-84 0 -154 35t-122 103t-81 175t-29 245z" />
<glyph unicode="&#x442;" horiz-adv-x="768" d="M46 948v113h693v-113h-292v-948h-113v948h-288z" />
<glyph unicode="&#x443;" horiz-adv-x="838" d="M48 1061h121l185 -625q45 -160 67 -261h36q28 145 64 257l188 629h111q-47 -156 -162 -526t-174 -569q-33 -109 -59 -179.5t-50.5 -118.5t-52 -72.5t-56 -33.5t-68.5 -9q-38 0 -80 15l-11 135q29 -9 64 -9q53 0 89 22t63 68q3 5 9.5 27t22 71.5t29.5 95.5z" />
<glyph unicode="&#x444;" horiz-adv-x="1379" d="M73 541q0 108 18.5 199t50.5 154t74.5 107.5t90 65t98.5 20.5q123 0 243 -182v575h113v-571q128 178 248 178q95 0 169.5 -69.5t116 -196.5t41.5 -289q0 -159 -42.5 -286.5t-119 -199.5t-172.5 -72q-114 0 -241 160v-557h-113v560q-125 -163 -243 -163q-95 0 -171 72.5 t-118.5 202t-42.5 292.5zM186 532q0 -94 13 -169.5t35 -126.5t53 -85t66.5 -49t76.5 -15q109 0 164.5 108t55.5 321q0 457 -229 457q-104 0 -169.5 -111t-65.5 -330zM759 514q0 -142 25 -237.5t74 -144t122 -48.5q107 0 175 118.5t68 335.5q0 215 -65.5 326.5t-172.5 111.5 q-226 0 -226 -462z" />
<glyph unicode="&#x445;" horiz-adv-x="838" d="M41 0l319 553l-297 508h143l135 -247q16 -30 46.5 -91.5t33.5 -67.5q8 14 26 46t34.5 61.5t27.5 48.5l146 250h134l-298 -497l323 -564h-139q-73 125 -180 332l-68 128q-33 -63 -76.5 -143t-94.5 -173t-78 -144h-137z" />
<glyph unicode="&#x446;" horiz-adv-x="961" d="M128 0v1061h111v-950h466v950h111v-950h100v-534h-84v423h-704z" />
<glyph unicode="&#x447;" horiz-adv-x="872" d="M70 794v267h112v-189q0 -74 5.5 -128t20 -101.5t39.5 -76t64.5 -45t93.5 -16.5q98 0 248 63v493h111v-1061h-111v455q-165 -64 -287 -64q-134 0 -215 104t-81 299z" />
<glyph unicode="&#x448;" horiz-adv-x="1345" d="M128 0v1061h111v-948h390v948h115v-948h390v948h109v-1061h-1115z" />
<glyph unicode="&#x449;" horiz-adv-x="1379" d="M125 0v1061h111v-950h391v950h114v-950h391v950h109v-950h102v-534h-83v423h-1135z" />
<glyph unicode="&#x44a;" horiz-adv-x="1047" d="M11 948v113h396v-432h216q172 0 272.5 -79.5t100.5 -235.5q0 -51 -12 -96.5t-38 -86t-64 -69t-95 -45.5t-128 -17h-364v948h-284zM407 109h181q60 0 107.5 8t78.5 22.5t52.5 33t33 43t16 47.5t4.5 51q0 101 -63 151.5t-205 50.5h-205v-407z" />
<glyph unicode="&#x44b;" horiz-adv-x="1247" d="M121 0v1061h111v-432h215q99 0 173 -25t116.5 -69.5t63 -99.5t20.5 -121q0 -49 -11 -93.5t-37 -85.5t-64.5 -70.5t-95.5 -47t-128 -17.5h-363zM232 111h182q73 0 127 12t84.5 31t49 47t24.5 54t6 59q0 49 -14 85t-45.5 63t-84.5 40.5t-127 13.5h-202v-405zM1016 0v1061 h112v-1061h-112z" />
<glyph unicode="&#x44c;" horiz-adv-x="872" d="M125 0v1061h109v-432h217q99 0 172.5 -25t116 -69.5t63 -99.5t20.5 -121q0 -48 -11.5 -92.5t-37 -85.5t-63.5 -70.5t-96 -47.5t-129 -18h-361zM234 111h182q73 0 127 12.5t85.5 31.5t50 47t24.5 54t6 58q0 98 -65 150t-208 52h-202v-405z" />
<glyph unicode="&#x44d;" horiz-adv-x="854" d="M57 341q19 2 37 5t38.5 7t33.5 7q43 -273 248 -273q240 0 270 399h-320v115h320q-18 170 -87 271t-183 101q-187 0 -232 -220l-109 20q22 140 111 227t226 87q178 0 283 -150t105 -408q0 -165 -46.5 -291t-131 -195t-195.5 -69q-78 0 -142 27.5t-109 77.5t-74 115.5 t-43 146.5z" />
<glyph unicode="&#x44e;" horiz-adv-x="1256" d="M125 0v1061h111v-460h226q45 486 370 486q114 0 197 -66.5t128 -191.5t45 -295q0 -267 -96.5 -413.5t-275.5 -146.5q-163 0 -257 132.5t-111 379.5h-226v-486h-111zM575 548q0 -154 31 -258.5t87 -153.5t134 -49q43 0 80 13t71 45.5t58 81t38.5 124.5t14.5 172 q0 445 -254 445q-83 0 -141.5 -49.5t-88.5 -143.5t-30 -227z" />
<glyph unicode="&#x44f;" horiz-adv-x="909" d="M54 0l148 266q72 128 143 148v37q-67 12 -116 41.5t-77 72t-41 90.5t-13 104q0 142 80 222t222 80h398v-1061h-112v430h-109q-83 0 -130 -28q-18 -12 -45.5 -48.5t-69 -107t-65 -112t-74.5 -134.5h-139zM211 755q0 -73 26 -119t90 -70.5t171 -24.5h188v407h-239 q-69 0 -117.5 -15.5t-73.5 -43.5t-35 -60.5t-10 -73.5z" />
<glyph unicode="&#x451;" d="M73 521q0 136 30.5 244.5t84.5 178.5t126.5 106.5t158.5 36.5q180 0 285.5 -150.5t105.5 -431.5h-678q4 -71 16 -131.5t32 -106t46.5 -80.5t58.5 -57t67.5 -32.5t75.5 -10.5q180 0 255 225l115 -19q-38 -156 -134 -237.5t-238 -81.5q-177 0 -296 139h2q-113 140 -113 408 zM195 616h551q-6 74 -22 133t-40 101t-57 69.5t-71 40.5t-83 13q-114 0 -191 -94.5t-87 -262.5zM259 1319v170h118v-170h-118zM575 1319v170h121v-170h-121z" />
<glyph unicode="&#x10a0;" horiz-adv-x="1156" d="M137 451v70q0 99 108 262q19 -8 53.5 -25.5t40.5 -20.5q-61 -113 -61 -216v-78q0 -82 14 -140.5t48 -103t93.5 -66.5t145.5 -22q152 0 225.5 86.5t73.5 245.5v158q0 244 -230 470q-97 96 -159 212.5t-62 210.5v98h130v-98q0 -190 234 -401q230 -212 230 -492v-158 q0 -137 -56.5 -238t-156 -153t-229.5 -52q-93 0 -173.5 31t-140.5 87.5t-94 142.5t-34 190z" />
<glyph unicode="&#x10a1;" horiz-adv-x="1156" d="M137 425v232q0 94 37 178.5t95 140t128.5 88t138.5 32.5q37 81 37 199q0 71 -130 132q-117 57 -120 187h139q3 -98 126 -163q124 -55 124 -146q0 -117 -50 -209q35 0 81.5 -21t95 -61t89.5 -92t67 -122t26 -143v-234q0 -76 -34 -151.5t-92 -136t-142 -98t-176 -37.5 q-94 0 -177.5 37t-140 96.5t-89.5 136t-33 155.5zM278 451q0 -150 81 -245t218 -95q140 0 220.5 91t80.5 234v214q0 101 -39.5 179t-108 120t-153.5 42q-140 0 -219.5 -94t-79.5 -253v-193z" />
<glyph unicode="&#x10a2;" horiz-adv-x="1302" d="M137 462v124q4 113 50 206t121 154t173 94t208 33q114 117 114 227q0 198 -212 198q-113 0 -167.5 -40t-54.5 -113v-131h-124v131q0 42 16.5 81.5t47.5 73.5t72.5 59.5t95.5 40t114 14.5q161 0 248 -82.5t87 -212.5q0 -128 -115 -256q25 -4 58.5 -20t74 -42.5t79.5 -66 t71.5 -86t52.5 -108t20 -126.5v-152q0 -69 -23 -135.5t-68.5 -125.5t-107.5 -104t-146.5 -71t-179.5 -26q-99 0 -193 40.5t-162 105t-109 148.5t-41 168zM278 477q0 -56 16 -109.5t48 -100t76 -81.5t103.5 -55t126.5 -20q80 0 144.5 20t107 54t71 81t40.5 99.5t12 111.5v135 q0 64 -26 127t-70 111.5t-104.5 78.5t-124.5 30h-73q-60 0 -112 -15t-95.5 -45.5t-74.5 -75.5t-48 -107t-17 -137v-102z" />
<glyph unicode="&#x10a3;" horiz-adv-x="1722" d="M137 1039v150q0 87 26 162.5t76 135t129.5 93.5t179.5 34q161 0 313 -159q109 159 321 159q102 0 180 -36.5t127 -103t73.5 -157t24.5 -203.5v-93q0 -247 -102 -373.5t-303 -126.5q-192 0 -302 134t-110 375v79q0 100 46 269q-48 69 -108.5 94.5t-159.5 25.5 q-87 0 -148.5 -36.5t-93 -106t-31.5 -166.5v-143q0 -223 130 -450q123 -214 489 -330q175 -55 261.5 -120.5t89.5 -147.5h-169q-14 149 -397 221q-169 -4 -325 -108l-50 123q122 29 269 44q-436 332 -436 761zM911 1032q0 -141 28 -228t87.5 -128.5t155.5 -41.5 q94 0 152.5 42.5t85 128t26.5 221.5v88q0 107 -14.5 179.5t-47 118.5t-81.5 66t-121 20q-99 0 -156.5 -33.5t-86 -116.5t-28.5 -229v-87z" />
<glyph unicode="&#x10a4;" horiz-adv-x="1193" d="M139 397q0 162 63 306h132q-56 -143 -56 -323q0 -129 75.5 -199t225.5 -70q84 0 151 27.5t108.5 86t41.5 139.5v905q0 65 -30.5 117t-90 82t-139.5 30q-118 0 -198.5 -62t-80.5 -169q0 -70 25 -194h-114q-38 106 -38 194q0 101 51 180.5t140.5 123t201.5 43.5 q120 0 214.5 -42t148 -121t53.5 -182v-909q0 -112 -56.5 -194t-156 -124t-231.5 -42q-99 0 -183 31.5t-139.5 86t-86.5 126.5t-31 153z" />
<glyph unicode="&#x10a5;" horiz-adv-x="1158" d="M139 362v83q0 95 63 228h121q-45 -139 -45 -237v-61q0 -127 83 -195.5t218 -68.5q147 0 224 66.5t77 191.5v174q0 236 -175 266h-139v113h139q156 0 156 292v50q0 114 -69 174t-198 60q-63 0 -116 -20.5t-86 -52t-51 -66.5t-18 -66v-35q0 -60 13 -128q-22 0 -63.5 -1 t-63.5 -1q-25 59 -25 122v50q0 51 23.5 99.5t63.5 87t92 67.5t112 44.5t119 15.5q95 0 174 -30.5t128.5 -80.5t76.5 -109.5t27 -120.5v-71q0 -207 -200 -338q223 -77 223 -321v-174q0 -73 -31 -139.5t-87 -117.5t-140.5 -81.5t-185.5 -30.5q-123 0 -224.5 48t-158.5 131 t-57 183z" />
<glyph unicode="&#x10a6;" horiz-adv-x="1274" d="M91 1286v50q0 57 23.5 107t68 88.5t113.5 60.5t155 22q120 0 204 -34.5t124.5 -96t40.5 -147.5v-54q0 -121 -167 -243q117 0 210.5 -33.5t153 -91.5t91 -133.5t31.5 -162.5v-175q0 -204 -125.5 -323.5t-340.5 -119.5q-209 0 -334 119t-125 324v169q0 240 213 356 q-113 14 -188 53.5t-111.5 105.5t-36.5 159zM219 1250q0 -62 30.5 -104.5t84 -63.5t126.5 -21q102 0 164 55.5t62 133.5v82q0 47 -31.5 85.5t-84.5 59.5t-115 21q-110 0 -173 -43t-63 -127v-78zM347 466q0 -156 88.5 -255.5t237.5 -99.5q154 0 240.5 100t86.5 266v98 q0 107 -38 186t-112 122t-177 43q-72 0 -130 -19.5t-102.5 -58.5t-69 -104t-24.5 -150v-128z" />
<glyph unicode="&#x10a7;" horiz-adv-x="1788" d="M137 612v434q0 122 21 219t58.5 162t92 107.5t117.5 61t138 18.5q208 0 330 -154q144 154 331 154q107 0 185 -32.5t133 -103.5t82.5 -186t27.5 -276v-159q0 -140 -22 -266t-64 -233.5t-102.5 -197.5t-139.5 -160h-150q339 316 339 846v238q0 198 -61 302v-2 q-62 114 -260 114q-147 0 -261 -109q66 -85 66 -185v-622q0 -173 -50.5 -304t-149.5 -204.5t-234 -73.5q-99 0 -176.5 36t-134 109t-86.5 191t-30 276zM275 627q0 -119 11.5 -207t33.5 -147.5t58 -95t80.5 -51t105.5 -15.5q295 0 295 464v629q0 137 -79 215.5t-216 78.5 q-146 0 -217.5 -122t-71.5 -371v-378z" />
<glyph unicode="&#x10a8;" horiz-adv-x="1156" d="M137 868v189q0 138 33 245.5t93 175t140 102t176 34.5q214 0 328 -141t114 -425v-173q0 -400 -175 -855h-154q186 447 186 848v180q0 232 -75 341t-224 109q-80 0 -137 -26.5t-93.5 -82.5t-53.5 -140t-17 -201v-180q0 -406 190 -848h-152q-179 445 -179 848z" />
<glyph unicode="&#x10a9;" horiz-adv-x="1156" d="M137 354v97q0 130 63 226h121q-43 -138 -43 -247v-50q0 -111 84 -190t215 -79q141 0 221 77t80 235v104q0 140 -71 241h2q-65 102 -182 102h-206v117h199q66 0 115 24.5t75.5 71.5t26.5 112v80q0 190 -205 223v114q170 -43 258 -128.5t88 -210.5v-48q0 -212 -243 -295 q286 -88 286 -403v-104q0 -126 -58 -223t-158.5 -148.5t-227.5 -51.5q-91 0 -173.5 30.5t-140.5 80t-92 113.5t-34 130z" />
<glyph unicode="&#x10aa;" horiz-adv-x="2269" d="M137 1069v77q0 96 25 178.5t72 145t121.5 98t167.5 35.5q235 0 332 -245q77 256 284 256q204 0 288 -241q99 230 323 230q62 0 120.5 -20.5t105.5 -56.5t83 -83t56 -102t20 -111v-109q0 -141 -74 -279t-206 -254h-135q278 235 278 542v89q0 66 -32 127.5t-89 100.5 t-124 39q-47 0 -83 -7.5t-70 -27.5t-56 -53.5t-35 -88t-13 -127.5v-234h-127v232q0 113 -26.5 184t-76.5 102.5t-127 31.5q-106 0 -170 -75t-64 -234v-241h-126v245q0 86 -15.5 143.5t-49 90.5t-79 46t-112.5 13q-43 0 -80.5 -13.5t-68 -42t-52 -69t-33 -97.5t-11.5 -125 v-82q0 -114 48.5 -222.5t133 -196t196.5 -161t241 -125t265 -79.5q176 -36 294 -97t183 -154h-203q-206 171 -508 171q-216 -17 -371 -104q-13 16 -27.5 35.5t-30.5 41.5t-26 36q140 39 321 69q-657 351 -657 798z" />
<glyph unicode="&#x10ab;" horiz-adv-x="1191" d="M137 451v222q0 91 35 174.5t94 144t142 96t174 35.5q207 0 298 -179l11 2v357q0 81 -83 138t-210 57q-128 0 -200.5 -44.5t-72.5 -110.5v-68h-139v68q0 67 57.5 130t154 102t203.5 39q76 0 151.5 -23.5t135 -64t96.5 -99.5t37 -124v-880q0 -94 -35 -174t-95 -134 t-141 -84.5t-171 -30.5q-95 0 -176 30.5t-140.5 87t-92.5 142t-33 191.5zM278 451q0 -164 82 -252t219 -88q63 0 116 21t94.5 61.5t65 106.5t23.5 151v226q0 169 -81 251.5t-218 82.5q-58 0 -112.5 -24.5t-96.5 -67.5t-67 -107.5t-25 -138.5v-222z" />
<glyph unicode="&#x10ac;" horiz-adv-x="1191" d="M171 432v884q0 135 71.5 206.5t182.5 71.5q38 0 176 -25t176 -25q117 0 246 63v-91q-136 -80 -262 -80q-21 0 -49.5 4.5t-57 10.5t-58 12t-61 10t-58.5 4q-39 0 -67.5 -5t-51 -16.5t-36.5 -30.5t-21.5 -47.5t-7.5 -67.5v-375q138 188 319 188q126 0 227.5 -55t158 -153 t56.5 -221v-264q0 -205 -119 -317.5t-321 -112.5q-92 0 -172 29t-140.5 83t-95.5 136.5t-35 183.5zM310 432q0 -100 38.5 -173.5t106 -110.5t157.5 -37q149 0 226.5 86t77.5 248v239q0 159 -81 243t-221 84q-160 0 -232 -79t-72 -250v-250z" />
<glyph unicode="&#x10ad;" horiz-adv-x="1807" d="M137 918v103q0 104 13 190.5t43.5 162.5t78 128t119.5 82t164 30q240 0 356 -252q95 252 347 252q89 0 160 -30.5t117.5 -82.5t77.5 -125t44.5 -154t13.5 -174v-130q0 -263 -88.5 -490t-259.5 -408h-173q382 375 382 910v102q0 94 -7 163.5t-25.5 129t-49 96t-78.5 57 t-114 20.5q-143 0 -212.5 -77.5t-69.5 -242.5v-584h-141v584q0 111 -31 182t-92.5 104.5t-156.5 33.5q-76 0 -130 -29.5t-87 -91t-48 -148.5t-15 -208v-99q0 -512 391 -900h-171q-176 181 -267 408.5t-91 487.5z" />
<glyph unicode="&#x10ae;" horiz-adv-x="1158" d="M139 384v121q0 74 63 168h117q-41 -122 -41 -193v-59q0 -57 21.5 -112t59.5 -99t96 -71.5t124 -27.5q158 0 229.5 93t71.5 278v100q0 122 -64 205t-168 83h-157v117h157q41 0 74 12.5t56.5 37t36 62.5t12.5 88v36q0 50 -56.5 89.5t-174.5 73.5q-220 62 -223 228h136 q4 -59 64 -104.5t171 -70.5q222 -55 222 -207v-48q0 -147 -202 -258q259 -130 259 -340v-120q0 -210 -119.5 -338t-324.5 -128q-81 0 -160.5 30.5t-141.5 82t-100 123t-38 148.5z" />
<glyph unicode="&#x10af;" horiz-adv-x="1191" d="M137 375v48q0 56 22 115h132q-13 -78 -13 -113v-56q0 -62 26.5 -112.5t71.5 -81.5t99.5 -47.5t112.5 -16.5q132 0 211 81.5t79 202.5v1101l-507 -110q125 -47 189.5 -118.5t64.5 -187.5q0 -51 -13 -94t-36 -75t-57 -57t-74.5 -41.5t-91 -27t-103.5 -15t-113 -4.5v114 q193 2 278.5 43.5t85.5 147.5q0 135 -95.5 206.5t-268.5 73.5v70l884 193v-1228q0 -112 -58 -201t-156.5 -137t-218.5 -48q-102 0 -184 22.5t-142 67.5t-92.5 117.5t-32.5 167.5z" />
<glyph unicode="&#x10b0;" horiz-adv-x="1807" d="M137 659v50q0 379 263 642q259 263 871 263v-116q-314 0 -571 -97q-243 -90 -381 -338q161 60 236 60q124 0 210 -64t142 -195q133 259 351 259q83 0 157.5 -28.5t131.5 -80.5t90.5 -131t33.5 -174v-54q0 -362 -309 -633h-155q331 297 331 631v56q0 55 -15 104.5 t-41.5 87t-62 65.5t-77 42.5t-84.5 14.5q-59 0 -110 -20.5t-90 -61t-62 -105.5t-23 -147v-227h-138v227q0 83 -24.5 149t-65.5 105t-89.5 59.5t-100.5 20.5q-127 0 -203.5 -86.5t-76.5 -227.5v-63q0 -316 332 -626h-173q-144 136 -220.5 299t-76.5 340z" />
<glyph unicode="&#x10b1;" horiz-adv-x="1191" d="M171 491v1123h139v-1123q0 -121 34 -205.5t102 -129.5t166 -45q141 0 222.5 105t81.5 277v60q0 156 -137 293q-65 63 -98 123t-33 109q0 98 50 167q55 -17 141 -38q-60 -60 -60 -129q0 -50 35.5 -109.5t103.5 -120.5q136 -123 136 -275v-98q0 -132 -53.5 -240 t-155.5 -171.5t-233 -63.5q-97 0 -176 29t-139 87t-93 153.5t-33 221.5z" />
<glyph unicode="&#x10b2;" horiz-adv-x="1460" d="M137 562v313q0 109 31.5 205.5t85.5 167t125 122t151 77.5t162 26l-65 141h198l-64 -141q91 0 175 -25t154.5 -75.5t123 -121t82 -167.5t29.5 -209v-313q0 -119 -48.5 -224t-130 -178.5t-190 -116.5t-225.5 -43q-122 0 -231.5 42t-189.5 115.5t-126.5 178.5t-46.5 226z M278 562q0 -92 30.5 -173.5t87 -143.5t143.5 -98t192 -36q108 0 196 37.5t144.5 100.5t87 143.5t30.5 169.5v313q0 257 -104.5 383t-318.5 126l37 -709h-155l38 709q-94 0 -169 -31.5t-128.5 -94t-82 -160t-28.5 -223.5v-313z" />
<glyph unicode="&#x10b3;" horiz-adv-x="1358" d="M137 1473v125q96 -75 147 -75q18 0 39 13t38 29t39 29t43 13q142 0 205 -111q115 111 224 111q77 0 150 -29.5t120 -80.5t47 -108v-938q0 -216 -107 -333.5t-307 -117.5q-211 0 -337 114t-126 309v98q0 107 48 186h126q-33 -120 -33 -232v-54q0 -94 40 -164t113 -108 t169 -38q147 0 212 84.5t65 261.5v932q0 29 -21 55t-65.5 43.5t-101.5 17.5q-164 0 -164 -116v-384h-104v384q0 116 -136 116q-63 0 -103 -59h3q-40 -53 -82 -53q-19 0 -44 11t-49.5 29t-47.5 40z" />
<glyph unicode="&#x10b4;" horiz-adv-x="1772" d="M137 1069v81q0 102 24.5 185t74 146.5t131 98t188.5 34.5q190 0 334 -168q138 168 334 168q93 0 172 -30.5t131 -81.5t81.5 -118.5t29.5 -140.5v-97q0 -143 -68 -224.5t-233 -127.5v-15q80 -15 135.5 -46t85 -75t42.5 -93t13 -110v-69q0 -185 -152 -285.5t-419 -100.5 q-288 0 -424 88.5t-137 293.5h136q1 -50 15.5 -90.5t37 -68.5t57 -48.5t70.5 -32.5t82.5 -19t86.5 -9.5t89 -2.5q417 0 417 275v57q0 135 -59 213.5t-152 78.5h-114v109h114q31 0 62.5 8.5t63.5 29.5t56.5 53t40 83.5t15.5 115.5v98q0 135 -67.5 200.5t-207.5 65.5 q-156 0 -295 -125q48 -104 48 -216v-88q0 -129 -54.5 -231t-150.5 -158.5t-216 -56.5q-87 0 -164 33.5t-133 92t-88.5 142t-32.5 178.5zM275 1069q0 -174 68.5 -252t211.5 -78q93 0 154 33t93.5 106.5t32.5 190.5v74q0 187 -64.5 271t-215.5 84q-63 0 -108.5 -12t-79 -37 t-53.5 -66.5t-29.5 -98.5t-9.5 -134v-81z" />
<glyph unicode="&#x10b5;" horiz-adv-x="1191" d="M137 369v19q0 93 43 169h136q-38 -79 -38 -175v-25q0 -246 299 -246q141 0 221 63t80 171v492q0 31 -15 70t-40 77t-59 74.5t-71.5 64t-78.5 44.5t-78 17q-107 0 -156.5 -48t-49.5 -125q0 -52 17 -139h-117q-26 75 -26 139q0 128 88.5 205t243.5 77q70 0 134 -30 t116.5 -82t104.5 -129v460h-216v102h346v-1257q0 -162 -123 -259.5t-321 -97.5q-90 0 -169.5 25.5t-140 71.5t-95.5 116.5t-35 155.5z" />
<glyph unicode="&#x10b6;" horiz-adv-x="1681" d="M137 1069v85q0 68 15.5 134t47.5 125t76.5 103.5t107 71t134.5 26.5q227 0 321 -282q85 282 320 282q181 0 284 -103.5t103 -289.5v-102q0 -128 -48 -259t-136 -246h-125q170 235 170 520v83q0 143 -60 212t-185 69q-30 0 -50 -1t-44.5 -4.5t-40.5 -11t-34.5 -21 t-29.5 -32.5t-22.5 -47t-17.5 -64.5t-10 -84t-4 -106.5v-232h-139v232q0 73 -7 130.5t-18 96t-30 66.5t-38 43t-47 23.5t-51 10.5t-56 2q-117 0 -182.5 -91t-65.5 -253v-85q0 -123 36 -238t97.5 -206t144 -166.5t174.5 -128t191 -82.5q248 -76 277 -250h-169 q-39 88 -121 137t-200 49q-163 0 -289 -91q-60 117 -62 121q83 39 273 61q-490 321 -490 794z" />
<glyph unicode="&#x10b7;" horiz-adv-x="1193" d="M137 357q0 86 34 175h133q-26 -82 -26 -205q0 -88 85.5 -152t215.5 -64q79 0 132.5 15t92.5 50.5t57.5 98t18.5 155.5v477q-97 -172 -298 -172q-62 0 -122 18.5t-112 54.5t-92 85t-62.5 114t-22.5 136v117q0 74 38.5 160t109.5 172h154q-176 -214 -176 -362v-87 q0 -79 39.5 -149t105.5 -111.5t140 -41.5t132 24t94 64.5t54 91.5t18 109v462h143v-1182q0 -205 -107.5 -307.5t-336.5 -102.5q-175 0 -310 87v-3q-63 42 -97.5 112t-34.5 161z" />
<glyph unicode="&#x10b8;" horiz-adv-x="1272" d="M91 1214v166q0 92 69 163t154 71q37 0 71.5 -8.5t70 -27.5t65.5 -54t50 -83q94 173 238 173q102 0 164.5 -33t95.5 -113.5t33 -215.5v-801q0 -97 -37.5 -182t-101 -143.5t-148.5 -92t-177 -33.5q-66 0 -132 20t-125.5 60t-105.5 95t-73 130.5t-27 160.5v146 q0 95 36.5 180.5t98 146.5t147.5 96.5t181 35.5q227 0 323 -175l12 2v350q0 51 -3 89t-9 66.5t-17.5 47.5t-24.5 31t-34 18.5t-42 9t-52 2.5q-77 0 -119.5 -49t-42.5 -133v-50h-106v50q0 90 -38 136t-128 46q-49 0 -84 -14.5t-54 -44.5t-19 -73v-166h-109zM316 471 q0 -99 45 -182.5t119 -130.5t158 -47q73 0 136 29.5t104 77.5t64.5 108.5t23.5 124.5v161q0 175 -81 260t-243 85q-89 0 -164 -50t-118.5 -135t-43.5 -184v-117z" />
<glyph unicode="&#x10b9;" horiz-adv-x="1191" d="M171 22v1319q0 81 47.5 144t125 96t170.5 33q165 0 269 -69.5t104 -186.5q0 -86 -55 -165l-105 19q34 67 34 143q0 143 -249 143q-211 0 -215 -173v-473q136 187 315 187q213 0 327.5 -115.5t114.5 -335.5v-70q0 -255 -213 -496h-173q127 115 187.5 238.5t60.5 264.5v63 q0 74 -17.5 133.5t-53 106t-95 72t-138.5 26.5q-85 -2 -156 -40.5t-113.5 -106t-45.5 -150.5v-607h-126z" />
<glyph unicode="&#x10ba;" horiz-adv-x="1310" d="M137 562v408q0 188 39 348.5t110 273.5h128q-136 -270 -136 -622v-408q0 -116 53.5 -220t144 -167.5t192.5 -63.5q99 0 183 47t134 131.5t50 187.5v35q0 286 -217 286h-156v111h156q95 0 156 58.5t61 166.5q0 61 -44.5 116.5t-126.5 100.5q-75 41 -116.5 103t-42.5 138 h115q1 -21 9 -42t22.5 -42t36 -41.5t50 -40t62.5 -37.5q175 -95 175 -250q0 -55 -13.5 -98t-35.5 -72t-57 -50.5t-71 -34t-84 -23.5v-13q76 -19 127.5 -49t80.5 -73t41 -93t12 -117v-39q0 -64 -17 -125t-48.5 -113.5t-77.5 -97t-101.5 -75.5t-123 -48.5t-139.5 -17.5 q-117 0 -217.5 46t-168.5 123t-106.5 179t-38.5 214z" />
<glyph unicode="&#x10bb;" horiz-adv-x="1191" d="M137 455v227q0 75 14 139t47 120.5t83 96.5t125.5 62.5t170.5 22.5q157 0 301 -164v655h143v-1178q0 -93 -32 -173.5t-89 -138.5t-140.5 -91t-182.5 -33q-201 0 -320.5 125t-119.5 330zM278 436q0 -105 33 -177t100 -110t166 -38q137 0 219 86.5t82 245.5v230 q0 64 -20.5 124t-57.5 108t-95 77t-128 29q-145 0 -222 -85t-77 -253v-237z" />
<glyph unicode="&#x10bc;" horiz-adv-x="1240" d="M137 451v801q0 81 12 142.5t35.5 103t60 67.5t82 37.5t105.5 11.5q144 0 238 -173q22 48 53 83t65.5 54t69 27.5t70.5 8.5q85 0 153.5 -69.5t68.5 -164.5v-166h-104v166q0 26 -7.5 47.5t-21 37t-33.5 26t-44 16t-53 5.5q-89 0 -129 -46.5t-40 -135.5v-50h-109v50 q0 84 -40.5 133t-115.5 49q-33 0 -55 -2.5t-43 -8.5t-34 -18.5t-24 -31.5t-16.5 -47.5t-8.5 -66.5t-3 -89v-350l11 -2q89 175 321 175q129 0 235.5 -61t166.5 -166.5t60 -231.5v-146q0 -103 -40 -192t-105 -148t-148 -92.5t-169 -33.5q-89 0 -173.5 33.5t-148.5 92 t-103 143.5t-39 182zM278 451q0 -64 22 -124.5t62.5 -108.5t102.5 -77.5t136 -29.5q64 0 124.5 28.5t105 77t71 115t26.5 139.5v117q0 99 -42 183t-118.5 135t-169.5 51q-320 0 -320 -345v-161z" />
<glyph unicode="&#x10bd;" horiz-adv-x="1158" d="M137 425q0 99 52 193h123q-32 -91 -32 -197q0 -55 20.5 -109.5t57 -99.5t95 -73t126.5 -28q143 0 222 75t79 214v36q0 117 -119 232q-115 112 -115 395v99h-178q-61 0 -86 -31.5t-25 -100.5q0 -62 35 -91.5t109 -29.5h42v-95h-68q-84 0 -156 45v-2q-69 45 -69 180 q0 56 19.5 99t52.5 67.5t71.5 36.5t81.5 12h171v260h-189v102h304v-362h205v-90h-205v-93q0 -281 133 -385q129 -104 129 -257v-27q0 -177 -120.5 -288.5t-323.5 -111.5q-94 0 -177.5 35t-141 93t-90.5 135.5t-33 161.5z" />
<glyph unicode="&#x10be;" horiz-adv-x="1191" d="M171 400v1214h139v-657q156 166 302 166q89 0 163 -22.5t125 -62.5t86.5 -95t51.5 -118.5t16 -135.5v-289q0 -80 -29 -151t-83 -127t-140 -89t-190 -33q-84 0 -164 31t-141 84t-98.5 127.5t-37.5 157.5zM310 436q0 -150 84.5 -237.5t217.5 -87.5q136 0 220 86.5t84 238.5 v223q0 159 -81.5 255.5t-222.5 96.5q-95 0 -161.5 -36.5t-103.5 -114.5t-37 -194v-230z" />
<glyph unicode="&#x10bf;" horiz-adv-x="1158" d="M139 407v96q0 109 50 226h127q-38 -152 -38 -226v-89q0 -136 86.5 -219.5t217.5 -83.5q140 0 219 75.5t79 225.5v83q0 171 -194 328q-185 150 -209 439l-338 43v114l338 -46l32 241h114l-32 -250l387 -43v-117l-382 54q23 -278 227 -423q200 -142 200 -340v-81 q0 -83 -30.5 -158t-86.5 -132t-140.5 -90.5t-186.5 -33.5q-86 0 -167 34t-141 89.5t-96 130.5t-36 153z" />
<glyph unicode="&#x10c0;" horiz-adv-x="1156" d="M137 488h141q0 -72 7.5 -127.5t27.5 -104t53.5 -79.5t86.5 -48.5t124.5 -17.5t127.5 15t94.5 43.5t58.5 72t20 99.5q0 273 -178 273h-179v109h179q76 0 112 35t36 129q0 74 -41 109.5t-139 35.5h-182v114h182q68 0 108 47.5t40 122.5q0 105 -81 146q-75 36 -444 36v105 q194 0 321 -15.5t203 -50.5t106.5 -85.5t30.5 -128.5q0 -137 -161 -236q196 -70 196 -198q0 -150 -191 -230q225 -79 225 -290q0 -93 -32 -164t-91 -115.5t-139.5 -67t-181.5 -22.5q-437 0 -440 488z" />
<glyph unicode="&#x10c1;" horiz-adv-x="1156" d="M137 434v1180h127v-1187q2 -145 85.5 -230.5t229.5 -85.5q145 0 224 65.5t79 194.5q0 78 -17.5 128.5t-58 78t-106.5 27.5h-114v104h114q90 0 136 44t46 122q0 63 -55 110t-161 47h-80v114h80q107 0 161.5 53t54.5 137q0 159 -296 162v116q203 0 319 -69.5t116 -205.5 q0 -177 -216 -243v-14q216 -39 216 -210q0 -86 -58.5 -141.5t-173.5 -77.5q232 -80 232 -282q0 -177 -116.5 -274t-327.5 -97q-130 0 -228.5 48.5t-155 147.5t-56.5 238z" />
<glyph unicode="&#x10c2;" horiz-adv-x="1156" d="M137 -50v111q220 0 370 102q-370 178 -370 483v443q0 104 15 186t44.5 139t67.5 96.5t89.5 62t106 32t119.5 9.5q83 0 148 -14.5t121.5 -51t93.5 -95.5t58 -150.5t21 -213.5v-443q0 -101 -40 -189t-119.5 -162t-197.5 -132q120 -99 357 -102v-111q-206 0 -444 159 q-258 -159 -440 -159zM278 644q0 -256 301 -440q299 184 299 442v443q0 214 -74 311.5t-225 97.5q-71 0 -125 -23t-94.5 -74.5t-61 -140.5t-20.5 -214v-402z" />
<glyph unicode="&#x10c3;" horiz-adv-x="1156" d="M137 354v97q0 115 147 233l70 -77q-76 -73 -76 -177v-50q0 -31 7 -61.5t21.5 -61t39 -56.5t56.5 -46.5t77 -32t98 -11.5q35 0 66.5 4.5t62 15t56 27t47.5 41.5t37 56.5t23.5 74t8.5 93.5v104q0 76 -21.5 143.5t-56 113t-80 72t-93.5 26.5h-206v116h199q42 0 80 19.5 t70.5 59.5t56.5 96.5t37.5 134.5t13.5 169h-568v-188h-141v303h852v-173q0 -305 -280 -480q280 -89 280 -412v-104q0 -71 -19 -135.5t-57 -117t-91 -90.5t-124 -59t-153 -21q-115 0 -216.5 47.5t-162.5 129.5t-61 177z" />
<glyph unicode="&#x10c4;" horiz-adv-x="1156" d="M137 400q0 113 117 234l89 -79q-65 -89 -65 -160q0 -59 22 -111t61 -90.5t95.5 -60.5t122.5 -22q79 0 138.5 20.5t93.5 55.5t50.5 77t16.5 90v80q0 73 -21.5 120t-71 71.5t-130.5 24.5h-69v116h69q113 0 168 105.5t55 326.5q-190 -146 -385 -146q-181 0 -268.5 74 t-87.5 197q0 57 37.5 109.5t105 93t170 64.5t223.5 24v-116q-218 0 -306.5 -39.5t-88.5 -142.5q0 -173 217 -173q195 0 526 250q0 -614 -271 -679q271 -92 271 -282v-63q0 -174 -119 -271.5t-323 -97.5q-102 0 -187 33.5t-140 89.5t-85 127.5t-30 149.5z" />
<glyph unicode="&#x10c5;" horiz-adv-x="1240" d="M137 354q0 44 11.5 86t35 82t60.5 74t85 59.5t112 39.5t138 14h299v185h-299q-111 0 -197.5 28t-139 76.5t-79 110t-26.5 132.5q0 76 30.5 143.5t86.5 118.5t140.5 81t184.5 30q92 0 172 -25.5t140.5 -73t95 -120.5t34.5 -163v-227h129v-111h-129v-185h129v-118h-129 v-237q0 -61 -17 -113.5t-48 -90.5t-72 -67t-91 -47t-103.5 -27t-110.5 -9q-204 0 -323 99t-119 255zM278 347q0 -101 84 -168.5t217 -67.5q150 0 224.5 59.5t74.5 183.5v237h-299q-85 0 -144.5 -17t-93.5 -49.5t-48.5 -75.5t-14.5 -102zM278 1241q0 -109 75 -172.5 t202 -63.5h323v227q0 129 -78 197.5t-221 68.5q-148 0 -224.5 -69.5t-76.5 -187.5z" />
<glyph unicode="&#x10c6;" horiz-adv-x="1645" d="M137 794v431q0 192 92.5 296t286.5 104q104 0 178.5 -46t130.5 -143q90 189 307 189q71 0 126.5 -11.5t103.5 -39t80 -71.5t50 -112.5t18 -158.5v-438q0 -92 -30 -167t-81.5 -124.5t-119.5 -76t-145 -26.5q-135 0 -247 112v-173q0 -336 -430 -339v107q77 0 133.5 14 t93.5 42.5t55 71.5t18 101v883q0 113 -25 176t-76 89t-140 26q-49 0 -85.5 -8.5t-66.5 -27.5t-48.5 -50.5t-28 -79t-9.5 -112.5v-438q0 -71 14 -124t37 -84t57.5 -50.5t68.5 -26t77 -6.5v-103q-82 0 -151.5 23t-125 69.5t-87 124t-31.5 177.5zM887 794q0 -68 13.5 -118 t35.5 -80t55 -48.5t66 -25.5t75 -8q70 1 118 20t74.5 56.5t37.5 86t11 117.5v425q0 70 -13 122.5t-34 84t-53 51t-65.5 26.5t-75.5 7q-95 0 -147 -26t-75 -86.5t-23 -172.5v-431z" />
<glyph unicode="&#x10d0;" horiz-adv-x="976" d="M137 354q0 91 24 173h121q-19 -70 -23 -173q2 -39 7 -68.5t20 -65.5t38.5 -59.5t66 -40t100.5 -16.5q39 0 71.5 8.5t56 22.5t41 35.5t28.5 45.5t18 53.5t9.5 58.5t2.5 63q0 186 -193 312q-191 126 -191 290h123q0 -144 191 -264q193 -119 193 -338q0 -76 -22.5 -145.5 t-65 -125t-110.5 -88t-152 -32.5q-82 0 -151 31.5t-112.5 83t-67 114t-23.5 125.5z" />
<glyph unicode="&#x10d1;" horiz-adv-x="1011" d="M137 447q0 83 19.5 155.5t59.5 133t107.5 100.5t156.5 51q36 115 36 209q0 155 -114 220q-177 102 -177 305h135q3 -166 163 -289q97 -75 97 -232q0 -104 -36 -222q85 -15 152 -77.5t103 -155t36 -198.5q0 -123 -44.5 -224t-129 -162t-194.5 -61q-87 0 -158 36t-117 97.5 t-70.5 142t-24.5 171.5zM262 445q0 -49 7.5 -96t26 -92.5t45.5 -79t70 -54.5t96 -21q116 0 179.5 93t63.5 252q0 142 -61.5 240t-174.5 120q-66 -11 -115.5 -43.5t-79 -81.5t-43.5 -108t-14 -129z" />
<glyph unicode="&#x10d2;" horiz-adv-x="1072" d="M113 -139q0 95 31.5 182.5t85.5 153t133 105t169 39.5q145 132 145 275q0 198 -184 198q-198 0 -198 -182q0 -26 5 -81h-98q-11 37 -11 74q0 133 77.5 208.5t224.5 75.5q145 0 223 -81.5t78 -211.5q0 -141 -150 -284q159 -58 237 -182.5t78 -294.5q0 -96 -30.5 -184.5 t-85.5 -156.5t-138.5 -109t-181.5 -41q-111 0 -206 69t-149.5 183.5t-54.5 244.5zM239 -141q0 -100 36.5 -190t103 -146.5t144.5 -56.5q73 0 132.5 32t98.5 86t60 124.5t21 148.5q0 98 -35 181.5t-107 141t-170 70.5q-76 -6 -141.5 -60t-104 -142.5t-38.5 -188.5z" />
<glyph unicode="&#x10d3;" horiz-adv-x="1516" d="M137 436q0 95 21.5 175.5t65 142.5t115 97.5t164.5 35.5q101 0 247 -137q92 137 273 137q48 0 91.5 -12.5t79 -35.5t65.5 -54t52 -68.5t37.5 -79t23.5 -85.5t8 -88q0 -131 -41 -235t-123 -166.5t-193 -62.5q-83 0 -152 36t-114 98t-69 142.5t-24 170.5q0 115 34 217 q-113 123 -197 123q-61 0 -104.5 -18t-69 -47.5t-40.5 -77t-20 -95.5t-5 -113q0 -227 107 -392.5t313 -252.5q509 -232 509 -405h-165q0 67 -58 130t-146 105.5t-184 57.5q-163 -3 -334 -111v132l264 34v7q-212 104 -321.5 282t-109.5 413zM789 447q0 -158 62.5 -251.5 t171.5 -93.5q70 0 121 39.5t80.5 121t29.5 197.5q0 56 -14 112t-41 104.5t-72 78.5t-101 30q-74 0 -128.5 -45.5t-81.5 -121t-27 -171.5z" />
<glyph unicode="&#x10d4;" horiz-adv-x="997" d="M113 -259q0 144 41 272h119q-34 -165 -34 -272q0 -56 13 -104t40 -87.5t73.5 -61.5t109.5 -22q42 0 77.5 11t61 30t44.5 43.5t30.5 52t17.5 55t6 53.5v853q0 54 -9 92.5t-31 68.5t-62.5 45t-100.5 15q-59 0 -98.5 -15t-60 -46t-28.5 -68.5t-8 -91.5q0 -57 33 -119h-117 q-28 61 -28 117q0 70 18.5 128.5t56 103t98.5 69t141 24.5q82 0 143.5 -26.5t97 -72.5t53 -102t17.5 -122v-853q0 -61 -25 -122.5t-69 -112t-112 -81.5t-146 -31q-67 0 -126.5 23t-101.5 61t-73 87t-46 102t-15 104z" />
<glyph unicode="&#x10d5;" horiz-adv-x="987" d="M113 -243q0 58 26 182h115q-15 -98 -15 -182q0 -57 14 -107.5t42.5 -92.5t77.5 -66.5t113 -24.5q70 0 118 18t74.5 54t37.5 83t11 113v145q0 66 -13 115.5t-33.5 79t-50 47.5t-57.5 24.5t-61 6.5h-115v119h117q34 0 69 20.5t65 57t49 93.5t19 122q0 55 -9 93.5 t-32.5 68.5t-66.5 44.5t-107 14.5q-101 0 -152.5 -47t-51.5 -135q0 -65 7 -117h-111q-7 52 -7 115q0 52 22 103t60.5 92t98 66t128.5 25q77 0 137.5 -18t99 -48t64 -71.5t35.5 -85.5t10 -93q0 -225 -229 -346v-19q240 -71 240 -338v-134q0 -75 -22 -140t-65 -117t-115 -82.5 t-164 -30.5q-78 0 -142.5 24t-106 63.5t-70.5 91.5t-41.5 105.5t-12.5 108.5z" />
<glyph unicode="&#x10d6;" horiz-adv-x="1056" d="M91 1316q0 67 17.5 124t52.5 101.5t91.5 70t129.5 25.5q62 0 113.5 -18t86.5 -49t58.5 -73t34.5 -89t11 -98q0 -57 -6.5 -97.5t-28 -91t-62 -106.5t-107.5 -133l69 5q109 0 194.5 -59.5t130 -159.5t44.5 -223q0 -126 -47.5 -228t-131.5 -159.5t-188 -57.5 q-164 0 -267.5 124.5t-103.5 320.5q0 47 2.5 80t9.5 70t21 68t35.5 67t55 74.5t77 83.5t103.5 101l-104 -16q-131 0 -211 94t-80 249zM206 1314q0 -115 49 -183t131 -68q90 0 136 68t46 172q0 119 -47.5 181t-132.5 62q-182 0 -182 -232zM306 445q0 -156 68 -249.5 t179 -93.5q108 0 175.5 95t67.5 246q0 147 -68 244.5t-175 97.5q-61 0 -109.5 -28.5t-77.5 -77t-44.5 -108t-15.5 -126.5z" />
<glyph unicode="&#x10d7;" horiz-adv-x="1527" d="M137 462q0 87 24.5 163.5t70.5 135t117 92.5t158 34q163 0 248 -123l39 -64l41 73q64 114 215 114q68 0 125 -21.5t96.5 -58t66.5 -85.5t40 -104t13 -113q0 -264 -191 -505h-157q224 278 224 505q0 280 -215 280q-21 0 -40 -3t-35.5 -10.5t-29 -13.5t-26 -20.5t-21.5 -23 t-21 -28.5l-19.5 -30t-20.5 -33q36 -82 36 -178q0 -123 -44.5 -223.5t-129 -161t-194.5 -60.5q-115 0 -200 61t-127.5 165t-42.5 236zM262 455q0 -162 62 -257.5t183 -95.5q77 0 132.5 43.5t83 119.5t27.5 178q0 151 -66 246.5t-175 95.5q-118 0 -182.5 -91t-64.5 -239z" />
<glyph unicode="&#x10d8;" horiz-adv-x="1011" d="M137 473q0 85 24.5 159.5t70.5 131.5t117 90t158 33q112 0 196.5 -57t128 -150t43.5 -207q0 -236 -118 -466h-104q97 268 97 466q0 91 -29 162t-84 111.5t-128 40.5q-119 0 -183 -85.5t-64 -226.5q0 -186 107 -477h-115q-117 240 -117 475z" />
<glyph unicode="&#x10d9;" horiz-adv-x="987" d="M113 -259q0 93 26 194h113q-13 -134 -13 -194q0 -275 245 -275q117 0 180 67t63 189v196q0 50 -17 97.5t-48 86.5t-81.5 63t-112.5 24h-102v108h105q56 0 97 14.5t65.5 37t39 57.5t19 69.5t4.5 79.5q0 159 -198 309h191q131 -138 131 -300q0 -195 -211 -314v-20 q243 -55 243 -308v-200q0 -106 -39.5 -185.5t-123.5 -126t-205 -46.5q-118 0 -203 50t-126.5 134.5t-41.5 192.5z" />
<glyph unicode="&#x10da;" horiz-adv-x="1985" d="M137 482q0 63 11 121t36 110.5t62 90.5t92 60.5t122 22.5q93 0 162.5 -39t106.5 -104l28 -58h7l19 58q17 43 55.5 79.5t82.5 55.5t84 19q60 0 124 -43.5t92 -110.5l22 -58h9l23 58q36 64 106.5 103.5t162.5 39.5q306 0 306 -366q0 -205 -152 -467h-141q176 274 176 467 q0 264 -189 264q-50 0 -93.5 -17.5t-72 -45t-49 -61t-29.5 -66.5t-9 -61v-182h-100v186q0 114 -54 187t-132 73t-136 -74.5t-58 -185.5v-186h-99v186q0 26 -9.5 57t-30 64.5t-49 61.5t-73 46t-95.5 18q-93 0 -143 -83.5t-50 -219.5q0 -130 57 -247t157 -207.5t232 -158 t285 -105.5q485 -150 523 -376h-180q0 58 -44 110.5t-134.5 99.5t-225.5 86q-83 23 -214 23q-147 0 -332 -93l-11 130l284 42q-134 64 -235.5 144.5t-163.5 169.5t-92.5 184.5t-30.5 197.5z" />
<glyph unicode="&#x10db;" horiz-adv-x="1022" d="M137 445q0 119 42.5 219t125.5 161.5t190 61.5q61 0 114.5 -23t86.5 -66l39 -52v568q0 46 -12 84.5t-36 69.5t-64.5 48.5t-93.5 17.5q-99 0 -152.5 -50.5t-53.5 -138.5q0 -56 11 -113h-115q-21 69 -21 119q0 121 89.5 203.5t239.5 82.5q86 0 149.5 -24.5t101.5 -69 t56 -101.5t18 -128v-871q0 -199 -98 -321t-256 -122q-110 0 -193.5 61t-125.5 161t-42 223zM262 445q0 -98 26.5 -174.5t80.5 -122.5t129 -46q102 0 169.5 90.5t67.5 250.5q0 147 -65.5 244.5t-171.5 97.5q-74 0 -128 -45.5t-81 -121.5t-27 -173z" />
<glyph unicode="&#x10dc;" horiz-adv-x="1045" d="M171 443v885q0 264 332 264h131q103 0 103 67h141q0 -165 -244 -165h-166q-190 0 -190 -166v-591l45 54q79 96 220 96q81 0 151 -37.5t116.5 -99.5t72.5 -142t26 -165q0 -120 -44.5 -220.5t-129.5 -161.5t-192 -61q-89 0 -161 36t-117.5 98t-69.5 141t-24 168zM289 443 q0 -50 8.5 -97t28 -91.5t48 -78t72 -54t97.5 -20.5q77 0 133 49.5t82.5 125t26.5 166.5t-26.5 166.5t-83 125.5t-134.5 50q-115 0 -183.5 -95.5t-68.5 -246.5z" />
<glyph unicode="&#x10dd;" horiz-adv-x="1534" d="M137 482q0 405 340 405q45 0 82.5 -9.5t67 -29t52 -47t39.5 -64.5l35 -73h20l27 75q52 148 250 148q161 0 255 -105.5t94 -301.5q0 -199 -185 -464h-175q232 267 232 470q0 57 -4.5 98.5t-18 81t-37 64.5t-63 40t-94.5 15q-236 0 -236 -319v-97h-109v97q0 319 -229 319 q-64 0 -107.5 -21t-67 -62.5t-33.5 -94t-10 -125.5q0 -199 233 -480h-163q-195 284 -195 480z" />
<glyph unicode="&#x10de;" horiz-adv-x="1011" d="M137 421q0 98 22 156h119q-16 -67 -16 -156q0 -44 4 -80.5t13.5 -74t28 -65.5t45 -50.5t66.5 -34.5t90 -12q33 0 60 5.5t49 14.5t39.5 23.5t30.5 31.5t23.5 39t17 44.5t11 50.5t7 55t3.5 59q0 194 -63 276t-196 82h-86v97h86q53 0 93.5 16.5t65 41.5t40 61t21 71.5 t5.5 75.5q0 145 -191 223q-189 78 -189 264h121q0 -130 187 -214q188 -85 188 -273q-3 -188 -209 -302v-14q252 -112 252 -407q0 -84 -24 -160t-69 -135.5t-115.5 -94.5t-157.5 -35q-112 0 -197.5 56t-130 151t-44.5 214z" />
<glyph unicode="&#x10df;" horiz-adv-x="1045" d="M137 -280q0 74 13 132h121q-9 -63 -9 -130q0 -41 6.5 -75.5t23.5 -69t44 -58.5t71.5 -38.5t101.5 -14.5q132 0 190 78t58 228v989h-18q-183 -99 -392 -141v-11q191 -91 191 -273q0 -65 -38 -119.5t-93 -83.5t-110 -29h-138v132l138 -22q126 4 126 131q0 116 -62 169.5 t-198 53.5v114q355 48 587 182h125v-1089q0 -193 -97 -302t-269 -109q-87 0 -159.5 31t-118 81.5t-70 113.5t-24.5 130z" />
<glyph unicode="&#x10e0;" horiz-adv-x="1529" d="M137 477q0 169 127 339q353 479 370 503q119 165 143 282h155q-98 -209 -240 -364q-150 -163 -321 -400l61 20q38 30 77 30q177 0 235 -184l15 -37h26l13 37q81 184 256 184q93 0 171 -54t123 -148.5t45 -207.5q0 -220 -189 -477h-167q230 285 230 477q0 139 -58 223.5 t-155 84.5q-40 0 -79 -18t-73 -53t-54.5 -95t-20.5 -137v-107h-115v107q0 158 -55 230.5t-177 72.5q-99 0 -158.5 -80.5t-59.5 -227.5q0 -195 241 -470h-180q-186 247 -186 470z" />
<glyph unicode="&#x10e1;" horiz-adv-x="1045" d="M171 457v1166h118v-1143q0 -180 64 -279t188 -99q106 0 175 83.5t69 228.5q0 148 -101 245q-100 97 -100 207q0 67 34 169h123q-49 -96 -49 -167q0 -83 108.5 -176.5t108.5 -279.5q0 -114 -44.5 -207.5t-129.5 -149t-194 -55.5q-90 0 -161.5 36t-116.5 98.5t-68.5 145 t-23.5 177.5z" />
<glyph unicode="&#x10e2;" horiz-adv-x="1288" d="M113 118q0 116 23 225t67 200t104 160t139 110t168 46l-39 234h137l-42 -234q111 -6 206 -68t160.5 -162.5t102 -233t36.5 -277.5q0 -87 -12.5 -170t-37 -157t-59 -140t-80 -118.5t-98 -90t-115 -58t-129.5 -20.5q-94 0 -177.5 39t-147.5 109.5t-110.5 164.5t-71 207 t-24.5 234zM239 118q0 -131 28.5 -249t79.5 -207.5t128.5 -142.5t168.5 -53t168 53t129 142.5t80.5 207.5t28.5 249q0 125 -27 243t-75.5 211t-121 152.5t-158.5 66.5l44 -654h-137l43 654q-86 -7 -158.5 -66.5t-120 -152.5t-74 -211t-26.5 -243z" />
<glyph unicode="&#x10e3;" horiz-adv-x="1122" d="M68 755v134q91 -64 138 -64q21 0 41 9.5t33.5 21t32.5 21.5t37 10q91 0 130 -102l18 -54l25 54q12 25 29.5 43.5t41.5 32t56 20t73 6.5q63 0 108 -21t71.5 -62.5t38 -97t11.5 -129.5v-805q0 -203 -86.5 -306.5t-267.5 -103.5q-55 0 -104.5 11.5t-89 32.5t-73 50t-57 63.5 t-40 73.5t-24.5 79.5t-8 82.5q0 157 43 288h107q-25 -167 -25 -282q0 -30 4.5 -59t14.5 -58.5t24.5 -55.5t36 -48.5t48.5 -38.5t63 -25.5t78 -9.5q114 0 177.5 74.5t63.5 227.5v844q0 106 -24 146t-76 40h-58q-52 0 -79.5 -18t-40.5 -66.5t-13 -140.5v-295h-99v295 q0 56 -5.5 96t-14 62t-23.5 34.5t-29.5 16t-35.5 3.5q-35 0 -88.5 -27t-79.5 -27q-58 0 -103 24z" />
<glyph unicode="&#x10e4;" horiz-adv-x="1477" d="M137 455q0 46 6 90.5t20 87.5t34.5 80.5t50 69.5t65.5 55t82.5 36t99.5 13q198 0 266 -182q92 182 262 182q154 0 236 -99t82 -295q0 -241 -177 -354v-11q155 -86 155 -285v-114q0 -106 -41.5 -187t-128.5 -129.5t-210 -48.5q-98 0 -178 27.5t-128.5 72t-74.5 96.5 t-26 106q0 66 9 95h123q-5 -68 -5 -95q0 -22 7 -46t26.5 -52.5t49.5 -50.5t81 -36.5t116 -14.5q64 0 115 24.5t80 63.5t44 84t15 91v132q0 31 -0.5 48.5t-3 43.5t-7.5 41.5t-14.5 33.5t-23.5 27.5t-35 16t-48 6.5h-104v100h84q47 0 82.5 28t55.5 74.5t30 99.5t10 111 q0 136 -48.5 215t-151.5 79q-142 0 -214 -158q30 -116 30 -184q0 -69 -12.5 -132.5t-39.5 -120.5t-67 -99t-99 -66.5t-131 -24.5q-66 0 -123 25t-98 69t-70.5 102t-43.5 124t-14 135zM262 453q0 -55 5.5 -102.5t21 -94.5t40.5 -80t65.5 -53.5t93.5 -20.5q57 0 101.5 29.5 t71.5 79t41 108.5t14 122q0 45 -4 85t-13.5 80t-26 71.5t-39.5 56t-57.5 38t-77.5 13.5q-47 0 -86.5 -18t-67 -49t-46.5 -73.5t-27.5 -90.5t-8.5 -101z" />
<glyph unicode="&#x10e5;" horiz-adv-x="1000" d="M113 -241q0 112 37 228h114q-28 -103 -28 -182q0 -42 1.5 -72.5t7 -68t15.5 -64t27.5 -53.5t42 -43.5t61 -27t82.5 -10.5q56 0 98.5 15.5t69 41t42.5 64t22.5 79t6.5 91.5v761q0 78 -25.5 137.5t-77 94.5t-123.5 35q-90 0 -131 -46t-41 -153q0 -74 33 -217h-115 q-37 121 -37 222q0 142 81.5 219t209.5 77q112 0 189 -80l25 -46h12v860h118v-1864q0 -83 -22 -153.5t-65 -124.5t-112 -84.5t-158 -30.5q-82 0 -150.5 32t-113.5 86.5t-70.5 126t-25.5 150.5z" />
<glyph unicode="&#x10e6;" horiz-adv-x="1508" d="M137 503q0 81 24 152t66 122t102.5 80.5t130.5 29.5q188 0 254 -162l36 -70h14l32 70q72 162 243 162q93 0 159 -25.5t104 -75.5t54.5 -116.5t16.5 -155.5q0 -225 -173 -482h-143q201 249 201 475q0 37 -2 64.5t-7.5 58t-15 52t-25.5 42t-39 33.5t-56 20.5t-74 7.5 q-40 0 -76.5 -15.5t-64.5 -44t-48.5 -66t-31.5 -84.5t-11 -98v-123h-107v123q0 133 -64 220.5t-176 87.5q-58 0 -97 -19t-61 -57t-31 -87.5t-9 -118.5q0 -107 36 -210t108 -200.5t187.5 -186t267.5 -158.5q311 -147 314 -349h-159v15q0 213 -330 284h-16q-132 0 -318 -119 l-7 135l253 50v17q-461 298 -461 722z" />
<glyph unicode="&#x10e7;" horiz-adv-x="1022" d="M137 -289q0 56 20 135h123q-18 -102 -18 -135q0 -34 8.5 -68.5t27 -66.5t44 -56.5t63 -39t81.5 -14.5q72 0 122 21t77 60.5t38.5 87t11.5 109.5v415h-12l-50 -57q-59 -65 -168 -65q-155 0 -248.5 113t-93.5 293q0 198 82 421h162q-121 -237 -121 -423q0 -143 54 -223.5 t165 -80.5q39 0 72.5 11.5t57.5 33t42.5 49.5t30.5 61t18.5 67.5t8.5 70.5v434h117v-1120q0 -79 -20.5 -145.5t-63 -120t-115 -84t-167.5 -30.5q-69 0 -133.5 27.5t-112 73.5t-75.5 110.5t-28 135.5z" />
<glyph unicode="&#x10e8;" horiz-adv-x="1056" d="M68 1214v181q0 110 55 176t150 66q90 0 152 -105l30 -63h9l34 65q66 103 177 103q41 0 78 -16.5t67.5 -49t48.5 -88.5t18 -128v-910q0 -213 -97 -329t-258 -116q-85 0 -155 37t-114 99.5t-68 142t-24 166.5q0 86 24 164.5t68.5 141t113.5 99.5t152 37q127 0 191 -91 l37 -52h13v636q0 47 -10 81t-28.5 52.5t-40 26.5t-47.5 8q-141 0 -141 -250v-200h-87v200q0 137 -29.5 193.5t-100.5 56.5q-29 0 -52.5 -13.5t-38.5 -45.5t-15 -79v-196h-112zM295 445q0 -97 26.5 -173.5t81 -123t129.5 -46.5q112 0 174 87.5t62 255.5q0 89 -25.5 165 t-80 125.5t-128.5 49.5q-59 0 -106 -28.5t-75 -77t-43 -108t-15 -126.5z" />
<glyph unicode="&#x10e9;" horiz-adv-x="1045" d="M171 0v1239q0 398 284 398q73 0 130 -22.5t89.5 -60t48.5 -81t16 -89.5q0 -135 -82 -270h-119q87 150 87 270q0 73 -36.5 111.5t-131.5 38.5q-53 0 -85 -14t-51 -51t-25.5 -91t-6.5 -144v-486h11l41 43q52 96 223 96q109 0 186.5 -46.5t118 -136.5t40.5 -218 q0 -254 -115 -493h-144q135 237 135 491q0 301 -221 301q-139 0 -207 -92.5t-68 -256.5v-436h-118z" />
<glyph unicode="&#x10ea;" horiz-adv-x="1087" d="M91 141q10 407 168 734h127q-160 -317 -170 -734q0 -133 19.5 -244.5t52.5 -190t78 -133.5t96 -81t106 -26q59 0 114.5 29t99 80.5t70 128.5t26.5 166q0 85 -15 147t-43.5 100t-66.5 56t-87 18h-152v102h152q58 0 102 29t65.5 72t21.5 90q0 78 -130 150q-118 64 -118 216 v25h107v-18q0 -124 125 -182q137 -65 137 -193q0 -118 -149 -218l-27 -16v-9l30 -11q168 -93 168 -360q0 -114 -34.5 -210t-94 -159.5t-140 -99t-172.5 -35.5q-77 0 -145.5 28t-128 89.5t-102 151t-66.5 219.5t-24 289z" />
<glyph unicode="&#x10eb;" horiz-adv-x="1045" d="M137 451q0 85 25 163.5t71 139.5t116 97t154 36q146 0 204 -78l32 -43h18v850h118v-1163q0 -132 -45 -234.5t-129.5 -160.5t-195.5 -58q-86 0 -157 37t-116.5 100t-70 143.5t-24.5 170.5zM262 451q0 -102 26.5 -179.5t81 -123.5t131.5 -46q63 0 112.5 27t80.5 75 t47 110.5t16 136.5q0 50 -9 97t-29.5 90.5t-50 75.5t-72.5 51.5t-95 19.5q-104 0 -171.5 -93t-67.5 -241z" />
<glyph unicode="&#x10ec;" horiz-adv-x="985" d="M102 1308q0 173 59.5 251t183.5 78q45 0 85 -26.5t65 -76.5l23 -45h11l24 45q25 51 66 77t90 26q52 0 93.5 -23t66 -60t37 -79.5t12.5 -85.5v-187h-109v182q0 87 -26 130t-87 43q-36 0 -62.5 -21.5t-42.5 -69.5t-16 -118v-189h-98v192q0 206 -145 206q-67 0 -90 -42.5 t-23 -163.5q0 -238 47 -616h23l13 22q95 130 239 130q155 0 246 -111.5t91 -298.5q0 -185 -212 -586q-198 -370 -198 -473q0 -3 1.5 -8t1.5 -8h-130q4 91 4 134q0 203 -41 382q-61 267 -100 468q-102 680 -102 922zM297 559q-2 -145 74 -452q56 -242 56 -502h14 q100 241 195 447q113 242 117 425q0 149 -59 228.5t-165 79.5t-169 -57t-63 -169z" />
<glyph unicode="&#x10ed;" horiz-adv-x="1026" d="M113 591q0 109 70 175t186 66h184l35 227q2 11 4 26t4 25t3.5 23.5t1.5 25.5q0 141 -126 199q-150 64 -150 224q0 28 2 34h133q-3 -6 -3 -26q0 -123 139 -197q120 -65 120 -226q0 -55 -9 -104l-39 -231h246v-101h-259l-19 -137q-4 -18 -4 -53q0 -126 28 -224t93 -178 q145 -184 145 -343q0 -91 -22.5 -168t-66.5 -136.5t-115 -93.5t-162 -34q-62 0 -115.5 16t-93.5 45t-72 67.5t-52 84.5t-30 95t-10 100q0 98 43 210h114q-32 -143 -32 -210q0 -47 9 -91t29 -83t48.5 -68.5t70 -46.5t91.5 -17q54 0 97 18.5t69.5 49.5t43.5 74.5t24 89t7 98.5 q0 144 -141 334q-63 83 -89.5 177t-26.5 211q0 35 5 53l20 160h-172q-67 0 -108.5 -35t-41.5 -108q0 -30 13 -56t35 -42.5t49 -25.5t55 -9h26v-101h-26q-113 0 -185.5 64.5t-72.5 172.5z" />
<glyph unicode="&#x10ee;" horiz-adv-x="1045" d="M171 453v1163h118v-850h17l44 43q44 78 193 78q83 0 153.5 -36t116 -97t71 -139.5t25.5 -163.5q0 -88 -24.5 -168t-69.5 -143.5t-116.5 -101.5t-157.5 -38q-168 0 -269 125t-101 328zM289 451q0 -99 27.5 -176.5t86.5 -125t143 -47.5q76 0 131 46t81.5 123.5t26.5 179.5 q0 148 -67.5 241t-171.5 93q-65 0 -115.5 -28t-81 -75.5t-45.5 -106t-15 -124.5z" />
<glyph unicode="&#x10ef;" horiz-adv-x="913" d="M102 -507q391 6 391 229q0 165 -279 285l218 398l-287 211v137l339 -271l100 186q23 49 23 76q0 39 -16.5 68t-46 43.5t-67.5 14.5v85q119 0 179 -53t60 -152q0 -67 -43 -123l-105 -200l243 -202v-134l-302 254l-152 -311q250 -98 250 -309q0 -345 -505 -345v113z" />
<glyph unicode="&#x10f0;" horiz-adv-x="1011" d="M137 384q0 109 36 152h102q-13 -55 -13 -122t13 -121.5t40.5 -98t76 -68t115.5 -24.5q118 0 182 82t64 218q0 74 -45 134.5t-134 108t-222 80.5v98q51 -9 100.5 -24.5t78.5 -29.5t54 -24t35 -10q41 0 69.5 33t28.5 84q0 163 -368 235v100q56 -5 104 -21t77.5 -29.5 t43.5 -13.5q98 0 98 135q0 104 -228 165q-224 61 -224 202h139q0 -84 213 -145q216 -62 216 -228q0 -86 -119 -176q162 -100 162 -235q0 -99 -136 -164q175 -128 179 -282q0 -62 -12 -118t-39.5 -107.5t-69 -88.5t-104.5 -59t-143 -22q-91 0 -163.5 30.5t-117 84t-67 122 t-22.5 147.5z" />
<glyph unicode="&#x10f1;" horiz-adv-x="1102" d="M137 498v478q0 410 132 642h131q-138 -191 -138 -652v-471q0 -72 7 -127t23.5 -99.5t42 -75t63 -50.5t86.5 -29.5t112 -9.5q96 0 172 56t76 126q0 159 -187 159h-136v101h136q173 0 173 118q0 127 -186 127h-123v98h123q174 0 174 122q0 121 -186 121h-111v98h111 q173 0 173 134q0 25 -20 52.5t-49 52t-57.5 48.5t-49 51t-20.5 50h137q0 -17 10 -36t26 -37t35.5 -36.5t39 -36.5t35.5 -35t26 -34t10 -32q0 -130 -158 -189q171 -59 171 -171q0 -115 -171 -174q182 -52 182 -171q0 -112 -167 -171q181 -61 181 -211q0 -57 -22 -105 t-59 -80.5t-85 -55t-99.5 -33t-104.5 -10.5q-239 0 -349 119t-110 379z" />
<glyph unicode="&#x10f2;" horiz-adv-x="1011" d="M137 -37q186 0 238 89q-238 219 -238 428q0 197 99 302t273 105q170 0 268 -104.5t98 -305.5q0 -205 -233 -425q52 -89 233 -89v-115q-110 0 -368 174q-253 -172 -370 -172v113zM262 484q0 -137 59.5 -240t185.5 -153q243 95 243 391q0 140 -67 222.5t-174 82.5 q-105 0 -176 -82t-71 -221z" />
<glyph unicode="&#x10f3;" horiz-adv-x="1011" d="M137 -245q0 116 49 245h120q-44 -125 -44 -245q0 -132 61 -210.5t184 -78.5q132 0 187.5 80.5t55.5 239.5v75q0 56 -12 103.5t-33.5 81t-49.5 59.5t-60.5 41.5t-65 23.5t-65.5 8h-102v106h100q135 0 211.5 121.5t76.5 362.5h-464v-291h-111v391h700q0 -487 -233 -643 q52 -20 91.5 -47.5t72.5 -70t51 -104.5t18 -142v-75q0 -211 -94 -316.5t-274 -105.5q-171 0 -270.5 104t-99.5 287z" />
<glyph unicode="&#x10f4;" horiz-adv-x="1011" d="M137 -214q0 173 45 279l113 -8q-33 -127 -33 -271q0 -148 63 -234t184 -86q120 0 180.5 85t60.5 235v168q0 195 -56.5 290t-161.5 95h-146v123h148q97 0 154.5 99t57.5 280q-129 -56 -214 -56q-98 0 -175 30t-124.5 83.5t-71.5 123.5t-24 151q0 88 32 169.5t88.5 143.5 t141.5 99.5t185 37.5v-107q-35 0 -69.5 -8.5t-66.5 -25t-60.5 -39t-52 -51t-41 -60.5t-26.5 -68t-9 -73q0 -132 76.5 -218t193.5 -86q152 0 346 213v-206q0 -89 -24 -187t-72 -185t-109 -125q104 -67 154.5 -174t50.5 -269v-168q0 -198 -99.5 -310t-266.5 -112 q-71 0 -132 21.5t-105 60t-74.5 91.5t-45.5 116t-15 133z" />
<glyph unicode="&#x10f5;" horiz-adv-x="1052" d="M137 377q0 170 92.5 270.5t265.5 100.5h258v189h-250q-92 0 -161 22.5t-114.5 66t-68 106.5t-22.5 146q0 51 12 101t41 97t71 82.5t106 57t142 21.5q366 0 366 -437v-157h132v-106h-132v-189h132v-112h-132v-138q0 -129 -26.5 -225.5t-75.5 -155.5t-115 -88t-149 -29 t-149 24t-107 62t-68 89t-37.5 101t-10.5 101zM262 377q0 -41 9 -80.5t29 -74.5t48.5 -61t70 -41.5t90.5 -15.5q64 0 111 27.5t76 79.5t43 122.5t14 161.5v141h-260q-115 0 -173 -66.5t-58 -192.5zM262 1278q0 -124 59.5 -179.5t183.5 -55.5h248v157q0 73 -14 132.5 t-42.5 104.5t-76 70t-111.5 25q-119 0 -183 -72t-64 -182z" />
<glyph unicode="&#x10f6;" horiz-adv-x="1436" d="M137 445q0 112 17.5 192.5t57.5 137.5t106 84.5t159 27.5q197 0 248 -180q51 180 253 180q174 0 248 -108.5t74 -335.5q0 -225 -73.5 -334t-241.5 -109q-36 0 -70 4t-65 12.5t-51 23.5t-22 35v-381q0 -153 -87.5 -241.5t-225.5 -88.5v107q16 0 30 1t34 6.5t37 14.5 t34 25.5t29 39t19.5 56t7.5 74.5v835q0 61 -9 107.5t-29.5 82.5t-56 55t-85.5 19q-107 0 -160 -91t-53 -253q0 -148 58 -245.5t137 -97.5v-100q-76 0 -137.5 36t-101 98t-60.5 142t-21 169zM777 350q0 -57 10.5 -100.5t34 -77.5t65 -52t100.5 -18q53 0 90.5 23.5t58.5 69.5 t30 106t9 142q0 81 -9.5 142t-31 107.5t-59 70.5t-90.5 24q-208 0 -208 -264v-173z" />
<glyph unicode="&#x10f7;" horiz-adv-x="1124" d="M137 -206q0 288 314 438q313 150 313 356q0 40 -14 76.5t-40.5 67t-70.5 48.5t-98 18q-50 0 -93 -15t-71 -39t-44.5 -53t-16.5 -57q0 -66 14 -125h-111q-10 34 -10 98q0 59 20 111t60 94.5t108 67.5t156 25q75 0 137.5 -26t103 -70t62.5 -100.5t22 -117.5 q0 -242 -310 -402q-306 -157 -306 -395q0 -47 8 -90.5t30 -88t55.5 -76.5t89 -52.5t126.5 -20.5q63 0 115 20t85.5 52t57 74t33.5 84t10 83q0 121 -76 258h122q68 -110 71 -260q-3 -86 -31 -160.5t-79.5 -131t-130.5 -89t-177 -32.5q-110 0 -194 32t-136 90t-78 135.5 t-26 172.5z" />
<glyph unicode="&#x10f8;" horiz-adv-x="1011" d="M137 -256v1120h117v-434q3 -58 17 -108t40 -93t70.5 -67.5t102.5 -24.5q112 0 165.5 80.5t53.5 223.5q0 187 -212 423h162q172 -220 172 -421q0 -180 -93 -293t-248 -113q-109 0 -161 65l-57 57h-12v-415q0 -62 11.5 -109.5t38.5 -87t77 -60.5t122 -21q63 0 109 15.5 t72.5 39t41.5 60.5t19.5 72t4.5 81q0 21 -19 157h124q20 -101 20 -157q0 -112 -47.5 -196.5t-131.5 -129t-193 -44.5q-65 0 -119.5 14t-94 39.5t-69.5 60t-48 77.5t-26.5 89.5t-8.5 99.5z" />
<glyph unicode="&#x10f9;" horiz-adv-x="1117" d="M137 418q0 96 30.5 184.5t85 156.5t138 109t182.5 41q83 0 159.5 -41t131 -108.5t86.5 -159t32 -188.5q0 -75 -19.5 -146t-56.5 -131t-87.5 -105.5t-116.5 -71.5t-138 -26q-169 -135 -169 -275q0 -47 14.5 -84.5t41.5 -62.5t65.5 -38t86.5 -13q107 0 163.5 49.5 t56.5 131.5q0 27 -5 82h98q12 -40 12 -74q0 -130 -88 -207t-237 -77q-147 0 -235 82.5t-88 210.5q0 141 173 284q-159 58 -237.5 182.5t-78.5 294.5zM262 416q0 -73 19.5 -139.5t57 -120t98 -89t136.5 -45.5q75 6 140.5 60t104.5 142.5t39 189.5q0 74 -22 145.5t-59.5 126 t-91 88t-111.5 33.5q-94 0 -166 -54.5t-108.5 -142.5t-36.5 -194z" />
<glyph unicode="&#x10fa;" horiz-adv-x="1011" d="M137 516q0 166 94.5 268.5t263.5 102.5q184 0 282 -95t98 -267q0 -96 -29 -184h-121q28 60 28 180t-66 192t-192 72q-74 0 -128 -37.5t-79.5 -98t-25.5 -135.5q0 -246 241 -375q236 -129 356 -262l-106 -66q-121 178 -230 178q-140 0 -209 -134l-116 38q55 89 227 157 q-288 201 -288 466z" />
<glyph unicode="&#x10fb;" horiz-adv-x="902" d="M111 -57v178h175v-178h-175zM111 755v175h175v-175h-175zM616 345v176h175v-176h-175z" />
<glyph unicode="&#x10fc;" horiz-adv-x="551" d="M34 1076v365q0 198 200 198h261v-91l-286 3q-75 0 -75 -89v-184q65 84 137 84q66 0 111 -20t70 -59t35.5 -88.5t10.5 -116.5q0 -156 -60 -237.5t-172 -81.5q-232 0 -232 317zM134 1069q0 -219 132 -219q129 0 129 228q0 195 -136 195q-125 -16 -125 -204z" />
<glyph unicode="&#x2000;" horiz-adv-x="949" />
<glyph unicode="&#x2001;" horiz-adv-x="1898" />
<glyph unicode="&#x2002;" horiz-adv-x="949" />
<glyph unicode="&#x2003;" horiz-adv-x="1898" />
<glyph unicode="&#x2004;" horiz-adv-x="632" />
<glyph unicode="&#x2005;" horiz-adv-x="474" />
<glyph unicode="&#x2006;" horiz-adv-x="316" />
<glyph unicode="&#x2007;" horiz-adv-x="316" />
<glyph unicode="&#x2008;" horiz-adv-x="237" />
<glyph unicode="&#x2009;" horiz-adv-x="379" />
<glyph unicode="&#x200a;" horiz-adv-x="105" />
<glyph unicode="&#x2010;" horiz-adv-x="818" d="M50 445v82h759v-82h-759z" />
<glyph unicode="&#x2011;" horiz-adv-x="818" d="M50 445v82h759v-82h-759z" />
<glyph unicode="&#x2012;" horiz-adv-x="1369" d="M0 423v115h1436v-115h-1436z" />
<glyph unicode="&#x2013;" horiz-adv-x="1369" d="M7 407v109h1412v-109h-1412z" />
<glyph unicode="&#x2014;" horiz-adv-x="2460" d="M-4 430v108h2591v-108h-2591z" />
<glyph unicode="&#x2015;" horiz-adv-x="1386" d="M82 423v115h1293v-115h-1293z" />
<glyph unicode="&#x2018;" horiz-adv-x="547" d="M186 1150v166q0 230 164 328l23 -43q-132 -123 -132 -265h123v-186h-178z" />
<glyph unicode="&#x2019;" horiz-adv-x="547" d="M186 1191q130 127 130 271h-125v182h178v-167q0 -227 -160 -325z" />
<glyph unicode="&#x201a;" horiz-adv-x="547" d="M186 -278q70 34 95.5 96.5t34.5 185.5h-121v185h167v-163q0 -100 -20.5 -168.5t-53.5 -104t-84 -57.5l-18 20v6z" />
<glyph unicode="&#x201b;" horiz-adv-x="547" d="M204 1486v158h165v-182h-124q4 -219 132 -282l-15 -23q-29 14 -52 30.5t-39 36t-28 36.5t-19 41.5t-11 42t-6 46.5t-2.5 46.5t-0.5 49.5z" />
<glyph unicode="&#x201c;" horiz-adv-x="818" d="M157 1143v160q0 99 14.5 161t45.5 100.5t87 70.5l23 -30q-39 -39 -56 -92t-17 -140q0 -7 1 -25t1 -27h85v-178h-184zM518 1143v160q0 95 16.5 159t49 104.5t86.5 68.5l22 -30q-22 -17 -36.5 -38t-22.5 -41.5t-11.5 -56t-4.5 -64.5t-1 -84h89v-178h-187z" />
<glyph unicode="&#x201d;" horiz-adv-x="818" d="M137 1167q64 41 90.5 102t38.5 180h-127v188h165v-168q0 -105 -18.5 -171t-50 -98.5t-85.5 -56.5q-13 4 -13 24zM495 1167q63 40 93 106t37 176h-120v188h161v-168q0 -105 -18.5 -171t-50 -98.5t-85.5 -56.5q-1 3 -5 7.5t-7.5 9t-4.5 7.5z" />
<glyph unicode="&#x201e;" horiz-adv-x="861" d="M166 4v185h175v-163q0 -80 -9.5 -134.5t-31 -91.5t-47 -58.5t-67.5 -45.5l-15 24q12 8 21 17t16 17.5t13 21.5t9.5 22t6.5 26.5t4.5 28t3 33t2 35t1.5 40.5t2 43h-84zM536 4v185h176v-163q0 -101 -21 -169t-52.5 -103t-81.5 -58l-19 24q23 14 38.5 31t23.5 32.5t12.5 43 t5.5 47t3 61t4 69.5h-89z" />
<glyph unicode="&#x201f;" horiz-adv-x="818" d="M141 1291q0 9 2 31t2 36q0 18 -2 58.5t-2 63.5v162h165v-180h-120q0 -104 34.5 -178t98.5 -109l-22 -27q-34 20 -55 33.5t-48 33.5t-40 39t-13 37zM498 1480v162h164v-180h-128q5 -113 36.5 -183t97.5 -104l-15 -27q-29 18 -51.5 36t-38 38t-27 36.5t-18.5 40.5t-11.5 40 t-6 44.5t-2 45.5t-0.5 51z" />
<glyph unicode="&#x2022;" horiz-adv-x="861" d="M169 770q0 74 39.5 136.5t105.5 98.5t141 36q76 0 143 -36.5t107.5 -99t40.5 -135.5q0 -53 -24 -103t-63.5 -86.5t-93 -58t-110.5 -21.5q-75 0 -141 36.5t-105.5 99t-39.5 133.5z" />
<glyph unicode="&#x2026;" horiz-adv-x="1551" d="M89 4v180h182v-180h-182zM682 4v180h186v-180h-186zM1280 4v180h184v-180h-184z" />
<glyph unicode="&#x2027;" horiz-adv-x="768" d="M306 384v180h185v-180h-185z" />
<glyph unicode="&#x202f;" horiz-adv-x="379" />
<glyph unicode="&#x2039;" horiz-adv-x="818" d="M152 512l386 516h110l-334 -516l332 -510h-108z" />
<glyph unicode="&#x203a;" horiz-adv-x="818" d="M171 2l334 516l-334 510h107l375 -505l-375 -521h-107z" />
<glyph unicode="&#x205f;" horiz-adv-x="474" />
<glyph unicode="&#x20ac;" horiz-adv-x="1369" d="M-9 582q13 37 13 64l3 18q0 2 2 4h143v226h-161q0 9 1 23.5t5.5 35t11.5 27.5l154 9q27 118 85 219t138 176.5t180.5 131.5t213 88.5t233.5 43.5q214 -14 365 -80q-2 -26 -16.5 -80.5t-16.5 -62.5q-181 89 -336 89q-252 0 -422.5 -135.5t-247.5 -389.5h891 q-3 -14 -7.5 -27.5t-7 -20.5t-4 -19t-1.5 -28h-885v-226h839q-1 -1 -3.5 -2t-3.5 -2q-1 -2 -3 -17.5t-6 -30.5l-5 -15q0 -20 -119 -24t-555 -4h-124q29 -124 80 -219t112.5 -153.5t139 -96t152 -51.5t158.5 -14q195 0 341 74v-152q-149 -52 -319 -52q-144 11 -277 60.5 t-243.5 132t-192 203.5t-118.5 268zM1164 668q2 0 3 1t2 1h2l-2 -2h-5z" />
<glyph unicode="&#x2116;" horiz-adv-x="2004" d="M63 262h100q5 -56 48.5 -95t85.5 -39q63 0 100 36t37 107v1178h-223v111h337l656 -1312v1118q0 104 72 182.5t165 78.5q94 0 171.5 -72.5t85.5 -174.5h-114q-5 49 -49 93.5t-94 44.5q-55 0 -92 -47t-37 -105v-1359h-112l-659 1323v-1059q0 -66 -29.5 -126.5t-84.5 -99 t-121 -38.5q-96 0 -165 76t-78 179zM1451 750q0 71 28.5 132.5t88 101t137.5 39.5q63 0 114.5 -23.5t84 -62.5t50 -88t17.5 -101q0 -120 -70.5 -198.5t-195.5 -78.5q-116 0 -185 80.5t-69 198.5zM1469 80v109h481v-109h-481zM1551 753q0 -71 43 -119t111 -48q79 0 121 44.5 t42 119.5q0 43 -19.5 79.5t-57.5 59t-86 22.5q-66 0 -110 -48t-44 -110z" />
<glyph unicode="&#x2122;" horiz-adv-x="2460" d="M284 1571v80h794v-80h-353v-825h-89v825h-352zM1280 746v905h184l304 -878q24 55 78.5 228.5t79.5 226.5l11 34q16 49 45.5 137t50 151t32.5 101h178v-905h-74v800q-16 7 -34 7h-12q-10 0 -30 7q-20 -43 -64 -171t-88.5 -264t-53.5 -162q-6 -16 -14 -38t-15 -40.5 t-14 -39l-14 -41t-12 -38.5l-6 -20h-87l-291 831q-39 -17 -63 -17h-13v-814h-78z" />
<glyph unicode="&#x2219;" horiz-adv-x="616" d="M234 412v163h161v-163h-161z" />
<glyph unicode="&#x25fc;" horiz-adv-x="1056" d="M0 0v1057h1057v-1057h-1057z" />
</font>
</defs>
</svg>
