<?xml version="1.0" standalone="no"?>
<!DOCTYPE svg PUBLIC "-//W3C//DTD SVG 1.1//EN" "http://www.w3.org/Graphics/SVG/1.1/DTD/svg11.dtd" >
<svg xmlns="http://www.w3.org/2000/svg" xmlns:xlink="http://www.w3.org/1999/xlink" version="1.1">
<metadata></metadata>
<defs>
<font id="bpg_web_001regular" horiz-adv-x="1237" >
<font-face units-per-em="2048" ascent="1556" descent="-492" />
<missing-glyph horiz-adv-x="618" />
<glyph unicode="&#xd;" horiz-adv-x="647" />
<glyph unicode=" "  horiz-adv-x="618" />
<glyph unicode="&#x09;" horiz-adv-x="618" />
<glyph unicode="&#xa0;" horiz-adv-x="618" />
<glyph unicode="!" horiz-adv-x="779" d="M261 0v283h238v-283h-238zM261 782v618h238v-618l-19 -348h-198z" />
<glyph unicode="&#x22;" horiz-adv-x="894" d="M162 846v554h208v-554h-208zM503 846v554h208v-554h-208z" />
<glyph unicode="#" horiz-adv-x="1630" d="M136 373v192h324q16 64 30 122t32 125h-283v193h331q22 91 46.5 188t46.5 186h201l-94 -374h208q23 91 48 188t47 186h199l-93 -374h275v-193h-323q-9 -34 -15.5 -63.5t-14.5 -58.5t-15 -59.5t-15 -65.5h279v-192h-328q-22 -90 -47 -187t-47 -186h-199l93 373h-209 q-22 -90 -46.5 -187t-46.5 -186h-201l94 373h-277zM662 565h207l62 247h-208q-9 -33 -16.5 -62.5t-14.5 -59t-14 -60t-16 -65.5z" />
<glyph unicode="$" d="M142 92v229q208 -129 380 -138v359q-100 18 -172 47.5t-118 72.5t-68 99.5t-22 127.5q0 154 98 244.5t282 109.5v214h145v-210q75 -7 157.5 -22.5t157.5 -39.5v-222q-175 86 -315 98v-332q200 -36 299 -123q98 -88 98 -236q0 -160 -102.5 -253t-294.5 -112v-277h-145v273 q-91 5 -185.5 26.5t-194.5 64.5zM362 904q0 -60 38 -96q38 -35 122 -54v305q-79 -14 -119.5 -53t-40.5 -102zM667 189q86 17 131.5 59t45.5 105q0 31 -9.5 57t-30.5 45.5t-55 34t-82 25.5v-326z" />
<glyph unicode="%" horiz-adv-x="1848" d="M99 1032q0 178 89 284q93 109 247 109q155 0 249 -108q90 -104 90 -285q0 -182 -90 -287v1q-93 -108 -249 -109q-156 0 -248 109q-88 105 -88 286zM295 1032q0 -106 37.5 -165.5t102.5 -59.5q66 0 104 59t38 166q0 104 -38 164t-104 60t-103 -60t-37 -164zM360 -27 l874 1452h208l-875 -1452h-207zM1027 367q0 179 90 285q95 109 249 109q155 0 247 -109q90 -105 90 -285q0 -90 -22 -161.5t-69 -124.5v1q-91 -108 -246 -109q-157 0 -249 109q-90 105 -90 285zM1226 367q0 -104 37.5 -164.5t102.5 -60.5t102 60t37 165q0 106 -37 166 t-102 60q-66 0 -103 -60t-37 -166z" />
<glyph unicode="&#x26;" horiz-adv-x="1517" d="M110 443q0 234 231 413q-78 112 -78 218q0 160 109 255v-1q54 48 124.5 72.5t159.5 24.5q153 0 327 -74v-227q-95 51 -173 77.5t-136 26.5q-85 0 -136 -44q-49 -42 -50 -109q0 -19 6.5 -39t16.5 -40v1q12 -22 38.5 -52.5t67.5 -73.5h-1l435 -444q43 73 67 160t29 189h224 q-13 -133 -58 -255.5t-125 -234.5q31 -32 67.5 -69.5t74 -75.5t73 -75t65.5 -66h-303l-120 122q-94 -75 -195.5 -112t-219.5 -37q-226 -1 -374 131q-146 132 -146 339zM338 453q0 -119 87 -198q87 -81 221 -81q146 0 262 90l-441 449q-67 -66 -98 -128.5t-31 -131.5z" />
<glyph unicode="'" horiz-adv-x="534" d="M158 846v554h207v-554h-207z" />
<glyph unicode="(" horiz-adv-x="759" d="M142 607q0 205 69.5 414.5t212.5 433.5h206q-131 -225 -195 -434.5t-64 -413.5q0 -206 64 -416t195 -434h-206q-142 223 -212 433t-70 417z" />
<glyph unicode=")" horiz-adv-x="759" d="M110 -243q130 224 194 434t64 416q0 204 -64.5 414t-193.5 434h205q142 -224 212.5 -433.5t70.5 -414.5q0 -206 -70.5 -417.5t-212.5 -432.5h-205z" />
<glyph unicode="*" horiz-adv-x="972" d="M30 810l305 167q-37 20 -76.5 40.5t-78 42t-76.5 42.5t-74 40l80 136l285 -172v319h158v-319q69 43 143.5 87.5t141.5 84.5l80 -136l-305 -166q37 -20 76 -41.5t78.5 -43t77.5 -42t73 -39.5l-81 -135l-284 172v-319h-158v319q-69 -43 -143.5 -87.5t-141.5 -84.5z" />
<glyph unicode="+" horiz-adv-x="1630" d="M189 503v207h503v502h205v-502h502v-207h-502v-503h-205v503h-503z" />
<glyph unicode="," horiz-adv-x="618" d="M115 -215l82 319v179h244v-189l-158 -309h-168z" />
<glyph unicode="-" horiz-adv-x="702" d="M72 432v202h540v-202h-540z" />
<glyph unicode="." horiz-adv-x="618" d="M179 0v283h244v-283h-244z" />
<glyph unicode="/" horiz-adv-x="655" d="M-28 -171l484 1571h212l-486 -1571h-210z" />
<glyph unicode="0" d="M110 699q0 177 32 313t94.5 227.5t154 138.5t211.5 47t212 -47t154.5 -138.5t94.5 -227.5t32 -313t-32 -312t-94.5 -227.5t-154.5 -139.5t-212 -47t-211.5 47t-154 139.5t-94.5 227.5t-32 312zM348 699q0 -527 254 -527q256 0 257 527q-1 527 -257 527q-255 0 -254 -527z " />
<glyph unicode="1" d="M192 1110v220l348 70h210v-1193h298v-207h-830v207h298v968q-39 -8 -80.5 -16.5l-83 -17t-82.5 -16.5t-78 -15z" />
<glyph unicode="2" d="M124 0v191q5 6 14 15l14 14q50 51 115 118.5t146 148.5q91 91 146.5 148.5t77.5 83.5q86 97 118 160q32 65 33 123q0 95 -67 155q-66 60 -178 60q-84 0 -184.5 -34t-226.5 -105v248q243 99 408 99q219 0 350 -111q135 -113 135 -300q0 -89 -33 -169q-31 -76 -118 -181 q-11 -13 -40 -44t-81.5 -85t-131 -135t-188.5 -193h600v-207h-909z" />
<glyph unicode="3" d="M129 48v243q92 -54 189.5 -82t192.5 -28q159 0 241 60.5t82 176.5q0 53 -19.5 95.5t-56.5 71.5t-90.5 44.5t-121.5 15.5h-184v203h191q123 0 186.5 46.5t63.5 135.5q0 91 -66 139t-191 48q-75 0 -166.5 -18.5t-209.5 -57.5v219q115 33 212 49t180 16q218 0 345 -101h-1 q132 -101 132 -275q0 -103 -48 -178.5t-140 -117.5q86 -35 140 -99q39 -47 59.5 -107.5t20.5 -128.5q0 -210 -148 -329q-142 -116 -406 -116q-86 0 -182.5 19t-204.5 56z" />
<glyph unicode="4" d="M79 317v210l573 873h270v-877h191v-206h-191v-317h-235v317h-608zM303 523h384v600q-49 -78 -97 -151l-94 -146q-47 -73 -94.5 -148t-98.5 -155z" />
<glyph unicode="5" d="M131 38v249q98 -53 190.5 -79.5t186.5 -26.5q149 -1 230 75q82 74 82 203q0 127 -82 203q-81 74 -230 74q-71 0 -149.5 -19t-170.5 -61v744h769v-207h-549v-267q33 9 66 13.5t67 4.5q236 0 375 -131q141 -130 140 -354q0 -228 -144 -358q-142 -127 -400 -128 q-88 0 -182 16t-199 49z" />
<glyph unicode="6" d="M118 699q0 328 158 526q161 200 427 200q71 0 147 -15.5t164 -47.5v-227q-84 40 -160.5 61t-142.5 21q-301 0 -350 -379q55 52 125 79q68 27 150 27q213 0 341 -132q63 -66 94 -153t31 -200q0 -218 -131 -352t-346 -134q-248 0 -379 191q-64 94 -96 227t-32 308zM387 459 q0 -67 16.5 -120t47.5 -93q32 -35 76 -54.5t98 -19.5t98 19.5t76 54.5q31 40 48 92.5t17 120.5q0 136 -65 213q-65 74 -174 74q-110 0 -174 -74q-65 -78 -64 -213z" />
<glyph unicode="7" d="M140 1193v207h920v-110l-497 -1290h-249l460 1193h-634z" />
<glyph unicode="8" d="M114 406q0 138 80 235q28 33 64 59t78 45q-92 43 -141.5 120t-49.5 184q0 174 125 275q124 101 332 101q210 0 334 -101q124 -102 124 -275q0 -105 -49 -183t-141 -121q84 -36 141 -104q40 -48 60.5 -108t20.5 -127q0 -104 -32.5 -184.5t-95 -136t-153.5 -84t-209 -28.5 t-208.5 28.5t-152.5 84t-94.5 135.5t-32.5 185zM352 406q0 -112 64 -171q66 -63 186 -63t187 63h-1q66 64 67 171q0 110 -66 171q-33 31 -79 46.5t-108 15.5q-121 0 -186 -62q-64 -59 -64 -171zM381 1032q0 -92 57.5 -143.5t163.5 -51.5q105 0 164.5 51.5t59.5 143.5 t-59 143t-165 51t-163.5 -51t-57.5 -143z" />
<glyph unicode="9" d="M104 940q0 218 132 351q131 134 344 134q124 0 218.5 -47t158.5 -138.5t97.5 -227.5t33.5 -313q0 -328 -158 -526h1q-80 -100 -186 -150q-105 -50 -241 -50q-71 0 -148 16t-165 47v227q85 -40 161.5 -61t142.5 -21q153 0 239 94.5t111 284.5q-54 -48 -126 -76t-150 -28 q-213 0 -340 130q-125 130 -125 354zM342 940q0 -135 65 -213q63 -74 173 -74q109 0 174 74q66 77 66 213q0 135 -66 211q-64 75 -174 75t-173 -75q-65 -78 -65 -211z" />
<glyph unicode=":" horiz-adv-x="655" d="M198 0v283h244v-283h-244zM198 726v283h244v-283h-244z" />
<glyph unicode=";" horiz-adv-x="655" d="M115 -215l82 319v179h244v-189l-158 -309h-168zM197 726v283h244v-283h-244z" />
<glyph unicode="&#x3c;" horiz-adv-x="1630" d="M189 512v188l1210 439v-222l-877 -312q218 -77 440 -155q221 -80 437 -156v-221z" />
<glyph unicode="=" horiz-adv-x="1630" d="M189 317v207h1210v-207h-1210zM189 687v206h1210v-206h-1210z" />
<glyph unicode="&#x3e;" horiz-adv-x="1630" d="M189 73v221l875 311l-875 312v222l1210 -439v-188z" />
<glyph unicode="?" horiz-adv-x="1032" d="M119 1074v237q186 114 379 114q177 0 284 -94q109 -95 109 -252q0 -75 -36 -143q-17 -32 -47 -69.5t-71 -77.5q-19 -18 -40 -38q-21 -21 -40 -39v1q-20 -20 -33.5 -34.5t-22 -26.5t-14 -21.5t-7.5 -18.5q-5 -17 -7.5 -42.5t-2.5 -69.5v-138h-226v165q0 96 28 161 q14 32 41.5 68.5t70.5 76.5q21 20 40.5 40.5t40.5 39.5q48 45 69 82t21 76q0 66 -51 108q-52 44 -138 44q-67 0 -155 -38t-192 -111zM338 0v283h238v-283h-238z" />
<glyph unicode="@" horiz-adv-x="1945" d="M120 517q0 171 62.5 323t181.5 270q122 120 277.5 182.5t332.5 62.5q196 0 366 -82q85 -41 156.5 -98t128.5 -133q70 -92 107.5 -199.5t37.5 -223.5q0 -248 -152 -394q-150 -143 -442 -150v97q-52 -48 -115 -70t-144 -22q-86 0 -153.5 29.5t-120.5 90.5 q-103 118 -102 311q0 191 103 312q105 122 273 121q84 0 145 -20.5t114 -73.5v76h183v-657q98 24 157 102q69 95 70 245q0 184 -109 321q-91 115 -219.5 174t-281.5 59q-107 0 -205 -28t-182 -84q-137 -86 -213 -232q-76 -142 -76 -309q0 -139 50 -259t144 -212 q92 -90 210.5 -137t255.5 -47q112 0 225.5 42t213.5 121l116 -143q-128 -99 -270 -151t-285 -52q-174 0 -325 60.5t-271 178.5q-121 118 -182.5 270t-61.5 329zM739 511q0 -117 57 -185v1q56 -65 156 -65q98 0 153 65q58 68 58 184q0 113 -59 183q-60 66 -154 65 q-97 0 -154 -65v1q-28 -34 -42.5 -79t-14.5 -105z" />
<glyph unicode="A" horiz-adv-x="1330" d="M-12 0l541 1418h247l541 -1418h-251l-125 350h-575q-15 -42 -31 -86.5t-32 -89.5t-31.5 -89t-30.5 -85h-253zM440 558h424l-212 572q-28 -75 -53.5 -145t-51 -139t-52.5 -140t-55 -148z" />
<glyph unicode="B" horiz-adv-x="1334" d="M169 0v1418h499q112 0 199 -24t147 -70.5t90.5 -114.5t30.5 -155q0 -113 -38.5 -186t-124.5 -107q107 -46 163 -135t56 -217q0 -197 -134 -303q-132 -106 -370 -106h-518zM408 206h269q136 0 200.5 54.5t64.5 168.5t-64.5 168t-200.5 54h-269v-445zM408 856h247 q122 0 181 43t59 135q0 178 -237 178h-3h-247v-356z" />
<glyph unicode="C" horiz-adv-x="1358" d="M91 708q0 340 185 536q183 199 505 199h3q254 0 461 -142v-273q-113 106 -225 157.5t-225 51.5q-222 0 -338.5 -135t-116.5 -394q0 -128 29.5 -226.5t87.5 -165.5t143 -101.5t195 -34.5q227 0 450 209v-271q-211 -144 -461 -145q-322 0 -508 198q-185 197 -185 537z" />
<glyph unicode="D" horiz-adv-x="1498" d="M171 0v1418h407q197 0 349.5 -46t250.5 -127q93 -86 144 -221.5t51 -312.5q0 -183 -49 -317t-147 -221q-194 -173 -599 -173h-407zM410 206h196q271 0 393 120q124 120 124 385q0 261 -124 381q-123 120 -389 120h-4h-196v-1006z" />
<glyph unicode="E" horiz-adv-x="1229" d="M169 0v1418h917v-210h-678v-348h649v-210h-649v-440h694v-210h-933z" />
<glyph unicode="F" horiz-adv-x="1119" d="M168 0v1418h838v-210h-599v-346h541v-211h-541v-651h-239z" />
<glyph unicode="G" horiz-adv-x="1507" d="M92 708q0 347 187 539q187 196 521 196q138 0 264 -36t238 -106v-271q-241 207 -487 207q-237 0 -355.5 -133t-118.5 -396q0 -262 119 -395t355 -133q89 0 158.5 14t126.5 44v322h-301v208h539v-627q-118 -84 -253 -126t-285 -42q-332 0 -521 195q-187 195 -187 540z" />
<glyph unicode="H" horiz-adv-x="1463" d="M170 0v1418h239v-558h616v558h239v-1418h-239v650h-616v-650h-239z" />
<glyph unicode="I" horiz-adv-x="573" d="M162 0v1418h239v-1418h-239z" />
<glyph unicode="J" horiz-adv-x="573" d="M-122 -164h86q107 0 150 58q45 60 45 229v1295h239v-1295q0 -129 -24.5 -223t-76.5 -153q-101 -121 -317 -121h-4h-98v210z" />
<glyph unicode="K" horiz-adv-x="1275" d="M171 0v1418h239v-539q37 35 84.5 79t98.5 92.5t104.5 99t104.5 99t97.5 92t83.5 77.5h319l-707 -665q88 -89 184 -185l385 -385q95 -95 182 -183h-319l-617 618v-618h-239z" />
<glyph unicode="L" horiz-adv-x="1083" d="M168 0v1418h240v-1208h664v-210h-904z" />
<glyph unicode="M" horiz-adv-x="1678" d="M172 0v1418h322l329 -877q82 218 166 440t164 437h321v-1418h-234v1073q-74 -200 -152.5 -406.5t-152.5 -404.5h-223l-305 812v-1074h-235z" />
<glyph unicode="N" horiz-adv-x="1455" d="M170 0v1418h294l559 -1056v1056h234v-1418h-293l-560 1056v-1056h-234z" />
<glyph unicode="O" horiz-adv-x="1531" d="M92 708q0 332 180 533q179 202 479 202t479 -202q180 -201 180 -533q0 -331 -180 -533q-180 -201 -479 -202q-299 0 -479 202q-180 201 -180 533zM342 708q0 -248 112 -390h-1q110 -140 295 -140h3q188 0 297 139q112 142 112 391q0 250 -112 391q-109 140 -297 140 q-187 0 -298 -140h1q-112 -142 -112 -391z" />
<glyph unicode="P" horiz-adv-x="1173" d="M169 0v1418h444q244 0 367.5 -110t123.5 -325q0 -217 -123.5 -326t-367.5 -109h-205v-548h-239zM408 754h205q116 0 179 59.5t63 169.5t-63 169.5t-179 59.5h-205v-458z" />
<glyph unicode="Q" horiz-adv-x="1531" d="M92 708q0 332 180 533q180 202 479 202q300 0 479 -202q180 -201 180 -533q0 -120 -26 -227t-74 -193q-46 -79 -110 -140q-66 -62 -146 -104l261 -285h-297l-200 217q-24 -2 -38.5 -2.5t-28.5 -0.5q-299 0 -479 202t-180 533zM342 708q0 -248 112 -390h-1 q110 -140 295 -140h3q188 0 297 139q112 142 112 391q0 250 -112 391q-109 140 -297 140q-187 0 -298 -140h1q-112 -142 -112 -391z" />
<glyph unicode="R" horiz-adv-x="1351" d="M171 0v1418h444q247 0 369 -104.5t122 -315.5q0 -123 -49.5 -207.5t-146.5 -129.5q49 -34 95.5 -96.5t91.5 -152.5q23 -47 50 -100t54 -107t54 -106.5t49 -98.5h-259l-182 366q-62 127 -122 170q-56 41 -158 41h-173v-577h-239zM410 783h205q121 0 181.5 54.5t60.5 160.5 t-61 160t-181 54h-205v-429z" />
<glyph unicode="S" horiz-adv-x="1235" d="M108 1027q0 193 137 306q134 110 369 110q197 0 426 -78v-242q-123 58 -222 87t-183 29q-139 0 -212.5 -51.5t-73.5 -146.5q0 -77 44 -116h-1q49 -42 194 -68l112 -23q207 -44 316 -150t109 -280q0 -213 -138.5 -322t-411.5 -109q-100 0 -215.5 24t-244.5 71v256 q261 -146 460 -146q146 0 224 54.5t78 157.5q0 43 -14.5 78t-38.5 59q-28 24 -76.5 44.5t-112.5 33.5l-112 22q-216 43 -313 136q-100 95 -100 264z" />
<glyph unicode="T" horiz-adv-x="1188" d="M-22 1208v210h1209v-210h-484v-1208h-240v1208h-485z" />
<glyph unicode="U" horiz-adv-x="1424" d="M149 540v878h241v-856q0 -207 72 -298q71 -86 236 -86t237 86q72 91 72 298v856h240v-878q0 -280 -138.5 -423.5t-410.5 -143.5t-410.5 143t-138.5 424z" />
<glyph unicode="V" horiz-adv-x="1330" d="M-12 1418h251l413 -1098q104 274 208 550.5t206 547.5h251l-541 -1418h-247z" />
<glyph unicode="W" horiz-adv-x="1923" d="M46 1418h242l266 -1065q66 266 132.5 534t132.5 531h249l266 -1065q66 266 132.5 534t132.5 531h242l-355 -1418h-275l-267 1097q-66 -274 -134 -549.5t-135 -547.5h-274z" />
<glyph unicode="X" horiz-adv-x="1332" d="M17 0l505 754l-442 664h264l324 -484q81 121 163.5 243.5t162.5 240.5h264l-457 -682q58 -87 119.5 -180.5t124 -188t124 -188t118.5 -179.5h-264l-369 558q-92 -139 -186 -280t-186 -278h-265z" />
<glyph unicode="Y" horiz-adv-x="1188" d="M-45 1418h265l364 -538q89 133 181 269.5t180 268.5h264l-506 -750v-668h-240v668z" />
<glyph unicode="Z" horiz-adv-x="1332" d="M69 0v178l833 1030h-812v210h1127v-177l-833 -1031h854v-210h-1169z" />
<glyph unicode="[" horiz-adv-x="759" d="M141 -243v1700h437v-183h-217v-1335h217v-182h-437z" />
<glyph unicode="\" horiz-adv-x="655" d="M-28 1400h210l486 -1571h-212z" />
<glyph unicode="]" horiz-adv-x="759" d="M162 -61h216v1335h-216v183h436v-1700h-436v182z" />
<glyph unicode="^" horiz-adv-x="1630" d="M152 844l543 556h199l542 -556h-255l-387 347q-94 -85 -194 -174.5t-192 -172.5h-256z" />
<glyph unicode="_" horiz-adv-x="972" d="M-32 -253h1012v-182h-1012v182z" />
<glyph unicode="`" horiz-adv-x="972" d="M103 1531h251l295 -391h-204z" />
<glyph unicode="a" horiz-adv-x="1192" d="M98 321q0 185 120 278t362 93h206q-5 97 -72.5 149.5t-188.5 52.5q-167 0 -353 -102v218q206 79 370 79q233 0 348 -121t115 -365v-603h-219v98q-58 -61 -138.5 -93t-183.5 -32q-166 0 -266 94q-100 98 -100 254zM318 332q0 -77 50.5 -121t138.5 -44q127 0 201 88 q78 92 78 243v9h-139h-9q-185 0 -256 -41q-64 -39 -64 -134z" />
<glyph unicode="b" horiz-adv-x="1235" d="M158 0v1457h220v-490q54 58 128.5 90t167.5 32q198 0 320 -157q121 -152 121 -397q0 -252 -121 -405q-62 -78 -141 -117.5t-179 -39.5q-92 0 -167 32t-129 90v-95h-220zM378 531q0 -173 69 -273v1q68 -92 187 -92t184 91q70 97 70 273q0 175 -70 271q-66 94 -184 94 q-115 0 -187 -94v1q-69 -100 -69 -272z" />
<glyph unicode="c" horiz-adv-x="1069" d="M88 531q0 259 143 408q144 150 392 150q80 0 159.5 -18t158.5 -55v-218q-87 48 -164 72t-147 24q-147 0 -230 -94q-83 -96 -83 -269q0 -86 21.5 -153.5t61.5 -116.5q42 -44 100.5 -68.5t129.5 -24.5q70 0 147 24.5t164 71.5v-216q-81 -37 -161 -56t-168 -19 q-122 0 -216.5 38.5t-165.5 114.5q-142 150 -142 405z" />
<glyph unicode="d" horiz-adv-x="1235" d="M89 531q0 249 121 401q123 157 320 157q92 0 167 -32t129 -90v490h220v-1457h-220v95q-54 -58 -129 -90t-167 -32q-198 0 -320 157q-121 152 -121 401zM315 531q0 -175 70 -273v1q66 -92 185 -92q118 0 186 92q70 99 70 272t-70 271q-71 94 -186 94q-116 0 -185 -94v1 q-70 -98 -70 -272z" />
<glyph unicode="e" horiz-adv-x="1197" d="M90 522q0 258 141 411q142 156 381 156q216 0 342 -141q126 -140 126 -374v-108h-760q16 -146 100 -222t231 -76q92 0 188 28t202 84v-219q-100 -43 -199.5 -65.5t-200.5 -22.5q-127 0 -227 37.5t-176 112.5q-148 147 -148 399zM327 648l532 1q-7 105 -69 173 q-66 72 -176 72q-129 0 -205 -71h1q-68 -66 -83 -175z" />
<glyph unicode="f" horiz-adv-x="684" d="M25 881v183h158v44q0 91 21 157t64.5 108.5t110.5 63t159 20.5h184v-192h-185q-79 0 -106 -28v1q-26 -27 -26 -106v-6v-62h273v-183h-273v-881h-222v881h-158z" />
<glyph unicode="g" horiz-adv-x="1235" d="M89 543q0 244 121 394q122 152 320 152q186 0 296 -122v97h220v-912q0 -271 -121.5 -403.5t-370.5 -132.5q-89 0 -173.5 15.5t-169.5 45.5v225q91 -49 168.5 -72t148.5 -23q296 0 298 314q-108 -121 -296 -121q-200 0 -320 151q-121 150 -121 392zM315 543 q0 -83 17.5 -148t50 -110t80 -68.5t107.5 -23.5q120 0 187 88q69 94 69 262q0 169 -66.5 261t-189.5 92q-120 0 -186 -89q-35 -46 -52 -111.5t-17 -152.5z" />
<glyph unicode="h" horiz-adv-x="1233" d="M157 0v1457h220v-497q60 66 133 97.5t166 31.5q188 0 284 -114.5t96 -338.5v-636h-220v631q0 259 -197 259q-121 0 -192 -77q-70 -78 -70 -215v-598h-220z" />
<glyph unicode="i" horiz-adv-x="540" d="M154 0v1064h220v-1064h-220zM154 1193v264h220v-264h-220z" />
<glyph unicode="j" horiz-adv-x="540" d="M-56 -189h71q83 0 108 33q28 35 28 165v1055h220v-1055q0 -202 -80 -298v1q-82 -96 -257 -96h-90v195zM151 1193v264h220v-264h-220z" />
<glyph unicode="k" horiz-adv-x="1126" d="M158 0v1457h221v-795q113 100 228.5 201t228.5 201h294l-567 -501q68 -66 143 -138t151.5 -145.5t150.5 -144.5t141 -135h-296l-474 456v-456h-221z" />
<glyph unicode="l" horiz-adv-x="540" d="M154 0v1457h220v-1457h-220z" />
<glyph unicode="m" horiz-adv-x="1895" d="M165 0v1064h221v-100q57 63 129.5 94t167.5 31q106 0 182.5 -47.5t122.5 -139.5q64 96 150.5 141.5t198.5 45.5q86 0 152 -30t111 -88t69 -142q24 -85 24 -193v-636h-221v631q0 133 -44.5 196t-136.5 63q-115 0 -183 -77q-68 -80 -69 -215v-598h-220v631q0 133 -44 196 t-139 63q-114 0 -182 -78q-68 -80 -68 -214v-598h-221z" />
<glyph unicode="n" horiz-adv-x="1233" d="M157 0v1064h220v-104q60 66 133 97.5t166 31.5q188 0 284 -114.5t96 -338.5v-636h-220v631q0 259 -197 259q-121 0 -192 -77q-70 -78 -70 -215v-598h-220z" />
<glyph unicode="o" horiz-adv-x="1190" d="M90 531q0 130 32 231q30 102 96 177q132 150 362 150q228 0 361 -150q129 -146 130 -408q0 -259 -130 -407q-66 -74 -156 -112.5t-205 -38.5q-230 1 -362 151q-66 74 -97 175.5t-31 231.5zM319 531q0 -86 17.5 -153t53.5 -117q68 -93 190 -93q119 0 189 94q72 98 72 269 q0 172 -72 268q-70 95 -189 95q-120 0 -189 -94q-72 -96 -72 -269z" />
<glyph unicode="p" horiz-adv-x="1235" d="M158 -384v1448h220v-97q54 58 128.5 90t167.5 32q198 0 320 -157q121 -152 121 -397q0 -252 -121 -405q-62 -78 -141 -117.5t-179 -39.5q-92 0 -167 32t-129 90v-479h-220zM378 531q0 -173 69 -273v1q68 -92 187 -92t184 91q70 97 70 273q0 175 -70 271q-66 94 -184 94 q-115 0 -187 -94v1q-69 -100 -69 -272z" />
<glyph unicode="q" horiz-adv-x="1235" d="M89 531q0 249 121 401q123 157 320 157q92 0 167 -32t129 -90v97h220v-1448h-220v479q-54 -58 -129 -90t-167 -32q-198 0 -320 157q-121 152 -121 401zM315 531q0 -175 70 -273v1q66 -92 185 -92q118 0 186 92q70 99 70 272t-70 271q-71 94 -186 94q-116 0 -185 -94v1 q-70 -98 -70 -272z" />
<glyph unicode="r" horiz-adv-x="799" d="M153 0v1064h221v-99q56 61 134 92.5t179 31.5q16 0 43 -4q28 -3 68 -11l1 -239q-46 27 -85.5 39t-75.5 12q-129 0 -196.5 -84t-67.5 -243v-559h-221z" />
<glyph unicode="s" horiz-adv-x="1013" d="M86 45v235q215 -113 385 -113q104 0 160.5 33t56.5 93q0 55 -36 83q-39 30 -189 64l-57 13h1q-83 18 -142.5 44.5t-97.5 64t-56 87.5t-18 115q0 78 27.5 138t81 101.5t130 63.5t176.5 22q95 0 182 -16t168 -48v-218q-176 89 -330 89q-220 0 -220 -125q0 -45 33 -70 q21 -13 63.5 -28.5t104.5 -28.5q14 -3 28 -6.5t28 -6.5q93 -19 158 -47.5t105 -65.5q84 -77 84 -212q0 -77 -31.5 -138t-91.5 -106q-59 -43 -140 -66t-182 -23q-164 0 -381 72z" />
<glyph unicode="t" horiz-adv-x="762" d="M32 881v183h122v287h221v-287h341v-183h-341v-521q0 -56 6.5 -91t19.5 -49q25 -27 113 -27h6h196v-193h-196q-203 0 -284 80q-82 80 -82 280v521h-122z" />
<glyph unicode="u" horiz-adv-x="1233" d="M145 426v638h221v-632q0 -260 196 -260q121 0 192 77t72 216v599h219v-1064h-219v104q-60 -66 -133 -98.5t-166 -32.5q-188 0 -285 114.5t-97 338.5z" />
<glyph unicode="v" horiz-adv-x="1151" d="M30 1064h234l297 -797q73 198 148.5 399.5t148.5 397.5h234l-399 -1064h-264z" />
<glyph unicode="w" horiz-adv-x="1591" d="M63 1064h221l187 -707q46 177 93 355t92 352h238l186 -707q47 177 94 355t92 352h222l-279 -1064h-236l-197 747q-49 -186 -99.5 -375t-97.5 -372h-238z" />
<glyph unicode="x" horiz-adv-x="1151" d="M13 0l414 556q-44 59 -93 124t-98.5 131t-98 130.5t-90.5 122.5h264l253 -341q63 85 128 171t127 170h263l-385 -519q48 -64 99.5 -133t104 -140t103 -140t97.5 -132h-263l-280 378q-33 -45 -69 -93t-72 -96.5t-71.5 -96.5t-68.5 -92h-264z" />
<glyph unicode="y" horiz-adv-x="1151" d="M29 1064h234l298 -743q73 185 149 373t149 370h233l-458 -1141q-17 -42 -35.5 -80.5t-37 -70.5t-37 -56.5t-35.5 -38.5q-73 -61 -195 -61h-160v193h124q57 0 89 26q16 14 35 50t41 92q7 16 13 32t13 34q-51 124 -103.5 252.5t-106.5 258.5t-106.5 258.5t-103.5 251.5z " />
<glyph unicode="z" horiz-adv-x="1021" d="M66 0v189l590 689h-569v186h843v-189l-592 -689h592v-186h-864z" />
<glyph unicode="{" d="M219 487v184h82q118 0 158 42q41 44 41 169v216q0 106 21 177.5t63 108.5q85 73 319 73h84v-183h-88q-116 0 -148 -31q-30 -30 -30 -149v-223q-1 -151 -47 -221v1q-14 -22 -35 -40.5t-47 -31.5q53 -28 83 -74q46 -71 46 -219v-224q0 -118 30 -148q31 -31 148 -31h88v-184 h-84q-235 0 -319 73q-85 74 -84 287v216q0 126 -41 170q-40 43 -158 42h-82z" />
<glyph unicode="|" horiz-adv-x="655" d="M216 -435v1900h207v-1900h-207z" />
<glyph unicode="}" d="M219 -117h91q115 0 144 31q31 31 31 148v224q0 73 11.5 128t34.5 91q13 22 35 40.5t48 32.5q-27 13 -48.5 32t-34.5 41q-46 69 -46 220v223q0 117 -31 149q-31 31 -144 31h-91v183h84q235 0 317 -74v1q86 -75 86 -286v-216q0 -124 41 -169v1q41 -44 156 -43h84v-184h-84 q-117 0 -156 -42q-41 -44 -41 -170v-216q0 -213 -86 -287v1q-83 -74 -317 -74h-84v184z" />
<glyph unicode="~" horiz-adv-x="1630" d="M189 390v232q52 39 99 67t92.5 45.5t89.5 26.5t90 9q104 0 242 -57l9 -4q2 -1 3 -1q4 -2 8.5 -4t11.5 -4q137 -53 216 -53q36 0 74.5 10t80.5 31.5t90 54t104 78.5v-231q-52 -39 -99 -67t-92 -45.5t-89.5 -25.5t-89.5 -8q-104 0 -241 55q-5 2 -9 3.5t-8 2.5 q-3 1 -6.5 2.5t-10.5 3.5q-134 54 -214 54q-74 0 -159 -42q-85 -41 -192 -133z" />
<glyph unicode="&#xa4;" d="M63 204l190 191q-59 109 -59 210q0 110 60 209l-46.5 46.5t-49 49.5t-48.5 48.5t-45 44.5l141 142l190 -190q49 32 100 46.5t108 14.5q52 0 105.5 -15t105.5 -44l191 192l141 -142l-190 -190q28 -51 43.5 -104.5t15.5 -107.5q0 -111 -62 -209q22 -23 46.5 -47t49.5 -49 l48 -49q25 -24 47 -45l-141 -140l-190 191q-104 -64 -210 -63q-51 0 -104.5 15t-107.5 45l-190 -191zM389 607q0 -93 61 -155q65 -62 154 -62q90 0 154 62q62 65 62 155q0 45 -16 83t-46 68q-62 62 -154 62q-87 0 -153 -63q-32 -30 -47 -67.5t-15 -82.5z" />
<glyph unicode="&#xa6;" horiz-adv-x="655" d="M216 -315v737h207v-737h-207zM216 608v737h207v-737h-207z" />
<glyph unicode="&#xa7;" horiz-adv-x="972" d="M68 679q0 82 37 147t110 112q-87 82 -88 199q0 129 101 210q98 78 256 78q68 0 144 -15t159 -46v-209q-182 86 -282 86q-74 0 -115.5 -29t-41.5 -81q0 -64 172 -161q11 -7 20.5 -12t15.5 -9q98 -54 161.5 -100t94.5 -82v1q66 -77 66 -179q0 -82 -37 -145t-111 -114 q49 -46 69 -94t20 -105q0 -140 -103 -225q-99 -82 -265 -82q-67 0 -142.5 15.5t-167.5 45.5v208q95 -43 168 -63.5t122 -20.5q80 0 123.5 30t43.5 86q0 37 -48 83t-138 97q-5 3 -10.5 6t-10.5 5q-100 56 -164 102.5t-95 82.5q-64 75 -64 178zM269 707q0 -57 53 -110v1 q60 -57 267 -170q43 33 65 67q23 33 23 65q0 58 -56 110q-62 58 -264 170l6 4t7 5l-29 -2l8 -3l8 -4q-88 -68 -88 -133z" />
<glyph unicode="&#xa8;" horiz-adv-x="972" d="M180 1217v237h236v-237h-236zM532 1217v237h237v-237h-237z" />
<glyph unicode="&#xa9;" horiz-adv-x="1945" d="M253 695q0 289 204 493q205 206 491 205q286 1 491 -205q205 -203 205 -493q0 -286 -205 -490q-205 -205 -491 -205t-491 205q-204 204 -204 490zM397 695q0 -112 41.5 -208.5t121.5 -177.5q162 -162 388 -163q227 0 390 163q160 160 159 386q0 228 -159 390 q-162 161 -390 161q-226 0 -388 -161q-81 -81 -122 -179t-41 -211zM522 695q0 198 121 317q123 117 328 117q68 0 135.5 -15t137.5 -43v-179q-77 39 -141.5 57t-121.5 18q-61 0 -108.5 -17.5t-81.5 -53.5q-67 -68 -67 -201q0 -131 69.5 -202t197.5 -71q54 0 115.5 18 t137.5 58v-176q-71 -32 -139.5 -47t-133.5 -15q-104 0 -185.5 29.5t-142.5 88.5q-121 118 -121 317z" />
<glyph unicode="&#xab;" horiz-adv-x="1190" d="M130 520v97l477 425v-244l-257 -230q64 -57 129 -115.5t128 -114.5v-244zM522 520v97l476 425v-244l-257 -230q64 -57 129.5 -115.5t127.5 -114.5v-244z" />
<glyph unicode="&#xac;" horiz-adv-x="1630" d="M189 624v207h1210v-573h-205v366h-1005z" />
<glyph unicode="&#xad;" horiz-adv-x="702" d="M72 432v202h540v-202h-540z" />
<glyph unicode="&#xae;" horiz-adv-x="1945" d="M253 695q0 289 204 493q205 206 491 205q286 1 491 -205q205 -203 205 -493q0 -286 -205 -490q-205 -205 -491 -205t-491 205q-204 204 -204 490zM397 695q0 -112 41.5 -208.5t121.5 -177.5q162 -162 388 -163q224 0 386 159h-192l-126 200q-25 42 -44.5 67t-32.5 35 q-28 19 -67 19h-32v-321h-194v807h284q343 0 343 -243q0 -74 -39 -127t-109 -79q19 -19 40 -47.5t45 -68.5l140 -226q147 156 147 374q0 228 -159 390q-162 162 -390 161q-226 0 -388 -161q-81 -81 -122 -179t-41 -211zM840 771h83q91 0 122 22q29 21 29 74t-33.5 76 t-117.5 23h-83v-195z" />
<glyph unicode="&#xaf;" horiz-adv-x="972" d="M178 1243v187h592v-187h-592z" />
<glyph unicode="&#xb0;" horiz-adv-x="972" d="M162 1109q0 131 90 224q92 92 222 92q63 0 121.5 -24.5t100.5 -70.5q90 -90 91 -221q0 -129 -92 -221q-90 -90 -223 -90t-221 89q-89 89 -89 222zM330 1109q0 -60 41 -102v1q42 -42 103 -42t103 42v-1q42 42 41 102q0 61 -42 103t-102 42q-61 0 -103 -42t-41 -103z" />
<glyph unicode="&#xb1;" horiz-adv-x="1630" d="M189 0v207h1210v-207h-1210zM189 656v207h503v349h205v-349h502v-207h-502v-349h-205v349h-503z" />
<glyph unicode="&#xb4;" horiz-adv-x="972" d="M295 1138l293 393h253l-341 -393h-205z" />
<glyph unicode="&#xb6;" d="M130 993q0 184 126 295q126 112 330 112h430v-1578h-181v1413h-117v-1413h-182v766q-186 20 -292 119q-114 108 -114 286z" />
<glyph unicode="&#xb7;" horiz-adv-x="618" d="M179 526v283h244v-283h-244z" />
<glyph unicode="&#xbb;" horiz-adv-x="1190" d="M162 94v244l259 230q-65 57 -130.5 115.5t-128.5 114.5v244l477 -425v-97zM554 94v244l257 230q-64 57 -129 115.5t-128 114.5v244l477 -425v-97z" />
<glyph unicode="&#x2c6;" horiz-adv-x="972" d="M137 1138l256 393h162l256 -393h-188l-149 202q-36 -50 -74.5 -101.5t-74.5 -100.5h-188z" />
<glyph unicode="&#x10a0;" horiz-adv-x="1203" d="M105 558q0 184 83 335l240 -81q-58 -188 -58 -279q0 -206 63 -285.5t166 -79.5q142 0 192.5 108.5t50.5 269.5q0 266 -216 463t-214 506h249q0 -205 219 -415.5t219 -550.5q-2 -241 -130.5 -425.5t-370.5 -184.5q-226 0 -360 184.5t-133 434.5z" />
<glyph unicode="&#x10a1;" horiz-adv-x="1198" d="M104 490q1 198 115 338.5t284 156.5l19 121q10 112 -131.5 169t-141.5 238h262q-2 -80 132 -140t117 -255l-27 -140q134 -16 247.5 -153t113.5 -335q0 -251 -141 -399.5t-353 -151.5q-218 3 -357 148.5t-139 402.5zM363 486q0 -178 69.5 -248t166.5 -70q109 0 172.5 68 t65.5 250q0 136 -67 209.5t-152 73.5q-122 0 -188.5 -73t-66.5 -210z" />
<glyph unicode="&#x10a2;" horiz-adv-x="1329" d="M110 505q-6 195 149 363t403 167h74q46 55 45 156q0 52 -34.5 78t-135.5 22q-104 0 -131 -37t-29 -108l-247 1q-1 200 120 283t289 83q169 1 290.5 -75.5t121.5 -232.5q-1 -131 -62 -238q262 -194 262 -459q0 -260 -158 -414q-158 -155 -402 -155q-256 0 -408.5 161.5 t-146.5 404.5zM368 508q0 -201 94 -270.5t203 -69.5q104 0 202.5 66.5t98.5 273.5q0 104 -77 201t-226 99q-124 -1 -209.5 -100t-85.5 -200z" />
<glyph unicode="&#x10a3;" horiz-adv-x="1768" d="M104 941q0 262 124 418t372 155q165 0 287 -100q128 101 282 100q210 0 352.5 -135.5t142.5 -400.5q0 -248 -147 -396.5t-348 -148.5q-195 0 -345 146.5t-150 397.5q0 131 81 282q-86 32 -154 32q-103 0 -171 -78.5t-68 -271.5q2 -181 67.5 -331t240.5 -293 q329 -28 490.5 -110.5t196.5 -264.5h-348q0 67 -73 105.5t-316 38.5q-226 1 -397 -31v229l146 17q-263 280 -265 640zM933 978q0 -167 74.5 -244t161.5 -77t161.5 78t74.5 244q2 155 -65.5 234t-170.5 79q-87 -1 -161.5 -80.5t-74.5 -233.5z" />
<glyph unicode="&#x10a4;" horiz-adv-x="1197" d="M104 417q0 117 76 259l224 -110q-42 -101 -42 -197q0 -94 63 -147.5t157 -53.5q132 0 192 58.5t60 229.5v673q0 73 -56.5 117.5t-166.5 44.5q-125 0 -166 -48.5t-41 -112.5q0 -82 45 -146l-219 -100q-80 117 -80 242q-2 152 128.5 269.5t330.5 117.5q237 0 360 -115.5 t124 -271.5v-670q-2 -275 -148 -394.5t-362 -120.5q-166 1 -322.5 104.5t-156.5 371.5z" />
<glyph unicode="&#x10a5;" horiz-adv-x="1198" d="M104 419q0 97 47 231l257 -61q-52 -92 -52 -222q0 -83 65 -141t175 -58q107 0 173 53.5t66 118.5v152q0 93 -32.5 150t-107.5 57h-121v225h121q57 0 87 46t30 141q0 72 -52 127q-50 54 -142 54q-131 -1 -171.5 -50t-38.5 -97q0 -51 26 -110l-246 -77q-37 106 -37 196 q0 141 134 251t335 110q208 0 329.5 -122t121.5 -282q1 -188 -155 -300q179 -135 178 -362q0 -233 -129.5 -370t-368.5 -137q-233 0 -362.5 124.5t-129.5 352.5z" />
<glyph unicode="&#x10a6;" horiz-adv-x="1274" d="M104 1101q1 190 103.5 302t295.5 112q214 -1 307 -131.5t93 -260.5q-4 -102 -22 -156q290 -118 289 -487q-1 -263 -153 -400.5t-341 -140.5q-202 3 -349 140.5t-147 400.5q0 124 84 268q-71 66 -115.5 148t-44.5 205zM352 1097q0 -125 56 -177q76 67 231 64q22 39 22 112 q0 82 -29 138.5t-123 56.5q-86 0 -121.5 -34t-35.5 -160zM438 476q0 -172 69.5 -240t167.5 -72q108 4 172.5 74.5t64.5 237.5q0 143 -67.5 216t-169.5 73q-104 0 -170.5 -73.5t-66.5 -215.5z" />
<glyph unicode="&#x10a7;" horiz-adv-x="1797" d="M104 750q0 375 135.5 569t361.5 194q145 0 288 -125q117 126 280 125q269 1 396.5 -196.5t127.5 -504.5q0 -466 -273 -860h-289q307 434 307 860q0 240 -72 359.5t-176 119.5q-97 0 -161 -72q66 -238 65 -483q-1 -409 -148 -601.5t-345 -195.5q-198 3 -347 195 q-150 192 -150 616zM362 732q2 -314 72.5 -441t163.5 -123q97 0 166.5 125t72.5 445q0 305 -66 429t-170 124q-120 0 -179 -126q-58 -125 -60 -433z" />
<glyph unicode="&#x10a8;" horiz-adv-x="1197" d="M104 771q1 335 130 539q128 203 364 203q237 1 366 -202.5t129 -539.5q0 -299 -109 -809h-281q133 462 133 831q0 254 -69 378t-169 120q-100 0 -167.5 -121.5t-68.5 -376.5q0 -367 143 -831h-289q-112 508 -112 809z" />
<glyph unicode="&#x10a9;" horiz-adv-x="1197" d="M104 449q0 159 58 301l223 -96q-29 -110 -23 -194q0 -179 65 -237.5t165 -54.5q136 0 189 71t53 192q0 197 -50.5 269.5t-129.5 72.5h-111v224h80q86 0 117.5 31.5t31.5 146.5q0 105 -230 339h313q175 -156 175 -335q-1 -182 -121 -294q184 -163 184 -447 q0 -240 -139 -368t-361 -129q-208 1 -348.5 123.5t-140.5 384.5z" />
<glyph unicode="&#x10aa;" horiz-adv-x="2256" d="M104 947q1 266 140 417q140 150 336 150q178 0 279 -142q93 142 264 142q175 0 273 -139q47 82 117.5 110.5t162.5 28.5q198 0 337 -139t139 -428q0 -206 -167 -466l-326 3q236 276 235 464q0 211 -62 277t-155 66q-167 6 -167 -258v-257h-239v257q0 255 -148 254 q-149 0 -149 -254v-257h-239v257q0 258 -158 258q-74 0 -144 -70t-70 -273q0 -338 430 -609q495 -16 709.5 -94.5t245.5 -298.5h-315q-41 116 -200 142t-361 26q-376 3 -584 -66v229l159 23q-343 285 -343 647z" />
<glyph unicode="&#x10ab;" horiz-adv-x="1197" d="M104 443q0 241 129 390t360 149q132 0 241 -82v219q5 81 -54 126q-58 45 -162 45q-120 0 -165 -38.5t-48 -136.5h-255q-2 204 128 301t341 97q197 0 335 -111.5t138 -275.5v-684q0 -212 -143 -356t-357 -144t-351 147.5t-137 353.5zM362 437q0 -130 63 -199.5t167 -69.5 q113 0 180 71t67 199q0 172 -72 246t-175 74q-102 0 -166 -70t-64 -251z" />
<glyph unicode="&#x10ac;" horiz-adv-x="1198" d="M104 477v691q1 171 114 257.5t232 86.5h557v-220l-524 -1q-120 1 -120 -103v-310q120 111 250 109q206 0 343.5 -126t137.5 -388q0 -256 -139 -393.5t-341 -140.5q-228 3 -368 159q-142 155 -142 379zM363 473q0 -182 74.5 -245.5t175.5 -63.5q100 0 161 63.5t61 245.5 q0 143 -60.5 217.5t-162.5 74.5q-104 0 -176.5 -73.5t-72.5 -218.5z" />
<glyph unicode="&#x10ad;" horiz-adv-x="1759" d="M104 757q0 398 145 577t342 179q176 0 288 -186q106 186 290 186q205 1 345.5 -178.5t140.5 -573.5q0 -387 -241 -800h-329q313 423 312 824q0 279 -56.5 392.5t-182.5 113.5q-162 5 -162 -225l1 -502h-242v504q1 228 -157 223q-124 0 -180 -113.5t-52 -392.5 q0 -400 319 -824h-337q-242 414 -244 796z" />
<glyph unicode="&#x10ae;" horiz-adv-x="1197" d="M104 472q0 101 32 226l249 -61q-25 -88 -25 -165q0 -163 68.5 -235.5t168.5 -72.5q92 4 164.5 62.5t72.5 273.5q0 115 -46.5 176.5t-152.5 60.5l-103 1l2 227h141q131 0 132 152q0 104 -251 126t-251 270h292q0 -68 234 -103t234 -293q0 -184 -150 -279 q179 -168 177 -334q2 -283 -141.5 -422.5t-353.5 -139.5q-212 0 -352.5 137.5t-140.5 392.5z" />
<glyph unicode="&#x10af;" horiz-adv-x="1199" d="M104 363q2 101 37 204l249 -65q-26 -97 -28 -164q0 -53 68.5 -114t169.5 -56q136 0 186.5 66.5t51.5 286.5l-1 759l-173 -21v-120q0 -195 -127.5 -305t-363.5 -112l-2 237q119 -1 181.5 37.5t63.5 167.5l-1 68l-255 -40v220l686 84v35h248v-1008q1 -326 -138 -453.5 t-356 -128.5q-211 1 -352.5 114t-143.5 308z" />
<glyph unicode="&#x10b0;" horiz-adv-x="1760" d="M104 601q2 212 71.5 380.5t212.5 293.5q281 245 747 245v-226q-550 -35 -666 -191l161 41q136 0 250 -146q117 146 289 146q212 1 349.5 -136.5t136.5 -410.5q1 -331 -226 -636h-348q316 305 316 637q0 165 -66.5 243.5t-169.5 78.5q-157 0 -157 -192v-361h-248v361 q0 192 -148 192q-246 0 -246 -315q0 -339 332 -644h-362q-228 305 -228 640z" />
<glyph unicode="&#x10b1;" horiz-adv-x="1216" d="M122 473v1040h257v-1038q0 -147 68.5 -229.5t164.5 -77.5q104 0 171.5 71.5t69.5 216.5q0 190 -98.5 302.5t-98.5 413.5h255q0 -247 100 -360q101 -114 101 -357q-1 -216 -147 -364.5t-353 -148.5q-217 0 -362.5 155.5t-127.5 375.5z" />
<glyph unicode="&#x10b2;" horiz-adv-x="1465" d="M104 693q0 394 182.5 554t334.5 181q-5 24 -11 45.5t-9 31.5h250l-18 -75q150 -16 331 -168t197 -573q-3 -347 -171 -547q-169 -201 -460 -200q-310 0 -468 212.5t-158 538.5zM362 689q0 -229 90.5 -375t278.5 -146q198 13 280 150.5t82 375.5q0 270 -77.5 384.5 t-189.5 161.5l25 -736h-248l29 735q-108 -39 -189 -157t-81 -393z" />
<glyph unicode="&#x10b3;" horiz-adv-x="1267" d="M104 1358l88 216q91 -60 133 -60h106q89 5 175 -133q89 132 234 132q118 0 220 -85q103 -84 103 -202v-702q0 -314 -130 -448t-365 -135q-211 1 -353.5 120.5t-142.5 358.5q0 100 59 259l249 -87q-49 -99 -50 -225q1 -88 65.5 -143.5t172.5 -55.5q136 0 185.5 55 t49.5 298v701q0 69 -90 69q-99 0 -99 -56v-343h-230v343q-4 56 -51 55h-115q-102 0 -214 68z" />
<glyph unicode="&#x10b4;" horiz-adv-x="1805" d="M104 984q0 238 137 383.5t360 145.5q211 0 333 -135q142 135 310 135q205 0 331 -112.5t126 -305.5q0 -256 -174 -370q97 -66 127.5 -136t30.5 -155q-3 -274 -177.5 -381t-457.5 -107q-264 0 -453 98t-189 234l290 3q55 -113 353 -113q237 0 312.5 63t82.5 197 q-7 180 -130 184h-132l2 212h124q74 1 103 80.5t26 198.5q0 101 -43.5 144.5t-151.5 43.5q-110 0 -190 -71q39 -159 41 -240q-2 -249 -145.5 -393t-348.5 -145q-219 1 -358 158t-139 384zM362 984q0 -172 63 -245.5t176 -73.5q117 0 175 73.5t63 242.5q-5 174 -71 244.5 t-163 65.5q-87 0 -165 -68t-78 -239z" />
<glyph unicode="&#x10b5;" horiz-adv-x="1199" d="M104 418q0 97 60 230l236 -79q-38 -74 -36 -203q0 -85 68 -141.5t168 -56.5q113 0 174.5 58.5t62.5 293.5l-1 427q0 76 -55 149.5t-203 73.5q-100 0 -114.5 -67.5t-14.5 -153.5h-253q0 190 106.5 304.5t276.5 114.5q142 0 257 -78v223h258v-989q1 -356 -144.5 -469 t-349.5 -115q-217 2 -356.5 115t-139.5 363z" />
<glyph unicode="&#x10b6;" horiz-adv-x="1758" d="M104 932q0 294 140.5 438t346.5 144q166 0 288 -137q115 138 289 137q213 0 349.5 -144t136.5 -393q0 -281 -115 -469h-290q148 204 148 470q0 155 -67.5 236t-169.5 81q-166 -4 -166 -178v-387h-239v387q1 174 -157 174q-91 0 -163.5 -78t-72.5 -278q4 -298 320 -607 q237 -8 452 -97t293 -288h-331q-58 112 -173 138t-267 26q-171 2 -442 -76v235l176 27q-284 335 -286 639z" />
<glyph unicode="&#x10b7;" horiz-adv-x="1197" d="M104 398q0 120 16 159l262 -59q-21 -45 -20 -131q0 -82 66 -141q66 -58 170 -58q105 -4 170.5 51.5t66.5 316.5l-1 151q-109 -47 -216 -47q-201 0 -338.5 128t-137.5 360q0 159 84 385h268q-95 -257 -95 -400q0 -130 67.5 -189t151.5 -59q85 0 150.5 43t65.5 129v478h259 v-993q0 -353 -143.5 -466.5t-350.5 -114.5q-218 1 -356.5 120.5t-138.5 336.5z" />
<glyph unicode="&#x10b8;" horiz-adv-x="1198" d="M104 468q1 253 138 383.5t358 130.5q119 2 235 -82v340q0 51 -126 51q-89 0 -90 -51v-120h-238v120q0 51 -141 51h-134v222h146q184 0 258 -125q87 125 297 126q132 0 209.5 -76.5t75.5 -187.5v-781q2 -262 -147 -394.5t-343 -132.5q-214 0 -356 137.5t-142 388.5z M362 465q1 -158 65.5 -227.5t174.5 -69.5q104 0 168.5 71.5t64.5 225.5q0 144 -66 219q-67 74 -171 74q-103 0 -169.5 -73.5t-66.5 -219.5z" />
<glyph unicode="&#x10b9;" horiz-adv-x="1198" d="M104 -38v1194q2 358 353 358q437 0 438 -367h-257q4 145 -175 145q-99 0 -99 -115v-245q86 103 234 104q251 -2 373.5 -153t122.5 -387q0 -301 -101 -536h-305q148 268 148 532q0 176 -67 248t-170 72q-109 0 -172 -61.5t-63 -242.5v-546h-260z" />
<glyph unicode="&#x10ba;" horiz-adv-x="1391" d="M104 766q0 348 116 748h275q-134 -361 -134 -731q0 -264 91.5 -442t262.5 -173q165 0 239.5 102t74.5 241q0 165 -106 165h-239v217h216q84 0 83 166q0 65 -108.5 138.5t-108.5 316.5h244q2 -154 116 -228t112 -212q0 -164 -125 -250q174 -135 174 -304 q0 -249 -152.5 -414.5t-423.5 -165.5q-274 2 -440.5 234t-166.5 592z" />
<glyph unicode="&#x10bb;" horiz-adv-x="1198" d="M104 492q1 265 144.5 404t350.5 139q131 0 236 -103l1 581h258v-983q0 -304 -149 -446t-346 -145q-207 3 -351 151q-144 147 -144 402zM363 494q0 -167 69.5 -246.5t169.5 -79.5q113 0 173.5 80t60.5 246q-1 162 -64 240t-170 78q-97 0 -168 -79t-71 -239z" />
<glyph unicode="&#x10bc;" horiz-adv-x="1198" d="M106 469v781q-2 111 76 187.5t210 76.5q209 -1 297 -126q74 125 258 125h145v-222h-133q-141 0 -141 -51v-120h-238v120q0 51 -90 51q-126 0 -126 -51v-340q116 85 234 82q221 0 358 -130.5t138 -383.5q0 -252 -142 -389t-355 -137q-194 0 -343.5 132.5t-147.5 394.5z M364 465q0 -154 64.5 -225.5t168.5 -71.5q110 0 174.5 69.5t65.5 227.5q0 146 -67 219.5t-170 73.5q-104 0 -170 -74.5t-66 -218.5z" />
<glyph unicode="&#x10bd;" horiz-adv-x="1219" d="M104 419q0 102 55 215l237 -91q-33 -50 -33 -176q0 -82 67.5 -142.5t169.5 -56.5q136 0 186 56.5t50 213.5l-22 385h-304q-152 0 -253 81.5t-101 213.5q0 124 91.5 221t236.5 97h270l-4 77h261l1 -77h103v-213h-78l58 -772q0 -296 -155.5 -402.5t-339.5 -107.5 q-204 1 -350 114t-146 364zM400 1133q0 -106 102 -105h298l-20 204h-280q-100 0 -100 -99z" />
<glyph unicode="&#x10be;" horiz-adv-x="1198" d="M104 530v983h259l1 -581q104 103 235 103q207 0 350.5 -139t144.5 -404q-1 -256 -144.5 -403t-350.5 -150q-197 3 -346 145t-149 446zM363 494q0 -166 60.5 -246t173.5 -80q100 0 169.5 79.5t69.5 246.5q0 160 -71 239t-168 79q-106 0 -169.5 -78t-64.5 -240z" />
<glyph unicode="&#x10bf;" horiz-adv-x="1200" d="M104 450q0 84 23 187l249 -48q-12 -56 -12 -135q0 -138 66 -214t159 -72q118 -4 184 65t66 231q-2 174 -92.5 250.5t-356.5 117.5l61 313l-280 50v240l319 -71l23 139h264l-53 -181l277 -51v-234l-313 67l-18 -108q179 -35 301.5 -174.5t124.5 -365.5 q-2 -226 -131.5 -370t-371.5 -144q-211 -2 -350 138t-139 370z" />
<glyph unicode="&#x10c0;" horiz-adv-x="1199" d="M104 341v159h257v-132q0 -124 73.5 -165t180.5 -35q123 -6 171.5 29.5t48.5 145.5q7 152 -44 152h-329v196h320q52 0 51 103q2 95 -51 95h-329v198h327q45 0 45 84q0 69 -133 75q-454 32 -454 268h298q0 -44 294 -68q248 -21 248 -262q0 -130 -107 -191q117 -70 117 -202 q0 -130 -123 -203q128 -77 130 -248q0 -193 -117 -297t-370 -101q-234 -3 -369 102t-135 297z" />
<glyph unicode="&#x10d0;" horiz-adv-x="1083" d="M96 448q0 144 82 284l215 -103q-48 -120 -48 -181q-1 -132 55.5 -193.5t141.5 -59.5q101 -2 148.5 65t48.5 167q0 187 -188 325t-188 376h241q1 -167 192.5 -303t191.5 -403q-2 -165 -121 -304t-328 -139q-215 -1 -329.5 154t-113.5 315z" />
<glyph unicode="&#x10d1;" horiz-adv-x="1081" d="M95 507q0 236 114.5 349.5t232.5 136.5l-1 160q-3 78 -141 128t-134 196h260q1 -64 117 -131.5t120 -192.5l-1 -166q100 -11 212 -137t112 -343q0 -238 -124 -383.5t-320 -144.5q-199 0 -323 141t-124 387zM343 504q0 -174 63 -240.5t135 -66.5q88 -4 142.5 65t54.5 242 q0 164 -60.5 231t-136.5 67t-137 -66.5t-61 -231.5z" />
<glyph unicode="&#x10d2;" horiz-adv-x="1200" d="M95 46q0 199 145 340q146 140 378 135q99 102 94 199q-6 50 -32.5 76t-109.5 26q-100 0 -134.5 -31t-13.5 -147l-222 -27q-14 75 -15 134q-1 128 112 206t256 78q154 0 264.5 -85t111.5 -211q2 -137 -101 -273q278 -152 278 -420q0 -214 -147.5 -359t-358.5 -145 q-224 0 -364.5 151t-140.5 353zM342 43q2 -157 86.5 -220t177.5 -64q98 1 175 68.5t77 218.5q0 110 -71 203.5t-187 95.5q-104 -1 -180.5 -91.5t-77.5 -210.5z" />
<glyph unicode="&#x10d3;" horiz-adv-x="1575" d="M95 514q0 220 110.5 370.5t335.5 150.5q127 0 232 -93q111 92 262 93q218 0 331.5 -158.5t113.5 -345.5q0 -226 -133 -371.5t-312 -145.5q-172 0 -309 138.5t-137 378.5q0 126 66 270q-55 21 -120 21q-88 0 -139 -79t-51 -231q-1 -157 60 -315t194 -287 q387 -65 497 -175.5t137 -191.5h-322q-89 161 -369 161q-198 1 -373 -56v236l131 12q-205 301 -205 618zM837 532q0 -152 60 -227t138 -75q75 0 136 74.5t61 227.5q0 142 -61 216t-136 74q-95 0 -146.5 -74t-51.5 -216z" />
<glyph unicode="&#x10d4;" horiz-adv-x="1091" d="M96 -11q-1 120 49 230l235 -61q-36 -116 -36 -217q0 -75 51 -128.5t139 -52.5q134 -1 168.5 62.5t34.5 261.5v590q1 63 -38.5 105.5t-140.5 42.5q-92 0 -128 -36q-36 -37 -40 -93q0 -61 26 -158l-233 -55q-38 109 -38 208q0 135 122.5 241t290.5 106q196 0 312 -110 t117 -254v-587q-1 -308 -148.5 -424.5t-304.5 -117.5q-210 1 -324.5 132.5t-113.5 314.5z" />
<glyph unicode="&#x10d5;" horiz-adv-x="1083" d="M96 -11q0 104 78 216l233 -67q-64 -95 -64 -197q0 -74 51.5 -128t153.5 -53q115 -1 153.5 48.5t38.5 120.5v150q0 88 -38.5 146t-79.5 58h-136v189h136q38 0 69.5 58.5t31.5 158.5q0 66 -47 101t-130 35q-91 -3 -123.5 -37t-33.5 -95q0 -52 16 -100l-230 -55 q-30 57 -31 157q0 141 122.5 240.5t281.5 99.5q193 0 308 -97t115 -249q0 -186 -185 -306q200 -139 203 -297l-3 -177q0 -136 -124 -251t-302 -116q-202 1 -333.5 114.5t-130.5 332.5z" />
<glyph unicode="&#x10d6;" horiz-adv-x="1132" d="M76 1123q0 144 83 248.5t255 104.5q159 1 248.5 -97t88.5 -250q1 -64 -29 -142q200 -69 257.5 -194t57.5 -286q0 -241 -123.5 -385t-320.5 -143q-199 0 -323 139t-124 389q0 74 15 144.5t62 170.5q-147 109 -147 301zM311 1100q1 -195 103 -195q109 0 108 195 q1 177 -106 174q-105 3 -105 -174zM394 504q0 -176 57 -243.5t135 -67.5q105 0 154 69t49 242q0 168 -50.5 232.5t-111.5 84.5q-96 -70 -208 -77q-25 -99 -25 -240z" />
<glyph unicode="&#x10d7;" horiz-adv-x="1575" d="M95 514q0 238 124 380q125 141 323 141q143 0 253 -95q95 95 240 95q210 0 327.5 -150.5t117.5 -344.5q0 -279 -160 -543h-285q199 305 198 544q0 136 -61.5 210t-126.5 71q-72 3 -115 -35q56 -96 57 -273q-1 -220 -125 -378t-320 -157q-186 -1 -316.5 143t-130.5 392z M343 515q0 -170 66 -246t133 -76q77 0 136.5 74t60.5 248q0 162 -52 234.5t-149 72.5q-71 3 -133 -72t-62 -235z" />
<glyph unicode="&#x10d8;" horiz-adv-x="1081" d="M95 540q0 215 124.5 355t321.5 140q198 0 321.5 -140.5t123.5 -354.5q0 -186 -92 -540h-255q99 330 99 541q0 135 -61 208t-136 73q-84 0 -140.5 -71.5t-57.5 -209.5q0 -212 108 -541h-264q-92 353 -92 540z" />
<glyph unicode="&#x10d9;" horiz-adv-x="1083" d="M95 -10q0 102 53 248l228 -67q-33 -127 -33 -230q0 -72 53 -127q54 -55 146 -54q110 -1 153 53t44 156v139q-1 116 -45 165.5t-114 49.5h-124v202h131q66 0 100 29.5t34 111.5q0 84 -197 235l174 147q270 -202 271 -386q1 -130 -160 -243q177 -111 179 -285v-157 q-2 -185 -126 -309.5t-320 -125.5q-199 1 -323 122.5t-124 325.5z" />
<glyph unicode="&#x10da;" horiz-adv-x="1992" d="M95 522q0 226 124.5 369.5t303.5 143.5q162 0 240 -132q107 131 223 132q145 0 240 -130q90 129 243 130q170 0 299 -137.5t129 -349.5q0 -188 -162 -456h-266q180 279 180 457q0 152 -47 212.5t-144 60.5q-112 3 -112 -178v-286h-238v286q-5 178 -122 178t-112 -178 v-286h-238v286q0 180 -113 181q-60 0 -119 -66v1q-61 -69 -61 -237q1 -279 322 -611q335 -17 577.5 -95.5t271.5 -273.5h-299q-9 90 -167 117.5t-298 30.5q-120 0 -255.5 -17t-290.5 -53v228l177 28q-286 335 -286 645z" />
<glyph unicode="&#x10db;" horiz-adv-x="1100" d="M95 499q0 224 124 355q125 132 323 131q90 1 196 -87v216q0 154 -175 152q-81 0 -128 -31t-47 -127h-244q-1 186 120 277t301 91q167 0 294 -104t127 -260v-613q0 -241 -124 -380.5t-320 -139.5q-199 -1 -323 141.5t-124 378.5zM343 495q0 -166 53.5 -234t144.5 -68 q94 0 145.5 67.5t51.5 234.5q0 140 -60 208t-137 68q-76 0 -137 -68.5t-61 -207.5z" />
<glyph unicode="&#x10dc;" horiz-adv-x="1100" d="M114 504v648q0 164 87 244t305 80h406v-210l-466 1q-84 0 -84 -89v-260q108 97 198 96q197 1 321 -135q124 -135 124 -375q0 -246 -124 -386q-125 -140 -321 -139q-199 -1 -322 139q-124 140 -124 386zM362 500q0 -171 56 -239t139 -68q94 0 147 69t53 238q0 163 -56 232 t-139 69q-91 0 -145.5 -65t-54.5 -236z" />
<glyph unicode="&#x10dd;" horiz-adv-x="1564" d="M95 514q0 213 117.5 367t319.5 154q143 1 250 -139q100 139 251 139q190 0 313.5 -144.5t123.5 -376.5q0 -246 -180 -515h-298q230 288 230 516q1 173 -53.5 240t-144.5 64q-132 0 -132 -175v-286h-229v286q0 175 -122 175q-86 3 -142 -65.5t-56 -238.5q0 -228 242 -516 h-310q-180 271 -180 515z" />
<glyph unicode="&#x10de;" horiz-adv-x="1081" d="M95 482q0 92 41 230l224 -63q-17 -105 -17 -171q0 -147 51.5 -216t146.5 -69q101 0 149 69t48 216q0 146 -48.5 201t-113.5 55h-90v217h109q112 3 112 119q6 95 -155 135q-283 57 -283 271h280q0 -73 204 -121q207 -68 207 -265q0 -161 -187 -259q213 -149 213 -349 q0 -210 -124 -357t-320 -146q-199 -1 -323 137.5t-124 365.5z" />
<glyph unicode="&#x10df;" horiz-adv-x="1090" d="M95 -37q0 85 32 191l238 -46q-22 -112 -22 -194q0 -48 51.5 -101.5t148.5 -53.5q114 0 154.5 48.5t40.5 206.5v794l-116 -7v-162q0 -155 -119 -259t-345 -104l-2 228q227 4 228 159l-1 130l-238 -7v212l603 20v34h238v-1052q0 -217 -124 -337t-320 -121 q-199 1 -323 117.5t-124 303.5z" />
<glyph unicode="&#x10e0;" horiz-adv-x="1565" d="M96 514q-1 408 260.5 685.5t702.5 277.5v-218q-155 1 -340.5 -45.5t-247.5 -198.5l62 20q142 0 248 -133q96 133 253 133q211 0 324 -150.5t113 -370.5q0 -246 -170 -515h-312q234 291 234 516q0 161 -57 234t-140 73q-124 1 -124 -178v-286h-247v286q0 179 -114 178 q-86 0 -141.5 -67t-55.5 -240q0 -229 243 -516h-321q-170 269 -170 515z" />
<glyph unicode="&#x10e1;" horiz-adv-x="1100" d="M114 514v962h248v-961q0 -170 52 -246t146 -76q119 0 158 82t39 240q0 103 -75 198t-77 365h245q0 -216 77.5 -298.5t77.5 -265.5q0 -245 -124 -390.5t-321 -144.5q-198 -1 -322 146t-124 389z" />
<glyph unicode="&#x10e2;" horiz-adv-x="1328" d="M95 253q0 401 131 567t337 212l-26 213h249l-25 -212q211 -34 343 -206.5t132 -573.5q0 -318 -149 -514t-423 -196q-275 0 -422 195.5t-147 514.5zM342 255q0 -230 80 -363t240 -133q169 0 246.5 131.5t77.5 362.5q0 278 -61 402.5t-174 183.5l30 -616h-239l29 616 q-81 -16 -160 -141t-69 -443z" />
<glyph unicode="&#x10e3;" horiz-adv-x="1139" d="M48 904l103 204l154 -73h41q95 0 166 -86q75 86 180 86q156 0 249.5 -70.5t93.5 -218.5v-660q0 -303 -124.5 -423t-322.5 -121q-197 1 -321.5 117.5t-124.5 329.5q0 130 86 283l216 -86q-55 -128 -53 -238q0 -95 60 -144t134 -45q111 0 156 66.5t45 258.5v658 q0 80 -92 83q-79 -3 -79 -54v-310h-231v310q1 50 -57 51h-58q-81 -7 -221 82z" />
<glyph unicode="&#x10e4;" horiz-adv-x="1627" d="M95 550q0 207 124 346t322 139q172 1 282 -113q163 113 283 113q189 0 297.5 -122.5t108.5 -279.5q1 -203 -207 -339q183 -112 184 -246v-113q0 -159 -156.5 -275.5t-432.5 -116.5q-316 0 -510 211l126 156q161 -151 367 -151q238 0 304.5 51t65.5 117v137 q-1 129 -85 134h-76v206h71q52 -1 80.5 41.5t28.5 194.5q0 100 -42.5 141t-115.5 41q-100 0 -185 -71q59 -115 57 -202q0 -185 -124 -336t-321 -151q-198 0 -322 151t-124 337zM343 551q1 -141 61.5 -207.5t130.5 -66.5q103 0 153 66.5t51 207.5q0 112 -45 191.5t-148 79.5 q-108 0 -155.5 -73.5t-47.5 -197.5z" />
<glyph unicode="&#x10e5;" horiz-adv-x="1100" d="M95 -10q0 118 49 260l246 -57q-48 -135 -47 -251q0 -76 56 -129.5t139 -53.5q91 0 145.5 45.5t54.5 280.5v591q0 58 -52 102q-50 44 -144 44q-78 4 -115 -32t-37 -114q0 -61 34 -118l-216 -103q-66 121 -65 226q-2 164 119 259.5t284 94.5q103 0 192 -87v529h248v-1389 q0 -318 -124 -431.5t-320 -113.5q-199 0 -323 115q-124 114 -124 332z" />
<glyph unicode="&#x10e6;" horiz-adv-x="1564" d="M95 487q0 258 124.5 403t312.5 145q166 0 250 -145q96 144 251 145q206 0 321.5 -146t115.5 -358q0 -190 -113 -394l-273 -3q139 210 138 398q1 162 -54.5 226t-143.5 64q-132 0 -132 -178v-267h-219v267q0 178 -132 178q-91 0 -144 -86.5t-54 -247.5q1 -305 281 -566 q191 -39 360.5 -99.5t260.5 -279.5h-305q-49 120 -154 138.5t-297 18.5q-54 0 -320 -20v218l164 10q-238 339 -238 579z" />
<glyph unicode="&#x10e7;" horiz-adv-x="1081" d="M95 -37q-3 62 32 167l230 -69q-14 -47 -14 -120q0 -76 50.5 -129t148.5 -57q118 4 157 70.5t39 237.5v206q-90 -46 -180 -48q-162 0 -295 110t-133 347q0 174 103 357h271q-127 -253 -127 -370q0 -126 51.5 -175.5t130.5 -49.5q66 1 122.5 40.5t56.5 157.5v396h248v-985 q0 -279 -124 -392.5t-320 -114.5q-199 1 -323 119t-124 302z" />
<glyph unicode="&#x10e8;" horiz-adv-x="1101" d="M95 522q0 195 124 329t323 134q104 0 194 -90l1 309q0 61 -88 63q-81 1 -81 -61v-96h-221v94q-2 65 -105 63h-147v210h158q125 0 208 -132q122 132 275 130q110 0 180.5 -71.5t69.5 -222.5l1 -654q-1 -239 -126 -394t-319 -154q-200 -1 -323.5 140t-123.5 403zM343 522 q0 -178 63.5 -253t135.5 -75q76 -1 135 68.5t59 259.5q0 112 -50 181t-144 68q-95 1 -147 -68t-52 -181z" />
<glyph unicode="&#x10e9;" horiz-adv-x="1100" d="M114 0v1140q0 336 349 336q356 0 357 -348h-247q-1 138 -107 139q-104 -2 -104 -108v-246q81 63 197 71q199 0 322.5 -133t123.5 -345q0 -243 -120 -507h-282q154 293 154 505q0 135 -53 202t-142 67q-95 0 -148 -54t-52 -200v-519h-248z" />
<glyph unicode="&#x10ea;" horiz-adv-x="1260" d="M95 305q0 338 112 730h277q-142 -353 -140 -719q0 -250 53 -403.5t217 -153.5q163 0 234 83q70 84 70 244q0 192 -94 193h-227v200h223q55 1 55 133q1 79 -106.5 144.5t-107.5 278.5h255q2 -125 104 -201.5t103 -200.5q0 -147 -159 -244q201 -111 202 -312 q0 -253 -161.5 -393.5t-388.5 -140.5q-263 1 -392 204.5t-129 557.5z" />
<glyph unicode="&#x10eb;" horiz-adv-x="1100" d="M95 514q0 246 124 383.5t322 137.5q97 0 197 -81v524h248v-964q0 -239 -123.5 -387.5t-321.5 -147.5q-198 -1 -322 143t-124 392zM343 515q0 -174 53 -248t147 -74q83 0 139 76t56 246q0 162 -56 234.5t-139 72.5q-97 0 -148.5 -73t-51.5 -234z" />
<glyph unicode="&#x10ec;" horiz-adv-x="1101" d="M114 527l1 654q-1 151 69.5 222.5t180.5 71.5q154 2 275 -130q83 132 208 132h158v-210h-147q-103 -3 -105 -63v-94h-221v96q0 59 -81 61q-88 -3 -88 -63l1 -309q89 90 194 90q200 0 323 -134q124 -135 124 -329q0 -262 -124 -403t-323 -140q-194 -1 -319 154t-126 394z M365 522q0 -190 59.5 -259.5t135.5 -68.5q72 0 135 76q63 74 63 252q0 111 -51.5 180.5t-146.5 68.5q-93 1 -144 -67q-51 -70 -51 -182z" />
<glyph unicode="&#x10ed;" horiz-adv-x="1118" d="M95 -10q0 102 60 257l248 -54q-61 -138 -61 -252q2 -86 56 -134t140 -48q111 0 155.5 59.5t45.5 262.5l-15 337h-229q-143 0 -238.5 81t-95.5 207q0 116 85.5 209.5t222.5 93.5h224l-37 467h248l36 -467h83v-211h-73l36 -710q0 -305 -124 -425t-320 -121 q-198 1 -322.5 120t-124.5 328zM390 702q3 -84 95 -89h228l-10 202h-220q-92 -9 -93 -113z" />
<glyph unicode="&#x10ee;" horiz-adv-x="1100" d="M114 514v964h248v-524q101 81 198 81q198 0 321.5 -137.5t123.5 -383.5q0 -248 -123.5 -392t-321.5 -143q-198 -1 -322 147.5t-124 387.5zM362 515q0 -170 56 -246t139 -76q94 0 147 74t53 248q0 162 -51.5 234.5t-148.5 72.5q-83 0 -139 -73t-56 -234z" />
<glyph unicode="&#x10ef;" horiz-adv-x="1083" d="M95 -41q0 139 63 255l216 -83q-30 -74 -30 -169q0 -86 41.5 -144.5t157.5 -58.5q105 0 150.5 60.5t46.5 176.5q-1 135 -72.5 209.5t-316.5 151.5l56 390l-260 21l-2 256l292 -75l7 229h281l-56 -268l248 -26v-253l-283 77l-30 -223q134 -26 258 -159q124 -134 126 -336 q-2 -190 -126 -318.5t-320 -128.5q-203 0 -325 122.5t-122 293.5z" />
<glyph unicode="&#x10f0;" horiz-adv-x="1082" d="M95 356v103h249v-78q0 -115 66.5 -151.5t153.5 -36.5q84 0 128 35t44 129q0 186 -36 186h-219v171h212q45 0 42 100q1 76 -42 76h-220v174h218q36 0 33 81q2 81 -126 105q-329 26 -328 246h251q12 -41 180 -71q271 -42 271 -225q0 -149 -72 -216q80 -62 79 -173 q0 -121 -84 -187q92 -89 92 -278q-1 -171 -126 -269t-308 -98q-205 0 -331.5 99t-126.5 278z" />
<glyph unicode="&#x2000;" horiz-adv-x="787" />
<glyph unicode="&#x2001;" horiz-adv-x="1574" />
<glyph unicode="&#x2002;" horiz-adv-x="787" />
<glyph unicode="&#x2003;" horiz-adv-x="1574" />
<glyph unicode="&#x2004;" horiz-adv-x="524" />
<glyph unicode="&#x2005;" horiz-adv-x="393" />
<glyph unicode="&#x2006;" horiz-adv-x="262" />
<glyph unicode="&#x2007;" horiz-adv-x="262" />
<glyph unicode="&#x2008;" horiz-adv-x="196" />
<glyph unicode="&#x2009;" horiz-adv-x="314" />
<glyph unicode="&#x200a;" horiz-adv-x="87" />
<glyph unicode="&#x2010;" horiz-adv-x="702" d="M72 432v202h540v-202h-540z" />
<glyph unicode="&#x2011;" horiz-adv-x="702" d="M72 432v202h540v-202h-540z" />
<glyph unicode="&#x2012;" d="M79 441v184h1049v-184h-1049z" />
<glyph unicode="&#x2013;" horiz-adv-x="972" d="M75 441v184h798v-184h-798z" />
<glyph unicode="&#x2014;" horiz-adv-x="1945" d="M87 441v184h1721v-184h-1721z" />
<glyph unicode="&#x2015;" horiz-adv-x="1945" d="M-2 441v184h1900v-184h-1900z" />
<glyph unicode="&#x2016;" horiz-adv-x="972" d="M216 -435v1900h207v-1900h-207zM530 -435v1900h207v-1900h-207z" />
<glyph unicode="&#x2017;" horiz-adv-x="972" d="M-32 53h1012v-182h-1012v182zM-32 -253h1012v-182h-1012v182z" />
<glyph unicode="&#x2018;" horiz-adv-x="618" d="M138 902v190l157 308h170l-83 -317v-181h-244z" />
<glyph unicode="&#x2019;" horiz-adv-x="618" d="M133 922l82 317v161h245v-171l-158 -307h-169z" />
<glyph unicode="&#x201a;" horiz-adv-x="618" d="M129 -215l83 319v179h244v-189l-158 -309h-169z" />
<glyph unicode="&#x201b;" horiz-adv-x="618" d="M142 1229v171h244v-161q10 -36 20 -76.5t20.5 -82.5t21.5 -82q10 -40 18 -76h-167z" />
<glyph unicode="&#x201c;" horiz-adv-x="1007" d="M142 902v190l158 308h169l-82 -317v-181h-245zM512 902v190l158 308h169l-82 -317v-181h-245z" />
<glyph unicode="&#x201d;" horiz-adv-x="1007" d="M134 902l83 319v179h244v-189l-158 -309h-169zM504 902l82 319v179h244v-189l-157 -309h-169z" />
<glyph unicode="&#x201e;" horiz-adv-x="1007" d="M134 -215l83 319v179h244v-189l-158 -309h-169zM504 -215l82 319v179h244v-189l-157 -309h-169z" />
<glyph unicode="&#x201f;" horiz-adv-x="1007" d="M142 1210v190h245v-180q10 -36 20 -76.5t20.5 -82.5t21 -82.5t19.5 -76.5h-168zM512 1210v190h244v-180q10 -36 20.5 -76.5t21 -82.5t20.5 -82.5t20 -76.5h-168z" />
<glyph unicode="&#x2020;" horiz-adv-x="972" d="M37 829v192h331v379h212v-379h331v-192h-331v-1007h-212v1007h-331z" />
<glyph unicode="&#x2021;" horiz-adv-x="972" d="M37 201v193h331v435h-331v192h331v379h212v-379h331v-192h-331v-435h331v-193h-331v-379h-212v379h-331z" />
<glyph unicode="&#x2022;" horiz-adv-x="1147" d="M264 714q0 62 22 114q21 52 64 94q86 86 211 85q122 1 208 -85t85 -208q0 -125 -85 -209q-86 -86 -209 -86q-124 0 -210 86q-86 85 -86 209z" />
<glyph unicode="&#x2023;" horiz-adv-x="1147" d="M266 328v770l691 -385z" />
<glyph unicode="&#x2024;" horiz-adv-x="650" d="M194 0v283h246v-283h-246z" />
<glyph unicode="&#x2025;" horiz-adv-x="1298" d="M202 0v283h246v-283h-246zM817 0v283h246v-283h-246z" />
<glyph unicode="&#x2026;" horiz-adv-x="1945" d="M211 0v283h246v-283h-246zM826 0v283h245v-283h-245zM1439 0v283h246v-283h-246z" />
<glyph unicode="&#x2027;" horiz-adv-x="618" d="M180 559v283h244v-283h-244z" />
<glyph unicode="&#x202f;" horiz-adv-x="314" />
<glyph unicode="&#x2032;" horiz-adv-x="441" d="M-1 1010l181 390h256l-302 -390h-135z" />
<glyph unicode="&#x2033;" horiz-adv-x="726" d="M-1 1010l181 390h256l-302 -390h-135zM284 1010l181 390h256l-302 -390h-135z" />
<glyph unicode="&#x2034;" horiz-adv-x="1011" d="M-1 1010l181 390h256l-302 -390h-135zM284 1010l181 390h256l-302 -390h-135zM569 1010l181 390h256l-302 -390h-135z" />
<glyph unicode="&#x2035;" horiz-adv-x="441" d="M-13 1400h254l182 -390h-134z" />
<glyph unicode="&#x2036;" horiz-adv-x="726" d="M-13 1400h254l182 -390h-134zM272 1400h254l182 -390h-134z" />
<glyph unicode="&#x2037;" horiz-adv-x="1011" d="M-13 1400h254l182 -390h-134zM272 1400h254l182 -390h-134zM557 1400h254l182 -390h-134z" />
<glyph unicode="&#x2038;" horiz-adv-x="659" d="M-38 -435l362 451l357 -451h-204l-155 205q-38 -50 -79 -103.5t-77 -101.5h-204z" />
<glyph unicode="&#x2039;" horiz-adv-x="778" d="M124 520v97l478 425v-244l-258 -230q64 -57 130 -115.5t128 -114.5v-244z" />
<glyph unicode="&#x203a;" horiz-adv-x="778" d="M158 94v244l257 230q-64 57 -129.5 115.5t-127.5 114.5v244l477 -425v-97z" />
<glyph unicode="&#x205f;" horiz-adv-x="393" />
<glyph unicode="&#x20ac;" d="M-27 469l74 165h115v12q0 11 -0.5 24t-0.5 29q0 17 0.5 31t0.5 26v11h-189l74 164h133q21 115 65.5 202.5t115.5 152.5q147 139 371 139q185 -1 361 -143v-278q-64 74 -113 119.5t-85 64.5q-69 38 -155 38q-123 0 -204.5 -77t-114.5 -218h527l-73 -164h-477 q-1 -14 -1 -31v-37q0 -14 -0.5 -22t-0.5 -14t0.5 -12t1.5 -17h417l-73 -165h-321q16 -70 45 -125t69.5 -93t92 -58.5t112.5 -20.5q43 0 82 9.5t73 27.5q70 37 198 185v-276q-180 -144 -361 -145q-225 0 -372 139q-140 130 -180 357h-207z" />
<glyph unicode="&#x2122;" horiz-adv-x="1945" d="M262 1262v138h521v-138h-183v-437h-157v437h-181zM831 825v575h197l141 -209q33 51 67.5 105.5t66.5 103.5h195v-575h-156v372q-35 -54 -68 -106t-67 -103h-77l-142 211v-374h-157z" />
<glyph unicode="&#x25fc;" horiz-adv-x="1064" d="M0 0v1064h1064v-1064h-1064z" />
<glyph horiz-adv-x="0" />
<glyph horiz-adv-x="1100" d="M114 514v964h248v-524q101 81 198 81q198 0 321.5 -137.5t123.5 -383.5q0 -248 -123.5 -392t-321.5 -143q-198 -1 -322 147.5t-124 387.5zM362 515q0 -170 56 -246t139 -76q94 0 147 74t53 248q0 162 -51.5 234.5t-148.5 72.5q-83 0 -139 -73t-56 -234z" />
</font>
</defs>
</svg>
