<?xml version="1.0" standalone="no"?>
<!DOCTYPE svg PUBLIC "-//W3C//DTD SVG 1.1//EN" "http://www.w3.org/Graphics/SVG/1.1/DTD/svg11.dtd" >
<svg xmlns="http://www.w3.org/2000/svg" xmlns:xlink="http://www.w3.org/1999/xlink" version="1.1">
<metadata></metadata>
<defs>
<font id="bpg_rioni_veraregular" horiz-adv-x="972" >
<font-face units-per-em="2048" ascent="1556" descent="-492" />
<missing-glyph horiz-adv-x="618" />
<glyph unicode=" "  horiz-adv-x="618" />
<glyph unicode="&#x09;" horiz-adv-x="618" />
<glyph unicode="&#xa0;" horiz-adv-x="618" />
<glyph unicode="!" horiz-adv-x="779" d="M294 0h192v241h-192v-241zM294 796l20 -339h153l19 339v622h-192v-622z" />
<glyph unicode="&#x22;" horiz-adv-x="894" d="M187 891h162v527h-162v-527zM546 891h162v527h-162v-527z" />
<glyph unicode="#" horiz-adv-x="1630" d="M150 393h299l-98 -393h153l97 393h279l-98 -393h152l99 393h339v146h-302l78 317h333v146h-296l97 394h-152l-99 -394h-278l99 394h-154l-97 -394h-343v-146h306l-80 -317h-334v-146zM638 539l80 317h277l-78 -317h-279z" />
<glyph unicode="$" horiz-adv-x="1236" d="M162 87q67 -28 133.5 -47t133.5 -29t133 -11v-286h95v288q203 13 311 106.5t108 253.5q0 99 -44.5 169t-137 115.5t-237.5 67.5v407q168 -8 333 -88v166q-179 55 -333 58v221h-95v-223q-128 -9 -218 -52t-136 -118t-46 -177q0 -142 95.5 -223.5t304.5 -116.5v-434 q-202 3 -400 124v-171zM336 924q0 84 58 135t168 62v-389q-59 9 -101.5 25t-70.5 39.5t-41 55t-13 72.5zM657 138v411q127 -22 185.5 -71.5t58.5 -133.5q0 -173 -244 -206z" />
<glyph unicode="%" horiz-adv-x="1847" d="M107 1058q0 -179 88 -282.5t239 -103.5q152 0 240.5 103.5t88.5 282.5q0 177 -89 281.5t-240 104.5q-150 0 -238.5 -104.5t-88.5 -281.5zM258 1058q0 123 47 194t129 71t129.5 -71t47.5 -194q0 -126 -46.5 -196t-130.5 -70q-82 0 -129 70t-47 196zM405 -28h152l887 1472 h-152zM1086 358q0 -177 88.5 -281.5t240.5 -104.5q150 0 238 104.5t88 281.5q0 88 -23 160t-65 122t-103 77.5t-135 27.5q-152 0 -240.5 -104t-88.5 -283zM1238 358q0 84 21.5 144t61 91t94.5 31q81 0 127.5 -71t46.5 -195q0 -123 -46.5 -194t-127.5 -71q-82 0 -129.5 71.5 t-47.5 193.5z" />
<glyph unicode="&#x26;" horiz-adv-x="1517" d="M123 438q0 -202 144 -334q145 -132 375 -132q248 0 440 168l136 -140h239l-265 271q176 243 199 490h-177q-11 -220 -124 -386l-483 494q-84 87 -113 136.5t-29 99.5q0 83 62.5 136t161.5 53q128 0 297 -91v173q-160 68 -316 68q-70 0 -130 -16t-107 -45.5t-80.5 -71 t-51 -94.5t-17.5 -114q0 -117 93 -236q-254 -188 -254 -429zM306 449q0 167 167 314l504 -516q-141 -121 -318 -121q-148 0 -252 92q-101 92 -101 231z" />
<glyph unicode="'" horiz-adv-x="534" d="M187 891h162v527h-162v-527z" />
<glyph unicode="(" horiz-adv-x="758" d="M167 611q0 -421 284 -867h152q-251 429 -251 867q0 219 62 431.5t189 433.5h-152q-284 -438 -284 -865z" />
<glyph unicode=")" horiz-adv-x="758" d="M156 -256h152q284 446 284 867q0 419 -284 865h-152q85 -147 140 -289.5t83 -285.5t28 -290q0 -438 -251 -867z" />
<glyph unicode="*" d="M58 815l55 -93l319 193v-358h109v358l319 -193l55 93l-341 185l341 185l-55 94l-319 -193v358h-109v-358l-319 193l-55 -94l341 -185z" />
<glyph unicode="+" horiz-adv-x="1630" d="M206 529h529v-529h160v529h529v162h-529v529h-160v-529h-529v-162z" />
<glyph unicode="," horiz-adv-x="618" d="M150 -226h123l155 304v163h-200v-163z" />
<glyph unicode="-" horiz-adv-x="702" d="M95 455h512v156h-512v-156z" />
<glyph unicode="." horiz-adv-x="618" d="M208 0h200v241h-200v-241z" />
<glyph unicode="/" horiz-adv-x="655" d="M0 -180h162l494 1598h-162z" />
<glyph unicode="0" horiz-adv-x="1236" d="M128 708q0 -358 125.5 -547t364.5 -189q119 0 211 48t154 141t94 231t32 316q0 357 -126.5 546.5t-364.5 189.5q-239 0 -364.5 -189t-125.5 -547zM321 708q0 584 297 584q299 0 299 -584t-299 -584q-297 0 -297 584z" />
<glyph unicode="1" horiz-adv-x="1236" d="M214 1175l341 69v-1082h-314v-162h817v162h-313v1256h-192l-339 -68v-175z" />
<glyph unicode="2" horiz-adv-x="1236" d="M142 0h901v162h-670q481 492 511 527q85 104 118.5 182.5t33.5 167.5q0 184 -134 294q-131 111 -349 111q-167 0 -401 -94v-194q227 126 405 126q127 0 206.5 -71t79.5 -184q0 -71 -37 -143t-129 -173q-74 -84 -237 -246q-189 -189 -298 -303v-162z" />
<glyph unicode="3" horiz-adv-x="1236" d="M148 43q202 -71 379 -71q267 0 411 115t144 325q0 136 -77 230t-216 123q124 30 192 112t68 199q0 170 -128 269t-345 99q-167 0 -385 -61v-171q212 70 368 70q144 0 221.5 -58t77.5 -168q0 -106 -75 -162.5t-217 -56.5h-173v-158h166q156 0 244 -71t88 -196 q0 -90 -42 -152t-124.5 -94t-202.5 -32q-213 0 -374 94v-185z" />
<glyph unicode="4" horiz-adv-x="1236" d="M95 334h640v-334h191v334h203v160h-203v924h-241l-590 -898v-186zM251 494l484 757v-757h-484z" />
<glyph unicode="5" horiz-adv-x="1236" d="M150 33q197 -61 373 -61q259 0 402 127t143 356q0 221 -140 353q-136 130 -375 130q-92 0 -167 -30v349h577v161h-753v-712q162 70 310 70q108 0 189 -39t124 -111.5t43 -170.5q0 -148 -96 -234.5t-260 -86.5q-201 0 -370 92v-193z" />
<glyph unicode="6" horiz-adv-x="1236" d="M136 708q0 -357 130.5 -546.5t375.5 -189.5q212 0 342 133q131 132 131 350q0 223 -123.5 353t-337.5 130q-101 0 -185.5 -44t-141.5 -127q13 258 113.5 386.5t291.5 128.5q148 0 291 -70v175q-157 57 -299 57q-268 0 -429 -200q-159 -197 -159 -536zM362 455 q0 153 76 242t204 89q85 0 148.5 -40t97.5 -115t34 -176t-34 -176t-97.5 -115t-148.5 -40q-128 0 -204 89t-76 242z" />
<glyph unicode="7" horiz-adv-x="1236" d="M160 1257h681l-485 -1257h201l515 1337v81h-912v-161z" />
<glyph unicode="8" horiz-adv-x="1236" d="M132 399q0 -206 125.5 -316.5t360.5 -110.5q234 0 360.5 110.5t126.5 316.5q0 90 -34.5 163t-101 123t-158.5 70q82 21 140.5 65.5t89.5 110t31 145.5q0 172 -121 270t-332.5 98t-332.5 -98t-121 -270q0 -80 31.5 -145.5t90 -110t140.5 -65.5q-92 -20 -158.5 -70 t-101.5 -123t-35 -163zM325 399q0 128 79 201.5t214 73.5q139 0 217 -73t78 -202q0 -127 -79.5 -201t-215.5 -74q-135 0 -214 73.5t-79 201.5zM356 1058q0 111 69 172.5t193 61.5t194 -61.5t70 -172t-70 -172t-194 -61.5t-193 61t-69 172z" />
<glyph unicode="9" horiz-adv-x="1236" d="M123 961q0 -223 123 -351.5t337 -128.5q103 0 186.5 43t140.5 126q-16 -261 -116 -388.5t-289 -127.5q-148 0 -291 70v-175q157 -57 300 -57q266 0 427 199q160 199 160 537q0 358 -129.5 547t-375.5 189q-212 0 -345 -133q-128 -131 -128 -350zM315 961.5 q0 152.5 76 241.5t205 89q85 0 148.5 -40t97.5 -114.5t34 -176.5q0 -153 -75.5 -241.5t-204.5 -88.5t-205 89t-76 241.5z" />
<glyph unicode=":" horiz-adv-x="655" d="M228 0h200v241h-200v-241zM228 765h200v241h-200v-241z" />
<glyph unicode=";" horiz-adv-x="655" d="M150 -226h123l155 304v163h-200v-163zM228 765h200v241h-200v-241z" />
<glyph unicode="&#x3c;" horiz-adv-x="1630" d="M206 531l1218 -442v173l-980 347l980 349v172l-1218 -441v-158z" />
<glyph unicode="=" horiz-adv-x="1630" d="M206 334h1218v162h-1218v-162zM206 724h1218v160h-1218v-160z" />
<glyph unicode="&#x3e;" horiz-adv-x="1630" d="M206 89l1218 442v158l-1218 441v-172l979 -349l-979 -347v-173z" />
<glyph unicode="?" horiz-adv-x="1032" d="M140 1158q186 130 337 130q102 0 164.5 -52.5t62.5 -136.5q0 -47 -24 -91t-79 -95l-85 -85q-89 -86 -113 -143q-26 -61 -26 -158v-146h182v117q0 88 11 126q7 24 26 49.5t63 69.5l84 82q84 80 119 145.5t35 138.5q0 152 -108 241q-105 94 -279 94q-194 0 -370 -107v-179z M371 0h193v241h-193v-241z" />
<glyph unicode="@" horiz-adv-x="1945" d="M128 516q0 -180 63.5 -336.5t185.5 -274.5q121 -118 277.5 -180.5t331.5 -62.5q146 0 286 48.5t258 141.5l-86 105q-66 -51 -141 -87t-155 -54t-162 -18q-100 0 -192 23t-172.5 68t-146.5 111q-104 101 -158.5 233t-54.5 283q0 183 84 340t234 255q188 122 422 122 q168 0 309.5 -66t240.5 -190q121 -153 121 -357q0 -112 -35 -197t-101.5 -137t-158.5 -67v700h-136v-125q-115 144 -302 144q-165 0 -266.5 -119t-101.5 -309q0 -189 101.5 -307.5t266.5 -118.5q188 0 302 142v-146q267 6 417.5 149.5t150.5 394.5q0 237 -147 429 q-77 101 -180 172t-225.5 108t-257.5 37q-119 0 -231 -28.5t-211 -84.5t-181 -136q-121 -118 -185 -274.5t-64 -330.5zM724 510q0 134 67.5 212t183.5 78q117 0 184.5 -78t67.5 -212t-67 -212.5t-183 -78.5q-119 0 -186 78t-67 213z" />
<glyph unicode="A" horiz-adv-x="1330" d="M15 0h203l129 364h639l129 -364h200l-541 1418h-217zM405 523l260 706l261 -706h-521z" />
<glyph unicode="B" horiz-adv-x="1333" d="M191 0h509q238 0 367.5 103t129.5 294q0 145 -78 241t-220 127q117 19 178 96t61 207q0 168 -118.5 259t-338.5 91h-490v-1418zM383 158v519h308q156 0 230 -63t74 -196t-74.5 -196.5t-229.5 -63.5h-308zM383 833v428h284q278 0 278 -214q0 -73 -30.5 -120.5t-92 -70.5 t-155.5 -23h-284z" />
<glyph unicode="C" horiz-adv-x="1357" d="M109 708q0 -343 185 -539q188 -197 508 -197q250 0 451 137v201q-197 -180 -440 -180q-162 0 -274 66.5t-169.5 196t-57.5 315.5q0 280 129 429t372 149t440 -179v202q-195 135 -451 135q-320 0 -508 -197q-185 -195 -185 -539z" />
<glyph unicode="D" horiz-adv-x="1497" d="M191 0h394q410 0 604 172.5t194 538.5t-192.5 536.5t-605.5 170.5h-394v-1418zM383 158v1103h232q293 0 429.5 -132.5t136.5 -417.5q0 -286 -136.5 -419.5t-429.5 -133.5h-232z" />
<glyph unicode="E" horiz-adv-x="1229" d="M191 0h914v162h-722v513h675v162h-675v420h705v161h-897v-1418z" />
<glyph unicode="F" horiz-adv-x="1118" d="M191 0h192v677h562v162h-562v418h623v161h-815v-1418z" />
<glyph unicode="G" horiz-adv-x="1507" d="M109 708q0 -346 186 -541q190 -195 522 -195q311 0 531 160v609h-503v-158h313v-381q-127 -72 -325 -72q-521 0 -521 578t521 578q260 0 478 -181v204q-216 135 -494 135q-332 0 -522 -195q-186 -194 -186 -541z" />
<glyph unicode="H" horiz-adv-x="1463" d="M191 0h192v675h697v-675h192v1418h-192v-581h-697v581h-192v-1418z" />
<glyph unicode="I" horiz-adv-x="573" d="M191 0h192v1418h-192v-1418z" />
<glyph unicode="J" horiz-adv-x="573" d="M-101 -228v-162h73q216 0 313.5 116t97.5 373v1319h-192v-1319q0 -125 -23 -195.5t-72.5 -101t-136.5 -30.5h-60z" />
<glyph unicode="K" horiz-adv-x="1275" d="M191 0h192v683l681 -683h253l-755 757l704 661h-247l-636 -599v599h-192v-1418z" />
<glyph unicode="L" horiz-adv-x="1083" d="M191 0h883v162h-691v1256h-192v-1418z" />
<glyph unicode="M" horiz-adv-x="1678" d="M191 0h186v1245l366 -972h193l366 972v-1245h187v1418h-286l-364 -965l-362 965h-286v-1418z" />
<glyph unicode="N" horiz-adv-x="1454" d="M191 0h186v1187l629 -1187h258v1418h-186v-1186l-629 1186h-258v-1418z" />
<glyph unicode="O" horiz-adv-x="1530" d="M109 708q0 -336 179 -537q178 -199 479 -199q298 0 477 199q178 201 178 537q0 337 -178 536q-178 200 -477 200q-301 0 -479 -200q-179 -199 -179 -536zM312 708q0 269 122 424q126 156 333 156t330 -156q123 -155 123 -424t-123 -424q-123 -156 -330 -156t-333 156 q-122 155 -122 424z" />
<glyph unicode="P" horiz-adv-x="1172" d="M191 0h192v570h241q238 0 360.5 107.5t122.5 317.5q0 139 -54.5 233.5t-162 142t-266.5 47.5h-433v-1418zM383 728v533h241q134 0 207 -69t73 -197t-73 -197.5t-207 -69.5h-241z" />
<glyph unicode="Q" horiz-adv-x="1530" d="M109 708q0 -336 179 -537q178 -199 479 -199q7 0 16 0.5t16.5 1t21 1.5t25.5 1l210 -227h232l-252 277q187 83 286.5 259t99.5 423q0 337 -178 536q-178 200 -477 200q-301 0 -479 -200q-179 -199 -179 -536zM312 708q0 269 122 424q126 156 333 156t330 -156 q123 -155 123 -424t-123 -424q-123 -156 -330 -156t-333 156q-122 155 -122 424z" />
<glyph unicode="R" horiz-adv-x="1351" d="M191 0h192v599h209q114 0 180 -46t136 -189l182 -364h206l-195 388q-113 233 -237 277q78 22 132.5 69.5t82.5 117t28 158.5q0 206 -119.5 307t-363.5 101h-433v-1418zM383 757v504h241q93 0 155.5 -28.5t93.5 -84.5t31 -138q0 -31 -4 -58.5t-13 -51t-22.5 -43.5 t-31 -35.5t-39.5 -28t-48 -20.5t-56.5 -12t-65.5 -4h-241z" />
<glyph unicode="S" horiz-adv-x="1235" d="M128 1039q0 -108 42.5 -184t131.5 -125.5t233 -77.5l117 -23q146 -29 210 -88t64 -164q0 -120 -89.5 -184.5t-253.5 -64.5q-214 0 -449 132v-197q243 -91 449 -91q267 0 405.5 106.5t138.5 312.5q0 117 -45.5 200.5t-138 138t-235.5 81.5l-116 24q-80 15 -131.5 33 t-83 45t-44 60t-12.5 81q0 113 84.5 173.5t242.5 60.5q178 0 393 -103v187q-218 72 -415 72q-233 0 -365.5 -108t-132.5 -297z" />
<glyph unicode="T" horiz-adv-x="1188" d="M-6 1257h504v-1257h193v1257h503v161h-1200v-161z" />
<glyph unicode="U" horiz-adv-x="1424" d="M169 533q0 -278 137.5 -419.5t406 -141.5t405.5 141.5t137 419.5v885h-193v-861q0 -228 -82 -328.5t-267.5 -100.5t-268 101t-82.5 328v861h-193v-885z" />
<glyph unicode="V" horiz-adv-x="1330" d="M15 1418l542 -1418h217l541 1418h-200l-450 -1194l-449 1194h-201z" />
<glyph unicode="W" horiz-adv-x="1923" d="M65 1418l355 -1418h241l302 1231l300 -1231h241l356 1418h-195l-297 -1199l-298 1199h-216l-297 -1199l-299 1199h-193z" />
<glyph unicode="X" horiz-adv-x="1331" d="M58 0h207l402 603l399 -603h206l-486 737l456 681h-206l-355 -527l-352 527h-206l441 -661z" />
<glyph unicode="Y" horiz-adv-x="1188" d="M-4 1418l502 -743v-675h193v675l501 743h-206l-390 -583l-394 583h-206z" />
<glyph unicode="Z" horiz-adv-x="1331" d="M87 0h1158v162h-918l897 1110v146h-1115v-161h875l-897 -1111v-146z" />
<glyph unicode="[" horiz-adv-x="758" d="M167 -256h403v135h-228v1463h228v136h-403v-1734z" />
<glyph unicode="\" horiz-adv-x="655" d="M0 1418l494 -1598h162l-494 1598h-162z" />
<glyph unicode="]" horiz-adv-x="758" d="M189 -121v-135h403v1734h-403v-136h227v-1463h-227z" />
<glyph unicode="^" horiz-adv-x="1630" d="M206 889h191l418 375l418 -375h191l-516 529h-186z" />
<glyph unicode="_" d="M-19 -323v-136h1011v136h-1011z" />
<glyph unicode="`" d="M162 1556l309 -355h146l-268 355h-187z" />
<glyph unicode="a" horiz-adv-x="1192" d="M117 310q0 -154 96.5 -246t259.5 -92q130 0 219 46t149 144v-162h175v607q0 244 -113.5 363.5t-345.5 119.5q-169 0 -362 -74v-162q167 87 344 87q144 0 223 -65.5t79 -186.5v-17h-245q-238 0 -358.5 -91.5t-120.5 -270.5zM292 321q0 115 81 165q79 49 294 49h174v-39 q0 -113 -39.5 -198.5t-112.5 -132t-169 -46.5q-105 0 -166.5 54.5t-61.5 147.5z" />
<glyph unicode="b" horiz-adv-x="1235" d="M177 0h175v160q107 -188 341 -188q196 0 315 154q121 157 121 405t-121 405q-119 154 -315 154q-234 0 -341 -188v576h-175v-1478zM352 531q0 192 79.5 302t218.5 110t218 -110t79 -302t-79 -302t-218 -110t-218.5 110t-79.5 302z" />
<glyph unicode="c" horiz-adv-x="1069" d="M107 531q0 -258 142 -408q144 -151 382 -151q173 0 318 69v161q-149 -81 -299 -81q-170 0 -264 108t-94 302t94 302t264 108q150 0 299 -81v163q-141 67 -307 67q-249 0 -393 -150q-142 -148 -142 -409z" />
<glyph unicode="d" horiz-adv-x="1235" d="M107 531q0 -248 121 -405q121 -154 314 -154q235 0 342 188v-160h174v1478h-174v-576q-107 188 -342 188q-193 0 -314 -154q-121 -157 -121 -405zM288 531q0 128 35 220.5t102 142t160 49.5q139 0 219 -110t80 -302q0 -127 -36 -220t-103.5 -142.5t-159.5 -49.5 q-140 0 -218.5 109.5t-78.5 302.5z" />
<glyph unicode="e" horiz-adv-x="1196" d="M107 522q0 -254 148 -401q148 -149 404 -149q206 0 394 82v165q-180 -98 -383 -98q-174 0 -271.5 94t-108.5 275h803v86q0 239 -124 375q-127 139 -340 139q-241 0 -382 -154q-140 -156 -140 -414zM295 626q13 150 101.5 232.5t234.5 82.5q130 0 208 -85.5t80 -229.5 h-624z" />
<glyph unicode="f" horiz-adv-x="684" d="M45 928h167v-928h176v928h287v136h-287v94q0 99 36.5 137t130.5 38h167v145h-165q-180 0 -262.5 -81.5t-82.5 -258.5v-74h-167v-136z" />
<glyph unicode="g" horiz-adv-x="1235" d="M107 544q0 -249 119 -396q120 -148 316 -148q233 0 342 187v-86q0 -361 -343 -361q-149 0 -305 81v-170q149 -56 332 -56q249 0 369.5 132t120.5 405v932h-174v-162q-109 188 -342 188q-195 0 -316 -150q-119 -147 -119 -396zM288 544.5q0 188.5 78.5 293.5t218.5 105 q142 0 220.5 -105t78.5 -294q0 -124 -35.5 -213.5t-102.5 -137t-161 -47.5q-140 0 -218.5 105t-78.5 293.5z" />
<glyph unicode="h" horiz-adv-x="1233" d="M177 0h175v601q0 156 82 246.5t223 90.5q236 0 236 -302v-636h175v642q0 147 -42 246.5t-125 150.5t-205 51q-217 0 -344 -191v579h-175v-1478z" />
<glyph unicode="i" horiz-adv-x="540" d="M183 0h175v1064h-175v-1064zM183 1257h175v221h-175v-221z" />
<glyph unicode="j" horiz-adv-x="540" d="M-35 -256v-149h66q172 0 249.5 91.5t77.5 294.5v1083h-175v-1083q0 -146 -37 -191q-35 -46 -135 -46h-46zM183 1257h175v221h-175v-221z" />
<glyph unicode="k" horiz-adv-x="1125" d="M177 0h175v520l541 -520h228l-588 566l564 498h-223l-522 -459v873h-175v-1478z" />
<glyph unicode="l" horiz-adv-x="540" d="M183 0h175v1478h-175v-1478z" />
<glyph unicode="m" horiz-adv-x="1894" d="M177 0h175v601q0 156 79 246.5t213 90.5q113 0 167 -74t54 -228v-636h176v601q0 156 79 246.5t215 90.5q74 0 122.5 -33t72.5 -99.5t24 -169.5v-636h176v642q0 214 -91 331t-256 117q-124 0 -215 -56.5t-156 -173.5q-39 112 -120 171t-198 59q-115 0 -198.5 -47 t-143.5 -144v165h-175v-1064z" />
<glyph unicode="n" horiz-adv-x="1233" d="M177 0h175v601q0 156 82 246.5t223 90.5q236 0 236 -302v-636h175v642q0 147 -42 246.5t-125 150.5t-205 51q-217 0 -344 -191v165h-175v-1064z" />
<glyph unicode="o" horiz-adv-x="1190" d="M107 531q0 -262 129.5 -410.5t359.5 -148.5q227 0 357.5 149t130.5 410q0 262 -130 410.5t-358 148.5q-230 0 -359.5 -148t-129.5 -411zM292 531q0 191 81.5 300.5t222.5 109.5q140 0 221.5 -110.5t81.5 -299.5q0 -191 -81.5 -300.5t-221.5 -109.5q-142 0 -223 109.5 t-81 300.5z" />
<glyph unicode="p" horiz-adv-x="1235" d="M177 -405h175v565q107 -188 341 -188q196 0 315 154q121 157 121 405t-121 405q-119 154 -315 154q-234 0 -341 -188v162h-175v-1469zM352 531q0 192 79.5 302t218.5 110t218 -110t79 -302t-79 -302t-218 -110t-218.5 110t-79.5 302z" />
<glyph unicode="q" horiz-adv-x="1235" d="M107 531q0 -248 121 -405q121 -154 314 -154q235 0 342 188v-565h174v1469h-174v-162q-107 188 -342 188q-193 0 -314 -154q-121 -157 -121 -405zM288 531q0 128 35 220.5t102 142t160 49.5q139 0 219 -110t80 -302q0 -127 -36 -220t-103.5 -142.5t-159.5 -49.5 q-140 0 -218.5 109.5t-78.5 302.5z" />
<glyph unicode="r" horiz-adv-x="798" d="M177 0h175v560q0 181 80 277.5t227 96.5q86 0 141 -33v179q-46 10 -89 10q-253 0 -359 -191v165h-175v-1064z" />
<glyph unicode="s" horiz-adv-x="1013" d="M105 39q206 -67 374 -67q205 0 322.5 86.5t117.5 235.5q0 130 -78.5 202t-264.5 113l-60 13q-94 21 -144.5 43.5t-70 49.5t-19.5 69q0 159 260 159q165 0 320 -76v166q-147 57 -340 57q-131 0 -222.5 -36.5t-139 -107t-47.5 -170.5q0 -83 31.5 -141t98.5 -96.5t177 -61.5 l61 -14q164 -36 210 -73q48 -38 48 -110q0 -78 -66.5 -119.5t-189.5 -41.5q-186 0 -378 100v-180z" />
<glyph unicode="t" horiz-adv-x="761" d="M52 928h128v-577q0 -199 76 -275q79 -76 281 -76h179v146h-179q-109 0 -146 37q-35 38 -35 168v577h360v136h-360v302h-176v-302h-128v-136z" />
<glyph unicode="u" horiz-adv-x="1233" d="M165 420q0 -220 95.5 -334t278.5 -114q111 0 194.5 47t148.5 144v-163h174v1064h-174v-603q0 -156 -82 -246.5t-224 -90.5q-236 0 -236 303v637h-175v-644z" />
<glyph unicode="v" horiz-adv-x="1151" d="M58 1064l399 -1064h237l399 1064h-185l-332 -893l-333 893h-185z" />
<glyph unicode="w" horiz-adv-x="1591" d="M82 1064l278 -1064h206l230 872l229 -872h206l279 1064h-175l-218 -830l-218 830h-206l-218 -830l-219 830h-174z" />
<glyph unicode="x" horiz-adv-x="1151" d="M56 0h206l310 418l310 -418h206l-405 546l385 518h-206l-282 -379l-283 379h-206l378 -507z" />
<glyph unicode="y" horiz-adv-x="1151" d="M58 1064l430 -1047l-31 -80q-51 -131 -89 -161q-37 -34 -112 -34h-102v-147h140q117 0 187 58q72 59 145 248l467 1163h-185l-332 -832l-333 832h-185z" />
<glyph unicode="z" horiz-adv-x="1021" d="M84 0h854v140h-658l658 764v160h-831v-140h634l-657 -764v-160z" />
<glyph unicode="{" horiz-adv-x="1236" d="M243 514h58q91 0 141.5 -23.5t73.5 -78t23 -152.5v-227q0 -209 79 -280q79 -70 318 -70h59v137h-65q-135 0 -175 42q-41 41 -41 175v236q0 99 -19 160.5t-59.5 96t-112.5 51.5q106 24 148.5 91.5t42.5 216.5v236q0 134 41 175q40 42 175 42h65v136h-59q-240 0 -318 -69 q-79 -71 -79 -280v-228q0 -143 -51.5 -197t-186.5 -54h-58v-136z" />
<glyph unicode="|" horiz-adv-x="655" d="M247 -459h161v1946h-161v-1946z" />
<glyph unicode="}" horiz-adv-x="1236" d="M243 -180v-137h60q237 0 315 70q80 71 80 280v227q0 145 51.5 199.5t186.5 54.5h59v136h-59q-134 0 -186 54.5t-52 196.5v228q0 209 -80 280q-77 69 -315 69h-60v-136h67q135 0 173 -42q40 -41 40 -175v-236q0 -149 43 -216.5t148 -91.5q-105 -25 -148 -93.5t-43 -214.5 v-236q0 -136 -40 -177q-38 -40 -173 -40h-67z" />
<glyph unicode="~" horiz-adv-x="1630" d="M206 444q93 79 174.5 115.5t165.5 36.5q89 0 236 -59q5 -2 12.5 -4.5t9.5 -3.5q4 -2 15 -6q138 -56 243 -56q93 0 178.5 32.5t183.5 107.5v169q-97 -80 -177.5 -116t-162.5 -36q-89 0 -236 59q-4 2 -22 8q-3 2 -15 5q-140 57 -243 57q-93 0 -178.5 -32.5t-183.5 -107.5 v-169z" />
<glyph unicode="&#xa1;" horiz-adv-x="779" d="M294 0h192v622l-19 339h-153l-20 -339v-622zM294 1177h192v241h-192v-241z" />
<glyph unicode="&#xa2;" horiz-adv-x="1236" d="M163 531q0 -245 126 -390.5t355 -164.5v-273h97v269q143 12 265 69v161q-138 -73 -265 -81v820q135 -8 265 -81v163q-123 56 -265 65v272h-97v-272q-230 -22 -355.5 -167t-125.5 -390zM349 531q0 175 77.5 282t217.5 125v-814q-140 17 -217.5 124t-77.5 283z" />
<glyph unicode="&#xa3;" horiz-adv-x="1236" d="M123 0h943v162h-529v441h371v136h-371v204q0 203 55 275q57 74 196 74q117 0 259 -78v173q-152 57 -277 57q-147 0 -240 -50.5t-138 -156t-45 -272.5v-226h-189v-136h189v-441h-224v-162z" />
<glyph unicode="&#xa4;" horiz-adv-x="1236" d="M89 187l108 -109l196 197q118 -71 227 -71q108 0 225 74l196 -196l109 107l-199 197q74 110 74 223q0 115 -69 228l195 196l-108 109l-197 -199q-117 71 -226 71q-118 0 -223 -73l-197 197l-109 -109l197 -196q-72 -105 -72 -224q0 -109 70 -226zM364 611q0 104 74 178 q77 75 182 75q108 0 182 -74.5t74 -178.5q0 -106 -74 -183q-74 -74 -182 -74q-105 0 -182 74q-74 75 -74 183z" />
<glyph unicode="&#xa5;" horiz-adv-x="1236" d="M78 1418l301 -556h-251v-117h316l79 -147v-49h-395v-117h395v-432h191v432h393v117h-395v49l80 147h315v117h-251l302 556h-181l-359 -665l-360 665h-180z" />
<glyph unicode="&#xa6;" horiz-adv-x="655" d="M247 -332h161v720h-161v-720zM247 640h161v720h-161v-720z" />
<glyph unicode="&#xa7;" d="M87 687q0 -97 61 -169q63 -75 264 -187l24 -14q210 -117 210 -213q0 -72 -53.5 -112t-150.5 -40q-112 0 -279 74v-156q166 -55 300 -55q163 0 260.5 80t97.5 214q0 120 -113 214q176 103 176 269q0 95 -63 169q-61 72 -262 186q-4 2 -10.5 6t-13.5 8t-13 8 q-197 109 -197 195q0 68 51.5 105.5t143.5 37.5q103 0 268 -74v156q-150 55 -290 55q-158 0 -253 -75t-95 -200q0 -131 112 -213q-175 -94 -175 -269zM241 716q0 90 119 173q231 -124 301 -191q69 -65 69 -136q0 -89 -119 -172q-234 126 -303 190q-67 63 -67 136z" />
<glyph unicode="&#xa8;" d="M204 1282h193v192h-193v-192zM576 1282h193v192h-193v-192z" />
<glyph unicode="&#xa9;" horiz-adv-x="1945" d="M269 704q0 -290 206 -496q208 -208 498 -208t498 208q206 206 206 496q0 293 -206 499q-208 208 -498 208t-498 -208q-206 -206 -206 -499zM364 704q0 250 180 430q179 179 429 179q252 0 430 -179q177 -176 177 -430t-177 -428q-179 -179 -430 -179q-249 0 -429 179 q-180 181 -180 428zM553 703.5q0 -198.5 119.5 -313.5t324.5 -115q135 0 260 54v120q-116 -61 -240 -61q-147 0 -228 82t-81 234q0 148 79.5 231.5t220.5 83.5q122 0 249 -61v122q-132 52 -260 52q-205 0 -324.5 -115t-119.5 -313.5z" />
<glyph unicode="&#xaa;" horiz-adv-x="915" d="M109 899q0 -108 72 -172t194 -64q88 0 157.5 32.5t109.5 92.5v-107h142v426q0 170 -85.5 253.5t-258.5 83.5q-139 0 -273 -53v-121q135 65 253 65q222 0 222 -173v-4h-173q-179 0 -269.5 -65.5t-90.5 -193.5zM132 446h654v116h-654v-116zM249 910q0 75 60.5 107t212.5 32 h120v-28q0 -109 -61.5 -177t-160.5 -68q-51 0 -90 17t-60 47.5t-21 69.5z" />
<glyph unicode="&#xab;" horiz-adv-x="1190" d="M150 531l446 -397v181l-286 255l286 255v181l-446 -397v-78zM562 531l446 -397v181l-286 255l286 255v181l-446 -397v-78z" />
<glyph unicode="&#xac;" horiz-adv-x="1630" d="M206 657h1058v-384h160v546h-1218v-162z" />
<glyph unicode="&#xad;" horiz-adv-x="702" d="M95 455h512v156h-512v-156z" />
<glyph unicode="&#xae;" horiz-adv-x="1945" d="M269 704q0 -290 206 -496q208 -208 498 -208t498 208q206 206 206 496q0 293 -206 499q-208 208 -498 208t-498 -208q-206 -206 -206 -499zM364 704q0 250 180 430q179 179 429 179q252 0 430 -179q177 -176 177 -430t-177 -428q-179 -179 -430 -179q-249 0 -429 179 q-180 181 -180 428zM683 321h147v338h63q51 0 85 -24q34 -22 92 -115l122 -199h164l-130 212q-47 72 -77.5 107.5t-53.5 42.5q92 16 141.5 69t49.5 135q0 77 -36.5 127.5t-110 75.5t-185.5 25h-271v-794zM830 755v262h117q103 0 145 -30t42 -101.5t-41.5 -101t-145.5 -29.5 h-117z" />
<glyph unicode="&#xaf;" d="M202 1309h568v141h-568v-141z" />
<glyph unicode="&#xb0;" d="M185 1140q0 -128 85.5 -213.5t213.5 -85.5q126 0 214 85q90 87 90 214q0 126 -88 214q-41 42 -97.5 66t-116.5 24q-126 0 -213 -90q-88 -88 -88 -214zM306 1140q0 76 52.5 128.5t128 52.5t128 -52.5t52.5 -128.5q0 -37 -14 -70t-38.5 -57t-57.5 -38t-71 -14 q-75 0 -127.5 52t-52.5 127z" />
<glyph unicode="&#xb1;" horiz-adv-x="1630" d="M206 0h1218v162h-1218v-162zM206 691h529v-368h160v368h529v161h-529v368h-160v-368h-529v-161z" />
<glyph unicode="&#xb2;" horiz-adv-x="779" d="M89 635h568v108h-402q29 27 81 70q316 271 316 403q0 104 -82.5 166t-220.5 62q-118 0 -254 -53v-117q136 66 234 66q80 0 129.5 -38.5t49.5 -100.5q0 -90 -328 -380q-23 -20 -53 -47.5t-38 -34.5v-104z" />
<glyph unicode="&#xb3;" horiz-adv-x="779" d="M93 659q133 -39 239 -39q169 0 259 63.5t90 181.5q0 52 -21.5 92.5t-62.5 67.5t-99 39q77 18 120 64t43 110q0 62 -36.5 109t-104 72t-156.5 25q-102 0 -243 -33v-109q137 38 211 38q60 0 101.5 -13t63 -38.5t21.5 -61.5q0 -38 -20.5 -64t-61.5 -39t-100 -13h-89v-103h82 q103 0 155.5 -36t52.5 -107q0 -66 -57.5 -103.5t-160.5 -37.5q-128 0 -226 50v-115z" />
<glyph unicode="&#xb4;" d="M352 1199h146l310 357h-190z" />
<glyph unicode="&#xb5;" horiz-adv-x="1236" d="M165 -405h175v526q78 -149 273 -149q185 0 278 151q26 -151 158 -151q66 0 141 43v141q-53 -22 -65 -22q-69 0 -69 111v819h-174v-620q0 -320 -283 -320q-259 0 -259 279v661h-175v-1469z" />
<glyph unicode="&#xb6;" horiz-adv-x="1236" d="M150 1017q0 -175 111.5 -279.5t316.5 -120.5v-804h134v1489h181v-1489h134v1605h-426q-203 0 -328 -111q-123 -108 -123 -290z" />
<glyph unicode="&#xb7;" horiz-adv-x="618" d="M208 555h200v241h-200v-241z" />
<glyph unicode="&#xb8;" d="M276 -228v-124q82 -23 168 -23q112 0 169 43.5t57 127.5q0 89 -104 204h-113q84 -116 84 -169q0 -43 -28.5 -66t-84.5 -23q-85 0 -148 30z" />
<glyph unicode="&#xb9;" horiz-adv-x="779" d="M130 1281l212 39v-581h-194v-104h526v104h-195v689h-130l-219 -37v-110z" />
<glyph unicode="&#xba;" horiz-adv-x="915" d="M91 1053q0 -181 98.5 -285.5t269.5 -104.5q170 0 268 104.5t98 285.5t-98.5 286t-267.5 105q-171 0 -269.5 -105t-98.5 -286zM132 446h654v116h-654v-116zM239 1053q0 128 60.5 205t159.5 77q100 0 159 -76.5t59 -205.5q0 -63 -15.5 -115t-44 -88t-69 -56t-89.5 -20 q-99 0 -159.5 76t-60.5 203z" />
<glyph unicode="&#xbb;" horiz-adv-x="1190" d="M183 134l446 397v78l-446 397v-181l286 -255l-286 -255v-181zM596 134l445 397v78l-445 397v-181l286 -255l-286 -255v-181z" />
<glyph unicode="&#xbc;" horiz-adv-x="1884" d="M130 1281l212 39v-581h-194v-104h526v104h-195v689h-130l-219 -37v-110zM424 -28h152l885 1472h-152zM1166 177h392v-177h137v177h128v103h-128v514h-158l-371 -502v-115zM1264 280l294 399v-399h-294z" />
<glyph unicode="&#xbd;" horiz-adv-x="1884" d="M130 1281l212 39v-581h-194v-104h526v104h-195v689h-130l-219 -37v-110zM424 -28h152l885 1472h-152zM1194 0h568v109h-402q15 13 82 70q315 270 315 402q0 104 -82.5 166t-220.5 62q-119 0 -253 -52v-117q134 66 233 66q80 0 129.5 -38.5t49.5 -101.5q0 -89 -327 -379 q-23 -20 -54 -48t-38 -34v-105z" />
<glyph unicode="&#xbe;" horiz-adv-x="1884" d="M93 659q133 -39 239 -39q169 0 259 63.5t90 181.5q0 52 -21.5 92.5t-62.5 67.5t-99 39q77 18 120 64t43 110q0 62 -36.5 109t-104 72t-156.5 25q-102 0 -243 -33v-109q137 38 211 38q60 0 101.5 -13t63 -38.5t21.5 -61.5q0 -38 -20.5 -64t-61.5 -39t-100 -13h-89v-103h82 q103 0 155.5 -36t52.5 -107q0 -66 -57.5 -103.5t-160.5 -37.5q-128 0 -226 50v-115zM424 -28h152l885 1472h-152zM1166 177h392v-177h137v177h128v103h-128v514h-158l-371 -502v-115zM1264 280l294 399v-399h-294z" />
<glyph unicode="&#xbf;" horiz-adv-x="1032" d="M136 308q0 -149 105 -243q111 -93 282 -93q193 0 370 108v178q-187 -130 -336 -130q-51 0 -94 14t-72.5 39t-45.5 60t-16 76q0 47 24.5 91t78.5 96l86 83q85 82 111 145q27 63 27 157v148h-181v-116q0 -87 -12 -129q-8 -24 -26.5 -49t-63.5 -69l-83 -82 q-85 -80 -119.5 -145.5t-34.5 -138.5zM469 1177h192v241h-192v-241z" />
<glyph unicode="&#xc0;" horiz-adv-x="1330" d="M15 0h203l129 364h639l129 -364h200l-541 1418h-217zM405 523l260 706l261 -706h-521zM434 1803l218 -251h146l-187 251h-177z" />
<glyph unicode="&#xc1;" horiz-adv-x="1330" d="M15 0h203l129 364h639l129 -364h200l-541 1418h-217zM405 523l260 706l261 -706h-521zM531 1552h146l216 251h-175z" />
<glyph unicode="&#xc2;" horiz-adv-x="1330" d="M15 0h203l129 364h639l129 -364h200l-541 1418h-217zM375 1552h133l157 169l158 -169h133l-201 254h-179zM405 523l260 706l261 -706h-521z" />
<glyph unicode="&#xc3;" horiz-adv-x="1330" d="M15 0h203l129 364h639l129 -364h200l-541 1418h-217zM352 1584h119v5q0 43 18.5 66.5t52.5 23.5q23 0 65 -23l54 -32q25 -12 43 -20t34 -12.5t30 -6t32 -1.5q80 0 128.5 56.5t49.5 151.5h-118v-6q0 -19 -5 -35.5t-13.5 -28t-21.5 -17.5t-28 -6q-24 0 -68 22l-54 30 q-30 16 -53 25t-42 12.5t-44 3.5q-54 0 -94.5 -25.5t-62.5 -73t-22 -109.5zM405 523l260 706l261 -706h-521z" />
<glyph unicode="&#xc4;" horiz-adv-x="1330" d="M15 0h203l129 364h639l129 -364h200l-541 1418h-217zM383 1584h193v192h-193v-192zM405 523l260 706l261 -706h-521zM755 1584h192v192h-192v-192z" />
<glyph unicode="&#xc5;" horiz-adv-x="1330" d="M15 0h203l129 364h639l129 -364h200l-506 1327q57 39 87 95.5t30 122.5q0 110 -78 185q-76 76 -183 76q-108 0 -184 -76t-76 -185q0 -139 117 -218zM407 523l258 706l259 -706h-517zM522 1545q0 62 41.5 103t101.5 41q39 0 72.5 -19.5t52.5 -52.5t19 -72q0 -60 -42 -102 t-102 -42t-101.5 42t-41.5 102z" />
<glyph unicode="&#xc6;" horiz-adv-x="1894" d="M8 0h194l152 364h502v-364h915v162h-722v513h675v162h-675v420h704v161h-1152zM420 523l313 745h123v-745h-436z" />
<glyph unicode="&#xc7;" horiz-adv-x="1357" d="M109 708q0 -343 185 -539q188 -197 508 -197q250 0 451 137v201q-197 -180 -440 -180q-162 0 -274 66.5t-169.5 196t-57.5 315.5q0 280 129 429t372 149t440 -179v202q-195 135 -451 135q-320 0 -508 -197q-185 -195 -185 -539zM562 -228v-124q82 -23 168 -23 q112 0 169 43.5t57 127.5q0 89 -104 204h-113q84 -116 84 -169q0 -43 -28.5 -66t-84.5 -23q-85 0 -148 30z" />
<glyph unicode="&#xc8;" horiz-adv-x="1229" d="M191 0h914v162h-722v513h675v162h-675v420h705v161h-897v-1418zM405 1803l217 -251h147l-188 251h-176z" />
<glyph unicode="&#xc9;" horiz-adv-x="1229" d="M191 0h914v162h-722v513h675v162h-675v420h705v161h-897v-1418zM502 1552h146l216 251h-175z" />
<glyph unicode="&#xca;" horiz-adv-x="1229" d="M191 0h914v162h-722v513h675v162h-675v420h705v161h-897v-1418zM347 1552h132l157 169l158 -169h132l-200 254h-180z" />
<glyph unicode="&#xcb;" horiz-adv-x="1229" d="M191 0h914v162h-722v513h675v162h-675v420h705v161h-897v-1418zM354 1584h192v192h-192v-192zM726 1584h193v192h-193v-192z" />
<glyph unicode="&#xcc;" horiz-adv-x="573" d="M56 1803l219 -251h145l-186 251h-178zM191 0h192v1418h-192v-1418z" />
<glyph unicode="&#xcd;" horiz-adv-x="573" d="M154 1552h145l217 251h-176zM191 0h192v1418h-192v-1418z" />
<glyph unicode="&#xce;" horiz-adv-x="573" d="M-2 1552h132l158 169l158 -169h132l-201 254h-178zM191 0h192v1418h-192v-1418z" />
<glyph unicode="&#xcf;" horiz-adv-x="573" d="M6 1584h193v192h-193v-192zM191 0h192v1418h-192v-1418zM377 1584h193v192h-193v-192z" />
<glyph unicode="&#xd0;" horiz-adv-x="1507" d="M10 665h190v-665h396q410 0 603.5 172.5t193.5 538.5t-192 536.5t-605 170.5h-396v-616h-190v-137zM393 158v507h319v137h-319v459h231q294 0 430 -132.5t136 -417.5q0 -286 -136.5 -419.5t-429.5 -133.5h-231z" />
<glyph unicode="&#xd1;" horiz-adv-x="1454" d="M191 0h186v1187l629 -1187h258v1418h-186v-1186l-629 1186h-258v-1418zM414 1584h119v5q0 43 18.5 66.5t53.5 23.5q23 0 65 -23l54 -32q48 -24 76 -32t62 -8q80 0 129 56.5t50 151.5h-119v-6q0 -26 -8.5 -46t-24 -30.5t-35.5 -10.5q-24 0 -68 22l-54 30q-44 24 -73 32.5 t-65 8.5q-82 0 -131 -57t-49 -151z" />
<glyph unicode="&#xd2;" horiz-adv-x="1530" d="M109 708q0 -336 179 -537q178 -199 479 -199q298 0 477 199q178 201 178 537q0 337 -178 536q-178 200 -477 200q-301 0 -479 -200q-179 -199 -179 -536zM312 708q0 269 122 424q126 156 333 156t330 -156q123 -155 123 -424t-123 -424q-123 -156 -330 -156t-333 156 q-122 155 -122 424zM535 1803l218 -251h146l-187 251h-177z" />
<glyph unicode="&#xd3;" horiz-adv-x="1530" d="M109 708q0 -336 179 -537q178 -199 479 -199q298 0 477 199q178 201 178 537q0 337 -178 536q-178 200 -477 200q-301 0 -479 -200q-179 -199 -179 -536zM312 708q0 269 122 424q126 156 333 156t330 -156q123 -155 123 -424t-123 -424q-123 -156 -330 -156t-333 156 q-122 155 -122 424zM633 1552h145l217 251h-176z" />
<glyph unicode="&#xd4;" horiz-adv-x="1530" d="M109 708q0 -336 179 -537q178 -199 479 -199q298 0 477 199q178 201 178 537q0 337 -178 536q-178 200 -477 200q-301 0 -479 -200q-179 -199 -179 -536zM312 708q0 269 122 424q126 156 333 156t330 -156q123 -155 123 -424t-123 -424q-123 -156 -330 -156t-333 156 q-122 155 -122 424zM477 1552h132l158 169l157 -169h132l-200 254h-179z" />
<glyph unicode="&#xd5;" horiz-adv-x="1530" d="M109 708q0 -336 179 -537q178 -199 479 -199q298 0 477 199q178 201 178 537q0 337 -178 536q-178 200 -477 200q-301 0 -479 -200q-179 -199 -179 -536zM312 708q0 269 122 424q126 156 333 156t330 -156q123 -155 123 -424t-123 -424q-123 -156 -330 -156t-333 156 q-122 155 -122 424zM453 1584h119v5q0 43 18.5 66.5t53.5 23.5q22 0 64 -23l55 -32q48 -24 76 -32t62 -8q53 0 93.5 25.5t62.5 72.5t23 110h-119v-6q0 -39 -18.5 -63t-49.5 -24q-24 0 -68 22l-55 30q-43 24 -72 32.5t-65 8.5q-82 0 -131 -57t-49 -151z" />
<glyph unicode="&#xd6;" horiz-adv-x="1530" d="M109 708q0 -336 179 -537q178 -199 479 -199q298 0 477 199q178 201 178 537q0 337 -178 536q-178 200 -477 200q-301 0 -479 -200q-179 -199 -179 -536zM312 708q0 269 122 424q126 156 333 156t330 -156q123 -155 123 -424t-123 -424q-123 -156 -330 -156t-333 156 q-122 155 -122 424zM484 1584h193v192h-193v-192zM856 1584h193v192h-193v-192z" />
<glyph unicode="&#xd7;" horiz-adv-x="1630" d="M267 175l112 -115l436 436l436 -436l113 115l-434 434l434 436l-113 115l-436 -436l-436 436l-112 -115l433 -436z" />
<glyph unicode="&#xd8;" horiz-adv-x="1530" d="M97 17l98 -83l154 181q175 -143 418 -143q298 0 477 199q178 201 178 537q0 303 -150 500l162 188l-97 85l-154 -181q-169 144 -416 144q-301 0 -479 -200q-179 -199 -179 -536q0 -303 149 -500zM312 708q0 269 122 424q126 156 333 156q179 0 301 -124l-682 -806 q-74 131 -74 350zM465 253l681 803q74 -139 74 -348q0 -269 -123 -424q-123 -156 -330 -156q-181 0 -302 125z" />
<glyph unicode="&#xd9;" horiz-adv-x="1424" d="M169 533q0 -278 137.5 -419.5t406 -141.5t405.5 141.5t137 419.5v885h-193v-861q0 -228 -82 -328.5t-267.5 -100.5t-268 101t-82.5 328v861h-193v-885zM481 1803l217 -251h147l-188 251h-176z" />
<glyph unicode="&#xda;" horiz-adv-x="1424" d="M169 533q0 -278 137.5 -419.5t406 -141.5t405.5 141.5t137 419.5v885h-193v-861q0 -228 -82 -328.5t-267.5 -100.5t-268 101t-82.5 328v861h-193v-885zM578 1552h146l216 251h-175z" />
<glyph unicode="&#xdb;" horiz-adv-x="1424" d="M169 533q0 -278 137.5 -419.5t406 -141.5t405.5 141.5t137 419.5v885h-193v-861q0 -228 -82 -328.5t-267.5 -100.5t-268 101t-82.5 328v861h-193v-885zM422 1552h133l157 169l157 -169h133l-200 254h-180z" />
<glyph unicode="&#xdc;" horiz-adv-x="1424" d="M169 533q0 -278 137.5 -419.5t406 -141.5t405.5 141.5t137 419.5v885h-193v-861q0 -228 -82 -328.5t-267.5 -100.5t-268 101t-82.5 328v861h-193v-885zM430 1584h192v192h-192v-192zM802 1584h193v192h-193v-192z" />
<glyph unicode="&#xdd;" horiz-adv-x="1188" d="M-4 1418l502 -743v-675h193v675l501 743h-206l-390 -583l-394 583h-206zM461 1552h146l216 251h-175z" />
<glyph unicode="&#xde;" horiz-adv-x="1177" d="M191 0h192v321h241q238 0 360.5 107t122.5 317q0 208 -122.5 315.5t-360.5 107.5h-241v250h-192v-1418zM383 479v531h241q134 0 207 -69t73 -196q0 -85 -32.5 -145t-95.5 -90.5t-152 -30.5h-241z" />
<glyph unicode="&#xdf;" horiz-adv-x="1225" d="M177 0h177v1076q0 124 65.5 190.5t187.5 66.5q107 0 169.5 -53.5t69.5 -150.5q-144 -28 -223 -109.5t-79 -202.5q0 -87 41 -150t133 -121l88 -52q97 -59 122 -99q30 -40 30 -100q0 -176 -225 -176q-125 0 -270 56v-156q135 -47 259 -47q200 0 307 87.5t107 250.5 q0 95 -46 161q-44 66 -203 169l-54 35q-62 41 -89.5 79t-27.5 83q0 92 79.5 146.5t223.5 61.5q-4 213 -107 323t-301 110q-207 0 -320.5 -103.5t-113.5 -294.5v-1080z" />
<glyph unicode="&#xe0;" horiz-adv-x="1192" d="M117 310q0 -154 96.5 -246t259.5 -92q130 0 219 46t149 144v-162h175v607q0 244 -113.5 363.5t-345.5 119.5q-169 0 -362 -74v-162q167 87 344 87q144 0 223 -65.5t79 -186.5v-17h-245q-238 0 -358.5 -91.5t-120.5 -270.5zM239 1556l310 -355h145l-267 355h-188zM292 321 q0 115 81 165q79 49 294 49h174v-39q0 -113 -39.5 -198.5t-112.5 -132t-169 -46.5q-105 0 -166.5 54.5t-61.5 147.5z" />
<glyph unicode="&#xe1;" horiz-adv-x="1192" d="M117 310q0 -154 96.5 -246t259.5 -92q130 0 219 46t149 144v-162h175v607q0 244 -113.5 363.5t-345.5 119.5q-169 0 -362 -74v-162q167 87 344 87q144 0 223 -65.5t79 -186.5v-17h-245q-238 0 -358.5 -91.5t-120.5 -270.5zM292 321q0 115 81 165q79 49 294 49h174v-39 q0 -113 -39.5 -198.5t-112.5 -132t-169 -46.5q-105 0 -166.5 54.5t-61.5 147.5zM430 1199h146l309 357h-189z" />
<glyph unicode="&#xe2;" horiz-adv-x="1192" d="M117 310q0 -154 96.5 -246t259.5 -92q130 0 219 46t149 144v-162h175v607q0 244 -113.5 363.5t-345.5 119.5q-169 0 -362 -74v-162q167 87 344 87q144 0 223 -65.5t79 -186.5v-17h-245q-238 0 -358.5 -91.5t-120.5 -270.5zM261 1199h132l171 233l171 -233h132l-232 357 h-141zM292 321q0 115 81 165q79 49 294 49h174v-39q0 -113 -39.5 -198.5t-112.5 -132t-169 -46.5q-105 0 -166.5 54.5t-61.5 147.5z" />
<glyph unicode="&#xe3;" horiz-adv-x="1192" d="M117 310q0 -154 96.5 -246t259.5 -92q130 0 219 46t149 144v-162h175v607q0 244 -113.5 363.5t-345.5 119.5q-169 0 -362 -74v-162q167 87 344 87q144 0 223 -65.5t79 -186.5v-17h-245q-238 0 -358.5 -91.5t-120.5 -270.5zM251 1244h119q1 52 8.5 84t23 47.5t40.5 15.5 q22 0 64 -37l54 -52q36 -31 66.5 -44.5t66.5 -13.5q86 0 134.5 70t50.5 197h-119q-1 -77 -18.5 -112t-53.5 -35q-22 0 -65 37l-54 53q-35 30 -65.5 43.5t-66.5 13.5q-86 0 -135 -70t-50 -197zM292 321q0 115 81 165q79 49 294 49h174v-39q0 -113 -39.5 -198.5t-112.5 -132 t-169 -46.5q-105 0 -166.5 54.5t-61.5 147.5z" />
<glyph unicode="&#xe4;" horiz-adv-x="1192" d="M117 310q0 -154 96.5 -246t259.5 -92q130 0 219 46t149 144v-162h175v607q0 244 -113.5 363.5t-345.5 119.5q-169 0 -362 -74v-162q167 87 344 87q144 0 223 -65.5t79 -186.5v-17h-245q-238 0 -358.5 -91.5t-120.5 -270.5zM282 1282h193v192h-193v-192zM292 321 q0 115 81 165q79 49 294 49h174v-39q0 -113 -39.5 -198.5t-112.5 -132t-169 -46.5q-105 0 -166.5 54.5t-61.5 147.5zM654 1282h192v192h-192v-192z" />
<glyph unicode="&#xe5;" horiz-adv-x="1192" d="M117 310q0 -154 96.5 -246t259.5 -92q130 0 219 46t149 144v-162h175v607q0 244 -113.5 363.5t-345.5 119.5q-169 0 -362 -74v-162q167 87 344 87q144 0 223 -65.5t79 -186.5v-17h-245q-238 0 -358.5 -91.5t-120.5 -270.5zM292 321q0 115 81 165q79 49 294 49h174v-39 q0 -113 -39.5 -198.5t-112.5 -132t-169 -46.5q-105 0 -166.5 54.5t-61.5 147.5zM304 1448q0 -110 75 -185q76 -76 185.5 -76t185.5 76q75 75 75 185q0 109 -75 184q-76 76 -185.5 76t-185.5 -76q-75 -75 -75 -184zM420 1448q0 39 18.5 72t51.5 52t74 19q60 0 102.5 -41.5 t42.5 -101.5t-42.5 -102.5t-102.5 -42.5q-62 0 -103 41t-41 104z" />
<glyph unicode="&#xe6;" horiz-adv-x="1910" d="M117 310q0 -159 100 -248.5t279 -89.5q272 0 410 228q71 -112 190.5 -170t277.5 -58q202 0 393 82v165q-186 -100 -384 -100q-174 0 -270.5 95t-108.5 276h804v86q0 236 -127.5 375t-338.5 139q-255 0 -397 -175q-53 83 -154 129t-234 46q-169 0 -362 -74v-162 q167 87 344 87q144 0 223 -65.5t79 -186.5v-17h-245q-238 0 -358.5 -91.5t-120.5 -270.5zM292 321q0 115 81 165q79 49 294 49h174v-39q0 -113 -39.5 -198.5t-112.5 -132t-169 -46.5q-105 0 -166.5 54.5t-61.5 147.5zM1010 626q13 150 100.5 232.5t233.5 82.5 q130 0 208.5 -85.5t79.5 -229.5h-622z" />
<glyph unicode="&#xe7;" horiz-adv-x="1069" d="M107 531q0 -258 142 -408q144 -151 382 -151q173 0 318 69v161q-149 -81 -299 -81q-170 0 -264 108t-94 302t94 302t264 108q150 0 299 -81v163q-141 67 -307 67q-249 0 -393 -150q-142 -148 -142 -409zM412 -228v-124q82 -23 168 -23q111 0 168.5 43.5t57.5 127.5 q0 89 -104 204h-113q84 -116 84 -169q0 -43 -28.5 -66t-84.5 -23q-86 0 -148 30z" />
<glyph unicode="&#xe8;" horiz-adv-x="1196" d="M107 522q0 -254 148 -401q148 -149 404 -149q206 0 394 82v165q-180 -98 -383 -98q-174 0 -271.5 94t-108.5 275h803v86q0 239 -124 375q-127 139 -340 139q-241 0 -382 -154q-140 -156 -140 -414zM294 1556l309 -355h146l-268 355h-187zM295 626q13 150 101.5 232.5 t234.5 82.5q130 0 208 -85.5t80 -229.5h-624z" />
<glyph unicode="&#xe9;" horiz-adv-x="1196" d="M107 522q0 -254 148 -401q148 -149 404 -149q206 0 394 82v165q-180 -98 -383 -98q-174 0 -271.5 94t-108.5 275h803v86q0 239 -124 375q-127 139 -340 139q-241 0 -382 -154q-140 -156 -140 -414zM295 626q13 150 101.5 232.5t234.5 82.5q130 0 208 -85.5t80 -229.5 h-624zM484 1199h146l310 357h-190z" />
<glyph unicode="&#xea;" horiz-adv-x="1196" d="M107 522q0 -254 148 -401q148 -149 404 -149q206 0 394 82v165q-180 -98 -383 -98q-174 0 -271.5 94t-108.5 275h803v86q0 239 -124 375q-127 139 -340 139q-241 0 -382 -154q-140 -156 -140 -414zM295 626q13 150 101.5 232.5t234.5 82.5q130 0 208 -85.5t80 -229.5 h-624zM315 1199h132l171 233l171 -233h133l-233 357h-141z" />
<glyph unicode="&#xeb;" horiz-adv-x="1196" d="M107 522q0 -254 148 -401q148 -149 404 -149q206 0 394 82v165q-180 -98 -383 -98q-174 0 -271.5 94t-108.5 275h803v86q0 239 -124 375q-127 139 -340 139q-241 0 -382 -154q-140 -156 -140 -414zM295 626q13 150 101.5 232.5t234.5 82.5q130 0 208 -85.5t80 -229.5 h-624zM336 1282h193v192h-193v-192zM708 1282h193v192h-193v-192z" />
<glyph unicode="&#xec;" horiz-adv-x="540" d="M-54 1556l310 -355h145l-268 355h-187zM183 0h175v1064h-175v-1064z" />
<glyph unicode="&#xed;" horiz-adv-x="540" d="M137 1199h145l310 357h-189zM183 0h175v1064h-175v-1064z" />
<glyph unicode="&#xee;" horiz-adv-x="540" d="M-32 1199h132l171 233l171 -233h132l-233 357h-141zM183 0h175v1064h-175v-1064z" />
<glyph unicode="&#xef;" horiz-adv-x="540" d="M-11 1282h192v192h-192v-192zM183 0h175v1064h-175v-1064zM360 1282h193v192h-193v-192z" />
<glyph unicode="&#xf0;" horiz-adv-x="1190" d="M107 510q0 -241 134 -389.5t355 -148.5q217 0 351 149q137 148 137 389q0 164 -54.5 301t-173.5 273l-156 177l280 93l-31 92l-316 -106l-121 138h-217l172 -194l-267 -87l32 -94l303 102l152 -172q-75 10 -107 10q-211 0 -342 -148q-131 -147 -131 -385zM292 510 q0 185 87.5 288t246.5 103q80 0 170 -32q103 -125 103 -359q0 -179 -82 -284t-221.5 -105t-221.5 105t-82 284z" />
<glyph unicode="&#xf1;" horiz-adv-x="1233" d="M177 0h175v601q0 156 82 246.5t223 90.5q236 0 236 -302v-636h175v642q0 147 -42 246.5t-125 150.5t-205 51q-217 0 -344 -191v165h-175v-1064zM317 1244h119q1 52 9 84t23.5 47.5t39.5 15.5q22 0 65 -37l54 -52q35 -31 65.5 -44.5t66.5 -13.5q57 0 98.5 31t63.5 91.5 t23 144.5h-118q-2 -77 -19 -112t-54 -35q-22 0 -64 37l-54 53q-36 30 -66 43.5t-66 13.5q-87 0 -135.5 -70t-50.5 -197z" />
<glyph unicode="&#xf2;" horiz-adv-x="1190" d="M107 531q0 -262 129.5 -410.5t359.5 -148.5q227 0 357.5 149t130.5 410q0 262 -130 410.5t-358 148.5q-230 0 -359.5 -148t-129.5 -411zM271 1556l309 -355h146l-268 355h-187zM292 531q0 191 81.5 300.5t222.5 109.5q140 0 221.5 -110.5t81.5 -299.5 q0 -191 -81.5 -300.5t-221.5 -109.5q-142 0 -223 109.5t-81 300.5z" />
<glyph unicode="&#xf3;" horiz-adv-x="1190" d="M107 531q0 -262 129.5 -410.5t359.5 -148.5q227 0 357.5 149t130.5 410q0 262 -130 410.5t-358 148.5q-230 0 -359.5 -148t-129.5 -411zM292 531q0 191 81.5 300.5t222.5 109.5q140 0 221.5 -110.5t81.5 -299.5q0 -191 -81.5 -300.5t-221.5 -109.5q-142 0 -223 109.5 t-81 300.5zM462 1199h145l310 357h-189z" />
<glyph unicode="&#xf4;" horiz-adv-x="1190" d="M107 531q0 -262 129.5 -410.5t359.5 -148.5q227 0 357.5 149t130.5 410q0 262 -130 410.5t-358 148.5q-230 0 -359.5 -148t-129.5 -411zM292 531q0 191 81.5 300.5t222.5 109.5q140 0 221.5 -110.5t81.5 -299.5q0 -191 -81.5 -300.5t-221.5 -109.5q-142 0 -223 109.5 t-81 300.5zM293 1199h132l171 233l171 -233h132l-233 357h-141z" />
<glyph unicode="&#xf5;" horiz-adv-x="1190" d="M107 531q0 -262 129.5 -410.5t359.5 -148.5q227 0 357.5 149t130.5 410q0 262 -130 410.5t-358 148.5q-230 0 -359.5 -148t-129.5 -411zM282 1244h119q1 52 9 84t23.5 47.5t39.5 15.5q22 0 65 -37l54 -52q35 -31 65.5 -44.5t66.5 -13.5q86 0 135 70t50 197h-119 q-1 -77 -18 -112t-54 -35q-22 0 -64 37l-55 53q-35 30 -65.5 43.5t-66.5 13.5q-86 0 -134.5 -70t-50.5 -197zM292 531q0 191 81.5 300.5t222.5 109.5q140 0 221.5 -110.5t81.5 -299.5q0 -191 -81.5 -300.5t-221.5 -109.5q-142 0 -223 109.5t-81 300.5z" />
<glyph unicode="&#xf6;" horiz-adv-x="1190" d="M107 531q0 -262 129.5 -410.5t359.5 -148.5q227 0 357.5 149t130.5 410q0 262 -130 410.5t-358 148.5q-230 0 -359.5 -148t-129.5 -411zM292 531q0 191 81.5 300.5t222.5 109.5q140 0 221.5 -110.5t81.5 -299.5q0 -191 -81.5 -300.5t-221.5 -109.5q-142 0 -223 109.5 t-81 300.5zM314 1282h192v192h-192v-192zM685 1282h193v192h-193v-192z" />
<glyph unicode="&#xf7;" horiz-adv-x="1630" d="M206 529h1218v162h-1218v-162zM698 142h234v233h-234v-233zM698 845h234v233h-234v-233z" />
<glyph unicode="&#xf8;" horiz-adv-x="1190" d="M68 -15l92 -74l132 159q121 -98 304 -98q227 0 357.5 149t130.5 410q0 228 -102 375l139 170l-90 75l-132 -159q-130 98 -303 98q-230 0 -359.5 -148t-129.5 -411q0 -225 103 -373zM292 518q0 200 79.5 311.5t224.5 111.5q118 0 196 -77l-463 -563q-37 81 -37 217z M397 199l463 562q39 -85 39 -230q0 -191 -81.5 -300.5t-221.5 -109.5q-121 0 -199 78z" />
<glyph unicode="&#xf9;" horiz-adv-x="1233" d="M165 420q0 -220 95.5 -334t278.5 -114q111 0 194.5 47t148.5 144v-163h174v1064h-174v-603q0 -156 -82 -246.5t-224 -90.5q-236 0 -236 303v637h-175v-644zM278 1556l310 -355h145l-267 355h-188z" />
<glyph unicode="&#xfa;" horiz-adv-x="1233" d="M165 420q0 -220 95.5 -334t278.5 -114q111 0 194.5 47t148.5 144v-163h174v1064h-174v-603q0 -156 -82 -246.5t-224 -90.5q-236 0 -236 303v637h-175v-644zM469 1199h146l309 357h-189z" />
<glyph unicode="&#xfb;" horiz-adv-x="1233" d="M165 420q0 -220 95.5 -334t278.5 -114q111 0 194.5 47t148.5 144v-163h174v1064h-174v-603q0 -156 -82 -246.5t-224 -90.5q-236 0 -236 303v637h-175v-644zM300 1199h132l171 233l171 -233h132l-232 357h-141z" />
<glyph unicode="&#xfc;" horiz-adv-x="1233" d="M165 420q0 -220 95.5 -334t278.5 -114q111 0 194.5 47t148.5 144v-163h174v1064h-174v-603q0 -156 -82 -246.5t-224 -90.5q-236 0 -236 303v637h-175v-644zM321 1282h193v192h-193v-192zM693 1282h192v192h-192v-192z" />
<glyph unicode="&#xfd;" horiz-adv-x="1151" d="M58 1064l430 -1047l-31 -80q-51 -131 -89 -161q-37 -34 -112 -34h-102v-147h140q117 0 187 58q72 59 145 248l467 1163h-185l-332 -832l-333 832h-185zM442 1199h145l310 357h-189z" />
<glyph unicode="&#xfe;" horiz-adv-x="1235" d="M177 -405h175v565q107 -188 341 -188q196 0 315 154q121 157 121 405t-121 405q-119 154 -315 154q-234 0 -341 -188v576h-175v-1883zM352 531q0 192 79.5 302t218.5 110t218 -110t79 -302t-79 -302t-218 -110t-218.5 110t-79.5 302z" />
<glyph unicode="&#xff;" horiz-adv-x="1151" d="M58 1064l430 -1047l-31 -80q-51 -131 -89 -161q-37 -34 -112 -34h-102v-147h140q117 0 187 58q72 59 145 248l467 1163h-185l-332 -832l-333 832h-185zM294 1282h192v192h-192v-192zM665 1282h193v192h-193v-192z" />
<glyph unicode="&#x106;" horiz-adv-x="1357" d="M109 708q0 -343 185 -539q188 -197 508 -197q250 0 451 137v201q-197 -180 -440 -180q-162 0 -274 66.5t-169.5 196t-57.5 315.5q0 280 129 429t372 149t440 -179v202q-195 135 -451 135q-320 0 -508 -197q-185 -195 -185 -539zM638 1552h146l216 251h-175z" />
<glyph unicode="&#x107;" horiz-adv-x="1069" d="M107 531q0 -258 142 -408q144 -151 382 -151q173 0 318 69v161q-149 -81 -299 -81q-170 0 -264 108t-94 302t94 302t264 108q150 0 299 -81v163q-141 67 -307 67q-249 0 -393 -150q-142 -148 -142 -409zM483 1199h145l310 357h-189z" />
<glyph unicode="&#x10c;" horiz-adv-x="1357" d="M109 708q0 -343 185 -539q188 -197 508 -197q250 0 451 137v201q-197 -180 -440 -180q-162 0 -274 66.5t-169.5 196t-57.5 315.5q0 280 129 429t372 149t440 -179v202q-195 135 -451 135q-320 0 -508 -197q-185 -195 -185 -539zM483 1806l200 -254h179l200 254h-132 l-158 -170l-157 170h-132z" />
<glyph unicode="&#x10d;" horiz-adv-x="1069" d="M107 531q0 -258 142 -408q144 -151 382 -151q173 0 318 69v161q-149 -81 -299 -81q-170 0 -264 108t-94 302t94 302t264 108q150 0 299 -81v163q-141 67 -307 67q-249 0 -393 -150q-142 -148 -142 -409zM314 1556l232 -357h141l233 357h-132l-171 -233l-171 233h-132z " />
<glyph unicode="&#x111;" horiz-adv-x="1235" d="M107 531q0 -248 121 -405q121 -154 314 -154q235 0 342 188v-160h174v1220h147v119h-147v139h-174v-139h-310v-119h310v-318q-107 188 -342 188q-193 0 -314 -154q-121 -157 -121 -405zM288 531q0 128 35 220.5t102 142t160 49.5q139 0 219 -110t80 -302q0 -127 -36 -220 t-103.5 -142.5t-159.5 -49.5q-140 0 -218.5 109.5t-78.5 302.5z" />
<glyph unicode="&#x11e;" horiz-adv-x="1507" d="M109 708q0 -346 186 -541q190 -195 522 -195q311 0 531 160v609h-503v-158h313v-381q-127 -72 -325 -72q-521 0 -521 578t521 578q260 0 478 -181v204q-216 135 -494 135q-332 0 -522 -195q-186 -194 -186 -541zM457 1806q10 -115 86 -172.5t212 -57.5t212 58.5t86 171.5 h-113q-33 -106 -185 -106q-162 0 -185 106h-113z" />
<glyph unicode="&#x11f;" horiz-adv-x="1235" d="M107 544q0 -249 119 -396q120 -148 316 -148q233 0 342 187v-86q0 -361 -343 -361q-149 0 -305 81v-170q149 -56 332 -56q249 0 369.5 132t120.5 405v932h-174v-162q-109 188 -342 188q-195 0 -316 -150q-119 -147 -119 -396zM288 544.5q0 188.5 78.5 293.5t218.5 105 q142 0 220.5 -105t78.5 -294q0 -124 -35.5 -213.5t-102.5 -137t-161 -47.5q-140 0 -218.5 105t-78.5 293.5zM321 1528q20 -273 297.5 -273t297.5 273h-112q-23 -143 -186 -143q-164 0 -185 143h-112z" />
<glyph unicode="&#x130;" horiz-adv-x="573" d="M191 0h192v1418h-192v-1418zM191 1584h195v194h-195v-194z" />
<glyph unicode="&#x131;" horiz-adv-x="540" d="M183 0h175v1064h-175v-1064z" />
<glyph unicode="&#x141;" horiz-adv-x="1092" d="M-13 546l73 -104l140 100v-542h884v162h-691v513l374 261l-76 105l-298 -208v585h-193v-722z" />
<glyph unicode="&#x142;" horiz-adv-x="551" d="M2 650l70 -101l117 84v-633h175v757l191 134l-72 101l-119 -86v572h-175v-694z" />
<glyph unicode="&#x152;" horiz-adv-x="2081" d="M109 711q0 -350 212 -530.5t624 -180.5h1012v162h-722v513h675v162h-675v420h705v161h-995q-412 0 -624 -180.5t-212 -526.5zM312 711q0 546 609 546h122v-1095h-122q-609 0 -609 549z" />
<glyph unicode="&#x153;" horiz-adv-x="1990" d="M107 531q0 -262 129.5 -410.5t359.5 -148.5q268 0 399 208q156 -208 459 -208q202 0 393 82v165q-180 -98 -384 -98q-174 0 -271 94t-108 275h804v86q0 236 -127.5 375t-338.5 139q-135 0 -245.5 -54t-184.5 -154q-126 208 -396 208q-230 0 -359.5 -148t-129.5 -411z M292 531q0 191 81.5 300.5t222.5 109.5q140 0 221.5 -110.5t81.5 -299.5q0 -191 -81.5 -300.5t-221.5 -109.5q-142 0 -223 109.5t-81 300.5zM1090 626q12 150 100 232.5t234 82.5q86 0 151 -38t100.5 -109.5t36.5 -167.5h-622z" />
<glyph unicode="&#x15e;" horiz-adv-x="1235" d="M128 1039q0 -108 42.5 -184t131.5 -125.5t233 -77.5l117 -23q146 -29 210 -88t64 -164q0 -120 -89.5 -184.5t-253.5 -64.5q-214 0 -449 132v-197q243 -91 449 -91q267 0 405.5 106.5t138.5 312.5q0 117 -45.5 200.5t-138 138t-235.5 81.5l-116 24q-80 15 -131.5 33 t-83 45t-44 60t-12.5 81q0 113 84.5 173.5t242.5 60.5q178 0 393 -103v187q-218 72 -415 72q-233 0 -365.5 -108t-132.5 -297zM408 -228v-124q82 -23 168 -23q112 0 169 43.5t57 127.5q0 89 -104 204h-113q84 -116 84 -169q0 -43 -28.5 -66t-84.5 -23q-85 0 -148 30z" />
<glyph unicode="&#x15f;" horiz-adv-x="1013" d="M105 39q206 -67 374 -67q205 0 322.5 86.5t117.5 235.5q0 130 -78.5 202t-264.5 113l-60 13q-94 21 -144.5 43.5t-70 49.5t-19.5 69q0 159 260 159q165 0 320 -76v166q-147 57 -340 57q-131 0 -222.5 -36.5t-139 -107t-47.5 -170.5q0 -83 31.5 -141t98.5 -96.5t177 -61.5 l61 -14q164 -36 210 -73q48 -38 48 -110q0 -78 -66.5 -119.5t-189.5 -41.5q-186 0 -378 100v-180zM298 -228v-124q82 -23 168 -23q111 0 168.5 43.5t57.5 127.5q0 89 -104 204h-113q84 -116 84 -169q0 -43 -28.5 -66t-84.5 -23q-86 0 -148 30z" />
<glyph unicode="&#x160;" horiz-adv-x="1235" d="M128 1039q0 -108 42.5 -184t131.5 -125.5t233 -77.5l117 -23q146 -29 210 -88t64 -164q0 -120 -89.5 -184.5t-253.5 -64.5q-214 0 -449 132v-197q243 -91 449 -91q267 0 405.5 106.5t138.5 312.5q0 117 -45.5 200.5t-138 138t-235.5 81.5l-116 24q-80 15 -131.5 33 t-83 45t-44 60t-12.5 81q0 113 84.5 173.5t242.5 60.5q178 0 393 -103v187q-218 72 -415 72q-233 0 -365.5 -108t-132.5 -297zM329 1806l200 -254h179l200 254h-132l-158 -170l-157 170h-132z" />
<glyph unicode="&#x161;" horiz-adv-x="1013" d="M105 39q206 -67 374 -67q205 0 322.5 86.5t117.5 235.5q0 130 -78.5 202t-264.5 113l-60 13q-94 21 -144.5 43.5t-70 49.5t-19.5 69q0 159 260 159q165 0 320 -76v166q-147 57 -340 57q-131 0 -222.5 -36.5t-139 -107t-47.5 -170.5q0 -83 31.5 -141t98.5 -96.5t177 -61.5 l61 -14q164 -36 210 -73q48 -38 48 -110q0 -78 -66.5 -119.5t-189.5 -41.5q-186 0 -378 100v-180zM205 1556l233 -357h141l232 357h-132l-171 -233l-171 233h-132z" />
<glyph unicode="&#x178;" horiz-adv-x="1188" d="M-4 1418l502 -743v-675h193v675l501 743h-206l-390 -583l-394 583h-206zM314 1584h191v192h-191v-192zM685 1584h193v192h-193v-192z" />
<glyph unicode="&#x17d;" horiz-adv-x="1331" d="M87 0h1158v162h-918l897 1110v146h-1115v-161h875l-897 -1111v-146zM377 1806l201 -254h179l201 254h-133l-158 -170l-157 170h-133z" />
<glyph unicode="&#x17e;" horiz-adv-x="1021" d="M84 0h854v140h-658l658 764v160h-831v-140h634l-657 -764v-160zM209 1556l233 -357h140l233 357h-132l-171 -233l-171 233h-132z" />
<glyph unicode="&#x192;" horiz-adv-x="1236" d="M29 -206v-158q83 -41 195 -41q177 0 266 102q89 99 145 369l120 604h301v136h-272l57 295q23 124 77 182.5t146 58.5q83 0 154 -54v156q-81 34 -189 34q-145 0 -238.5 -92t-127.5 -267l-60 -313h-265v-136h236l-130 -651q-34 -158 -85.5 -223t-142.5 -65q-82 0 -187 63z " />
<glyph unicode="&#x2c6;" d="M183 1199h132l171 233l171 -233h132l-232 357h-141z" />
<glyph unicode="&#x2c7;" d="M183 1556l233 -357h141l232 357h-132l-171 -233l-171 233h-132z" />
<glyph unicode="&#x2d8;" d="M189 1528q20 -273 297.5 -273t297.5 273h-112q-23 -143 -186 -143q-164 0 -185 143h-112z" />
<glyph unicode="&#x2d9;" d="M390 1281h193v193h-193v-193z" />
<glyph unicode="&#x2da;" d="M226 1448q0 -110 75 -185q76 -76 185.5 -76t185.5 76q75 75 75 185q0 109 -75 184q-76 76 -185.5 76t-185.5 -76q-75 -75 -75 -184zM342 1448q0 39 18.5 72t51.5 52t74 19q60 0 102.5 -41.5t42.5 -101.5t-42.5 -102.5t-102.5 -42.5q-62 0 -103 41t-41 104z" />
<glyph unicode="&#x2db;" d="M315 -204q0 -88 54.5 -129.5t171.5 -41.5q62 0 129 19v126q-65 -28 -119 -28q-51 0 -77.5 22.5t-26.5 64.5q0 55 84 171h-113q-103 -114 -103 -204z" />
<glyph unicode="&#x2dc;" d="M173 1244h119q1 52 8.5 84t23 47.5t40.5 15.5q22 0 64 -37l55 -52q35 -31 65.5 -44.5t66.5 -13.5q57 0 98 31t63.5 91.5t23.5 144.5h-119q-1 -77 -18.5 -112t-53.5 -35q-22 0 -65 37l-54 53q-35 30 -65.5 43.5t-66.5 13.5q-86 0 -135 -70t-50 -197z" />
<glyph unicode="&#x2dd;" d="M228 1199h130l212 357h-162zM531 1199h128l236 357h-169z" />
<glyph unicode="&#x3a9;" horiz-adv-x="1485" d="M74 0h570v169q-170 92 -264 249.5t-94 350.5q0 230 124 365q127 138 333 138q202 0 329 -138q127 -139 127 -365q0 -193 -93.5 -350.5t-262.5 -249.5v-169h570v169h-304q152 135 219.5 275t67.5 325q0 295 -182 480q-183 186 -471 186q-290 0 -472 -188 q-182 -187 -182 -488q0 -175 69 -316t219 -274h-303v-169z" />
<glyph unicode="&#x3c0;" horiz-adv-x="1145" d="M-29 741h152q3 33 12 57t24 39t35 22.5t45 7.5h39l-185 -867h172l184 867h310l-76 -357q-36 -164 -43 -222q-9 -75 -9 -111q0 -95 57 -143.5t170 -48.5q43 0 105 15l29 134q-58 -10 -95 -10q-53 0 -75 24t-22 78q0 57 28 179l100 462h173l33 150h-844q-160 0 -225 -59 q-69 -60 -94 -217z" />
<glyph unicode="&#x10a0;" horiz-adv-x="945" d="M80 527q0 -527 395 -527q390 0 390 568q0 267 -184 457q-186 192 -195 434h-171q3 -280 189 -462q187 -182 187 -429q0 -408 -216 -408q-219 0 -219 369v121h-176v-123z" />
<glyph unicode="&#x10a1;" horiz-adv-x="947" d="M82 486q-3 -486 395 -486q390 0 390 486q0 329 -305 413q131 108 129 311q-39 250 -440 247h-144v-403h149v242q250 0 269 -130q-19 -160 -132 -264q-311 -86 -311 -416zM260 486q0 255 219 261q212 -6 212 -261q0 -326 -214 -326q-217 0 -217 326z" />
<glyph unicode="&#x10a2;" horiz-adv-x="1099" d="M86 438q-6 -437 467 -440q463 3 463 440q0 378 -353 422q0 39 107.5 105.5t107.5 166.5q0 328 -323 325q-110 0 -184 -30t-111.5 -89.5t-38.5 -149.5v-104h176v104q0 109 158 106q144 3 153 -162q0 -74 -125 -140q-123 -63 -126 -125q-377 -53 -371 -429zM256 438 q-2 272 301 274q284 0 284 -280q0 -272 -286 -272q-301 0 -299 278z" />
<glyph unicode="&#x10a3;" horiz-adv-x="1556" d="M80 965q0 -965 971 -965h176v160h-174q-798 0 -798 805q0 331 220 331q215 0 218 -374q-3 -502 389 -502q393 0 390 504v2q0 533 -390 533q-217 0 -304 -163q-87 163 -303 163q-357 0 -395 -494zM865 926q0 370 217 370q216 0 216 -370q0 -343 -216 -343q-217 0 -217 343 z" />
<glyph unicode="&#x10a4;" horiz-adv-x="945" d="M80 408q1 -204 98 -306t291 -104q396 3 396 410v650q0 401 -390 401q-197 0 -296 -90.5t-97 -269.5q0 -285 291 -313v172q-118 22 -118 134q0 203 214 206q222 0 222 -240v-650q0 -248 -216 -248q-220 0 -220 248v78h-175v-78z" />
<glyph unicode="&#x10a5;" horiz-adv-x="945" d="M80 408q0 -408 395 -408q390 0 390 408v78q0 216 -167 286q167 123 167 318q0 369 -390 369q-396 0 -393 -401v-95h173v95q0 239 216 236q220 3 220 -210q0 -211 -193 -239h-146v-160h146q193 -6 193 -199v-78q0 -248 -216 -248q-220 0 -220 248v199h-175v-199z" />
<glyph unicode="&#x10a6;" horiz-adv-x="1147" d="M43 1084q14 -305 260 -343q-81 -49 -89 -264q8 -477 422 -477q432 0 432 486q0 228 -136 333q-134 105 -230 94q57 80 57 180q-14 330 -369 366q-339 -36 -347 -375zM212 1092q14 184 178 204q191 -20 197 -204q-8 -207 -197 -218q-167 26 -178 218zM390 486 q0 274 254 277q236 -12 236 -277q0 -326 -244 -326q-246 0 -246 326z" />
<glyph unicode="&#x10a7;" horiz-adv-x="1556" d="M80 486q0 -486 387 -486q398 0 398 486v520q0 290 188 290q245 0 245 -290v-520q0 -326 -245 -326v-160q211 -4 317 117.5t106 368.5v520q0 453 -423 453q-237 0 -281 -212q-43 212 -297 212q-395 0 -395 -453v-520zM255 486v520q0 290 220 290q216 0 216 -290v-520 q0 -326 -216 -326q-220 0 -220 326z" />
<glyph unicode="&#x10a8;" horiz-adv-x="945" d="M80 486q0 -430 319 -486v160q-144 28 -144 326v520q0 290 220 290q216 0 216 -290v-520q0 -148 -35 -230t-103 -96v-160q312 53 312 486v520q0 453 -390 453q-395 0 -395 -453v-520z" />
<glyph unicode="&#x10a9;" horiz-adv-x="945" d="M80 408q0 -408 395 -408q390 0 390 408v78q0 216 -167 286q167 123 167 318q-19 334 -472 369v-165q298 -17 298 -210q0 -211 -193 -239h-146v-160h146q193 -6 193 -199v-78q0 -248 -216 -248q-220 0 -220 248v78h-175v-78z" />
<glyph unicode="&#x10aa;" horiz-adv-x="2161" d="M82 926q61 -829 1095 -926h393v160h-393q-861 55 -922 768q0 368 220 368q216 0 216 -345v-165h174v165q0 345 217 345q216 0 216 -345v-165h174v165q3 345 219 345t216 -345q-12 -315 -245 -327v-159q390 19 410 486q9 508 -381 508q-216 0 -306 -193q-87 193 -303 193 q-218 0 -302 -193q-90 193 -305 193q-396 0 -393 -533z" />
<glyph unicode="&#x10ab;" horiz-adv-x="945" d="M80 486q0 -486 395 -486q390 0 390 486v572q0 401 -390 401q-396 0 -393 -369h171q3 205 216 208q222 -3 222 -240v-219q-85 79 -222 87q-389 -20 -389 -440zM255 486q0 263 214 263q222 -9 222 -263q0 -326 -216 -326q-220 0 -220 326z" />
<glyph unicode="&#x10ac;" horiz-adv-x="945" d="M82 481q-3 -481 389 -481q394 0 394 486q0 437 -394 440q-108 -3 -216 -111v243q0 238 220 238h390v163h-394q-392 0 -389 -401v-577zM255 486q0 254 216 263q220 -3 220 -263q0 -326 -220 -326q-216 0 -216 326z" />
<glyph unicode="&#x10ad;" horiz-adv-x="1556" d="M80 486q0 -436 395 -486v160q-220 38 -220 326v520q0 290 220 290q216 0 216 -238v-484h174v477q0 245 188 245q245 0 245 -290v-520q0 -326 -244 -326v-160q421 50 418 475v531q0 453 -419 453q-188 0 -275 -163q-87 163 -303 163q-395 0 -395 -453v-520z" />
<glyph unicode="&#x10ae;" horiz-adv-x="945" d="M80 408q0 -408 391 -408q393 0 393 408q0 271 -194 355q194 83 194 295q0 401 -611 401h-171v-161h171q435 0 438 -240v-4q-3 -208 -220 -208h-146v-167h144q222 3 222 -271q0 -248 -222 -248q-214 0 -214 248v125h-175v-125z" />
<glyph unicode="&#x10af;" horiz-adv-x="1073" d="M43 995q0 -364 309 -364q318 0 318 375q0 136 -96 290h245v-888q0 -248 -215.5 -248t-215.5 228v44h-176v-44q0 -387 389 -390q394 3 394 410v1051h-625v-152q121 -192 124 -303q0 -222 -143 -222q-135 3 -135 213v132h-173v-132z" />
<glyph unicode="&#x10b0;" horiz-adv-x="1556" d="M82 481q-3 -481 389 -481v160q-216 0 -216 326q0 263 216 263q220 -3 220 -294v-163h173v163q0 294 218 294q214 -3 214 -263q0 -326 -214 -326v-160q394 0 394 481q0 445 -408 445q-202 0 -290 -146q-87 143 -307 146q-216 50 -216 214q0 155 214 158h827v161h-827 q-390 0 -387 -323q-3 -185 178 -282q-181 -97 -178 -373z" />
<glyph unicode="&#x10b1;" horiz-adv-x="943" d="M80 430q0 -430 389 -430q395 0 395 430q0 151 -88 245q-88 96 -85 249h-166q0 -177 82 -259q83 -83 86 -235q-3 -270 -222 -270q-215 0 -218 270v1029h-173v-1029z" />
<glyph unicode="&#x10b2;" horiz-adv-x="1379" d="M80 488q0 -489 653 -486q565 -3 565 484q0 389 -372 398q156 55 156 245q0 330 -329 330q-326 0 -326 -330q14 -189 149 -251q-147 -62 -149 -236q14 -262 351 -245v145q-165 0 -182 100q3 145 115 147h104q312 -19 312 -303q0 -326 -394 -326q-478 0 -478 328v691h-175 v-691zM596 1129q3 167 157 167q162 0 162 -167q3 -179 -162 -182q-157 0 -157 182z" />
<glyph unicode="&#x10b3;" horiz-adv-x="1079" d="M43 1296h178q121 0 121 -226v-214h178v214q0 226 152 226q138 0 136 -238v-670q0 -228 -244 -228q-261 0 -261 228v236h-173v-236q0 -387 434 -390q408 3 436 390v666q0 204 -82 304.5t-246 98.5q-152 3 -234 -136q-98 138 -220 138h-175v-163z" />
<glyph unicode="&#x10b4;" horiz-adv-x="1556" d="M80 971q0 -496 389 -502q396 0 396 502q0 325 188 325q245 0 245 -238q0 -298 -132 -301h-115v-161h115q132 -3 132 -188q0 -248 -269 -248q-254 0 -262 159h-171q12 -159 121 -239t312 -82q443 3 443 410q0 188 -157 275q160 75 157 375q0 401 -419 401 q-187 0 -281 -163q-81 163 -297 163q-395 0 -395 -488zM255 971q0 325 220 325q216 0 216 -325q0 -338 -222 -338q-214 3 -214 338z" />
<glyph unicode="&#x10b5;" horiz-adv-x="943" d="M80 408q0 -409 389 -406q395 -3 395 406v1051h-175v-401q-125 81 -234 84q-297 -3 -297 -353h173q2 186 128 191q230 -28 230 -184v-388q0 -248 -218 -248q-215 0 -218 248v151h-173v-151z" />
<glyph unicode="&#x10b6;" horiz-adv-x="1556" d="M82 1006q-3 -1006 1000 -1006h216v160h-216q-413 0 -620 211.5t-207 634.5q0 290 220 290q216 0 216 -290v-292h174v292q0 290 217 290q216 0 216 -290q0 -356 -245 -356v-164q423 0 423 520q0 453 -394 453q-217 0 -304 -167q-87 167 -303 167q-131 0 -219 -50.5 t-131.5 -151.5t-42.5 -251z" />
<glyph unicode="&#x10b7;" horiz-adv-x="945" d="M80 408q0 -204 98 -306t293 -104q394 3 394 410v1051h-174v-453q0 -208 -220 -278q-216 0 -216 278q0 316 99 453h-159q-115 -138 -115 -453q0 -437 395 -440q149 3 216 136v-294q0 -248 -220 -248q-216 0 -216 248v24h-175v-24z" />
<glyph unicode="&#x10b8;" horiz-adv-x="974" d="M43 1298q222 0 228 -175v-70h165v70q6 175 151 175q113 0 133 -240v-210q-100 62 -216 65q-396 0 -393 -458q0 -455 393 -455q391 0 391 455v603q-9 402 -308 399q-153 3 -233 -142q-62 145 -311 142v-159zM284 455q1 146 55.5 219t164.5 75q216 -3 216 -294 q0 -295 -216.5 -295t-219.5 295z" />
<glyph unicode="&#x10b9;" horiz-adv-x="945" d="M82 0h173v391q0 288 220 288q198 -14 216 -271q0 -281 -110 -408l170 -29q114 155 114 437q-25 329 -241 407q110 164 113 325q-3 319 -319 319q-339 0 -336 -492v-967zM255 743v224q0 328 163 331q145 -3 148 -158q-8 -160 -91 -305q-157 -8 -220 -92z" />
<glyph unicode="&#x10ba;" horiz-adv-x="1120" d="M80 486q0 -486 488 -486q473 0 473 486q0 196 -239 277q240 84 237 317q3 379 -393 379v-163q218 0 218 -214q-15 -236 -228 -236h-90v-165h96q199 0 222 -195q2 -326 -296 -326q-313 0 -313 326v520q0 314 138 453h-179q-134 -137 -134 -453v-520z" />
<glyph unicode="&#x10bb;" horiz-adv-x="945" d="M80 486q0 -486 395 -486q390 0 390 486v973h-174v-644q-50 84 -216 104q-395 0 -395 -433zM255 486q0 263 214 263q222 -3 222 -263q0 -326 -216 -326q-220 0 -220 326z" />
<glyph unicode="&#x10bc;" horiz-adv-x="962" d="M80 486q3 -486 395 -486q390 0 390 486q0 440 -394 440q-128 0 -216 -91v233q0 227 153 230q138 -3 138 -175v-33h166v33q6 173 210 173v163q-203 0 -298 -144q-79 144 -216 144q-329 0 -326 -387v-4zM255 486q0 263 214 263q222 0 222 -263q0 -326 -216 -326 q-220 0 -220 326z" />
<glyph unicode="&#x10bd;" horiz-adv-x="945" d="M80 432l2 -24q0 -81 15.5 -146.5t46.5 -114.5t77.5 -82t108.5 -49.5t139 -17.5q199 2 297.5 101.5t98.5 299.5q0 251 -234 416q33 39 60 117h173v150h-173q-27 82 -78 124v251h-162v-169q-20 8 -78 8q-294 -20 -291 -292q-3 -273 291 -293l127 21q191 -147 191 -324 q0 -248 -216 -248q-220 0 -220 248v24h-175zM255 1006q0 144 152 144q139 0 142 -144q-6 -149 -150 -152q-144 0 -144 152z" />
<glyph unicode="&#x10be;" horiz-adv-x="943" d="M80 486q0 -486 391 -486q393 0 393 486q0 437 -393 440q-142 -3 -216 -91v624h-175v-973zM255 486q0 263 216 263q218 -3 218 -263q0 -326 -218 -326q-216 0 -216 326z" />
<glyph unicode="&#x10bf;" horiz-adv-x="945" d="M80 408q0 -407 389 -410q180 2 277.5 86t117.5 254q0 172 -156 356q-152 180 -155 296v98l307 -117v158l-307 118v212h-165v-161l-308 122v-161l303 -121v-152q0 -149 152 -329q153 -175 156 -319q-42 -178 -220 -178q-216 0 -216 248v134h-175v-134z" />
<glyph unicode="&#x10c0;" horiz-adv-x="945" d="M80 391q0 -391 391 -391q393 0 393 338q0 151 -101 228q101 69 101 193q0 98 -101 169q101 77 101 212q0 319 -491 319h-254v-163h254q316 0 316 -156q0 -67 -23 -99t-70 -29h-205v-162h196q104 -3 104 -93q0 -108 -104 -111h-196v-160h196q104 0 104 -148 q0 -178 -220 -178q-216 0 -216 231v41h-175v-41z" />
<glyph unicode="&#x10c1;" horiz-adv-x="999" d="M80 408q0 -408 414 -408q425 0 425 364q0 179 -111 260q112 88 109 187q3 95 -100 189q103 82 100 175q3 284 -412 284v-163q236 0 242 -121q-6 -92 -97 -95h-145v-174h145q91 0 97 -95q-6 -99 -95 -99h-147v-168h147q89 -2 89 -180q0 -204 -245 -204q-241 0 -241 248 v913h-175v-913z" />
<glyph unicode="&#x10c2;" horiz-adv-x="945" d="M82 -15v-180q175 23 393 195q216 -172 385 -195v173q-165 20 -225 55q230 126 230 453v514q0 460 -394 457q-392 3 -389 -457v-514q0 -326 228 -449q-55 -38 -228 -52zM255 486v514q0 296 216 296q220 0 220 -296v-514q0 -326 -216 -326q-220 0 -220 326z" />
<glyph unicode="&#x10c3;" horiz-adv-x="945" d="M80 1117h175v179h436q-62 -372 -222 -372h-144v-171h144q222 -2 222 -345q0 -248 -216 -248q-220 0 -220 219v107h-173v-98q0 -194 96.5 -291t290.5 -99q396 3 396 410q0 406 -219 438q219 156 219 613h-785v-342z" />
<glyph unicode="&#x10c4;" horiz-adv-x="945" d="M80 408q0 -204 98 -306t293 -104q394 3 394 410q0 275 -245 364q245 97 245 396v291q-155 -164 -394 -161q-216 0 -216 161h-175q0 -318 391 -327q82 0 222 37q-3 -257 -222 -315h-146v-169h165q201 -36 201 -277q0 -248 -220 -248q-216 0 -216 248v24h-175v-24z" />
<glyph unicode="&#x10c5;" horiz-adv-x="1060" d="M80 338q0 -337 395 -340q196 2 293 86.5t97 253.5v92h115v166l-115 -2v260h115v167h-115v119q0 319 -390 319q-395 0 -395 -319q0 -338 204 -426q-204 -90 -204 -376zM255 338q0 287 214 293h222v-293q0 -178 -216 -178q-220 0 -220 178zM255 1140q0 156 220 156 q216 0 216 -156v-338h-222q-214 0 -214 338z" />
<glyph unicode="&#x10c6;" horiz-adv-x="1558" d="M80 995q3 -468 410 -468v167q-234 9 -234 301q0 301 219 301q216 0 216 -306v-652q0 -178 -216 -178v-160q392 0 392 338v269q105 -80 211 -80q398 0 398 459q0 473 -392 473q-216 0 -314 -138q-78 138 -295 138q-392 0 -395 -464zM867 990q0 306 217 306q218 0 218 -306 q0 -288 -218 -288q-217 0 -217 288z" />
<glyph unicode="&#x10d0;" horiz-adv-x="896" d="M58 436q16 -208 114 -317t277 -119q364 26 390 465q-33 268 -302 385q-88 38 -109 162h-170q45 -243 269 -310q123 -90 143 -237q-20 -288 -217 -305q-200 17 -217 276l26 126l-163 39z" />
<glyph unicode="&#x10d1;" horiz-adv-x="896" d="M58 494q17 -468 399 -494q362 28 382 494q-29 408 -279 490v145q-44 204 -161 227q-119 25 -119 105h-171q0 -156 132 -179q134 -22 149 -159v-139q-306 -62 -332 -490zM232 494q17 324 227 360q201 -36 213 -360q-6 -106 -32 -178.5t-72 -111.5t-111 -44 q-205 17 -225 334z" />
<glyph unicode="&#x10d2;" horiz-adv-x="991" d="M58 41q20 -418 440 -438q407 20 436 438q-39 359 -286 414q129 95 138 253q0 265 -323 282q-159 -9 -242 -73t-89 -184l30 -141l152 43l-15 83q3 106 164 108q157 -8 152 -118q-15 -151 -142 -229q-387 -62 -415 -438zM234 41q17 261 268 293q256 -33 265 -293 q-29 -263 -271 -280q-242 14 -262 280z" />
<glyph unicode="&#x10d3;" horiz-adv-x="1478" d="M68 510q6 -298 284 -560l-10 -28q-108 -8 -179 -70l80 -123q120 106 292 94q296 -14 428 -214h177q-96 281 -596 365q-296 235 -299 536q26 285 199 311q195 -14 187 -325q0 -416 386 -477q371 38 394 486q-15 451 -394 479q-213 0 -299 -182q-86 182 -280 182 q-341 -38 -370 -474zM806 496q0 311 211 325q225 -20 225 -307q-17 -313 -225 -335q-211 28 -211 317z" />
<glyph unicode="&#x10d4;" horiz-adv-x="921" d="M58 -22q26 -350 395 -375q366 26 392 386v587q-6 400 -368 408q-368 -28 -373 -358q14 -265 267 -312v170q-90 23 -98 147q3 179 204 188q190 3 193 -243v-598q-20 -199 -217 -219q-202 14 -219 219l28 117l-165 45z" />
<glyph unicode="&#x10d5;" horiz-adv-x="915" d="M58 -45q36 -330 391 -350q364 25 390 389v47q-6 209 -189 265q165 89 185 297q-14 370 -368 387q-350 -17 -370 -377l66 -154l145 57l-37 97q25 211 196 213q181 9 192 -223q-41 -212 -173 -226h-96v-132h96q155 -33 184 -202v-51q-20 -211 -221 -231q-192 26 -217 194 l19 115l-164 49z" />
<glyph unicode="&#x10d6;" horiz-adv-x="941" d="M58 1175q8 -247 189 -311q-126 -77 -152 -380q23 -464 393 -484q370 20 396 484q-26 420 -288 454q88 77 102 241q-23 266 -327 280q-293 -20 -313 -284zM216 1130q17 167 155 175q147 -8 164 -175q-9 -159 -144 -206q-134 18 -175 206zM267 484q20 304 219 318 q204 -14 218 -318q-20 -304 -216 -324q-201 20 -221 324z" />
<glyph unicode="&#x10d7;" horiz-adv-x="1483" d="M68 494q26 -456 389 -494q359 38 397 475q0 335 199 344q192 -17 189 -344q-26 -217 -201 -315v-160q347 97 375 475q-8 476 -363 509q-215 -11 -288 -202q-76 185 -306 202q-355 -38 -391 -490zM241 494q20 311 218 325q220 -39 220 -344q-17 -301 -222 -315 q-198 8 -216 334z" />
<glyph unicode="&#x10d8;" horiz-adv-x="902" d="M58 494q17 -381 261 -513l39 110q-117 161 -122 403q14 310 217 325q200 -12 217 -325q-3 -239 -126 -403l41 -110q234 131 260 513q-20 452 -392 490q-375 -38 -395 -490z" />
<glyph unicode="&#x10d9;" horiz-adv-x="917" d="M58 -19q20 -370 389 -378q361 20 394 378v38q-33 247 -234 312q214 86 234 291q-29 346 -538 343v-163q349 3 369 -180q-26 -203 -225 -223h-98v-161h98q185 0 218 -219v-38q-11 -212 -218 -220q-201 8 -215 220l9 69l-165 10z" />
<glyph unicode="&#x10da;" horiz-adv-x="1986" d="M68 510q39 -406 407 -538v-9q-97 -28 -163 -91l102 -127q121 157 374 121q495 -67 515 -257h166q-20 351 -615 395q-553 38 -609 506q17 279 195 301q201 0 210 -219l9 -234h137l10 234q8 226 186 229q182 -3 191 -229l9 -234h139l9 234q9 216 205 219q198 -14 198 -288 q6 -190 -178 -307v-158q339 124 353 465q-23 432 -373 452q-193 -9 -279 -154q-93 155 -274 163q-178 -17 -257 -163q-97 145 -295 154q-346 -20 -372 -465z" />
<glyph unicode="&#x10db;" horiz-adv-x="921" d="M58 494q29 -468 391 -494q390 26 396 494v590q-15 364 -392 375q-116 -3 -194 -41.5t-118.5 -112t-43.5 -182.5h176q0 173 180 173q217 0 217 -212v-199q-78 99 -217 99q-378 -17 -395 -490zM232 496q20 311 221 323q208 -9 217 -325q0 -320 -217 -334q-195 17 -221 336z " />
<glyph unicode="&#x10dc;" horiz-adv-x="919" d="M78 494q20 -474 391 -494q367 28 393 494q-20 476 -393 490q-134 0 -216 -120v278q8 147 120 156h407v161h-407q-275 -14 -295 -317v-648zM253 494q14 308 208 325q212 -11 226 -325q-20 -317 -218 -334q-202 17 -216 334z" />
<glyph unicode="&#x10dd;" horiz-adv-x="1454" d="M68 500q29 -373 411 -510v160q-208 126 -234 350q14 306 189 317q207 -26 216 -241l9 -238h139l8 238q8 215 215 241q177 -11 191 -317q-20 -237 -237 -350v-160q383 126 412 510q-26 462 -366 482q-207 0 -293 -182q-87 182 -294 182q-168 -13 -259.5 -133t-106.5 -349z " />
<glyph unicode="&#x10de;" horiz-adv-x="902" d="M58 390q29 -361 391 -390q370 26 396 465q-18 264 -216 337q177 113 177 268q0 254 -286 292q-284 39 -290 97h-172q0 -164 286 -196q286 -29 289 -191q-3 -159 -166 -179h-115v-165h97q201 -44 221 -263q-9 -145 -64.5 -221.5t-156.5 -83.5q-196 14 -213 231v95h-178 v-96z" />
<glyph unicode="&#x10df;" horiz-adv-x="1101" d="M58 471q26 -301 312 -315q300 25 311 325q-3 166 -85 295l256 70v-861q-26 -210 -237 -224q-199 8 -216 224h-169q28 -360 388 -380q194 14 296 109t109 269v1027l-635 -125v-103q133 -122 124 -301q0 -171 -144 -171q-133 11 -136 161v125l-174 39v-164z" />
<glyph unicode="&#x10e0;" horiz-adv-x="1474" d="M68 533q17 -437 420 -543v160q-243 103 -243 383q17 274 199 286q207 -20 215 -260l11 -225h136l9 225q12 240 216 260q186 -17 200 -286q0 -286 -247 -383v-160q403 106 423 543q-13 211 -107.5 324.5t-268.5 126.5q-208 -3 -294 -182q-86 179 -291 182l-119 -50 q196 276 784 418l-58 146q-303 -75 -502.5 -179t-294.5 -235q-185 -260 -188 -551z" />
<glyph unicode="&#x10e1;" horiz-adv-x="917" d="M78 484q20 -464 393 -484q360 20 389 484q0 142 -136 269q-136 131 -2 218l-124 68q-179 -170 -47 -290.5t132 -264.5q-7 -152 -60.5 -234t-151.5 -90q-197 14 -222 324v975h-171v-975z" />
<glyph unicode="&#x10e2;" horiz-adv-x="1186" d="M58 292q4 -324 139.5 -499t401.5 -201q530 52 530 694q-18 587 -448 652v321h-165v-318q-216 -33 -330.5 -196t-127.5 -453zM236 292q2 365 280 496v-459h165v453q277 -108 277 -490q0 -466 -362 -545q-179 40 -269 175.5t-91 369.5z" />
<glyph unicode="&#x10e3;" horiz-adv-x="995" d="M39 826h47q73 -6 121 -28.5t72 -61t24 -94.5l9 -191h143l10 191q0 164 146 184q138 -20 140 -221v-627q-14 -199 -218 -219q-210 14 -221 219l26 226l-165 28l-27 -254q26 -357 387 -377q357 33 386 377v627q-6 355 -308 381q-156 -20 -230 -178q-52 158 -299 178h-43 v-160z" />
<glyph unicode="&#x10e4;" horiz-adv-x="1522" d="M68 490q33 -448 395 -477q362 29 391 477q0 334 216 336q196 3 196 -260q0 -206 -139 -256h-108v-143h108q137 -33 139 -193v-28q-14 -177 -310 -191q-265 14 -284 126h-174q25 -259 458 -282q461 29 490 347v32q-20 197 -189 263q181 116 189 325q-26 401 -376 424 q-215 0 -305 -202q-85 202 -302 202q-359 -29 -395 -500zM245 490q23 311 218 336q216 -19 216 -336q-10 -161 -64.5 -240t-151.5 -75q-195 -6 -218 315z" />
<glyph unicode="&#x10e5;" horiz-adv-x="921" d="M58 -22q26 -349 391 -375q360 26 396 375v1481h-175v-595q-76 112 -217 120q-336 -28 -356 -353q17 -283 274 -321v159q-90 39 -98 162q11 179 180 188q197 -12 217 -305v-536q-17 -205 -221 -219q-199 14 -213 219l17 104l-166 17z" />
<glyph unicode="&#x10e6;" horiz-adv-x="1456" d="M68 486q39 -399 323 -564l-29 -17q-87 -33 -130 -82l95 -126q64 81 124 101q60 16 203 -4q144 -36 211 -85.5t56 -109.5h167q-2 145 -109 228t-322 108q-369 114 -416 551q3 293 197 335q203 -15 212 -229l9 -238h139l8 238q8 220 202 229q204 -29 204 -268 q3 -258 -198 -364v-160q376 156 373 524q-23 411 -383 431q-191 0 -274 -192q-90 192 -292 192q-337 -28 -370 -498z" />
<glyph unicode="&#x10e7;" horiz-adv-x="921" d="M58 -22q29 -357 391 -377q370 20 396 373v973h-175v-490q-39 -177 -221 -202q-197 17 -217 298q20 242 198 362l-122 71q-118 -74 -180.5 -182.5t-69.5 -250.5q50 -428 391 -456q166 14 221 121v-240q0 -198 -221 -221q-215 38 -215 221h-176z" />
<glyph unicode="&#x10e8;" horiz-adv-x="949" d="M39 1298h52q179 -20 187 -169v-80h127v80q8 149 150 169q136 -3 141 -230v-233q-38 109 -215 121q-365 -33 -394 -462q33 -455 394 -494q383 9 391 494v574q0 383 -300 391q-154 0 -232 -200q-78 200 -239 200h-62v-161zM260 494q26 276 221 298q214 -22 223 -298 q0 -173 -55.5 -256t-167.5 -78q-195 23 -221 334z" />
<glyph unicode="&#x10e9;" horiz-adv-x="917" d="M78 0h175v496q0 256 220 282q212 -49 212 -264q-9 -309 -185 -514l172 -19q179 218 188 533q-14 276 -253 401q88 56 105 254q-17 270 -339 290q-281 -8 -295 -336v-1123zM253 811v300q0 178 120 187q177 -9 186 -147q-9 -145 -71 -204q-203 -50 -235 -136z" />
<glyph unicode="&#x10ea;" horiz-adv-x="1056" d="M58 117q42 -252 160 -384t309 -141q399 14 471 398q-14 248 -257 329q243 79 257 288q-36 153 -157 197q-120 47 -111 180h-173q-12 -175 117 -225q131 -50 159 -156q3 -165 -191 -220h-137v-128h145q195 -67 178 -266q-49 -239 -303 -242q-219 15 -291 370v299 q50 406 98 568h-178q-46 -191 -72 -399q-24 -212 -24 -227v-241z" />
<glyph unicode="&#x10eb;" horiz-adv-x="921" d="M58 479q28 -459 391 -479q357 33 396 486v973h-175v-583q-64 108 -221 108q-363 -38 -391 -505zM232 479q20 316 214 342q224 -20 224 -335q-13 -152 -68 -233.5t-153 -92.5q-197 22 -217 319z" />
<glyph unicode="&#x10ec;" horiz-adv-x="949" d="M78 494q26 -466 371 -494q378 20 411 494q-29 429 -391 462q-165 -20 -216 -131v243q3 230 142 230q141 -20 149 -162v-68h130v70q2 127 184 160h52v161h-62q-178 -28 -250 -200q-68 192 -219 200q-301 -38 -301 -391v-574zM245 494q9 276 224 298q198 -23 218 -298 q-13 -165 -72 -248.5t-166 -85.5q-184 8 -204 334z" />
<glyph unicode="&#x10ed;" horiz-adv-x="902" d="M58 -19q33 -358 395 -378q366 33 386 378q-23 166 -124.5 227t-124.5 175v72q77 52 77 132h178v152h-173q-3 79 -80 126v594h-158v-514l-72 9q-277 -39 -302 -295q13 -132 86 -205t205 -84l83 18q20 -143 112 -197q93 -52 126 -210q-10 -103 -65.5 -159t-153.5 -63 q-193 14 -219 219l19 82l-166 10zM224 661q12 130 162 145q139 -9 151 -145q-12 -145 -160 -151q-141 0 -153 151z" />
<glyph unicode="&#x10ee;" horiz-adv-x="919" d="M78 494q20 -474 389 -494q372 20 395 494q-23 470 -395 490q-116 0 -218 -139v614h-171v-965zM249 494q0 292 218 325q199 -23 216 -325q-14 -317 -216 -334q-204 17 -218 334z" />
<glyph unicode="&#x10ef;" horiz-adv-x="906" d="M58 -19q26 -358 389 -378q353 17 398 378q-21 198 -158 288q-136 89 -136 206v108l297 -145v167l-297 138v423h-165v-351l-308 121v-169l308 -113v-179q28 -201 160 -268.5t124 -225.5q-20 -202 -223 -222q-193 14 -213 222l19 89h-175z" />
<glyph unicode="&#x10f0;" horiz-adv-x="921" d="M58 391q26 -365 397 -391q361 20 390 338q0 128 -149 228q149 64 149 183q0 127 -145 189q145 56 145 185q0 198 -221 221q-217 26 -217 115h-175q0 -189 217 -221q221 -33 221 -111q0 -113 -96 -125h-175v-142h167q104 -15 104 -109q0 -97 -104 -115h-167v-140h167 q103 -36 106 -165q-20 -148 -223 -171q-200 14 -217 231v95h-174v-95z" />
<glyph unicode="&#x10f1;" horiz-adv-x="991" d="M58 47q33 -435 403 -446q427 3 460 282q14 188 -178 267q175 45 178 182q-6 173 -186 217q180 39 186 214q0 64 -19 111q-14 45 -157 84q170 44 176 227q-6 93 -149 146q-139 56 -139 128h-166q3 -162 138 -195q138 -33 146 -79q0 -135 -97 -144h-119v-174h119 q89 -11 97 -104q-8 -117 -95 -128h-121v-168h121q87 -17 95 -135q-8 -87 -97 -108h-119v-172h119q97 -8 97 -169q-17 -121 -290 -124q-198 0 -223 288q0 273 42 533q45 271 -42 513h-175q96 -241 46 -513q-48 -277 -51 -533z" />
<glyph unicode="&#x10f2;" horiz-adv-x="902" d="M58 488q0 -150 56.5 -265t169.5 -195q-52 -76 -187 -84v-197q212 68 356 247q139 -180 353 -247v197q-138 9 -193 84q232 161 232 460q-15 476 -392 496q-185 -10 -283.5 -134t-111.5 -362zM236 488q0 331 217 331t217 -331q0 -150 -54.5 -244.5t-162.5 -132.5 q-217 75 -217 377z" />
<glyph unicode="&#x10f3;" horiz-adv-x="902" d="M58 -19q0 -333 389 -380q383 29 398 380v30q-39 258 -275 372q266 156 275 601h-748v-328h172v163h369q20 -266 -230 -377h-107v-150h107q223 -20 262 -281v-30q0 -222 -216.5 -222t-219.5 222l19 85l-166 20z" />
<glyph unicode="&#x10f4;" horiz-adv-x="902" d="M58 -19q0 -175 99.5 -270t295.5 -108q392 26 392 378v52q0 221 -249 299q234 138 249 479v249q-209 -160 -392 -158q-217 39 -223 170q6 166 225 222v165q-377 -84 -397 -387q0 -262 397 -323q111 -15 212 27q3 -320 -220 -364h-146v-167h146q223 -33 223 -212v-52 q0 -220 -216.5 -220t-219.5 220h-176z" />
<glyph unicode="&#x10f5;" horiz-adv-x="1013" d="M58 315q0 -314 391 -317q396 3 396 317v171h111v168h-111v152h111v167h-111v175q0 311 -392 311q-395 0 -395 -311q0 -334 388 -342h224v-152h-224q-388 -3 -388 -339zM236 321q0 165 210 165h224v-155q0 -171 -217 -171t-217 161zM236 1146q0 150 217 150t217 -148v-175 h-224q-210 0 -210 173z" />
<glyph unicode="&#x10f6;" horiz-adv-x="1513" d="M58 504q20 -407 411 -475v168q-216 58 -233 307q17 292 217 315q217 0 217 -315v-545q0 -200 -217 -200v-156q392 0 392 358v150q71 -91 215 -111q373 23 395 504q-22 463 -395 480q-215 0 -309 -165q-80 165 -298 165q-375 -20 -395 -480zM845 504q20 292 211 321 q200 -23 220 -321q-20 -327 -216 -344q-207 52 -215 344z" />
<glyph unicode="&#x10f7;" horiz-adv-x="1049" d="M58 0q36 -361 469 -399q432 50 465 399q-3 163 -70 265l-144 -86q66 -66 57 -179q-17 -203 -308 -241q-270 33 -295 249q8 257 307 339q301 81 309 332q-32 295 -321 323q-292 0 -330 -294l9 -62l160 29l-10 43q33 121 171 121q136 0 150 -160q-8 -143 -313 -237 q-303 -94 -306 -442z" />
<glyph unicode="&#x10f8;" horiz-adv-x="904" d="M58 -26q23 -345 395 -371q350 38 393 375h-172q-15 -199 -221 -219q-187 14 -223 219v195q81 -84 221 -84h2q368 26 393 448q-25 260 -231 463l-162 -59q201 -157 221 -404q-12 -272 -221 -286q-203 20 -223 179v531h-172v-987z" />
<glyph unicode="&#x10f9;" horiz-adv-x="993" d="M58 585q3 -311 350 -392q-222 -79 -225 -297q17 -254 322 -295q325 17 351 267v72h-167v-72q-42 -110 -184 -102q-129 9 -149 141q0 151 277 258q277 108 303 420q-42 381 -434 419q-394 -33 -444 -419zM230 585q33 240 272 254q230 -14 263 -254q-20 -231 -263 -275 q-250 35 -272 275z" />
<glyph unicode="&#x10fa;" horiz-adv-x="896" d="M58 572q0 -310 213 -444q-108 -23 -141 -72l-31 -46l122 -70q45 100 186 108q98 -14 150 -65q52 -50 48 -53l106 87q-90 100 -284 178q-177 73 -186 379q0 118 59 181.5t157 63.5q100 0 155 -57.5t55 -163.5q0 -136 -10 -168l137 -57q45 39 45 223q-3 203 -115 295 q-113 93 -267 93q-188 0 -294 -128q-105 -125 -105 -284z" />
<glyph unicode="&#x10fb;" horiz-adv-x="709" d="M58 0h174v163h-174v-163zM58 769h174v165h-174v-165zM477 391h175v164h-175v-164z" />
<glyph unicode="&#x10fc;" horiz-adv-x="474" d="M19 977q0 -269 197 -269q96 0 145 67t55 202q-7 74 -31 129t-65.5 88t-98.5 39l-116 -83v157q0 76 66 76l243 -2v78h-221q-174 0 -174 -171v-311zM105 971q3 160 107 175q111 -3 117 -169q0 -195 -113 -195q-111 0 -111 189z" />
<glyph unicode="&#x2000;" horiz-adv-x="903" />
<glyph unicode="&#x2001;" horiz-adv-x="1806" />
<glyph unicode="&#x2002;" horiz-adv-x="903" />
<glyph unicode="&#x2003;" horiz-adv-x="1806" />
<glyph unicode="&#x2004;" horiz-adv-x="602" />
<glyph unicode="&#x2005;" horiz-adv-x="451" />
<glyph unicode="&#x2006;" horiz-adv-x="301" />
<glyph unicode="&#x2007;" horiz-adv-x="301" />
<glyph unicode="&#x2008;" horiz-adv-x="225" />
<glyph unicode="&#x2009;" horiz-adv-x="361" />
<glyph unicode="&#x200a;" horiz-adv-x="100" />
<glyph unicode="&#x2010;" horiz-adv-x="702" d="M95 455h512v156h-512v-156z" />
<glyph unicode="&#x2011;" horiz-adv-x="702" d="M95 455h512v156h-512v-156z" />
<glyph unicode="&#x2012;" horiz-adv-x="702" d="M95 455h512v156h-512v-156z" />
<glyph unicode="&#x2013;" d="M0 465h973v136h-973v-136z" />
<glyph unicode="&#x2014;" horiz-adv-x="1945" d="M0 465h1946v136h-1946v-136z" />
<glyph unicode="&#x2018;" horiz-adv-x="618" d="M165 951h201v164l78 303h-123l-156 -303v-164z" />
<glyph unicode="&#x2019;" horiz-adv-x="618" d="M169 971h123l155 303v144h-200v-144z" />
<glyph unicode="&#x201a;" horiz-adv-x="618" d="M165 -226h123l156 304v163h-201v-163z" />
<glyph unicode="&#x201c;" horiz-adv-x="1007" d="M165 951h201v164l78 303h-123l-156 -303v-164zM555 951h200v164l78 303h-122l-156 -303v-164z" />
<glyph unicode="&#x201d;" horiz-adv-x="1007" d="M165 951h123l156 304v163h-201v-163zM555 951h122l156 304v163h-200v-163z" />
<glyph unicode="&#x201e;" horiz-adv-x="1007" d="M165 -226h123l156 304v163h-201v-163zM555 -226h122l156 304v163h-200v-163z" />
<glyph unicode="&#x2020;" d="M54 874h349v-1061h167v1061h349v145h-349v399h-167v-399h-349v-145z" />
<glyph unicode="&#x2021;" d="M54 212h349v-399h167v399h349v146h-349v516h349v145h-349v399h-167v-399h-349v-145h349v-516h-349v-146z" />
<glyph unicode="&#x2022;" horiz-adv-x="1147" d="M292 724q0 -119 81.5 -200.5t200.5 -81.5t200.5 81.5t81.5 200.5q0 120 -82 198q-81 82 -198 82q-121 0 -203 -82q-81 -78 -81 -198z" />
<glyph unicode="&#x2026;" horiz-adv-x="1945" d="M224 0h203v241h-203v-241zM872 0h202v241h-202v-241zM1519 0h202v241h-202v-241z" />
<glyph unicode="&#x202f;" horiz-adv-x="361" />
<glyph unicode="&#x2030;" horiz-adv-x="2610" d="M107 1058q0 -179 88 -282.5t239 -103.5q152 0 240.5 103.5t88.5 282.5q0 177 -89 281.5t-240 104.5q-150 0 -238.5 -104.5t-88.5 -281.5zM258 1058q0 123 47 194t129 71t129.5 -71t47.5 -194q0 -126 -46.5 -196t-130.5 -70q-82 0 -129 70t-47 196zM405 -28h152l887 1472 h-152zM1086 358q0 -177 88.5 -281.5t240.5 -104.5q150 0 238 104.5t88 281.5q0 88 -23 160t-65 122t-103 77.5t-135 27.5q-152 0 -240.5 -104t-88.5 -283zM1238 358q0 84 21.5 144t61 91t94.5 31q81 0 127.5 -71t46.5 -195q0 -123 -46.5 -194t-127.5 -71q-82 0 -129.5 71.5 t-47.5 193.5zM1849 358q0 -177 88.5 -281.5t239.5 -104.5t239 104.5t88 281.5t-88 282t-239 105q-99 0 -173.5 -46.5t-114.5 -134t-40 -206.5zM2000 358q0 84 21.5 144t61.5 91t94 31q82 0 128.5 -71t46.5 -195q0 -123 -46.5 -194t-128.5 -71q-54 0 -94 32t-61.5 92 t-21.5 141z" />
<glyph unicode="&#x2039;" horiz-adv-x="778" d="M150 531l446 -397v181l-286 255l286 255v181l-446 -397v-78z" />
<glyph unicode="&#x203a;" horiz-adv-x="778" d="M183 134l446 397v78l-446 397v-181l286 -255l-286 -255v-181z" />
<glyph unicode="&#x205f;" horiz-adv-x="451" />
<glyph unicode="&#x20ac;" horiz-adv-x="1236" d="M0 494h200q40 -247 186 -384.5t371 -137.5q179 0 352 137v201q-88 -100 -167.5 -143t-176.5 -43q-150 0 -245.5 96t-126.5 274h356l53 117h-425q-2 31 -2 97q0 68 2 100h512l52 116h-548q31 178 126.5 273t245.5 95q65 0 121 -19t110 -59t113 -107v202q-165 135 -352 135 q-148 0 -264.5 -61.5t-191.5 -178.5t-101 -280h-148l-52 -116h185q0 -13 -1 -44.5t-1 -55.5q0 -22 1 -53t1 -44h-133z" />
<glyph unicode="&#x2122;" horiz-adv-x="1945" d="M280 1329h191v-460h109v460h192v89h-492v-89zM880 869h108v460l193 -288h52l185 288v-460h108v549h-162l-156 -243l-165 243h-163v-549z" />
<glyph unicode="&#x2202;" horiz-adv-x="1005" d="M99 336q0 -157 96 -258.5t241 -101.5q201 0 338 211q139 213 139 527q0 253 -102 397q-102 148 -272 148q-97 0 -166 -47q-67 -47 -67 -105q0 -30 23 -50.5t57 -20.5q37 0 102 54q68 56 121 56q138 0 138 -247q0 -124 -29 -309q-17 47 -41.5 80.5t-56.5 55.5t-71 32.5 t-86 10.5q-153 0 -259 -123q-105 -120 -105 -310zM276 256q0 200 66 320q67 122 172 122q50 0 85.5 -26t54 -77.5t18.5 -125.5q0 -189 -69 -317q-67 -123 -169 -123q-76 0 -117 58.5t-41 168.5z" />
<glyph unicode="&#x2206;" horiz-adv-x="1301" d="M-6 0h1313l-550 1399h-213zM253 169l397 1030l397 -1030h-794z" />
<glyph unicode="&#x220f;" horiz-adv-x="1472" d="M148 -373h227v1578h720v-1578h228v1772h-1175v-1772z" />
<glyph unicode="&#x2211;" horiz-adv-x="1311" d="M24 -232v-141h1248v182h-957l660 726l-639 681h911v183h-1195v-168l660 -702z" />
<glyph unicode="&#x2212;" horiz-adv-x="1630" d="M206 529h1218v162h-1218v-162z" />
<glyph unicode="&#x2215;" horiz-adv-x="324" d="M-356 -28h152l885 1472h-152z" />
<glyph unicode="&#x2219;" horiz-adv-x="618" d="M208 555h200v241h-200v-241z" />
<glyph unicode="&#x221a;" horiz-adv-x="1238" d="M58 833l24 -76l118 43l304 -839h62l564 1526h110v91h-180l-490 -1325l-243 673z" />
<glyph unicode="&#x221e;" horiz-adv-x="1619" d="M210 580q0 -156 87 -265q90 -105 219 -105q90 0 165 60.5t140 188.5q73 -132 144.5 -188.5t161.5 -56.5q128 0 207 101t79 268q0 158 -90 265q-89 108 -216 108q-93 0 -168 -63t-139 -193q-46 87 -93.5 142t-99.5 82t-111 27q-128 0 -207 -103t-79 -268zM282 574 q0 49 16 91.5t44 72t69 46t89 16.5q159 0 253 -167q-45 -102 -88.5 -163.5t-88.5 -90t-97 -28.5q-84 0 -140.5 64t-56.5 159zM869 531q70 152 133.5 217t141.5 65q84 0 140 -63t56 -160q0 -99 -61 -163.5t-156 -64.5q-158 0 -254 169z" />
<glyph unicode="&#x222b;" horiz-adv-x="1013" d="M45 -212q0 -62 47.5 -101t123.5 -39q186 0 276 196q91 199 106 652q7 272 7 288q14 588 115 588q16 0 19 -35q3 -29 10 -47q24 -70 105 -70q53 0 83 30t30 81q0 63 -47.5 102t-123.5 39q-193 0 -282 -211q-90 -211 -102 -699q-1 -20 -2 -75t-2 -82q-11 -654 -113 -654 q-17 0 -22 41q-3 35 -15 54q-32 55 -91 55q-58 0 -90 -30t-32 -83z" />
<glyph unicode="&#x2248;" horiz-adv-x="1630" d="M206 258q93 80 174.5 116t165.5 36q92 0 236 -58q4 -1 9 -3t8 -3t5 -2q4 -2 15 -6q138 -56 243 -56q92 0 177.5 33t184.5 107v170q-97 -81 -177.5 -116.5t-162.5 -35.5q-91 0 -236 58q-5 2 -12.5 4t-9.5 3q-3 4 -15 7q-138 56 -243 56q-92 0 -177.5 -33t-184.5 -107v-170 zM206 629q62 53 119 86.5t111 49t110 15.5q92 0 236 -58q5 -2 12.5 -4.5t9.5 -3.5q9 -4 15 -6q138 -56 243 -56q62 0 119.5 14.5t117 45.5t125.5 80v169q-97 -80 -177.5 -116t-162.5 -36q-91 0 -236 58q-3 2 -8 4t-8.5 3t-5.5 2q-3 2 -15 6q-138 56 -243 56 q-92 0 -177.5 -33t-184.5 -107v-169z" />
<glyph unicode="&#x2260;" horiz-adv-x="1630" d="M206 334h284l-165 -200l119 -97l245 297h735v162h-603l185 228h418v160h-288l166 202l-119 97l-243 -299h-734v-160h602l-186 -228h-416v-162z" />
<glyph unicode="&#x2264;" horiz-adv-x="1630" d="M206 0h1218v162h-1218v-162zM206 622l1218 -349v169l-912 260l912 263v167l-1218 -348v-162z" />
<glyph unicode="&#x2265;" horiz-adv-x="1630" d="M206 0h1218v162h-1218v-162zM206 273l1218 349v162l-1218 348v-167l913 -263l-913 -260v-169z" />
<glyph unicode="&#x25ca;" horiz-adv-x="960" d="M6 562l475 -1015l475 1015l-475 1008zM115 562l366 777l365 -777l-365 -783z" />
<glyph unicode="&#x25fc;" horiz-adv-x="1060" d="M0 0v1060h1060v-1060h-1060z" />
<glyph unicode="&#xfb01;" horiz-adv-x="1225" d="M45 928h167v-928h176v928h479v-928h176v1064h-655v94q0 99 36.5 137t130.5 38h167v145h-176q-114 0 -188 -36.5t-110 -112t-36 -191.5v-74h-167v-136zM867 1255h176v221h-176v-221z" />
<glyph unicode="&#xfb02;" horiz-adv-x="1225" d="M45 928h167v-928h176v928h287v136h-287v94q0 99 36.5 137t130.5 38h312v-1333h176v1478h-486q-180 0 -262.5 -81.5t-82.5 -258.5v-74h-167v-136z" />
<glyph horiz-adv-x="0" />
<glyph horiz-adv-x="618" />
<glyph d="M204 1229h193v193h-193v-193zM576 1229h193v193h-193v-193z" />
<glyph d="M352 1199h146l216 251h-175z" />
<glyph d="M173 1229h119v6q0 28 8 48t24.5 31t39.5 11q21 0 64 -23l55 -32q47 -24 75 -32.5t62 -8.5q81 0 129.5 57t50.5 151h-119v-5q0 -40 -19 -64t-49 -24q-23 0 -69 24l-54 28q-43 25 -72 33t-66 8q-81 0 -130 -56.5t-49 -151.5z" />
<glyph d="M255 1450l218 -251h145l-186 251h-177z" />
<glyph d="M197 1199h132l157 169l158 -169h132l-200 253h-179z" />
<glyph d="M197 1452l200 -253h179l200 253h-132l-158 -170l-157 170h-132z" />
<glyph horiz-adv-x="779" d="M60 811h393v-176h137v176h128v104h-128v513h-158l-372 -502v-115zM160 915l293 398v-398h-293z" />
<glyph d="M189 1452q10 -115 85.5 -172.5t211.5 -57.5t212 58.5t86 171.5h-112q-33 -106 -186 -106q-161 0 -185 106h-112z" />
<glyph d="M390 1229h193v195h-193v-195z" />
</font>
</defs>
</svg>
