<?xml version="1.0" standalone="no"?>
<!DOCTYPE svg PUBLIC "-//W3C//DTD SVG 1.1//EN" "http://www.w3.org/Graphics/SVG/1.1/DTD/svg11.dtd" >
<svg xmlns="http://www.w3.org/2000/svg" xmlns:xlink="http://www.w3.org/1999/xlink" version="1.1">
<metadata></metadata>
<defs>
<font id="bpg_rioni_contrastregular" horiz-adv-x="1138" >
<font-face units-per-em="2048" ascent="1638" descent="-410" />
<missing-glyph horiz-adv-x="567" />
<glyph unicode=" "  horiz-adv-x="567" />
<glyph unicode="&#x09;" horiz-adv-x="567" />
<glyph unicode="&#xa0;" horiz-adv-x="567" />
<glyph unicode="!" horiz-adv-x="567" d="M176 1141l53 -779h119l51 779v325h-223v-325zM184 0h207v205h-207v-205z" />
<glyph unicode="&#x22;" horiz-adv-x="727" d="M94 1227l49 -281h111l45 281v239h-205v-239zM424 1227l51 -281h109l45 281v239h-205v-239z" />
<glyph unicode="#" d="M20 401h168l-86 -428h152l86 428h313l-86 -428h150l86 428h311v150h-280l75 362h205v150h-174l86 426h-152l-86 -426h-315l88 426h-149l-86 -426h-306v-150h275l-76 -362h-199v-150zM371 551l71 362h316l-74 -362h-313z" />
<glyph unicode="$" d="M74 408q7 -135 66.5 -233.5t148.5 -143.5q84 -44 221 -62v-180h106v182q188 9 306 133q120 126 120 314q0 128 -62.5 225.5t-182.5 147.5q-51 20 -181 53v518q88 -19 137 -75.5t68 -160.5l185 29q-21 168 -142 268q-93 78 -248 93v83h-106v-83q-180 -18 -270 -99 q-136 -121 -136 -311q0 -109 47 -194t134 -132q115 -65 225 -86v-573q-106 12 -182 106q-53 72 -74 213zM285 1118q0 96 60.5 164.5t164.5 81.5v-496q-120 34 -172.5 95t-52.5 155zM616 121v547q144 -47 193 -107q49 -58 49 -158q0 -114 -68 -192t-174 -90z" />
<glyph unicode="%" horiz-adv-x="1820" d="M117 1114q0 -194 86.5 -295.5t226.5 -101.5q139 0 227 102t88 285q0 184 -88 284.5t-229 100.5q-152 0 -231 -111q-80 -109 -80 -264zM276 1096q0 270 156 270t156 -256q0 -270 -156 -270q-71 0 -113.5 61.5t-42.5 194.5zM432 -53h150l798 1542h-147zM1067 342 q0 -190 85 -292.5t224 -102.5q141 0 229.5 102t88.5 283q0 187 -88 288t-232 101q-148 0 -227 -111q-80 -109 -80 -268zM1223 326q0 270 157 270q73 0 115.5 -61t42.5 -195q0 -270 -158 -270q-72 0 -114.5 61.5t-42.5 194.5z" />
<glyph unicode="&#x26;" horiz-adv-x="1366" d="M86 403q0 -152 109 -276q133 -154 358 -154q237 0 420 201q116 -141 225 -207l121 144q-124 85 -229 221q81 123 131 317l-187 41q-29 -125 -71 -205l-265 336q279 150 279 357q0 131 -96 221t-246 90q-156 0 -260 -98q-105 -95 -105 -226q0 -71 36 -143t132 -180 q-352 -172 -352 -439zM281 414q0 81 54.5 154.5t194.5 156.5l330 -410q-51 -79 -138 -130.5t-169 -51.5q-129 0 -201 96q-71 95 -71 185zM459 1180q0 70 47.5 116.5t120.5 46.5q72 0 119 -48.5t47 -123.5q0 -61 -35 -114q-34 -52 -152 -121l-80 92q-67 84 -67 152z" />
<glyph unicode="'" horiz-adv-x="391" d="M90 1221l45 -275h111l49 275v245h-205v-245z" />
<glyph unicode="(" horiz-adv-x="679" d="M123 530q0 -270 102 -522q105 -251 254 -438h127q-297 476 -297 960q0 185 41 375q37 148 99 287q43 103 157 297h-127q-187 -248 -276 -502q-80 -219 -80 -457z" />
<glyph unicode=")" horiz-adv-x="679" d="M123 -430h131q150 192 250 438q102 252 102 522q0 241 -76 457q-89 254 -276 502h-131q112 -190 162 -299q58 -130 94 -287q43 -185 43 -373q0 -481 -299 -960z" />
<glyph unicode="*" horiz-adv-x="796" d="M63 1198q102 -31 246 -57q-55 -49 -166 -189l117 -84q55 69 131 215q81 -140 135 -215l121 84q-116 141 -172 189q131 16 250 57l-47 141q-157 -55 -236 -96q20 140 23 246h-146q3 -68 21 -248q-61 35 -229 98z" />
<glyph unicode="+" horiz-adv-x="1196" d="M115 639h397v-401h172v401h399v168h-399v399h-172v-399h-397v-168z" />
<glyph unicode="," horiz-adv-x="567" d="M168 -213l51 -76q87 37 127.5 106.5t40.5 182.5v205h-205v-205h103q-4 -92 -30.5 -139.5t-86.5 -73.5z" />
<glyph unicode="-" horiz-adv-x="679" d="M63 440h553v183h-553v-183z" />
<glyph unicode="." horiz-adv-x="567" d="M186 0h205v205h-205v-205z" />
<glyph unicode="/" horiz-adv-x="567" d="M0 -27h145l422 1516h-143z" />
<glyph unicode="0" d="M84 721q0 -411 145 -594q121 -154 334 -154q242 8 359 190t120 558q0 224 -34 348q-36 136 -90 217q-57 91 -147.5 139t-207.5 48q-244 -9 -361 -189.5t-118 -562.5zM268 721q0 364 94 498q76 104 199 104q127 0 209 -119q84 -122 84 -483q0 -357 -84 -479 q-82 -119 -207 -119q-126 0 -211 119q-84 122 -84 479z" />
<glyph unicode="1" d="M223 930q84 31 189 92q107 66 172 125v-1147h178v1473h-115q-50 -99 -163.5 -198.5t-260.5 -170.5v-174z" />
<glyph unicode="2" d="M61 0h971v174h-721q31 51 76 96q52 55 209 185q194 163 276 258q86 98 119 178q37 84 37 174q0 174 -123 291t-334 117q-210 0 -333.5 -110t-143.5 -316l187 -19q0 138 77.5 216.5t208.5 78.5q121 0 199 -73.5t78 -180.5q0 -101 -84 -217q-82 -113 -322 -309 q-155 -130 -236.5 -225.5t-119.5 -192.5q-24 -69 -21 -125z" />
<glyph unicode="3" d="M86 387q18 -181 145 -299q127 -115 322 -115q213 0 352 133q142 133 142 326q0 142 -72.5 236t-202.5 125q98 47 149.5 124.5t51.5 172.5q5 100 -50.5 189.5t-157 143.5t-220.5 50q-174 0 -291.5 -100.5t-149.5 -278.5l181 -35q20 131 88 197.5t174 66.5q107 0 174 -64.5 t67 -162.5q0 -125 -92 -187q-92 -59 -207 -59q-16 0 -28 2l-21 -158q76 21 127 21q127 0 207 -80.5t80 -204.5q0 -131 -88 -219q-85 -88 -213 -88q-229 0 -287 289z" />
<glyph unicode="4" d="M25 350h639v-350h178v350h196v166h-196v950h-148l-669 -950v-166zM203 516l461 662v-662h-461z" />
<glyph unicode="5" d="M84 383q18 -182 145 -297q125 -113 326 -113q243 0 387 181q115 145 115 342q0 211 -133 344t-322 133q-146 0 -276 -92l75 393h586v172h-729l-141 -752l170 -24q39 67 109 105t157 38q142 0 226.5 -89.5t84.5 -242.5q0 -159 -90 -260q-88 -98 -219 -98 q-110 0 -185.5 70.5t-95.5 205.5z" />
<glyph unicode="6" d="M76 686q0 -377 141 -547q144 -166 369 -166q193 -7 327 142t131 360q0 210 -126 342q-127 133 -306 133q-106 0 -200.5 -49.5t-155.5 -144.5q1 210 47.5 331.5t136.5 186.5q64 49 152 49q107 0 180 -76q48 -51 68 -153l178 12q-23 172 -133 269.5t-281 97.5 q-233 0 -371 -170q-157 -195 -157 -617zM285 475q0 139 82.5 227.5t207.5 88.5t205 -88t80 -238q0 -159 -82 -250q-83 -92 -194 -92q-79 -4 -149.5 44.5t-111.5 131.5t-38 176z" />
<glyph unicode="7" d="M96 1274h717q-136 -158 -258 -383q-124 -235 -186 -473q-65 -245 -68 -418h184q14 209 70 401q75 265 211 508q136 246 281 400v137h-951v-172z" />
<glyph unicode="8" d="M82 424q0 -189 133 -322q132 -129 350 -129q217 0 350 127q134 131 134 320q0 136 -70.5 233t-206.5 144q215 80 215 290q0 162 -117 273q-113 113 -307 113q-193 0 -307 -111q-115 -109 -115 -268q0 -215 219 -297q-133 -37 -205.5 -134.5t-72.5 -238.5zM268 422 q0 127 82 209q83 86 213 86q127 0 213 -86q88 -82 88 -213q0 -129 -84 -212t-213 -83q-126 -6 -215.5 87.5t-83.5 211.5zM326 1100q0 93 68 158t171 65q102 0 170 -67t68 -166q0 -95 -67.5 -161.5t-170.5 -66.5q-104 0 -171.5 67t-67.5 171z" />
<glyph unicode="9" d="M84 977q0 -217 127 -350q125 -131 309 -131q104 0 198 53t150 141q2 -16 2 -37q0 -110 -26.5 -219t-67.5 -172q-91 -139 -250 -139q-99 0 -158.5 56t-82.5 177l-172 -18q20 -172 129 -268.5t282 -96.5q531 20 525 789q0 272 -62 414q-61 143 -180 219q-122 78 -262 78 q-198 0 -330 -138q-131 -134 -131 -358zM268 971q0 153 90 254q88 98 209 98q116 0 199 -92q84 -90 84 -246q0 -151 -80 -240.5t-207 -89.5q-126 0 -211 88q-84 90 -84 228z" />
<glyph unicode=":" horiz-adv-x="567" d="M184 0h205v205h-205v-205zM184 858h205v205h-205v-205z" />
<glyph unicode=";" horiz-adv-x="567" d="M168 -213l51 -76q87 37 127.5 106.5t40.5 182.5v205h-205v-205h103q-4 -92 -30.5 -139.5t-86.5 -73.5zM182 858h205v205h-205v-205z" />
<glyph unicode="&#x3c;" horiz-adv-x="1196" d="M113 639l970 -414v178l-772 322l772 313v181l-970 -410v-170z" />
<glyph unicode="=" horiz-adv-x="1196" d="M115 418h968v168h-968v-168zM115 862h968v166h-968v-166z" />
<glyph unicode="&#x3e;" horiz-adv-x="1196" d="M113 225l970 414v170l-970 410v-181l768 -313l-768 -322v-178z" />
<glyph unicode="?" d="M90 1067l184 -20q24 149 99.5 222.5t193.5 73.5q120 0 201 -81q82 -79 82 -185q0 -55 -27 -104t-123 -133q-97 -85 -129 -125q-47 -55 -69 -117q-31 -79 -31 -184v-54h174q1 103 13.5 152.5t41.5 89.5q28 39 113 115q132 114 178 196q45 80 45 177q0 168 -129 282 q-126 117 -342 117q-204 0 -327 -109t-148 -313zM461 0h205v205h-205v-205z" />
<glyph unicode="@" horiz-adv-x="2078" d="M111 469q0 -217 84 -408q94 -229 345.5 -363t583.5 -128q438 0 705 233q123 105 176 215h-182q-94 -136 -274 -219.5t-431 -83.5q-242 0 -446 86q-197 82 -307 260q-107 177 -107 422q0 237 107 441q108 205 301 313q195 109 428 109q202 0 372 -89q171 -86 254 -231 q86 -145 86 -309q0 -143 -66.5 -278t-178.5 -216q-86 -59 -140 -59q-29 0 -49 19t-20 44q0 18 30 156l144 672h-180l-33 -154q-54 90 -133 136t-168 46q-122 0 -241 -82.5t-198 -236.5q-81 -156 -81 -320q0 -127 51.5 -235.5t136.5 -159.5q83 -51 174 -51q79 0 160 44 t147 122q6 -58 19 -88q45 -82 174 -82q215 0 397 203q205 224 205 518q0 201 -98 372q-111 200 -307.5 303t-450.5 103q-317 0 -542 -142.5t-349 -416.5q-98 -215 -98 -465zM676 434q0 89 32 192t85 173q104 135 231 135q100 0 166.5 -76.5t66.5 -208.5q0 -101 -37.5 -203 t-95.5 -170q-55 -63 -116 -97t-117 -34q-89 0 -152 79t-63 210z" />
<glyph unicode="A" horiz-adv-x="1366" d="M-2 0h205l159 442h615l170 -442h223l-602 1466h-207zM420 602l162 430q47 125 77 279q29 -100 103 -303l153 -406h-495z" />
<glyph unicode="B" horiz-adv-x="1366" d="M152 0h557q269 0 397 96q66 52 108.5 140.5t42.5 187.5q0 129 -71.5 222t-204.5 134q100 50 152.5 132t52.5 178q0 104 -59 195.5t-158 135.5q-99 45 -271 45h-546v-1466zM342 174v502h342h23q175 0 255 -58q84 -62 93 -194q0 -200 -213 -246q-54 -4 -133 -4h-367z M342 850v442h295q162 0 223 -20q64 -21 98 -76q37 -55 37 -129q0 -76 -38.5 -127.5t-112.5 -71.5q-52 -18 -185 -18h-317z" />
<glyph unicode="C" horiz-adv-x="1478" d="M102 745q0 -212 76 -395q76 -179 225 -280q154 -97 388 -97q229 0 387 127t219 365l-195 49q-36 -181 -149.5 -277t-276.5 -96h-14q-96 0 -180 38q-90 41 -153.5 118t-97.5 193q-30 103 -30 226v29q0 150 45 281q46 133 162 217q113 82 283 82q148 0 244.5 -74 t146.5 -233l190 47q-60 204 -209.5 314t-369.5 110h-11q-140 0 -263 -50q-128 -52 -222 -147q-95 -96 -147 -238q-49 -131 -48 -285v-24z" />
<glyph unicode="D" horiz-adv-x="1478" d="M158 0h528q206 5 330.5 56t214.5 173q139 195 139 510q0 403 -231 600q-91 78 -215 105q-93 22 -260 22h-506v-1466zM350 174v1118h309q173 0 252 -30q115 -45 186.5 -174t71.5 -343q0 -324 -145 -469q-51 -51 -135.5 -76.5t-222.5 -25.5h-316z" />
<glyph unicode="E" horiz-adv-x="1366" d="M162 0h1095v174h-901v496h811v174h-811v448h865v174h-1059v-1466z" />
<glyph unicode="F" horiz-adv-x="1251" d="M168 0h192v666h689v174h-689v452h797v174h-989v-1466z" />
<glyph unicode="G" horiz-adv-x="1591" d="M111 727q0 -222 90.5 -396.5t263.5 -264.5q181 -93 393 -93q320 0 606 232v543h-620v-173h430v-274q-61 -55 -182 -102t-244 -47q-154 0 -281 66t-192 192q-66 135 -66 327q0 160 58 297q51 127 169.5 209t307.5 82q110 0 201.5 -38.5t138.5 -104.5q50 -66 84 -174 l176 47q-39 150 -113 241.5t-201 141.5q-125 51 -288 51q-223 0 -390 -91.5t-253 -273.5q-88 -183 -88 -397z" />
<glyph unicode="H" horiz-adv-x="1478" d="M164 0h194v690h760v-690h195v1466h-195v-604h-760v604h-194v-1466z" />
<glyph unicode="I" horiz-adv-x="567" d="M193 0h190v1466h-190v-1466z" />
<glyph unicode="J" horiz-adv-x="1024" d="M59 414v-23q0 -198 97 -305q103 -113 297 -113q210 9 313 123q98 110 98 350v19v1001h-194v-1011q0 -124 -20.5 -181.5t-74.5 -93.5q-50 -33 -122 -33q-106 0 -160 65t-60 228z" />
<glyph unicode="K" horiz-adv-x="1366" d="M152 0h190v506l242 235l522 -741h256l-643 872l614 594h-260l-731 -727v727h-190v-1466z" />
<glyph unicode="L" d="M152 0h913v174h-723v1292h-190v-1466z" />
<glyph unicode="M" horiz-adv-x="1703" d="M152 0h186v1247l424 -1247h174l428 1227v-1227h186v1466h-260l-350 -1022q-59 -162 -80 -235q-25 91 -69 219l-349 1038h-290v-1466z" />
<glyph unicode="N" horiz-adv-x="1478" d="M156 0h186v1151l768 -1151h201v1466h-187v-1151l-768 1151h-200v-1466z" />
<glyph unicode="O" horiz-adv-x="1591" d="M100 715q0 -199 85.5 -371.5t244.5 -269.5q162 -101 369 -101q196 0 360 93.5t250 263.5q90 178 90 401t-85 395.5t-247 268.5q-162 98 -366 98q-309 0 -506 -209q-195 -207 -195 -569zM299 711q0 332 147 473q150 141 355 141h5q219 0 359 -163q135 -158 135 -409v-22 q0 -283 -141 -436q-142 -154 -360 -154q-213 0 -359 152q-141 150 -141 418z" />
<glyph unicode="P" horiz-adv-x="1366" d="M158 0h192v596h377q310 0 430 129q121 130 121 317q-5 168 -96.5 279t-247.5 131q-71 14 -223 14h-553v-1466zM350 768v524h377q133 0 182 -12q75 -21 121.5 -87t46.5 -157q0 -132 -81.5 -200t-264.5 -68h-381z" />
<glyph unicode="Q" horiz-adv-x="1591" d="M86 731v-17q0 -151 50 -285q53 -142 146 -243t224 -158q125 -55 265 -55h15q195 0 361 93q155 -122 315 -181l56 135q-115 44 -248 136q219 216 219 579v23q0 147 -47 278q-51 142 -143.5 243t-224.5 159q-128 55 -273 55h-10h-20q-139 0 -263 -53 q-132 -57 -225.5 -158.5t-146.5 -245.5q-50 -135 -50 -288v-17zM287 731q0 299 143 445q143 149 361 149h4q144 0 257 -73q115 -74 178 -210q60 -127 60 -287v-20q0 -316 -172 -469q-107 91 -276 137l-45 -139q97 -26 190 -86q-90 -37 -196 -37q-218 0 -363 154 q-141 153 -141 436z" />
<glyph unicode="R" horiz-adv-x="1478" d="M162 0h194v649h226q60 0 106 -4q38 -11 66.5 -27t66.5 -52t84.5 -99.5t108.5 -161.5l194 -305h246l-256 399q-74 114 -162 195q-39 33 -116 74q205 29 309 133t104 264q0 124 -61.5 223t-163.5 137q-103 41 -297 41h-649v-1466zM356 819v484h463q158 0 237 -64.5 t79 -173.5q-3 -57 -24 -102t-62.5 -79.5t-111.5 -51.5q-57 -14 -130 -14q-17 0 -35 1h-416z" />
<glyph unicode="S" horiz-adv-x="1366" d="M92 471q8 -229 173 -367q157 -132 425 -131h27h17q104 0 200 33q104 36 175.5 97t112.5 143q38 76 38 156v12q0 247 -252 358q-80 38 -324 92q-235 55 -293 107q-55 52 -55 129q0 97 84.5 159t249.5 62q170 0 257 -71t101 -212l189 15q-9 200 -157 318t-396 118h-25 q-133 -1 -243 -49q-122 -54 -188 -148q-62 -88 -61 -190v-15q0 -212 209 -319q78 -41 283 -92q193 -47 262 -72q172 -61 172 -207q0 -105 -99.5 -177.5t-264.5 -72.5q-122 0 -223 43.5t-152 114.5q-48 73 -60 180z" />
<glyph unicode="T" horiz-adv-x="1251" d="M49 1292h481v-1292h195v1292h485v174h-1161v-174z" />
<glyph unicode="U" horiz-adv-x="1478" d="M162 618v-5q0 -336 132 -483q132 -148 445 -157q206 0 338.5 79t184.5 214q51 128 51 352v848h-195v-848q0 -277 -92 -372q-88 -94 -301 -94q-128 0 -214.5 47.5t-121.5 138.5q-33 88 -33 280v848h-194v-848z" />
<glyph unicode="V" horiz-adv-x="1366" d="M10 1466l565 -1466h201l574 1466h-199l-395 -1065q-44 -113 -80 -239q-25 96 -78 239l-379 1065h-209z" />
<glyph unicode="W" horiz-adv-x="1933" d="M25 1466l389 -1466h198l312 1116q27 105 41 174q29 -113 47 -174l309 -1116h186l402 1466h-195l-229 -942q-51 -201 -72 -319q-37 237 -115 520l-211 741h-233l-279 -991q-17 -66 -65 -270q-31 168 -61 299l-226 962h-198z" />
<glyph unicode="X" horiz-adv-x="1366" d="M10 0h234l364 512q7 10 72 111q4 -7 65 -101l369 -522h240l-555 776l514 690h-213l-293 -389q-67 -85 -117 -168q-33 62 -117 181l-266 376h-231l499 -704z" />
<glyph unicode="Y" horiz-adv-x="1366" d="M4 1466l567 -843v-623h195v623l584 843h-226l-284 -432q-102 -155 -160 -258q-65 121 -150 248l-286 442h-240z" />
<glyph unicode="Z" horiz-adv-x="1251" d="M41 0h1159v174h-936l88 102l824 1016v174h-1051v-174h819q-78 -82 -153 -174l-750 -940v-178z" />
<glyph unicode="[" horiz-adv-x="567" d="M137 -408h398v150h-216v1573h216v151h-398v-1874z" />
<glyph unicode="\" horiz-adv-x="567" d="M0 1489l424 -1516h143l-422 1516h-145z" />
<glyph unicode="]" horiz-adv-x="567" d="M39 -258v-150h395v1874h-395v-151h217v-1573h-217z" />
<glyph unicode="^" horiz-adv-x="960" d="M53 690h185l241 598l248 -598h178l-352 799h-145z" />
<glyph unicode="_" d="M-31 -276v-132h1192v132h-1192z" />
<glyph unicode="`" horiz-adv-x="679" d="M90 1475l229 -283h146l-135 283h-240z" />
<glyph unicode="a" d="M74 279q0 -137 95 -219.5t269 -82.5q108 0 200 35t189 119q8 -69 35 -131h191q-35 62 -47 127q-11 82 -11 317v242q0 112 -10 164q-14 73 -54 122.5t-127 81t-220 31.5q-215 -3 -334.5 -82t-145.5 -245l177 -23q29 113 89 157t187 44q137 0 205 -62q51 -42 51 -153v-47 q-108 -38 -321 -62q-118 -16 -160 -26q-112 -31 -185 -110.5t-73 -196.5zM266 285q0 48 25 86t69 57q50 23 160 37q196 27 293 67v-67q0 -114 -31 -178q-37 -79 -118 -124.5t-185 -45.5q-102 0 -157.5 46.5t-55.5 121.5z" />
<glyph unicode="b" d="M133 0h168v133q108 -156 295 -156q191 0 324 148q135 150 135 422q0 238 -122.5 388t-328.5 150q-176 0 -289 -143v524h-182v-1466zM299 541q0 190 86 293q85 102 203 102q125 0 203.5 -103t78.5 -301q0 -194 -82.5 -301.5t-205.5 -107.5q-150 0 -232 141q-51 80 -51 277 z" />
<glyph unicode="c" horiz-adv-x="1024" d="M80 526q0 -261 131 -405t352 -144q175 0 293.5 103.5t149.5 286.5l-179 22q-18 -132 -88 -199t-178 -67q-137 0 -216 101t-79 308q0 202 81.5 303t223.5 101q90 0 154 -54.5t88 -160.5l174 29q-31 161 -141 248t-283 87q-140 0 -255.5 -66.5t-170.5 -191.5 q-57 -126 -57 -301z" />
<glyph unicode="d" d="M70 530v-20q0 -148 57 -268q61 -128 167 -198q103 -67 225 -67h7q195 0 297 156v-133h168v1466h-180v-526q-45 67 -122 106t-169 39h-14q-123 -1 -222 -69q-105 -72 -162 -200q-52 -118 -52 -261v-25zM256 530q0 202 76 304t203 102q130 0 211 -107t81 -315 q0 -190 -78.5 -290.5t-205.5 -100.5q-117 0 -201 100q-86 103 -86 307z" />
<glyph unicode="e" d="M74 522q0 -256 136.5 -400.5t371.5 -144.5q184 0 303 88.5t162 253.5l-185 23q-78 -219 -280 -219q-136 0 -224 95t-98 265h793q2 23 2 49q0 265 -137 408q-136 145 -347 145q-222 0 -360 -147q-137 -146 -137 -416zM270 633q7 138 92 220.5t211 82.5q135 0 224 -102 q56 -65 65 -201h-592z" />
<glyph unicode="f" horiz-adv-x="567" d="M18 922h160v-922h178v922h207v141h-207v96q0 96 33 131t117 35q44 0 106 -10l27 158q-98 16 -168 16q-215 0 -274 -156q-19 -55 -19 -157v-113h-160v-141z" />
<glyph unicode="g" d="M66 537q0 -223 120 -379q122 -158 338 -158q176 0 295 137q0 -174 -12 -229q-55 -191 -285 -191q-119 0 -184 50q-53 41 -62 118l-174 27v-17q0 -155 108 -238q114 -87 312 -87q156 0 267 59t161 164q51 99 51 350v920h-163v-129q-124 151 -314 151h-17q-127 0 -227 -69 q-106 -74 -160 -200q-54 -124 -54 -273v-6zM250 551q0 184 82 284.5t209 100.5q119 0 204 -98q89 -100 89 -295q0 -194 -80.5 -295t-210.5 -101q-132 0 -212.5 101t-80.5 303z" />
<glyph unicode="h" d="M135 0h180v582q0 126 29 196t100 111q70 43 152 43q111 0 167 -62.5t56 -195.5v-674h182v674q0 154 -38 236.5t-127 127.5q-86 47 -203 47q-191 0 -318 -145v526h-180v-1466z" />
<glyph unicode="i" horiz-adv-x="454" d="M135 0h180v1063h-180v-1063zM135 1260h180v206h-180v-206z" />
<glyph unicode="j" horiz-adv-x="454" d="M-94 -412q68 -18 139 -18q153 0 219 100q51 74 51 271v1122h-182v-1116q0 -147 -27 -185q-26 -36 -81 -36q-28 0 -84 16zM133 1257h182v209h-182v-209z" />
<glyph unicode="k" horiz-adv-x="1024" d="M135 0h180v420l127 123l351 -543h223l-449 668l408 395h-234l-426 -434v837h-180v-1466z" />
<glyph unicode="l" horiz-adv-x="454" d="M131 0h178v1466h-178v-1466z" />
<glyph unicode="m" horiz-adv-x="1703" d="M135 0h180v551q-1 18 -1 36q0 171 64 249q70 86 200 94q98 0 143 -59.5t45 -180.5v-690h180v616q0 158 70.5 236t189.5 78q61 0 107 -28.5t63 -76.5q19 -49 19 -157v-668h180v729q0 179 -84.5 267.5t-243.5 88.5q-201 0 -327 -184q-75 184 -304 184q-102 0 -185 -46 t-134 -126v150h-162v-1063z" />
<glyph unicode="n" d="M135 0h180v582q0 201 82 274q83 74 199 74q72 0 126.5 -32.5t74.5 -88.5q22 -55 22 -164v-645h178v653q0 119 -10 174q-14 114 -108.5 184.5t-243.5 73.5q-222 0 -338 -174v152h-162v-1063z" />
<glyph unicode="o" d="M70 530q0 -265 134 -409t361 -144q141 0 258 64.5t178 179.5q62 121 62 324q0 252 -139 397q-137 143 -359 143q-199 0 -332 -118q-163 -138 -163 -437zM254 530q0 197 85.5 301.5t225.5 104.5q139 0 226.5 -104t87.5 -295q0 -202 -87 -308t-227 -106t-225.5 105.5 t-85.5 301.5z" />
<glyph unicode="p" d="M135 -408h180v519q46 -62 118.5 -98t160.5 -36q127 0 237 71t166 198q60 135 60 295v15q0 141 -53 261q-55 126 -160 199q-99 69 -221 69h-17q-103 0 -176 -39t-131 -122v139h-164v-1471zM297 524q0 205 88 312q89 108 203 108q124 0 204 -105t80 -298q0 -204 -82 -311 t-208 -107q-125 0 -205 103t-80 298z" />
<glyph unicode="q" d="M72 541q0 -265 137 -414q138 -150 326 -150q84 0 159 37.5t117 98.5v-521h180v1471h-162v-143q-113 165 -309 165h-14q-186 0 -310 -149q-124 -147 -124 -374v-21zM256 535q0 201 78.5 305t202.5 104q119 0 204 -108q88 -107 88 -320q0 -189 -79.5 -291t-202.5 -102 q-117 0 -205 102q-86 106 -86 310z" />
<glyph unicode="r" horiz-adv-x="679" d="M133 0h178v555q0 113 31 211q20 62 68 98.5t106 36.5q66 0 131 -41l62 168q-89 57 -185 57q-67 0 -119 -38.5t-110 -145.5v162h-162v-1063z" />
<glyph unicode="s" horiz-adv-x="1024" d="M63 317q30 -172 139 -256t314 -84h21q171 0 287 95q120 99 120 232v7q0 179 -160 248q-74 33 -268 86q-125 33 -158 45q-45 16 -69 47q-23 30 -23 64q0 59 57 97t173 38q207 0 233 -174l176 26q-17 148 -121 220t-301 77q-79 0 -152 -20.5t-116 -52.5q-57 -38 -90 -100.5 t-33 -131.5q0 -80 40.5 -143t115.5 -100q71 -35 274 -86q146 -40 185 -62q53 -38 53 -98q0 -71 -63.5 -119.5t-180.5 -48.5q-241 0 -276 223z" />
<glyph unicode="t" horiz-adv-x="567" d="M35 922h133v-613q0 -159 22 -211q20 -48 76 -80q52 -30 152 -30q66 0 135 14l-27 160q-41 -8 -77 -8q-72 0 -93 47q-8 19 -8 100v621h178v141h-178v371l-180 -109v-262h-133v-141z" />
<glyph unicode="u" d="M131 403q0 -109 10 -167q18 -82 58.5 -135t117.5 -89q84 -35 177 -35q211 0 337 179v-156h160v1063h-180v-569q0 -135 -29.5 -207t-99.5 -115q-71 -41 -152 -41t-136 41t-72 113q-13 50 -13 188v590h-178v-660z" />
<glyph unicode="v" horiz-adv-x="1024" d="M25 1063l405 -1063h168l403 1063h-188l-235 -649q-47 -127 -66 -201q-32 116 -70 211l-227 639h-190z" />
<glyph unicode="w" horiz-adv-x="1478" d="M4 1063l326 -1063h190l215 817l41 -182l168 -635h186l332 1063h-174l-182 -614l-62 -205l-53 200l-160 619h-184l-168 -623q-51 -196 -55 -221l-64 230l-167 614h-189z" />
<glyph unicode="x" horiz-adv-x="1024" d="M14 0h219l279 420l59 -90l217 -330h220l-394 563l367 500h-215l-180 -252q-45 -68 -80 -117q-33 57 -74 119l-164 250h-225l358 -510z" />
<glyph unicode="y" horiz-adv-x="1024" d="M33 1063l401 -1065q-12 -38 -14 -45q-43 -116 -53 -133q-53 -76 -158 -76q-48 0 -103 14l21 -168q61 -20 117 -20q86 0 147.5 40.5t110.5 131.5q38 70 100 240l404 1081h-179l-229 -621q-46 -123 -74 -239q-44 160 -75 246l-222 614h-194z" />
<glyph unicode="z" horiz-adv-x="1024" d="M41 0h940v156h-492q-79 0 -229 -11l113 123l573 674v121h-866v-148h432q72 0 205 7l-676 -777v-145z" />
<glyph unicode="{" horiz-adv-x="684" d="M55 449q76 0 124.5 -40.5t66.5 -111.5q18 -70 18 -250q3 -180 12 -256q11 -76 54 -131q43 -52 108 -76q41 -14 144 -14h53v156h-31q-92 0 -126 26t-40 96q-6 38 -6 232q0 217 -51 309q-49 94 -158 141q95 47 137 103q44 60 62 166q10 78 10 329q0 130 35 168 q34 37 137 37h31v156h-53q-86 0 -127 -6q-83 -28 -128 -87t-59 -177q0 -2 -4 -222q0 -165 -18 -235q-18 -69 -66.5 -109t-124.5 -41v-163z" />
<glyph unicode="|" horiz-adv-x="532" d="M186 -430h160v1919h-160v-1919z" />
<glyph unicode="}" horiz-adv-x="684" d="M45 -274v-156h57q80 0 125 10q85 21 129 81.5t56 182.5q6 53 6 217q3 168 18 236q18 72 66 112t125 40v163q-153 3 -191 150q-15 71 -18 248q0 180 -12 260q-12 78 -56 131q-41 54 -104 74q-41 14 -144 14h-57v-156h31q95 0 128.5 -25.5t41.5 -95.5q4 -50 4 -231 q0 -219 45 -305q48 -91 164 -146q-88 -37 -136 -103.5t-65 -178.5q-8 -57 -8 -318q0 -130 -35 -168q-33 -36 -139 -36h-31z" />
<glyph unicode="~" horiz-adv-x="1196" d="M86 557q85 79 141.5 108t120.5 29q81 0 197 -55q124 -54 172 -68q52 -14 114 -14q159 0 279 117v211q-59 -60 -128.5 -98.5t-129.5 -38.5q-37 0 -72 9.5t-102 39.5q-119 50 -185.5 68t-125.5 18q-172 0 -281 -121v-205z" />
<glyph unicode="&#xa1;" horiz-adv-x="679" d="M233 -80v-326h222v326l-56 776h-114zM240 858h209v205h-209v-205z" />
<glyph unicode="&#xa2;" d="M106 524q0 -186 71.5 -316t191.5 -188l-115 -397l113 -33l116 398q59 -17 103 -17q171 0 293 107q120 106 155 291l-180 20q-17 -127 -91 -199.5t-179 -72.5q-24 0 -62 10l223 766q68 -59 95 -172l174 29q-21 112 -74.5 183.5t-151.5 113.5l113 387l-110 32l-113 -389 q-72 10 -100 10q-121 0 -238 -63q-118 -65 -176 -193q-58 -125 -58 -307zM291 535q-6 187 80.5 300t216.5 107q29 0 49 -2l-223 -764q-58 44 -90.5 136t-32.5 223z" />
<glyph unicode="&#xa3;" d="M29 145l65 -174q69 43 150 67.5t153 24.5q54 0 95 -8q34 -3 133 -37q96 -28 131 -36q40 -9 84 -9q49 0 99.5 14t143.5 52l-59 164q-119 -58 -193 -58q-58 0 -233 41q-105 27 -186 27q-68 0 -144 -20q176 184 176 380q0 40 -16 86h283v150h-314q-59 180 -59 289 q0 103 74 174t184 71q106 0 180.5 -69.5t87.5 -188.5l180 25q-29 182 -145.5 280.5t-296.5 98.5q-177 0 -301 -92q-156 -117 -156 -324q0 -47 9 -100q9 -51 43 -164h-154v-150h197q16 -66 16 -122q0 -135 -63 -236t-164 -156z" />
<glyph unicode="&#xa4;" d="M74 352l114 -116l140 137q110 -72 237 -72q129 0 236 72l141 -137l115 116l-137 137q67 107 67 238q0 124 -67 234l137 137l-115 119l-141 -140q-107 72 -236 72q-127 0 -237 -72l-140 140l-114 -119l139 -137q-72 -113 -72 -234q0 -128 72 -238zM305 727q0 104 76 180 q78 78 182 78t182 -78q76 -76 76 -180q0 -110 -76 -186t-182 -76t-182 76t-76 186z" />
<glyph unicode="&#xa5;" d="M-2 1466l403 -710h-340v-150h414v-143h-414v-137h414v-326h182v326h412v137h-412v143h412v150h-342l408 710h-215l-275 -505q-68 -129 -82 -164q-23 54 -78 153l-288 516h-199z" />
<glyph unicode="&#xa6;" horiz-adv-x="532" d="M186 360v-790h160v790h-160zM186 700h160v789h-160v-789z" />
<glyph unicode="&#xa7;" d="M82 645q0 -75 35.5 -145t95.5 -123q62 -55 207 -144q278 -169 340 -243q37 -43 37 -94q0 -72 -60 -123.5t-159 -51.5q-107 0 -167.5 54t-84.5 182l-183 -27q20 -172 134 -266t305 -94q163 -6 282.5 93t112.5 235q0 158 -158 280q112 47 154 92q71 80 71 193 q0 78 -33.5 141t-105.5 123q-47 42 -211 141q-252 152 -305 219q-37 43 -37 95q0 64 58 112.5t147 48.5q93 0 144 -49.5t71 -169.5l189 21q-20 168 -126.5 256t-291.5 88q-166 0 -267 -94q-100 -90 -100 -219q0 -67 30 -124.5t101 -125.5q-103 -30 -164 -108t-61 -173z M244 664q0 56 34.5 101.5t114.5 92.5q73 -60 205 -139q171 -104 223 -168q53 -62 53 -121q0 -50 -38 -100.5t-109 -85.5q-99 68 -231 147q-163 97 -207 152q-45 57 -45 121z" />
<glyph unicode="&#xa8;" horiz-adv-x="679" d="M61 1270h187v205h-187v-205zM434 1270h189v205h-189v-205z" />
<glyph unicode="&#xa9;" horiz-adv-x="1507" d="M2 735q0 -197 100 -375q101 -177 281 -278q178 -100 375 -100q200 0 375 100q178 100 280 278q100 178 100 375q0 196 -102 377q-105 186 -283 279q-180 98 -370 98q-193 0 -373 -98q-178 -93 -283 -279q-100 -178 -100 -377zM127 735q0 163 84 316q86 151 235 233 t312 82q160 0 309 -82q155 -85 236 -233q83 -151 83 -316q0 -160 -83 -311q-84 -153 -232 -234q-153 -84 -313 -84q-161 0 -314 84q-150 82 -233 234q-84 153 -84 311zM362 735q0 -199 110 -314.5t286 -115.5q140 0 237.5 73.5t128.5 199.5l-123 36q-25 -91 -91.5 -142.5 t-157.5 -51.5q-116 0 -184 80.5t-68 230.5q0 149 72 232.5t190 83.5q81 0 140 -39t85 -113l121 29q-33 112 -120.5 173.5t-219.5 61.5q-185 0 -295.5 -114t-110.5 -310z" />
<glyph unicode="&#xaa;" horiz-adv-x="757" d="M45 965q0 -98 67.5 -159t178.5 -61q134 0 256 107q3 -50 24 -90h146q-41 53 -41 184l2 62v241q0 117 -66 183q-69 57 -233 57q-136 0 -214.5 -56.5t-90.5 -150.5l135 -33q11 62 51 93.5t117 31.5q55 0 91.5 -16.5t49.5 -42.5q14 -22 17 -94q-7 -1 -20 -4t-36 -8t-41 -9 l-147 -20q-53 -7 -98 -23q-148 -47 -148 -192zM197 965q0 40 26 63q27 27 117 39q134 20 192 37q0 -84 -8 -103q-19 -59 -73 -98t-125 -39q-59 0 -94 29t-35 72z" />
<glyph unicode="&#xab;" d="M133 526l320 -454h145l-258 454l262 457h-149zM524 526l316 -454h151l-264 454l264 457h-151z" />
<glyph unicode="&#xac;" horiz-adv-x="1196" d="M115 862h796v-438h172v604h-968v-166z" />
<glyph unicode="&#xad;" horiz-adv-x="679" d="M63 440h553v183h-553v-183z" />
<glyph unicode="&#xae;" horiz-adv-x="1507" d="M2 735q0 -197 100 -375q101 -177 281 -278q178 -100 375 -100q200 0 375 100q178 100 280 278q100 178 100 375q0 196 -102 377q-105 186 -283 279q-180 98 -370 98q-193 0 -373 -98q-178 -93 -283 -279q-100 -178 -100 -377zM127 735q0 163 84 316q86 151 235 233 t312 82q160 0 309 -82q155 -85 236 -233q83 -151 83 -316q0 -160 -83 -311q-84 -153 -232 -234q-153 -84 -313 -84q-161 0 -314 84q-150 82 -233 234q-84 153 -84 311zM428 319h129v345h78q67 0 104 -29q52 -37 140 -186l71 -130h158l-96 160q-68 111 -121 160 q-29 26 -70 41q104 10 168 75t64 156q0 62 -39 118t-101 79q-68 22 -206 22h-279v-811zM557 776v246h150q91 0 127.5 -12.5t58.5 -44.5q20 -26 20 -64q0 -62 -43.5 -93.5t-152.5 -31.5h-160z" />
<glyph unicode="&#xaf;" horiz-adv-x="1130" d="M-31 1567h1192v127h-1192v-127z" />
<glyph unicode="&#xb0;" horiz-adv-x="819" d="M127 1212q0 -114 82 -196q83 -80 194 -80q116 0 199 80q82 82 82 196q0 118 -82 197q-80 80 -199 80q-111 0 -194 -80q-82 -79 -82 -197zM238 1212q0 72 49 121t121 49q68 0 116.5 -49.5t48.5 -120.5q0 -68 -49 -118t-116 -50q-71 0 -120.5 50t-49.5 118z" />
<glyph unicode="&#xb1;" horiz-adv-x="1124" d="M76 0h971v168h-971v-168zM76 664h399v-404h172v404h400v165h-400v400h-172v-400h-399v-165z" />
<glyph unicode="&#xb2;" horiz-adv-x="679" d="M25 731h622v123h-387q40 40 119 96q155 108 207 170q59 77 59 160q0 91 -74.5 148t-220.5 57q-132 0 -203.5 -51.5t-101.5 -165.5l152 -17q20 66 53.5 90.5t97.5 24.5q66 0 101.5 -31t35.5 -78q0 -46 -34 -86q-25 -28 -172 -135q-140 -102 -207 -188q-41 -59 -47 -117z " />
<glyph unicode="&#xb3;" horiz-adv-x="679" d="M33 930q42 -215 309 -215q142 0 222.5 66.5t80.5 164.5q0 71 -42.5 121.5t-129.5 69.5q67 20 103 62t36 99q0 83 -70 135t-206 52q-121 0 -182.5 -42t-102.5 -151l142 -22q23 59 54 80.5t89 21.5q55 0 86 -25t31 -63q0 -46 -39 -74.5t-117 -27.5l-21 -109h21q14 2 33 2 q159 0 159 -110q0 -57 -43.5 -95.5t-113.5 -38.5q-55 0 -103 31q-30 21 -51 82z" />
<glyph unicode="&#xb4;" horiz-adv-x="679" d="M223 1192h148l221 283h-236z" />
<glyph unicode="&#xb5;" horiz-adv-x="1179" d="M158 -408h180v514q60 -75 104 -98q65 -35 150 -35q93 0 164 41q45 29 102 111v-125h160v1063h-176v-455q0 -242 -27 -313q-27 -69 -90 -115q-61 -43 -141 -43q-77 0 -136 42.5t-86 115.5q-24 71 -24 317v451h-180v-1471z" />
<glyph unicode="&#xb6;" horiz-adv-x="1099" d="M0 1044q0 -174 109 -285.5t294 -121.5v-1045h168v1700h222v-1700h170v1700h143v174h-633q-226 0 -349.5 -113.5t-123.5 -308.5z" />
<glyph unicode="&#xb7;" horiz-adv-x="567" d="M184 618h205v205h-205v-205z" />
<glyph unicode="&#xb8;" horiz-adv-x="679" d="M106 -410q68 -10 144 -10q140 0 215.5 54.5t75.5 134.5q0 54 -45.5 95.5t-126.5 51.5l32 107h-133l-53 -177q96 -3 127 -19t31 -48q0 -31 -31 -47q-37 -29 -129 -29q-10 0 -96 4z" />
<glyph unicode="&#xb9;" horiz-adv-x="679" d="M106 1176q124 31 224 112v-557h145v754h-106q-50 -62 -126 -116t-137 -71v-122z" />
<glyph unicode="&#xba;" horiz-adv-x="747" d="M45 1110q0 -171 90 -271t238 -100q145 0 236 101.5t91 275.5q0 171 -91 272t-236 101q-149 0 -238.5 -101t-89.5 -278zM193 1116q0 240 180 240q83 0 131.5 -59.5t48.5 -178.5q0 -125 -48 -185.5t-132 -60.5q-82 0 -131 60t-49 184z" />
<glyph unicode="&#xbb;" d="M141 72h150l313 454l-313 457h-150l262 -457zM530 72h148l317 454l-317 457h-148l261 -457z" />
<glyph unicode="&#xbc;" horiz-adv-x="1708" d="M106 1176q124 31 224 112v-557h145v754h-106q-50 -62 -126 -116t-137 -71v-122zM250 -57h160l1099 1546h-155zM1047 123h385v-154h143v154h102v106h-102v490h-123l-405 -473v-123zM1200 229l232 265v-265h-232z" />
<glyph unicode="&#xbd;" horiz-adv-x="1708" d="M106 1176q124 31 224 112v-557h145v754h-106q-50 -62 -126 -116t-137 -71v-122zM227 -57h156l1102 1546h-156zM1049 -31h622v121h-387q33 31 121 96q159 114 205 172q59 74 59 158q0 91 -74.5 147t-220.5 56q-130 0 -203 -52t-102 -165l152 -13q20 63 54 88t97 25 q67 0 102 -29.5t35 -80.5q0 -44 -34 -84q-28 -31 -172 -136t-205 -190q-43 -58 -49 -113z" />
<glyph unicode="&#xbe;" horiz-adv-x="1708" d="M33 930q42 -215 309 -215q142 0 222.5 66.5t80.5 164.5q0 71 -42.5 121.5t-129.5 69.5q67 20 103 62t36 99q0 83 -70 135t-206 52q-121 0 -182.5 -42t-102.5 -151l142 -22q23 59 54 80.5t89 21.5q55 0 86 -25t31 -63q0 -46 -39 -74.5t-117 -27.5l-21 -109q25 0 56 2 q157 0 157 -110q0 -57 -43.5 -95.5t-113.5 -38.5q-55 0 -103 31q-30 21 -51 82zM250 -57h160l1099 1546h-155zM1047 123h380v-154h148v154h102v106h-102v490h-123l-405 -473v-123zM1200 229l227 265v-265h-227z" />
<glyph unicode="&#xbf;" horiz-adv-x="1251" d="M158 -29q0 -164 127 -282q125 -119 344 -119q202 0 325.5 110t149.5 314l-184 20q-24 -150 -100.5 -223.5t-192.5 -73.5q-120 0 -203 80q-82 79 -82 185q0 60 27 106q25 45 123 131q97 84 131 127q46 57 67 117q31 79 31 186v51h-174q-1 -105 -12.5 -154.5t-40.5 -86.5 q-22 -30 -115 -117q-129 -112 -178 -195q-43 -76 -43 -176zM526 858h205v205h-205v-205z" />
<glyph unicode="&#xc0;" horiz-adv-x="1366" d="M-2 0h205l159 442h615l170 -442h223l-602 1466h-207zM420 602l162 430q47 125 77 279q29 -100 103 -303l153 -406h-495zM448 1835l229 -283h146l-135 283h-240z" />
<glyph unicode="&#xc1;" horiz-adv-x="1366" d="M-2 0h205l159 442h615l170 -442h223l-602 1466h-207zM420 602l162 430q47 125 77 279q29 -100 103 -303l153 -406h-495zM542 1552h148l221 283h-236z" />
<glyph unicode="&#xc2;" horiz-adv-x="1366" d="M-2 0h205l159 442h615l170 -442h223l-602 1466h-207zM344 1552h204l113 172l111 -172h204l-225 283h-192zM420 602l162 430q47 125 77 279q29 -100 103 -303l153 -406h-495z" />
<glyph unicode="&#xc3;" horiz-adv-x="1366" d="M-2 0h205l159 442h615l170 -442h223l-602 1466h-207zM350 1557h133q-3 50 21 71q23 23 53 23q28 0 100 -35q99 -57 164 -57q88 0 142 59t55 168h-131q-4 -49 -21.5 -67.5t-50.5 -18.5q-34 0 -94 31q-109 53 -170 53q-87 0 -146 -62q-58 -61 -55 -165zM420 602l162 430 q47 125 77 279q29 -100 103 -303l153 -406h-495z" />
<glyph unicode="&#xc4;" horiz-adv-x="1366" d="M-2 0h205l159 442h615l170 -442h223l-602 1466h-207zM378 1557h187v205h-187v-205zM420 602l162 430q47 125 77 279q29 -100 103 -303l153 -406h-495zM751 1557h189v205h-189v-205z" />
<glyph unicode="&#xc5;" horiz-adv-x="1366" d="M-2 0h205l159 442h615l170 -442h223l-602 1466h-207zM420 602l162 430q47 125 77 279q29 -100 103 -303l153 -406h-495zM481 1599q0 -79 52.5 -132.5t130.5 -53.5q73 0 125.5 53.5t52.5 130.5q0 75 -54 129t-129 54q-72 0 -125 -54t-53 -127zM557 1599q0 43 31.5 76 t75.5 33q42 0 73 -33t31 -78q0 -43 -31 -75.5t-73 -32.5q-44 0 -75.5 32.5t-31.5 77.5z" />
<glyph unicode="&#xc6;" horiz-adv-x="2048" d="M0 0h209l203 422h565v-422h958v174h-764v496h684v172h-684v450h738v174h-1202zM494 594l337 698h146v-698h-483z" />
<glyph unicode="&#xc7;" horiz-adv-x="1478" d="M102 745q0 -212 76 -395q76 -179 225 -280q154 -97 388 -97q229 0 387 127t219 365l-195 49q-36 -181 -149.5 -277t-276.5 -96q-105 -3 -194.5 38t-153 118t-97.5 192.5t-30 255.5q0 150 45 281q46 133 162 217q113 82 283 82q148 0 244.5 -74t146.5 -233l190 47 q-60 204 -209.5 314t-369.5 110q-146 2 -274 -50t-222 -147.5t-146.5 -237t-48.5 -309.5zM509 -410q68 -10 144 -10q140 0 215.5 54.5t75.5 134.5q0 54 -45.5 95.5t-126.5 51.5l32 107h-133l-53 -177q96 -3 127 -19t31 -48q0 -31 -31 -47q-37 -29 -129 -29q-10 0 -96 4z" />
<glyph unicode="&#xc8;" horiz-adv-x="1366" d="M162 0h1095v174h-901v496h811v174h-811v448h865v174h-1059v-1466zM473 1835l229 -283h146l-135 283h-240z" />
<glyph unicode="&#xc9;" horiz-adv-x="1366" d="M162 0h1095v174h-901v496h811v174h-811v448h865v174h-1059v-1466zM563 1552h148l221 283h-236z" />
<glyph unicode="&#xca;" horiz-adv-x="1366" d="M162 0h1095v174h-901v496h811v174h-811v448h865v174h-1059v-1466zM387 1552h204l113 172l111 -172h204l-225 283h-192z" />
<glyph unicode="&#xcb;" horiz-adv-x="1366" d="M162 0h1095v174h-901v496h811v174h-811v448h865v174h-1059v-1466zM423 1557h187v205h-187v-205zM796 1557h189v205h-189v-205z" />
<glyph unicode="&#xcc;" horiz-adv-x="567" d="M53 1835l229 -283h146l-135 283h-240zM193 0h190v1466h-190v-1466z" />
<glyph unicode="&#xcd;" horiz-adv-x="567" d="M141 1552h148l221 283h-236zM193 0h190v1466h-190v-1466z" />
<glyph unicode="&#xce;" horiz-adv-x="567" d="M-32 1552h204l113 172l111 -172h204l-225 283h-192zM193 0h190v1466h-190v-1466z" />
<glyph unicode="&#xcf;" horiz-adv-x="567" d="M4 1557h187v205h-187v-205zM193 0h190v1466h-190v-1466zM377 1557h189v205h-189v-205z" />
<glyph unicode="&#xd0;" horiz-adv-x="1478" d="M-2 668h160v-668h528q144 0 215 18q139 33 235.5 109t161.5 227q72 167 72 385q0 403 -231 600q-91 78 -215 105q-93 22 -260 22h-506v-667h-160v-131zM350 174v494h406v131h-406v493h309q157 0 234 -24t139 -86q137 -137 137 -441q0 -325 -145 -467q-52 -50 -135 -75 t-223 -25h-316z" />
<glyph unicode="&#xd1;" horiz-adv-x="1478" d="M156 0h186v1151l768 -1151h201v1466h-187v-1151l-768 1151h-200v-1466zM430 1557h133q-3 50 21 71q23 23 53 23q28 0 100 -35q99 -57 164 -57q88 0 142 59t55 168h-131q-4 -49 -21.5 -67.5t-50.5 -18.5q-34 0 -94 31q-109 53 -170 53q-87 0 -146 -62q-58 -61 -55 -165z " />
<glyph unicode="&#xd2;" horiz-adv-x="1591" d="M100 715q0 -199 85.5 -371.5t244.5 -269.5q162 -101 369 -101q196 0 360 93.5t250 263.5q90 178 90 401t-85 395.5t-247 268.5q-162 98 -366 98q-309 0 -506 -209q-195 -207 -195 -569zM299 711q0 332 147 473q150 141 355 141q223 2 364 -163t135 -431q0 -283 -141 -436 q-142 -154 -360 -154q-213 0 -359 152q-141 150 -141 418zM541 1835l229 -283h146l-135 283h-240z" />
<glyph unicode="&#xd3;" horiz-adv-x="1591" d="M100 715q0 -199 85.5 -371.5t244.5 -269.5q162 -101 369 -101q196 0 360 93.5t250 263.5q90 178 90 401t-85 395.5t-247 268.5q-162 98 -366 98q-309 0 -506 -209q-195 -207 -195 -569zM299 711q0 332 147 473q150 141 355 141q223 2 364 -163t135 -431q0 -283 -141 -436 q-142 -154 -360 -154q-213 0 -359 152q-141 150 -141 418zM678 1552h148l221 283h-236z" />
<glyph unicode="&#xd4;" horiz-adv-x="1591" d="M100 715q0 -199 85.5 -371.5t244.5 -269.5q162 -101 369 -101q196 0 360 93.5t250 263.5q90 178 90 401t-85 395.5t-247 268.5q-162 98 -366 98q-309 0 -506 -209q-195 -207 -195 -569zM299 711q0 332 147 473q150 141 355 141q223 2 364 -163t135 -431q0 -283 -141 -436 q-142 -154 -360 -154q-213 0 -359 152q-141 150 -141 418zM478 1552h204l113 172l111 -172h204l-225 283h-192z" />
<glyph unicode="&#xd5;" horiz-adv-x="1591" d="M100 715q0 -199 85.5 -371.5t244.5 -269.5q162 -101 369 -101q196 0 360 93.5t250 263.5q90 178 90 401t-85 395.5t-247 268.5q-162 98 -366 98q-309 0 -506 -209q-195 -207 -195 -569zM299 711q0 332 147 473q150 141 355 141q223 2 364 -163t135 -431q0 -283 -141 -436 q-142 -154 -360 -154q-213 0 -359 152q-141 150 -141 418zM467 1557h133q-3 50 21 71q23 23 53 23q28 0 100 -35q99 -57 164 -57q88 0 142 59t55 168h-131q-4 -49 -21.5 -67.5t-50.5 -18.5q-34 0 -94 31q-109 53 -170 53q-87 0 -146 -62q-58 -61 -55 -165z" />
<glyph unicode="&#xd6;" horiz-adv-x="1591" d="M100 715q0 -199 85.5 -371.5t244.5 -269.5q162 -101 369 -101q196 0 360 93.5t250 263.5q90 178 90 401t-85 395.5t-247 268.5q-162 98 -366 98q-309 0 -506 -209q-195 -207 -195 -569zM299 711q0 332 147 473q150 141 355 141q223 2 364 -163t135 -431q0 -283 -141 -436 q-142 -154 -360 -154q-213 0 -359 152q-141 150 -141 418zM516 1557h187v205h-187v-205zM889 1557h189v205h-189v-205z" />
<glyph unicode="&#xd7;" horiz-adv-x="1196" d="M162 410l119 -123l315 317l315 -315l123 123l-315 313l313 311l-121 123l-313 -315l-313 315l-123 -123l313 -311z" />
<glyph unicode="&#xd8;" horiz-adv-x="1591" d="M82 25l100 -84l168 186q119 -86 201 -115q110 -39 250 -39q182 0 348 90q168 92 256 267q92 176 92 401q0 155 -41 283q-28 90 -115 225l177 197l-101 84l-168 -189q-114 89 -214 123.5t-236 34.5q-149 4 -280.5 -50t-226 -153.5t-148 -244t-50.5 -312.5q0 -151 33 -254 q32 -99 131 -252zM295 731q0 299 143 445q143 149 361 149q96 0 166 -27t163 -100l-745 -838q-50 97 -66 166q-22 93 -22 205zM469 260l741 834q88 -158 88 -367q0 -280 -143 -432q-142 -154 -358 -154q-106 0 -185 33q-65 23 -143 86z" />
<glyph unicode="&#xd9;" horiz-adv-x="1478" d="M162 618q-1 -340 131.5 -488t445.5 -157q206 0 338.5 79t184.5 214q51 128 51 352v848h-195v-848q0 -277 -92 -372q-88 -94 -301 -94q-128 0 -214.5 47.5t-121.5 138.5q-33 88 -33 280v848h-194v-848zM479 1835l229 -283h146l-135 283h-240z" />
<glyph unicode="&#xda;" horiz-adv-x="1478" d="M162 618q-1 -340 131.5 -488t445.5 -157q206 0 338.5 79t184.5 214q51 128 51 352v848h-195v-848q0 -277 -92 -372q-88 -94 -301 -94q-128 0 -214.5 47.5t-121.5 138.5q-33 88 -33 280v848h-194v-848zM614 1552h148l221 283h-236z" />
<glyph unicode="&#xdb;" horiz-adv-x="1478" d="M162 618q-1 -340 131.5 -488t445.5 -157q206 0 338.5 79t184.5 214q51 128 51 352v848h-195v-848q0 -277 -92 -372q-88 -94 -301 -94q-128 0 -214.5 47.5t-121.5 138.5q-33 88 -33 280v848h-194v-848zM416 1552h204l113 172l111 -172h204l-225 283h-192z" />
<glyph unicode="&#xdc;" horiz-adv-x="1478" d="M162 618q-1 -340 131.5 -488t445.5 -157q206 0 338.5 79t184.5 214q51 128 51 352v848h-195v-848q0 -277 -92 -372q-88 -94 -301 -94q-128 0 -214.5 47.5t-121.5 138.5q-33 88 -33 280v848h-194v-848zM454 1557h187v205h-187v-205zM827 1557h189v205h-189v-205z" />
<glyph unicode="&#xdd;" horiz-adv-x="1366" d="M4 1466l567 -843v-623h195v623l584 843h-226l-284 -432q-102 -155 -160 -258q-65 121 -150 248l-286 442h-240zM555 1552h148l221 283h-236z" />
<glyph unicode="&#xde;" horiz-adv-x="1366" d="M158 0h192v297h377q310 0 430 129q121 133 121 315q0 170 -93 277t-251 137q-76 12 -223 12h-361v299h-192v-1466zM350 471v524h377q136 0 182 -14q75 -20 121.5 -87t46.5 -157q0 -130 -82 -198t-264 -68h-381z" />
<glyph unicode="&#xdf;" horiz-adv-x="1251" d="M154 0h178v991q0 221 67 285q70 67 176 67q89 0 145 -46.5t56 -110.5q0 -39 -16.5 -83t-67.5 -126q-53 -90 -65 -129q-13 -44 -13 -80q0 -62 39 -115q40 -58 207 -172q93 -64 111 -88q33 -39 33 -96q0 -69 -55 -121.5t-130 -52.5q-59 0 -108 37.5t-97 126.5l-155 -72 q49 -108 145 -175t217 -67q163 0 264 101q103 103 103 237q0 107 -64 183q-50 56 -182 143q-100 63 -121 98q-22 31 -22 62q0 26 12.5 58t54.5 108q47 81 65.5 134.5t18.5 104.5q0 120 -100 201q-100 86 -268 86q-132 0 -235.5 -55.5t-147.5 -153.5q-45 -96 -45 -283v-997z " />
<glyph unicode="&#xe0;" d="M74 279q0 -137 95 -219.5t269 -82.5q108 0 200 35t189 119q8 -69 35 -131h191q-35 62 -47 127q-11 82 -11 317v242q0 112 -10 164q-14 73 -54 122.5t-127 81t-220 31.5q-215 -3 -334.5 -82t-145.5 -245l177 -23q29 113 89 157t187 44q137 0 205 -62q51 -42 51 -153v-47 q-108 -38 -321 -62q-118 -16 -160 -26q-112 -31 -185 -110.5t-73 -196.5zM266 285q0 48 25 86t69 57q50 23 160 37q196 27 293 67v-67q0 -114 -31 -178q-37 -79 -118 -124.5t-185 -45.5q-102 0 -157.5 46.5t-55.5 121.5zM340 1475l229 -283h146l-135 283h-240z" />
<glyph unicode="&#xe1;" d="M74 279q0 -137 95 -219.5t269 -82.5q108 0 200 35t189 119q8 -69 35 -131h191q-35 62 -47 127q-11 82 -11 317v242q0 112 -10 164q-14 73 -54 122.5t-127 81t-220 31.5q-215 -3 -334.5 -82t-145.5 -245l177 -23q29 113 89 157t187 44q137 0 205 -62q51 -42 51 -153v-47 q-108 -38 -321 -62q-118 -16 -160 -26q-112 -31 -185 -110.5t-73 -196.5zM266 285q0 48 25 86t69 57q50 23 160 37q196 27 293 67v-67q0 -114 -31 -178q-37 -79 -118 -124.5t-185 -45.5q-102 0 -157.5 46.5t-55.5 121.5zM463 1192h148l221 283h-236z" />
<glyph unicode="&#xe2;" d="M74 279q0 -137 95 -219.5t269 -82.5q108 0 200 35t189 119q8 -69 35 -131h191q-35 62 -47 127q-11 82 -11 317v242q0 112 -10 164q-14 73 -54 122.5t-127 81t-220 31.5q-215 -3 -334.5 -82t-145.5 -245l177 -23q29 113 89 157t187 44q137 0 205 -62q51 -42 51 -153v-47 q-108 -38 -321 -62q-118 -16 -160 -26q-112 -31 -185 -110.5t-73 -196.5zM248 1192h204l113 172l111 -172h204l-225 283h-192zM266 285q0 48 25 86t69 57q50 23 160 37q196 27 293 67v-67q0 -114 -31 -178q-37 -79 -118 -124.5t-185 -45.5q-102 0 -157.5 46.5t-55.5 121.5z " />
<glyph unicode="&#xe3;" d="M74 279q0 -137 95 -219.5t269 -82.5q108 0 200 35t189 119q8 -69 35 -131h191q-35 62 -47 127q-11 82 -11 317v242q0 112 -10 164q-14 73 -54 122.5t-127 81t-220 31.5q-215 -3 -334.5 -82t-145.5 -245l177 -23q29 113 89 157t187 44q137 0 205 -62q51 -42 51 -153v-47 q-108 -38 -321 -62q-118 -16 -160 -26q-112 -31 -185 -110.5t-73 -196.5zM231 1219h133q-3 50 21 71q23 23 53 23q28 0 100 -35q99 -57 164 -57q88 0 142 59t55 168h-131q-4 -49 -21.5 -67.5t-50.5 -18.5q-34 0 -94 31q-109 53 -170 53q-87 0 -146 -62q-58 -61 -55 -165z M266 285q0 48 25 86t69 57q50 23 160 37q196 27 293 67v-67q0 -114 -31 -178q-37 -79 -118 -124.5t-185 -45.5q-102 0 -157.5 46.5t-55.5 121.5z" />
<glyph unicode="&#xe4;" d="M74 279q0 -137 95 -219.5t269 -82.5q108 0 200 35t189 119q8 -69 35 -131h191q-35 62 -47 127q-11 82 -11 317v242q0 112 -10 164q-14 73 -54 122.5t-127 81t-220 31.5q-215 -3 -334.5 -82t-145.5 -245l177 -23q29 113 89 157t187 44q137 0 205 -62q51 -42 51 -153v-47 q-108 -38 -321 -62q-118 -16 -160 -26q-112 -31 -185 -110.5t-73 -196.5zM266 285q0 48 25 86t69 57q50 23 160 37q196 27 293 67v-67q0 -114 -31 -178q-37 -79 -118 -124.5t-185 -45.5q-102 0 -157.5 46.5t-55.5 121.5zM284 1270h187v205h-187v-205zM657 1270h189v205h-189 v-205z" />
<glyph unicode="&#xe5;" d="M74 279q0 -137 95 -219.5t269 -82.5q108 0 200 35t189 119q8 -69 35 -131h191q-35 62 -47 127q-11 82 -11 317v242q0 112 -10 164q-14 73 -54 122.5t-127 81t-220 31.5q-215 -3 -334.5 -82t-145.5 -245l177 -23q29 113 89 157t187 44q137 0 205 -62q51 -42 51 -153v-47 q-108 -38 -321 -62q-118 -16 -160 -26q-112 -31 -185 -110.5t-73 -196.5zM266 285q0 48 25 86t69 57q50 23 160 37q196 27 293 67v-67q0 -114 -31 -178q-37 -79 -118 -124.5t-185 -45.5q-102 0 -157.5 46.5t-55.5 121.5zM383 1339q0 -81 52.5 -134.5t127.5 -53.5 q73 0 125.5 53.5t52.5 128.5q0 78 -52 131.5t-126 53.5q-73 0 -126.5 -53.5t-53.5 -125.5zM459 1335q0 44 31.5 76.5t74.5 32.5t74 -32t31 -79q0 -43 -32 -74.5t-73 -31.5q-43 0 -74.5 32t-31.5 76z" />
<glyph unicode="&#xe6;" horiz-adv-x="1820" d="M70 279q0 -129 97 -215.5t263 -86.5q124 0 231 47.5t209 149.5q74 -102 171 -149.5t227 -47.5q176 0 295.5 90.5t169.5 258.5l-187 22q-30 -106 -101 -165.5t-173 -59.5q-86 0 -161 42.5t-107 108.5q-33 62 -33 209h764q4 58 4 62q0 126 -49 254q-50 134 -156 209 q-109 77 -266 77q-115 0 -197.5 -35t-146.5 -108q-41 65 -97 94q-101 49 -270 49q-205 -4 -314 -82.5t-147 -246.5l174 -25q20 87 49 125.5t89 58.5q62 21 147 21q131 0 183.5 -49.5t52.5 -177.5v-41q-116 -31 -254 -50q-199 -25 -283 -63q-89 -41 -137 -115 q-47 -74 -47 -161zM258 287q0 73 59 123q41 33 154 51q261 44 322 71q0 -162 -15 -215q-27 -87 -112.5 -143.5t-200.5 -56.5q-96 0 -151.5 48t-55.5 122zM971 633q6 143 86 223t207 80q257 0 290 -303h-583z" />
<glyph unicode="&#xe7;" horiz-adv-x="1024" d="M80 526q0 -261 131 -405t352 -144q175 0 293.5 103.5t149.5 286.5l-179 22q-18 -132 -88 -199t-178 -67q-137 0 -216 101t-79 308q0 202 81.5 303t223.5 101q90 0 154 -54.5t88 -160.5l174 29q-31 161 -141 248t-283 87q-140 0 -255.5 -66.5t-170.5 -191.5 q-57 -126 -57 -301zM301 -390q68 -10 144 -10q140 0 215.5 54.5t75.5 134.5q0 54 -45.5 95.5t-126.5 51.5l32 107h-133l-53 -177q96 -3 127 -19t31 -48q0 -31 -31 -47q-37 -29 -129 -29q-10 0 -96 4z" />
<glyph unicode="&#xe8;" d="M74 522q0 -256 136.5 -400.5t371.5 -144.5q184 0 303 88.5t162 253.5l-185 23q-78 -219 -280 -219q-136 0 -224 95t-98 265h793q2 23 2 49q0 265 -137 408q-136 145 -347 145q-222 0 -360 -147q-137 -146 -137 -416zM270 633q7 138 92 220.5t211 82.5q135 0 224 -102 q56 -65 65 -201h-592zM309 1475l229 -283h146l-135 283h-240z" />
<glyph unicode="&#xe9;" d="M74 522q0 -256 136.5 -400.5t371.5 -144.5q184 0 303 88.5t162 253.5l-185 23q-78 -219 -280 -219q-136 0 -224 95t-98 265h793q2 23 2 49q0 265 -137 408q-136 145 -347 145q-222 0 -360 -147q-137 -146 -137 -416zM270 633q7 138 92 220.5t211 82.5q135 0 224 -102 q56 -65 65 -201h-592zM467 1192h148l221 283h-236z" />
<glyph unicode="&#xea;" d="M74 522q0 -256 136.5 -400.5t371.5 -144.5q184 0 303 88.5t162 253.5l-185 23q-78 -219 -280 -219q-136 0 -224 95t-98 265h793q2 23 2 49q0 265 -137 408q-136 145 -347 145q-222 0 -360 -147q-137 -146 -137 -416zM248 1192h204l113 172l111 -172h204l-225 283h-192z M270 633q7 138 92 220.5t211 82.5q135 0 224 -102q56 -65 65 -201h-592z" />
<glyph unicode="&#xeb;" d="M74 522q0 -256 136.5 -400.5t371.5 -144.5q184 0 303 88.5t162 253.5l-185 23q-78 -219 -280 -219q-136 0 -224 95t-98 265h793q2 23 2 49q0 265 -137 408q-136 145 -347 145q-222 0 -360 -147q-137 -146 -137 -416zM270 633q7 138 92 220.5t211 82.5q135 0 224 -102 q56 -65 65 -201h-592zM284 1270h187v205h-187v-205zM657 1270h189v205h-189v-205z" />
<glyph unicode="&#xec;" horiz-adv-x="567" d="M37 1475l229 -283h146l-136 283h-239zM197 0h182v1063h-182v-1063z" />
<glyph unicode="&#xed;" horiz-adv-x="567" d="M190 1192h148l221 283h-235zM197 0h182v1063h-182v-1063z" />
<glyph unicode="&#xee;" horiz-adv-x="567" d="M-16 1192h204l113 172l111 -172h204l-225 283h-192zM197 0h182v1063h-182v-1063z" />
<glyph unicode="&#xef;" horiz-adv-x="567" d="M10 1270h187v205h-187v-205zM197 0h182v1063h-182v-1063zM383 1270h188v205h-188v-205z" />
<glyph unicode="&#xf0;" d="M74 516q0 -218 92 -348q145 -195 397 -195q216 0 355 148t139 401q0 391 -320 758l172 84l-47 102l-213 -102q-45 42 -125 102h-217q113 -78 207 -166l-238 -108l43 -105l275 130q49 -55 80 -101q17 -25 63 -112q-72 34 -114 46.5t-99 12.5q-195 0 -323 -143 q-127 -142 -127 -404zM256 512q0 202 83 307t218 105q136 0 224.5 -105t88.5 -289q0 -198 -90 -305q-88 -102 -217 -102q-136 0 -221.5 100.5t-85.5 288.5z" />
<glyph unicode="&#xf1;" d="M135 0h180v582q0 201 82 274q83 74 199 74q72 0 126.5 -32.5t74.5 -88.5q22 -55 22 -164v-645h178v653q0 119 -10 174q-14 114 -108.5 184.5t-243.5 73.5q-222 0 -338 -174v152h-162v-1063zM264 1219h133q-3 50 21 71q23 23 53 23q28 0 100 -35q99 -57 164 -57 q88 0 142 59t55 168h-131q-4 -49 -21.5 -67.5t-50.5 -18.5q-34 0 -94 31q-109 53 -170 53q-87 0 -146 -62q-58 -61 -55 -165z" />
<glyph unicode="&#xf2;" d="M70 530q0 -265 134 -409t361 -144q141 0 258 64.5t178 179.5q62 121 62 324q0 252 -139 397q-137 143 -359 143q-199 0 -332 -118q-163 -138 -163 -437zM254 530q0 197 85.5 301.5t225.5 104.5q139 0 226.5 -104t87.5 -295q0 -202 -87 -308t-227 -106t-225.5 105.5 t-85.5 301.5zM313 1475l229 -283h146l-135 283h-240z" />
<glyph unicode="&#xf3;" d="M70 530q0 -265 134 -409t361 -144q141 0 258 64.5t178 179.5q62 121 62 324q0 252 -139 397q-137 143 -359 143q-199 0 -332 -118q-163 -138 -163 -437zM254 530q0 197 85.5 301.5t225.5 104.5q139 0 226.5 -104t87.5 -295q0 -202 -87 -308t-227 -106t-225.5 105.5 t-85.5 301.5zM467 1192h148l221 283h-236z" />
<glyph unicode="&#xf4;" d="M70 530q0 -265 134 -409t361 -144q141 0 258 64.5t178 179.5q62 121 62 324q0 252 -139 397q-137 143 -359 143q-199 0 -332 -118q-163 -138 -163 -437zM248 1192h204l113 172l111 -172h204l-225 283h-192zM254 530q0 197 85.5 301.5t225.5 104.5q139 0 226.5 -104 t87.5 -295q0 -202 -87 -308t-227 -106t-225.5 105.5t-85.5 301.5z" />
<glyph unicode="&#xf5;" d="M70 530q0 -265 134 -409t361 -144q141 0 258 64.5t178 179.5q62 121 62 324q0 252 -139 397q-137 143 -359 143q-199 0 -332 -118q-163 -138 -163 -437zM231 1219h133q-3 50 21 71q23 23 53 23q28 0 100 -35q99 -57 164 -57q88 0 142 59t55 168h-131q-4 -49 -21.5 -67.5 t-50.5 -18.5q-34 0 -94 31q-109 53 -170 53q-87 0 -146 -62q-58 -61 -55 -165zM254 530q0 197 85.5 301.5t225.5 104.5q139 0 226.5 -104t87.5 -295q0 -202 -87 -308t-227 -106t-225.5 105.5t-85.5 301.5z" />
<glyph unicode="&#xf6;" d="M70 530q0 -265 134 -409t361 -144q141 0 258 64.5t178 179.5q62 121 62 324q0 252 -139 397q-137 143 -359 143q-199 0 -332 -118q-163 -138 -163 -437zM254 530q0 197 85.5 301.5t225.5 104.5q139 0 226.5 -104t87.5 -295q0 -202 -87 -308t-227 -106t-225.5 105.5 t-85.5 301.5zM284 1270h187v205h-187v-205zM657 1270h189v205h-189v-205z" />
<glyph unicode="&#xf7;" horiz-adv-x="1124" d="M76 639h971v168h-971v-168zM459 319h205v205h-205v-205zM459 922h205v204h-205v-204z" />
<glyph unicode="&#xf8;" horiz-adv-x="1251" d="M127 516q0 -136 41 -248q26 -63 86 -135l-109 -141l93 -72l104 135q125 -78 283 -78q195 0 329 113q170 138 170 440q0 133 -30 232q-24 70 -88 158l108 137l-96 69l-98 -129q-78 47 -146.5 67.5t-150.5 20.5q-202 0 -349 -135q-147 -132 -147 -434zM315 530 q0 195 86.5 300.5t225.5 105.5q100 0 192 -68l-452 -589q-52 101 -52 251zM442 186l451 584q27 -65 33 -104q14 -55 14 -134q0 -198 -88.5 -303.5t-233.5 -105.5q-98 0 -176 63z" />
<glyph unicode="&#xf9;" d="M131 403q0 -109 10 -167q18 -82 58.5 -135t117.5 -89q84 -35 177 -35q211 0 337 179v-156h160v1063h-180v-569q0 -135 -29.5 -207t-99.5 -115q-71 -41 -152 -41t-136 41t-72 113q-13 50 -13 188v590h-178v-660zM354 1475l229 -283h146l-135 283h-240z" />
<glyph unicode="&#xfa;" d="M131 403q0 -109 10 -167q18 -82 58.5 -135t117.5 -89q84 -35 177 -35q211 0 337 179v-156h160v1063h-180v-569q0 -135 -29.5 -207t-99.5 -115q-71 -41 -152 -41t-136 41t-72 113q-13 50 -13 188v590h-178v-660zM452 1192h148l221 283h-236z" />
<glyph unicode="&#xfb;" d="M131 403q0 -109 10 -167q18 -82 58.5 -135t117.5 -89q84 -35 177 -35q211 0 337 179v-156h160v1063h-180v-569q0 -135 -29.5 -207t-99.5 -115q-71 -41 -152 -41t-136 41t-72 113q-13 50 -13 188v590h-178v-660zM244 1192h204l113 172l111 -172h204l-225 283h-192z" />
<glyph unicode="&#xfc;" d="M131 403q0 -109 10 -167q18 -82 58.5 -135t117.5 -89q84 -35 177 -35q211 0 337 179v-156h160v1063h-180v-569q0 -135 -29.5 -207t-99.5 -115q-71 -41 -152 -41t-136 41t-72 113q-13 50 -13 188v590h-178v-660zM280 1270h187v205h-187v-205zM653 1270h189v205h-189v-205z " />
<glyph unicode="&#xfd;" horiz-adv-x="1024" d="M33 1063l401 -1065q-12 -38 -14 -45q-43 -116 -53 -133q-53 -76 -158 -76q-48 0 -103 14l21 -168q61 -20 117 -20q86 0 147.5 40.5t110.5 131.5q38 70 100 240l404 1081h-179l-229 -621q-46 -123 -74 -239q-44 160 -75 246l-222 614h-194zM420 1192h148l221 283h-236z " />
<glyph unicode="&#xfe;" d="M135 -408h180v519q70 -76 125 -101q67 -33 154 -33q127 0 237 70.5t166 196.5q60 132 60 297q3 150 -52.5 276t-161 199.5t-237.5 68.5q-99 0 -164 -32q-55 -29 -127 -103v516h-180v-1874zM297 524q0 205 88 312q89 108 203 108q124 0 204 -105t80 -298q0 -204 -82 -311 t-208 -107q-125 0 -205 103t-80 298z" />
<glyph unicode="&#xff;" horiz-adv-x="1024" d="M33 1063l401 -1065q-12 -38 -14 -45q-43 -116 -53 -133q-53 -76 -158 -76q-48 0 -103 14l21 -168q61 -20 117 -20q86 0 147.5 40.5t110.5 131.5q38 70 100 240l404 1081h-179l-229 -621q-46 -123 -74 -239q-44 160 -75 246l-222 614h-194zM243 1270h187v205h-187v-205z M616 1270h189v205h-189v-205z" />
<glyph unicode="&#x152;" horiz-adv-x="2048" d="M127 735q0 -321 139 -528q153 -234 455 -234q264 0 399 240v-213h865v174h-682v500h600v170h-600v448h647v174h-830v-198q-135 221 -399 221q-309 0 -453 -217q-141 -214 -141 -537zM330 719q-3 127 16.5 230.5t55.5 173t87.5 117t108.5 69.5t121 24q160 0 274 -141 q117 -138 117 -447q0 -331 -115 -473q-114 -141 -276 -141q-159 0 -275 143q-114 144 -114 445z" />
<glyph unicode="&#x153;" horiz-adv-x="1933" d="M82 516q0 -257 137 -397q139 -142 363 -142q245 0 395 197q62 -93 168.5 -145t238.5 -52q179 0 297.5 88.5t161.5 253.5l-180 27q-32 -109 -103 -166t-169 -57q-139 0 -228 98.5t-90 261.5h782q3 300 -133 451t-356 151q-120 0 -220.5 -53.5t-168.5 -148.5 q-53 91 -156.5 146.5t-236.5 55.5q-151 0 -269 -67.5t-176 -198.5q-57 -129 -57 -303zM266 532q-6 174 85.5 293t223.5 111q139 0 227.5 -105.5t88.5 -295.5q0 -197 -92 -306q-90 -106 -224 -106q-145 0 -237 127q-72 101 -72 282zM1079 629q10 140 93 223.5t204 83.5 q122 0 200 -79t91 -228h-588z" />
<glyph unicode="&#x160;" horiz-adv-x="1366" d="M92 471q8 -228 173 -366.5t452 -131.5q114 -3 217.5 33t175 97t112.5 143t38 168q0 247 -252 358q-80 38 -324 92q-235 55 -293 107q-55 52 -55 129q0 97 84.5 159t249.5 62q170 0 257 -71t101 -212l189 15q-9 200 -157 318t-396 118q-146 5 -267.5 -48.5t-188 -148 t-61.5 -205.5q0 -212 209 -319q78 -41 283 -92q193 -47 262 -72q172 -61 172 -207q0 -105 -99.5 -177.5t-264.5 -72.5q-122 0 -223 43.5t-152 114.5q-48 73 -60 180zM336 1831l217 -283h192l226 283h-205l-111 -172l-112 172h-207z" />
<glyph unicode="&#x161;" horiz-adv-x="1024" d="M63 317q30 -172 139 -256t314 -84q185 -6 308 95t120 239q0 179 -160 248q-74 33 -268 86q-125 33 -158 45q-45 16 -69 47q-23 30 -23 64q0 59 57 97t173 38q207 0 233 -174l176 26q-17 148 -121 220t-301 77q-79 0 -152 -20.5t-116 -52.5q-57 -38 -90 -100.5t-33 -131.5 q0 -80 40.5 -143t115.5 -100q71 -35 274 -86q146 -40 185 -62q53 -38 53 -98q0 -71 -63.5 -119.5t-180.5 -48.5q-241 0 -276 223zM186 1475l217 -283h193l225 283h-205l-110 -172l-113 172h-207z" />
<glyph unicode="&#x178;" horiz-adv-x="1366" d="M4 1466l567 -843v-623h195v623l584 843h-226l-284 -432q-102 -155 -160 -258q-65 121 -150 248l-286 442h-240zM397 1557h187v205h-187v-205zM770 1557h189v205h-189v-205z" />
<glyph unicode="&#x17d;" horiz-adv-x="1251" d="M41 0h1159v174h-936l88 102l824 1016v174h-1051v-174h819q-78 -82 -153 -174l-750 -940v-178zM315 1831l217 -283h193l225 283h-205l-110 -172l-113 172h-207z" />
<glyph unicode="&#x17e;" horiz-adv-x="1024" d="M41 0h940v156h-492q-79 0 -229 -11l113 123l573 674v121h-866v-148h432q72 0 205 7l-676 -777v-145zM223 1475l217 -283h193l225 283h-205l-110 -172l-113 172h-207z" />
<glyph unicode="&#x192;" d="M45 -406q132 -24 223 -24q115 0 175.5 57.5t86.5 202.5l191 1092h203l26 141h-205l21 102q16 100 43 130t86 30q48 0 154 -25l36 154q-130 39 -215 39q-165 0 -241 -133q-23 -52 -43 -164l-23 -133h-203l-22 -141h199l-177 -1043q-13 -90 -41.5 -120.5t-85.5 -30.5 q-54 0 -151 20z" />
<glyph unicode="&#x2c6;" horiz-adv-x="679" d="M25 1192h204l113 172l111 -172h204l-225 283h-192z" />
<glyph unicode="&#x2dc;" horiz-adv-x="679" d="M8 1219h133q-3 50 21 71q23 23 53 23q28 0 100 -35q99 -57 164 -57q88 0 142 59t55 168h-131q-4 -49 -21.5 -67.5t-50.5 -18.5q-34 0 -94 31q-109 53 -170 53q-87 0 -146 -62q-58 -61 -55 -165z" />
<glyph unicode="&#x10a0;" horiz-adv-x="995" d="M84 555q0 -555 416 -555q411 0 411 598q0 281 -194 481q-196 202 -205 457h-180q3 -295 198 -487q197 -191 197 -451q0 -430 -227 -430q-230 0 -230 389v127h-186v-129z" />
<glyph unicode="&#x10a1;" horiz-adv-x="997" d="M86 512q-3 -512 416 -512q411 0 411 512q0 346 -321 434q138 114 135 328q-41 263 -463 260h-151v-424h157v254q262 0 283 -137q-21 -168 -139 -277q-328 -91 -328 -438zM274 512q0 268 230 274q223 -6 223 -274q0 -344 -225 -344q-228 0 -228 344z" />
<glyph unicode="&#x10a2;" horiz-adv-x="1157" d="M90 461q-6 -460 492 -463q487 3 487 463q0 398 -371 444q0 41 113 111t113 176q0 345 -340 342q-348 0 -351 -283v-110h185v110q0 114 166 111q152 3 161 -170q0 -78 -131 -148q-130 -66 -133 -131q-397 -56 -391 -452zM270 461q-3 286 316 289q299 0 299 -295 q0 -287 -301 -287q-317 0 -314 293z" />
<glyph unicode="&#x10a3;" horiz-adv-x="1638" d="M84 1016q0 -1016 1022 -1016h186v168h-184q-840 0 -840 848q0 348 232 348q226 0 229 -393q-3 -529 410 -529q414 0 411 531v2q0 561 -411 561q-229 0 -320 -172q-91 172 -319 172q-375 0 -416 -520zM911 975q0 389 228 389q227 0 227 -389q0 -361 -227 -361 q-228 0 -228 361z" />
<glyph unicode="&#x10a4;" horiz-adv-x="995" d="M84 430q3 -429 410 -432q417 3 417 432v684q0 422 -411 422q-417 0 -414 -379q0 -300 307 -330v181q-125 24 -125 141q0 214 226 217q233 0 233 -252v-684q0 -262 -227 -262q-232 0 -232 262v82h-184v-82z" />
<glyph unicode="&#x10a5;" horiz-adv-x="995" d="M84 430q0 -430 416 -430q411 0 411 430v82q0 227 -176 301q176 129 176 334q0 389 -411 389q-417 0 -414 -422v-100h182v100q0 251 228 248q231 3 231 -221q0 -222 -203 -252h-153v-168h153q203 -6 203 -209v-82q0 -262 -227 -262q-232 0 -232 262v209h-184v-209z" />
<glyph unicode="&#x10a6;" horiz-adv-x="1208" d="M45 1141q15 -321 274 -361q-85 -51 -94 -278q9 -502 445 -502q454 0 454 512q0 240 -143 350q-141 111 -242 99q60 85 60 190q-15 347 -389 385q-356 -38 -365 -395zM223 1149q15 194 187 215q202 -21 208 -215q-9 -217 -208 -229q-175 27 -187 229zM410 512 q0 288 268 291q248 -12 248 -291q0 -344 -256 -344q-260 0 -260 344z" />
<glyph unicode="&#x10a7;" horiz-adv-x="1638" d="M84 512q0 -512 408 -512q419 0 419 512v547q0 305 197 305q258 0 258 -305v-547q0 -344 -258 -344v-168q223 -5 334.5 123t111.5 389v547q0 477 -446 477q-249 0 -295 -223q-46 223 -313 223q-416 0 -416 -477v-547zM268 512v547q0 305 232 305q227 0 227 -305v-547 q0 -344 -227 -344q-232 0 -232 344z" />
<glyph unicode="&#x10a8;" horiz-adv-x="995" d="M84 512q0 -453 336 -512v168q-152 30 -152 344v547q0 305 232 305q227 0 227 -305v-547q0 -314 -145 -344v-168q329 56 329 512v547q0 477 -411 477q-416 0 -416 -477v-547z" />
<glyph unicode="&#x10a9;" horiz-adv-x="995" d="M84 430q0 -430 416 -430q411 0 411 430v82q0 227 -176 301q176 129 176 334q-21 351 -497 389v-174q313 -18 313 -221q0 -222 -203 -252h-153v-168h153q203 -6 203 -209v-82q0 -262 -227 -262q-232 0 -232 262v82h-184v-82z" />
<glyph unicode="&#x10aa;" horiz-adv-x="2275" d="M86 975q64 -873 1153 -975h414v168h-414q-906 59 -971 809q0 387 232 387q227 0 227 -363v-174h184v174q0 363 228 363q227 0 227 -363v-174h184v174q3 363 230 363t227 -363q-12 -332 -258 -344v-168q411 21 432 512q9 535 -401 535q-227 0 -322 -203q-92 203 -319 203 q-229 0 -318 -203q-95 203 -321 203q-417 0 -414 -561z" />
<glyph unicode="&#x10ab;" horiz-adv-x="995" d="M84 512q0 -512 416 -512q411 0 411 512v602q0 422 -411 422q-417 0 -414 -389h180q3 216 228 219q233 -3 233 -252v-231q-89 83 -233 92q-410 -21 -410 -463zM268 512q0 276 226 276q233 -9 233 -276q0 -344 -227 -344q-232 0 -232 344z" />
<glyph unicode="&#x10ac;" horiz-adv-x="995" d="M86 506q-3 -506 410 -506q415 0 415 512q0 460 -415 463q-114 -3 -228 -117v256q0 250 232 250h411v172h-415q-413 0 -410 -422v-608zM268 512q0 267 228 276q231 -3 231 -276q0 -344 -231 -344q-228 0 -228 344z" />
<glyph unicode="&#x10ad;" horiz-adv-x="1638" d="M84 512q0 -459 416 -512v168q-232 41 -232 344v547q0 305 232 305q227 0 227 -250v-510h184v502q0 258 197 258q258 0 258 -305v-547q0 -344 -256 -344v-168q443 52 440 500v559q0 477 -442 477q-198 0 -289 -172q-91 172 -319 172q-416 0 -416 -477v-547z" />
<glyph unicode="&#x10ae;" horiz-adv-x="995" d="M84 430q0 -430 412 -430q413 0 413 430q0 285 -204 373q204 88 204 311q0 422 -643 422h-180v-170h180q458 0 461 -252v-4q-3 -219 -231 -219h-154v-176h152q233 3 233 -285q0 -262 -233 -262q-226 0 -226 262v131h-184v-131z" />
<glyph unicode="&#x10af;" horiz-adv-x="1130" d="M45 1047q0 -383 326 -383q334 0 334 395q0 143 -101 305h258v-934q0 -262 -227 -262t-227 240v47h-185v-47q0 -407 410 -410q414 3 414 432v1106h-658v-160q128 -203 131 -319q0 -234 -151 -234q-142 3 -142 224v139h-182v-139z" />
<glyph unicode="&#x10b0;" horiz-adv-x="1638" d="M86 506q-3 -506 410 -506v168q-228 0 -228 344q0 276 228 276q231 -3 231 -309v-172h182v172q0 309 230 309q225 -3 225 -276q0 -344 -225 -344v-168q415 0 415 506q0 469 -430 469q-213 0 -305 -154q-92 151 -323 154q-228 53 -228 225q0 163 226 166h870v170h-870 q-411 0 -408 -340q-3 -195 188 -297q-191 -102 -188 -393z" />
<glyph unicode="&#x10b1;" horiz-adv-x="993" d="M84 453q0 -453 410 -453q415 0 415 453q0 158 -92 258q-93 101 -90 262h-174q0 -187 86 -273q87 -87 90 -247q-3 -285 -233 -285q-227 0 -230 285v1083h-182v-1083z" />
<glyph unicode="&#x10b2;" horiz-adv-x="1452" d="M84 514q0 -515 688 -512q594 -3 594 510q0 409 -391 418q164 59 164 258q0 348 -346 348q-344 0 -344 -348q15 -199 157 -264q-154 -65 -157 -248q15 -276 370 -258v153q-174 0 -192 105q3 152 121 155h110q328 -21 328 -319q0 -344 -414 -344q-504 0 -504 346v727h-184 v-727zM627 1188q3 176 166 176q170 0 170 -176q3 -188 -170 -191q-166 0 -166 191z" />
<glyph unicode="&#x10b3;" horiz-adv-x="1136" d="M45 1364h188q127 0 127 -238v-225h187v225q0 238 160 238q146 0 143 -250v-706q0 -240 -256 -240q-275 0 -275 240v249h-182v-249q0 -407 457 -410q429 3 459 410v702q0 214 -86.5 319.5t-259.5 104.5q-159 3 -246 -143q-103 145 -232 145h-184v-172z" />
<glyph unicode="&#x10b4;" horiz-adv-x="1638" d="M84 1022q0 -522 410 -528q417 0 417 528q0 342 197 342q258 0 258 -250q0 -314 -139 -317h-121v-170h121q139 -3 139 -197q0 -262 -283 -262q-267 0 -276 168h-180q27 -335 456 -338q467 3 467 432q0 198 -166 289q169 79 166 395q0 422 -442 422q-196 0 -295 -172 q-85 172 -313 172q-416 0 -416 -514zM268 1022q0 342 232 342q227 0 227 -342q0 -356 -233 -356q-226 3 -226 356z" />
<glyph unicode="&#x10b5;" horiz-adv-x="993" d="M84 430q0 -431 410 -428q415 -3 415 428v1106h-184v-422q-131 85 -246 88q-313 -3 -313 -371h182q3 195 135 201q242 -30 242 -194v-408q0 -262 -229 -262q-227 0 -230 262v158h-182v-158z" />
<glyph unicode="&#x10b6;" horiz-adv-x="1638" d="M86 1059q-3 -1059 1053 -1059h227v168h-227q-871 0 -871 891q0 305 232 305q227 0 227 -305v-307h184v307q0 305 228 305q227 0 227 -305q0 -375 -258 -375v-172q446 0 446 547q0 477 -415 477q-228 0 -320 -176q-92 176 -319 176q-417 0 -414 -477z" />
<glyph unicode="&#x10b7;" horiz-adv-x="995" d="M84 430q0 -429 412 -432q415 3 415 432v1106h-184v-477q0 -219 -231 -293q-228 0 -228 293q0 333 105 477h-168q-121 -145 -121 -477q0 -460 416 -463q157 3 227 143v-309q0 -262 -231 -262q-228 0 -228 262v25h-184v-25z" />
<glyph unicode="&#x10b8;" horiz-adv-x="1026" d="M45 1366q234 0 240 -184v-74h174v74q6 184 159 184q119 0 140 -252v-221q-106 65 -228 68q-416 0 -413 -482q0 -479 413 -479q412 0 412 479v635q-9 423 -324 420q-161 3 -245 -150q-66 153 -328 150v-168zM299 479q3 306 231 309q228 -3 228 -309q0 -311 -228 -311 t-231 311z" />
<glyph unicode="&#x10b9;" horiz-adv-x="995" d="M86 0h182v412q0 303 232 303q209 -15 227 -285q0 -297 -115 -430l179 -31q120 164 120 461q-27 346 -254 428q116 173 119 342q-3 336 -336 336q-357 0 -354 -518v-1018zM268 782v236q0 345 172 348q153 -3 156 -166q-9 -168 -96 -321q-165 -9 -232 -97z" />
<glyph unicode="&#x10ba;" horiz-adv-x="1179" d="M84 512q0 -512 514 -512q498 0 498 512q0 206 -252 291q253 89 250 334q3 399 -414 399v-172q229 0 229 -225q-15 -248 -239 -248h-95v-174h101q209 0 233 -205q3 -344 -311 -344q-330 0 -330 344v547q0 331 146 477h-189q-141 -144 -141 -477v-547z" />
<glyph unicode="&#x10bb;" horiz-adv-x="995" d="M84 512q0 -512 416 -512q411 0 411 512v1024h-184v-678q-52 88 -227 109q-416 0 -416 -455zM268 512q0 276 226 276q233 -3 233 -276q0 -344 -227 -344q-232 0 -232 344z" />
<glyph unicode="&#x10bc;" horiz-adv-x="1013" d="M84 512q3 -512 416 -512q411 0 411 512q0 463 -415 463q-135 0 -228 -96v245q0 239 162 242q145 -3 145 -184v-35h175v35q6 182 221 182v172q-214 0 -314 -152q-84 152 -227 152q-347 0 -344 -408v-4zM268 512q0 276 226 276q233 0 233 -276q0 -344 -227 -344 q-232 0 -232 344z" />
<glyph unicode="&#x10bd;" horiz-adv-x="995" d="M84 455l2 -25q0 -429 408 -432q417 3 417 422q0 264 -247 438q35 41 63 123h182v158h-182q-28 86 -82 131v264h-170v-178q-21 8 -82 8q-310 -21 -307 -307q-3 -288 307 -309l133 22q201 -154 201 -340q0 -262 -227 -262q-232 0 -232 262v25h-184zM268 1059q0 151 160 151 q147 0 150 -151q-6 -157 -158 -160q-152 0 -152 160z" />
<glyph unicode="&#x10be;" horiz-adv-x="993" d="M84 512q0 -512 412 -512q413 0 413 512q0 460 -413 463q-150 -3 -228 -96v657h-184v-1024zM268 512q0 276 228 276q229 -3 229 -276q0 -344 -229 -344q-228 0 -228 344z" />
<glyph unicode="&#x10bf;" horiz-adv-x="995" d="M84 430q0 -429 410 -432q375 3 415 358q0 181 -164 375q-160 189 -163 311v103l323 -123v166l-323 125v223h-174v-170l-324 129v-170l319 -127v-160q0 -157 160 -346q161 -185 164 -336q-44 -188 -231 -188q-228 0 -228 262v141h-184v-141z" />
<glyph unicode="&#x10c0;" horiz-adv-x="995" d="M84 412q0 -412 412 -412q413 0 413 356q0 159 -106 240q106 72 106 203q0 103 -106 178q106 81 106 223q0 336 -516 336h-268v-172h268q332 0 332 -164q0 -141 -98 -135h-215v-170h206q109 -3 109 -98q0 -114 -109 -117h-206v-168h206q109 0 109 -156q0 -188 -231 -188 q-228 0 -228 244v43h-184v-43z" />
<glyph unicode="&#x10c1;" horiz-adv-x="1052" d="M84 430q0 -430 436 -430q447 0 447 383q0 189 -117 274q118 92 115 197q3 100 -105 199q108 85 105 184q3 299 -433 299v-172q248 0 254 -127q-6 -97 -102 -100h-152v-183h152q96 0 102 -100q-6 -104 -100 -104h-154v-177h154q94 -3 94 -190q0 -215 -258 -215 q-254 0 -254 262v961h-184v-961z" />
<glyph unicode="&#x10c2;" horiz-adv-x="995" d="M86 -16v-189q184 24 414 205q228 -181 405 -205v182q-173 20 -237 58q243 132 243 477v541q0 484 -415 481q-413 3 -410 -481v-541q0 -344 240 -473q-58 -40 -240 -55zM268 512v541q0 311 228 311q231 0 231 -311v-541q0 -344 -227 -344q-232 0 -232 344z" />
<glyph unicode="&#x10c3;" horiz-adv-x="995" d="M84 1176h184v188h459q-65 -391 -233 -391h-152v-180h152q233 -3 233 -363q0 -262 -227 -262q-232 0 -232 231v113h-182v-104q0 -407 408 -410q417 3 417 432q0 426 -231 461q231 163 231 645h-827v-360z" />
<glyph unicode="&#x10c4;" horiz-adv-x="995" d="M84 430q0 -429 412 -432q415 3 415 432q0 288 -258 383q258 102 258 416v307q-164 -173 -415 -170q-228 0 -228 170h-184q0 -335 412 -344q86 0 233 39q-3 -271 -233 -332h-154v-178h174q211 -37 211 -291q0 -262 -231 -262q-228 0 -228 262v25h-184v-25z" />
<glyph unicode="&#x10c5;" horiz-adv-x="1116" d="M84 356q0 -355 416 -358q411 3 411 358v97h121v174l-121 -2v274h121v176h-121v125q0 336 -411 336q-416 0 -416 -336q0 -356 215 -448q-215 -95 -215 -396zM268 356q0 302 226 308h233v-308q0 -188 -227 -188q-232 0 -232 188zM268 1200q0 164 232 164q227 0 227 -164 v-356h-233q-226 0 -226 356z" />
<glyph unicode="&#x10c6;" horiz-adv-x="1640" d="M84 1047q3 -492 432 -492v176q-246 9 -246 316q0 317 230 317q227 0 227 -322v-686q0 -188 -227 -188v-168q413 0 413 356v283q110 -84 222 -84q419 0 419 483q0 498 -413 498q-227 0 -330 -145q-83 145 -311 145q-413 0 -416 -489zM913 1042q0 322 228 322 q229 0 229 -322q0 -303 -229 -303q-228 0 -228 303z" />
<glyph unicode="&#x10d0;" horiz-adv-x="970" d="M82 465q0 -97 26 -181t75 -147.5t126.5 -100t173.5 -36.5q122 0 216 69t142 182.5t48 250.5q0 125 -96 252.5t-238 197.5q-45 22 -74 68t-30 113h-172q0 -28 11 -51.5t42 -49t52 -39.5t78 -47t83 -49q53 -33 88 -78.5t51.5 -100.5t22.5 -104.5t6 -111.5 q0 -118 -11 -201.5t-29 -131.5t-49.5 -75t-63 -35t-77.5 -8q-53 0 -91 18.5t-67 64.5t-43.5 129t-15.5 206q0 67 33 152l-109 47q-46 -34 -77 -87.5t-31 -115.5z" />
<glyph unicode="&#x10d1;" horiz-adv-x="972" d="M82 541q2 -241 110 -391t302 -150q185 0 291 150t106 391q0 215 -83 361t-226 183v195q0 40 -9 66.5t-28 41t-40 22.5t-52 16l-6 1.5t-5 1t-6 1.5q-145 42 -145 118h-176q0 -62 39 -89.5t118 -43.5q14 -3 35.5 -5t33.5 -4t27.5 -6.5t24 -13t16.5 -23t11.5 -36.5t3.5 -53 v-191q-158 -35 -249 -180.5t-93 -361.5zM266 547q0 184 26 294t74.5 159.5t131.5 64.5q81 -13 127.5 -63.5t69 -158t22.5 -290.5v-25q0 -477 -225 -477q-128 0 -177 109.5t-49 386.5z" />
<glyph unicode="&#x10d2;" horiz-adv-x="1030" d="M61 35q0 -208 121 -336.5t334 -128.5q206 0 329.5 131t123.5 336q0 174 -119.5 295.5t-290.5 142.5q256 180 256 354q0 118 -95 186t-261 68q-151 0 -236.5 -61.5t-85.5 -163.5q0 -2 -1 -20.5t0 -29.5t3.5 -33t10 -40t19 -40t32 -43.5t47.5 -41.5l86 103 q-10 9 -32.5 27.5t-32 28t-23 25t-18.5 31.5t-5 35q0 81 70.5 127.5t163.5 46.5q92 0 137 -49.5t45 -163.5q0 -74 -10.5 -130t-32.5 -95.5t-45 -65.5t-59 -55q-202 -35 -316.5 -152t-114.5 -288zM242 43q1 108 21 183.5t60.5 118.5t85.5 64.5t111 34.5q67 -12 113.5 -33.5 t85 -64t57.5 -115t19 -176.5v-20q0 -217 -77.5 -317.5t-203.5 -100.5q-129 0 -200 100t-72 326z" />
<glyph unicode="&#x10d3;" horiz-adv-x="1550" d="M82 563q0 -121 62.5 -263t174.5 -260.5t238 -156.5q-229 -21 -305 -90l82 -72q121 119 309 105q58 -3 102.5 -15.5t76 -30t62 -51t51.5 -64.5t52 -85h174q-31 99 -139.5 175.5t-351.5 156.5q-96 32 -168.5 84.5t-116.5 114t-72 140t-38 153.5t-11 163q1 83 6 147 t18 126.5t34.5 103t57 65.5t83.5 25q219 0 209 -471q0 -138 43.5 -249.5t133.5 -181t214 -69.5q188 0 296.5 143t108.5 374q0 238 -103 370.5t-304 132.5q-110 0 -195 -54.5t-125 -139.5q-42 93 -105 143.5t-171 50.5q-110 0 -198 -70t-136.5 -188.5t-48.5 -261.5zM827 569 q-1 174 28 279t79 145.5t127 40.5q79 0 127.5 -40t76 -144t27.5 -281v-4q0 -229 -60.5 -341.5t-168.5 -112.5q-110 0 -172.5 112.5t-63.5 345.5z" />
<glyph unicode="&#x10d4;" horiz-adv-x="997" d="M82 -76q0 -160 108 -256t299 -96q189 0 297.5 102.5t108.5 276.5v727q0 186 -100.5 295.5t-288.5 109.5q-182 0 -281.5 -92.5t-99.5 -253.5q0 -122 74.5 -215.5t203.5 -120.5v189q-6 1 -31.5 6t-37.5 8.5t-33.5 14.5t-32 25t-19.5 39.5t-9 59.5q0 135 80 213t192 78 q103 0 152 -84t49 -272v-748q0 -92 -17 -155t-49 -96t-70.5 -46.5t-89.5 -13.5q-53 0 -91.5 13.5t-69.5 47t-46.5 94.5t-15.5 150q0 173 58 219l-80 62q-56 -33 -108 -111t-52 -170z" />
<glyph unicode="&#x10d5;" horiz-adv-x="974" d="M82 -102q0 -150 114 -238t285 -88q201 0 306.5 87t103.5 249v174q-1 113 -69.5 189.5t-174.5 111.5v18q97 35 170.5 130t73.5 186q0 180 -97.5 273t-289.5 93q-183 0 -282 -77.5t-99 -217.5q0 -83 29.5 -142t105.5 -99l94 112q-2 2 -13 11t-15 12.5t-13.5 12t-14 13.5 t-12 13.5t-11 15.5t-8 15.5t-6 16.5t-1.5 17q0 137 52.5 192.5t195.5 55.5q116 0 161.5 -73.5t45.5 -243.5q0 -273 -189 -273h-102v-82h102q33 0 64 -13.5t60 -43t47 -87t18 -136.5v-176q0 -287 -228 -287q-227 0 -227 281q0 49 1 76.5t8.5 67t21.5 65.5l-76 67 q-51 -44 -91 -116.5t-40 -161.5z" />
<glyph unicode="&#x10d6;" horiz-adv-x="983" d="M51 1266q0 -86 54 -147.5t157 -84.5l17 -45q-71 -48 -132 -183t-61 -278q0 -229 110.5 -378.5t295.5 -149.5q180 0 294.5 151.5t114.5 380.5q0 193 -98 338t-234 164l-10 43q69 54 99 94t30 97q0 143 -76.5 210.5t-240.5 67.5q-320 0 -320 -280zM209 1264q0 231 160 231 q82 0 125 -43t43 -160v-26q0 -51 -3.5 -87t-13.5 -60.5t-19.5 -39t-30.5 -24t-37 -13t-48 -8.5q-73 -12 -124.5 45t-51.5 185zM262 528q0 478 227 478q106 0 166 -115.5t60 -347.5v-25q0 -467 -223 -467q-123 0 -176.5 111.5t-53.5 365.5z" />
<glyph unicode="&#x10d7;" horiz-adv-x="1560" d="M82 543q0 -235 107.5 -389t293.5 -154q123 0 215.5 70.5t139.5 189t47 266.5q0 116 10.5 204.5t34 159t66 107.5t102.5 37q57 0 96 -32t61 -95.5t31.5 -147t9.5 -198.5q0 -185 -52 -305t-169 -205l12 -74q130 72 212.5 148.5t131 184.5t48.5 245q0 261 -91 394.5 t-288 133.5q-108 0 -182.5 -67.5t-102.5 -169.5q-24 97 -118.5 167t-215.5 70q-183 0 -291 -152t-108 -388zM260 547q0 252 52 369.5t173 117.5q67 0 113 -37.5t70.5 -108t34.5 -154.5t10 -195v-27q0 -212 -59 -336.5t-171 -124.5q-108 0 -165.5 128.5t-57.5 367.5z" />
<glyph unicode="&#x10d8;" horiz-adv-x="978" d="M82 543q0 -191 74.5 -346t205.5 -234l19 53q-42 65 -63.5 115.5t-36.5 153.5t-15 260q0 255 50 372t178 117q123 0 172 -118t49 -369v-4q0 -156 -14 -256t-36 -153.5t-65 -115.5l18 -57q129 82 204 237.5t75 344.5q0 153 -46 274t-138.5 193.5t-218.5 72.5 q-128 0 -223 -72.5t-142 -194t-47 -273.5z" />
<glyph unicode="&#x10d9;" horiz-adv-x="974" d="M82 -72q0 -168 106 -262t297 -94q189 0 298.5 100.5t109.5 274.5v143q0 55 -25 103.5t-69.5 84.5t-92.5 62t-106 47v37q130 41 168 60q95 47 117 136q8 33 8 72q0 167 -147.5 262.5t-409.5 94.5v-115q68 37 176 37q56 0 96 -23t61.5 -64t31.5 -89.5t10 -108.5 q0 -135 -60 -188.5t-166 -53.5h-102v-73h102q226 0 226 -265v-172q0 -162 -50 -238.5t-176 -76.5q-123 0 -172 77.5t-49 244.5q0 137 43 221l-65 59q-60 -47 -110 -126t-50 -167z" />
<glyph unicode="&#x10da;" horiz-adv-x="2082" d="M82 563q0 -72 37.5 -161t101 -174.5t158 -159t199.5 -109.5l26 -25q-37 -12 -88.5 -40t-84.5 -49.5t-38 -26.5l68 -94q141 200 387 163q489 -78 510 -297h172q-8 140 -166 237t-459 128q-147 15 -260 55.5t-200 111.5t-133 182.5t-46 260.5q0 80 4.5 142.5t18 122.5 t35 99t58 63t85.5 24q97 0 159.5 -101.5t67.5 -257.5l17 -204h112l13 204q3 88 14 152.5t33.5 117.5t62 80t96.5 27q195 0 205 -377l17 -204h112l15 204q3 84 14.5 144.5t35.5 111.5t68 77t107 26q203 0 203 -441q0 -139 -55.5 -271.5t-149.5 -199.5v-61q176 73 281.5 219.5 t105.5 310.5q0 222 -102.5 359t-284.5 137q-105 0 -184 -54.5t-105 -131.5q-108 200 -285 200q-48 0 -91.5 -21t-76.5 -56t-56.5 -70.5t-41.5 -75.5q-125 209 -307 209q-188 0 -286.5 -138.5t-98.5 -367.5z" />
<glyph unicode="&#x10db;" horiz-adv-x="999" d="M82 547q0 -155 48 -278.5t141 -196t216 -72.5q197 0 303.5 144.5t106.5 398.5v635q0 177 -108 272.5t-302 95.5q-179 0 -269.5 -65.5t-92.5 -188.5q0 -68 65 -118l123 40l-51 99q0 94 62 138t165 44q226 0 226 -315v-248q-22 63 -86 107t-140 44q-192 0 -299.5 -147 t-107.5 -389zM260 547q-1 230 61.5 358.5t167.5 128.5q68 0 110.5 -23.5t69 -82.5t36.5 -149t10 -234v-2q0 -269 -50.5 -380.5t-177.5 -111.5q-116 0 -170.5 121.5t-56.5 374.5z" />
<glyph unicode="&#x10dc;" horiz-adv-x="997" d="M102 543q0 -265 105.5 -404t300.5 -139q189 0 298 148t109 395q0 163 -42.5 282t-135 188.5t-229.5 69.5q-86 0 -150 -55.5t-94 -130.5v354q0 112 42.5 178t101.5 66l421 -61v112h-421q-144 0 -225 -80.5t-81 -220.5v-702zM285 545q0 489 223 489q84 0 132 -45 t70.5 -150.5t22.5 -293.5v-6q0 -136 -16.5 -233t-47.5 -151.5t-70.5 -79t-90.5 -24.5q-53 0 -91.5 22t-69.5 75.5t-46.5 152.5t-15.5 244z" />
<glyph unicode="&#x10dd;" horiz-adv-x="1529" d="M82 549q0 -184 113.5 -335t312.5 -230v63q-107 72 -174.5 208.5t-67.5 295.5q0 110 8.5 192t29.5 151t61 104.5t98 35.5q205 0 221 -395l29 -250h106l27 250q16 395 223 395q57 0 96.5 -36t61 -104t30.5 -151t9 -192v-8q0 -165 -66 -300t-178 -198v-59q197 72 311.5 224 t114.5 341q0 240 -102 386t-277 146q-113 0 -196.5 -60.5t-106.5 -158.5q-25 99 -108 159t-195 60q-174 0 -277.5 -147.5t-103.5 -386.5z" />
<glyph unicode="&#x10de;" horiz-adv-x="980" d="M82 385q0 -181 108 -283t297 -102q210 0 311 133.5t101 362.5q0 76 -32 152t-77.5 128.5t-95 85.5t-86.5 35v12q105 29 175.5 99t70.5 159q0 107 -69 155t-226 71q-130 20 -189 64t-63 89h-184q0 -66 56 -110t196 -62q45 -5 70 -8.5t59.5 -10t53.5 -13t42 -17.5t34.5 -25 t23 -33.5t16 -44.5t4.5 -57q0 -129 -33.5 -180t-138.5 -51h-121v-57h121q101 0 156 -105t55 -274q0 -107 -11.5 -186.5t-31 -129t-50 -79.5t-63.5 -41t-76 -11q-101 0 -160 85.5t-59 242.5q0 107 15 160l-115 30q-84 -69 -84 -184z" />
<glyph unicode="&#x10df;" horiz-adv-x="1142" d="M102 522q0 -50 15.5 -95t47 -83.5t88 -61t130.5 -22.5q145 0 224 77t79 189q0 159 -217 361l395 114v-1067q0 -149 -65 -233t-178 -84q-107 0 -165.5 65t-58.5 195v21v24t1 21t2.5 23.5t4.5 20t8 22.5t11 20l-102 71q-65 -96 -82 -136q-20 -46 -19 -87q0 -142 107 -224.5 t295 -82.5q199 0 308 101t109 270v1149l-678 -185v-4q4 -6 13 -16q91 -114 116 -163q41 -80 41 -198q0 -41 -2 -67.5t-10 -58.5t-23.5 -50.5t-44 -31.5t-69.5 -13q-70 0 -95.5 55t-25.5 156q0 20 13 50.5t28 49.5l-61 80q-55 -20 -97.5 -65t-42.5 -107z" />
<glyph unicode="&#x10e0;" horiz-adv-x="1552" d="M84 588q2 -223 114 -382t320 -220v57q-123 57 -187.5 201.5t-64.5 347.5q0 190 60.5 316t152.5 126q100 0 155 -93.5t60 -260.5l31 -234h102l31 234q6 165 67 259.5t162 94.5q59 0 105.5 -60t71 -160.5t24.5 -221.5v-4q0 -202 -65 -346.5t-191 -198.5v-57 q208 61 323.5 221t112.5 379q-2 140 -49 252.5t-134 178.5t-200 66q-111 0 -191.5 -54t-117.5 -140q-41 96 -100.5 145t-177.5 49q-40 0 -85.5 -13.5t-68.5 -35.5h-51q13 55 44 102t74 83t103 66t123.5 52t144 40.5t157.5 31t169 23.5l-16 114q-224 -39 -340.5 -69.5 t-187.5 -66t-156 -103.5q-92 -74 -159.5 -171t-101.5 -196t-49 -185.5t-14 -166.5z" />
<glyph unicode="&#x10e1;" horiz-adv-x="995" d="M102 492q0 -234 107 -363t301 -129q104 0 182 39t126 111.5t71.5 168.5t23.5 216q0 71 -30.5 139t-74.5 116.5t-87.5 89t-74.5 73t-32 51.5q0 11 1.5 21t6.5 18t8 13.5t13 11t14 8.5t17 7.5t17 6t19.5 5.5t18.5 5l-59 102q-66 -20 -112 -85t-46 -111q0 -32 22.5 -76 t54 -90.5t63.5 -95.5t54.5 -106.5t22.5 -109.5q0 -141 -21 -244.5t-72 -168t-128 -64.5q-229 0 -229 432v1043l-50 20h-84l-43 -20v-1034z" />
<glyph unicode="&#x10e2;" horiz-adv-x="1271" d="M82 307q0 -345 142.5 -541t414.5 -196q270 0 410.5 194.5t140.5 536.5q0 123 -21 233t-64 201.5t-104.5 158t-146.5 103.5t-186 37l59 363h-172l59 -363q-102 0 -188.5 -37t-149.5 -103.5t-107 -157.5t-65.5 -199.5t-21.5 -229.5zM266 309q0 195 40 348.5t120.5 246 t189.5 93.5l-57 -598h172l-65 598q110 -1 189.5 -90.5t119 -243.5t39.5 -354q0 -202 -40.5 -355.5t-126.5 -245t-208 -91.5q-120 0 -205.5 91.5t-126.5 245.5t-41 355z" />
<glyph unicode="&#x10e3;" horiz-adv-x="1038" d="M25 952l88 41q107 50 151.5 -13t44.5 -226l21 -232l129 -2l6 234q0 129 39.5 204.5t111.5 75.5q47 0 77.5 -25.5t49.5 -99t19 -198.5v-779q0 -141 -62 -227t-165 -86q-105 0 -165.5 83t-60.5 230q0 167 45 273l-112 55q-107 -144 -107 -326q0 -169 106.5 -265.5 t295.5 -96.5q185 0 292 101.5t107 269.5v768q0 176 -80.5 274t-239.5 98q-86 0 -151.5 -66.5t-85.5 -154.5q-14 51 -31 86.5t-47 68.5t-77.5 49.5t-112.5 16.5h-86v-131z" />
<glyph unicode="&#x10e4;" horiz-adv-x="1589" d="M82 578q0 -90 28.5 -175.5t79.5 -153.5t130 -109.5t172 -41.5q190 0 292.5 119t102.5 344q0 96 5.5 166t21 130.5t41 98t65.5 58t96 20.5q115 0 161 -87t46 -281q0 -337 -139 -340l-117 -2l2 -56h109q72 0 108.5 -70.5t36.5 -197.5v-94q0 -138 -71 -212.5t-218 -74.5 q-219 0 -219 221q0 109 33 166l-82 41q-55 -41 -91.5 -99.5t-37.5 -115.5q1 -45 21 -88t63 -83t123.5 -64.5t189.5 -24.5q236 0 354.5 88t118.5 246v94q0 84 -69.5 160.5t-175.5 113.5l-2 41q36 17 59 29.5t55.5 35t53 48t40.5 60t29.5 81.5t9.5 103q0 199 -102 305 t-287 106q-113 0 -193 -49t-122 -139q-41 87 -121 137.5t-188 50.5q-192 0 -302 -130.5t-110 -374.5zM264 571q0 109 10 188.5t34 144t69.5 97.5t111.5 33q112 0 168 -83t56 -285v-111q0 -211 -58.5 -309t-162.5 -96q-105 2 -166.5 105t-61.5 316z" />
<glyph unicode="&#x10e5;" horiz-adv-x="997" d="M82 -74q0 -162 107.5 -258t295.5 -96t299 101t111 270v1583l-41 20h-88l-43 -20v-652q-22 74 -97 141.5t-153 67.5q-177 0 -264.5 -91.5t-87.5 -250.5q0 -131 74.5 -216t207.5 -107v155q-27 2 -51 9.5t-51.5 24.5t-44 52.5t-16.5 85.5q0 135 59.5 212t173.5 77 q62 0 119 -62.5t89 -146.5t32 -155v-740q0 -147 -62.5 -230t-165.5 -83q-101 0 -159.5 83t-61.5 232q-4 154 33 256l-86 54q-43 -60 -65.5 -98t-43 -97.5t-20.5 -120.5z" />
<glyph unicode="&#x10e6;" horiz-adv-x="1529" d="M82 578q0 -130 64.5 -256.5t168 -222.5t232.5 -158l2 -25q-71 -12 -142 -41.5t-96 -67.5l70 -81q98 92 170 115t199 1q229 -37 229 -258h158q2 105 -89 192.5t-294 153.5q-137 45 -226.5 96.5t-151 127t-88 177t-26.5 244.5q0 210 51 334.5t150 124.5q119 0 172 -77 t59 -238l13 -301h118l11 301q6 162 55.5 238.5t157.5 76.5q64 0 114.5 -61t76.5 -157t26 -206q0 -187 -51.5 -324.5t-153.5 -195.5v-61q188 87 287.5 242.5t99.5 336.5q0 209 -107.5 342t-291.5 133q-219 0 -283 -204q-74 204 -303 204q-178 0 -279.5 -135t-101.5 -370z" />
<glyph unicode="&#x10e7;" horiz-adv-x="993" d="M82 -131q0 -138 105 -218.5t292 -80.5q193 0 302.5 96.5t109.5 267.5v1104l-37 21h-106l-39 -21v-612q0 -69 -57.5 -137t-139.5 -68q-51 0 -93 17t-80 57t-59.5 117t-21.5 186q0 73 14 130.5t32 90.5t49.5 60.5t50 37t52 22.5t38.5 15l-66 127q-67 -27 -121.5 -67.5 t-99 -99.5t-69.5 -140.5t-25 -179.5q0 -221 103.5 -320.5t295.5 -99.5q85 0 128 33.5t69 89.5v-360q0 -144 -61.5 -232t-166.5 -88t-165 73t-60 179q0 133 16 162l-67 59q-44 -29 -83.5 -92t-39.5 -129z" />
<glyph unicode="&#x10e8;" horiz-adv-x="1005" d="M0 1235h131q0 116 10 171.5t29 72t59 16.5q70 0 104 -39t34 -98l4 -150h90l2 150q0 57 35 97t88 40q36 0 58.5 -8.5t39 -28t24.5 -59.5t11.5 -94t3.5 -140v-256q-15 50 -75 94t-150 44q-94 0 -171.5 -41.5t-129 -112t-79.5 -165t-28 -200.5q0 -233 110.5 -380.5 t297.5 -147.5q201 0 303 128t102 374v661q0 191 -68.5 287t-220.5 96q-88 0 -131.5 -35t-68.5 -112q-29 79 -70 113t-131 34q-108 0 -160.5 -72t-52.5 -239zM272 535q0 222 62.5 340t163.5 118q113 0 169 -99.5t56 -338.5v-68q0 -173 -20.5 -265t-68.5 -131.5t-138 -39.5 q-124 0 -174 116.5t-50 367.5z" />
<glyph unicode="&#x10e9;" horiz-adv-x="995" d="M102 0l56 -10h78l49 10v709q0 149 53.5 212.5t169.5 63.5q53 0 92 -19.5t69.5 -66t46 -130t15.5 -204.5v-2q0 -197 -30 -344t-83 -213l115 -16q85 115 132.5 264.5t47.5 308.5q0 180 -93.5 305.5t-225.5 165.5q75 53 120.5 122t45.5 126q0 125 -78.5 194.5t-241.5 69.5 q-151 0 -244.5 -85.5t-93.5 -237.5v-1223zM274 938v293q0 74 7.5 123.5t18.5 77.5t33.5 42t43 17.5t55.5 3.5q92 0 140.5 -60t48.5 -171q0 -35 -5 -64t-17.5 -54.5t-20.5 -39t-27 -39t-25 -33.5q-95 -4 -169.5 -35t-82.5 -61z" />
<glyph unicode="&#x10ea;" horiz-adv-x="1097" d="M82 186q0 -179 52 -316t160 -218.5t259 -81.5q96 0 183 37t148 96.5t96.5 137t35.5 157.5q0 72 -20.5 131t-50.5 96t-74.5 66t-82 44t-83.5 27v25q61 6 114 23.5t98.5 48.5t72 81.5t26.5 114.5q0 51 -17 86.5t-43.5 55t-59 35.5t-65 33.5t-59 41.5t-42.5 68t-15 106h-183 q0 -32 17 -59t44.5 -48.5t61 -42.5t67 -47t61 -56.5t44.5 -75.5t17 -99q0 -81 -15 -132t-47.5 -76t-70 -33.5t-97.5 -8.5h-108l2 -61h106q230 0 230 -317q0 -87 -16 -158.5t-49.5 -128.5t-91 -89t-134.5 -32q-140 0 -219.5 134t-79.5 370v409q0 112 16.5 212.5t36 154.5 t40.5 104t24 64l-129 18q-58 -106 -109 -300.5t-51 -329.5v-267z" />
<glyph unicode="&#x10eb;" horiz-adv-x="999" d="M82 524q0 -233 109.5 -378.5t295.5 -145.5q124 0 218 71t143 192.5t49 275.5v987l-35 20h-104l-43 -20v-578q-30 53 -89 94t-139 41q-191 0 -298 -146.5t-107 -412.5zM260 528q0 130 12 223t30.5 146.5t49.5 84t61 40.5t74 12q79 4 127.5 -37.5t74.5 -154t26 -307.5v-9 q0 -134 -17 -229t-48.5 -147.5t-71 -75.5t-91.5 -23q-40 0 -72.5 13t-62 46t-49.5 86t-31.5 137t-11.5 195z" />
<glyph unicode="&#x10ec;" horiz-adv-x="1003" d="M100 492v671q0 191 68.5 287t220.5 96q88 0 132 -35t69 -112q29 79 70 113t131 34q108 0 160.5 -72t52.5 -239h-132q0 116 -10 171.5t-29 72t-59 16.5q-70 0 -103.5 -38.5t-33.5 -98.5l-4 -150h-90l-2 150q0 57 -35 97t-88 40q-36 0 -58.5 -8.5t-39 -28t-24.5 -59.5 t-11.5 -94t-3.5 -140v-256q15 50 75 94t150 44q124 0 218 -71t141.5 -188t47.5 -260q0 -233 -110 -380.5t-297 -147.5q-406 0 -406 492zM281 477q0 -172 20.5 -262t68 -127t138.5 -37q123 0 173 116.5t50 367.5q0 222 -62 340t-163 118q-113 0 -169 -99.5t-56 -338.5v-78z " />
<glyph unicode="&#x10ed;" horiz-adv-x="968" d="M82 -74q0 -164 108 -259t299 -95q189 0 293.5 97t104.5 265q0 74 -14 129t-36.5 88t-49.5 60l-54 54t-49.5 60.5t-36.5 89t-14 130.5v90q3 2 10.5 8t10 8.5t9 8t9 9.5t7 10.5t6.5 13t4.5 15t3.5 18.5t1 22h180v61h-180q-1 20 -2.5 33t-9 23.5l-10 14t-18.5 15.5t-21 16 v635h-164v-542h-70q-106 0 -170.5 -58t-64.5 -168q0 -113 65.5 -171t167.5 -58l72 -2v-21q0 -49 13.5 -89t35.5 -69.5t48 -58t52 -62t48 -74t35.5 -102.5t13.5 -139q0 -150 -62.5 -231.5t-163.5 -81.5q-99 0 -164 84.5t-65 224.5q0 55 10 116.5t27 98.5l-98 47 q-45 -48 -81 -128.5t-36 -135.5zM301 778q0 82 30 136.5t87 54.5q78 0 125.5 -40.5t54.5 -140.5v-22q-7 -109 -55.5 -150t-132.5 -41q-109 0 -109 203z" />
<glyph unicode="&#x10ee;" horiz-adv-x="999" d="M102 539v987l35 20h105l32 -20v-578q29 52 93.5 93.5t144.5 41.5q124 0 217 -74.5t141 -200.5t48 -284q0 -232 -110 -378t-296 -146q-124 0 -218 71t-143 192.5t-49 275.5zM285 526q0 -134 16.5 -229t48 -147.5t71 -75.5t91.5 -23q51 0 89.5 22t70.5 73.5t49 147.5 t18 234q1 140 -16 240t-49 156t-71.5 82t-90.5 28q-79 4 -127 -37.5t-74 -153.5t-26 -308v-9z" />
<glyph unicode="&#x10ef;" horiz-adv-x="980" d="M82 -70q0 -166 107 -262t298 -96q187 0 296.5 97t109.5 270q0 70 -18 127t-46.5 95.5t-63 71.5t-69 63.5t-63 63t-46.5 79t-18 102.5v207l330 -148v72q-51 26 -165 69t-165 68v399h-129v-358l-338 119v-70q52 -22 169 -55.5t169 -55.5v-239q0 -65 15 -110t39.5 -70 t54 -46t59 -48t54 -64.5t40 -106.5t15.5 -165q0 -154 -51 -237t-179 -83q-68 0 -113.5 22t-69 66t-33 97t-9.5 128q0 153 45 230l-74 55q-46 -33 -98.5 -127.5t-52.5 -159.5z" />
<glyph unicode="&#x10f0;" horiz-adv-x="980" d="M82 385q0 -179 109.5 -282t302.5 -103q120 0 214 55.5t142.5 144t48.5 191.5q0 154 -205 240v26q9 4 42.5 20t44 21.5t36 19.5t35 24t23.5 26t19 33t5 37q0 30 -10.5 53t-34.5 40.5t-44 27.5t-58.5 26t-57.5 25v28q205 90 205 215q0 149 -231 181q-71 10 -113 17 t-93.5 20.5t-76.5 32t-25 42.5h-182q0 -66 307 -116q118 -19 174 -61.5t56 -119.5q0 -95 -33.5 -146.5t-85.5 -51.5l-162 10v-72l154 10q57 3 92 -36t35 -125t-35 -128.5t-92 -39.5l-154 10v-68l154 11q59 3 93 -55t34 -177q0 -102 -17 -171t-49.5 -105t-71 -50t-90.5 -14 q-102 0 -164.5 87t-62.5 241q0 59 19 160l-78 65q-49 -29 -84 -98t-35 -121z" />
<glyph unicode="&#x10f1;" horiz-adv-x="1017" d="M82 -8q13 -215 116.5 -315.5t301.5 -106.5q221 1 328.5 69.5t107.5 194.5q0 39 -13.5 77t-40 73t-71 61.5t-100.5 38.5v45q89 26 157 83t68 103q0 67 -69.5 133t-164.5 93v47q95 23 164.5 89t69.5 134q0 92 -53.5 135t-171.5 66v47q91 25 158 95t67 140q0 40 -37 72 t-90 53.5t-106 40.5t-90 40.5t-38 45.5h-169q1 -26 37.5 -44.5t88.5 -32.5t103.5 -32t88 -53.5t36.5 -87.5q0 -106 -44 -168.5t-98 -62.5h-124v-66h124q49 0 95 -51.5t47 -130.5q1 -98 -46.5 -159.5t-95.5 -61.5h-124v-59l124 -2q45 0 93.5 -65.5t48.5 -147.5t-47.5 -140.5 t-94.5 -58.5h-124v-62h124q57 0 99.5 -60t42.5 -183q0 -102 -62 -151t-198 -50q-101 0 -158 86.5t-74 282.5q0 344 45 626q17 144 17 197q0 175 -49 315h-162q33 -95 33 -315q0 -119 -17 -221q-50 -317 -53 -596z" />
<glyph unicode="&#x10f2;" horiz-adv-x="978" d="M82 575q0 -136 90 -279.5t217 -244.5q-8 -29 -21.5 -50.5t-31.5 -34.5t-34.5 -21.5t-40.5 -12t-40 -5t-41.5 -2t-36.5 -1.5v-135q120 42 202 98t147 144v-2q60 -87 140 -142.5t204 -97.5v135q-9 1 -37.5 2t-42 2.5t-39.5 6t-42 13t-35.5 21.5t-33.5 33.5t-24 48.5 q130 101 222.5 244.5t92.5 279.5q0 241 -108.5 374.5t-303.5 133.5q-193 0 -298 -134t-105 -374zM266 578q0 456 226 456q223 0 223 -456q0 -199 -58.5 -335.5t-164.5 -183.5q-109 44 -167.5 179.5t-58.5 339.5z" />
<glyph unicode="&#x10f3;" horiz-adv-x="978" d="M82 -78q0 -156 105.5 -254t301.5 -98q197 0 302.5 100t105.5 271v26q0 66 -18.5 133t-55.5 131.5t-103 115t-151 73.5v20q140 92 231.5 266t94.5 365h-772v-244h176v187h383v-62q0 -66 -4 -121.5t-13 -114t-26.5 -103.5t-43 -81t-64 -55.5t-87.5 -19.5h-110v-60h110 q109 0 190 -118.5t81 -292.5v-45q0 -324 -223 -324q-230 0 -230 324q0 94 41 176l-115 49q-44 -51 -75 -117t-31 -127z" />
<glyph unicode="&#x10f4;" horiz-adv-x="980" d="M82 -131q0 -138 105 -218.5t305 -80.5q198 0 301.5 98t103.5 269v61q0 64 -40 146.5t-112 156.5t-153 102v29q78 35 130.5 72.5t94.5 91t62 127.5t20 172v233q-238 -199 -407 -196q-107 2 -168.5 64t-61.5 169q0 255 232 322v61q-199 -50 -305.5 -147t-106.5 -236 q0 -123 105.5 -199.5t306.5 -76.5q121 0 223 55v-84q0 -104 -12 -178.5t-31 -119t-50 -70.5t-63 -34.5t-76 -8.5h-151v-58h151q72 0 126 -62t79 -149.5t25 -181.5v-61q0 -320 -223 -320q-116 0 -173 61t-57 191q0 32 4.5 66.5t13 77t11.5 65.5l-119 45q-90 -144 -90 -254z " />
<glyph unicode="&#x10f5;" horiz-adv-x="1095" d="M82 295q0 -295 405 -295q410 0 410 295v264h117v59h-117v310h117v57h-117v268q0 293 -405 293q-410 0 -410 -293q0 -158 101.5 -241.5t299.5 -83.5h234v-310h-234q-199 0 -300 -81.5t-101 -241.5zM266 303q0 256 217 256h234v-246q0 -262 -225 -262q-226 0 -226 252z M266 1251q0 244 223 244q228 0 228 -242v-268h-234q-217 0 -217 266z" />
<glyph unicode="&#x10f6;" horiz-adv-x="1615" d="M84 535q0 -204 123 -363.5t323 -198.5v62q-110 32 -186 178.5t-76 327.5q0 254 63 373.5t167 119.5q56 0 95 -22t68.5 -75t43.5 -147.5t14 -234.5v-668q0 -145 -54.5 -205.5t-170.5 -60.5v-45q208 0 306.5 72.5t98.5 240.5v213q73 -102 225 -102q190 0 300 153t110 400 q0 237 -110.5 383.5t-299.5 146.5q-114 0 -200.5 -64.5t-120.5 -150.5q-37 89 -117 152t-192 63q-128 0 -222.5 -73.5t-141.5 -196.5t-46 -278zM899 561q0 136 16 231t47 146.5t68.5 73.5t87.5 22q52 0 91 -20t72 -70t50 -146t17 -237v-10q0 -187 -29 -300.5t-76.5 -156.5 t-118.5 -43q-114 0 -169.5 117.5t-55.5 392.5z" />
<glyph unicode="&#x10f7;" horiz-adv-x="1132" d="M82 -35q0 -177 130.5 -286t356.5 -109q220 0 344.5 110t137.5 285q0 81 -26.5 162t-74.5 123l-96 -98q5 -5 13.5 -26t16.5 -69t5 -102v-2q-12 -150 -98.5 -243.5t-225.5 -94.5q-134 -2 -218.5 96t-84.5 260q0 173 87.5 305.5t232.5 182.5q155 46 238 126.5t83 186.5 q0 138 -94 224.5t-248 86.5q-82 0 -139 -12t-103 -42t-68 -86t-22 -140l133 4q0 103 47.5 165t153.5 62q71 0 115.5 -66t44.5 -186q0 -232 -324 -344q-155 -53 -236 -178t-81 -295z" />
<glyph unicode="&#x10f8;" horiz-adv-x="972" d="M82 -66v1104h182v-592q0 -124 68.5 -205t159.5 -81q97 0 161 113.5t64 304.5q0 87 -17 161t-36.5 117.5t-55 86t-51.5 56t-47 37.5l65 45q138 -55 227 -186t89 -322q0 -214 -107.5 -337t-291.5 -123q-85 0 -143.5 44.5t-84.5 98.5v-319q0 -144 61.5 -231t166.5 -87 t165 72t60 178q4 62 -17 100l88 60q40 -27 71.5 -72.5t31.5 -87.5q-11 -140 -112.5 -218.5t-286.5 -78.5q-193 0 -301.5 95.5t-108.5 266.5z" />
<glyph unicode="&#x10f9;" horiz-adv-x="1071" d="M82 614q0 -176 121 -306.5t289 -151.5q-132 -93 -194 -169t-62 -165q0 -120 86 -187t249 -67q153 0 247.5 62.5t94.5 162.5q0 26 -4.5 42.5t-35 59.5t-91.5 105l-57 -61q25 -91 25 -146q0 -86 -46 -131t-131 -45q-89 0 -125 48t-36 165q0 60 8 107t18.5 76.5t33 58 t39 43.5t48.5 41q200 35 315 161t115 299q0 208 -120.5 336.5t-333.5 128.5q-206 0 -329.5 -131t-123.5 -336zM256 596v20q0 217 77.5 317.5t203.5 100.5q129 0 200 -100t72 -326q-1 -109 -21.5 -187t-60 -125t-86.5 -72.5t-111 -37.5q-66 11 -113.5 36.5t-85 72t-56.5 122 t-19 179.5z" />
<glyph unicode="&#x10fa;" horiz-adv-x="972" d="M82 586q0 -72 29 -144.5t78 -134t102 -110.5t112 -91q-5 0 -47 -2t-57 -4t-51 -9t-55 -18t-41.5 -31t-36.5 -48l78 -41q15 41 66.5 65t102.5 29.5t103 3.5q26 -1 54.5 -17.5t45 -33t46 -50t38.5 -42.5l66 53q-2 2 -14 19.5t-24.5 31.5t-47 37t-84.5 45 q-118 51 -195.5 175t-77.5 317v2q0 126 16 215t47 138.5t69.5 71t89.5 21.5q104 0 161 -86.5t60 -242.5q2 -93 -4.5 -135.5t-34.5 -67.5l92 -74q20 18 44 50t51.5 96.5t27.5 127.5q0 183 -121 289q-106 92 -276 92q-194 0 -303 -124t-109 -373z" />
<glyph unicode="&#x10fb;" horiz-adv-x="747" d="M61 0h183v172h-183v-172zM61 809h183v174h-183v-174zM502 412h184v172h-184v-172z" />
<glyph unicode="&#x10fc;" horiz-adv-x="499" d="M20 1028q0 -283 207 -283q199 0 211 283q-11 119 -63 189.5t-142 80.5l-122 -88v166q0 80 69 80l256 -2v82h-233q-183 0 -183 -180v-328zM111 1022q3 169 112 184q117 -3 123 -178q0 -205 -119 -205q-116 0 -116 199z" />
<glyph unicode="&#x2000;" horiz-adv-x="917" />
<glyph unicode="&#x2001;" horiz-adv-x="1835" />
<glyph unicode="&#x2002;" horiz-adv-x="917" />
<glyph unicode="&#x2003;" horiz-adv-x="1835" />
<glyph unicode="&#x2004;" horiz-adv-x="611" />
<glyph unicode="&#x2005;" horiz-adv-x="458" />
<glyph unicode="&#x2006;" horiz-adv-x="305" />
<glyph unicode="&#x2007;" horiz-adv-x="305" />
<glyph unicode="&#x2008;" horiz-adv-x="229" />
<glyph unicode="&#x2009;" horiz-adv-x="367" />
<glyph unicode="&#x200a;" horiz-adv-x="101" />
<glyph unicode="&#x2010;" horiz-adv-x="679" d="M63 440h553v183h-553v-183z" />
<glyph unicode="&#x2011;" horiz-adv-x="679" d="M63 440h553v183h-553v-183z" />
<glyph unicode="&#x2012;" horiz-adv-x="679" d="M63 440h553v183h-553v-183z" />
<glyph unicode="&#x2013;" d="M-6 459h1141v145h-1141v-145z" />
<glyph unicode="&#x2014;" horiz-adv-x="2048" d="M0 459h2048v145h-2048v-145z" />
<glyph unicode="&#x2018;" horiz-adv-x="454" d="M127 1012h192v209h-92q1 86 27 130.5t84 69.5l-47 68q-84 -38 -133 -119q-31 -60 -31 -194v-164z" />
<glyph unicode="&#x2019;" horiz-adv-x="454" d="M106 1073l46 -72q92 41 135 123q30 58 30 191v168h-194v-211h94q-1 -84 -28 -131.5t-83 -67.5z" />
<glyph unicode="&#x201a;" horiz-adv-x="454" d="M106 -201l46 -71q92 41 135 122q30 59 30 193v166h-194v-209h94q-3 -162 -111 -201z" />
<glyph unicode="&#x201c;" horiz-adv-x="679" d="M82 1012h194v209h-94q1 85 27 129.5t82 70.5l-43 68q-91 -40 -133 -119q-33 -56 -33 -194v-164zM393 1012h193v209h-94q1 85 27 129.5t83 70.5l-45 68q-91 -40 -133 -119q-31 -60 -31 -194v-164z" />
<glyph unicode="&#x201d;" horiz-adv-x="679" d="M72 1073l43 -72q90 41 133 123q31 60 31 191v168h-193v-211h96q-5 -85 -30.5 -132t-79.5 -67zM381 1073l43 -72q93 41 133 123q31 60 31 191v168h-191v-211h95q-1 -83 -28.5 -130.5t-82.5 -68.5z" />
<glyph unicode="&#x201e;" horiz-adv-x="679" d="M72 -201l43 -71q91 41 133 122q31 60 31 193v166h-193v-209h96q-5 -83 -31 -132t-79 -69zM381 -201l43 -71q93 41 133 122q31 60 31 193v166h-191v-209h95q-3 -160 -111 -201z" />
<glyph unicode="&#x2020;" d="M74 864h397v-1210h182v1210h402v162h-402v406h-182v-406h-397v-162z" />
<glyph unicode="&#x2021;" d="M74 23h401v-369h180v369h402v161h-402v725h402v160h-402v377h-180v-377h-401v-160h401v-725h-401v-161z" />
<glyph unicode="&#x2022;" horiz-adv-x="716" d="M111 717q0 -104 73 -180q74 -74 176 -74q104 0 181 74q75 75 75 180q0 106 -75 178q-76 76 -181 76q-103 0 -176 -76q-73 -73 -73 -178z" />
<glyph unicode="&#x2026;" horiz-adv-x="2048" d="M238 0h204v205h-204v-205zM922 0h204v205h-204v-205zM1606 0h204v205h-204v-205z" />
<glyph unicode="&#x202f;" horiz-adv-x="367" />
<glyph unicode="&#x2030;" horiz-adv-x="2048" d="M35 1098q0 -197 78 -293t213 -96q146 0 216 98t70 297q0 188 -77.5 281.5t-212.5 93.5q-134 0 -210.5 -94t-76.5 -287zM184 1090q0 159 45 219q33 45 97 45q58 0 94 -45q43 -64 43 -215q0 -157 -43 -215q-31 -48 -90 -48q-71 0 -108.5 58.5t-37.5 200.5zM319 -53h134 l600 1542h-131zM762 336q0 -197 78 -293t213 -96q145 0 213.5 97.5t68.5 295.5q0 189 -77 283t-211 94q-133 0 -209 -95t-76 -286zM911 328q0 156 43 217q35 47 99 47q57 0 92 -47q43 -61 43 -215q0 -153 -41 -215q-33 -45 -92 -45q-69 0 -106.5 57.5t-37.5 200.5zM1436 336 q0 -196 77 -292.5t211 -96.5q147 0 217 97.5t70 295.5q0 189 -77.5 283t-211.5 94q-133 0 -209.5 -95t-76.5 -286zM1585 328q0 157 45 217q35 47 94 47t97 -47q43 -61 43 -215t-43 -215q-33 -45 -92 -45q-71 0 -107.5 57t-36.5 201z" />
<glyph unicode="&#x2039;" horiz-adv-x="679" d="M92 526l316 -454h147l-264 454l264 457h-147z" />
<glyph unicode="&#x203a;" horiz-adv-x="679" d="M92 72h148l305 463l-305 448h-148l264 -453z" />
<glyph unicode="&#x205f;" horiz-adv-x="458" />
<glyph unicode="&#x20ac;" d="M-29 535h154q19 -99 53 -185q159 -377 613 -377q147 0 276 60v205q-108 -97 -291 -97q-137 0 -252 68q-158 100 -198 326h594l26 133h-645v92v41h672l28 133h-682q8 77 64 174q59 88 123 135q116 82 285 82q153 0 276 -102l39 188q-128 78 -313 78q-195 0 -355 -86 q-258 -140 -323 -469h-115l-29 -133h131v-41q0 -63 2 -92h-104z" />
<glyph unicode="&#x2122;" horiz-adv-x="2048" d="M225 1343h264v-694h136v694h266v123h-666v-123zM983 649h123v694l219 -694h123l211 684v-684h123v817h-195l-201 -653l-204 653h-199v-817z" />
<glyph unicode="&#x25fc;" horiz-adv-x="1064" d="M0 0v1065h1065v-1065h-1065z" />
</font>
</defs>
</svg>
