<?xml version="1.0" standalone="no"?>
<!DOCTYPE svg PUBLIC "-//W3C//DTD SVG 1.1//EN" "http://www.w3.org/Graphics/SVG/1.1/DTD/svg11.dtd" >
<svg xmlns="http://www.w3.org/2000/svg" xmlns:xlink="http://www.w3.org/1999/xlink" version="1.1">
<metadata></metadata>
<defs>
<font id="bpg_rioni_vera_lightregular" horiz-adv-x="983" >
<font-face units-per-em="2048" ascent="1556" descent="-492" />
<missing-glyph horiz-adv-x="624" />
<glyph unicode=" "  horiz-adv-x="624" />
<glyph unicode="&#x09;" horiz-adv-x="624" />
<glyph unicode="&#xa0;" horiz-adv-x="624" />
<glyph unicode="!" horiz-adv-x="786" d="M340 0h108v161h-108v-161zM340 816q4 -61 6 -100q3 -68 14 -221h69q1 7 2 19.5t2 18.5q8 125 15 283v621h-108v-621z" />
<glyph unicode="&#x22;" horiz-adv-x="903" d="M220 967h73v470h-73v-470zM611 967h73v470h-73v-470z" />
<glyph unicode="#" horiz-adv-x="1646" d="M153 427h339l-109 -427h63q6 26 13.5 55.5t17.5 66.5t15 59q10 40 30.5 125.5t29.5 120.5h405l-106 -427h61q2 5 40 151q67 265 70 276h354v57h-340l110 444h350v57h-336l106 429h-61q-65 -251 -108 -429h-405l108 429h-63q-75 -301 -80 -319q0 -1 -11 -46t-17 -64h-358 v-57h344l-112 -444h-350v-57zM568 484l112 444h403l-110 -444h-405z" />
<glyph unicode="$" horiz-adv-x="1249" d="M179 79q200 -76 434 -79l2 -311v311q222 15 339.5 102.5t117.5 239.5q0 139 -110 220t-347 118v537q208 -9 362 -69v65q-162 44 -362 53v236v-238q-212 -17 -324 -101t-112 -229q0 -132 104 -210t332 -115v-564q-238 0 -436 99v-65zM269 952q0 113 88.5 182.5t257.5 88.5 v-541q-183 31 -264.5 94.5t-81.5 175.5zM615 39v569q190 -35 278 -104.5t88 -181.5q0 -234 -366 -283z" />
<glyph unicode="%" horiz-adv-x="1867" d="M98 1097q0 -174 83 -275q78 -93 222 -93q142 0 220 93q85 100 85 275q0 174 -85 271q-84 99 -220 99q-137 0 -222 -97q-83 -98 -83 -273zM161 1097q0 158 64.5 248t177.5 90q112 0 177 -91t65 -247q0 -158 -65 -248t-177 -90q-115 0 -178.5 89.5t-63.5 248.5zM458 -29h49 q22 36 178 293.5t235 390.5q386 640 490 812h-49zM1160 338q0 -175 83 -273q80 -94 224 -94q141 0 218 94q84 96 84 273q0 176 -82 273q-85 97 -220 97q-136 0 -224 -97q-83 -98 -83 -273zM1223 338q0 160 65 250t179 90q110 0 175 -91t65 -249q0 -156 -65.5 -247 t-174.5 -91q-113 0 -178.5 90.5t-65.5 247.5z" />
<glyph unicode="&#x26;" horiz-adv-x="1531" d="M126 425q0 -195 143 -327h-2q144 -127 372 -127q249 0 480 200l167 -171h118l-22 24q-118 119 -210 216q181 244 222 484h-87q-24 -224 -173 -447l-568 580q-95 95 -133 159q-36 68 -36 132q0 114 85 187q81 69 208 69q120 0 273 -67v71q-159 59 -295 59q-165 0 -269 -91 q-96 -90 -96 -230q0 -110 120 -265q-297 -219 -297 -456zM224 436q0 102 57 202.5t177 208.5l617 -633q-200 -179 -416 -179q-180 0 -309 114q-126 114 -126 287z" />
<glyph unicode="'" horiz-adv-x="540" d="M234 967h73v470h-73v-470z" />
<glyph unicode="(" horiz-adv-x="765" d="M204 613q0 -432 286 -892h51q-123 227 -179.5 442.5t-56.5 449.5q0 447 234 887h-49q-286 -455 -286 -887z" />
<glyph unicode=")" horiz-adv-x="765" d="M226 -279h53q283 460 283 892q0 427 -283 887h-51q234 -443 234 -887q0 -234 -56.5 -449.5t-179.5 -442.5z" />
<glyph unicode="*" d="M59 824l55 -95l322 195v-362h111v362l322 -195l55 95l-344 187l344 186l-55 95l-322 -195v362h-111v-362l-322 195l-55 -95l344 -186z" />
<glyph unicode="+" horiz-adv-x="1646" d="M212 574h576v-574h71v574h574v75h-574v574h-71v-574h-576v-75z" />
<glyph unicode="," horiz-adv-x="624" d="M204 -246h38q11 21 32.5 63.5t32.5 62.5q28 54 86 165v116h-118v-132z" />
<glyph unicode="-" horiz-adv-x="708" d="M128 493h454v67h-454v-67z" />
<glyph unicode="." horiz-adv-x="624" d="M254 0h116v161h-116v-161z" />
<glyph unicode="/" horiz-adv-x="661" d="M45 -197h67q114 374 201 647q9 29 304 987h-68z" />
<glyph unicode="0" horiz-adv-x="1249" d="M144 718q0 -365 123 -556t358 -191t357.5 191t122.5 556t-123 557t-357 192q-235 0 -358 -192t-123 -557zM252 718q0 684 373 684q374 0 374 -684q0 -685 -374 -685q-373 0 -373 685z" />
<glyph unicode="1" horiz-adv-x="1249" d="M236 1286q7 1 24.5 5t26.5 5q19 4 143.5 29t175.5 36v-1286h-341v-75h785v75h-340v1362h-152q-181 -34 -322 -63v-88z" />
<glyph unicode="2" horiz-adv-x="1249" d="M161 0h875v75h-794q601 615 633 654q86 103 122 187q31 72 31 159q0 176 -124 282q-136 110 -348 110q-152 0 -385 -87v-92q220 104 389 104q148 0 258 -90q102 -96 102 -238q0 -90 -45 -175q-41 -80 -146 -201q-40 -46 -261 -271q-183 -184 -299 -305l-6 -6l-2 -2v-104z " />
<glyph unicode="3" horiz-adv-x="1249" d="M165 31q187 -60 362 -60q270 0 413 112q137 114 137 314q0 132 -72 216q-69 87 -221 120v91q123 31 190.5 108t67.5 185q0 162 -120 249q-125 101 -344 101q-152 0 -366 -55v-79q193 59 348 59q181 0 278.5 -77t97.5 -220q0 -140 -94.5 -214.5t-273.5 -74.5h-137v-69h129 q195 0 303 -89.5t108 -250.5q0 -174 -114.5 -264t-335.5 -90q-193 0 -356 71v-83z" />
<glyph unicode="4" horiz-adv-x="1249" d="M108 364h694v-364h106v364h221v71h-221v1002h-106v-1002h-668l643 1002h-52l-617 -942v-131zM777 1437h25v43z" />
<glyph unicode="5" horiz-adv-x="1249" d="M167 24q205 -53 356 -53q267 0 403 123q138 124 138 350q0 201 -136 344q-145 128 -374 128q-77 0 -232 -51v499h628v73h-716v-647q131 51 285 51q200 0 315 -106q122 -110 122 -291q0 -186 -122 -293q-117 -108 -315 -108q-186 0 -352 71v-90z" />
<glyph unicode="6" horiz-adv-x="1249" d="M151 718q0 -367 134 -567v2q128 -182 366 -182q209 0 336 127q126 132 126 346q0 218 -122 346q-120 126 -328 126q-98 0 -204 -80.5t-211 -231.5q22 398 145 593t354 195q130 0 266 -51v79q-156 47 -274 47q-267 0 -424 -199q-164 -207 -164 -550zM295 444q0 184 94 293 q95 116 262 116q161 0 259 -116q95 -110 95 -293q0 -184 -95 -297q-99 -114 -259 -114q-163 0 -262 114q-94 112 -94 297z" />
<glyph unicode="7" horiz-adv-x="1249" d="M177 1364h763l-525 -1364h108q140 366 269 698q29 77 125.5 326t148.5 386v27h-889v-73z" />
<glyph unicode="8" horiz-adv-x="1249" d="M147 381q0 -198 123.5 -304t354.5 -106t354.5 106t123.5 304q0 126 -75 219h2q-69 83 -236 127v85q128 31 200 111.5t72 193.5q0 159 -112 253q-122 97 -329 97q-206 0 -328 -97q-114 -93 -114 -253q0 -113 69 -192.5t192 -110.5v-90q-152 -37 -224 -124 q-73 -95 -73 -219zM256 381q0 167 102 258h-2q104 92 269 92q166 0 270 -92h-2q102 -93 102 -258q0 -158 -100 -255q-102 -93 -270 -93q-167 0 -269 93h2q-102 91 -102 255zM289 1097q0 145 88.5 225t247.5 80q157 0 246.5 -80.5t89.5 -224.5t-89.5 -224.5t-246.5 -80.5 q-159 0 -247.5 80t-88.5 225z" />
<glyph unicode="9" horiz-adv-x="1249" d="M138 993q0 -218 122 -346h-2q123 -126 330 -126q99 0 205 81t210 234q-22 -400 -145.5 -596.5t-354.5 -196.5q-129 0 -265 51v-78q146 -45 273 -45q271 0 425 196q163 208 163 551q0 365 -128 557t-371 192q-207 0 -337 -130q-125 -131 -125 -344zM246 993q0 178 92 293 q101 116 262 116q166 0 261 -116q95 -114 95 -293q0 -180 -95 -297q-99 -114 -261 -114q-161 0 -260 114q-94 112 -94 297z" />
<glyph unicode=":" horiz-adv-x="661" d="M273 0h116v161h-116v-161zM273 830h116v161h-116v-161z" />
<glyph unicode=";" horiz-adv-x="661" d="M204 -246h38q11 21 32.5 63.5t32.5 62.5q28 54 86 165v116h-118v-132zM275 830h118v161h-118v-161z" />
<glyph unicode="&#x3c;" horiz-adv-x="1646" d="M212 560q714 -259 1221 -440v79q-50 17 -485 171q-226 81 -679 241l1164 413v79q-473 -171 -501 -181q-136 -50 -392.5 -142.5t-327.5 -118.5v-101z" />
<glyph unicode="=" horiz-adv-x="1646" d="M212 364h1221v72h-1221v-72zM212 784h1221v73h-1221v-73z" />
<glyph unicode="&#x3e;" horiz-adv-x="1646" d="M212 118q69 24 199.5 72t199.5 73q282 101 822 297v101q-570 208 -1221 442v-79l1164 -413l-1164 -412v-81z" />
<glyph unicode="?" horiz-adv-x="1042" d="M163 1300q174 98 317 98q129 0 210 -69q87 -78 87 -187q0 -120 -126 -240l-95 -90q-82 -80 -110 -140q-25 -51 -25 -151v-108h96v77q0 105 14 151q13 34 36 66t74 83l90 91q88 82 122 145q30 58 30 126q0 138 -97 226q-108 89 -271 89q-180 0 -352 -97v-70zM415 0h108 v161h-108v-161z" />
<glyph unicode="@" horiz-adv-x="1966" d="M118 509q0 -185 65 -345.5t189 -281.5q125 -122 285.5 -186t341.5 -64q273 0 517 165l-10 12q-4 6 -9.5 12.5t-10.5 13.5q-109 -73 -237 -114t-250 -41q-167 0 -321 61t-271 172q-115 117 -180.5 273t-65.5 323q0 200 97 391q100 181 271 297q225 142 487 142 q186 0 353 -79.5t283 -219.5q143 -183 143 -419q0 -196 -96 -326q-97 -131 -329 -167v769h-45v-234q-198 253 -377 253q-153 0 -250 -112q-98 -113 -98 -301q0 -182 96 -300q103 -113 252 -113q93 0 184 61t193 191v-252q236 18 368 146q147 138 147 389q0 113 -39 227.5 t-108 209.5q-131 158 -297 240q-173 82 -383 82q-178 0 -346 -68t-295 -187v1q-119 -122 -186.5 -285t-67.5 -336zM663 503q0 160 84 262q90 102 238 102q150 0 240 -102q86 -105 86 -262q0 -153 -86 -263q-92 -104 -238 -104q-153 0 -240 102q-84 99 -84 265z" />
<glyph unicode="A" horiz-adv-x="1343" d="M41 0h110q2 8 9.5 29.5t10.5 33.5q30 80 120 332h765l139 -395h109q-133 353 -307 802q-34 88 -116 304t-126 331h-165zM317 466l355 963l356 -963h-711z" />
<glyph unicode="B" horiz-adv-x="1347" d="M206 0h502q238 0 365 100q122 98 122 279q0 138 -80.5 231t-227.5 125v89q245 43 245 283q0 158 -115.5 244t-328.5 86h-482v-1437zM313 71v664h385q194 0 286.5 -80.5t92.5 -251.5q0 -170 -93 -251t-286 -81h-385zM313 802v566h359q352 0 352 -283q0 -143 -87.5 -213 t-264.5 -70h-359z" />
<glyph unicode="C" horiz-adv-x="1372" d="M118 718q0 -347 189 -551h-2q190 -196 515 -196q247 0 438 123v83q-192 -138 -426 -138q-287 0 -440.5 175.5t-153.5 503.5t153.5 503t440.5 175q234 0 426 -138v85q-193 124 -438 124q-327 0 -513 -201q-189 -201 -189 -548z" />
<glyph unicode="D" horiz-adv-x="1513" d="M201 0h375q426 0 623 173q193 175 193 547q0 357 -193 544q-197 173 -623 173h-375v-1437zM307 71v1297h302q335 0 500 -159q163 -154 163 -489q0 -336 -163 -490q-162 -159 -500 -159h-302z" />
<glyph unicode="E" horiz-adv-x="1241" d="M208 0h893v75h-784v658h733v73h-733v558h764v73h-873v-1437z" />
<glyph unicode="F" horiz-adv-x="1130" d="M214 0h106v735h610v75h-610v554h675v73h-781v-1437z" />
<glyph unicode="G" horiz-adv-x="1523" d="M116 718q0 -165 50.5 -309t138.5 -246q96 -90 233.5 -141t293.5 -51q304 0 525 147v584h-445v-69h340v-493q-175 -101 -403 -101q-306 0 -460.5 171t-154.5 508q0 678 615 678q252 0 468 -146v93q-209 124 -485 124q-156 0 -293 -52.5t-234 -144.5q-87 -101 -138 -245.5 t-51 -306.5z" />
<glyph unicode="H" horiz-adv-x="1476" d="M203 0h108v733h857v-733h108v1437h-108v-631h-857v631h-108v-1437z" />
<glyph unicode="I" horiz-adv-x="579" d="M236 0h108v1437h-108v-1437z" />
<glyph unicode="J" horiz-adv-x="579" d="M-69 -348v-75h28q206 0 301 108q94 112 94 372v1380h-106v-1380q0 -215 -67 -307q-76 -98 -236 -98h-14z" />
<glyph unicode="K" horiz-adv-x="1288" d="M204 0h107v1437h-107v-1437zM311 720q16 14 47 45l-47 47v-92zM358 765l763 -765h131q-55 55 -168 169t-172 173q-71 71 -216.5 218t-211.5 213l705 664h-116q-149 -139 -261 -244q-20 -18 -196.5 -184.5t-257.5 -243.5z" />
<glyph unicode="L" horiz-adv-x="1093" d="M210 0h856v75h-747v1362h-109v-1437z" />
<glyph unicode="M" horiz-adv-x="1695" d="M195 0h100v1329l90 16l394 -1048h68l-426 1140h-226v-1437zM847 295v2v-2zM847 297h69q18 50 54.5 145.5t55.5 145.5q215 568 285 757l89 -16v-1329h102v1437h-224q-15 -39 -59 -155t-69 -183q-97 -263 -303 -802z" />
<glyph unicode="N" horiz-adv-x="1470" d="M204 0h101v1266l82 20l683 -1286h196v1437h-100v-1266l-83 -20l-682 1286h-197v-1437z" />
<glyph unicode="O" horiz-adv-x="1546" d="M112 718q0 -347 181 -549q177 -198 482 -198q302 0 479 198q181 205 181 549q0 343 -181 548q-180 201 -479 201q-302 0 -482 -201q-181 -205 -181 -548zM230 718q0 307 144 491q150 189 401 189q252 0 399 -189q143 -179 143 -491q0 -303 -143 -490q-156 -191 -399 -191 q-254 0 -401 189q-144 184 -144 492z" />
<glyph unicode="P" horiz-adv-x="1183" d="M208 0h109v617h312q235 0 354.5 104t119.5 307q0 201 -120 305t-354 104h-421v-1437zM317 688v680h312q169 0 261.5 -89t92.5 -251t-92.5 -251t-261.5 -89h-312z" />
<glyph unicode="Q" horiz-adv-x="1546" d="M112 718q0 -344 181 -549q177 -198 482 -198q52 0 108 5l228 -249h116l-244 267q255 116 350 289q102 183 102 435q0 343 -181 548q-180 201 -479 201q-302 0 -482 -201q-181 -205 -181 -548zM230 718q0 307 144 491q150 189 401 189q252 0 399 -189q143 -179 143 -491 q0 -303 -143 -490q-156 -191 -399 -191q-254 0 -401 189q-144 184 -144 492z" />
<glyph unicode="R" horiz-adv-x="1366" d="M203 0h108v651h277q139 0 224 -61h-2q85 -58 167 -222q30 -64 63 -126q6 -13 51.5 -103t68.5 -139h110q-4 8 -22 43.5t-27 52.5q-20 42 -63 126.5t-63 125.5q-120 239 -242 279l2 89q118 34 179 117.5t61 210.5q0 199 -116.5 296t-355.5 97h-420v-1437zM311 720v648h312 q354 0 354 -324q0 -159 -89.5 -241.5t-264.5 -82.5h-312z" />
<glyph unicode="S" horiz-adv-x="1247" d="M144 1075q0 -146 88 -237q97 -87 311 -132q14 -3 41.5 -8t42.5 -8q17 -4 43 -8q172 -40 252 -108q87 -78 87 -216q0 -153 -110 -237t-313 -84q-210 0 -437 108v-92q237 -82 437 -82q265 0 402 102.5t137 300.5q0 164 -103 265t-312 142q-19 4 -62 12.5t-62 12.5 q-188 36 -258 94q-76 67 -76 193q0 146 105 225.5t300 79.5q170 0 375 -87v91q-219 65 -399 65q-104 0 -200.5 -30t-165.5 -78q-123 -102 -123 -284z" />
<glyph unicode="T" horiz-adv-x="1200" d="M0 1364h547v-1364h108v1364h544v73h-1199v-73z" />
<glyph unicode="U" horiz-adv-x="1437" d="M181 527q0 -274 136.5 -415t402.5 -141t402 141t136 415v910h-108v-885q0 -263 -102 -389q-105 -126 -328 -126t-331 126q-100 124 -100 389v885h-108v-910z" />
<glyph unicode="V" horiz-adv-x="1343" d="M41 1437q282 -742 549 -1437h165q171 449 289 755q42 113 129 338t131 344h-109q-224 -594 -236 -625q-108 -292 -287 -765l-523 1390h-108z" />
<glyph unicode="W" horiz-adv-x="1943" d="M65 1437l358 -1437h185q11 47 34 142.5t34 142.5q51 207 256 1040h82l323 -1325h185q357 1425 360 1437h-109q-147 -600 -177 -721q-7 -30 -61.5 -246.5t-79.5 -324.5h-83l-322 1292h-155q-37 -147 -102 -407t-119 -478t-100 -407h-82l-321 1292h-106z" />
<glyph unicode="X" horiz-adv-x="1345" d="M108 0h102q95 139 207 311q179 269 257 385l460 -696h101q-198 301 -264 405q-19 28 -103 154.5t-127 189.5l460 688h-98q-103 -150 -120 -175q-79 -121 -293 -440l-411 615h-102l446 -666z" />
<glyph unicode="Y" horiz-adv-x="1200" d="M47 1437l500 -739v-698h108v698l497 739h-98q-31 -46 -95.5 -141.5t-95.5 -141.5q-42 -62 -132 -196.5t-129 -192.5l-455 672h-100z" />
<glyph unicode="Z" horiz-adv-x="1345" d="M96 0h1154v75h-1051l1028 1274v88h-1107v-73h1005l-1029 -1274v-90z" />
<glyph unicode="[" horiz-adv-x="765" d="M204 -279h337v47h-248v1689h248v45h-337v-1781z" />
<glyph unicode="\" horiz-adv-x="661" d="M45 1437q134 -439 356 -1148q10 -31 64.5 -208.5t85.5 -277.5h66q-295 957 -356 1151q-125 404 -149 483h-67z" />
<glyph unicode="]" horiz-adv-x="765" d="M226 -232v-47h336v1781h-336v-45h246v-1689h-246z" />
<glyph unicode="^" horiz-adv-x="1646" d="M283 965h69q64 56 193 172.5t188 169.5q13 12 45.5 41.5t45.5 41.5l474 -425h66q-35 36 -104.5 108t-107.5 111q-213 218 -248 253h-161q-67 -67 -181 -185q-200 -208 -279 -287z" />
<glyph unicode="_" d="M-6 -450v-47h995v47h-995z" />
<glyph unicode="`" d="M256 1587q16 -17 46 -51t40 -46q12 -13 71.5 -80.5t91.5 -105.5h32q-14 18 -41.5 53.5t-41.5 54.5q-28 36 -130 175h-68z" />
<glyph unicode="a" horiz-adv-x="1204" d="M132 291q0 -144 90 -234q92 -86 250 -86q127 0 232.5 74t201.5 230v-275h107v609q0 476 -451 476q-166 0 -348 -67v-78q164 69 329 69q173 0 268 -82t95 -231v-59h-302q-472 0 -472 -346zM238 303q0 147 108 212q100 57 334 57h226v-82q0 -196 -104 -321 q-103 -124 -279 -124q-133 0 -209 69.5t-76 188.5z" />
<glyph unicode="b" horiz-adv-x="1247" d="M191 0h106v283q181 -312 405 -312q190 0 305 149q122 154 122 409q0 253 -122 407q-117 149 -305 149q-224 0 -405 -312v727h-106v-1500zM297 529q0 215 92 346q100 136 268 136t265 -136q94 -131 94 -346q0 -219 -94 -350q-96 -134 -265 -134q-171 0 -268 134 q-92 128 -92 350z" />
<glyph unicode="c" horiz-adv-x="1081" d="M124 529q0 -261 139 -409q140 -149 380 -149q155 0 301 58v81q-141 -63 -279 -63q-200 0 -315 130q-110 128 -110 352q0 216 110 348q122 132 315 132q138 0 279 -63v82q-139 57 -289 57q-249 0 -390 -147t-141 -409z" />
<glyph unicode="d" horiz-adv-x="1247" d="M122 529q0 -258 120 -409q115 -149 305 -149q224 0 405 312v-283h106v1500h-106v-727q-181 312 -405 312q-188 0 -305 -149q-120 -154 -120 -407zM232 529q0 215 92 346q100 136 268 136q166 0 267 -136q93 -130 93 -346q0 -220 -93 -350q-100 -134 -267 -134 q-171 0 -268 134q-92 128 -92 350z" />
<glyph unicode="e" horiz-adv-x="1208" d="M120 517q0 -254 145 -399q150 -147 405 -147q191 0 380 74v85q-181 -83 -370 -83q-205 0 -320 122.5t-130 355.5h863v49q0 242 -124 376q-124 135 -332 135q-238 0 -377 -151q-140 -152 -140 -417zM236 588q18 220 124 320q107 101 279 101q157 0 252 -107 q96 -105 96 -312z" />
<glyph unicode="f" horiz-adv-x="690" d="M65 993h181v-993h106v993h307v65h-307v141q0 121 49 173q52 55 171 55h138v73h-136q-171 0 -249.5 -77t-78.5 -245v-120h-181v-65z" />
<glyph unicode="g" horiz-adv-x="1247" d="M122 543q0 -250 118 -399q116 -144 307 -144q226 0 338 197l67 -18v-112q0 -427 -409 -427q-151 0 -285 63v-86q152 -50 316 -50q245 0 364.5 131.5t119.5 401.5v958h-106v-154l-67 -15q-111 196 -338 196q-190 0 -307 -143q-118 -149 -118 -399zM232 543q0 216 92 338 q94 130 268 130q171 0 265.5 -122.5t94.5 -345.5q0 -216 -93 -339q-96 -129 -267 -129q-170 0 -265 123t-95 345z" />
<glyph unicode="h" horiz-adv-x="1245" d="M193 0h106v604q0 181 98 291q96 108 270 108q292 0 292 -362v-641h107v647q0 215 -91 326.5t-267 111.5q-209 0 -409 -303v718h-106v-1500z" />
<glyph unicode="i" horiz-adv-x="544" d="M220 0h106v1058h-106v-1058zM220 1345h106v155h-106v-155z" />
<glyph unicode="j" horiz-adv-x="544" d="M-6 -356v-77h30q168 0 236 83q72 87 72 289v1119h-104v-1119q0 -167 -47 -230v2q-49 -67 -179 -67h-8zM228 1345h104v155h-104v-155z" />
<glyph unicode="k" horiz-adv-x="1136" d="M193 0h106v1500h-106v-1500zM299 517q9 8 25.5 22.5t25.5 22.5l-51 49v-94zM350 562l586 -562h126q-92 88 -292 281t-296 285l554 492h-114q-491 -433 -564 -496z" />
<glyph unicode="l" horiz-adv-x="544" d="M220 0h106v1500h-106v-1500z" />
<glyph unicode="m" horiz-adv-x="1914" d="M173 0h106v604q0 175 95 289q101 110 259 110q142 0 209.5 -88t67.5 -274v-641h106v604q0 179 95 289q98 110 261 110q139 0 207.5 -89t68.5 -273v-641h106v647q0 209 -86.5 323.5t-244.5 114.5q-237 0 -361 -226l-75 6q-37 108 -114 164t-187 56t-210 -75.5t-197 -232.5 v281h-106v-1058z" />
<glyph unicode="n" horiz-adv-x="1245" d="M193 0h106v604q0 181 98 291q96 108 270 108q292 0 292 -362v-641h107v647q0 215 -91 326.5t-267 111.5q-209 0 -409 -303v276h-106v-1058z" />
<glyph unicode="o" horiz-adv-x="1202" d="M120 529q0 -268 128 -413q126 -145 354 -145t354 145q127 146 127 413t-127 413q-129 143 -354 143t-354 -143q-128 -151 -128 -413zM236 529q0 213 94 344q101 136 272 136q167 0 269 -136q96 -137 96 -344q0 -216 -96 -346q-98 -136 -269 -136q-172 0 -272 134 q-94 127 -94 348z" />
<glyph unicode="p" horiz-adv-x="1247" d="M191 -433h106v716q181 -312 405 -312q190 0 305 149q122 154 122 409q0 253 -122 407q-117 149 -305 149q-224 0 -405 -312v285h-106v-1491zM297 529q0 215 92 346q100 136 268 136t265 -136q94 -131 94 -346q0 -219 -94 -350q-96 -134 -265 -134q-171 0 -268 134 q-92 128 -92 350z" />
<glyph unicode="q" horiz-adv-x="1247" d="M122 529q0 -258 120 -409q115 -149 305 -149q224 0 405 312v-716h106v1491h-106v-285q-181 312 -405 312q-188 0 -305 -149q-120 -154 -120 -407zM232 529q0 215 92 346q100 136 268 136q166 0 267 -136q93 -130 93 -346q0 -220 -93 -350q-100 -134 -267 -134 q-171 0 -268 134q-92 128 -92 350z" />
<glyph unicode="r" horiz-adv-x="806" d="M201 0h106v560q0 212 95.5 325.5t273.5 113.5q64 0 110 -14l-2 96q-40 4 -53 4q-244 0 -357 -202l-67 17v158h-106v-1058z" />
<glyph unicode="s" horiz-adv-x="1024" d="M122 31q193 -60 360 -60q207 0 320 84q110 80 110 218q0 122 -71 187t-265 112q-11 1 -32.5 6.5t-30.5 7.5q-163 37 -216 77q-67 49 -67 135q0 213 321 213q162 0 300 -59v84q-137 49 -322 49q-191 0 -294 -76.5t-103 -218.5q0 -115 70 -182t225 -99l66 -16 q185 -41 242 -84q65 -56 65 -149q0 -103 -81.5 -159t-232.5 -56q-172 0 -364 85v-99z" />
<glyph unicode="t" horiz-adv-x="770" d="M75 993h135v-659q0 -194 71 -265q69 -69 271 -69h150v75h-150q-133 0 -184 51q-49 49 -49 208v659h383v65h-383v322h-109v-322h-135v-65z" />
<glyph unicode="u" horiz-adv-x="1245" d="M181 409q0 -215 91.5 -326.5t268.5 -111.5q212 0 407 300v-271h106v1058h-106v-606q0 -181 -101 -291h2q-101 -110 -269 -110q-293 0 -293 364v643h-106v-649z" />
<glyph unicode="v" horiz-adv-x="1163" d="M85 1058l397 -1058h200q73 195 395 1058h-112q-66 -180 -204 -551.5t-179 -482.5l-385 1034h-112z" />
<glyph unicode="w" horiz-adv-x="1607" d="M92 1058l278 -1058h157q196 737 244 922h69l241 -922h156q44 170 136 516t143 542h-104q-37 -144 -114 -439.5t-114 -439.5h-71l-230 879h-158q-38 -144 -115.5 -439.5t-114.5 -439.5h-68l-232 879h-103z" />
<glyph unicode="x" horiz-adv-x="1163" d="M108 0h118q48 65 171.5 231.5t180.5 244.5l352 -476h118q-123 165 -401 545l379 513h-118q-57 -78 -176.5 -238.5t-145.5 -196.5l-323 435h-119q270 -361 375 -504z" />
<glyph unicode="y" horiz-adv-x="1163" d="M88 1058q63 -151 215.5 -524t229.5 -556l-41 -102v2q-56 -147 -105 -189q-56 -47 -147 -47h-69v-75h108q109 0 175 54q72 59 144 247l477 1190h-110q-240 -601 -383 -960l-383 960h-111z" />
<glyph unicode="z" horiz-adv-x="1032" d="M100 0h832v69h-751l751 873v116h-808v-69h727l-751 -873v-116z" />
<glyph unicode="{" horiz-adv-x="1249" d="M269 558h12q167 0 240 -76q69 -75 69 -250v-246q0 -204 69 -267l-2 2q88 -65 312 -65h14v47h-20q-164 0 -226 59q-59 62 -59 228v256q0 150 -39 204q-36 59 -157 89v84q121 27 157 83q39 57 39 208v256q0 164 59 226q64 61 226 61h20v45h-14q-106 0 -188 -18t-124 -47 q-67 -70 -67 -263v-248q0 -173 -69 -248q-71 -74 -240 -74h-12v-46z" />
<glyph unicode="|" horiz-adv-x="661" d="M295 -497h73v2009h-73v-2009z" />
<glyph unicode="}" horiz-adv-x="1249" d="M269 -297v-47h14q240 0 309 63q69 60 69 267v246q0 179 68 250q70 76 240 76h14v46h-14q-172 0 -240 74q-68 71 -68 248v248q0 203 -69 263q-71 65 -309 65h-14v-45h20q165 0 226 -61h-2q59 -62 59 -226v-256q0 -146 39 -208q33 -52 158 -83v-84q-122 -30 -158 -89 q-39 -58 -39 -204v-256q0 -168 -57 -228q-59 -59 -226 -59h-20z" />
<glyph unicode="~" horiz-adv-x="1646" d="M212 535q158 112 321 112q103 0 271 -67l16 -6t10 -4l-2 2q1 0 7 -3t10 -3q147 -59 246 -59q88 0 169 29.5t173 96.5v57q-165 -114 -318 -114q-110 0 -272 67q-14 5 -15 6q-6 0 -10 4l2 -2q-8 4 -10 4q-44 10 -55 19q-121 42 -199 42q-87 0 -168 -30t-176 -98v-53z M814 655q2 -2 4 -2zM830 570h2h-2z" />
<glyph unicode="&#xa1;" horiz-adv-x="786" d="M322 0h144v623q-3 60 -10 165.5t-10 165.5h-104q-7 -100 -20 -331v-623zM322 1241h144v194h-144v-194z" />
<glyph unicode="&#xa2;" horiz-adv-x="1249" d="M177 531q0 -247 124 -393q131 -145 383 -166v-287h41v284q166 15 280 62v103q-121 -57 -280 -69l2 928q158 -6 278 -67v104q-118 48 -278 57l-2 287h-41v-283q-257 -27 -383 -169q-124 -146 -124 -391zM313 531q0 197 88 314q88 124 283 148v-926q-195 24 -283 145 q-88 117 -88 319z" />
<glyph unicode="&#xa3;" horiz-adv-x="1249" d="M134 0h934v110h-559v527h391v83h-391v245q0 224 65 307q66 90 230 90q112 0 244 -62v114q-149 49 -262 49q-216 0 -316 -114.5t-100 -361.5v-267h-201v-83h201v-527h-236v-110z" />
<glyph unicode="&#xa4;" horiz-adv-x="1249" d="M108 165q14 -13 39 -37.5t34 -33.5l202 203q141 -83 244 -83q107 0 238 89l205 -207q8 8 31.5 32.5t40.5 40.5q-33 33 -103.5 104t-100.5 101q86 128 86 239q0 113 -82 244l204 203q-13 12 -35 34.5t-39 37.5l-203 -206q-128 83 -242 83q-121 0 -238 -85l-204 205 l-75 -73l205 -205q-85 -127 -85 -238q0 -106 83 -245zM326 613q0 127 89 213q87 84 212 84q127 0 213 -86q86 -80 86 -211q0 -126 -86 -212t-213 -86q-128 0 -214 86q-87 87 -87 212z" />
<glyph unicode="&#xa5;" horiz-adv-x="1249" d="M104 1435q47 -88 158 -289.5t161 -296.5h-285v-65h320l96 -176v-89h-416v-63h416v-456h142v456h413v63h-415v89l96 176h319v65h-283l318 586h-124q-61 -115 -197.5 -366.5t-197.5 -366.5l-397 733h-124z" />
<glyph unicode="&#xa6;" horiz-adv-x="661" d="M277 348v-698h108v698h-108zM277 674h108v700h-108v-700z" />
<glyph unicode="&#xa7;" d="M100 694q0 -89 57 -161q59 -68 272 -189q4 -2 11.5 -7t11.5 -7q238 -130 238 -251q0 -90 -65 -140.5t-181 -50.5q-106 0 -263 65v-98q157 -52 285 -52q157 0 258 79q90 72 90 203q0 112 -142 232q209 118 209 277q0 89 -61 159q-63 75 -268 189q-35 21 -39 23 q-222 127 -222 232q0 86 62 133.5t174 47.5q100 0 252 -63v101q-143 47 -276 47q-149 0 -247 -73q-89 -71 -89 -187q0 -121 144 -230q-211 -112 -211 -279zM203 725q0 107 137 207l32 2q261 -142 324 -205q83 -77 83 -165q0 -108 -154 -218q-273 146 -344 214 q-78 78 -78 165z" />
<glyph unicode="&#xa8;" d="M224 1353h144v141h-144v-141zM615 1353h144v141h-144v-141z" />
<glyph unicode="&#xa9;" horiz-adv-x="1966" d="M271 712q0 -293 209 -502q207 -210 503 -210t503 210q209 209 209 502q0 296 -209 505q-207 210 -503 210t-503 -210q-209 -209 -209 -505zM311 712q0 275 198 476q196 196 474 196q280 0 476 -196q194 -197 194 -476q0 -278 -194 -472q-202 -199 -476 -199 q-272 0 -474 199q-198 201 -198 472zM570 712q0 -196 116 -309v2q119 -116 323 -116q130 0 243 47v59q-117 -47 -222 -47q-170 0 -264 96t-94 268q0 168 93 267q93 96 255 96q118 0 232 -49v63q-121 45 -243 45q-205 0 -323 -112q-116 -116 -116 -310z" />
<glyph unicode="&#xaa;" horiz-adv-x="925" d="M126 918q0 -101 67 -159q65 -59 183 -59q174 0 312 197v-179h89v420q0 325 -333 325q-124 0 -257 -47v-59q121 51 236 51q265 0 265 -213v-33h-212q-173 0 -261.5 -62t-88.5 -182zM149 470h630v63h-630v-63zM212 930q0 97 79 140v-2q62 37 240 37h157v-57 q0 -126 -75 -207q-70 -82 -190 -82q-96 0 -153.5 46.5t-57.5 124.5z" />
<glyph unicode="&#xab;" horiz-adv-x="1202" d="M163 545q62 -56 193 -174t216 -194v112q-242 217 -316 283l316 281v112l-409 -367v-53zM598 545q28 -26 174 -156.5t235 -211.5v112q-298 267 -315 283l315 281v110l-409 -365v-53z" />
<glyph unicode="&#xac;" horiz-adv-x="1646" d="M210 694h1117v-407h108v517h-1225v-110z" />
<glyph unicode="&#xad;" horiz-adv-x="708" d="M116 480h478v104h-478v-104z" />
<glyph unicode="&#xae;" horiz-adv-x="1966" d="M271 712q0 -293 209 -502q207 -210 503 -210t503 210q209 209 209 502q0 296 -209 505q-207 210 -503 210t-503 -210q-209 -209 -209 -505zM311 712q0 275 198 476q196 196 474 196q280 0 476 -196q194 -197 194 -476q0 -278 -194 -472q-202 -199 -476 -199 q-272 0 -474 199q-198 201 -198 472zM708 338h94v358h96q66 0 109 -33v2q44 -32 104 -132q22 -38 62 -101.5t58 -93.5h102q-17 30 -55 90t-55 89h2q-87 132 -136 150l4 51q92 17 141.5 65t49.5 123q0 211 -321 211h-255v-779zM802 737v336h154q125 0 176.5 -39t51.5 -132 q0 -87 -57 -127q-48 -38 -171 -38h-154z" />
<glyph unicode="&#xaf;" d="M222 1380h539v89h-539v-89z" />
<glyph unicode="&#xb0;" d="M204 1172q0 -121 81 -205q80 -80 205 -80q121 0 206 82q83 83 83 203q0 121 -83 204q-81 87 -204 87t-205 -85q-83 -83 -83 -206zM271 1172q0 94 63 157q65 65 158 65q90 0 155 -65t65 -157q0 -93 -63 -156q-65 -62 -157 -62q-96 0 -158 62q-63 63 -63 156z" />
<glyph unicode="&#xb1;" horiz-adv-x="1646" d="M210 0h1225v110h-1225v-110zM210 729h561v-389h106v389h558v111h-558v387h-106v-387h-561v-111z" />
<glyph unicode="&#xb2;" horiz-adv-x="786" d="M108 668h539v56h-478q87 71 150 127q322 278 322 401q0 93 -75 150q-79 61 -214 61q-102 0 -238 -47v-55q126 53 216 53q99 0 160 -49t61 -128q0 -107 -356 -421v-2q-22 -20 -49.5 -44t-37.5 -33v-69z" />
<glyph unicode="&#xb3;" horiz-adv-x="786" d="M112 688q111 -33 222 -33q162 0 249 59.5t87 168.5q0 71 -43.5 118t-125.5 63v57q71 17 110.5 56.5t39.5 98.5q0 84 -73 132q-76 55 -210 55q-98 0 -228 -30v-51q116 32 194 32q110 0 167 -39t57 -111q0 -153 -220 -153h-65v-47h55q250 0 250 -181q0 -84 -68 -131.5 t-190 -47.5q-123 0 -208 35v-51z" />
<glyph unicode="&#xb4;" d="M405 1264h81q44 52 87.5 102t97 111t90.5 104h-118z" />
<glyph unicode="&#xb5;" horiz-adv-x="1249" d="M175 -427h124v539l49 12q82 -153 267 -153q178 0 309 208q42 -208 151 -208q58 0 120 33v84q-13 -5 -39 -5q-52 0 -77 35t-25 110v834h-124v-624q0 -367 -328 -367q-149 0 -226 82t-77 242v667h-124v-1489z" />
<glyph unicode="&#xb6;" horiz-adv-x="1249" d="M163 1042q0 -172 108 -271h-2q113 -104 344 -122v-848h83v1571h250v-1571h80v1634h-417q-206 0 -326 -108q-120 -105 -120 -285z" />
<glyph unicode="&#xb7;" horiz-adv-x="624" d="M236 586h151v193h-151v-193z" />
<glyph unicode="&#xb8;" d="M301 -317v-60q71 -18 147 -18q207 0 207 149q0 77 -93 185h-47q59 -86 59 -147q0 -124 -147 -124q-80 0 -126 15z" />
<glyph unicode="&#xb9;" horiz-adv-x="786" d="M149 1357q39 8 119 22t106 19v-678h-205v-52h494v52h-207v725h-100q-43 -7 -115.5 -18.5t-91.5 -14.5v-55z" />
<glyph unicode="&#xba;" horiz-adv-x="925" d="M106 1079q0 -176 97 -279q94 -100 261 -100q166 0 260 100q96 99 96 279t-96 282q-93 102 -260 102q-168 0 -261 -102q-97 -103 -97 -282zM149 470h630v63h-630v-63zM203 1079q0 150 68 236v-2q74 95 193 95q122 0 191 -93q69 -87 69 -236q0 -142 -69 -232v2 q-69 -92 -191 -92q-121 0 -193 90q-68 89 -68 232z" />
<glyph unicode="&#xbb;" horiz-adv-x="1202" d="M197 177q69 62 409 368v53q-71 64 -200 179.5t-209 187.5v-112q226 -203 316 -281l-316 -283v-112zM631 177q7 6 409 368v53q-84 76 -217.5 195.5t-191.5 171.5v-112q26 -23 317 -281l-317 -283v-112z" />
<glyph unicode="&#xbc;" horiz-adv-x="1904" d="M149 1357q39 8 119 22t106 19v-678h-205v-52h494v52h-207v725h-100q-43 -7 -115.5 -18.5t-91.5 -14.5v-55zM429 -28h153l895 1487h-154zM1193 214h415v-186h83v186h135v49h-135v541h-83v-541h-401l401 541h-37l-378 -507v-83z" />
<glyph unicode="&#xbd;" horiz-adv-x="1904" d="M149 1357q39 8 119 22t106 19v-678h-205v-52h494v52h-207v725h-100q-43 -7 -115.5 -18.5t-91.5 -14.5v-55zM429 -28h153l895 1487h-154zM1225 28h539v55h-478q74 60 149 127q323 279 323 401q0 93 -75 150q-79 61 -214 61q-102 0 -238 -47v-55q126 53 216 53 q99 0 159.5 -48.5t60.5 -128.5q0 -107 -356 -421v-2q-21 -19 -48.5 -43.5t-37.5 -33.5v-68z" />
<glyph unicode="&#xbe;" horiz-adv-x="1904" d="M112 688q111 -33 222 -33q162 0 249 59.5t87 168.5q0 71 -43.5 118t-125.5 63v57q71 17 110.5 56.5t39.5 98.5q0 84 -73 132q-76 55 -210 55q-98 0 -228 -30v-51q116 32 194 32q110 0 167 -39t57 -111q0 -153 -220 -153h-65v-47h55q250 0 250 -181q0 -84 -68 -131.5 t-190 -47.5q-123 0 -208 35v-51zM429 -28h153l895 1487h-154zM1193 214h415v-186h83v186h135v49h-135v541h-83v-541h-401l401 541h-37l-378 -507v-83z" />
<glyph unicode="&#xbf;" horiz-adv-x="1042" d="M151 295q0 -145 101 -234q105 -90 277 -90q190 0 360 100v116q-178 -112 -325 -112q-121 0 -196 63q-75 66 -75 167q0 56 28 107.5t92 110.5h-2q31 29 90 88q82 76 112 142q26 59 26 155v126h-130v-92q0 -96 -16 -146v2q-6 -28 -31 -63q-19 -27 -71 -76l-86 -87 q-82 -77 -122 -147q-32 -62 -32 -130zM501 1241h144v194h-144v-194z" />
<glyph unicode="&#xc0;" horiz-adv-x="1343" d="M41 0h110q2 8 9.5 29.5t10.5 33.5q30 80 120 332h765l139 -395h109q-133 353 -307 802q-34 88 -116 304t-126 331h-165zM317 466l355 963l356 -963h-711zM438 1823l221 -254h147l-189 254h-179z" />
<glyph unicode="&#xc1;" horiz-adv-x="1343" d="M41 0h110q2 8 9.5 29.5t10.5 33.5q30 80 120 332h765l139 -395h109q-133 353 -307 802q-34 88 -116 304t-126 331h-165zM317 466l355 963l356 -963h-711zM537 1569h147l218 254h-177z" />
<glyph unicode="&#xc2;" horiz-adv-x="1343" d="M41 0h110q2 8 9.5 29.5t10.5 33.5q30 80 120 332h765l139 -395h109q-133 353 -307 802q-34 88 -116 304t-126 331h-165zM317 466l355 963l356 -963h-711zM379 1569h134l159 171l160 -171h133l-202 256h-181z" />
<glyph unicode="&#xc3;" horiz-adv-x="1343" d="M41 0h110q2 8 9.5 29.5t10.5 33.5q30 80 120 332h765l139 -395h109q-133 353 -307 802q-34 88 -116 304t-126 331h-165zM317 466l355 963l356 -963h-711zM356 1600h120v6q0 43 19 67t54 24q23 0 64 -24l55 -31q49 -25 77.5 -33.5t62.5 -8.5q81 0 130 57.5t51 153.5h-120 v-6q0 -40 -19 -64.5t-50 -24.5q-26 0 -69 24l-55 29q-45 25 -74.5 33.5t-64.5 8.5q-82 0 -131.5 -57.5t-49.5 -153.5z" />
<glyph unicode="&#xc4;" horiz-adv-x="1343" d="M41 0h110q2 8 9.5 29.5t10.5 33.5q30 80 120 332h765l139 -395h109q-133 353 -307 802q-34 88 -116 304t-126 331h-165zM317 466l355 963l356 -963h-711zM387 1600h195v195h-195v-195zM763 1600h194v195h-194v-195z" />
<glyph unicode="&#xc5;" horiz-adv-x="1343" d="M29 0h150q16 47 64.5 182t71.5 201h717l136 -383h145q-441 1157 -527 1382q132 89 132 216q0 103 -73 173q-70 73 -173 73q-104 0 -175 -71q-70 -70 -70 -175q0 -130 131 -216zM356 492l316 861l317 -861h-633zM492 1598q0 79 51 130q53 53 129 53q79 0 128 -55 q55 -52 55 -128q0 -75 -55 -127q-53 -53 -128 -53q-76 0 -129 53q-51 54 -51 127z" />
<glyph unicode="&#xc6;" horiz-adv-x="1914" d="M14 0h139q46 111 162 383h578v-383h906v110h-763v602h714v110h-714v503h743v110h-1166q-447 -1071 -599 -1435zM358 492l356 845h179v-845h-535z" />
<glyph unicode="&#xc7;" horiz-adv-x="1372" d="M118 718q0 -347 189 -551h-2q190 -196 515 -196q247 0 438 123v83q-192 -138 -426 -138q-287 0 -440.5 175.5t-153.5 503.5t153.5 503t440.5 175q234 0 426 -138v85q-193 124 -438 124q-327 0 -513 -201q-189 -201 -189 -548zM590 -317v-60q70 -18 147 -18q207 0 207 149 q0 77 -93 185h-47q59 -86 59 -147q0 -124 -147 -124q-80 0 -126 15z" />
<glyph unicode="&#xc8;" horiz-adv-x="1241" d="M208 0h893v75h-784v658h733v73h-733v558h764v73h-873v-1437zM409 1823l220 -254h148l-189 254h-179z" />
<glyph unicode="&#xc9;" horiz-adv-x="1241" d="M208 0h893v75h-784v658h733v73h-733v558h764v73h-873v-1437zM507 1569h148l218 254h-177z" />
<glyph unicode="&#xca;" horiz-adv-x="1241" d="M208 0h893v75h-784v658h733v73h-733v558h764v73h-873v-1437zM350 1569h134l159 171l159 -171h134l-203 256h-181z" />
<glyph unicode="&#xcb;" horiz-adv-x="1241" d="M208 0h893v75h-784v658h733v73h-733v558h764v73h-873v-1437zM358 1600h194v195h-194v-195zM733 1600h195v195h-195v-195z" />
<glyph unicode="&#xcc;" horiz-adv-x="579" d="M57 1823l220 -254h148l-189 254h-179zM236 0h108v1437h-108v-1437z" />
<glyph unicode="&#xcd;" horiz-adv-x="579" d="M155 1569h148l218 254h-177zM236 0h108v1437h-108v-1437z" />
<glyph unicode="&#xce;" horiz-adv-x="579" d="M-2 1569h134l159 171l159 -171h134l-203 256h-180zM236 0h108v1437h-108v-1437z" />
<glyph unicode="&#xcf;" horiz-adv-x="579" d="M6 1600h195v195h-195v-195zM236 0h108v1437h-108v-1437zM381 1600h195v195h-195v-195z" />
<glyph unicode="&#xd0;" horiz-adv-x="1523" d="M8 702h202v-702h388q421 0 615 173q195 174 195 547q0 367 -193 542q-194 173 -617 173h-388v-651h-202v-82zM354 106v596h336v82h-336v545h273q325 0 474 -149v2q153 -147 153 -462q0 -316 -153 -466v2q-153 -150 -474 -150h-273z" />
<glyph unicode="&#xd1;" horiz-adv-x="1470" d="M204 0h101v1266l82 20l683 -1286h196v1437h-100v-1266l-83 -20l-682 1286h-197v-1437zM419 1600h120v6q0 43 18.5 67t53.5 24q24 0 65 -24l55 -31q49 -25 77.5 -33.5t62.5 -8.5q81 0 130 57.5t51 153.5h-120v-6q0 -40 -19 -64.5t-50 -24.5q-25 0 -69 24l-55 29 q-45 25 -74 33.5t-65 8.5q-82 0 -131.5 -57.5t-49.5 -153.5z" />
<glyph unicode="&#xd2;" horiz-adv-x="1546" d="M112 718q0 -347 181 -549q177 -198 482 -198q302 0 479 198q181 205 181 549q0 343 -181 548q-180 201 -479 201q-302 0 -482 -201q-181 -205 -181 -548zM230 718q0 307 144 491q150 189 401 189q252 0 399 -189q143 -179 143 -491q0 -303 -143 -490q-156 -191 -399 -191 q-254 0 -401 189q-144 184 -144 492zM541 1823l220 -254h147l-188 254h-179z" />
<glyph unicode="&#xd3;" horiz-adv-x="1546" d="M112 718q0 -347 181 -549q177 -198 482 -198q302 0 479 198q181 205 181 549q0 343 -181 548q-180 201 -479 201q-302 0 -482 -201q-181 -205 -181 -548zM230 718q0 307 144 491q150 189 401 189q252 0 399 -189q143 -179 143 -491q0 -303 -143 -490q-156 -191 -399 -191 q-254 0 -401 189q-144 184 -144 492zM639 1569h147l219 254h-177z" />
<glyph unicode="&#xd4;" horiz-adv-x="1546" d="M112 718q0 -347 181 -549q177 -198 482 -198q302 0 479 198q181 205 181 549q0 343 -181 548q-180 201 -479 201q-302 0 -482 -201q-181 -205 -181 -548zM230 718q0 307 144 491q150 189 401 189q252 0 399 -189q143 -179 143 -491q0 -303 -143 -490q-156 -191 -399 -191 q-254 0 -401 189q-144 184 -144 492zM482 1569h133l160 171l159 -171h134l-203 256h-181z" />
<glyph unicode="&#xd5;" horiz-adv-x="1546" d="M112 718q0 -347 181 -549q177 -198 482 -198q302 0 479 198q181 205 181 549q0 343 -181 548q-180 201 -479 201q-302 0 -482 -201q-181 -205 -181 -548zM230 718q0 307 144 491q150 189 401 189q252 0 399 -189q143 -179 143 -491q0 -303 -143 -490q-156 -191 -399 -191 q-254 0 -401 189q-144 184 -144 492zM458 1600h120v6q0 43 19 67t54 24q24 0 65 -24l55 -31q49 -25 77 -33.5t62 -8.5q81 0 130 57.5t51 153.5h-120v-6q0 -40 -19 -64.5t-50 -24.5q-24 0 -68 24l-55 29q-45 24 -74.5 33t-65.5 9q-82 0 -131.5 -57.5t-49.5 -153.5z" />
<glyph unicode="&#xd6;" horiz-adv-x="1546" d="M112 718q0 -347 181 -549q177 -198 482 -198q302 0 479 198q181 205 181 549q0 343 -181 548q-180 201 -479 201q-302 0 -482 -201q-181 -205 -181 -548zM230 718q0 307 144 491q150 189 401 189q252 0 399 -189q143 -179 143 -491q0 -303 -143 -490q-156 -191 -399 -191 q-254 0 -401 189q-144 184 -144 492zM490 1600h194v195h-194v-195zM865 1600h195v195h-195v-195z" />
<glyph unicode="&#xd7;" horiz-adv-x="1646" d="M287 155q68 -71 77 -80l460 460l458 -460q64 63 79 80l-459 458l459 459l-77 78l-460 -458l-460 458q-61 -62 -77 -78q74 -74 230 -230.5t228 -228.5z" />
<glyph unicode="&#xd8;" horiz-adv-x="1546" d="M110 -8q51 -46 57 -51q21 25 79 93.5t84 99.5q196 -163 445 -163q299 0 481 200q179 203 179 545q0 309 -165 529l165 194q-6 6 -23 22t-32 29q-30 -35 -89 -105t-74 -87q-193 165 -442 165q-304 0 -484 -201q-179 -203 -179 -546q0 -314 165 -527zM265 716 q0 296 136 468q139 175 374 175q203 0 357 -160l-764 -904q-103 179 -103 421zM415 236l765 900q102 -186 102 -420q0 -291 -136 -466v2q-135 -177 -371 -177q-202 0 -360 161z" />
<glyph unicode="&#xd9;" horiz-adv-x="1437" d="M181 527q0 -274 136.5 -415t402.5 -141t402 141t136 415v910h-108v-885q0 -263 -102 -389q-105 -126 -328 -126t-331 126q-100 124 -100 389v885h-108v-910zM486 1823l220 -254h147l-188 254h-179z" />
<glyph unicode="&#xda;" horiz-adv-x="1437" d="M181 527q0 -274 136.5 -415t402.5 -141t402 141t136 415v910h-108v-885q0 -263 -102 -389q-105 -126 -328 -126t-331 126q-100 124 -100 389v885h-108v-910zM584 1569h147l219 254h-177z" />
<glyph unicode="&#xdb;" horiz-adv-x="1437" d="M181 527q0 -274 136.5 -415t402.5 -141t402 141t136 415v910h-108v-885q0 -263 -102 -389q-105 -126 -328 -126t-331 126q-100 124 -100 389v885h-108v-910zM427 1569h133l160 171l159 -171h134l-203 256h-181z" />
<glyph unicode="&#xdc;" horiz-adv-x="1437" d="M181 527q0 -274 136.5 -415t402.5 -141t402 141t136 415v910h-108v-885q0 -263 -102 -389q-105 -126 -328 -126t-331 126q-100 124 -100 389v885h-108v-910zM435 1600h194v195h-194v-195zM810 1600h195v195h-195v-195z" />
<glyph unicode="&#xdd;" horiz-adv-x="1200" d="M47 1437l500 -739v-698h108v698l497 739h-98q-31 -46 -95.5 -141.5t-95.5 -141.5q-42 -62 -132 -196.5t-129 -192.5l-455 672h-100zM466 1569h147l219 254h-177z" />
<glyph unicode="&#xde;" horiz-adv-x="1187" d="M203 0h141v338h285q237 0 358.5 106t121.5 311t-121.5 311t-358.5 106h-285v263h-141v-1435zM344 444v622h285q156 0 241.5 -81t85.5 -230t-85.5 -230t-241.5 -81h-285z" />
<glyph unicode="&#xdf;" horiz-adv-x="1236" d="M187 0h128v1105q0 147 75 224t221 77q125 0 200.5 -71t85.5 -199q-152 -29 -237.5 -109t-85.5 -195q0 -81 40.5 -143t130.5 -117h-2q68 -39 93 -55q108 -65 141 -112h-2q36 -52 36 -124q0 -107 -67.5 -161.5t-198.5 -54.5q-116 0 -255 47v-102q124 -39 243 -39 q196 0 301.5 84.5t105.5 241.5q0 90 -43 153q-48 66 -206 169l-57 38q-72 48 -105 94t-33 102q0 103 83.5 168t234.5 80q-9 195 -110.5 296t-288.5 101q-210 0 -318 -102q-110 -101 -110 -287v-1109z" />
<glyph unicode="&#xe0;" horiz-adv-x="1204" d="M136 285q0 -142 88 -230v2q92 -86 248 -86q124 0 233.5 81.5t214.5 252.5v-305h89v609q0 472 -447 472q-158 0 -342 -65v-60q161 66 323 66q179 0 278 -86t99 -240v-69h-316q-468 0 -468 -342zM224 297q0 157 112 224q104 59 346 59h238v-92q0 -200 -106 -331 q-111 -129 -291 -129q-138 0 -218.5 72.5t-80.5 196.5zM334 1587q17 -18 48.5 -53.5t38.5 -43.5q12 -13 71.5 -80.5t91.5 -105.5h31q-14 19 -41 54t-41 54q-27 36 -130 175h-69z" />
<glyph unicode="&#xe1;" horiz-adv-x="1204" d="M136 285q0 -142 88 -230v2q92 -86 248 -86q124 0 233.5 81.5t214.5 252.5v-305h89v609q0 472 -447 472q-158 0 -342 -65v-60q161 66 323 66q179 0 278 -86t99 -240v-69h-316q-468 0 -468 -342zM224 297q0 157 112 224q104 59 346 59h238v-92q0 -200 -106 -331 q-111 -129 -291 -129q-138 0 -218.5 72.5t-80.5 196.5zM484 1264h80q58 68 151 174t125 143h-118z" />
<glyph unicode="&#xe2;" horiz-adv-x="1204" d="M136 285q0 -142 88 -230v2q92 -86 248 -86q124 0 233.5 81.5t214.5 252.5v-305h89v609q0 472 -447 472q-158 0 -342 -65v-60q161 66 323 66q179 0 278 -86t99 -240v-69h-316q-468 0 -468 -342zM224 297q0 157 112 224q104 59 346 59h238v-92q0 -200 -106 -331 q-111 -129 -291 -129q-138 0 -218.5 72.5t-80.5 196.5zM305 1264h71q179 245 194 266l197 -266h69q-131 200 -207 317h-118z" />
<glyph unicode="&#xe3;" horiz-adv-x="1204" d="M136 285q0 -142 88 -230v2q92 -86 248 -86q124 0 233.5 81.5t214.5 252.5v-305h89v609q0 472 -447 472q-158 0 -342 -65v-60q161 66 323 66q179 0 278 -86t99 -240v-69h-316q-468 0 -468 -342zM224 297q0 157 112 224q104 59 346 59h238v-92q0 -200 -106 -331 q-111 -129 -291 -129q-138 0 -218.5 72.5t-80.5 196.5zM271 1311h65q6 79 31 117.5t73 38.5q36 0 89 -47l59 -56h-2q62 -53 120 -53q72 0 113.5 58t49.5 165h-65q-12 -156 -104 -156q-39 0 -89 47l-59 55h2q-63 54 -119 54q-72 0 -114 -58t-50 -165z" />
<glyph unicode="&#xe4;" horiz-adv-x="1204" d="M136 285q0 -142 88 -230v2q92 -86 248 -86q124 0 233.5 81.5t214.5 252.5v-305h89v609q0 472 -447 472q-158 0 -342 -65v-60q161 66 323 66q179 0 278 -86t99 -240v-69h-316q-468 0 -468 -342zM224 297q0 157 112 224q104 59 346 59h238v-92q0 -200 -106 -331 q-111 -129 -291 -129q-138 0 -218.5 72.5t-80.5 196.5zM303 1353h143v141h-143v-141zM694 1353h144v141h-144v-141z" />
<glyph unicode="&#xe5;" horiz-adv-x="1204" d="M136 285q0 -142 88 -230v2q92 -86 248 -86q124 0 233.5 81.5t214.5 252.5v-305h89v609q0 472 -447 472q-158 0 -342 -65v-60q161 66 323 66q179 0 278 -86t99 -240v-69h-316q-468 0 -468 -342zM224 297q0 157 112 224q104 59 346 59h238v-92q0 -200 -106 -331 q-111 -129 -291 -129q-138 0 -218.5 72.5t-80.5 196.5zM324 1496q0 -102 71 -173t175 -71q102 0 173 71q73 73 73 173q0 102 -73 175q-71 71 -173 71q-104 0 -175 -71t-71 -175zM387 1496q0 77 53 130q56 53 130 53t130 -53q53 -56 53 -130q0 -75 -53 -128q-55 -55 -130 -55 q-77 0 -130 53t-53 130z" />
<glyph unicode="&#xe6;" horiz-adv-x="1929" d="M110 297q0 -152 96 -242q96 -84 276 -84q267 0 430 267q172 -267 494 -267q190 0 385 76v106q-185 -88 -375 -88q-197 0 -307.5 115.5t-123.5 336.5h849v59q0 241 -124 378q-127 135 -338 135q-253 0 -395 -173l-49 2q-51 81 -150.5 126t-232.5 45q-159 0 -352 -69v-100 q162 73 334 73q164 0 256 -78t92 -219v-47h-289q-476 0 -476 -352zM236 309q0 139 100 200q94 55 325 55h214v-71q0 -190 -100 -308q-105 -120 -270 -120q-125 0 -197 66t-72 178zM989 600q18 188 118.5 290.5t268.5 102.5q149 0 240 -100q93 -99 93 -291z" />
<glyph unicode="&#xe7;" horiz-adv-x="1081" d="M128 525q0 -250 139 -407q70 -70 167.5 -108.5t210.5 -38.5q157 0 295 55v61q-133 -58 -273 -58q-207 0 -327 134q-114 129 -114 362q0 230 114 362q118 135 327 135q138 0 273 -59v63q-124 55 -283 55q-249 0 -390 -147q-139 -148 -139 -409zM438 -317v-60 q71 -18 148 -18q206 0 206 149q0 78 -92 185h-47q59 -86 59 -147q0 -124 -148 -124q-80 0 -126 15z" />
<glyph unicode="&#xe8;" horiz-adv-x="1208" d="M122 515q0 -254 145 -399q148 -145 403 -145q194 0 376 70v65q-178 -77 -364 -77q-212 0 -331.5 129t-134.5 375h875v41q0 242 -122 374q-124 133 -332 133q-237 0 -376 -151t-139 -415zM220 578q21 234 130 340q113 104 289 104q162 0 263 -110q98 -107 101 -334h-783z M389 1587q17 -18 48.5 -53.5t38.5 -43.5q12 -13 71.5 -80.5t91.5 -105.5h31q-14 19 -41 54t-41 54q-28 36 -130 175h-69z" />
<glyph unicode="&#xe9;" horiz-adv-x="1208" d="M122 515q0 -254 145 -399q148 -145 403 -145q194 0 376 70v65q-178 -77 -364 -77q-212 0 -331.5 129t-134.5 375h875v41q0 242 -122 374q-124 133 -332 133q-237 0 -376 -151t-139 -415zM220 578q21 234 130 340q113 104 289 104q162 0 263 -110q98 -107 101 -334h-783z M539 1264h80q58 68 151 174t125 143h-118z" />
<glyph unicode="&#xea;" horiz-adv-x="1208" d="M122 515q0 -254 145 -399q148 -145 403 -145q194 0 376 70v65q-178 -77 -364 -77q-212 0 -331.5 129t-134.5 375h875v41q0 242 -122 374q-124 133 -332 133q-237 0 -376 -151t-139 -415zM220 578q21 234 130 340q113 104 289 104q162 0 263 -110q98 -107 101 -334h-783z M360 1264h71q179 245 194 266l197 -266h69q-131 200 -207 317h-118z" />
<glyph unicode="&#xeb;" horiz-adv-x="1208" d="M122 515q0 -254 145 -399q148 -145 403 -145q194 0 376 70v65q-178 -77 -364 -77q-212 0 -331.5 129t-134.5 375h875v41q0 242 -122 374q-124 133 -332 133q-237 0 -376 -151t-139 -415zM220 578q21 234 130 340q113 104 289 104q162 0 263 -110q98 -107 101 -334h-783z M358 1353h143v141h-143v-141zM749 1353h144v141h-144v-141z" />
<glyph unicode="&#xec;" horiz-adv-x="544" d="M38 1587q16 -17 46 -51t40 -46q12 -13 71.5 -80.5t91.5 -105.5h32q-14 18 -41.5 53.5t-41.5 54.5q-28 36 -130 175h-68zM210 0h126v1062h-126v-1062z" />
<glyph unicode="&#xed;" horiz-adv-x="544" d="M187 1264h81q44 52 87.5 102t97 111t90.5 104h-118zM210 0h126v1062h-126v-1062z" />
<glyph unicode="&#xee;" horiz-adv-x="544" d="M8 1264h71q117 161 195 266l196 -266h69q-77 116 -206 317h-118zM210 0h126v1062h-126v-1062z" />
<glyph unicode="&#xef;" horiz-adv-x="544" d="M6 1353h144v141h-144v-141zM210 0h126v1062h-126v-1062zM397 1353h144v141h-144v-141z" />
<glyph unicode="&#xf0;" horiz-adv-x="1202" d="M118 507q0 -242 132 -391q68 -68 159 -106.5t193 -38.5q205 0 350 145q135 150 135 391q0 161 -55 309q-59 144 -179 277l-194 220l310 105q-1 3 -4.5 15.5t-8.5 25.5q-146 -50 -325 -108l-134 147h-145l167 -189l-297 -96q2 -6 16 -43q68 24 311 104l224 -254 q-160 20 -189 20q-208 0 -336 -145q-130 -146 -130 -388zM252 507q0 207 98 323q102 120 283 120q93 0 191 -36l14 -8q114 -142 114 -399q0 -195 -93 -318q-98 -122 -257 -122q-160 0 -258 122q-92 122 -92 318z" />
<glyph unicode="&#xf1;" horiz-adv-x="1245" d="M197 0h88v602q0 130 49 224q-8 -12 -24.5 -35.5t-24.5 -35.5v299h-88v-1054zM334 826q63 84 110 128q-37 -27 -57 -52q-33 -36 -53 -76zM338 1311h65q6 79 31 117.5t73 38.5q36 0 89 -47l59 -56h-2q62 -53 120 -53q72 0 113.5 58t49.5 165h-65q-12 -156 -104 -156 q-39 0 -89 47l-59 55h2q-63 54 -120 54q-72 0 -113.5 -58t-49.5 -165zM444 954q92 64 223 64q306 0 306 -377v-641h89v647q0 214 -89.5 324t-264.5 110q-134 0 -264 -127z" />
<glyph unicode="&#xf2;" horiz-adv-x="1202" d="M122 525q0 -122 34.5 -229.5t93.5 -181.5q135 -143 352 -143q218 0 350 143q59 74 94 181.5t35 229.5q0 268 -129 413q-126 143 -350 143q-220 0 -352 -143q-128 -155 -128 -413zM222 525q0 229 98 358q107 139 282 139q174 0 281 -141q98 -137 98 -356q0 -223 -98 -356 q-105 -140 -281 -140q-179 0 -282 138q-98 129 -98 358zM366 1587q16 -17 46 -51t40 -46q12 -13 71.5 -80.5t91.5 -105.5h32q-14 18 -41.5 53.5t-41.5 54.5q-20 26 -41 55t-46.5 64t-41.5 56h-69z" />
<glyph unicode="&#xf3;" horiz-adv-x="1202" d="M122 525q0 -122 34.5 -229.5t93.5 -181.5q135 -143 352 -143q218 0 350 143q59 74 94 181.5t35 229.5q0 268 -129 413q-126 143 -350 143q-220 0 -352 -143q-128 -155 -128 -413zM222 525q0 229 98 358q107 139 282 139q174 0 281 -141q98 -137 98 -356q0 -223 -98 -356 q-105 -140 -281 -140q-179 0 -282 138q-98 129 -98 358zM515 1264h81q44 52 87.5 102t97 111t90.5 104h-118z" />
<glyph unicode="&#xf4;" horiz-adv-x="1202" d="M122 525q0 -122 34.5 -229.5t93.5 -181.5q135 -143 352 -143q218 0 350 143q59 74 94 181.5t35 229.5q0 268 -129 413q-126 143 -350 143q-220 0 -352 -143q-128 -155 -128 -413zM222 525q0 229 98 358q107 139 282 139q174 0 281 -141q98 -137 98 -356q0 -223 -98 -356 q-105 -140 -281 -140q-179 0 -282 138q-98 129 -98 358zM336 1264h71q117 161 195 266l196 -266h69q-76 116 -206 317h-118z" />
<glyph unicode="&#xf5;" horiz-adv-x="1202" d="M122 525q0 -122 34.5 -229.5t93.5 -181.5q135 -143 352 -143q218 0 350 143q59 74 94 181.5t35 229.5q0 268 -129 413q-126 143 -350 143q-220 0 -352 -143q-128 -155 -128 -413zM222 525q0 229 98 358q107 139 282 139q174 0 281 -141q98 -137 98 -356q0 -223 -98 -356 q-105 -140 -281 -140q-179 0 -282 138q-98 129 -98 358zM303 1311h65q6 79 31 117.5t73 38.5q35 0 88 -47l59 -56h-2q62 -53 120 -53q72 0 113.5 58t49.5 165h-64q-12 -156 -105 -156q-38 0 -88 47l-59 55h2q-63 54 -120 54q-72 0 -113.5 -58t-49.5 -165z" />
<glyph unicode="&#xf6;" horiz-adv-x="1202" d="M122 525q0 -122 34.5 -229.5t93.5 -181.5q135 -143 352 -143q218 0 350 143q59 74 94 181.5t35 229.5q0 268 -129 413q-126 143 -350 143q-220 0 -352 -143q-128 -155 -128 -413zM222 525q0 229 98 358q107 139 282 139q174 0 281 -141q98 -137 98 -356q0 -223 -98 -356 q-105 -140 -281 -140q-179 0 -282 138q-98 129 -98 358zM334 1353h144v141h-144v-141zM725 1353h144v141h-144v-141z" />
<glyph unicode="&#xf7;" horiz-adv-x="1646" d="M210 558h1225v110h-1225v-110zM731 151h185v185h-185v-185zM731 891h185v186h-185v-186z" />
<glyph unicode="&#xf8;" horiz-adv-x="1202" d="M87 -41q33 -26 51 -42q25 30 75 91.5t64 78.5q142 -116 325 -116q222 0 355 147q130 157 130 413q0 235 -114 395l142 175q-6 5 -21.5 17.5t-27.5 23.5q-27 -33 -81.5 -97.5t-58.5 -69.5q-145 114 -324 114q-228 0 -356 -147q-128 -148 -128 -411q0 -229 116 -395z M252 517q0 222 90 344q94 132 260 132q137 0 247 -110l-536 -651q-61 143 -61 285zM352 177l535 651q65 -136 65 -297q0 -211 -93 -334q-94 -130 -257 -130q-140 0 -250 110z" />
<glyph unicode="&#xf9;" horiz-adv-x="1245" d="M185 405q0 -213 90 -323.5t264 -110.5q136 0 265 129q-95 -67 -226 -67q-305 0 -305 378v643h-88v-649zM374 1587q16 -17 46 -51t40 -46q12 -13 71.5 -80.5t91.5 -105.5h32q-14 18 -41.5 53.5t-41.5 54.5q-27 36 -130 175h-68zM804 100q36 25 55 49v-2q30 32 57 85 q-54 -77 -112 -132zM916 232q10 13 45 65v-297h89v1054h-89v-604q0 -126 -45 -218z" />
<glyph unicode="&#xfa;" horiz-adv-x="1245" d="M185 405q0 -213 90 -323.5t264 -110.5q136 0 265 129q-95 -67 -226 -67q-305 0 -305 378v643h-88v-649zM523 1264h81q44 52 87.5 102t97 111t90.5 104h-118zM804 100q36 25 55 49v-2q30 32 57 85q-54 -77 -112 -132zM916 232q10 13 45 65v-297h89v1054h-89v-604 q0 -126 -45 -218z" />
<glyph unicode="&#xfb;" horiz-adv-x="1245" d="M185 405q0 -213 90 -323.5t264 -110.5q136 0 265 129q-95 -67 -226 -67q-305 0 -305 378v643h-88v-649zM344 1264h71q179 245 194 266l197 -266h69q-131 200 -207 317h-117zM804 100q36 25 55 49v-2q30 32 57 85q-54 -77 -112 -132zM916 232q10 13 45 65v-297h89v1054 h-89v-604q0 -126 -45 -218z" />
<glyph unicode="&#xfc;" horiz-adv-x="1245" d="M185 405q0 -213 90 -323.5t264 -110.5q136 0 265 129q-95 -67 -226 -67q-305 0 -305 378v643h-88v-649zM342 1353h144v141h-144v-141zM733 1353h144v141h-144v-141zM804 100q36 25 55 49v-2q30 32 57 85q-54 -77 -112 -132zM916 232q10 13 45 65v-297h89v1054h-89v-604 q0 -126 -45 -218z" />
<glyph unicode="&#xfd;" horiz-adv-x="1163" d="M94 1054q54 -131 211.5 -510t237.5 -575l-42 -107q-59 -150 -112 -194q-58 -49 -153 -49h-61v-59h100q107 0 173 53q66 56 140 247l482 1194h-93q-37 -94 -224 -562q-52 -128 -171 -429l-397 991h-91zM495 1264h81q44 52 87.5 102t97 111t90.5 104h-118z" />
<glyph unicode="&#xfe;" horiz-adv-x="1247" d="M187 -427h126v677q164 -279 389 -279q188 0 307 151q123 154 123 409q0 253 -123 407q-119 151 -307 151q-227 0 -389 -279v688h-126v-1925zM313 531q0 212 90 334q91 130 254 130q162 0 253 -130v2q91 -124 91 -336q0 -214 -91 -338q-92 -128 -253 -128q-162 0 -254 128 q-90 122 -90 338z" />
<glyph unicode="&#xff;" horiz-adv-x="1163" d="M94 1054q54 -131 211.5 -510t237.5 -575l-42 -107q-59 -150 -112 -194q-58 -49 -153 -49h-61v-59h100q107 0 173 53q66 56 140 247l482 1194h-93q-37 -94 -224 -562q-52 -128 -171 -429l-397 991h-91zM315 1353h143v141h-143v-141zM706 1353h143v141h-143v-141z" />
<glyph unicode="&#x106;" horiz-adv-x="1372" d="M118 718q0 -347 189 -551h-2q190 -196 515 -196q247 0 438 123v83q-192 -138 -426 -138q-287 0 -440.5 175.5t-153.5 503.5t153.5 503t440.5 175q234 0 426 -138v85q-193 124 -438 124q-327 0 -513 -201q-189 -201 -189 -548zM645 1569h147l219 254h-177z" />
<glyph unicode="&#x107;" horiz-adv-x="1081" d="M128 525q0 -250 139 -407q70 -70 167.5 -108.5t210.5 -38.5q157 0 295 55v61q-133 -58 -273 -58q-207 0 -327 134q-114 129 -114 362q0 230 114 362q118 135 327 135q138 0 273 -59v63q-124 55 -283 55q-249 0 -390 -147q-139 -148 -139 -409zM537 1264h80q58 68 151 174 t125 143h-118z" />
<glyph unicode="&#x10c;" horiz-adv-x="1372" d="M118 718q0 -347 189 -551h-2q190 -196 515 -196q247 0 438 123v83q-192 -138 -426 -138q-287 0 -440.5 175.5t-153.5 503.5t153.5 503t440.5 175q234 0 426 -138v85q-193 124 -438 124q-327 0 -513 -201q-189 -201 -189 -548zM488 1825l202 -256h181l202 256h-133 l-159 -172l-160 172h-133z" />
<glyph unicode="&#x10d;" horiz-adv-x="1081" d="M128 525q0 -250 139 -407q70 -70 167.5 -108.5t210.5 -38.5q157 0 295 55v61q-133 -58 -273 -58q-207 0 -327 134q-114 129 -114 362q0 230 114 362q118 135 327 135q138 0 273 -59v63q-124 55 -283 55q-249 0 -390 -147q-139 -148 -139 -409zM358 1581q76 -116 206 -317 h118q47 74 207 317h-69q-5 -7 -197 -266l-196 266h-69z" />
<glyph unicode="&#x111;" horiz-adv-x="1247" d="M114 531q0 -252 122 -409q119 -151 307 -151q227 0 391 279v-250h124v1286h153v65h-153v147h-124v-147h-326v-65h326v-476q-162 279 -391 279q-188 0 -307 -151q-122 -157 -122 -407zM246 531q0 210 88 334q91 130 254 130q160 0 255 -128q91 -128 91 -336 q0 -210 -91 -338q-95 -128 -255 -128q-162 0 -254 128q-88 124 -88 338z" />
<glyph unicode="&#x11e;" horiz-adv-x="1523" d="M116 718q0 -165 50.5 -309t138.5 -246q96 -90 233.5 -141t293.5 -51q304 0 525 147v584h-445v-69h340v-493q-175 -101 -403 -101q-306 0 -460.5 171t-154.5 508q0 678 615 678q252 0 468 -146v93q-209 124 -485 124q-156 0 -293 -52.5t-234 -144.5q-87 -101 -138 -245.5 t-51 -306.5zM462 1825q21 -232 301 -232q137 0 213.5 59.5t87.5 172.5h-114q-33 -107 -187 -107q-162 0 -187 107h-114z" />
<glyph unicode="&#x11f;" horiz-adv-x="1247" d="M122 541q0 -241 122 -399q56 -66 134.5 -104t166.5 -38q225 0 342 204l78 -21v-124q0 -442 -422 -442q-146 0 -280 57v-67q146 -47 311 -47q243 0 362.5 131t119.5 401v962h-91v-156l-78 -21q-117 204 -342 204q-187 0 -301 -143q-122 -151 -122 -397zM218 541 q0 222 95 350q102 133 279 133q178 0 275.5 -126.5t97.5 -356.5q0 -220 -96 -350q-100 -134 -277 -134t-275.5 127t-98.5 357zM344 1551q33 -228 281 -228t281 228h-61q-35 -151 -220 -151q-179 0 -220 151h-61z" />
<glyph unicode="&#x130;" horiz-adv-x="579" d="M193 1600h196v197h-196v-197zM236 0h108v1437h-108v-1437z" />
<glyph unicode="&#x131;" horiz-adv-x="544" d="M210 0h126v1062h-126v-1062z" />
<glyph unicode="&#x141;" horiz-adv-x="1103" d="M4 537q29 -38 43 -59q23 16 85.5 61t85.5 61v-600h871v110h-727v588l381 267q-29 37 -45 61q-270 -188 -336 -236v645h-144v-747z" />
<glyph unicode="&#x142;" horiz-adv-x="557" d="M31 649q3 -5 42 -57q108 74 143 102v-694h126v784l191 134q-22 27 -41 55q-95 -63 -150 -106v631h-126v-717z" />
<glyph unicode="&#x152;" horiz-adv-x="2103" d="M100 720q0 -354 216.5 -537t635.5 -183h1036v110h-761v602h712v110h-712v503h743v110h-1018q-418 0 -635 -182t-217 -533zM254 720q0 304 167.5 454.5t504.5 150.5h159v-1215h-159q-672 0 -672 610z" />
<glyph unicode="&#x153;" horiz-adv-x="2011" d="M98 531q0 -260 130 -413q133 -147 356 -147q265 0 419 241q180 -241 485 -241q191 0 386 76v106q-178 -86 -376 -86q-197 0 -306.5 115t-123.5 335h849v59q0 241 -124 378q-127 135 -336 135q-137 0 -254 -62.5t-204 -181.5q-149 244 -415 244q-225 0 -356 -147 q-130 -146 -130 -411zM234 531q0 209 92 334q95 128 258 128q158 0 257 -130q93 -131 93 -332q0 -211 -93 -334q-94 -130 -257 -130q-165 0 -260 128q-90 122 -90 336zM1072 600q18 188 118.5 290.5t268.5 102.5q149 0 240 -100q92 -98 92 -291z" />
<glyph unicode="&#x15e;" horiz-adv-x="1247" d="M144 1075q0 -146 88 -237q97 -87 311 -132q14 -3 41.5 -8t42.5 -8q17 -4 43 -8q172 -40 252 -108q87 -78 87 -216q0 -153 -110 -237t-313 -84q-210 0 -437 108v-92q237 -82 437 -82q265 0 402 102.5t137 300.5q0 164 -103 265t-312 142q-19 4 -62 12.5t-62 12.5 q-188 36 -258 94q-76 67 -76 193q0 146 105 225.5t300 79.5q170 0 375 -87v91q-219 65 -399 65q-104 0 -200.5 -30t-165.5 -78q-123 -102 -123 -284zM435 -317v-60q70 -18 147 -18q207 0 207 149q0 77 -93 185h-47q59 -86 59 -147q0 -124 -147 -124q-80 0 -126 15z" />
<glyph unicode="&#x15f;" horiz-adv-x="1024" d="M128 29q198 -58 354 -58q203 0 318 82q106 77 106 214q0 117 -66 183q-82 69 -264 110q-8 2 -20 6q-15 4 -45 8q-158 35 -224 81q-71 58 -71 145q0 224 335 224q156 0 296 -55v65q-139 47 -320 47q-188 0 -289.5 -75.5t-101.5 -215.5q0 -111 68.5 -176t222.5 -97l66 -16 q185 -43 250 -90q73 -57 73 -157q0 -108 -86 -167t-244 -59q-188 0 -358 78v-77zM322 -317v-60q70 -18 148 -18q206 0 206 149q0 78 -92 185h-47q59 -86 59 -147q0 -124 -148 -124q-80 0 -126 15z" />
<glyph unicode="&#x160;" horiz-adv-x="1247" d="M144 1075q0 -146 88 -237q97 -87 311 -132q14 -3 41.5 -8t42.5 -8q17 -4 43 -8q172 -40 252 -108q87 -78 87 -216q0 -153 -110 -237t-313 -84q-210 0 -437 108v-92q237 -82 437 -82q265 0 402 102.5t137 300.5q0 164 -103 265t-312 142q-19 4 -62 12.5t-62 12.5 q-188 36 -258 94q-76 67 -76 193q0 146 105 225.5t300 79.5q170 0 375 -87v91q-219 65 -399 65q-104 0 -200.5 -30t-165.5 -78q-123 -102 -123 -284zM332 1825l203 -256h181l202 256h-134l-159 -172l-159 172h-134z" />
<glyph unicode="&#x161;" horiz-adv-x="1024" d="M128 29q198 -58 354 -58q203 0 318 82q106 77 106 214q0 117 -66 183q-82 69 -264 110q-8 2 -20 6q-15 4 -45 8q-158 35 -224 81q-71 58 -71 145q0 224 335 224q156 0 296 -55v65q-139 47 -320 47q-188 0 -289.5 -75.5t-101.5 -215.5q0 -111 68.5 -176t222.5 -97l66 -16 q185 -43 250 -90q73 -57 73 -157q0 -108 -86 -167t-244 -59q-188 0 -358 78v-77zM248 1581q77 -116 206 -317h118q47 74 207 317h-69q-5 -7 -197 -266l-196 266h-69z" />
<glyph unicode="&#x178;" horiz-adv-x="1200" d="M47 1437l500 -739v-698h108v698l497 739h-98q-31 -46 -95.5 -141.5t-95.5 -141.5q-42 -62 -132 -196.5t-129 -192.5l-455 672h-100zM317 1600h194v195h-194v-195zM692 1600h195v195h-195v-195z" />
<glyph unicode="&#x17d;" horiz-adv-x="1345" d="M96 0h1154v75h-1051l1028 1274v88h-1107v-73h1005l-1029 -1274v-90zM381 1825l203 -256h181l202 256h-133l-160 -172l-159 172h-134z" />
<glyph unicode="&#x17e;" horiz-adv-x="1032" d="M104 0h824v49h-771l771 901v104h-798v-51h747l-773 -899v-104zM252 1581q76 -116 206 -317h118q75 118 206 317h-68q-5 -7 -197 -266l-197 266h-68z" />
<glyph unicode="&#x192;" horiz-adv-x="1249" d="M33 -299v-96q77 -32 175 -32q172 0 260 97q85 97 145 375q23 119 71 356.5t61 304.5h313v82h-295l67 350q58 278 265 278q66 0 132 -32v89q-71 25 -169 25q-134 0 -227.5 -94t-130.5 -260q-10 -54 -33.5 -178t-33.5 -178h-273v-82h253l-143 -722q-36 -176 -96 -247l2 2 q-65 -83 -175 -83q-80 0 -168 45z" />
<glyph unicode="&#x2c6;" d="M226 1264h71q117 161 195 266l196 -266h69q-77 116 -206 317h-118z" />
<glyph unicode="&#x2c7;" d="M226 1581q132 -200 207 -317h118q75 118 206 317h-69q-35 -47 -107.5 -146t-88.5 -120l-197 266h-69z" />
<glyph unicode="&#x2d8;" d="M210 1551q33 -228 282 -228q248 0 281 228h-61q-35 -151 -220 -151q-180 0 -221 151h-61z" />
<glyph unicode="&#x2d9;" d="M419 1351h145v143h-145v-143z" />
<glyph unicode="&#x2da;" d="M246 1496q0 -102 71 -173t175 -71q102 0 173 71q72 72 72 173q0 103 -72 175q-71 71 -173 71q-104 0 -175 -71t-71 -175zM309 1496q0 77 53 130q56 53 130 53q73 0 129 -53q53 -56 53 -130q0 -75 -53 -128q-55 -55 -129 -55q-77 0 -130 53t-53 130z" />
<glyph unicode="&#x2db;" d="M340 -246q0 -76 51 -112.5t158 -36.5q45 0 106 12v64q-38 -13 -95 -13q-139 0 -139 122q0 63 59 149h-47q-93 -112 -93 -185z" />
<glyph unicode="&#x2dc;" d="M193 1311h65q6 79 31 117.5t73 38.5q35 0 88 -47l59 -56h-2q62 -53 120 -53q72 0 113.5 58t49.5 165h-65q-12 -156 -104 -156q-38 0 -88 47l-59 55h2q-63 54 -120 54q-72 0 -113.5 -58t-49.5 -165z" />
<glyph unicode="&#x2dd;" d="M265 1264h71q73 124 189 317h-100zM584 1264h71q141 214 208 317h-106z" />
<glyph unicode="&#x3a9;" horiz-adv-x="1501" d="M77 0h538v130q-170 100 -273 265q-102 171 -102 386q0 251 139 405q142 157 372 157q227 0 370 -155q141 -156 141 -407q0 -217 -104 -384q-93 -160 -271 -265v-132h540v118h-371q222 196 287 332q67 140 67 331q0 296 -183 485q-184 187 -476 187q-294 0 -478 -187h2 q-185 -191 -185 -495q0 -179 71 -321q65 -138 283 -332h-367v-118z" />
<glyph unicode="&#x3c0;" horiz-adv-x="1157" d="M-29 749h153q15 128 118 128h39l-187 -877h173l187 877h313l-77 -362q-35 -164 -43 -224q-10 -75 -10 -112q0 -96 58.5 -145.5t171.5 -49.5q44 0 106 16l30 136q-59 -10 -97 -10q-53 0 -75.5 23.5t-22.5 78.5q0 53 30 181l100 468h175l33 151h-853q-161 0 -228 -61 q-67 -58 -94 -218z" />
<glyph unicode="&#x10a0;" horiz-adv-x="954" d="M92 527q0 -527 388 -527q381 0 381 570q0 270 -187 460q-189 195 -210 448h-122q15 -268 191 -438v2q204 -201 204 -472q0 -462 -257 -462q-260 0 -260 421v96h-128v-98z" />
<glyph unicode="&#x10a1;" horiz-adv-x="956" d="M94 484q0 -484 388 -484q381 0 381 484q0 324 -356 418q171 140 171 341q-40 234 -434 234h-122v-364h98v253q317 0 344 -167q-23 -178 -155 -304q-315 -89 -315 -411zM224 484q0 296 260 302q128 -3 190.5 -78t62.5 -224q0 -376 -255 -376q-258 0 -258 376z" />
<glyph unicode="&#x10a2;" horiz-adv-x="1110" d="M96 433q-3 -217 112 -325t350 -110q458 3 458 435q0 373 -371 416q0 39 35 82.5t93 81.5q98 64 98 151q0 313 -311 313q-317 0 -320 -254v-79h126v79q0 144 194 141q91 1 139 -48.5t54 -151.5q0 -94 -147 -175q-118 -60 -118 -130q-398 -56 -392 -426zM216 433 q-3 315 346 318q331 0 331 -324q0 -319 -333 -319q-174 0 -260 81.5t-84 243.5z" />
<glyph unicode="&#x10a3;" horiz-adv-x="1572" d="M81 985q0 -985 992 -985h156v108h-154q-871 0 -871 879q0 379 262 379q259 0 259 -424q0 -500 382 -500q387 0 381 504q0 532 -381 532q-213 0 -321 -208q-111 208 -320 208q-171 0 -268 -125.5t-117 -367.5zM849 946q0 420 258 420q257 0 257 -420q0 -392 -257 -392 q-258 0 -258 392z" />
<glyph unicode="&#x10a4;" horiz-adv-x="954" d="M92 401q3 -400 382 -403q195 2 291 101.5t96 301.5v684q0 393 -381 393q-386 0 -386 -349q0 -255 248 -297v125q-124 35 -124 164q0 247 256 247q263 0 263 -283v-684q0 -293 -257 -293q-262 0 -262 293v51h-126v-51z" />
<glyph unicode="&#x10a5;" horiz-adv-x="954" d="M92 401q0 -401 388 -401q381 0 381 401v83q0 205 -206 293q206 149 206 342q0 359 -381 359q-386 0 -386 -393v-69h124v69q0 142 64 211t194 68q261 3 261 -251q0 -247 -228 -283h-128v-106h122q234 -9 234 -240v-83q0 -293 -257 -293q-262 0 -262 293v179h-126v-179z " />
<glyph unicode="&#x10a6;" horiz-adv-x="1159" d="M51 1113q8 -145 90.5 -232t239.5 -112q-137 -82 -149 -297q8 -227 113 -349.5t302 -122.5q425 0 425 484q0 223 -130 326q-135 106 -291 85q94 130 94 228q-9 157 -99.5 247t-260.5 108q-155 -18 -239 -112.5t-95 -252.5zM169 1123q18 219 216 243q231 -24 240 -243v-2 q-15 -245 -242 -260q-199 30 -214 262zM356 484q0 320 299 320q279 -12 279 -320q0 -376 -287 -376q-291 0 -291 376z" />
<glyph unicode="&#x10a7;" horiz-adv-x="1572" d="M81 484q0 -484 377 -484q391 0 391 484v546q0 336 226 336q289 0 289 -336v-546q0 -356 -259 -374v-110q387 3 387 484v546q0 448 -417 448q-225 0 -267 -210h-55q-42 210 -287 210q-385 0 -385 -448v-546zM204 484v546q0 336 262 336q258 0 258 -336v-546 q0 -376 -258 -376q-262 0 -262 376z" />
<glyph unicode="&#x10a8;" horiz-adv-x="954" d="M92 484q0 -404 278 -478v110q-152 52 -152 368v546q0 336 262 336q257 0 257 -336v-546q0 -317 -145 -368v-110q269 70 269 478v546q0 448 -381 448q-388 0 -388 -448v-546z" />
<glyph unicode="&#x10a9;" horiz-adv-x="954" d="M92 401q0 -401 388 -401q381 0 381 401v83q0 205 -206 293q206 152 206 340q-25 316 -436 358v-113q312 -27 312 -249q0 -247 -228 -283h-128v-106h122q234 -9 234 -240v-83q0 -293 -257 -293q-262 0 -262 293v51h-126v-51z" />
<glyph unicode="&#x10aa;" horiz-adv-x="2183" d="M69 948q38 -409 327 -652.5t801 -295.5h382v108h-386q-934 58 -1002 838q0 420 261 420q260 0 260 -393v-145h124v145q0 393 257 393q258 0 258 -393v-145h124v145q6 393 261 393q258 0 258 -395q-6 -164 -73 -257.5t-187 -113.5v-108q356 39 374 481q12 505 -372 505 q-206 0 -322 -243q-110 243 -321 243q-205 0 -318 -245q-116 245 -323 245q-383 0 -383 -530z" />
<glyph unicode="&#x10ab;" horiz-adv-x="954" d="M92 484q0 -484 388 -484q381 0 381 484v601q0 393 -381 393q-369 0 -384 -330h120q15 220 258 220q263 0 263 -283v-299q-131 121 -263 130q-382 -21 -382 -432zM218 484q0 304 256 304q263 -6 263 -304q0 -376 -257 -376q-262 0 -262 376z" />
<glyph unicode="&#x10ac;" horiz-adv-x="954" d="M94 478q0 -478 382 -478q385 0 385 484q0 429 -383 432q-100 -3 -260 -157v326q0 281 262 281h381v112h-385q-382 0 -382 -393v-607zM218 484q0 298 258 304q261 0 261 -304q0 -376 -261 -376q-258 0 -258 376z" />
<glyph unicode="&#x10ad;" horiz-adv-x="1572" d="M81 484q0 -415 355 -480v110q-232 51 -232 370v546q0 336 262 336q258 0 258 -281v-479h125v471q0 289 226 289q289 0 289 -336v-546q0 -356 -257 -374v-106q387 65 381 468v558q0 448 -413 448q-181 0 -289 -208q-111 208 -320 208q-385 0 -385 -448v-546z" />
<glyph unicode="&#x10ae;" horiz-adv-x="954" d="M92 401q0 -401 384 -401q383 0 383 401q0 265 -250 374q250 109 250 310q0 393 -613 393h-152v-110h152q491 0 491 -283v-4q0 -249 -261 -249h-124v-116h122q263 3 263 -315q0 -293 -263 -293q-256 0 -256 293v100h-126v-100z" />
<glyph unicode="&#x10af;" horiz-adv-x="1083" d="M51 1018q0 -353 297 -353q307 0 307 365q0 130 -126 336h342v-965q0 -293 -258 -293q-257 0 -257 271v16h-126v-16q0 -191 95 -285t286 -96q386 3 386 403v1077h-600v-121q126 -199 132 -329q0 -263 -183 -263q-171 3 -171 253v111h-124v-111z" />
<glyph unicode="&#x10b0;" horiz-adv-x="1572" d="M83 478q-3 -457 350 -478v110q-229 18 -229 374q0 304 258 304q262 0 262 -338v-143h123v143q0 338 260 338q255 0 255 -304q0 -356 -226 -374v-110q356 21 356 478q0 438 -401 438q-195 0 -305 -183q-111 183 -326 183q-256 58 -256 256q0 196 256 196h844v110h-844 q-191 0 -284.5 -77t-92.5 -233q-3 -177 222 -299q-225 -119 -222 -391z" />
<glyph unicode="&#x10b1;" horiz-adv-x="952" d="M92 423q0 -423 382 -423q385 0 385 423q0 147 -82 238q-93 99 -99 253h-114q6 -151 77 -222q95 -95 98 -269q-3 -315 -263 -315t-260 315v1055h-124v-1055z" />
<glyph unicode="&#x10b2;" horiz-adv-x="1392" d="M83 486q0 -487 660 -484q282 -1 424 120.5t142 361.5q0 381 -373 387l-10 55q155 56 155 234q0 318 -316 318q-315 0 -315 -316q11 -89 62 -158.5t139 -108.5q-198 -85 -201 -246q8 -112 83 -172t212 -60h16v96q-172 12 -193 130q0 183 150 189h112q358 -21 358 -348 q0 -376 -445 -376q-535 0 -535 378v698h-125v-698zM568 1160q0 206 197 206q200 0 200 -206q0 -217 -200 -220q-197 0 -197 220z" />
<glyph unicode="&#x10b3;" horiz-adv-x="1089" d="M51 1366h159q158 0 158 -267v-197h127v197q0 267 191 267q88 0 130.5 -69.5t42.5 -211.5v-706q0 -271 -287 -271q-305 0 -305 271v219h-123v-219q0 -378 428 -381q198 1 306 98.5t125 284.5v700q0 396 -317 396q-146 0 -246 -170q-118 171 -234 171h-155v-112z" />
<glyph unicode="&#x10b4;" horiz-adv-x="1572" d="M81 993q0 -242 96 -367t283 -131q192 3 290.5 128t98.5 370q0 373 226 373q289 0 289 -281q0 -345 -169 -348h-90v-110h90q169 -3 169 -226q0 -293 -312 -293q-143 0 -217.5 40.5t-87.5 128.5h-120q43 -276 425 -279q436 3 436 403q0 180 -202 291q208 98 202 393 q0 393 -413 393q-180 0 -296 -206q-102 206 -313 206q-385 0 -385 -485zM204 993q0 373 262 373q258 0 258 -373q0 -385 -264 -385q-256 3 -256 385z" />
<glyph unicode="&#x10b5;" horiz-adv-x="952" d="M92 401q0 -402 382 -399q385 -3 385 399v1077h-124v-448q-170 114 -277 114q-269 0 -281 -312h122q15 193 167 202q269 -36 269 -224v-409q0 -148 -64 -220.5t-195 -72.5q-260 0 -260 293v128h-124v-128z" />
<glyph unicode="&#x10b6;" horiz-adv-x="1572" d="M83 1030q-3 -1030 1024 -1030h198v108h-198q-903 0 -903 922q0 336 262 336q258 0 258 -336v-277h125v277q0 336 258 336q257 0 257 -336q0 -381 -259 -405v-112q387 15 387 517q0 448 -385 448q-212 0 -321 -212q-112 212 -320 212q-386 0 -383 -448z" />
<glyph unicode="&#x10b7;" horiz-adv-x="954" d="M65 395h29v6v26zM94 395q0 -394 384 -397q383 3 383 403v1077h-124v-448q0 -243 -253 -322q-266 0 -266 322q0 294 83 448h-100q-107 -135 -107 -448q0 -432 388 -432q138 0 206 137l49 -11v-323q0 -293 -259 -293q-260 0 -260 287h-124zM218 395h30l-30 32v-26v-6z" />
<glyph unicode="&#x10b8;" d="M55 1368q117 -8 176.5 -60t63.5 -154v-45h114v45q6 214 189 214q147 0 171 -281v-275q-147 87 -260 90q-383 0 -383 -452q0 -450 385 -450q382 0 382 450v635q-9 186 -84.5 289t-210.5 103q-146 0 -248 -189q-81 183 -295 189v-109zM248 450q3 338 263 338 q258 0 258 -338q0 -342 -258 -342q-260 0 -263 342z" />
<glyph unicode="&#x10b9;" horiz-adv-x="954" d="M94 0h124v383q0 333 264 333q237 -18 255 -313q0 -272 -90 -411q57 -12 112 -20q102 155 102 427q-25 329 -234 403l-14 45q108 160 114 325q-6 306 -308 306q-325 0 -325 -489v-989zM218 663v326q0 379 201 379q186 0 189 -196v-2q-12 -180 -111 -348q-167 -9 -279 -159 z" />
<glyph unicode="&#x10ba;" horiz-adv-x="1130" d="M88 484q0 -484 486 -484q470 0 470 484q0 184 -315 291q313 112 313 334q0 356 -356 368v-111q230 -15 230 -257q-15 -277 -269 -277h-65v-114h71q236 0 263 -232q3 -378 -342 -378q-360 0 -360 376v546q0 156 26 263.5t86 184.5h-112q-126 -136 -126 -448v-546z" />
<glyph unicode="&#x10bb;" horiz-adv-x="954" d="M92 484q0 -484 388 -484q381 0 381 484v994h-124v-758q-100 165 -261 188q-384 0 -384 -424zM218 484q0 304 256 304q263 0 263 -304q0 -376 -257 -376q-262 0 -262 376z" />
<glyph unicode="&#x10bc;" horiz-adv-x="972" d="M92 484q0 -484 388 -484q379 0 379 484q0 217 -95 324.5t-288 107.5q-125 0 -260 -141v322q0 271 193 271q175 0 175 -214v-6h114v6q9 197 222 212v111q-177 -12 -285 -177q-99 178 -226 178q-318 0 -315 -377v-4zM216 484q0 304 258 304q263 0 263 -304 q0 -376 -257 -376q-264 0 -264 376z" />
<glyph unicode="&#x10bd;" horiz-adv-x="954" d="M65 395h31v6q0 4 -1 12.5t-1 13.5zM96 395q0 -394 380 -397q385 3 385 393q0 252 -259 433q53 66 86 159h171v98h-173q-31 100 -90 148v248h-110v-189q-55 19 -110 19q-138 -12 -209.5 -82.5t-70.5 -196.5q-3 -258 274 -279q118 21 145 26q222 -175 222 -374 q0 -293 -255 -293q-264 0 -264 287h-122zM218 395h30l-30 32v-26v-6zM218 1030q0 183 191 183q175 0 181 -183q-12 -189 -189 -189q-183 0 -183 189z" />
<glyph unicode="&#x10be;" horiz-adv-x="952" d="M92 484q0 -484 384 -484q383 0 383 484q0 432 -383 432q-136 0 -258 -147v709h-126v-994zM218 484q0 304 258 304q259 0 259 -304q0 -376 -259 -376q-258 0 -258 376z" />
<glyph unicode="&#x10bf;" horiz-adv-x="954" d="M92 401q0 -400 382 -403q349 3 385 330q0 168 -155 356q-171 208 -171 330v148l324 -124v102q-57 20 -170 64.5t-154 59.5v214h-116v-184l-325 129v-104q102 -40 321 -130v-178q0 -144 155 -327q169 -201 169 -360q-49 -216 -261 -216q-258 0 -258 293v110h-126v-110z " />
<glyph unicode="&#x10c0;" horiz-adv-x="954" d="M92 383q0 -383 384 -383q383 0 383 326q0 143 -126 242q126 87 126 203q0 87 -126 177q126 99 126 224q0 306 -487 306h-238v-112h238q363 0 363 -194q0 -171 -129 -165h-183v-110h175q139 -6 139 -128q0 -142 -139 -148h-175v-108h175q139 0 139 -187q0 -218 -261 -218 q-258 0 -258 275v12h-126v-12z" />
<glyph unicode="&#x10c1;" horiz-adv-x="1009" d="M92 401q0 -401 407 -401q417 0 417 354q0 172 -135 273q136 110 133 199q3 83 -120 200q123 102 120 183q2 130 -91.5 197.5t-281.5 70.5v-111q246 -9 255 -157q-9 -130 -133 -130h-122v-123h122q124 0 133 -130q-9 -134 -131 -134h-124v-118h124q123 0 123 -220 q0 -246 -287 -246q-285 0 -285 293v932h-124v-932z" />
<glyph unicode="&#x10c2;" horiz-adv-x="954" d="M94 -73v-126q167 36 386 207q218 -176 375 -207v120q-162 24 -267 85q273 149 273 478v540q0 453 -385 453q-382 0 -382 -453v-540q0 -326 270 -474q-107 -69 -270 -83zM218 484v540q0 342 258 342q261 0 261 -342v-540q0 -376 -257 -376q-262 0 -262 376z" />
<glyph unicode="&#x10c3;" horiz-adv-x="954" d="M92 1178h126v188h525q-74 -452 -269 -452h-122v-120h122q263 -3 263 -393q0 -293 -257 -293q-262 0 -262 262v82h-124v-73q0 -378 380 -381q195 2 291 101.5t96 301.5q0 403 -281 442q275 192 281 635h-769v-300z" />
<glyph unicode="&#x10c4;" horiz-adv-x="954" d="M65 395h29v6v26zM94 395q0 -394 384 -397q383 3 383 403q0 268 -310 383q310 121 310 417v238q-78 -72 -169 -102t-214 -28q-115 0 -181.5 43.5t-78.5 125.5h-124q13 -131 112.5 -204t271.5 -81q70 3 261 48q0 -332 -257 -400h-130v-117h149q236 -43 236 -323 q0 -293 -259 -293q-260 0 -260 287h-124zM218 395h30l-30 32v-26v-6z" />
<glyph unicode="&#x10c5;" horiz-adv-x="1071" d="M90 326q0 -325 388 -328q381 3 381 328v128h122v114q-21 0 -64 -1t-58 -1v334h122v116h-122v156q0 306 -381 306q-388 0 -388 -306q0 -338 262 -447q-262 -115 -262 -399zM214 326q0 333 256 339h265v-339q0 -218 -257 -218q-264 0 -264 218zM214 1172q0 194 264 194 q257 0 257 -194v-388h-263q-258 0 -258 388z" />
<glyph unicode="&#x10c6;" horiz-adv-x="1572" d="M81 1018q0 -441 371 -462v118q-246 24 -246 344q0 348 260 348q258 0 258 -352v-688q0 -204 -229 -216v-110q356 15 356 326v344q145 -114 252 -114q389 0 389 455q0 467 -383 467q-211 0 -332 -171q-100 171 -311 171q-385 0 -385 -460zM851 1014q0 352 258 352 q259 0 259 -352q0 -334 -259 -334q-258 0 -258 334z" />
<glyph unicode="&#x10d0;" horiz-adv-x="890" d="M77 415q0 -111 48.5 -205.5t137 -152t197.5 -57.5q96 0 179 60t130 155.5t47 199.5q0 146 -77 263t-216 171q-64 25 -99 55t-35 79h-96q1 -24 16 -47t36 -40.5t57.5 -37.5t65 -32.5t73.5 -31.5q62 -25 105.5 -89.5t62 -139t18.5 -150.5q0 -179 -75.5 -266.5t-195.5 -87.5 q-279 0 -279 362q0 55 20 90l-81 41q-35 -56 -39 -139z" />
<glyph unicode="&#x10d1;" horiz-adv-x="925" d="M77 480q0 -224 112 -352t285 -128q162 0 268.5 138.5t106.5 343.5q0 192 -85.5 322t-238.5 171v177q0 159 -124 191q-59 12 -106 56.5t-49 82.5h-122q-2 -37 14 -73.5t51 -44.5q251 -54 251 -206v-187q-177 -36 -270 -168t-93 -323zM187 486q0 435 289 450 q273 -15 273 -450q0 -186 -76 -305.5t-199 -119.5q-128 0 -207.5 115.5t-79.5 309.5z" />
<glyph unicode="&#x10d2;" horiz-adv-x="1024" d="M77 -18q0 -189 117.5 -303t320.5 -114q188 0 310.5 116.5t122.5 308.5q0 157 -106.5 268t-287.5 153q111 66 172.5 147.5t61.5 153.5v25q0 86 -86.5 156t-227.5 70q-147 0 -233 -58t-86 -158q0 -46 21.5 -100t55.5 -85l51 57q-17 15 -26 36t-10 34.5t-1 37.5 q0 95 59.5 133t172.5 38q96 0 156 -49.5t60 -130.5q0 -97 -53 -175t-142 -132q-195 -31 -308.5 -146.5t-113.5 -282.5zM185 -12q0 165 87.5 262t246.5 118q160 -21 246 -117.5t86 -260.5q0 -168 -96.5 -267t-241.5 -99q-148 0 -238 98t-90 266z" />
<glyph unicode="&#x10d3;" horiz-adv-x="1538" d="M77 497q0 -72 22.5 -156.5t67 -173.5t124.5 -170t181 -129l-2 -13q-50 -4 -127.5 -31t-108.5 -50l51 -61q66 46 118.5 65t125.5 19q338 0 501 -226h102q-65 102 -195.5 171t-364.5 136q-118 35 -206 127.5t-133.5 221.5t-45.5 278q0 168 71.5 280.5t189.5 112.5 q121 0 182.5 -104.5t61.5 -307.5q0 -198 111 -331t269 -133q164 0 277.5 136t113.5 337q0 220 -107.5 344t-280.5 124q-74 0 -135.5 -24t-116 -88.5t-82.5 -166.5q-36 150 -106.5 214.5t-190.5 64.5q-158 0 -262.5 -133.5t-104.5 -332.5zM800 486q0 199 70 305.5t205 106.5 q151 0 217.5 -101t66.5 -290v-23q0 -192 -75 -297.5t-207 -105.5q-136 0 -206.5 109t-70.5 296z" />
<glyph unicode="&#x10d4;" horiz-adv-x="937" d="M77 -87q0 -139 116.5 -243.5t272.5 -104.5q164 0 275.5 107.5t111.5 262.5v637q0 191 -92 291t-269 100q-172 0 -269 -90t-97 -240q0 -101 55.5 -175.5t154.5 -103.5v75q-50 24 -79 75t-29 125q0 131 62.5 200t201.5 69q125 0 194 -82t69 -242v-664q0 -109 -85 -197.5 t-206 -88.5q-125 0 -203 84.5t-78 222.5q0 80 39 167l-98 28q-47 -107 -47 -213z" />
<glyph unicode="&#x10d5;" horiz-adv-x="919" d="M77 -104q0 -140 105.5 -235.5t279.5 -95.5q166 0 273.5 108.5t107.5 267.5v59q0 97 -59 167.5t-200 115.5q138 75 198.5 152.5t60.5 170.5q0 162 -95.5 259.5t-263.5 97.5q-170 0 -267 -88t-97 -250q0 -48 28.5 -106t61.5 -84l65 45q-51 60 -51 141q0 136 72 206.5 t188 70.5q124 0 187.5 -76t63.5 -222q0 -105 -71 -198t-155 -93h-80v-57h92q99 0 156.5 -71t57.5 -185v-67q0 -134 -72 -219.5t-201 -85.5q-120 0 -199.5 80.5t-79.5 193.5q0 83 6.5 130.5t26.5 83.5l-74 37q-23 -35 -44 -101t-21 -152z" />
<glyph unicode="&#x10d6;" horiz-adv-x="972" d="M77 1213q0 -125 77.5 -207.5t219.5 -107.5q-119 -43 -187.5 -162t-68.5 -264q0 -203 111.5 -337.5t277.5 -134.5q171 0 280.5 132.5t109.5 343.5q0 191 -106 309.5t-292 140.5q85 43 140 115.5t55 173.5q0 115 -88.5 192t-226.5 77q-132 0 -217 -76.5t-85 -194.5z M165 1182q0 117 58 182t154 65q103 0 163 -64t60 -177v-12q0 -105 -44.5 -161.5t-142.5 -88.5q-96 13 -172 85t-76 171zM222 474q0 195 78 299t205 104q116 0 197.5 -109t81.5 -292v-4q0 -180 -78 -295.5t-199 -115.5t-203 115t-82 298z" />
<glyph unicode="&#x10d7;" horiz-adv-x="1546" d="M77 482q0 -197 119 -339.5t274 -142.5q99 0 188 68t142 176.5t53 223.5q0 211 66 320.5t194 109.5q115 0 181.5 -101.5t66.5 -299.5q0 -122 -78 -247.5t-178 -188.5v-65q152 58 258.5 200.5t107.5 296.5q-1 223 -98.5 346.5t-259.5 123.5q-104 0 -187 -77.5t-114 -205.5 q-46 128 -144 205.5t-204 77.5q-104 0 -193.5 -66.5t-141.5 -177.5t-52 -237zM183 476q0 183 76 302.5t203 119.5q128 0 205.5 -112.5t77.5 -303.5v-22q0 -184 -76.5 -291.5t-196.5 -107.5q-128 0 -208.5 111.5t-80.5 303.5z" />
<glyph unicode="&#x10d8;" horiz-adv-x="931" d="M77 486q0 -165 60 -292.5t166 -195.5q2 9 12 35q-124 187 -124 453q0 188 75 300t202 112t203 -112.5t76 -299.5q0 -266 -128 -453q1 -5 5.5 -14.5t8.5 -20.5q104 69 163 196.5t59 291.5q0 130 -49.5 239.5t-138.5 173.5t-199 64q-165 0 -278 -139t-113 -338z" />
<glyph unicode="&#x10d9;" horiz-adv-x="925" d="M77 -85q0 -164 104 -257t279 -93q157 0 273 109t116 253v30q0 51 -21 104.5t-61.5 103t-110 84.5t-155.5 44q86 7 151 39t100 78t51.5 93.5t16.5 94.5q0 150 -135 247t-366 97v-65q196 0 300.5 -80t104.5 -203q0 -136 -66 -204t-192 -68h-98v-62h94q143 0 212 -76 t69 -210v-43q0 -140 -75.5 -223.5t-205.5 -83.5t-203.5 79t-73.5 222q0 89 35 185l-67 32q-76 -95 -76 -227z" />
<glyph unicode="&#x10da;" horiz-adv-x="2095" d="M77 503q0 -164 141.5 -316.5t349.5 -227.5l2 -18q-23 -8 -55.5 -26t-55.5 -33.5t-52.5 -36.5t-34.5 -24l43 -53q129 132 310 132q54 0 105 -10l-2 2q247 -34 399 -121.5t191 -199.5h100q-35 143 -196.5 239t-428.5 117q-315 25 -510.5 179.5t-195.5 390.5q0 165 73 278.5 t184 113.5q255 0 270 -297l8 -191h70l8 191q9 152 72 229t176 77q235 0 250 -306l7 -191h73l8 191q17 297 267 297q123 0 190.5 -98t67.5 -276v-12q0 -222 -197 -358v-60q147 67 226 176.5t79 253.5q0 195 -98 311.5t-269 125.5q-188 0 -303 -201q-125 212 -301 212 q-166 0 -279 -212q-133 201 -323 201q-162 0 -265.5 -127t-103.5 -322z" />
<glyph unicode="&#x10db;" horiz-adv-x="950" d="M77 488q0 -210 111.5 -349t275.5 -139q180 0 285.5 129.5t105.5 356.5v641q0 160 -108 257.5t-277 97.5q-139 0 -232.5 -67t-111.5 -186h106q12 98 70 143.5t166 45.5q141 0 215 -72.5t74 -216.5v-345q-29 58 -81.5 100t-105.5 60.5t-100 18.5q-173 0 -283 -129.5 t-110 -345.5zM185 488q0 179 78 294.5t205 115.5q132 0 210.5 -107.5t78.5 -304.5v-2q0 -198 -80 -310.5t-211 -112.5q-119 0 -200 123.5t-81 303.5z" />
<glyph unicode="&#x10dc;" horiz-adv-x="946" d="M96 486q0 -225 104 -355.5t282 -130.5q168 0 278.5 138.5t110.5 347.5q0 213 -106 345t-281 132q-83 0 -162.5 -55.5t-126.5 -166.5v445q0 104 54 169.5t134 65.5l398 -19v80h-390q-127 0 -211 -85t-84 -217v-694zM195 484q0 180 80 297t199 117q135 0 211 -109t76 -299 v-12q0 -175 -78 -296t-199 -121q-124 0 -206.5 117t-82.5 306z" />
<glyph unicode="&#x10dd;" horiz-adv-x="1511" d="M77 490q0 -153 99 -292t266 -210v63q-112 73 -184.5 196t-72.5 239q0 193 68.5 302.5t184.5 109.5q125 0 195.5 -87.5t78.5 -236.5l8 -210h72l6 210q9 150 80 237t199 87q119 0 184.5 -108t65.5 -302q0 -122 -72 -246.5t-187 -192.5v-63q167 68 267 208.5t100 295.5 q0 206 -101.5 339.5t-256.5 133.5q-202 0 -322 -247q-118 247 -315 247q-156 0 -259 -133.5t-104 -339.5z" />
<glyph unicode="&#x10de;" horiz-adv-x="931" d="M77 374q0 -151 113.5 -262.5t273.5 -111.5q172 0 281.5 125.5t109.5 318.5q0 129 -85 241.5t-233 144.5q128 25 201.5 100t73.5 183q0 226 -275 265q-274 36 -331 104h-114q3 -44 76 -74.5t184 -41.5q179 -18 266 -77.5t88 -173.5q0 -113 -56 -182.5t-160 -69.5h-91v-67 h89q84 0 143.5 -49t86.5 -125t27 -170q0 -178 -79.5 -284.5t-201.5 -106.5q-117 0 -196 86.5t-79 222.5v47h-112v-43z" />
<glyph unicode="&#x10df;" horiz-adv-x="1011" d="M106 435q0 -134 65.5 -199t204.5 -65q132 0 206.5 85.5t74.5 215.5q0 32 -12 63t-40.5 67.5t-51 61.5t-69 72.5t-69.5 71.5l417 120v-1009q0 -138 -75.5 -216.5t-205.5 -78.5q-113 0 -177.5 69t-64.5 187q0 96 13 120l-72 33q-14 -17 -30 -69t-16 -78q0 -137 97 -229 t250 -92q173 0 274 98.5t101 261.5v1058l-584 -149v-34q14 -14 46.5 -45t50 -48.5t43 -47.5t39 -54t23.5 -55.5t10 -63.5v-20q0 -123 -42 -182.5t-136 -59.5q-87 0 -125.5 48.5t-38.5 156.5q0 54 5.5 73.5t30.5 44.5l-73 43q-28 -28 -49 -71t-20 -84z" />
<glyph unicode="&#x10e0;" horiz-adv-x="1531" d="M77 529q0 -183 100.5 -325.5t274.5 -201.5v63q-265 127 -265 462q0 175 66 273t176 98q137 0 212.5 -87t82.5 -255l9 -194h69l8 194q8 159 80 250.5t197 91.5q119 0 191.5 -100.5t72.5 -270.5q0 -337 -272 -462v-63q179 58 278.5 200t99.5 325q0 185 -108.5 310.5 t-263.5 125.5q-201 0 -318 -245q-59 125 -134.5 185t-180.5 60q-69 0 -145 -36t-120 -89q101 224 302.5 354.5t576.5 223.5l-24 55q-325 -85 -503.5 -170.5t-269.5 -211.5q-192 -266 -192 -560z" />
<glyph unicode="&#x10e1;" horiz-adv-x="944" d="M96 476q0 -206 107.5 -341t282.5 -135q167 0 275 128.5t108 339.5q0 56 -14 103.5t-36.5 80t-49.5 60t-54 49.5t-49.5 42t-36.5 44.5t-14 50.5q0 28 38 87l-53 31q-77 -80 -77 -131q0 -36 24.5 -68.5t59 -62.5t69 -65.5t59 -94t24.5 -132.5q0 -190 -74 -295.5 t-199 -105.5q-131 0 -213 112t-82 295v1014h-95v-1006z" />
<glyph unicode="&#x10e2;" horiz-adv-x="1183" d="M77 242q0 -147 44 -275.5t116.5 -215t166.5 -136.5t192 -50q94 0 186 50t164 136t116.5 213t44.5 270q0 164 -52 304.5t-160 244t-258 139.5v303h-79v-303q-230 -56 -355.5 -242.5t-125.5 -437.5zM187 242v2q0 155 38.5 280.5t123 219.5t209.5 141v-525h79v525 q187 -71 276.5 -236.5t89.5 -404.5q0 -286 -106.5 -453.5t-300.5 -166.5q-196 0 -301 166t-108 452z" />
<glyph unicode="&#x10e3;" d="M57 904q132 -4 207.5 -72t81.5 -185l8 -220h79l7 220q0 251 181 251q187 0 187 -292v-689q0 -136 -69.5 -214.5t-191.5 -78.5q-134 0 -204 79t-70 232q0 76 16 122.5t51 93.5l-77 36q-25 -38 -41.5 -69t-32.5 -87.5t-16 -115.5q0 -155 104 -252.5t268 -97.5 q159 0 256 100t97 258v681q0 172 -71 266.5t-210 94.5q-53 0 -91 -16.5t-64 -53t-43 -77.5t-36 -108q-15 127 -93 191t-231 64h-2v-61z" />
<glyph unicode="&#x10e4;" horiz-adv-x="1546" d="M77 497q0 -98 34.5 -183.5t90 -142t124 -88.5t138.5 -32q99 0 187 56t144 161t56 235q1 206 60 299.5t180 95.5q132 0 200 -72.5t68 -237.5q0 -137 -61 -231t-158 -94h-53v-41h53q92 0 154.5 -79.5t62.5 -189.5v-34q0 -151 -71 -223t-236 -72q-54 0 -101.5 17.5t-80.5 46 t-57.5 64t-36 71t-11.5 67.5h-106q0 -44 11.5 -86.5t41 -86.5t73 -77t114.5 -54t159 -21q415 0 415 362v24q0 97 -76 177t-207 116q127 34 205 135t78 209q0 175 -105 275t-275 100q-93 0 -171.5 -67.5t-101.5 -197.5q-117 265 -350 265q-173 0 -282 -125t-109 -341z M187 497q0 186 80 293.5t199 107.5q133 0 205 -101.5t72 -299.5v-2q0 -204 -71 -291.5t-210 -87.5q-123 0 -199 99.5t-76 281.5z" />
<glyph unicode="&#x10e5;" horiz-adv-x="948" d="M77 -87q0 -150 109 -249t280 -99q169 0 278 98.5t109 261.5v1557h-88v-735q-84 216 -279 216q-161 0 -245 -80.5t-84 -227.5q0 -103 58 -172t159 -98v69q-107 61 -107 201q0 128 50 185.5t169 57.5q125 0 197 -102t72 -289v-594q0 -133 -82.5 -211t-204.5 -78t-200.5 80 t-78.5 215q0 61 13 114t34 79l-67 43q-32 -27 -62 -91.5t-30 -150.5z" />
<glyph unicode="&#x10e6;" horiz-adv-x="1513" d="M77 478q0 -200 115 -361t307 -233q-56 -8 -99.5 -23t-62.5 -27.5t-36.5 -27t-21.5 -16.5l41 -55q96 68 172 87t190 -1q71 -13 131 -43t99 -67.5t63 -75t34 -73.5h94q-24 107 -133 184.5t-298 115.5q-223 46 -356 209.5t-133 398.5q0 189 68.5 308.5t184.5 119.5 q128 0 199 -80.5t79 -225.5l8 -228h70l8 228q8 149 74.5 227.5t187.5 78.5q126 0 196.5 -95t70.5 -254q0 -162 -53 -268.5t-165 -170.5v-57q324 162 324 492q0 185 -103.5 301.5t-273.5 116.5q-182 0 -299 -259q-62 135 -133.5 197t-183.5 62q-166 0 -265.5 -132.5 t-99.5 -352.5z" />
<glyph unicode="&#x10e7;" horiz-adv-x="931" d="M77 -90q0 -164 109.5 -254.5t273.5 -90.5q177 0 281 101t104 253v1003h-98v-486q0 -117 -82.5 -195t-192.5 -78q-120 0 -195.5 106t-75.5 282q0 197 198 387q-18 9 -39 21q-60 -42 -103 -80t-82 -87.5t-59 -109t-20 -128.5q0 -208 104 -328t274 -120q73 0 152 48t121 111 v-346q0 -137 -74.5 -216t-212.5 -79q-78 0 -146 45t-105.5 110.5t-37.5 130.5q0 46 12 70l-69 36q-37 -43 -37 -106z" />
<glyph unicode="&#x10e8;" horiz-adv-x="948" d="M77 1482l4 -61h21q100 0 159 -66t65 -175v-108h73v108q14 241 171 241q183 0 183 -310v-313l-22 -10q-15 43 -90 90t-173 48h-2q-178 0 -282.5 -127.5t-104.5 -334.5q0 -200 112 -332t277 -132q185 0 285 126t100 360v625q0 371 -279 371q-41 0 -71 -7.5t-61 -27.5 t-52.5 -62.5t-31.5 -106.5q-16 63 -43.5 106t-64 63t-70 27.5t-76.5 7.5h-27zM185 464q0 173 78 286t203 113t206 -102.5t81 -274.5v-2q0 -217 -71 -321t-218 -104q-119 0 -199 110t-80 295z" />
<glyph unicode="&#x10e9;" horiz-adv-x="944" d="M96 0h99v486q0 165 84 265t211 100q119 0 195 -101t76 -247q0 -286 -150 -513v-2q0 -4 20.5 -9t38.5 -5q17 0 20 6q179 224 179 523q0 150 -79 263t-216 148v24q46 28 88.5 104.5t45.5 162.5q-3 117 -92.5 197t-241.5 80q-130 0 -204 -83.5t-74 -228.5v-1170zM195 735 v423q0 124 47.5 193.5t131.5 69.5q113 0 180 -67t67 -166v-8q0 -148 -122 -266q-115 -13 -195.5 -61t-108.5 -118z" />
<glyph unicode="&#x10ea;" horiz-adv-x="1069" d="M77 177q0 -128 39.5 -243.5t103.5 -195t147.5 -126.5t169.5 -47q118 0 223 60t169 164.5t64 226.5q0 31 -5 57.5t-16.5 47.5t-23.5 38.5t-32.5 32t-36 25t-42.5 19.5l-43.5 14.5t-46.5 12t-45 9l-45 7.5q74 7 152.5 53t131 114.5t52.5 133.5q0 64 -42.5 115.5 t-101.5 75.5q-70 28 -116 77t-53 115h-106q4 -49 39.5 -90.5t82.5 -60.5q80 -30 139.5 -98.5t59.5 -133.5q0 -120 -91 -197.5t-222 -77.5h-112v-55h122q130 0 216.5 -62t86.5 -174q0 -170 -103 -280t-257 -110q-139 0 -243.5 141.5t-104.5 374.5v265q0 83 12.5 162.5t40 159 t44 120t50.5 116.5h-106q-53 -113 -102 -311.5t-49 -317.5v-157z" />
<glyph unicode="&#x10eb;" horiz-adv-x="946" d="M77 470q0 -209 106 -339.5t277 -130.5q166 0 279.5 134.5t113.5 345.5v1002h-100v-735q-79 216 -287 216q-167 0 -278 -139.5t-111 -353.5zM181 468q0 197 76 313.5t197 116.5q137 0 218 -112.5t81 -309.5v-6q0 -187 -84 -299t-207 -112q-124 0 -202.5 113.5t-78.5 295.5 z" />
<glyph unicode="&#x10ec;" horiz-adv-x="944" d="M96 488q0 -241 97.5 -364.5t268.5 -123.5q180 0 293.5 131.5t113.5 352.5q0 196 -105 321.5t-280 126.5q-81 0 -170 -49t-119 -108v355q0 156 41 223.5t141 67.5q78 0 121 -62.5t51 -170.5v-116h76v117q5 103 59 167.5t165 64.5h16v61h-24q-101 0 -154.5 -34t-86.5 -115 q-98 149 -242 149q-139 0 -200.5 -89.5t-61.5 -262.5v-642zM187 480v6q0 177 79 279t218 102q128 0 203.5 -105t75.5 -278q0 -197 -85 -310t-218 -113q-122 0 -197.5 102.5t-75.5 316.5z" />
<glyph unicode="&#x10ed;" horiz-adv-x="915" d="M77 -85q0 -162 107.5 -256t281.5 -94t274 95.5t100 254.5q0 59 -29.5 117t-71 105t-83 91t-71 92t-29.5 93v90q47 32 66 60.5t19 79.5h193v53h-185q-1 26 -7.5 44.5t-24.5 35t-27.5 23t-40.5 25.5v658h-81v-597l-92 15q-106 -2 -178 -63t-72 -169q0 -109 70 -171t168 -64 l100 23q2 -56 18.5 -102t41.5 -77t55 -59t59.5 -56.5t54 -60.5t39.5 -79t15 -105q0 -137 -77 -215t-202 -78q-127 0 -211 79t-84 218q0 64 37 150l-78 31q-55 -96 -55 -187zM232 651v31q9 92 52 131.5t119 39.5q79 -8 124.5 -50t52.5 -136q-7 -101 -56.5 -147t-128.5 -46 q-69 0 -112 38.5t-51 138.5z" />
<glyph unicode="&#x10ee;" horiz-adv-x="946" d="M96 486q0 -227 104 -356.5t282 -129.5q180 0 284.5 129.5t104.5 354.5q0 216 -106.5 347.5t-284.5 131.5q-51 0 -105.5 -21.5t-108 -76.5t-75.5 -134v751h-95v-996zM191 482q0 186 82 301t211 115t202 -110t73 -300v-8q0 -197 -73.5 -308t-203.5 -111q-123 0 -207 114 t-84 307z" />
<glyph unicode="&#x10ef;" horiz-adv-x="933" d="M77 -85q0 -162 102.5 -256t280.5 -94q171 0 282 100t111 258q0 163 -153 266q-167 112 -167 273v171l324 -159v61q-71 32 -324 151v476h-98v-431l-339 132v-65q310 -114 339 -124v-202q28 -192 153 -252q157 -78 157 -269q0 -142 -80 -234.5t-205 -92.5t-201 83t-76 216 q0 87 43 148l-71 49q-27 -27 -52.5 -90.5t-25.5 -114.5z" />
<glyph unicode="&#x10f0;" horiz-adv-x="940" d="M77 376q0 -165 109.5 -270.5t283.5 -105.5q172 0 278.5 86t106.5 233q0 64 -58 139.5t-152 103.5q96 27 153 87t57 114q0 56 -56.5 112t-153.5 84q95 33 152.5 97.5t57.5 121.5q0 157 -202 181q-274 34 -315 123h-110q22 -94 242 -129q279 -39 279 -177q0 -85 -49.5 -134 t-123.5 -49h-165v-51h157q76 0 128.5 -51t52.5 -128q0 -79 -54 -130t-133 -51h-151v-49h155q80 0 130.5 -68.5t50.5 -169.5q0 -104 -78 -169t-203 -65q-124 0 -203 83.5t-80 225.5v47h-106v-41z" />
<glyph unicode="&#x10f1;" horiz-adv-x="1015" d="M77 -2q17 -206 118.5 -316.5t282.5 -117.5q430 6 460 257l2 34q0 67 -57.5 129.5t-162.5 133.5q213 94 218 187q-5 133 -268 244q263 97 268 230q0 28 -4 51t-9.5 39t-18.5 30.5t-23.5 23t-33 19t-37.5 17t-46.5 18.5t-51.5 20q99 45 160 106t64 136q-13 62 -134 108 q-137 49 -171 135h-100q22 -80 110 -98q172 -42 193 -138q0 -100 -54 -158t-133 -64h-89v-74h95q70 -10 122 -54.5t59 -116.5q-8 -86 -60 -137.5t-121 -61.5h-95v-69h95q72 -17 123 -68.5t58 -137.5q-8 -67 -60 -112t-123 -63h-93v-73h93q77 -8 130 -73t53 -177 q-27 -184 -360 -184q-252 0 -285 365q0 314 49 600h-2q16 104 16 183q0 163 -50 312h-98q45 -155 45 -310q0 -103 -19 -205q-49 -280 -55 -570z" />
<glyph unicode="&#x10f2;" horiz-adv-x="931" d="M77 474q1 -143 81.5 -273.5t218.5 -229.5q-79 -118 -257 -142v-90q197 72 348 214q160 -147 344 -214v90q-154 18 -250 147q290 200 293 500q-12 224 -111 350.5t-276 136.5q-361 -24 -391 -489zM189 478q0 419 279 419q277 0 277 -419q0 -374 -277 -474 q-279 97 -279 474z" />
<glyph unicode="&#x10f3;" horiz-adv-x="931" d="M77 -90q5 -155 104.5 -249.5t274.5 -93.5q181 -1 284.5 94.5t114.5 261.5v24q-10 58 -22.5 102.5t-40.5 98.5t-66 91.5t-101 67.5t-145 41q343 200 371 615h-731v-245h104v180h519q-3 -99 -51 -223t-123 -214.5t-144 -90.5h-83v-50h81q136 0 228.5 -96.5t93.5 -260.5v-42 q0 -150 -69 -223.5t-210 -73.5q-279 0 -279 303l6 36q-83 11 -99 13z" />
<glyph unicode="&#x10f4;" horiz-adv-x="931" d="M77 1111q3 -114 135.5 -204.5t318.5 -90.5q76 0 210 51v-14q0 -158 -29 -272t-92 -179.5t-156 -65.5h-122v-69h118q140 0 212.5 -79t72.5 -210v-57q0 -297 -279 -297q-128 0 -196.5 58.5t-80.5 181.5h-108q17 -141 115 -220t270 -79q191 0 290 94.5t99 261.5v57 q0 53 -18.5 101.5t-58 94.5t-112 79.5t-171.5 47.5q83 18 146 59.5t100.5 92.5t62.5 120.5t35.5 129t15.5 131.5v177q-200 -138 -389 -138q-273 45 -285 242q9 217 248 291v65q-328 -92 -352 -360z" />
<glyph unicode="&#x10f5;" horiz-adv-x="1032" d="M77 287q0 -287 387 -287q391 0 391 287v246h122v69h-122v281h122v67h-122v249q0 283 -387 283q-391 0 -391 -283q0 -151 100 -233.5t283 -82.5h297v-281h-297q-194 -3 -288.5 -80.5t-94.5 -234.5zM189 295q0 238 271 238h297v-228q0 -121 -74 -182.5t-215 -61.5 q-279 0 -279 234zM189 1197q0 221 279 221q141 0 215 -55.5t74 -163.5v-249h-297q-271 0 -271 247z" />
<glyph unicode="&#x10f6;" horiz-adv-x="1599" d="M77 495q9 -187 100 -299t267 -155v71q-234 79 -255 380q21 375 273 405q144 0 219.5 -102t75.5 -302v-595q0 -124 -65.5 -193.5t-182.5 -81.5v-58q346 18 346 335v299q131 -181 281 -199q364 27 388 493q-24 446 -394 470q-216 0 -338 -222q-110 222 -322 222 q-372 -24 -393 -468zM855 495q24 368 277 407q254 -30 278 -405v-5q-24 -410 -278 -431q-268 64 -277 434z" />
<glyph unicode="&#x10f7;" horiz-adv-x="1091" d="M77 -51q22 -170 146 -277t326 -107q199 0 324.5 107t142.5 277q-6 131 -47 214q-34 -18 -72 -43q31 -58 31 -163v-18q-3 -138 -109.5 -226.5t-273.5 -88.5q-154 0 -249 87.5t-113 235.5q15 333 368 430q296 83 308 307q-35 262 -314 299q-279 -3 -315 -267v-2 q12 2 38.5 7t50.5 8v4q46 185 230 185q179 0 206 -230q-15 -206 -374 -316q-298 -89 -304 -423z" />
<glyph unicode="&#x10f8;" horiz-adv-x="931" d="M87 -81v1003h98v-486q0 -116 91.5 -194.5t203.5 -78.5q120 0 195.5 106t75.5 282q0 233 -161 387q6 3 19.5 10t21.5 11q114 -79 169 -173t55 -232q0 -208 -103.5 -328t-273.5 -120q-76 0 -163 49t-130 110v-346q0 -136 75 -215.5t212 -79.5q78 0 146 45t105.5 110.5 t37.5 130.5q0 46 -12 70l69 36q37 -43 37 -106q0 -164 -109.5 -254.5t-273.5 -90.5q-177 0 -281 101t-104 253z" />
<glyph unicode="&#x10f9;" horiz-adv-x="1024" d="M77 539q0 -157 107 -269t288 -152q-109 -67 -171.5 -153t-62.5 -158v-25q0 -86 85.5 -151.5t227.5 -65.5q146 0 232 58t86 157q0 48 -20.5 101t-54.5 86l-51 -59q38 -34 38 -109q0 -94 -60 -131.5t-172 -37.5q-100 0 -159.5 45t-59.5 126q0 98 54 180t143 135 q195 32 308 147.5t113 281.5q0 191 -117 304.5t-320 113.5q-189 0 -311.5 -116t-122.5 -308zM173 537v2q0 166 96.5 265.5t241.5 99.5q148 0 239 -98t91 -265t-87.5 -263.5t-246.5 -116.5q-161 20 -247.5 116t-86.5 260z" />
<glyph unicode="&#x10fa;" horiz-adv-x="925" d="M77 568q0 -78 19 -150.5t57.5 -140.5t104.5 -125.5t153 -96.5q-115 5 -168 -10t-94 -65l54 -35q61 88 188 88q70 0 134 -30t108 -72l41 34q-75 61 -251 137q-118 52 -170 163t-58 305q0 157 76 242t201 85q132 0 201.5 -77t69.5 -222q0 -58 -4.5 -83t-18.5 -63l92 -35 q1 2 5 13.5t6 16.5t6 17.5t6 21.5t5 23t5 26.5t3 28.5t1 32q0 93 -31 165.5t-84 115.5t-119.5 64.5t-142.5 21.5q-121 0 -213 -58.5t-137 -147t-45 -189.5z" />
<glyph unicode="&#x10fb;" horiz-adv-x="716" d="M59 0h175v165h-175v-165zM59 777h175v167h-175v-167zM482 395h177v165h-177v-165z" />
<glyph unicode="&#x10fc;" horiz-adv-x="479" d="M20 987q0 -271 198 -271q98 0 147.5 67.5t55.5 203.5q-11 113 -61 181t-136 78l-118 -84v159q0 77 67 77l246 -2v79h-224q-175 0 -175 -173v-315zM106 981q3 162 108 177q112 -3 118 -171q0 -197 -114 -197q-112 0 -112 191z" />
<glyph unicode="&#x2000;" horiz-adv-x="922" />
<glyph unicode="&#x2001;" horiz-adv-x="1844" />
<glyph unicode="&#x2002;" horiz-adv-x="922" />
<glyph unicode="&#x2003;" horiz-adv-x="1844" />
<glyph unicode="&#x2004;" horiz-adv-x="614" />
<glyph unicode="&#x2005;" horiz-adv-x="461" />
<glyph unicode="&#x2006;" horiz-adv-x="307" />
<glyph unicode="&#x2007;" horiz-adv-x="307" />
<glyph unicode="&#x2008;" horiz-adv-x="230" />
<glyph unicode="&#x2009;" horiz-adv-x="368" />
<glyph unicode="&#x200a;" horiz-adv-x="102" />
<glyph unicode="&#x2010;" horiz-adv-x="708" d="M128 493h454v67h-454v-67z" />
<glyph unicode="&#x2011;" horiz-adv-x="708" d="M128 493h454v67h-454v-67z" />
<glyph unicode="&#x2012;" horiz-adv-x="708" d="M128 493h454v67h-454v-67z" />
<glyph unicode="&#x2013;" d="M8 490h967v84h-967v-84z" />
<glyph unicode="&#x2014;" horiz-adv-x="1966" d="M-12 490h1990v84h-1990v-84z" />
<glyph unicode="&#x2018;" horiz-adv-x="624" d="M191 1003h151v145l75 287h-73q-25 -50 -76 -148.5t-77 -148.5v-135z" />
<glyph unicode="&#x2019;" horiz-adv-x="624" d="M203 1024h72q26 50 77 148.5t77 148.5v114h-152v-124z" />
<glyph unicode="&#x201a;" horiz-adv-x="624" d="M199 -238h72q19 37 72 139.5t82 159.5v134h-152v-146z" />
<glyph unicode="&#x201c;" horiz-adv-x="1017" d="M183 1003h151v145l75 287h-73q-26 -50 -77 -148.5t-76 -148.5v-135zM594 1003h151v145l75 287h-73q-25 -50 -76 -148.5t-77 -148.5v-135z" />
<glyph unicode="&#x201d;" horiz-adv-x="1017" d="M191 1003h70q99 187 154 299v133h-152v-145zM602 1003h70q15 30 70.5 135.5t83.5 163.5v133h-152v-145z" />
<glyph unicode="&#x201e;" horiz-adv-x="1017" d="M191 -238h70q111 209 154 299v134h-152v-146zM602 -238h70q13 25 69 132.5t85 166.5v134h-152v-146z" />
<glyph unicode="&#x2020;" d="M65 922h368v-1121h118v1121h367v92h-367v421h-118v-421h-368v-92z" />
<glyph unicode="&#x2021;" d="M65 224h368v-423h118v423h367v95h-367v603h367v92h-367v421h-118v-421h-368v-92h368v-603h-368v-95z" />
<glyph unicode="&#x2022;" horiz-adv-x="1159" d="M313 733q0 -114 76 -190q77 -77 191 -77t191 77q76 76 76 190q0 113 -76 189q-77 77 -189 77q-113 0 -193 -77q-76 -76 -76 -189z" />
<glyph unicode="&#x2026;" horiz-adv-x="1966" d="M224 0h153v195h-153v-195zM906 0h154v195h-154v-195zM1589 0h153v195h-153v-195z" />
<glyph unicode="&#x202f;" horiz-adv-x="368" />
<glyph unicode="&#x2030;" horiz-adv-x="2637" d="M85 1085q0 -175 86 -279q80 -98 230 -98q148 0 228 98q89 104 89 279q0 173 -89 277q-86 101 -228 101q-144 0 -230 -101q-86 -98 -86 -277zM185 1085q0 145 57 228t159 83q100 0 157 -83.5t57 -227.5q0 -146 -56.5 -227t-157.5 -81q-102 0 -159 81t-57 227zM423 -29h90 q154 255 449.5 746t449.5 746h-91zM1117 348q0 -178 86 -279q80 -98 230 -98q148 0 228 98q89 104 89 279t-87 277q-85 100 -230 100t-230 -100q-86 -101 -86 -277zM1219 348q0 146 56.5 228.5t157.5 82.5q100 0 157.5 -82.5t57.5 -228.5q0 -144 -58 -226.5t-157 -82.5 q-100 0 -157 82t-57 227zM1923 348q0 -177 84 -279q80 -98 232 -98q148 0 226 98q89 104 89 279t-87 277q-82 100 -228 100q-144 0 -232 -100q-84 -102 -84 -277zM2021 348q0 146 58 228.5t160 82.5q100 0 157.5 -82.5t57.5 -228.5q0 -144 -58 -226.5t-157 -82.5 q-102 0 -160 82t-58 227z" />
<glyph unicode="&#x2039;" horiz-adv-x="786" d="M151 537l451 -401v183l-289 257l289 258v182l-451 -401v-78z" />
<glyph unicode="&#x203a;" horiz-adv-x="786" d="M185 136l450 401v78l-450 401v-182l289 -258l-289 -257v-183z" />
<glyph unicode="&#x205f;" horiz-adv-x="461" />
<glyph unicode="&#x20ac;" horiz-adv-x="1249" d="M20 521h192q44 -275 191 -413q143 -137 372 -137q176 0 340 127v122q-63 -63 -132 -100q-94 -49 -202 -49q-168 0 -278.5 117t-148.5 333h391q5 11 13 27.5t17 35.5h-429q-6 65 -6 132q0 70 6 135h549q22 52 27 63h-568q38 217 148 332.5t279 115.5q108 0 202 -49 q67 -36 132 -98v122q-160 126 -340 126q-228 0 -372 -138q-148 -139 -191 -411h-163q-21 -45 -29 -63h181v-70q0 -8 -1 -29.5t-1 -35.5q0 -12 1 -31t1 -28v-73h-152q-21 -46 -29 -63z" />
<glyph unicode="&#x2122;" horiz-adv-x="1966" d="M287 1402h201v-486h53v486h204v33h-458v-33zM918 916h55v519h-55v-519zM973 1435h24l-24 38v-38zM997 1435l226 -336h22q34 52 117 180t101 156h-47q-17 -26 -85 -131t-96 -150l-191 281h-47zM1463 1435h23v38q-9 -13 -23 -38zM1486 916h53v519h-53v-519z" />
<glyph unicode="&#x2202;" horiz-adv-x="1015" d="M100 340q0 -158 97 -261t243 -103q204 0 342 213q140 216 140 533q0 256 -102 401q-103 149 -275 149q-97 0 -168 -47q-68 -47 -68 -106q0 -30 23.5 -51.5t56.5 -21.5q37 0 104 55q69 57 122 57q140 0 140 -250q0 -125 -30 -312q-35 94 -97.5 137.5t-159.5 43.5 q-156 0 -262 -124q-106 -121 -106 -313zM279 260q0 198 67 322t173 124q77 0 118 -60t41 -172q0 -191 -69 -321q-67 -124 -171 -124q-77 0 -118 59.5t-41 171.5z" />
<glyph unicode="&#x2206;" horiz-adv-x="1314" d="M-6 0h1327l-556 1414h-214zM256 171l401 1040l401 -1040h-802z" />
<glyph unicode="&#x220f;" horiz-adv-x="1486" d="M149 -377h230v1594h728v-1594h230v1791h-1188v-1791z" />
<glyph unicode="&#x2211;" horiz-adv-x="1325" d="M24 -234v-143h1262v184h-967l666 734l-645 688h920v185h-1207v-169l667 -710z" />
<glyph unicode="&#x2212;" horiz-adv-x="1646" d="M208 535h1231v163h-1231v-163z" />
<glyph unicode="&#x2215;" horiz-adv-x="327" d="M-360 -28h154l894 1487h-153z" />
<glyph unicode="&#x2219;" horiz-adv-x="624" d="M210 560h203v244h-203v-244z" />
<glyph unicode="&#x221a;" horiz-adv-x="1251" d="M59 841l24 -76l120 43l306 -847h63l570 1541h110v92h-180l-496 -1338l-246 680z" />
<glyph unicode="&#x221e;" horiz-adv-x="1636" d="M212 586q0 -157 89 -267q92 -107 220 -107q181 0 309 252q75 -134 146.5 -191t161.5 -57q130 0 209.5 102.5t79.5 271.5q0 159 -90 267t-218 108q-94 0 -170 -62.5t-141 -194.5q-69 131 -143 192t-164 61q-129 0 -209 -104t-80 -271zM285 580q0 102 60.5 165t159.5 63 q161 0 256 -169q-69 -152 -134 -218.5t-143 -66.5q-84 0 -141.5 65t-57.5 161zM879 537q70 154 134.5 219.5t142.5 65.5q85 0 142 -64t57 -162q0 -100 -62.5 -165t-158.5 -65q-159 0 -255 171z" />
<glyph unicode="&#x222b;" horiz-adv-x="1024" d="M45 -214q0 -64 48 -103t125 -39q187 0 279 199t107 658q5 192 7 291q15 594 116 594q17 0 20 -35q3 -28 10 -47q25 -71 106 -71q53 0 83.5 30t30.5 82q0 64 -48 103.5t-125 39.5q-194 0 -285 -214q-90 -209 -102 -706q-1 -21 -2 -76.5t-2 -82.5q-12 -661 -114 -661 q-18 0 -24 42q-3 36 -14 55q-33 55 -92 55t-91.5 -30t-32.5 -84z" />
<glyph unicode="&#x2248;" horiz-adv-x="1646" d="M208 261q180 154 344 154q90 0 238 -59q5 -2 12.5 -4.5t9.5 -3.5q4 -2 16 -6q142 -57 245 -57q93 0 179 33.5t187 108.5v171q-99 -81 -180.5 -117.5t-163.5 -36.5q-90 0 -238 59q-5 2 -12 4.5t-9 3.5q-3 3 -16 6q-142 57 -246 57q-93 0 -179.5 -33t-186.5 -108v-172z M208 635q178 153 344 153q90 0 238 -59q5 -2 12.5 -4t9.5 -3q4 -2 16 -6q142 -57 245 -57q93 0 179.5 33t186.5 108v171q-99 -81 -180 -117t-164 -36q-90 0 -238 59q-5 2 -12 4.5t-9 3.5q-4 2 -16 6q-142 57 -246 57q-93 0 -179 -33.5t-187 -108.5v-171z" />
<glyph unicode="&#x2260;" horiz-adv-x="1646" d="M208 338h287l-167 -202l120 -99l248 301h743v163h-609l186 230h423v162h-291l167 204l-120 98l-245 -302h-742v-162h608l-187 -230h-421v-163z" />
<glyph unicode="&#x2264;" horiz-adv-x="1646" d="M208 0h1231v163h-1231v-163zM208 629l1231 -354v171l-922 264l922 265v169l-1231 -352v-163z" />
<glyph unicode="&#x2265;" horiz-adv-x="1646" d="M208 0h1231v163h-1231v-163zM208 275l1231 354v163l-1231 352v-169l922 -265l-922 -264v-171z" />
<glyph unicode="&#x25ca;" horiz-adv-x="970" d="M6 568l480 -1026l479 1026l-479 1019zM116 568l370 785l369 -785l-369 -792z" />
<glyph unicode="&#x25fc;" horiz-adv-x="1060" d="M0 0v1062h1062v-1062h-1062z" />
<glyph unicode="&#xfb01;" horiz-adv-x="1236" d="M45 938h169v-938h177v938h486v-938h177v1075h-663v95q0 100 37 138.5t132 38.5h169v147h-177q-172 0 -255 -84t-83 -260v-75h-169v-137zM877 1268h177v224h-177v-224z" />
<glyph unicode="&#xfb02;" horiz-adv-x="1236" d="M45 938h169v-938h177v938h291v137h-291v95q0 100 37 138.5t132 38.5h317v-1347h177v1494h-492q-181 0 -264.5 -82.5t-83.5 -261.5v-75h-169v-137z" />
<glyph horiz-adv-x="0" />
<glyph horiz-adv-x="624" />
<glyph d="M206 1243h195v194h-195v-194zM582 1243h195v194h-195v-194z" />
<glyph d="M356 1211h147l219 254h-177z" />
<glyph d="M175 1243h120v5q0 43 19 67t54 24q24 0 65 -24l55 -31q48 -24 76.5 -32.5t62.5 -8.5q81 0 130.5 57t50.5 153h-120v-6q0 -40 -19 -64t-50 -24q-26 0 -68 23l-56 30q-45 24 -74 32.5t-65 8.5q-83 0 -132 -57t-49 -153z" />
<glyph d="M258 1465l220 -254h147l-189 254h-178z" />
<glyph d="M199 1211h133l160 171l159 -171h133l-202 256h-181z" />
<glyph d="M199 1467l202 -256h181l202 256h-133l-159 -171l-160 171h-133z" />
<glyph horiz-adv-x="786" d="M77 855h415v-187h82v187h136v49h-136v541h-82v-541h-402l402 541h-38l-377 -507v-83z" />
<glyph d="M191 1467q21 -232 301 -232q137 0 213 59t87 173h-114q-33 -106 -186 -106q-162 0 -187 106h-114z" />
<glyph d="M393 1243h197v196h-197v-196z" />
</font>
</defs>
</svg>
